<svg version="1.1" id="Layer_1" xmlns="http://www.w3.org/2000/svg" xmlns:xlink="http://www.w3.org/1999/xlink" x="0px" y="0px"
     width="16px" height="16px" viewBox="0 0 16 16" style="enable-background:new 0 0 16 16;" xml:space="preserve">
    <polygon points="15.296,10.24 14.021,8.965 14.021,13.526 13.011,13.526 13.011,8.965 11.744,10.24 11.04,9.536 13.52,7.056 16,9.536 " />
    <rect x="5" y="2.001" width="9.021" height="1.009" />
    <rect x="5" y="12.016" width="7.018" height="1.009" />
    <path d="M2.004,2v1.004H1V2H2.004 M3.004,1H0v3.004h3.004V1L3.004,1z" />
    <path d="M2.004,7.007v1.004H1V7.007H2.004 M3.004,6.007H0v3.004h3.004V6.007L3.004,6.007z" />
    <path d="M2.004,12.015v1.004H1v-1.004H2.004 M3.004,11.015H0v3.004h3.004V11.015L3.004,11.015z" />
    <polygon points="11.016,8.01 5.007,8.01 5.007,7.009 12.018,7.009 " />
</svg>
