<svg xmlns="http://www.w3.org/2000/svg" width="50" height="33.303" viewBox="0 0 50 33.303"><g id="Layer_2" data-name="Layer 2"><g id="Layer_1-2" data-name="Layer 1"><g><path d="M15.384,3.5A8.455,8.455,0,0,1,21.3,7.919a4.223,4.223,0,0,0,.15-1.365A6.55,6.55,0,0,0,8.718,4.393,8.3,8.3,0,0,1,15.384,3.5Z" class="msportalfx-svg-c29n"/><path d="M34.571,3.274a11.786,11.786,0,0,1,6.886,1.331A6.533,6.533,0,0,0,28.785,7.7,8.914,8.914,0,0,1,34.571,3.274Z" class="msportalfx-svg-c29n"/><path d="M49.4,18.7l.018,0-.1-.215a11.4,11.4,0,0,0-.813-1.786L44.934,8.857A8.87,8.87,0,0,0,28,9.506l-.005,0c-1.54,1.607-4.821,1.04-5.966-.016A8.871,8.871,0,0,0,5.4,8.195H5.393L1.8,15.667a11.378,11.378,0,0,0-1.19,2.478L.587,18.2H.593A11.429,11.429,0,0,0,20.5,28.778c2.695-2.73,6.127-2.73,8.657-.214,3.213,3.421,5.333,4.74,9.372,4.74C44.865,33.3,50,28.677,50,22.343A11.435,11.435,0,0,0,49.4,18.7Z" class="msportalfx-svg-c30n"/><path d="M19.872,7.358" fill="none" stroke="#fff" stroke-linecap="round" stroke-miterlimit="10" stroke-width="2"/><circle cx="11.167" cy="22.129" r="9.474" class="msportalfx-svg-c31n"/><path d="M5.884,29.994A9.474,9.474,0,0,0,20.3,19.618,37.936,37.936,0,0,1,5.884,29.994Z" class="msportalfx-svg-c30n" opacity="0.28"/><circle cx="38.767" cy="22.129" r="9.474" class="msportalfx-svg-c31n"/><path d="M33.493,29.994A9.474,9.474,0,0,0,47.911,19.618,37.936,37.936,0,0,1,33.493,29.994Z" class="msportalfx-svg-c30n" opacity="0.28"/><path d="M27.305,10.026a4.6,4.6,0,0,1-2.3.483,4.99,4.99,0,0,1-2.156-.483L21.6,21.731a3.38,3.38,0,0,1,3.281-2.4,3.34,3.34,0,0,1,3.281,2.482Z" class="msportalfx-svg-c32n" opacity="0.56"/><path d="M14.387,7.438a12.122,12.122,0,0,1,6,1.558,8.168,8.168,0,0,0-7.361-4.617c-4.4,0-6.714,2.814-8.158,7.824A11.449,11.449,0,0,1,14.387,7.438Z" class="msportalfx-svg-c31n" opacity="0.2"/><path d="M35.069,7.608c2.243-.732,6.778-.916,7.966-.212-2.535-2.46-4.1-2.9-6.559-2.819-4.4.137-7.124,2.808-7.5,6.621C29.706,11.191,32.536,8.434,35.069,7.608Z" class="msportalfx-svg-c31n" opacity="0.2"/></g></g></g></svg>
