<svg viewBox="0.5 24.5 24 24" enable-background="new 0.5 24.5 24 24" xml:space="preserve">
<path fill-rule="evenodd" clip-rule="evenodd" d="M18.446,40.87L8.133,30.557c1.252-0.926,2.768-1.442,4.367-1.442 c1.978,0,3.831,0.768,5.22,2.168c1.4,1.389,2.168,3.252,2.168,5.22C19.888,38.102,19.382,39.607,18.446,40.87z M7.28,41.722 c-2.526-2.515-2.841-6.409-0.958-9.271L16.552,42.68c-1.189,0.779-2.589,1.21-4.052,1.21C10.522,43.89,8.669,43.122,7.28,41.722z M19.572,29.431c-1.884-1.884-4.399-2.926-7.072-2.926s-5.188,1.042-7.072,2.926c-3.904,3.904-3.904,10.239,0,14.144 C7.312,45.458,9.827,46.5,12.5,46.5s5.188-1.042,7.072-2.926C23.476,39.67,23.476,33.335,19.572,29.431z"/>
</svg>
