<svg viewBox="0 0 30 30">
	<path d="M6.8,9.7c0,0.6-0.2,1-0.6,1.4s-0.9,0.6-1.5,0.6c-0.6,0-1.1-0.2-1.5-0.6c-0.4-0.4-0.6-0.9-0.6-1.4c0-0.6,0.2-1.1,0.6-1.4
		c0.4-0.4,0.9-0.6,1.5-0.6c0.6,0,1.1,0.2,1.5,0.6S6.8,9.1,6.8,9.7z M6.8,21.4c0,0.6-0.2,1.1-0.6,1.4c-0.4,0.4-0.9,0.6-1.5,0.6
		c-0.6,0-1.1-0.2-1.5-0.6c-0.4-0.4-0.6-0.9-0.6-1.4c0-0.6,0.2-1.1,0.6-1.5c0.4-0.4,0.9-0.6,1.5-0.6s1.1,0.2,1.5,0.6
		S6.8,20.8,6.8,21.4z"/>
	<path d="M10.3,16.1v-2.5h8.1v2.5H10.3z"/>
	<path d="M27.1,27.9c-1.5-1.7-2.7-3.6-3.5-5.8s-1.2-4.6-1.2-7.1c0-2.6,0.4-4.9,1.1-7s1.9-4.1,3.5-6H30c-1.6,2-2.7,4.1-3.5,6.2
		c-0.7,2.1-1.1,4.4-1.1,6.9c0,4.8,1.5,9.1,4.6,12.9H27.1z"/>
</svg>
