<svg viewBox="0 0 30 30">
	<path d="M7.7,9.7c0,0.6-0.2,1-0.6,1.4s-0.9,0.6-1.5,0.6c-0.6,0-1.1-0.2-1.5-0.6c-0.4-0.4-0.6-0.9-0.6-1.4c0-0.6,0.2-1.1,0.6-1.4
		C4.4,7.8,5,7.6,5.5,7.6c0.6,0,1.1,0.2,1.5,0.6S7.7,9.1,7.7,9.7z M7.7,21.4c0,0.6-0.2,1.1-0.6,1.4c-0.4,0.4-0.9,0.6-1.5,0.6
		c-0.6,0-1.1-0.2-1.5-0.6c-0.4-0.4-0.6-0.9-0.6-1.4c0-0.6,0.2-1.1,0.6-1.5c0.4-0.4,0.9-0.6,1.5-0.6s1.1,0.2,1.5,0.6
		S7.7,20.8,7.7,21.4z"/>
	<path d="M11.2,16.1v-2.5h8.1v2.5H11.2z"/>
	<path d="M29.1,14.9c0,2.5-0.4,4.9-1.2,7.1c-0.8,2.2-2,4.1-3.5,5.8h-2.9c3.1-3.7,4.6-8,4.6-12.9c0-2.6-0.4-4.9-1.1-7
		c-0.7-2.1-1.9-4.1-3.5-6.1h2.9C26,3.8,27.2,5.8,28,7.9C28.7,10.1,29.1,12.4,29.1,14.9z"/>
</svg>
