<svg viewBox="0 0 50 50">
    <polygon class="msportalfx-svg-c15" points="45,6.761 40.239,2 38.239,0 38,0 3,0 3,50 47,50 47,9 47,8.761 "/>
    <polygon opacity="0.8" class="msportalfx-svg-c01" points="38,2 5,2 5,48 45,48 45,9 38,9 "/>
    <path class="msportalfx-svg-c15" d="M38.857,24.738c0,0.618-0.501,1.119-1.119,1.119H22.637c-0.618,0-1.119-0.501-1.119-1.119
        c0-0.618,0.501-1.119,1.119-1.119h15.101C38.356,23.619,38.857,24.12,38.857,24.738"/>
    <polygon class="msportalfx-svg-c15" points="11.509,11.203 24.765,18.844 11.509,26.485 "/>
    <path class="msportalfx-svg-c15" d="M38.857,29.89c0,0.618-0.501,1.118-1.119,1.118h-25.11c-0.617,0-1.118-0.5-1.118-1.118
        c0-0.618,0.501-1.119,1.118-1.119h25.11C38.356,28.771,38.857,29.272,38.857,29.89"/>
    <path class="msportalfx-svg-c15" d="M38.857,35.042c0,0.618-0.501,1.119-1.119,1.119h-25.11c-0.617,0-1.118-0.501-1.118-1.119
        c0-0.617,0.501-1.119,1.118-1.119h25.11C38.356,33.923,38.857,34.425,38.857,35.042"/>
    <path class="msportalfx-svg-c15" d="M38.857,40.194c0,0.618-0.501,1.119-1.119,1.119h-25.11c-0.617,0-1.118-0.501-1.118-1.119
        c0-0.618,0.501-1.119,1.118-1.119h25.11C38.356,39.075,38.857,39.576,38.857,40.194"/>
</svg>
