<svg xmlns="http://www.w3.org/2000/svg" width="40" height="40" viewBox="0 0 40 40">
  <title>Asset 1</title>
  <g id="Layer_2" data-name="Layer 2">
    <g id="Layer_1-2" data-name="Layer 1">
      <g>
        <rect width="12" height="12" class="msportalfx-svg-c13" />
        <rect x="14" width="12" height="12" class="msportalfx-svg-c13"/>
        <rect x="28" width="12" height="12" class="msportalfx-svg-c13"/>
        <rect y="14" width="12" height="12" class="msportalfx-svg-c13"/>
        <rect x="14" y="14" width="12" height="12" class="msportalfx-svg-c13"/>
        <rect x="28" y="14" width="12" height="12" class="msportalfx-svg-c13"/>
        <rect y="28" width="12" height="12" class="msportalfx-svg-c13"/>
        <rect x="14" y="28" width="12" height="12" class="msportalfx-svg-c13"/>
        <rect x="28" y="28" width="12" height="12" class="msportalfx-svg-c13"/>
      </g>
      <path d="M35.1,10.951a12.447,12.447,0,0,0-7.726-5.687,12.5,12.5,0,0,0-13.833,18.41L3.964,33.333a3.229,3.229,0,0,0,4.589,4.544l9.537-9.614a12.28,12.28,0,0,0,3.288,1.349,12.526,12.526,0,0,0,15.17-9.175A12.439,12.439,0,0,0,35.1,10.951Z"  class="msportalfx-svg-c33" opacity="0.4"/>
      <path d="M31.9,18.539a8.781,8.781,0,1,1-1.011-6.644A8.761,8.761,0,0,1,31.9,18.539" class="msportalfx-svg-c01" opacity="0.45"/>
      <path d="M28.121,9.057A8.765,8.765,0,0,0,16.139,21.378a8.841,8.841,0,0,0,.794.989A23.158,23.158,0,0,1,28.121,9.057" class="msportalfx-svg-c15" opacity="0.3" style="isolation: isolate"/>
      <path d="M34.1,9.951a12.447,12.447,0,0,0-7.726-5.687,12.5,12.5,0,0,0-13.833,18.41L2.964,32.333a3.229,3.229,0,0,0,4.589,4.544l9.537-9.614a12.28,12.28,0,0,0,3.288,1.349,12.526,12.526,0,0,0,15.17-9.175A12.439,12.439,0,0,0,34.1,9.951Zm-2.2,8.588a8.781,8.781,0,1,1-1.011-6.644A8.761,8.761,0,0,1,31.9,18.539Z" class="msportalfx-svg-c07"/>
      <path d="M16.217,26.807a12.521,12.521,0,0,1-3.233-3.26c-.18-.265-.336-.541-.5-.817l-.9.908-.1.1c.119.195.241.386.37.575a13.855,13.855,0,0,0,3.583,3.614,5.04,5.04,0,0,0,.684.306l.907-.914C16.758,27.158,16.484,26.991,16.217,26.807Z" class="msportalfx-svg-c06" opacity="0.25" style="isolation: isolate"/>
    </g>
  </g>
</svg>
