<svg version="1.1" id="Layer_1" xmlns="http://www.w3.org/2000/svg" xmlns:xlink="http://www.w3.org/1999/xlink" x="0px" y="0px" viewBox="0 0 40 40" enable-background="new 0 0 40 40" xml:space="preserve">
	<rect fill="#6ABD45" width="40" height="40"/>
	<path fill="#FFFFFF" d="M29.1,18.4c0.1-0.3,0.1-0.5,0.1-0.9c0-4.2-3.5-7.5-7.7-7.5l0,0c-3,0-5.8,1.6-7,4.4c-0.4,0-0.7-0.2-1.1-0.2
		c-3,0-5.5,2.4-5.5,5.5c0,3,2.5,5.5,5.5,5.5h2.8c0.1,0.4,0.3,0.8,0.7,1.1c1,1.1,2.7,1,3.6,0c1-1,1-2.7,0-3.6c-1-1.1-2.7-1.1-3.6,0
		c-0.2,0.2-0.4,0.7-0.5,1l-2.9,0.1l0,0c-2.1,0-3.9-1.7-3.9-3.9s1.7-3.9,3.9-3.9c0.4,0,0.8,0.1,1.3,0.2l0.8,0.2l0.2-0.8
		c0.8-2.3,3.1-3.8,5.8-3.8c3.3,0,6,2.5,6.1,5.7c0,0.5-0.1,1.1-0.2,1.6L27.2,20l1.3-0.2c0.1,0,0.2,0,0.2,0c1,0,1.7,0.8,1.7,1.7
		c0,0.9-0.7,1.6-1.5,1.7c0,0-4.2,0-4.3,0c-0.2-1.2-0.8-2.3-1.6-3.1c-1.1-1.1-2.5-1.7-4-1.7c-1.1,0-2.1,0.3-3,0.8l0.9,1.4
		c0.7-0.4,1.4-0.5,2.1-0.5c1.1,0,2.1,0.4,2.8,1.2c0.8,0.8,1.2,1.7,1.2,2.8c0,1.1-0.4,2.1-1.2,2.8c-0.8,0.8-1.7,1.2-2.8,1.2
		c-0.8,0-1.5-0.2-2.1-0.7L16,29.1c0.9,0.5,2,0.9,3,0.9c1.5,0,3-0.5,4-1.7c0.9-0.9,1.4-2,1.6-3.3C24.8,25,29,25,29,25h0.1
		c1.7-0.2,3.1-1.7,3.1-3.5C32,19.7,30.7,18.7,29.1,18.4z"/>
</svg>
