<svg viewBox="0 0 30 30">
<rect fill="#F03C2E" width="30" height="30"/>
<path class="msportalfx-svg-c01" d="M23.722,14.206l-7.93-7.929c-0.438-0.44-1.146-0.44-1.584,0l-1.699,1.707l2.044,2.042 c0.153-0.06,0.317-0.094,0.501-0.094c0.758,0,1.368,0.612,1.368,1.38c0,0.172-0.026,0.343-0.087,0.5l2.001,1.999 c0.154-0.061,0.328-0.097,0.5-0.097c0.766,0,1.38,0.622,1.38,1.38c0,0.767-0.614,1.378-1.38,1.378c-0.759,0-1.379-0.611-1.379-1.378 c0-0.172,0.034-0.345,0.095-0.501l-1.888-1.886v4.922c0.456,0.232,0.758,0.697,0.758,1.23c0,0.767-0.611,1.381-1.368,1.381 c-0.768,0-1.381-0.614-1.381-1.381c0-0.585,0.363-1.084,0.89-1.282v-4.983c-0.527-0.198-0.89-0.697-0.89-1.282 c0-0.182,0.035-0.346,0.097-0.509l-2.043-2.035l-5.446,5.439c-0.438,0.438-0.438,1.146,0,1.586l7.929,7.927 c0.438,0.441,1.146,0.441,1.584,0l7.93-7.927C24.16,15.352,24.16,14.645,23.722,14.206z"/>
</svg>
