<svg viewBox="0 0 30 30">
<path fill="#F03C2E" d="M29.455,13.685L16.312,0.544c-0.727-0.729-1.899-0.729-2.625,0L10.87,3.372l3.387,3.385 c0.254-0.1,0.525-0.156,0.83-0.156c1.256,0,2.268,1.014,2.268,2.287c0,0.285-0.043,0.568-0.145,0.828l3.317,3.313 c0.256-0.102,0.543-0.16,0.828-0.16c1.269,0,2.287,1.031,2.287,2.287c0,1.271-1.018,2.283-2.287,2.283 c-1.258,0-2.285-1.012-2.285-2.283c0-0.285,0.057-0.572,0.158-0.83l-3.129-3.125v8.157c0.756,0.385,1.256,1.154,1.256,2.039 c0,1.271-1.012,2.289-2.268,2.289c-1.273,0-2.289-1.018-2.289-2.289c0-0.969,0.601-1.797,1.475-2.125v-8.258 c-0.873-0.328-1.475-1.154-1.475-2.125c0-0.301,0.059-0.574,0.16-0.844L9.571,4.671l-9.026,9.014c-0.727,0.727-0.727,1.899,0,2.629 l13.141,13.137c0.727,0.731,1.899,0.731,2.625,0l13.143-13.137C30.182,15.584,30.182,14.412,29.455,13.685z"/>
</svg>
