<svg version="1.1" id="Layer_1" xmlns="http://www.w3.org/2000/svg" xmlns:xlink="http://www.w3.org/1999/xlink" x="0px" y="0px"
	 width="50px" height="50px" viewBox="0 0 50 50" enable-background="new 0 0 50 50" xml:space="preserve">
    <path d="M31.4,36.6c-0.2-0.7-1.1-2.2-1.1-2.2s-0.2,2.1-1.6,4.2c-1.4,2.1-2.4,2.5-2.4,2.5s-0.1,0.7,0.6,0.7
	c0.3,0,3.4,0,4,0c0.6,0,1-0.5,1-1.1c0-0.6-0.5-1.2-0.5-1.2S31.7,37.3,31.4,36.6z" />
    <path d="M3.2,31.7C3.2,31.7,3.2,31.7,3.2,31.7c0,0-1.2,1.4-1.9,2.4c-0.7,1-0.2,1.7-0.2,1.7s2.1,3.5,3.9,3
	C5.5,38.6,6,37.6,6,37.6s-0.7-1-1.4-2.3C3.9,34,3.3,32,3.2,31.7z" />
    <path d="M50,16.6c-0.3-6.6-2.1-8.5-2.6-8.4c-0.7,0.1-0.9,1.2-1.7,1.7c-1,0.7-1.7,0.6-2.2,1.2c-0.6,0.6,0.6,2.1,0.4,6
	c-0.2,3.6-2.5,5-2.5,5s1.1-1.6,1.3-2.7c0.2-0.8-0.3-1-0.7-1.3c-0.7-0.6-2,0.9-2.4,1.3c0.6-0.6,1.5-1.5,1.1-2.1
	c-0.7-1.1-2.1-0.3-2.4-0.2c0.3-0.2,1-0.4,0.9-1.1c-0.2-1.2-1.4-0.9-1.6-0.8c0.5-0.2,0.8-0.5,2.1-0.4c0.7,0,0.6-0.7,0.1-1.4
	c-0.7-0.9-1.2-1.2-1.9-1.4c-0.7-0.2-2-0.1-2-0.1s0.9-0.6,1.4-0.5c-0.7-0.9-2.9-4.3-6.7-4.5c-6.9-0.3-8.9,4.1-8.9,4.1l3.3-0.2
	c0,0-1,0.4-3.1,0.7c-1.6,0.3-1.5,0.3-2,0.4c-0.8,0.2-2.7,2.6-4.5,4.5s-3.6,4.6-3.6,5.6c0,1,1,1.7,1.6,2.6c0.6,0.8,0.8,1.3,0.8,1.3
	l2.4-2.9l-2.9,5.9c0,0,1.4,1.8,2.8,1.6c1.1-0.1,3.5-2.1,5.1-2.4c1.6-0.3,2.3-0.1,2.3-0.1s1.1-2.9,0.6-4.9c-0.9-3.6-0.2-5.6,0.5-6.8
	c-0.6,4.8,1,5.2,0.9,8.3c-0.1,2.3-0.8,4.9-0.8,4.9s-2.3-0.8-4.1,0.1c-1.8,0.9-3.3,2.2-5,2.2c-1.8,0-4.1-3-4.1-3l1.3-1.9
	c0,0-0.1-0.6-0.7-1.2c-0.8-1-2-2.3-2.1-3.4c-0.1-1.8,1.8-3.8,2.4-4.7s2.7-3.1,2.7-3.1s-5.9,0.8-8.3,3.7c-3,3.5-3.4,4.6-4.5,4.7
	s-1.5-1-1.5-1S2,22,1.9,21c-0.2-1.6,0.3-2.6,0.3-2.6s-1.8,1.1-2.1,2.2c-0.3,1.1,0.5,1.4,0.5,1.4s0,2,1.2,2.5
	c1.2,0.5,2.1,0.1,2.1,0.1s-0.7,3.7,0.2,6.4s3.1,5.7,3.1,5.7s-0.2,2-0.4,2.6C6.6,39.8,5.8,41,7,41.8s4.2,1.1,4.8,0.7
	c0.7-0.4,0.5-1.6,0.6-2c0.1-0.4,1-2.1,1.1-2.6c0.1-0.5,0.1-3-0.1-3.9c0.2,0.4,0.9,2.3,3.7,2.4c2.5,0.1,3.3-1.3,3.4-2.2
	c0,0.4,0.2,2.3-0.1,2.6c-0.2,0.4-1,0.6-1.8,1c-0.7,0.5-1.7,1-0.1,3c1.9,2.3,2.2,2.5,3.8,1.2c1.6-1.2,3.3-2.4,4.5-3.9
	c1.2-1.5,3.3-7.1,3.3-7.1s-1.3-0.9-2.1-1.9c-0.6-0.8-0.7-1.3-0.7-1.3s1.7,1.6,3.5,2.1c0.6,0.8,1.8,1.8,2.7,2.2
	c3.4,1.4,4.5-2.9,4.5-2.9l-0.5-0.1c0,0-0.9,2.2-2.5,2c-3-0.4-2.1-6.5-2.1-6.5s3,4.4,9.2,4.3C46,29.1,50.3,24.6,50,16.6z M28.6,16.3
	c0,0,0.3-2.9,0.8-3.3c0.7-0.5,2.7,0.1,2.7,0.1s-1.3,0-2,0.7C29.5,14.4,28.6,16.3,28.6,16.3z M33.5,18.8c-0.9,0.7-1.7,1.7-1.7,1.7
	s0.1-0.4,0.3-0.7c0.2-0.3,0.5-0.7,0.5-0.7s-0.3-0.1-0.8-0.5c-0.3-0.3-0.4-0.5-0.4-0.7c0,0-0.2,0.1-0.4,0.3s-0.6,0.6-0.6,0.6
	s0.8-1.6,2-2.4c1.2-0.8,2.5-0.8,2.5-0.8s-0.2,0-0.6,0.2c-0.5,0.2-0.5,0.3-0.5,0.3s0.4,0.1,0.8,0.5c0.4,0.4,0.4,0.9,0.4,0.9
	s0.1,0,0.5-0.2s0.9-0.2,0.9-0.2S34.8,17.8,33.5,18.8z M46.2,11.3c-1,0.8-2.1,0.8-2.2,0.5c-0.1-0.3,0.1-0.3,0.1-0.3s1.1-0.4,1.7-0.9
	c0.8-0.6,1.5-1.9,1.7-1.6S47,10.7,46.2,11.3z" />
    <path d="M25.2,12.6c0,0-0.7,0.3-2,0.5c-1.3,0.2-2.2,0.1-2.8,0.4c-0.9,0.5-1.4,1.4-1.8,2.7c-0.5,1.6-0.4,3.6-0.4,3.6
	s0.8-2.9,1.4-3.9c0.5-0.8,0.9-1.1,0.9-1.1s-0.2,0.5-0.1,0.9c0.1,1,0.5,1.7,0.5,1.7s0.1-2,0.8-2.9c0.4-0.5,1-0.9,1.8-1
	S25.2,12.6,25.2,12.6z" />
</svg>
