<svg xmlns="http://www.w3.org/2000/svg" viewBox="0 0 26.7 23.49"><defs></defs><title>Asset 2</title><g id="Layer_2" data-name="Layer 2"><g id="Layer_1-2" data-name="Layer 1">
<polygon class="msportalfx-svg-c34n" points="20.69 10.03 20.7 0 9.19 1.66 9.18 10.02 20.69 10.03"/>
<polygon class="msportalfx-svg-c34n" points="8.37 1.79 0.01 3 0.01 10.01 8.36 10.02 8.37 1.79"/>
<polygon class="msportalfx-svg-c34n" points="0.01 10.83 0 17.92 8.35 19.17 8.36 10.83 0.01 10.83"/>
<polygon class="msportalfx-svg-c34n" points="9.17 19.27 20.68 21 20.69 10.85 9.18 10.84 9.17 19.27"/>
<path class="msportalfx-svg-c35n" d="M20.7,23A5.5,5.5,0,1,1,26.2,17.5,5.51,5.51,0,0,1,20.7,23Z"/>
<path class="msportalfx-svg-c01" d="M20.71,12.49a5,5,0,1,1-5,5,5,5,0,0,1,5-5m0-1a6,6,0,1,0,6,6,6,6,0,0,0-6-6Z"/>
<circle class="msportalfx-svg-c01" cx="20.7" cy="20.08" r="0.93"/>
<polygon class="msportalfx-svg-c01" points="20.84 14.41 20.57 14.41 19.87 14.41 20.11 18.72 20.56 18.72 20.84 18.72 21.29 18.72 21.54 14.41 20.84 14.41"/></g></g></svg>


