<svg viewBox="-0.5 0.5 50 50">
<path class="msportalfx-svg-c16" d="M-0.5,45.127c0,1.108,0.898,2.007,2.007,2.007h45.986c1.109,0,2.007-0.899,2.007-2.007V13.134h-50V45.127z" />
<path class="msportalfx-svg-c03" d="M47.493,4.5H1.507C0.398,4.5-0.5,5.398-0.5,6.507v7.291h50V6.507C49.5,5.398,48.601,4.5,47.493,4.5z"/>
<rect x="-0.5" y="13.798" opacity="0.15" class="msportalfx-svg-c01" width="50" height="3.336"/>
<path opacity="0.1" class="msportalfx-svg-c01" d="M1.514,4.5c-1.108,0-2.007,0.898-2.007,2.007v7.291v3.336v27.993 c0,1.108,0.899,2.007,2.007,2.007h19.188L43.12,4.5H1.514z"/>
<polygon class="msportalfx-svg-c01" points="30.552,22.169 23.096,40.003 20.42,40.003 27.844,22.169"/>
 <polygon fill="none" points="17.723,35.359 17.723,26.938 9.757,31.149"/> <polygon class="msportalfx-svg-c01" points="9.757,31.149 17.723,26.938 17.723,24.169 6.5,30.101 6.5,32.196 17.723,38.129 17.723,35.359"/>
 <polygon fill="none" points="32.42,35.359 32.42,26.938 40.386,31.149"/> <polygon class="msportalfx-svg-c01" points="40.386,31.149 32.42,26.938 32.42,24.169 43.643,30.101 43.643,32.196 32.42,38.129 32.42,35.359"/>
</svg>
