<svg viewBox="0 0 50 50">
<polygon class="msportalfx-svg-c03" points="23.569,8.756 16.667,15.304 16.667,11.751 24.996,3 33.333,11.72 33.333,15.262 26.468,8.756 26.468,20.354 23.569,20.354"/>
<path class="msportalfx-svg-c03" d="M48.148,25H1.853C0.833,25,0,25.832,0,26.853V31v13v4.147C0,49.168,0.836,50,1.848,50h46.295 c1.02,0,1.853-0.832,1.853-1.853V44V31v-4.147C49.996,25.832,49.16,25,48.148,25z M46.232,31v15H3.701v-2h0.062V29h42.531v2H46.232z"/>
<rect x="3.728" y="29" class="msportalfx-svg-c05" width="42.5" height="17.01"/>
<rect x="20.646" y="33.676" class="msportalfx-svg-c13" width="8.323" height="8.324"/>
<rect x="33.064" y="33.676" class="msportalfx-svg-c13" width="8.32" height="8.324"/>
<rect x="8.229" y="33.676" class="msportalfx-svg-c13" width="8.324" height="8.324"/>
</svg>
