<svg viewBox="0 0 50 50">
    <rect x="4" class="msportalfx-svg-c02" width="10.003" height="50"/>
    <rect x="6" y="2" class="msportalfx-svg-c15" width="5.941" height="46"/>
    <rect x="6" y="20" opacity="0.6" class="msportalfx-svg-c01" width="6.003" height="28"/>
    <rect x="4" y="18" class="msportalfx-svg-c04" width="9.999" height="4"/>
    <rect x="4.001" y="18" opacity="0.7" class="msportalfx-svg-c01" width="10" height="2"/>
    <rect x="20" class="msportalfx-svg-c02" width="10.003" height="50"/>
    <rect x="22" y="2" class="msportalfx-svg-c15" width="5.941" height="46"/>
    <rect x="22.005" y="36" opacity="0.6" class="msportalfx-svg-c01" width="6.003" height="12"/>
    <rect x="20" y="34" class="msportalfx-svg-c04" width="9.999" height="4"/>
    <rect x="20.001" y="34" opacity="0.7" class="msportalfx-svg-c01" width="10" height="2"/>
    <rect x="36" class="msportalfx-svg-c02" width="10.003" height="50"/>
    <rect x="38" y="2" class="msportalfx-svg-c15" width="5.941" height="46"/>
    <rect x="38" y="20" opacity="0.6" class="msportalfx-svg-c01" width="6.003" height="28"/>
    <rect x="36" y="18" class="msportalfx-svg-c04" width="9.999" height="4"/>
    <rect x="36.001" y="18" opacity="0.7" class="msportalfx-svg-c01" width="10" height="2"/>
    <rect x="4.001" y="22" opacity="0.2" class="msportalfx-svg-c06" width="10" height="2"/>
    <rect x="35.97" y="22" opacity="0.2" class="msportalfx-svg-c06" width="10" height="2"/>
    <rect x="20.007" y="38" opacity="0.2" class="msportalfx-svg-c06" width="10" height="2"/>
</svg>
