<svg viewBox="0 0 50 50">
    <path class="msportalfx-svg-c04" d="M32.426,38.534h-1.191h-11.79H18.83c1.634,5.768-0.561,6.595-10.175,6.595v3.02h12.227h8.927h11.538v-3.02
        C31.733,45.129,30.79,44.305,32.426,38.534"/>
    <path class="msportalfx-svg-c03" d="M46.98,2H2.718C1.214,2,0.001,3.345,0.001,4.847v30.866c0,1.493,1.213,2.823,2.717,2.823H46.98
        c1.501,0,3.021-1.33,3.021-2.823V4.847C50.001,3.341,48.481,2,46.98,2 M46.157,5.848v28.841H3.848V5.848L46.27,5.786L46.157,5.848z"
        />
    <polygon class="msportalfx-svg-c15" points="46.212,5.848 46.212,34.689 3.79,34.689 3.79,5.848 46.212,5.786 "/>
    <path opacity="0.2" class="msportalfx-svg-c01" d="M3.848,34.689H3.789V5.849l38.74-0.058l4.482-3.788c-0.011,0-0.021-0.002-0.031-0.002H2.717
        C1.213,2.001,0,3.345,0,4.848v30.865c0,1.494,1.213,2.824,2.717,2.824H3.77l4.554-3.848H3.848z"/>
    <polygon class="msportalfx-svg-c01" points="26.43,20.575 33.333,14.027 33.333,17.58 25.003,26.331 16.666,17.611 16.666,14.069 23.532,20.575 
        23.532,6.977 26.43,6.977 "/>
    <rect x="17.778" y="29.18" class="msportalfx-svg-c01" width="14.445" height="3.333"/>
    <rect x="8.655" y="45.128" class="msportalfx-svg-c03" width="32.692" height="3.021"/>
    <path class="msportalfx-svg-c13" d="M25.518,4.095c0,0.392-0.318,0.71-0.71,0.71c-0.393,0-0.709-0.318-0.709-0.71c0-0.393,0.316-0.71,0.709-0.71
        C25.2,3.385,25.518,3.702,25.518,4.095"/>
</svg>
