<svg viewBox="0 0 50 50">
    <path class="msportalfx-svg-c15" d="M0,44.627c0,1.108,0.898,2.007,2.007,2.007h45.986c1.109,0,2.007-0.899,2.007-2.007V13.298H0V44.627z"/>
    <path class="msportalfx-svg-c03" d="M47.993,4H2.007C0.898,4,0,4.898,0,6.007v10.627h50V6.007C50,4.898,49.101,4,47.993,4"/>
    <polygon class="msportalfx-svg-c01" points="26.556,21.397 19.1,39.232 14.424,39.232 21.848,21.397 "/>
    <polygon class="msportalfx-svg-c01" points="36.123,21.397 28.667,39.232 23.991,39.232 31.415,21.397 "/>
        <path opacity="0.2" class="msportalfx-svg-c01" d="M2.014,4C0.906,4,0.007,4.898,0.007,6.007v7.291v3.336v27.993c0,1.108,0.899,2.007,2.007,2.007h2.188
                    L43.62,4H2.014z"/>
    <rect x="12.857" y="8.779" class="msportalfx-svg-c01" width="33.671" height="3.942"/>
    <path class="msportalfx-svg-c15" d="M11.31,10.683c0,2.693-2.184,4.878-4.878,4.878c-2.694,0-4.878-2.185-4.878-4.878
        c0-2.694,2.184-4.879,4.878-4.879C9.125,5.804,11.31,7.989,11.31,10.683"/>
    <polygon class="msportalfx-svg-c01" points="5.916,11.232 8.129,13.568 6.928,13.568 3.969,10.75 6.917,7.932 8.115,7.932 5.916,10.254 
        11.309,10.254 11.309,11.232 "/>
</svg>
