<svg viewBox="0 0 50 50">
    <rect x="5" y="5" class="msportalfx-svg-c13" width="8.868" height="8.792"/>
    <rect x="15.377" y="5" class="msportalfx-svg-c13" width="8.868" height="8.792"/>
    <rect x="25.728" y="5" class="msportalfx-svg-c13" width="8.895" height="8.792"/>
    <rect x="36.132" y="5" class="msportalfx-svg-c13" width="8.868" height="8.792"/>
    <rect x="5" y="15.402" class="msportalfx-svg-c13" width="8.868" height="8.792"/>
    <rect x="15.377" y="15.402" class="msportalfx-svg-c13" width="8.868" height="8.792"/>
    <rect x="25.728" y="15.402" class="msportalfx-svg-c13" width="8.895" height="8.792"/>
    <rect x="36.132" y="15.402" class="msportalfx-svg-c13" width="8.868" height="8.792"/>
    <rect x="5" y="25.804" class="msportalfx-svg-c13" width="8.868" height="8.917"/>
    <rect x="15.377" y="25.804" class="msportalfx-svg-c13" width="8.868" height="8.917"/>
    <rect x="25.728" y="25.804" class="msportalfx-svg-c13" width="8.895" height="8.917"/>
    <rect x="36.132" y="25.804" class="msportalfx-svg-c13" width="8.868" height="8.917"/>
    <rect x="5" y="36.208" class="msportalfx-svg-c13" width="8.868" height="8.792"/>
    <rect x="15.377" y="36.208" class="msportalfx-svg-c13" width="8.868" height="8.792"/>
    <rect x="25.728" y="36.208" class="msportalfx-svg-c13" width="8.895" height="8.792"/>
    <rect x="36.132" y="36.208" class="msportalfx-svg-c13" width="8.868" height="8.792"/>
</svg>
