<svg viewBox="0 0 50 50">
    <polygon class="msportalfx-svg-c05" points="24.65,50 3,37.5 3,12.5 24.65,0 46.301,12.5 46.301,37.5 "/>
    <path opacity="0.2" class="msportalfx-svg-c01" d="M24.651,50L46.3,37.5v-25C46.3,12.5,28.413,26.12,24.651,50"/>
    <path class="msportalfx-svg-c01" d="M34.172,14.958c-5.55-5.526-14.518-5.526-20.074,0c-5.549,5.549-5.549,14.535,0,20.084
        c5.549,5.525,14.524,5.525,20.074,0C39.715,29.497,39.715,20.511,34.172,14.958"/>
    <path class="msportalfx-svg-c15" d="M32.227,16.903c-4.474-4.456-11.705-4.456-16.185,0c-4.473,4.474-4.473,11.719,0,16.192
        c4.475,4.456,11.711,4.456,16.185,0C36.697,28.626,36.697,21.38,32.227,16.903"/>
    <polygon class="msportalfx-svg-c01" points="31.029,24.986 20.127,17.816 20.127,25.015 30.986,25.015 "/>
    <polygon opacity="0.8" class="msportalfx-svg-c01" points="30.986,25.015 20.127,25.015 20.127,32.213 "/>
</svg>
