<svg viewBox="0 0 50 50">
    <path class="msportalfx-svg-c16" d="M0,44.627c0,1.108,0.898,2.007,2.007,2.007h45.986c1.109,0,2.007-0.899,2.007-2.007V12.634H0V44.627z"/>
    <path class="msportalfx-svg-c03" d="M47.993,4H2.007C0.898,4,0,4.898,0,6.007v7.291h50V6.007C50,4.898,49.101,4,47.993,4z"/>
    <rect y="13.298" opacity="0.15" class="msportalfx-svg-c01" width="50" height="3.336"/>
    <path opacity="0.1" class="msportalfx-svg-c01" d="M2.014,4C0.906,4,0.007,4.898,0.007,6.007v7.291v3.336v27.993
        c0,1.108,0.899,2.007,2.007,2.007h19.188L43.62,4H2.014z"/>
    <polygon class="msportalfx-svg-c01" points="7.363,37.334 7.363,36.062 16.343,31.637 16.343,31.584 7.363,26.563 7.363,25.317 18.397,31.505 
        18.397,31.743 "/>
    <rect x="17.621" y="41.785" class="msportalfx-svg-c01" width="11.262" height="1.576"/>
</svg>
