<svg class="msportal-fx-svg-placeholder" viewBox="0 0 30 30">
      <path fill="#00BCF2" d="M25.701,27.155V1.423H2v27.155C2,29.363,2.637,30,3.423,30h22.278V27.155z"/>
        <path fill="#EAEBED" d="M3.423,0C2.637,0,2,0.637,2,1.423c0,0.786,0.637,1.423,1.423,1.423H25.7L28.545,0H3.423z"/>
    <polygon fill="#D1D1D1" points="25.701,30 28.591,27.084 28.591,0 28.545,0 25.7,2.845 25.701,2.845             "/>
        <path fill="#FFFFFF" d="M20.695,15.117c0.084-0.33,0.13-0.67,0.13-1.015c0-1.36-0.666-2.559-1.695-3.284l-1.614,2.719
            c-0.066,0.102-0.015,0.187,0.108,0.187l2.07-0.013c0.119-0.004,0.149,0.07,0.069,0.159l-5.344,6.095
            c-0.079,0.091-0.111,0.076-0.063-0.035l1.687-4.119c0.039-0.109-0.017-0.199-0.138-0.199h-1.642
            c-0.117,0-0.181-0.085-0.135-0.202l1.966-5.246c-1.328,0.25-2.42,1.164-2.929,2.381c-0.515-0.609-1.286-0.999-2.147-0.999
            c-1.552,0-2.816,1.269-2.816,2.837c0,0.274,0.039,0.53,0.108,0.775c-1.268,0.471-2.176,1.7-2.176,3.139
            c0,1.844,1.484,3.344,3.319,3.344h10.239c1.839,0,3.32-1.497,3.32-3.344C23.018,16.804,22.043,15.542,20.695,15.117z"/>
  </svg>
