<svg viewBox="0 0 50 50">
    <path class="msportalfx-svg-c08" d="M2.001,45.578v-27.8c0-1.617,1.311-2.927,2.927-2.927h39.145c1.617,0,2.928,1.31,2.928,2.927v27.8H2.001z"/>
    <path class="msportalfx-svg-c17" d="M44.271,31.609c-2.872,0-5.2,2.327-5.2,5.199c0,2.872,2.328,5.2,5.2,5.2c1.005,0,1.934-0.298,2.729-0.791
        V32.4C46.205,31.907,45.275,31.609,44.271,31.609z"/>
    <path class="msportalfx-svg-c06" d="M37.111,14.851h-3.389V9.997c0-0.887-0.72-1.608-1.607-1.608h-15.23c-0.885,0-1.607,0.721-1.607,1.608v4.854
        H11.89V9.997C11.89,7.242,14.132,5,16.885,5h15.23c2.755,0,4.996,2.242,4.996,4.997L37.111,14.851z"/>
    <polygon opacity="0.6" class="msportalfx-svg-c12" points="19.077,35.804 2,31.731 2,38.339 17.587,42.056 "/>
    <path opacity="0.8" class="msportalfx-svg-c10" d="M16.84,19.344c0.254,1.656-2.448,3.445-6.035,3.996c-3.588,0.551-6.702-0.344-6.956-2
        c-0.255-1.656,2.447-3.445,6.035-3.996C13.471,16.793,16.586,17.688,16.84,19.344"/>
    <path opacity="0.2" class="msportalfx-svg-c01" d="M44.271,33.274c-1.951,0-3.533,1.582-3.533,3.534s1.582,3.534,3.533,3.534
        c1.106,0,2.082-0.519,2.729-1.314v-4.44C46.352,33.793,45.377,33.274,44.271,33.274z"/>
    <rect x="2" y="27.127" opacity="0.3" class="msportalfx-svg-c06"  width="45" height="2.112"/>
    <path opacity="0.3" class="msportalfx-svg-c06"  d="M28.187,25.966c0.727,0,1.314,0.588,1.314,1.314v3.988
        c0,0.726-0.587,1.314-1.314,1.314h-7.376c-0.726,0-1.313-0.588-1.313-1.314V27.28c0-0.726,0.587-1.314,1.313-1.314L28.187,25.966z"
        />
    <rect x="2.001" y="26.002" class="msportalfx-svg-c02" width="45" height="2.111"/>
</svg>
