<?xml version="1.0" encoding="utf-8"?>
<!-- Generator: Adobe Illustrator 20.0.0, SVG Export Plug-In . SVG Version: 6.00 Build 0)  -->
<svg version="1.1" id="Layer_1" xmlns="http://www.w3.org/2000/svg" xmlns:xlink="http://www.w3.org/1999/xlink" x="0px" y="0px"
	 width="50px" height="50px" viewBox="0 0 50 50" enable-background="new 0 0 50 50" xml:space="preserve">
<path fill="#DD5900" d="M25.172,46c2.328,0,4.261-1.803,4.679-3.9H20.49C20.909,44.197,22.84,46,25.172,46z"/>
<g id="alerts_2_">
	<path opacity="0.1" fill="#FFFFFF" enable-background="new    " d="M25.163,42.1h-4.687c0.419,2.097,2.35,3.9,4.682,3.9
		c0.002,0,0.003,0,0.005,0V42.1z"/>
</g>
<path fill="#DD5900" d="M38.987,24.1c0-8.909-1.056-19.9-14-19.9s-14,10.991-14,19.9c0,6.964-1,11-3,12c-1.265,0.632-1.364,4,2,4h30
	c3.5,0,3.234-3.37,2-4C40.001,35.086,38.987,31.064,38.987,24.1z"/>
<path opacity="0.1" fill="#FFFFFF" enable-background="new    " d="M25,4.201c-0.004,0-0.008,0-0.013,0c-12.944,0-14,10.991-14,19.9
	c0,6.964-1,11-3,12c-1.265,0.632-1.364,4,2,4H25V4.201z"/>
</svg>
