<svg viewBox="0.5 0.5 50 50">
    <path d="M25.19,28.092l2.75,2.672l3.125-3.032c-0.172-1.485,0.328-3.015,1.5-4.14c1.172-1.14,2.75-1.625,4.265-1.453
    L50.5,8.905L42.845,1.5L29.19,14.733c0.157,1.468-0.328,3.015-1.5,4.14c-1.172,1.125-2.75,1.61-4.265,1.437L20.3,23.342l2.75,2.672
    L9.55,39.075l-0.5-0.468l-2.593,2.015l-4.358,6.672l1.11,1.078l6.89-4.218l2.093-2.515l-0.5-0.485L25.19,28.092z" />
    <path d="M33.002,26.842c-0.11,0.422-0.125,0.86-0.078,1.297l0.062,0.562l-0.407,0.407l-3.125,3.015l-1.14,1.11
    l-2.75-2.657l-1.485,1.422L39.343,46.87c0.985,0.953,2.282,1.422,3.562,1.422c1.297,0,2.578-0.468,3.562-1.422
    c1.968-1.907,1.968-4.983,0-6.89L33.002,26.842z" />
    <path d="M14.487,22.78l0.032,0.047l4.562,4.407l1.485-1.422l-1.89-1.843l-0.86-0.828l4.672-4.532l0.578,0.062
    c0.157,0.015,0.297,0.015,0.453,0.015c0.297,0,0.61-0.032,0.89-0.093l-2.765-2.672l-0.203-0.172
    c0.985-3.468,0.078-7.343-2.733-10.077C15.908,2.968,11.94,2.078,8.378,3l6.03,5.843l-1.578,5.75l-5.92,1.53l-6.047-5.858
    c-0.953,3.453-0.032,7.297,2.765,10.015C6.567,23.123,10.785,23.952,14.487,22.78z" />
</svg>
