<?xml version="1.0" encoding="utf-8"?>
<!-- Generator: Adobe Illustrator 22.1.0, SVG Export Plug-In . SVG Version: 6.00 Build 0)  -->
<svg version="1.1" id="Layer_1" xmlns="http://www.w3.org/2000/svg" xmlns:xlink="http://www.w3.org/1999/xlink" x="0px" y="0px"
	 viewBox="0 0 12 12" style="enable-background:new 0 0 12 12;" xml:space="preserve">
<style type="text/css">
	.st0{fill:#0060F0;}
	.st1{fill:#FFFFFF;}
</style>
<path class="st0" d="M6,11.5C3,11.5,0.5,9,0.5,6C0.5,3,3,0.5,6,0.5c3,0,5.5,2.5,5.5,5.5C11.5,9,9,11.5,6,11.5z"/>
<path class="st1" d="M6,1c2.8,0,5,2.2,5,5s-2.2,5-5,5S1,8.8,1,6S3.2,1,6,1 M6,0C2.7,0,0,2.7,0,6s2.7,6,6,6s6-2.7,6-6S9.3,0,6,0L6,0z
	"/>
<circle class="st1" cx="6" cy="3.5" r="1"/>
<polygon class="st1" points="5.9,9.5 6.1,9.5 6.9,9.5 6.9,5.3 6.1,5.3 5.9,5.3 5.2,5.3 5.1,9.5 "/>
</svg>
