<svg xmlns="http://www.w3.org/2000/svg" width="23.078" height="21.105" viewBox="0 0 23.078 21.105"><title>Asset 4directory_no filter black</title><g id="Layer_2" data-name="Layer 2"><g id="Layer_1-2" data-name="Layer 1"><path d="M12.746,17V15.722H6.172V1.278H14.1V6.8h1.277V0H1.219V3.389H0V4.666H1.219V11.8H0V13.08H1.219V17ZM2.5,13.08H3.721V11.8H2.5V4.666H3.721V3.389H2.5V1.278h2.4V15.722H2.5Z"></path><path d="M21.528,9.4l-4.941,4.941-.381.381V19.8H15.092V14.726l-.381-.381L9.77,9.4H21.528m1.55-1.3H8.221V9.694l5.571,5.571V21.1h3.714v-5.84l5.571-5.571V8.1Z"></path></g></g></svg>