<svg viewBox="0 0 50 50" class="msportalfx-svg-placeholder" role="img" focusable="false" xmlns:svg="http://www.w3.org/2000/svg" xmlns:xlink="http://www.w3.org/1999/xlink">
    <path d="M42.3,0.3L28.6,0.8L0,29.4l20.3,20.3l28.6-28.6L50,8L42.3,0.3z M43.4,10.9c-1.1,1.1-2.9,1.1-4,0 c-1.1-1.1-1.1-2.9,0-4c1.1-1.1,2.9-1.1,4,0C44.5,8,44.5,9.8,43.4,10.9z" class="msportalfx-svg-c17"></path>
    <polygon opacity="0.1" points="0,29.4 20.3,49.7 24.9,45.2 24.9,4.5" class="msportalfx-svg-c01"></polygon>
    <path opacity="0.3" d="M45.1,5.2c-2-2-5.3-2-7.3,0c-2,2-2,5.3,0,7.3c2,2,5.3,2,7.3,0C47.1,10.5,47.1,7.2,45.1,5.2z M43.4,10.9c-1.1,1.1-2.9,1.1-4,0c-1.1-1.1-1.1-2.9,0-4c1.1-1.1,2.9-1.1,4,0C44.5,8,44.5,9.8,43.4,10.9z" class="msportalfx-svg-c06"></path>
</svg>