<svg version="1.1" id="Layer_1" xmlns="http://www.w3.org/2000/svg" xmlns:xlink="http://www.w3.org/1999/xlink" x="0px" y="0px"
	 width="32px" height="32px" viewBox="0 0 32 32" enable-background="new 0 0 32 32" xml:space="preserve">
<path d="M16,0H6v6h10V0z M14,4H8V2h6V4z"/>
<rect x="18" width="8" height="2"/>
<rect x="18" y="4" width="8" height="2"/>
<path d="M6,18v4h7h2h9h2V8H6V18z M15,20h-2H8v-1.2l5-5l3.6,3.6l1.4,1.4l1-1l2.2,2.2H15z M24,10v10l-5-5l-1,1l-5-5
	l-5,5v-6H24z"/>
<circle cx="21" cy="13" r="1"/>
<path d="M16,30h1v2l2-2h7v-6H16V30z M18,26h6v2h-5h-0.8H18V26z"/>
<rect x="6" y="24" width="8" height="2"/>
<rect x="6" y="28" width="8" height="2"/>
</svg>
