<svg version="1.1" id="Layer_1" xmlns="http://www.w3.org/2000/svg" xmlns:xlink="http://www.w3.org/1999/xlink" x="0px" y="0px"
	 width="32px" height="32px" viewBox="0 0 32 32" enable-background="new 0 0 32 32" xml:space="preserve">
<rect x="18" width="8" height="2"/>
<rect x="18" y="4" width="8" height="2"/>
<path d="M12,18v4h3h2h9v-2V9H12V18z M17,20h-2h-1v-1.2l3-3l1.6,1.6l1.4,1.4l1-1l2.2,2.2H17z M24,11v7l-3-3l-1,1l-3-3
	l-3,3v-5H24z"/>
<circle cx="22" cy="13" r="1"/>
<path d="M7,9l2-2h7V0H6v7h1V9z M8,2h6v3H9H8.2H8V2z"/>
<rect x="18" y="25" width="8" height="2"/>
<rect x="18" y="29" width="8" height="2"/>
<rect x="6" y="11" width="4" height="2"/>
<rect x="6" y="15" width="4" height="2"/>
<rect x="6" y="19" width="4" height="2"/>
<path d="M16,24H6v8h10V24z M14,30H8v-4h6V30z"/>
</svg>
