<svg version="1.1" id="Layer_1" xmlns="http://www.w3.org/2000/svg" xmlns:xlink="http://www.w3.org/1999/xlink" x="0px" y="0px"
	 width="32px" height="32px" viewBox="0 0 32 32" enable-background="new 0 0 32 32" xml:space="preserve">
<path d="M4.7,28.7l3.6-3.6c2.1,1.8,4.8,2.8,7.7,2.8s5.6-1.1,7.7-2.8l3.6,3.6l1.4-1.4l-3.6-3.6
	c1.8-2.1,2.8-4.8,2.8-7.7c0-1.8-0.4-3.4-1.1-5c1.3-0.9,2.1-2.4,2.1-4c0-2.8-2.2-5-5-5c-1.8,0-3.5,1-4.3,2.6C18.5,4.2,17.3,4,16,4
	c-1.3,0-2.5,0.2-3.6,0.6c-0.2-0.4-0.5-0.8-0.8-1.1c-1.9-2-5.1-1.9-7.1,0C3.5,4.4,3,5.7,3,7c0,1.3,0.5,2.6,1.5,3.5
	c0.2,0.2,0.4,0.4,0.6,0.5C4.4,12.6,4,14.2,4,16c0,2.9,1.1,5.6,2.8,7.7l-3.6,3.6L4.7,28.7z M24,4c1.7,0,3,1.3,3,3
	c0,0.9-0.4,1.7-1.1,2.3c-1.1-1.7-2.6-3-4.4-3.9C22.1,4.5,23,4,24,4z M5.9,9.1C5.3,8.6,5,7.8,5,7c0-0.8,0.3-1.6,0.9-2.1
	C7,3.7,9,3.7,10.1,4.9c0.1,0.1,0.3,0.3,0.4,0.5C8.7,6.3,7.2,7.6,6.1,9.3C6,9.2,5.9,9.2,5.9,9.1z M16,6c5.5,0,10,4.5,10,10
	s-4.5,10-10,10S6,21.5,6,16S10.5,6,16,6z"/>
<polygon points="20.9,19.5 17,15.6 17,10 15,10 15,16.4 19.5,20.9 "/>
</svg>
