<svg version="1.1" id="Layer_1" xmlns="http://www.w3.org/2000/svg" xmlns:xlink="http://www.w3.org/1999/xlink" x="0px" y="0px"
	 width="32px" height="32px" viewBox="0 0 32 32" enable-background="new 0 0 32 32" xml:space="preserve">
<path d="M4.7,29.7l3.6-3.6c2.1,1.8,4.8,2.8,7.7,2.8s5.6-1.1,7.7-2.8l3.6,3.6l1.4-1.4l-3.6-3.6
	c1.8-2.1,2.8-4.8,2.8-7.7c0-6.6-5.4-12-12-12S4,10.4,4,17c0,2.9,1.1,5.6,2.8,7.7l-3.6,3.6L4.7,29.7z M16,7c5.5,0,10,4.5,10,10
	s-4.5,10-10,10S6,22.5,6,17S10.5,7,16,7z"/>
<polygon points="20.9,20.5 17,16.6 17,11 15,11 15,17.4 19.5,21.9 "/>
<rect x="25.6" y="2.4" transform="matrix(0.7071 -0.7071 0.7071 0.7071 3.2721 20.6862)" width="2" height="8"/>
<rect x="4.4" y="2.4" transform="matrix(0.7071 0.7071 -0.7071 0.7071 6.1005 -1.9413)" width="2" height="8"/>
</svg>
