<svg version="1.1" id="Layer_1" xmlns="http://www.w3.org/2000/svg" xmlns:xlink="http://www.w3.org/1999/xlink" x="0px" y="0px"
	 width="32px" height="32px" viewBox="0 0 32 32" enable-background="new 0 0 32 32" xml:space="preserve">
<path d="M19,10c-1.7,0-3,1.3-3,3s1.3,3,3,3s3-1.3,3-3S20.7,10,19,10z M19,14c-0.6,0-1-0.4-1-1s0.4-1,1-1s1,0.4,1,1
	S19.6,14,19,14z"/>
<path d="M19,3c-4.5,0-8.3,2.9-9.5,7H4v18h18v-5.5c4.1-1.3,7-5.1,7-9.5C29,7.5,24.5,3,19,3z M9,13.6L7.4,12h1.6
	C9,12.3,9,12.7,9,13C9,13.2,9,13.4,9,13.6z M6,13.4L18.6,26H6V13.4z M20,24.6L18.4,23c0.2,0,0.4,0,0.6,0c0.3,0,0.7,0,1-0.1V24.6z
	 M19,21c-1.2,0-2.3-0.3-3.3-0.7l-3.9-3.9C11.3,15.3,11,14.2,11,13c0-4.4,3.6-8,8-8s8,3.6,8,8S23.4,21,19,21z"/>
</svg>
