<svg version="1.1" id="Layer_1" xmlns="http://www.w3.org/2000/svg" xmlns:xlink="http://www.w3.org/1999/xlink" x="0px" y="0px"
	 width="32px" height="32px" viewBox="0 0 32 32" enable-background="new 0 0 32 32" xml:space="preserve">
<path d="M4,7v21v2h1h22h1V6H10V1L4,7z M10,24V10c1.7-1.3,3.8-2,6-2c5.5,0,10,4.5,10,10s-4.5,10-10,10
	c-2.7,0-5.2-1.1-7.1-2.9L10,24z M6,7.8l2-2v17.3l-2,2V7.8z M6,28l1.5-1.5c0.6,0.6,1.2,1.1,1.9,1.5H6z M26,28h-3.4
	c1.3-0.9,2.5-2,3.4-3.4V28z M26,8v3.4C25.1,10,24,8.9,22.6,8H26z"/>
<path d="M16,21c1.7,0,3-1.3,3-3s-1.3-3-3-3c-1.7,0-3,1.3-3,3S14.3,21,16,21z M16,17c0.6,0,1,0.4,1,1s-0.4,1-1,1
	c-0.6,0-1-0.4-1-1S15.4,17,16,17z"/>
</svg>
