<svg version="1.1" id="Layer_1" xmlns="http://www.w3.org/2000/svg" xmlns:xlink="http://www.w3.org/1999/xlink" x="0px" y="0px"
	 width="32px" height="32px" viewBox="0 0 32 32" enable-background="new 0 0 32 32" xml:space="preserve">
<path d="M18,4c-2.6,0-5.1,0.9-7,2.5V1L3,9v19v2h23v-7.5c1.9-2,3-4.6,3-7.5C29,8.9,24.1,4,18,4z M18,6c5,0,9,4,9,9
	s-4,9-9,9c-2.8,0-5.3-1.2-7-3.4V9.4C12.7,7.2,15.2,6,18,6z M5,9.8l4-4v15.3l-4,4V9.8z M5,28l5.2-5.2C12.3,24.8,15,26,18,26
	c2.2,0,4.3-0.7,6-1.8V28H5z"/>
<path d="M18,18c1.7,0,3-1.3,3-3s-1.3-3-3-3s-3,1.3-3,3S16.3,18,18,18z M18,14c0.6,0,1,0.4,1,1s-0.4,1-1,1s-1-0.4-1-1
	S17.4,14,18,14z"/>
</svg>
