<svg width="19" height="19" viewBox="0 0 19 19" version="1.1" xmlns="http://www.w3.org/2000/svg" xmlns:xlink="http://www.w3.org/1999/xlink">
<title>Group</title>
<desc>Created using Figma</desc>
<g id="Canvas" transform="translate(2356 -4458)">
<g id="Group">
<g id="Vector">
<path transform="translate(-2355.2 4458.59)" fill="currentColor" d="M 9 0C 4.03 0 0 4.03 0 9C 0 13.97 4.03 18 9 18C 13.97 18 18 13.97 18 9C 18 4.03 13.97 0 9 0ZM 16.86 8.68C 16.06 8.38 15.31 8.03 14.59 7.65C 14.61 7.54 14.62 7.43 14.62 7.32C 14.62 6.39 13.86 5.63 12.93 5.63C 12.58 5.63 12.26 5.74 11.99 5.91C 11.09 5.17 10.31 4.36 9.69 3.48C 10.13 2.77 10.6 2.08 11.09 1.42C 14.33 2.32 16.72 5.21 16.86 8.68ZM 13.5 7.31C 13.5 7.62 13.25 7.87 12.94 7.87C 12.63 7.87 12.38 7.62 12.38 7.31C 12.38 7 12.63 6.75 12.94 6.75C 13.25 6.75 13.5 7 13.5 7.31ZM 9 1.13C 9.3 1.13 9.61 1.15 9.9 1.19C 9.61 1.59 9.32 2 9.05 2.43C 8.82 2.01 8.63 1.59 8.47 1.15C 8.65 1.14 8.82 1.13 9 1.13ZM 7.35 1.32C 7.61 2.08 7.95 2.81 8.38 3.51C 7.77 4.55 7.23 5.66 6.72 6.8C 6.55 6.77 6.37 6.75 6.19 6.75C 5.58 6.75 5.02 6.95 4.56 7.28C 3.77 6.34 3.14 5.33 2.74 4.25C 3.86 2.78 5.48 1.72 7.35 1.32ZM 4.21 15.23C 2.34 13.79 1.13 11.54 1.13 9C 1.13 7.71 1.46 6.49 2.01 5.42C 2.45 6.37 3.07 7.26 3.79 8.1C 3.53 8.53 3.38 9.02 3.38 9.56C 3.38 10.65 4 11.58 4.9 12.05C 4.63 13.09 4.39 14.15 4.21 15.23ZM 4.5 9.56C 4.5 8.63 5.26 7.87 6.19 7.87C 7.12 7.87 7.88 8.63 7.88 9.56C 7.88 10.49 7.12 11.25 6.19 11.25C 5.26 11.25 4.5 10.49 4.5 9.56ZM 9 16.88C 7.64 16.88 6.35 16.53 5.23 15.92C 5.41 14.7 5.68 13.52 5.98 12.36C 6.05 12.37 6.11 12.38 6.18 12.38C 6.95 12.38 7.65 12.07 8.15 11.57C 9.11 12.09 10.15 12.54 11.24 12.92C 11.24 12.93 11.24 12.94 11.24 12.95C 11.24 13.88 12 14.64 12.93 14.64C 13.56 14.64 14.1 14.29 14.39 13.78C 14.64 13.83 14.87 13.9 15.12 13.94C 13.69 15.72 11.48 16.88 9 16.88ZM 12.38 12.94C 12.38 12.63 12.63 12.38 12.94 12.38C 13.25 12.38 13.5 12.63 13.5 12.94C 13.5 13.25 13.25 13.5 12.94 13.5C 12.63 13.5 12.38 13.25 12.38 12.94ZM 15.83 12.91C 15.42 12.85 15.01 12.78 14.61 12.7C 14.49 11.88 13.8 11.25 12.95 11.25C 12.42 11.25 11.95 11.5 11.64 11.88C 10.63 11.53 9.68 11.11 8.8 10.63C 8.92 10.31 9 9.94 9 9.56C 9 8.58 8.5 7.73 7.75 7.22C 8.16 6.3 8.6 5.39 9.08 4.53C 9.71 5.35 10.48 6.11 11.33 6.81C 11.28 6.97 11.25 7.14 11.25 7.31C 11.25 8.24 12.01 9 12.94 9C 13.36 9 13.74 8.84 14.03 8.59C 14.9 9.06 15.82 9.48 16.8 9.84C 16.68 10.94 16.36 11.99 15.83 12.91Z"/>
</g>
</g>
</g>
</svg>
