<svg version="1.1" id="Layer_1" xmlns="http://www.w3.org/2000/svg" xmlns:xlink="http://www.w3.org/1999/xlink" x="0px" y="0px"
	 width="32px" height="32px" viewBox="0 0 32 32" enable-background="new 0 0 32 32" xml:space="preserve">
<path d="M26,30H4V2h24v12.4l-2,2V30z M6,28h18V16.4l-2-2V4H6V28z M24,13.6l1,1l1-1V4h-2V13.6z"/>
<rect x="10" y="4" width="2" height="2"/>
<rect x="8" y="6" width="2" height="2"/>
<rect x="10" y="8" width="2" height="2"/>
<rect x="8" y="10" width="2" height="2"/>
<rect x="10" y="12" width="2" height="2"/>
<rect x="8" y="14" width="2" height="2"/>
<rect x="10" y="16" width="2" height="2"/>
<rect x="8" y="18" width="2" height="2"/>
<rect x="10" y="20" width="2" height="2"/>
<rect x="8" y="22" width="2" height="2"/>
<rect x="10" y="24" width="2" height="2"/>
<rect x="8" y="26" width="2" height="2"/>
</svg>
