<svg version="1.1" id="Layer_1" xmlns="http://www.w3.org/2000/svg" xmlns:xlink="http://www.w3.org/1999/xlink" x="0px" y="0px"
	 width="32px" height="32px" viewBox="0 0 32 32" enable-background="new 0 0 32 32" xml:space="preserve">
<path d="M28.8,12.7C28.2,11.1,26.7,10,25,10c-0.4,0-0.8,0.1-1.3,0.2L20,11.4V7c0-2.2-1.8-4-4-4s-4,1.8-4,4v4.4
	l-3.7-1.2C7.8,10.1,7.4,10,7,10c-1.7,0-3.2,1.1-3.8,2.7c-0.7,2.1,0.4,4.4,2.5,5.1L9.5,19l-2.7,3.6c-1.3,1.8-1,4.3,0.8,5.6
	C8.3,28.7,9.2,29,10,29c1.2,0,2.4-0.6,3.2-1.6l2.8-3.7l2.8,3.7c0.8,1,2,1.6,3.2,1.6c0.8,0,1.7-0.3,2.4-0.8c1.8-1.3,2.1-3.8,0.8-5.6
	L22.5,19l3.7-1.2C28.4,17.1,29.5,14.8,28.8,12.7z M21.9,17.1L19.3,18l1.7,2.2l2.7,3.6c0.7,0.9,0.5,2.1-0.4,2.8
	C22.9,26.9,22.4,27,22,27c-0.6,0-1.2-0.3-1.6-0.8l-2.8-3.7L16,20.3l-1.6,2.1l-2.8,3.7c-0.4,0.5-1,0.8-1.6,0.8
	c-0.4,0-0.8-0.1-1.2-0.4c-0.9-0.7-1.1-1.9-0.4-2.8l2.7-3.6l1.7-2.2l-2.6-0.9l-3.7-1.2c-1-0.3-1.6-1.5-1.3-2.5C5.4,12.5,6.1,12,7,12
	c0.2,0,0.4,0,0.6,0.1l3.7,1.2l2.6,0.9v-2.8V7c0-1.1,0.9-2,2-2s2,0.9,2,2v4.4v2.8l2.6-0.9l3.7-1.2C24.6,12,24.8,12,25,12
	c0.9,0,1.6,0.6,1.9,1.4c0.3,1-0.2,2.2-1.3,2.5L21.9,17.1z"/>
</svg>
