<svg version="1.1" id="Layer_1" xmlns="http://www.w3.org/2000/svg" xmlns:xlink="http://www.w3.org/1999/xlink" x="0px" y="0px"
	 width="32px" height="32px" viewBox="0 0 32 32" enable-background="new 0 0 32 32" xml:space="preserve">
<path d="M26,10c-0.4,0-0.7,0.1-1.1,0.2L19,12.5V6c0-1.7-1.3-3-3-3s-3,1.3-3,3v6.5l-5.9-2.3C6.7,10.1,6.4,10,6,10
	c-1.2,0-2.3,0.7-2.8,1.9c-0.6,1.5,0.2,3.3,1.7,3.9l6.3,2.5l-4.6,5.9c-0.5,0.6-0.7,1.4-0.6,2.2c0.1,0.8,0.5,1.5,1.1,2
	c1.3,1,3.2,0.7,4.2-0.5l4.6-6l4.6,6c0.6,0.7,1.4,1.2,2.4,1.2c0.7,0,1.3-0.2,1.8-0.6c0.6-0.5,1-1.2,1.1-2c0.1-0.8-0.1-1.6-0.6-2.2
	l-4.6-5.9l6.3-2.5c1.5-0.6,2.3-2.3,1.7-3.9C28.3,10.7,27.2,10,26,10z M26.4,13.9l-8.8,3.4l6.2,8c0.2,0.2,0.2,0.5,0.2,0.7
	c0,0.3-0.2,0.5-0.4,0.7C23.4,27,23.2,27,23,27c-0.3,0-0.6-0.1-0.8-0.4L16,18.5l-6.2,8.1C9.6,26.9,9.3,27,9,27c-0.2,0-0.4,0-0.6-0.2
	C8.2,26.6,8,26.4,8,26.1c0-0.3,0-0.5,0.2-0.7l6.2-8l-8.8-3.4c-0.5-0.2-0.8-0.8-0.6-1.3c0.2-0.5,0.8-0.8,1.3-0.6l8.6,3.4V6
	c0-0.6,0.4-1,1-1s1,0.4,1,1v9.4l8.6-3.4c0.5-0.2,1.1,0.1,1.3,0.6C27.1,13.1,26.9,13.7,26.4,13.9z"/>
</svg>
