<svg version="1.1" id="Layer_1" xmlns="http://www.w3.org/2000/svg" xmlns:xlink="http://www.w3.org/1999/xlink" x="0px" y="0px"
	 width="32px" height="32px" viewBox="0 0 32 32" enable-background="new 0 0 32 32" xml:space="preserve">
<path d="M7,17.8V32h2V17.8c1.2-0.4,2-1.5,2-2.8V6H9V1c0-0.6-0.4-1-1-1S7,0.4,7,1v5H5v9C5,16.3,5.8,17.4,7,17.8z M7,8
	h2v7c0,0.6-0.4,1-1,1s-1-0.4-1-1V8z"/>
<path d="M15,17.8V32h2V17.8c1.2-0.4,2-1.5,2-2.8V6h-2V1c0-0.6-0.4-1-1-1s-1,0.4-1,1v5h-2v9
	C13,16.3,13.8,17.4,15,17.8z M15,8h2v7c0,0.6-0.4,1-1,1s-1-0.4-1-1V8z"/>
<path d="M23,17.8V32h2V17.8c1.2-0.4,2-1.5,2-2.8V6h-2V1c0-0.6-0.4-1-1-1s-1,0.4-1,1v5h-2v9
	C21,16.3,21.8,17.4,23,17.8z M23,8h2v7c0,0.6-0.4,1-1,1s-1-0.4-1-1V8z"/>
</svg>
