<svg version="1.1" id="Layer_1" xmlns="http://www.w3.org/2000/svg" xmlns:xlink="http://www.w3.org/1999/xlink" x="0px" y="0px"
	 width="32px" height="32px" viewBox="0 0 32 32" enable-background="new 0 0 32 32" xml:space="preserve">
<path d="M5.3,28.1c1.2,1.2,3.1,1.2,4.2,0c0.6-0.6,0.9-1.4,0.9-2.2l8.8-7.4c0.6,2,2.5,3.5,4.8,3.5
	c2.4,0,4.4-1.7,4.9-4c0-0.2,0-0.3,0.1-0.5c0-0.2,0.1-0.3,0.1-0.5c0-1.9-1.1-3.6-2.7-4.4l1.3-1.1c1.9-1.9,1.9-5.1,0-7.1
	c-1.9-1.9-5.1-1.9-7.1,0.1L6.1,21.6c-0.8,0-1.6,0.2-2.2,0.9c-1.2,1.2-1.2,3.1,0,4.2L5.3,28.1z M21.1,16.4C21.4,15,22.6,14,24,14
	c0.2,0,0.4,0,0.5,0.1c0.7,0.1,1.3,0.5,1.7,1c-0.1,0-0.2,0-0.2,0c-1.1,0-2,0.5-2.8,1.4C22.9,16.8,22.4,17,22,17
	c-0.3,0-0.5-0.1-0.7-0.3C21.2,16.6,21.1,16.5,21.1,16.4z M26.9,17.6C26.6,19,25.4,20,24,20c-0.9,0-1.7-0.4-2.2-1c0.1,0,0.2,0,0.2,0
	c1.1,0,2-0.5,2.8-1.4c0.3-0.4,0.8-0.6,1.2-0.6C26.4,17,26.8,17.3,26.9,17.6z M5.3,23.9c0.4-0.4,1-0.4,1.4,0L8,22.4L21.9,5.9
	c1.2-1.2,3.1-1.2,4.2,0c1.2,1.2,1.2,3.1,0.1,4.2l-2.3,2c-2.3,0.1-4.3,1.7-4.7,4l-9.5,8l-1.5,1.3c0.4,0.4,0.4,1,0,1.4
	c-0.4,0.4-1,0.4-1.4,0l-1.4-1.4C4.9,24.9,4.9,24.3,5.3,23.9z"/>
</svg>
