<svg version="1.1" id="Layer_1" xmlns="http://www.w3.org/2000/svg" xmlns:xlink="http://www.w3.org/1999/xlink" x="0px" y="0px"
	 width="32px" height="32px" viewBox="0 0 32 32" enable-background="new 0 0 32 32" xml:space="preserve">
<path d="M27.5,3.5c-1.9-1.9-5.1-1.9-7.1,0.1L6.1,20.6c-0.8,0-1.6,0.2-2.2,0.9c-1.2,1.2-1.2,3.1,0,4.2l1.4,1.4
	c1.2,1.2,3.1,1.2,4.2,0c0.6-0.6,0.9-1.4,0.9-2.2l4.8-4.1c0.8,3,3.5,5.2,6.8,5.2c3.9,0,7-3.1,7-7c0-2.8-1.6-5.2-4-6.3l2.6-2.1
	C29.5,8.6,29.5,5.4,27.5,3.5z M27,19c0,2.8-2.2,5-5,5c-1.6,0-3.1-0.8-4-2c1.8,0,3.5-0.8,4.7-2.4c0.9-1.1,2-1.6,3.2-1.6
	C26.5,18,27,18.4,27,19z M26,16c-1.8,0-3.5,0.8-4.7,2.4c-0.9,1.1-2,1.6-3.2,1.6c-0.4,0-0.8-0.3-0.9-0.7c0-0.1-0.1-0.2-0.1-0.3
	c0-1.3,0.5-2.5,1.3-3.4c0.3-0.3,0.7-0.6,1.1-0.9C20.1,14.3,21,14,22,14c0.4,0,0.8,0.1,1.2,0.2C24.3,14.4,25.3,15.1,26,16z M26.2,9.1
	l-3.6,3c-0.2,0-0.4,0-0.6,0c-3.7,0-6.7,2.8-7,6.4L9.6,23l-1.5,1.3c0.4,0.4,0.4,1,0,1.4c-0.4,0.4-1,0.4-1.4,0l-1.4-1.4
	c-0.4-0.4-0.4-1,0-1.4c0.4-0.4,1-0.4,1.4,0L8,21.4L21.9,4.9c1.2-1.2,3.1-1.2,4.2,0S27.3,7.9,26.2,9.1z"/>
</svg>
