<svg version="1.1" id="Layer_1" xmlns="http://www.w3.org/2000/svg" xmlns:xlink="http://www.w3.org/1999/xlink" x="0px" y="0px"
	 width="32px" height="32px" viewBox="0 0 32 32" enable-background="new 0 0 32 32" xml:space="preserve">
<path d="M25,4C25,4,25,4,25,4L25,4c-2.5-1.9-5.6-3-9-3S9.5,2.1,7,4h0c0,0,0,0,0,0c-3.6,2.7-6,7.1-6,12s2.4,9.2,6,12
	c0,0,0,0,0,0h0c2.5,1.9,5.6,3,9,3s6.5-1.1,9-3h0c0,0,0,0,0,0c3.6-2.7,6-7.1,6-12S28.6,6.8,25,4z M22.9,5c-0.5,3.4-3.4,6-6.9,6
	S9.6,8.4,9.1,5c2-1.3,4.4-2,6.9-2S20.9,3.7,22.9,5z M9.1,27c0.5-3.4,3.4-6,6.9-6s6.4,2.6,6.9,6c-2,1.3-4.4,2-6.9,2S11.1,28.3,9.1,27
	z M24.7,25.7c-1-3.8-4.5-6.7-8.7-6.7s-7.6,2.8-8.7,6.7C4.7,23.3,3,19.8,3,16s1.7-7.3,4.3-9.7c1,3.8,4.5,6.7,8.7,6.7s7.6-2.8,8.7-6.7
	C27.3,8.7,29,12.2,29,16S27.3,23.3,24.7,25.7z"/>
</svg>
