<svg version="1.1" id="Layer_1" xmlns="http://www.w3.org/2000/svg" xmlns:xlink="http://www.w3.org/1999/xlink" x="0px" y="0px"
	 width="32px" height="32px" viewBox="0 0 32 32" enable-background="new 0 0 32 32" xml:space="preserve">
<path d="M16,0C7.7,0,1,6.7,1,15s6.7,15,15,15s15-6.7,15-15S24.3,0,16,0z M28.9,14H17v-2c3.9,0,7.1-2.8,7.9-6.5
	C27.2,7.7,28.7,10.7,28.9,14z M17,2.1c2.2,0.2,4.2,0.9,6,2c0,3.3-2.7,5.9-6,5.9V2.1z M15,10c-3.3,0-6-2.7-6-5.9c1.8-1.1,3.8-1.8,6-2
	V10z M7.1,5.5c0.7,3.7,4,6.5,7.9,6.5v2H3.1C3.3,10.7,4.8,7.7,7.1,5.5z M3.1,16H15v2c-3.9,0-7.1,2.8-7.9,6.5
	C4.8,22.3,3.3,19.3,3.1,16z M15,27.9c-2.2-0.2-4.2-0.9-6-2c0-3.3,2.7-5.9,6-5.9V27.9z M17,20c3.3,0,6,2.7,6,5.9
	c-1.8,1.1-3.8,1.8-6,2V20z M24.9,24.5c-0.7-3.7-4-6.5-7.9-6.5v-2h11.9C28.7,19.3,27.2,22.3,24.9,24.5z"/>
</svg>
