<svg version="1.1" id="Layer_1" xmlns="http://www.w3.org/2000/svg" xmlns:xlink="http://www.w3.org/1999/xlink" x="0px" y="0px"
	 width="32px" height="32px" viewBox="0 0 32 32" enable-background="new 0 0 32 32" xml:space="preserve">
<circle fill="none" stroke="#010101" stroke-width="2" stroke-miterlimit="10" cx="8" cy="22" r="5"/>
<circle fill="none" stroke="#010101" stroke-width="2" stroke-miterlimit="10" cx="24" cy="22" r="5"/>
<path fill="none" stroke="#010101" stroke-width="2" stroke-miterlimit="10" d="M19,22v-1l3-14c0-1.1,0.9-2,2-2s2,0.9,2,2l3,14v1"/>
<path fill="none" stroke="#010101" stroke-width="2" stroke-miterlimit="10" d="M3,22v-1L6,7c0-1.1,0.9-2,2-2s2,0.9,2,2l3,14v1"/>
<path fill="none" stroke="#010101" stroke-width="2" stroke-miterlimit="10" d="M20,17c0-1.1-0.9-2-2-2h-4c-1.1,0-2,0.9-2,2"/>
<line fill="none" stroke="#010101" stroke-width="2" stroke-miterlimit="10" x1="21" y1="11" x2="11" y2="11"/>
</svg>
