<svg version="1.1" id="Layer_1" xmlns="http://www.w3.org/2000/svg" xmlns:xlink="http://www.w3.org/1999/xlink" x="0px" y="0px"
	 width="32px" height="32px" viewBox="0 0 32 32" enable-background="new 0 0 32 32" xml:space="preserve">
<path d="M3.1,9.5l8.5,8.5l-8,8H1v2h2v2h2v-2.6l8-8l8.5,8.5c-0.4,0.4-0.9,0.7-1.3,1l1.1,1.7C25.5,27.7,28,23.1,28,18
	c0-3.8-1.4-7.2-3.7-9.9L27,5.4V6h2V2h-4v2h0.6l-2.7,2.7C20.2,4.4,16.8,3,13,3C7.9,3,3.3,5.5,0.5,9.8l1.7,1.1
	C2.4,10.4,2.8,10,3.1,9.5z M26,18c0,3.1-1.1,6.1-3.1,8.4L14.4,18l8.4-8.4C24.8,11.8,26,14.8,26,18z M21.4,8.1L13,16.6L4.6,8.1
	C6.9,6.1,9.9,5,13,5C16.2,5,19.2,6.2,21.4,8.1z"/>
</svg>
