<svg version="1.1" id="Layer_1" xmlns="http://www.w3.org/2000/svg" xmlns:xlink="http://www.w3.org/1999/xlink" x="0px" y="0px"
	 width="32px" height="32px" viewBox="0 0 32 32" enable-background="new 0 0 32 32" xml:space="preserve">
<path fill="none" d="M12.2,25.3c0.5,1.6,2,2.7,3.8,2.7s3.2-1.2,3.8-2.7C18.6,25.7,17.3,26,16,26S13.4,25.7,12.2,25.3z"/>
<path fill="none" d="M16,24c4.4,0,8-3.6,8-8v-1h1c0.6,0,1-0.4,1-1s-0.4-1-1-1h-1c0-1.1-0.9-2-2-2H10c-1.1,0-2,0.9-2,2H7
	c-0.6,0-1,0.4-1,1s0.4,1,1,1h1v1C8,20.4,11.6,24,16,24z M19,15c0.6,0,1,0.4,1,1c0,0.6-0.4,1-1,1c-0.6,0-1-0.4-1-1
	C18,15.4,18.4,15,19,15z M16,22c-1.1,0-2-0.9-2-2h4C18,21.1,17.1,22,16,22z M13,15c0.6,0,1,0.4,1,1c0,0.6-0.4,1-1,1
	c-0.6,0-1-0.4-1-1C12,15.4,12.4,15,13,15z"/>
<path fill="none" d="M10,9h12c0.5,0,1.1,0.1,1.5,0.3C22.4,6.2,19.5,4,16,4S9.6,6.2,8.5,9.3C8.9,9.1,9.5,9,10,9z"/>
<path d="M26,16.8c1.2-0.4,2-1.5,2-2.8s-0.9-2.4-2-2.8C25.5,6,21.2,2,16,2S6.5,6,6,11.2c-1.2,0.4-2,1.5-2,2.8
	s0.9,2.4,2,2.8c0.2,2.9,1.8,5.5,4,7.2h0c0,0.3,0,0.7,0.1,1H9c-2.8,0-5,2.2-5,5h2c0-1.7,1.3-3,3-3h1.8c1,1.8,3,3,5.2,3s4.1-1.2,5.2-3
	H23c1.7,0,3,1.3,3,3h2c0-2.8-2.2-5-5-5h-1.1c0.1-0.3,0.1-0.7,0.1-1h0C24.2,22.3,25.7,19.8,26,16.8z M16,4c3.5,0,6.4,2.2,7.5,5.3
	C23.1,9.1,22.5,9,22,9H10C9.5,9,8.9,9.1,8.5,9.3C9.6,6.2,12.5,4,16,4z M8,16v-1H7c-0.6,0-1-0.4-1-1s0.4-1,1-1h1c0-1.1,0.9-2,2-2h12
	c1.1,0,2,0.9,2,2h1c0.6,0,1,0.4,1,1s-0.4,1-1,1h-1v1c0,4.4-3.6,8-8,8S8,20.4,8,16z M16,28c-1.8,0-3.2-1.2-3.8-2.7
	c1.2,0.5,2.4,0.7,3.8,0.7s2.6-0.3,3.8-0.7C19.2,26.8,17.8,28,16,28z"/>
<path d="M16,22c1.1,0,2-0.9,2-2h-4C14,21.1,14.9,22,16,22z"/>
<circle cx="13" cy="16" r="1"/>
<circle cx="19" cy="16" r="1"/>
</svg>
