<svg version="1.1" id="Layer_1" xmlns="http://www.w3.org/2000/svg" xmlns:xlink="http://www.w3.org/1999/xlink" x="0px" y="0px"
	 width="32px" height="32px" viewBox="0 0 32 32" enable-background="new 0 0 32 32" xml:space="preserve">
<rect x="15" y="3" width="2" height="4"/>
<rect x="15" y="25" width="2" height="4"/>
<path d="M9,16c0,3.9,3.1,7,7,7s7-3.1,7-7s-3.1-7-7-7S9,12.1,9,16z M16,11c2.8,0,5,2.2,5,5s-2.2,5-5,5s-5-2.2-5-5
	S13.2,11,16,11z"/>
<rect x="21.8" y="7.2" transform="matrix(0.7072 -0.707 0.707 0.7072 1.1497 19.2193)" width="4" height="2"/>
<rect x="7.2" y="21.8" transform="matrix(-0.7071 -0.7071 0.7071 -0.7071 -2.7781 46.4059)" width="2" height="4"/>
<rect x="25" y="15" width="4" height="2"/>
<rect x="3" y="15" width="4" height="2"/>
<rect x="22.8" y="21.8" transform="matrix(-0.7071 0.7071 -0.7071 -0.7071 57.4055 23.7785)" width="2" height="4"/>
<rect x="6.2" y="7.2" transform="matrix(-0.7072 -0.7071 0.7071 -0.7072 8.2229 19.849)" width="4" height="2"/>
</svg>
