<svg version="1.1" id="Layer_1" xmlns="http://www.w3.org/2000/svg" xmlns:xlink="http://www.w3.org/1999/xlink" x="0px" y="0px"
	 width="32px" height="32px" viewBox="0 0 32 32" enable-background="new 0 0 32 32" xml:space="preserve">
<path d="M22,14c0-2.2-1.8-4-4-4c-0.7,0-1.4,0.2-1.9,0.5C14.3,9.6,12.2,9,10,9c-3.9,0-7,3.1-7,7
	c0,3.2,1.2,6.2,3.1,8.4L4,26.6V29h2v-1.6l1.6-1.6c2.3,2,5.2,3.1,8.4,3.1c3.9,0,7-3.1,7-7c0-2.2-0.6-4.3-1.5-6.1
	C21.8,15.4,22,14.7,22,14z M20,14c0,1.1-0.9,2-2,2s-2-0.9-2-2s0.9-2,2-2S20,12.9,20,14z M16,27C9.9,27,5,22.1,5,16c0-2.8,2.2-5,5-5
	c1.6,0,3.2,0.4,4.6,1c-0.3,0.6-0.6,1.3-0.6,2c0,0.8,0.2,1.5,0.6,2.1c-0.1,0-0.2,0.1-0.3,0.2l-2,2c-0.4,0.4-0.4,1,0,1.4
	c0.2,0.2,0.5,0.3,0.7,0.3s0.5-0.1,0.7-0.3l2-2c0.1-0.1,0.2-0.2,0.2-0.3c0.6,0.4,1.3,0.6,2.1,0.6c0.7,0,1.4-0.2,2-0.6
	c0.6,1.4,1,2.9,1,4.6C21,24.8,18.8,27,16,27z"/>
<path d="M18,6v2c3.3,0,6,2.7,6,6h2C26,9.6,22.4,6,18,6z"/>
<path d="M18,2v2c5.5,0,10,4.5,10,10h2C30,7.4,24.6,2,18,2z"/>
</svg>
