<svg version="1.1" id="Layer_1" xmlns="http://www.w3.org/2000/svg" xmlns:xlink="http://www.w3.org/1999/xlink" x="0px" y="0px"
	 width="32px" height="32px" viewBox="0 0 32 32" enable-background="new 0 0 32 32" xml:space="preserve">
<path d="M21,12.8c1.3-1.3,2.1-3,2.1-4.8S22.3,4.5,21,3.2l-1.4,1.4C20.5,5.5,21,6.7,21,8s-0.5,2.5-1.5,3.4L21,12.8z"
	/>
<path d="M22.3,14.3l1.4,1.4C25.9,13.7,27,10.9,27,8s-1.2-5.7-3.3-7.7l-1.4,1.4C24.1,3.4,25,5.6,25,8
	S24.1,12.6,22.3,14.3z"/>
<path d="M11,12.8l1.4-1.4C11.5,10.5,11,9.3,11,8s0.5-2.5,1.5-3.4L11,3.2C9.7,4.5,9,6.2,9,8S9.7,11.5,11,12.8z"/>
<path d="M9.7,14.3C7.9,12.6,7,10.4,7,8s1-4.6,2.7-6.3L8.3,0.3C6.1,2.3,5,5.1,5,8s1.2,5.7,3.3,7.7L9.7,14.3z"/>
<path d="M6.1,29.6l1.9,0.7l2.1-5.2l5,2.5V32h2v-4.4l5.2-2.6l1.8,4.4l1.8-0.8l-7.8-18.5C18.7,9.6,19,8.8,19,8
	c0-1.7-1.3-3-3-3s-3,1.3-3,3c0,0.8,0.3,1.6,0.9,2.1L6.1,29.6z M17,12.6l2,4.8l-2,1V12.6z M15,18.4l-1.9-0.9l1.9-4.7V18.4z
	 M10.8,23.3l1.6-4l2.6,1.3v4.8L10.8,23.3z M17,25.4v-4.8l2.8-1.4l1.7,3.9L17,25.4z M16,7c0.6,0,1,0.4,1,1s-0.4,1-1,1s-1-0.4-1-1
	S15.4,7,16,7z"/>
</svg>
