<svg version="1.1" id="Layer_1" xmlns="http://www.w3.org/2000/svg" xmlns:xlink="http://www.w3.org/1999/xlink" x="0px" y="0px"
	 width="32px" height="32px" viewBox="0 0 32 32" enable-background="new 0 0 32 32" xml:space="preserve">
<path d="M28,27v-6c0-5.7-4.4-10.4-10-10.9V2h-2v8.1C10.4,10.6,6,15.3,6,21v2c0,0.6-0.4,1-1,1H4v1c0,2.8,2.2,5,5,5h16
	C26.7,30,28,28.7,28,27z M17,12c4.6,0,8.4,3.5,8.9,8H8.1C8.6,15.5,12.4,12,17,12z M25,28H9c-1.4,0-2.5-0.9-2.9-2.2
	C7.2,25.3,8,24.3,8,23v-1h18v5C26,27.6,25.6,28,25,28z"/>
</svg>
