<svg version="1.1" id="Layer_1" xmlns="http://www.w3.org/2000/svg" xmlns:xlink="http://www.w3.org/1999/xlink" x="0px" y="0px"
	 width="32px" height="32px" viewBox="0 0 32 32" enable-background="new 0 0 32 32" xml:space="preserve">
<rect x="4" y="12" fill="none" width="24" height="14"/>
<path fill="none" d="M28,10V6H4v4H28z M25,7c0.6,0,1,0.4,1,1c0,0.6-0.4,1-1,1c-0.6,0-1-0.4-1-1C24,7.4,24.4,7,25,7z M22,7
	c0.6,0,1,0.4,1,1c0,0.6-0.4,1-1,1c-0.6,0-1-0.4-1-1C21,7.4,21.4,7,22,7z M19,7c0.6,0,1,0.4,1,1c0,0.6-0.4,1-1,1c-0.6,0-1-0.4-1-1
	C18,7.4,18.4,7,19,7z"/>
<path d="M30,6V5V4H2v1v1v20v1v1h26h1h1V6z M28,6v4H4V6H28z M4,26V12h24v14H4z"/>
<circle cx="25" cy="8" r="1"/>
<circle cx="22" cy="8" r="1"/>
<circle cx="19" cy="8" r="1"/>
</svg>
