<svg version="1.1" id="Layer_1" xmlns="http://www.w3.org/2000/svg" xmlns:xlink="http://www.w3.org/1999/xlink" x="0px" y="0px"
	 width="32px" height="32px" viewBox="0 0 32 32" enable-background="new 0 0 32 32" xml:space="preserve">
<path d="M16,29c7.2,0,13-5.8,13-13S23.2,3,16,3H3v13C3,23.2,8.8,29,16,29z M5,5h11c6.1,0,11,4.9,11,11s-4.9,11-11,11
	S5,22.1,5,16V5z"/>
<path d="M16,24c4.4,0,8-3.6,8-8s-3.6-8-8-8s-8,3.6-8,8S11.6,24,16,24z M16,10c3.3,0,6,2.7,6,6s-2.7,6-6,6s-6-2.7-6-6
	S12.7,10,16,10z"/>
</svg>
