<svg version="1.1" id="Layer_1" xmlns="http://www.w3.org/2000/svg" xmlns:xlink="http://www.w3.org/1999/xlink" x="0px" y="0px"
	 width="32px" height="32px" viewBox="0 0 32 32" enable-background="new 0 0 32 32" xml:space="preserve">
<polygon points="3,17 15,17 15,29 17,29 17,17 29,17 29,15 17,15 17,3 15,3 15,15 3,15 "/>
<rect x="5" y="6" width="8" height="2"/>
<rect x="5" y="10" width="8" height="2"/>
<polygon points="24,13 24,10 27,10 27,8 24,8 24,5 22,5 22,8 19,8 19,10 22,10 22,13 "/>
<rect x="19" y="22" width="8" height="2"/>
<circle cx="23" cy="20" r="1"/>
<circle cx="23" cy="26" r="1"/>
<polygon points="11.3,19.3 9,21.6 6.7,19.3 5.3,20.7 7.6,23 5.3,25.3 6.7,26.7 9,24.4 11.3,26.7 12.7,25.3 10.4,23 
	12.7,20.7 "/>
</svg>
