<svg version="1.1" id="Layer_1" xmlns="http://www.w3.org/2000/svg" xmlns:xlink="http://www.w3.org/1999/xlink" x="0px" y="0px"
	 width="32px" height="32px" viewBox="0 0 32 32" enable-background="new 0 0 32 32" xml:space="preserve">
<path d="M5,28h22h1h1V4h-1h-1H5H4H3v24h1H5z M5,6h22v4H5V6z M5,12h22v14H5V12z"/>
<rect x="15" y="22" width="2" height="2"/>
<rect x="9" y="22" width="2" height="2"/>
<rect x="21" y="18" width="2" height="2"/>
<rect x="21" y="14" width="2" height="2"/>
<rect x="15" y="14" width="2" height="2"/>
<rect x="15" y="18" width="2" height="2"/>
<path d="M11,13v2c0.6,0,1,0.4,1,1c0,1.1-0.9,2-2,2c-0.6,0-1-0.4-1-1s0.4-1,1-1v-2c-1.7,0-3,1.3-3,3s1.3,3,3,3
	c2.2,0,4-1.8,4-4C14,14.3,12.7,13,11,13z"/>
</svg>
