<svg version="1.1" id="Layer_1" xmlns="http://www.w3.org/2000/svg" xmlns:xlink="http://www.w3.org/1999/xlink" x="0px" y="0px"
	 width="32px" height="32px" viewBox="0 0 32 32" enable-background="new 0 0 32 32" xml:space="preserve">
<path d="M3,28h1h1h22h1h1V4h-1h-1H5H4H3V28z M5,26V10h22v16H5z M27,6v2H5V6H27z"/>
<path d="M20,12c0,1.1-0.9,2-2,2v2c0.7,0,1.4-0.2,2-0.6V24h2V12H20z"/>
<path d="M14.9,18c0.7-0.6,1.1-1.5,1.1-2.5c0-1.9-1.6-3.5-3.5-3.5C10.6,12,9,13.6,9,15.5h2c0-0.8,0.7-1.5,1.5-1.5
	c0.8,0,1.5,0.7,1.5,1.5c0,0.8-0.7,1.5-1.5,1.5H12v2h0.5c0.8,0,1.5,0.7,1.5,1.5S13.3,22,12.5,22c-0.8,0-1.5-0.7-1.5-1.5H9
	c0,1.9,1.6,3.5,3.5,3.5c1.9,0,3.5-1.6,3.5-3.5C16,19.5,15.6,18.6,14.9,18z"/>
</svg>
