<svg version="1.1" id="Layer_1" xmlns="http://www.w3.org/2000/svg" xmlns:xlink="http://www.w3.org/1999/xlink" x="0px" y="0px"
	 width="32px" height="32px" viewBox="0 0 32 32" enable-background="new 0 0 32 32" xml:space="preserve">
<path d="M16,30c7.7,0,14-6.3,14-14S23.7,2,16,2S2,8.3,2,16S8.3,30,16,30z M5.1,21H16c0.2,0,0.4,0,0.6-0.1l-3.8,6.6
	C9.4,26.6,6.6,24.2,5.1,21z M13,16c0-1.7,1.3-3,3-3s3,1.3,3,3s-1.3,3-3,3S13,17.7,13,16z M14.9,27.9l5.5-9.4l0,0
	c0.1-0.2,0.2-0.3,0.3-0.5l3.8,6.6C22.2,26.7,19.3,28,16,28C15.6,28,15.2,28,14.9,27.9z M25.8,22.9l-5.4-9.4l0,0
	c-0.1-0.2-0.2-0.3-0.3-0.5h7.6c0.2,1,0.4,2,0.4,3C28,18.6,27.2,21,25.8,22.9z M26.9,11H16c-0.2,0-0.4,0-0.6,0.1l3.8-6.6
	C22.6,5.4,25.4,7.8,26.9,11z M17.1,4.1l-5.5,9.4l0,0c-0.1,0.2-0.2,0.3-0.3,0.5L7.6,7.4C9.8,5.3,12.7,4,16,4C16.4,4,16.8,4,17.1,4.1z
	 M6.2,9.1l5.4,9.4l0,0c0.1,0.2,0.2,0.3,0.3,0.5H4.4C4.1,18,4,17,4,16C4,13.4,4.8,11,6.2,9.1z"/>
</svg>
