<svg version="1.1" id="Layer_1" xmlns="http://www.w3.org/2000/svg" xmlns:xlink="http://www.w3.org/1999/xlink" x="0px" y="0px"
	 width="32px" height="32px" viewBox="0 0 32 32" enable-background="new 0 0 32 32" xml:space="preserve">
<path d="M31,16c0-1.7-1.3-3-3-3h-4.6l-6-6H6.6L0,13.6V19c0,1.7,1.3,3,3,3h1.2c0.4,1.2,1.5,2,2.8,2s2.4-0.8,2.8-2
	h12.4c0.4,1.2,1.5,2,2.8,2s2.4-0.8,2.8-2H32v-2h-1V16z M29,16v4h-1.2c-0.4-1.2-1.5-2-2.8-2s-2.4,0.8-2.8,2H12v-5h16
	C28.6,15,29,15.4,29,16z M20.6,13H12V9h4.6L20.6,13z M7.4,9H10v4H3.4L7.4,9z M2,19v-4h8v5H9.8c-0.4-1.2-1.5-2-2.8-2s-2.4,0.8-2.8,2
	H3C2.4,20,2,19.6,2,19z M7,22c-0.6,0-1-0.4-1-1s0.4-1,1-1s1,0.4,1,1S7.6,22,7,22z M25,22c-0.6,0-1-0.4-1-1s0.4-1,1-1s1,0.4,1,1
	S25.6,22,25,22z"/>
</svg>
