<svg version="1.1" id="Layer_1" xmlns="http://www.w3.org/2000/svg" xmlns:xlink="http://www.w3.org/1999/xlink" x="0px" y="0px"
	 width="32px" height="32px" viewBox="0 0 32 32" enable-background="new 0 0 32 32" xml:space="preserve">
<path d="M31,17c0-1.7-1.3-3-3-3h-2.6l4.3-4.3l-1.4-1.4L23,13.6L19.4,10H9.6l-4,4C3,14.3,1,16.4,1,19v1H0v2h4.2
	c0.4,1.2,1.5,2,2.8,2s2.4-0.8,2.8-2h12.4c0.4,1.2,1.5,2,2.8,2s2.4-0.8,2.8-2H32v-2h-1V17z M29,17v3h-1.2c-0.4-1.2-1.5-2-2.8-2
	s-2.4,0.8-2.8,2H14v-4h14C28.6,16,29,16.4,29,17z M20.6,14H14v-2h4.6L20.6,14z M10.4,12H12v2H8.4L10.4,12z M3,19c0-1.7,1.3-3,3-3h6
	v4H9.8c-0.4-1.2-1.5-2-2.8-2s-2.4,0.8-2.8,2H3V19z M7,22c-0.6,0-1-0.4-1-1s0.4-1,1-1s1,0.4,1,1S7.6,22,7,22z M25,22
	c-0.6,0-1-0.4-1-1s0.4-1,1-1s1,0.4,1,1S25.6,22,25,22z"/>
</svg>
