<svg version="1.1" id="Layer_1" xmlns="http://www.w3.org/2000/svg" xmlns:xlink="http://www.w3.org/1999/xlink" x="0px" y="0px"
	 width="32px" height="32px" viewBox="0 0 32 32" enable-background="new 0 0 32 32" xml:space="preserve">
<path d="M0,17h2c0-1.7,1.3-3,3-3s3,1.3,3,3h2c0-1.7-0.9-3.2-2.2-4.1C8.5,12.1,9,11.1,9,10c0-2.2-1.8-4-4-4
	s-4,1.8-4,4c0,1.1,0.5,2.1,1.2,2.9C0.9,13.8,0,15.3,0,17z M3,10c0-1.1,0.9-2,2-2s2,0.9,2,2s-0.9,2-2,2S3,11.1,3,10z"/>
<path d="M29.8,21.9c0.7-0.7,1.2-1.7,1.2-2.9c0-2.2-1.8-4-4-4s-4,1.8-4,4c0,1.1,0.5,2.1,1.2,2.9
	C22.9,22.8,22,24.3,22,26h2c0-1.7,1.3-3,3-3s3,1.3,3,3h2C32,24.3,31.1,22.8,29.8,21.9z M25,19c0-1.1,0.9-2,2-2s2,0.9,2,2s-0.9,2-2,2
	S25,20.1,25,19z"/>
<path d="M14,6v3l-3,3h3h18V6H14z M30,10H16V9.8V9V8h14V10z"/>
<path d="M18,22l3-3h-3H0v6h18V22z M16,23H2v-2h14v0.2V22V23z"/>
</svg>
