<svg version="1.1" id="Layer_1" xmlns="http://www.w3.org/2000/svg" xmlns:xlink="http://www.w3.org/1999/xlink" x="0px" y="0px"
	 width="32px" height="32px" viewBox="0 0 32 32" enable-background="new 0 0 32 32" xml:space="preserve">
<path d="M7,14h20V0H5v13v1v18h2V14z M7,10h2V8H7V6h2V4H7V2h2v2h2V2h2v2h2V2h2v2h2V2h2v2h2V2h2v2h-2v2h2v2h-2v2h2v2
	h-2v-2h-2v2h-2v-2h-2v2h-2v-2h-2v2h-2v-2H9v2H7V10z"/>
<rect x="9" y="6" width="2" height="2"/>
<rect x="11" y="4" width="2" height="2"/>
<rect x="11" y="8" width="2" height="2"/>
<rect x="13" y="6" width="2" height="2"/>
<rect x="15" y="8" width="2" height="2"/>
<rect x="15" y="4" width="2" height="2"/>
<rect x="17" y="6" width="2" height="2"/>
<rect x="19" y="8" width="2" height="2"/>
<rect x="21" y="6" width="2" height="2"/>
<rect x="19" y="4" width="2" height="2"/>
</svg>
