<svg version="1.1" id="Layer_1" xmlns="http://www.w3.org/2000/svg" xmlns:xlink="http://www.w3.org/1999/xlink" x="0px" y="0px"
	 width="32px" height="32px" viewBox="0 0 32 32" enable-background="new 0 0 32 32" xml:space="preserve">
<path d="M25,6.2V6c0-2.2-1.8-4-4-4s-4,1.8-4,4v3c0,0.6-0.4,1-1,1H5v3c0,1.9,0.8,3.7,2,4.9c0.4,3.9,3.2,7,7,7.8V30h3
	v-2h-1v-2c0.7,0,1.4-0.1,2-0.2V30h3v-2h-1v-2.9c3-1.5,5-4.5,5-8.1V9h2C27,7.7,26.2,6.6,25,6.2z M23,17c0,3.9-3.1,7-7,7
	c-3,0-5.5-1.9-6.5-4.5c0.8,0.3,1.6,0.5,2.5,0.5c3.9,0,7-3.1,7-7h-2c0,2.8-2.2,5-5,5s-5-2.2-5-5v-1h9c1.7,0,3-1.3,3-3V6
	c0-1.1,0.9-2,2-2s2,0.9,2,2V17z"/>
</svg>
