<svg version="1.1" id="Layer_1" xmlns="http://www.w3.org/2000/svg" xmlns:xlink="http://www.w3.org/1999/xlink" x="0px" y="0px"
	 width="32px" height="32px" viewBox="0 0 32 32" enable-background="new 0 0 32 32" xml:space="preserve">
<path d="M11,11c1.3,0,2.6,0.5,3.5,1.5l1.4-1.4C14.6,9.7,12.9,9,11,9c-3.9,0-7,3.1-7,7s3.1,7,7,7
	c1.9,0,3.6-0.7,4.9-2.1l-1.4-1.4C13.6,20.5,12.3,21,11,21c-2.8,0-5-2.2-5-5S8.2,11,11,11z"/>
<path d="M23,11c1.3,0,2.6,0.5,3.5,1.5l1.4-1.4C26.6,9.7,24.9,9,23,9c-3.9,0-7,3.1-7,7s3.1,7,7,7
	c1.9,0,3.6-0.7,4.9-2.1l-1.4-1.4C25.6,20.5,24.3,21,23,21c-2.8,0-5-2.2-5-5S20.2,11,23,11z"/>
<path d="M0,27h32V5H0V27z M2,7h28v18H2V7z"/>
</svg>
