<svg version="1.1" id="Layer_1" xmlns="http://www.w3.org/2000/svg" xmlns:xlink="http://www.w3.org/1999/xlink" x="0px" y="0px"
	 width="32px" height="32px" viewBox="0 0 32 32" enable-background="new 0 0 32 32" xml:space="preserve">
<polygon points="17,6 17,15 26,15 26,13 20.4,13 28.7,4.7 27.3,3.3 19,11.6 19,6 "/>
<polygon points="15,26 15,17 6,17 6,19 11.6,19 3.3,27.3 4.7,28.7 13,20.4 13,26 "/>
<polygon points="15,6 13,6 13,11.6 4.7,3.3 3.3,4.7 11.6,13 6,13 6,15 15,15 "/>
<polygon points="17,26 19,26 19,20.4 27.3,28.7 28.7,27.3 20.4,19 26,19 26,17 17,17 "/>
</svg>
