<svg version="1.1" id="Layer_1" xmlns="http://www.w3.org/2000/svg" xmlns:xlink="http://www.w3.org/1999/xlink" x="0px" y="0px"
	 width="32px" height="32px" viewBox="0 0 32 32" enable-background="new 0 0 32 32" xml:space="preserve">
<path d="M16,1c-2.8,0-5,2.2-5,5s2.2,5,5,5s5-2.2,5-5S18.8,1,16,1z M16,9c-1.7,0-3-1.3-3-3s1.3-3,3-3s3,1.3,3,3
	S17.7,9,16,9z"/>
<path d="M25,26c2.8,0,5-2.2,5-5s-2.2-5-5-5s-5,2.2-5,5S22.2,26,25,26z M25,18c1.7,0,3,1.3,3,3s-1.3,3-3,3s-3-1.3-3-3
	S23.3,18,25,18z"/>
<path d="M7,26c2.8,0,5-2.2,5-5s-2.2-5-5-5s-5,2.2-5,5S4.2,26,7,26z M7,18c1.7,0,3,1.3,3,3s-1.3,3-3,3s-3-1.3-3-3
	S5.3,18,7,18z"/>
<path d="M16,23c-2.2,0-4,1.8-4,4s1.8,4,4,4s4-1.8,4-4S18.2,23,16,23z M16,29c-1.1,0-2-0.9-2-2s0.9-2,2-2s2,0.9,2,2
	S17.1,29,16,29z"/>
<path d="M26,6c-2.2,0-4,1.8-4,4s1.8,4,4,4s4-1.8,4-4S28.2,6,26,6z M26,12c-1.1,0-2-0.9-2-2s0.9-2,2-2s2,0.9,2,2
	S27.1,12,26,12z"/>
<path d="M6,14c2.2,0,4-1.8,4-4S8.2,6,6,6s-4,1.8-4,4S3.8,14,6,14z M6,8c1.1,0,2,0.9,2,2s-0.9,2-2,2s-2-0.9-2-2
	S4.9,8,6,8z"/>
</svg>
