<svg version="1.1" id="Layer_1" xmlns="http://www.w3.org/2000/svg" xmlns:xlink="http://www.w3.org/1999/xlink" x="0px" y="0px"
	 width="32px" height="32px" viewBox="0 0 32 32" enable-background="new 0 0 32 32" xml:space="preserve">
<path d="M29.1,2.9c-1.1-1.1-3.1-1.1-4.2,0L6.7,21C4.7,21.2,3,22.9,3,25c0,0.6-0.4,1-1,1H1v1c0,1.1,0.9,2,2,2h4
	c2.1,0,3.8-1.7,4-3.7L29.1,7.1C30.3,6,30.3,4,29.1,2.9z M11.9,21.5L10.4,23c-0.3-0.6-0.8-1.1-1.4-1.4l1.5-1.5
	C11.2,20.3,11.7,20.8,11.9,21.5z M7,27H4.2C4.7,26.5,5,25.8,5,25c0-1.1,0.9-2,2-2s2,0.9,2,2S8.1,27,7,27z M27.7,5.7L13.4,20
	c-0.3-0.6-0.8-1.1-1.4-1.4L26.3,4.3c0.4-0.4,1-0.4,1.4,0C28.1,4.7,28.1,5.3,27.7,5.7z"/>
</svg>
