<svg version="1.1" id="Layer_1" xmlns="http://www.w3.org/2000/svg" xmlns:xlink="http://www.w3.org/1999/xlink" x="0px" y="0px"
	 width="32px" height="32px" viewBox="0 0 32 32" enable-background="new 0 0 32 32" xml:space="preserve">
<path d="M20,28c5,0,9-4,9-9c0-3.1-1.6-5.9-4-7.5C24.7,6.8,20.8,3,16,3s-8.7,3.8-9,8.5c-2.4,1.6-4,4.4-4,7.5
	c0,5,4,9,9,9c1.4,0,2.8-0.3,4-0.9C17.2,27.7,18.6,28,20,28z M27,19c0,3.9-3.1,7-7,7c-0.7,0-1.4-0.1-2-0.3c1.7-1.5,2.9-3.7,3-6.2
	c1.9-1.3,3.3-3.3,3.8-5.6C26.1,15.2,27,17,27,19z M13.2,20.5C14.1,20.8,15,21,16,21s1.9-0.2,2.8-0.5c-0.4,1.7-1.4,3.2-2.8,4.2
	C14.6,23.8,13.6,22.3,13.2,20.5z M9,12.7c0.9-0.4,1.9-0.7,3-0.7c0.7,0,1.4,0.1,2,0.3c-1.4,1.2-2.4,2.9-2.8,4.8
	C10,16,9.2,14.4,9,12.7z M16,13.3c1.6,1.1,2.8,3,3,5.1c-0.9,0.4-1.9,0.7-3,0.7s-2.1-0.2-3-0.7C13.2,16.2,14.4,14.4,16,13.3z
	 M20.8,17.1c-0.4-1.9-1.4-3.5-2.8-4.8c0.6-0.2,1.3-0.3,2-0.3c1.1,0,2.1,0.2,3,0.7C22.8,14.4,22,16,20.8,17.1z M16,5
	c3.3,0,6.1,2.3,6.8,5.5C21.9,10.2,21,10,20,10c-1.4,0-2.8,0.3-4,0.9c-1.2-0.6-2.6-0.9-4-0.9c-1,0-1.9,0.2-2.8,0.5
	C9.9,7.3,12.7,5,16,5z M12,26c-3.9,0-7-3.1-7-7c0-2,0.9-3.8,2.2-5.1c0.5,2.3,1.9,4.3,3.8,5.6c0.1,2.5,1.3,4.7,3,6.2
	C13.4,25.9,12.7,26,12,26z"/>
</svg>
