<svg version="1.1" id="Layer_1" xmlns="http://www.w3.org/2000/svg" xmlns:xlink="http://www.w3.org/1999/xlink" x="0px" y="0px"
	 width="32px" height="32px" viewBox="0 0 32 32" enable-background="new 0 0 32 32" xml:space="preserve">
<path d="M20,16c0-2.2-1.8-4-4-4c-0.7,0-1.4,0.2-2,0.6L12.4,11H13V9H9v4h2v-0.6l1.6,1.6c-0.4,0.6-0.6,1.3-0.6,2c0,2.2,1.8,4,4,4
	c0.7,0,1.4-0.2,2-0.6l2.9,2.9l1.4-1.4L19.4,18C19.8,17.4,20,16.7,20,16z M16,18c-1.1,0-2-0.9-2-2s0.9-2,2-2s2,0.9,2,2S17.1,18,16,18
	z"/>
<path d="M16,1C7.7,1,1,7.7,1,16s6.7,15,15,15s15-6.7,15-15S24.3,1,16,1z M17,3.1V5h-2V3.1C15.3,3,15.7,3,16,3S16.7,3,17,3.1z
	 M17,28.9V27h-2v1.9C8.6,28.5,3.5,23.4,3.1,17H5v-2H3.1C3.5,9.3,7.6,4.6,13,3.4V5v2h6V5V3.4c5.4,1.3,9.5,5.9,9.9,11.6H27v2h1.9
	C28.5,23.4,23.4,28.5,17,28.9z"/>
</svg>
