<svg version="1.1" id="Layer_1" xmlns="http://www.w3.org/2000/svg" xmlns:xlink="http://www.w3.org/1999/xlink" x="0px" y="0px"
	 width="32px" height="32px" viewBox="0 0 32 32" enable-background="new 0 0 32 32" xml:space="preserve">
<path d="M29,8V6H17V5c0-0.6-0.4-1-1-1c-0.6,0-1,0.4-1,1v1H3v2h2.8l-1.6,7H3v2c0,2.8,2.2,5,5,5c2.8,0,5-2.2,5-5v-2
	h-1.2l-1.6-7H15v18h-4v2h10v-2h-4V8h4.8l-1.6,7H19v2c0,2.8,2.2,5,5,5c2.8,0,5-2.2,5-5v-2h-1.2l-1.6-7H29z M8,20c-1.7,0-3-1.3-3-3h6
	C11,18.7,9.7,20,8,20z M9.8,15H6.2l1.6-7h0.4L9.8,15z M24,20c-1.7,0-3-1.3-3-3h6C27,18.7,25.7,20,24,20z M25.8,15h-3.5l1.6-7h0.4
	L25.8,15z"/>
</svg>
