<svg version="1.1" id="Layer_1" xmlns="http://www.w3.org/2000/svg" xmlns:xlink="http://www.w3.org/1999/xlink" x="0px" y="0px"
	 width="32px" height="32px" viewBox="0 0 32 32" enable-background="new 0 0 32 32" xml:space="preserve">
<polygon points="24.7,11.3 23.3,12.7 25.6,15 17,15 17,6.4 19.3,8.7 20.7,7.3 16,2.6 11.3,7.3 12.7,8.7 15,6.4 
	15,15 6.4,15 8.7,12.7 7.3,11.3 2.6,16 7.3,20.7 8.7,19.3 6.4,17 15,17 15,25.6 12.7,23.3 11.3,24.7 16,29.4 20.7,24.7 19.3,23.3 
	17,25.6 17,17 25.6,17 23.3,19.3 24.7,20.7 29.4,16 "/>
</svg>
