<svg version="1.1" id="Layer_1" xmlns="http://www.w3.org/2000/svg" xmlns:xlink="http://www.w3.org/1999/xlink" x="0px" y="0px"
	 width="32px" height="32px" viewBox="0 0 32 32" enable-background="new 0 0 32 32" xml:space="preserve">
<path d="M30,4c-0.6,0-1,0.4-1,1c0,0.3,0.1,0.5,0.3,0.7L23,12l-6.3-6.3C16.9,5.5,17,5.3,17,5c0-0.6-0.4-1-1-1
	c-0.6,0-1,0.4-1,1c0,0.3,0.1,0.5,0.3,0.7L9,12L2.7,5.7C2.9,5.5,3,5.3,3,5c0-0.6-0.4-1-1-1C1.4,4,1,4.4,1,5c0,0.6,0.4,1,1,1v22h28V6
	c0.6,0,1-0.4,1-1C31,4.4,30.6,4,30,4z M4,18.8L5.2,20L4,21.2V18.8z M28,26H4v-2l4-4l-4-4V9.8l3.6,3.6L9,14.8l1.4-1.4L16,7.8l5.6,5.6
	l1.4,1.4l1.4-1.4L28,9.8V16l-4,4l4,4V26z M28,21.2L26.8,20l1.2-1.2V21.2z"/>
<path d="M12,20l4,4l4-4l-4-4L12,20z M16,21.2L14.8,20l1.2-1.2l1.2,1.2L16,21.2z"/>
</svg>
