<svg version="1.1" id="Layer_1" xmlns="http://www.w3.org/2000/svg" xmlns:xlink="http://www.w3.org/1999/xlink" x="0px" y="0px"
	 width="32px" height="32px" viewBox="0 0 32 32" enable-background="new 0 0 32 32" xml:space="preserve">
<path d="M15.7,11L27,6.8L25,1.2l-19,7l0,0C4.8,8.6,4,9.7,4,11v19h24V11H15.7z M26,15h-3.6l2-2H26V15z M13.2,9.8
	L10,11c0-0.7-0.3-1.4-0.7-1.9l5-1.9L13.2,9.8z M16.9,6.3l3.8-1.4l-1.1,2.5l-3.8,1.4L16.9,6.3z M8,11v1.6l-2,2V11c0-0.6,0.4-1,1-1
	C7.6,10,8,10.4,8,11z M10.4,13h4.2l-2,2H8.4L10.4,13z M17.4,13h4.2l-2,2h-4.2L17.4,13z M24.5,5.6l-2.3,0.8l1.1-2.5l0.5-0.2L24.5,5.6
	z M6,28V17h20v11H6z"/>
</svg>
