<svg version="1.1" id="Layer_1" xmlns="http://www.w3.org/2000/svg" xmlns:xlink="http://www.w3.org/1999/xlink" x="0px" y="0px"
	 width="50px" height="50px" viewBox="0 0 50 50" enable-background="new 0 0 50 50" xml:space="preserve">
			<defs>
			<rect id="SVGID_1_" x="3.5" y="2.4" width="45" height="47.3"/>
		</defs>
		<clipPath id="SVGID_2_">
			<use xlink:href="#SVGID_1_"  overflow="visible"/>
		</clipPath>
		<path clip-path="url(#SVGID_2_)" d="M26,49.6c-6.1,0-12.1-0.8-17.7-2.5c-5.5-1.6-10.4-3.9-14.6-6.8c-4.3-3-7.7-6.4-10-10.3
			l3.8-2.3c2,3.3,5,6.4,8.8,9c3.8,2.7,8.3,4.7,13.3,6.2c10.4,3,22.5,3,32.9,0c5-1.5,9.5-3.5,13.3-6.2c3.8-2.6,6.7-5.6,8.8-9l3.8,2.3
			c-2.4,3.9-5.8,7.4-10,10.3c-4.2,2.9-9.1,5.2-14.6,6.8C38.1,48.8,32.1,49.6,26,49.6z"/>
		<path clip-path="url(#SVGID_2_)" d="M26,36.1c-4.7,0-9.3-0.6-13.7-1.7c-4.2-1.1-8-2.6-11.3-4.6L3.3,26c2.9,1.7,6.3,3.1,10.1,4.1
			c8,2,17.2,2,25.2,0c3.8-1,7.2-2.3,10.1-4.1l2.3,3.9c-3.3,2-7.1,3.5-11.3,4.6C35.3,35.6,30.7,36.1,26,36.1z"/>
		<path d="M26,4.6c2.7,0,5.4,0.3,7.8,0.8c2.3,0.5,4.4,1.2,6.1,2c1.9,0.9,2.9,1.9,3.4,2.5c0.3,0.4,0.7,0.9,0.7,1.5s-0.4,1.1-0.7,1.5
		c-0.5,0.6-1.5,1.5-3.4,2.5c-1.7,0.9-3.8,1.6-6.1,2c-2.5,0.5-5.1,0.8-7.8,0.8s-5.4-0.3-7.8-0.8c-2.3-0.5-4.4-1.2-6.1-2
		c-1.9-0.9-2.9-1.9-3.4-2.5C8.4,12.5,8,11.9,8,11.4s0.4-1.1,0.7-1.5c0.5-0.6,1.5-1.5,3.4-2.5c1.7-0.9,3.8-1.6,6.1-2
		C20.6,4.9,23.3,4.6,26,4.6 M26,0.1c-3.1,0-6.1,0.3-8.8,0.9c-2.7,0.6-5.1,1.4-7.2,2.4c-2,1-3.7,2.2-4.8,3.6
		c-1.1,1.3-1.8,2.8-1.8,4.4s0.6,3,1.8,4.4c1.1,1.3,2.8,2.6,4.8,3.6c2,1,4.5,1.8,7.2,2.4c2.7,0.6,5.7,0.9,8.8,0.9s6.1-0.3,8.8-0.9
		c2.7-0.6,5.1-1.4,7.2-2.4c2-1,3.7-2.2,4.8-3.6c1.1-1.3,1.8-2.8,1.8-4.4s-0.6-3-1.8-4.4c-1.1-1.3-2.8-2.6-4.8-3.6
		c-2-1-4.5-1.8-7.2-2.4C32.1,0.4,29.1,0.1,26,0.1L26,0.1z"/>
</svg>
