<svg version="1.1" id="Layer_1" xmlns="http://www.w3.org/2000/svg" xmlns:xlink="http://www.w3.org/1999/xlink" x="0px" y="0px"
	 width="32px" height="32px" viewBox="0 0 32 32" enable-background="new 0 0 32 32" xml:space="preserve">
<path d="M26,28H0l3-6h20L26,28z M3.2,26h19.5l-1-2H4.2L3.2,26z"/>
<path d="M23,20H3V8h20V20z M5,18h16v-8H5V18z"/>
<rect x="12" y="19" width="2" height="4"/>
<rect x="19" y="4" width="2" height="5"/>
<rect x="19" y="4" width="12" height="2"/>
<rect x="29" y="4" width="2" height="20"/>
<rect x="23" y="22" width="8" height="2"/>
<rect x="19" y="19" width="2" height="4"/>
<rect x="22" y="10" width="8" height="2"/>
<rect x="22" y="14" width="8" height="2"/>
<rect x="26" y="7" width="2" height="2"/>
</svg>
