<svg version="1.1" id="Layer_1" xmlns="http://www.w3.org/2000/svg" xmlns:xlink="http://www.w3.org/1999/xlink" x="0px" y="0px"
	 width="32px" height="32px" viewBox="0 0 32 32" enable-background="new 0 0 32 32" xml:space="preserve">
<path d="M5,22l-4,6h22l-2.7-4H28h1h1V6V4h-2h-9h-2v2v2H3v1v1v8v2h2h6v2H5z M4.7,26l1.3-2H11h2h4h0.9l1.3,2H4.7z
	 M19,22v-2h2v-2h7v4H19z M21,12h7v4h-7V12z M19,6h9v4h-7V9V8h-2V6z M5,10h14v8h-2H5V10z M13,20h4v2h-4V20z"/>
<path d="M25,28h4c0-1.1-0.9-2-2-2S25,26.9,25,28z"/>
<rect x="25" y="7" width="2" height="2"/>
</svg>
