<svg version="1.1" id="Layer_1" xmlns="http://www.w3.org/2000/svg" xmlns:xlink="http://www.w3.org/1999/xlink" x="0px" y="0px"
	 width="32px" height="32px" viewBox="0 0 32 32" enable-background="new 0 0 32 32" xml:space="preserve">
<path d="M16,2C8.3,2,2,8.3,2,16s6.3,14,14,14s14-6.3,14-14S23.7,2,16,2z M16,28C9.4,28,4,22.6,4,16S9.4,4,16,4
	s12,5.4,12,12S22.6,28,16,28z"/>
<polygon points="11,11 14,11 14,9 9,9 9,14 11,14 "/>
<polygon points="11,18 9,18 9,23 14,23 14,21 11,21 "/>
<polygon points="21,21 18,21 18,23 23,23 23,18 21,18 "/>
<polygon points="18,11 21,11 21,14 23,14 23,9 18,9 "/>
<path d="M19,16c0-1.7-1.3-3-3-3s-3,1.3-3,3s1.3,3,3,3S19,17.7,19,16z M16,17c-0.6,0-1-0.4-1-1s0.4-1,1-1s1,0.4,1,1
	S16.6,17,16,17z"/>
</svg>
