<svg version="1.1" id="Layer_1" xmlns="http://www.w3.org/2000/svg" xmlns:xlink="http://www.w3.org/1999/xlink" x="0px" y="0px"
	 width="32px" height="32px" viewBox="0 0 32 32" enable-background="new 0 0 32 32" xml:space="preserve">
<rect x="9" y="9" width="5" height="2"/>
<rect x="9" y="15" width="9" height="2"/>
<rect x="9" y="21" width="6" height="2"/>
<path d="M28.3,10.3L28,10.6l1.4,1.4l0.3-0.3c0.4-0.4,0.4-1,0-1.4C29.3,9.9,28.7,9.9,28.3,10.3z"/>
<path d="M26.6,12L25,13.6V9l-7-7H5v27h20V16.4l3-3L26.6,12z M22.2,9H18V4.8L22.2,9z M23,27H7V4h9v7h7v4.6l-6,6V23
	h1.4l4.6-4.6V27z"/>
</svg>
