<svg version="1.1" id="Layer_1" xmlns="http://www.w3.org/2000/svg" xmlns:xlink="http://www.w3.org/1999/xlink" x="0px" y="0px"
	 width="32px" height="32px" viewBox="0 0 32 32" enable-background="new 0 0 32 32" xml:space="preserve">
<path d="M24.6,21.8l1.9-0.7l-2-5.5l-1.9,0.7l0.6,1.6l-1.6,0.7l-3.4-9.3C19.3,8.6,20,7.4,20,6c0-1.9-1.3-3.4-3-3.9V0
	h-2v2.1c-1.7,0.4-3,2-3,3.9c0,1.4,0.7,2.6,1.8,3.3L6.1,30.7l1.9,0.7L15.7,10c0.1,0,0.2,0,0.3,0s0.2,0,0.3,0l7.8,21.4l1.9-0.7
	l-3.7-10.1l1.6-0.7L24.6,21.8z M14,6c0-1.1,0.9-2,2-2s2,0.9,2,2s-0.9,2-2,2S14,7.1,14,6z"/>
</svg>
