<svg version="1.1" id="Layer_1" xmlns="http://www.w3.org/2000/svg" xmlns:xlink="http://www.w3.org/1999/xlink" x="0px" y="0px"
	 width="32px" height="32px" viewBox="0 0 32 32" enable-background="new 0 0 32 32" xml:space="preserve">
<polygon points="3,29 12,29 12,27 6.4,27 15.7,17.7 14.3,16.3 5,25.6 5,20 3,20 "/>
<polygon points="20,5 25.6,5 16.3,14.3 17.7,15.7 27,6.4 27,12 29,12 29,3 20,3 "/>
<polygon points="27,25.6 17.7,16.3 16.3,17.7 25.6,27 20,27 20,29 29,29 29,20 27,20 "/>
<polygon points="12,3 3,3 3,12 5,12 5,6.4 14.3,15.7 15.7,14.3 6.4,5 12,5 "/>
</svg>
