<svg version="1.1" id="Layer_1" xmlns="http://www.w3.org/2000/svg" xmlns:xlink="http://www.w3.org/1999/xlink" x="0px" y="0px"
	 width="32px" height="32px" viewBox="0 0 32 32" enable-background="new 0 0 32 32" xml:space="preserve">
<circle cx="16" cy="16" r="2"/>
<path d="M31.2,14L31.2,14C27.2,9.5,21.8,7,16,7S4.8,9.5,0.8,14l0,0c-1,1.1-1,2.9,0,4l0,0c4.1,4.5,9.5,7,15.2,7
	s11.2-2.5,15.2-7l0,0C32.3,16.9,32.3,15.1,31.2,14z M23,16c0,3.6-2.7,6.6-6.3,7c-0.2,0-0.5,0-0.7,0s-0.5,0-0.7,0
	C11.7,22.6,9,19.6,9,16s2.7-6.6,6.3-7c0.2,0,0.5,0,0.7,0s0.5,0,0.7,0C20.3,9.4,23,12.4,23,16z M2.2,16.7l-0.7,0.7L2.2,16.7
	c-0.3-0.4-0.3-1,0-1.3l-0.7-0.7l0.7,0.7c1.9-2.1,4.2-3.8,6.6-4.8C7.7,12,7,13.9,7,16s0.7,4,1.9,5.5C6.4,20.4,4.2,18.8,2.2,16.7z
	 M29.8,16.7c-1.9,2.1-4.2,3.8-6.6,4.8C24.3,20,25,18.1,25,16s-0.7-4-1.9-5.5c2.5,1.1,4.7,2.7,6.6,4.8l0.7-0.7l-0.7,0.7
	C30.1,15.7,30.1,16.3,29.8,16.7l0.7,0.7L29.8,16.7z"/>
</svg>
