<svg version="1.1" id="Layer_1" xmlns="http://www.w3.org/2000/svg" xmlns:xlink="http://www.w3.org/1999/xlink" x="0px" y="0px"
	 width="32px" height="32px" viewBox="0 0 32 32" enable-background="new 0 0 32 32" xml:space="preserve">
<rect x="10" y="24.1" width="4" height="2"/>
<path d="M0,31.1V17.8l1-2V4.4L9.8,0H28v5h-2V2H10.2H11v23.6L0,31.1z M2,18.2v9.6l7-3.5V2.6l-6,3v10.6L2,18.2z"/>
<path d="M30,28H13V4h19v11.4l-2,2V28z M15,26h13v-9.4l2-2V6H15V26z"/>
<polygon points="28.3,17.7 26,15.4 26,5 28,5 28,14.6 29.7,16.3 "/>
</svg>
