<svg version="1.1" id="Layer_1" xmlns="http://www.w3.org/2000/svg" xmlns:xlink="http://www.w3.org/1999/xlink" x="0px" y="0px"
	 width="32px" height="32px" viewBox="0 0 32 32" enable-background="new 0 0 32 32" xml:space="preserve">
<polygon fill="none" points="18.4,8 28,8 28,6 18.4,6 17.4,7 "/>
<polygon fill="none" points="8,18 8,26 10,26 10,22 10,20 12,20 20,20 22,20 22,22 22,26 24,26 24,18 "/>
<polygon fill="none" points="13.6,6 4,6 4,25 6,25 6,18 6,16 8,16 24,16 26,16 26,18 26,25 28,25 28,10 17.6,10 "/>
<rect x="12" y="22" fill="none" width="8" height="3"/>
<path d="M16,5.6L14.4,4H2v23h4v1h2h2h1h1v-1h8v1h2h2h2v-1h4V9V8V4H17.6L16,5.6z M12,22h8v3h-8V22z M22,26v-4v-2h-2
	h-8h-2v2v4H8v-8h16v8H22z M28,25h-2v-7v-2h-2H8H6v2v7H4V6h9.6l4,4H28V25z M28,6v2h-9.6l-1-1l1-1H28z"/>
</svg>
