<svg version="1.1" id="Layer_1" xmlns="http://www.w3.org/2000/svg" xmlns:xlink="http://www.w3.org/1999/xlink" x="0px" y="0px"
	 width="32px" height="32px" viewBox="0 0 32 32" enable-background="new 0 0 32 32" xml:space="preserve">
<path d="M18,29V17c0-1.6-1-3-2.3-3.6c0.4-0.4,0.7-0.9,0.9-1.4H20v0c0.8,0.6,1.9,1,3,1s2.2-0.4,3-1v0c1.1,0,2,0.9,2,2
	v10c0,0.6-0.4,1-1,1h-1v4h2v-2.2c1.2-0.4,2-1.5,2-2.8V14c0-1.7-1.1-3.1-2.6-3.7C27.8,9.6,28,8.8,28,8c0-2.8-2.2-5-5-5s-5,2.2-5,5
	c0,0.7,0.2,1.4,0.4,2H17c0-2.8-2.2-5-5-5C9.5,5,7.4,6.9,7.1,9.3C4.1,10.1,2,12.8,2,16c0,1.3,0.8,2.4,2,2.8V24c0,1.3,0.8,2.4,2,2.8
	V29h2v-4H7c-0.6,0-1-0.4-1-1v-5.2c1.2-0.4,2-1.5,2-2.8c0-0.6,0.4-1,1-1h5c1.1,0,2,0.9,2,2v12H18z M23,5c1.7,0,3,1.3,3,3s-1.3,3-3,3
	s-3-1.3-3-3S21.3,5,23,5z M12,7c1.7,0,3,1.3,3,3s-1.3,3-3,3s-3-1.3-3-3S10.3,7,12,7z M6,16c0,0.6-0.4,1-1,1s-1-0.4-1-1
	c0-2.1,1.3-3.9,3.2-4.7c0.2,0.7,0.5,1.3,0.9,1.8C6.9,13.5,6,14.6,6,16z"/>
</svg>
