<svg version="1.1" id="Layer_1" xmlns="http://www.w3.org/2000/svg" xmlns:xlink="http://www.w3.org/1999/xlink" x="0px" y="0px"
	 width="32px" height="32px" viewBox="0 0 32 32" enable-background="new 0 0 32 32" xml:space="preserve">
<path d="M31.5,29.8c0.5-0.9,0.7-1.9,0.4-3.5c-0.3-1.5-1.4-4.6-1.9-5.6V6V4H2v2v20v2h13c0,0.7,0.2,1.3,0.5,1.8
	c0.5,0.8,1.4,1.2,2,1.2c0.7,0,1.2-0.5,2.5-2c0.2-0.3,0.6-0.7,0.6-0.7c0.1,0,0.1-0.1,0.2-0.1C21,28.1,21.1,28,22,28h3
	c0.9,0,1,0.1,1.1,0.2c0.1,0,0.1,0.1,0.2,0.1c0.1,0.1,0.4,0.5,0.7,0.8c1.3,1.4,1.8,2,2.5,2C30.1,31,31,30.6,31.5,29.8z M4,6h2v1h2V6
	h16v1h2V6h2v12.8c-0.2-0.1-0.4-0.1-0.5-0.1c-0.5-0.1-1-0.1-1.3-0.1c-0.3,0-0.6,0-0.8,0.1c-0.1,0-0.2,0.1-0.4,0.2
	c-0.1,0.1-0.2,0.1-0.2,0.2L24,19l-1.8,0c-0.1,0-0.2-0.1-0.2-0.2c-0.2-0.1-0.3-0.2-0.4-0.2c-0.2-0.1-0.4-0.1-0.8-0.1
	c-0.3,0-0.8,0-1.3,0.1c-0.4,0.1-1.3,0.4-1.6,0.5c-0.3,0.2-0.5,0.5-0.5,0.9v0c-0.2,0.2-0.3,0.4-0.4,0.5c-0.3,0.6-1.5,3.7-1.9,5.4H8
	v-1H6v1H4V6z M29.8,28.7c0,0.1-0.1,0.1-0.2,0.2c-0.3-0.3-0.8-0.9-1.1-1.2c-0.6-0.6-0.8-0.9-1.1-1.1l-0.1-0.1c-0.5-0.4-1-0.5-2.3-0.5
	h-3c-1.3,0-1.8,0.2-2.3,0.5l-0.1,0.1c-0.3,0.2-0.5,0.5-1.1,1.1c-0.3,0.3-0.8,0.9-1.1,1.2c-0.1,0-0.1-0.1-0.2-0.2
	c-0.1-0.2-0.4-0.6-0.1-2c0.3-1.4,1.5-4.8,1.8-5.2c0,0,0.1-0.1,0.1-0.1c0.3-0.1,0.5-0.4,0.5-0.7c0.2,0,0.3-0.1,0.5-0.1
	c0.3-0.1,0.7-0.1,0.9-0.1c0,0,0,0,0.1,0c0.4,0.3,0.7,0.4,1,0.5c0,0,0.2,0,0.4,0l1.7,0l1,0c0,0,0.1,0,0.2,0c0.3,0,0.5-0.2,1-0.5
	c0,0,0,0,0.1,0c0.2,0,0.6,0,0.9,0.1c0.2,0,0.3,0.1,0.5,0.1c0.1,0.3,0.2,0.5,0.5,0.7c0,0,0.1,0.1,0.1,0.1c0.2,0.5,1.5,3.8,1.8,5.2
	C30.1,28.2,29.9,28.6,29.8,28.7z"/>
	<circle cx="23.5" cy="22.5" r="0.5"/>
<rect x="6" y="13" width="2" height="2"/>
<rect x="6" y="9" width="2" height="2"/>
<rect x="6" y="17" width="2" height="2"/>
<rect x="6" y="21" width="2" height="2"/>
<rect x="24" y="9" width="2" height="2"/>
<rect x="24" y="13" width="2" height="2"/>
</svg>
