<svg version="1.1" id="Layer_1" xmlns="http://www.w3.org/2000/svg" xmlns:xlink="http://www.w3.org/1999/xlink" x="0px" y="0px"
	 width="32px" height="32px" viewBox="0 0 32 32" enable-background="new 0 0 32 32" xml:space="preserve">
<path d="M16,30c7.7,0,14-6.3,14-14S23.7,2,16,2S2,8.3,2,16S8.3,30,16,30z M16,4c6.6,0,12,5.4,12,12s-5.4,12-12,12
	S4,22.6,4,16S9.4,4,16,4z"/>
<path d="M16,23c3.9,0,7-3.1,7-7v-1h-6v2h3.9c-0.5,2.3-2.5,4-4.9,4c-2.8,0-5-2.2-5-5s2.2-5,5-5c1.3,0,2.6,0.5,3.5,1.5
	l1.4-1.4c-1.3-1.3-3.1-2-4.9-2c-3.9,0-7,3.1-7,7S12.1,23,16,23z"/>
</svg>
