<svg version="1.1" id="Layer_1" xmlns="http://www.w3.org/2000/svg" xmlns:xlink="http://www.w3.org/1999/xlink" x="0px" y="0px"
	 width="32px" height="32px" viewBox="0 0 32 32" enable-background="new 0 0 32 32" xml:space="preserve">
<rect x="10" y="9" fill="none" width="6" height="3"/>
<polygon fill="none" points="27,15 27,15.6 28,16.6 28,15 "/>
<path fill="none" d="M17,4H9C7.3,4,6,5.3,6,7v21h14V7C20,5.3,18.7,4,17,4z M18,14H8V7h10V14z"/>
<path d="M25.7,7.3l-1.4,1.4l3.1,3.1c0.4,0.3,0.6,0.8,0.6,1.2h-3v3.4l3,3V21c0,0.6-0.4,1-1,1s-1-0.4-1-1
	c0-2.4-1.7-4.4-4-4.9V7c0-2.8-2.2-5-5-5H9C6.2,2,4,4.2,4,7v21H2v2h22v-2h-2v-9.8c1.2,0.4,2,1.5,2,2.8c0,1.7,1.3,3,3,3s3-1.3,3-3v-8
	c0-1.1-0.5-2-1.3-2.7L25.7,7.3z M6,28V7c0-1.7,1.3-3,3-3h8c1.7,0,3,1.3,3,3v21H6z M27,15.6V15h1v1.6L27,15.6z"/>
<path d="M8,14h10V7H8V14z M10,9h6v3h-6V9z"/>
</svg>
