<svg version="1.1" id="Layer_1" xmlns="http://www.w3.org/2000/svg" xmlns:xlink="http://www.w3.org/1999/xlink" x="0px" y="0px"
	 width="32px" height="32px" viewBox="0 0 32 32" enable-background="new 0 0 32 32" xml:space="preserve">
<path fill="none" d="M23,17v-4c0-0.6-0.4-1-1-1h-8c-2.8,0-5,2.2-5,5c0,3.9,3.1,7,7,7S23,20.9,23,17z M13,17c-0.6,0-1-0.4-1-1
	c0-0.6,0.4-1,1-1c0.6,0,1,0.4,1,1C14,16.6,13.6,17,13,17z M16,22c-1.1,0-2-0.9-2-2h4C18,21.1,17.1,22,16,22z M19,17
	c-0.6,0-1-0.4-1-1c0-0.6,0.4-1,1-1c0.6,0,1,0.4,1,1C20,16.6,19.6,17,19,17z"/>
<path fill="none" d="M16,26c-1,0-2-0.2-3-0.5c0.2,1.4,1.5,2.5,3,2.5s2.7-1.1,3-2.5C18,25.8,17,26,16,26z"/>
<path fill="none" d="M27,21v-6c0-6.1-4.9-11-11-11S5,8.9,5,15v6c0,1.3-0.8,2.3-1.9,2.8C3.5,25.1,4.6,26,6,26v0c0.8-0.6,1.9-1,3-1h2
	h0.9C9,23.5,7,20.5,7,17c0-3.9,3.1-7,7-7h8c1.7,0,3,1.3,3,3v4c0,3.5-2,6.5-4.9,8H21h2c1.1,0,2.2,0.4,3,1v0c1.4,0,2.5-0.9,2.9-2.2
	C27.8,23.3,27,22.3,27,21z"/>
<path d="M16,22c1.1,0,2-0.9,2-2h-4C14,21.1,14.9,22,16,22z"/>
<circle cx="13" cy="16" r="1"/>
<circle cx="19" cy="16" r="1"/>
<path d="M29,21v-6c0-7.2-5.8-13-13-13S3,7.8,3,15v6c0,0.6-0.4,1-1,1H1v1c0,2.3,1.5,4.1,3.6,4.8C4.2,28.4,4,29.2,4,30
	h2c0-1.7,1.3-3,3-3h2.4c0.8,1.8,2.5,3,4.6,3s3.8-1.2,4.6-3H23c1.7,0,3,1.3,3,3h2c0-0.8-0.2-1.6-0.6-2.2c2-0.6,3.6-2.5,3.6-4.8v-1h-1
	C29.4,22,29,21.6,29,21z M16,24c-3.9,0-7-3.1-7-7c0-2.8,2.2-5,5-5h8c0.6,0,1,0.4,1,1v4C23,20.9,19.9,24,16,24z M16,28
	c-1.5,0-2.7-1.1-3-2.5C14,25.8,15,26,16,26s2-0.2,3-0.5C18.7,26.9,17.5,28,16,28z M26,26L26,26c-0.8-0.6-1.9-1-3-1h-2h-0.9
	c2.9-1.5,4.9-4.5,4.9-8v-4c0-1.7-1.3-3-3-3h-8c-3.9,0-7,3.1-7,7c0,3.5,2,6.5,4.9,8H11H9c-1.1,0-2.2,0.4-3,1v0
	c-1.4,0-2.5-0.9-2.9-2.2C4.2,23.3,5,22.3,5,21v-6C5,8.9,9.9,4,16,4s11,4.9,11,11v6c0,1.3,0.8,2.3,1.9,2.8C28.5,25.1,27.4,26,26,26z"
	/>
</svg>
