<svg version="1.1" id="Layer_1" xmlns="http://www.w3.org/2000/svg" xmlns:xlink="http://www.w3.org/1999/xlink" x="0px" y="0px"
	 width="32px" height="32px" viewBox="0 0 32 32" enable-background="new 0 0 32 32" xml:space="preserve">
<path d="M29.7,12c-1.3-1.8-3.4-3-5.7-3s-4.5,1.2-5.7,3h-4.5c-1.3-1.8-3.4-3-5.7-3s-4.5,1.2-5.7,3H0v2h1.3
	C1.1,14.6,1,15.3,1,16c0,3.9,3.1,7,7,7s7-3.1,7-7v-1c0-0.6,0.4-1,1-1s1,0.4,1,1v1c0,3.9,3.1,7,7,7s7-3.1,7-7c0-0.7-0.1-1.4-0.3-2H32
	v-2H29.7z M8,21c-2.8,0-5-2.2-5-5s2.2-5,5-5s5,2.2,5,5S10.8,21,8,21z M24,21c-2.8,0-5-2.2-5-5s2.2-5,5-5s5,2.2,5,5S26.8,21,24,21z"
	/>
</svg>
