<svg version="1.1" id="Layer_1" xmlns="http://www.w3.org/2000/svg" xmlns:xlink="http://www.w3.org/1999/xlink" x="0px" y="0px"
	 width="32px" height="32px" viewBox="0 0 32 32" enable-background="new 0 0 32 32" xml:space="preserve">
<path d="M20.3,8.3l1.4,1.4L23,8.4l6.6,6.6H2.4L9,8.4l1.3,1.3l1.4-1.4L9,5.6l-9,9V15v1v1h2v3c0,3.3,2.7,6,6,6
	s6-2.7,6-6v-1c0-1.1,0.9-2,2-2s2,0.9,2,2v1c0,3.3,2.7,6,6,6s6-2.7,6-6v-3h2v-1v-1v-0.4l-9-9L20.3,8.3z M12,20c0,2.2-1.8,4-4,4
	s-4-1.8-4-4v-3h8V20z M28,20c0,2.2-1.8,4-4,4s-4-1.8-4-4v-3h8V20z"/>
</svg>
