<svg version="1.1" id="Layer_1" xmlns="http://www.w3.org/2000/svg" xmlns:xlink="http://www.w3.org/1999/xlink" x="0px" y="0px"
	 width="32px" height="32px" viewBox="0 0 32 32" enable-background="new 0 0 32 32" xml:space="preserve">
<path d="M28.7,23.3L22,16.6c0-0.2,0-0.3,0-0.5c0-1.6-0.6-3.1-1.8-4.2l-8-8C11.1,2.6,9.6,2,8,2S4.9,2.6,3.8,3.8
	C2.6,4.9,2,6.4,2,8s0.6,3.1,1.8,4.2l8,8c0.9,0.9,2,1.5,3.2,1.7V28h-2v2h2h2h2v-2h-2v-5.6l3.4,3.4l0,0c0,0,0,0,0,0l2.9,2.9
	c0.7,0.7,1.7,1.2,2.7,1.2c0.1,0,0.1,0,0.2,0c1,0,1.9-0.4,2.6-1.1C30.3,27.4,30.3,24.9,28.7,23.3z M4,8c0-1.1,0.4-2.1,1.2-2.8
	C5.9,4.4,6.9,4,8,4s2.1,0.4,2.8,1.2C11.6,5.9,12,6.9,12,8s-0.4,2.1-1.2,2.8c-1.5,1.5-4.1,1.5-5.7,0C4.4,10.1,4,9.1,4,8z M8.3,14
	c1.5-0.1,2.9-0.7,3.9-1.7c1.1-1.1,1.7-2.4,1.7-3.9l4.8,4.9C19.6,14,20,15,20,16c0,1.1-0.4,2.1-1.2,2.8C18.1,19.6,17.1,20,16,20
	s-2.1-0.4-2.8-1.2L8.3,14z M18.8,21.4c0.5-0.3,1-0.6,1.5-1.1c0.5-0.5,0.8-1,1.1-1.5l3,3l0,0c0.4,0.4,0.6,0.9,0.6,1.4
	c0,0.5-0.2,1-0.5,1.3c-0.7,0.7-1.9,0.6-2.7-0.1L18.8,21.4z M27.4,27.4c-0.3,0.3-0.8,0.5-1.3,0.5c-0.5,0-1-0.3-1.4-0.6l-0.4-0.4
	c0.6-0.2,1.2-0.5,1.7-0.9c0.5-0.5,0.8-1,0.9-1.7l0.4,0.4C28.1,25.5,28.1,26.7,27.4,27.4z"/>
<path d="M7.6,8C6.7,8,6.1,7.3,6.1,6.5c0-0.2,0-0.3,0.1-0.4C5.5,6.3,5.1,6.8,5.1,7.5C5.1,8.3,5.7,9,6.6,9
	C7.2,9,7.8,8.5,8,7.9C7.9,8,7.7,8,7.6,8z"/>
<circle cx="10.5" cy="7.5" r="0.5"/>
<rect x="8.1" y="5.1" transform="matrix(0.7071 0.7071 -0.7071 0.7071 6.3787 -4.3995)" width="0.7" height="0.7"/>
<rect x="8.1" y="10.1" transform="matrix(-0.7071 -0.7071 0.7071 -0.7071 7.0858 23.935)" width="0.7" height="0.7"/>
</svg>
