<svg version="1.1" id="Layer_1" xmlns="http://www.w3.org/2000/svg" xmlns:xlink="http://www.w3.org/1999/xlink" x="0px" y="0px"
	 width="32px" height="32px" viewBox="0 0 32 32" enable-background="new 0 0 32 32" xml:space="preserve">
<path d="M16,3C8.8,3,3,8.8,3,16v4v1v4c0,1.7,1.3,3,3,3h1v1h2v-1v-1v-9v-1v-1H7v1H6c-0.4,0-0.7,0.1-1,0.2V16
	C5,9.9,9.9,5,16,5c6.1,0,11,4.9,11,11v1.2c-0.3-0.1-0.6-0.2-1-0.2h-1v-1h-2v1v1v9v1v1h2v-1h1c1.7,0,3-1.3,3-3v-4v-1v-4
	C29,8.8,23.2,3,16,3z M6,19h1v7H6c-0.6,0-1-0.4-1-1v-4v-1C5,19.4,5.4,19,6,19z M27,21v4c0,0.6-0.4,1-1,1h-1v-7h1c0.6,0,1,0.4,1,1V21
	z"/>
<rect x="19" y="16" width="5" height="2"/>
<rect x="8" y="16" width="4" height="2"/>
<rect x="19" y="16" width="2" height="13"/>
<rect x="19" y="27" width="5" height="2"/>
<rect x="8" y="27" width="5" height="2"/>
<rect x="11" y="16" width="2" height="13"/>
</svg>
