<svg version="1.1" id="Layer_1" xmlns="http://www.w3.org/2000/svg" xmlns:xlink="http://www.w3.org/1999/xlink" x="0px" y="0px"
	 width="32px" height="32px" viewBox="0 0 32 32" enable-background="new 0 0 32 32" xml:space="preserve">
<path d="M16,2C8.8,2,3,7.8,3,15v4v1v5c0,1.7,1.3,3,3,3h1v1h2v-1v-1V17v-1v-1H7v1H6c-0.4,0-0.7,0.1-1,0.2V15
	C5,8.9,9.9,4,16,4c6.1,0,11,4.9,11,11v1.2c-0.3-0.1-0.6-0.2-1-0.2h-1v-1h-2v1v1v10v1v1h2v-1h1c1.7,0,3-1.3,3-3v-5v-1v-4
	C29,7.8,23.2,2,16,2z M6,18h1v8H6c-0.6,0-1-0.4-1-1v-5v-1C5,18.4,5.4,18,6,18z M27,20v5c0,0.6-0.4,1-1,1h-1v-8h1c0.6,0,1,0.4,1,1V20
	z"/>
</svg>
