<svg version="1.1" id="Layer_1" xmlns="http://www.w3.org/2000/svg" xmlns:xlink="http://www.w3.org/1999/xlink" x="0px" y="0px"
	 width="32px" height="32px" viewBox="0 0 32 32" enable-background="new 0 0 32 32" xml:space="preserve">
<path d="M16,29.4l12.7-12.7c3.1-3.1,3.1-8.2,0-11.3C27.2,3.8,25.2,3,23,3s-4.1,0.8-5.6,2.3L16,6.8l-1.4-1.4
	C13.1,3.8,11.1,3,9,3C6.8,3,4.8,3.8,3.3,5.3c-3.1,3.1-3.1,8.2,0,11.3L16,29.4z M6.5,17h0.9l1.6-1.6l7,7l8-8l2.1,2.1L16,26.6L6.5,17z
	 M4.7,6.8C5.9,5.6,7.4,5,9,5c1.6,0,3.1,0.6,4.2,1.8L16,9.6l2.8-2.8C19.9,5.6,21.4,5,23,5s3.1,0.6,4.2,1.8c2.3,2.3,2.3,6,0.2,8.3
	l-3.5-3.5l-8,8l-7-7L6.5,15h-2C2.4,12.6,2.5,9,4.7,6.8z"/>
</svg>
