<svg version="1.1" id="Layer_1" xmlns="http://www.w3.org/2000/svg" xmlns:xlink="http://www.w3.org/1999/xlink" x="0px" y="0px"
	 width="32px" height="32px" viewBox="0 0 32 32" enable-background="new 0 0 32 32" xml:space="preserve">
<path d="M13,30h6c1.1,0,2-0.5,2.7-1.3l4.9-4.9C27.5,23,28,22.1,28,21v-7c0-6.6-5.4-12-12-12S4,7.4,4,14v7
	c0,1.1,0.5,2,1.3,2.7l4.9,4.9C11,29.5,11.9,30,13,30z M18,4.2V12h-4V4.2C14.6,4.1,15.3,4,16,4C16.7,4,17.4,4.1,18,4.2z M21,14
	c0.6,0,1,0.4,1,1v3c0,1.4-0.9,2.5-2.2,2.9C19.3,19.8,18.3,19,17,19h-2c-1.3,0-2.3,0.8-2.8,1.9C10.9,20.5,10,19.4,10,18v-3
	c0-0.6,0.4-1,1-1H21z M6,21v-7c0-4.1,2.5-7.6,6-9.2V12h-1c-1.7,0-3,1.3-3,3v3c0,2.8,2.2,5,5,5c0.6,0,1-0.4,1-1c0-0.6,0.4-1,1-1h2
	c0.6,0,1,0.4,1,1c0,0.6,0.4,1,1,1c2.8,0,5-2.2,5-5v-3c0-1.7-1.3-3-3-3h-1V4.8c3.5,1.5,6,5.1,6,9.2v7c0,0.5-0.2,0.9-0.7,1.3l-5.1,5.1
	C19.9,27.8,19.5,28,19,28h-6c-0.5,0-0.9-0.2-1.3-0.7l-5.1-5.1C6.2,21.9,6,21.5,6,21z"/>
<rect x="15" y="24" width="2" height="2"/>
</svg>
