<svg version="1.1" id="Layer_1" xmlns="http://www.w3.org/2000/svg" xmlns:xlink="http://www.w3.org/1999/xlink" x="0px" y="0px"
	 width="32px" height="32px" viewBox="0 0 32 32" enable-background="new 0 0 32 32" xml:space="preserve">
<path d="M23,2H9C5.1,2,2,5.1,2,9v13h10v8h2v-8h3h13h2v-2v-8v-1V9h-2C30,5.1,26.9,2,23,2z M28,9H18c0-2.8,2.2-5,5-5
	S28,6.2,28,9z M29.5,11L24,13.8L18.5,11H29.5z M4,9c0-2.8,2.2-5,5-5h9.1C16.8,5.3,16,7,16,9v3v8H4V9z M30,20H18v-7l6,3l6-3V20z"/>
<polygon points="8,9 8,13 10,13 10,11 14,11 14,9 "/>
</svg>
