<svg version="1.1" id="Layer_1" xmlns="http://www.w3.org/2000/svg" xmlns:xlink="http://www.w3.org/1999/xlink" x="0px" y="0px"
	 width="32px" height="32px" viewBox="0 0 32 32" enable-background="new 0 0 32 32" xml:space="preserve">
<path d="M11,19c4.4,0,8-3.6,8-8s-3.6-8-8-8s-8,3.6-8,8S6.6,19,11,19z M11,5c3.3,0,6,2.7,6,6s-2.7,6-6,6s-6-2.7-6-6
	S7.7,5,11,5z"/>
<path d="M25,29c2.2,0,4-1.8,4-4s-1.8-4-4-4s-4,1.8-4,4S22.8,29,25,29z M25,23c1.1,0,2,0.9,2,2s-0.9,2-2,2s-2-0.9-2-2
	S23.9,23,25,23z"/>
<path d="M22,11c0,6.1-4.9,11-11,11v2c7.2,0,13-5.8,13-13H22z"/>
</svg>
