<svg version="1.1" id="Layer_1" xmlns="http://www.w3.org/2000/svg" xmlns:xlink="http://www.w3.org/1999/xlink" x="0px" y="0px"
	 width="32px" height="32px" viewBox="0 0 32 32" enable-background="new 0 0 32 32" xml:space="preserve">
<path d="M13,32h3h2c1.1,0,2-0.9,2-2V13.9c1.7-0.4,3-2,3-3.9V4c0-2.2-1.8-4-4-4h-5c-2.2,0-4,1.8-4,4v6
	c0,1.9,1.3,3.4,3,3.9V22l1,1l-1,1v3l1,1l-1,1V32z M18,30h-2h-1v-0.2l0.4-0.4l1.4-1.4l-1.4-1.4L15,26.2v-1.3l0.4-0.4l1.4-1.4
	l-1.4-1.4L15,21.2V14h3V30z M12,10V4c0-1.1,0.9-2,2-2h5c1.1,0,2,0.9,2,2v6c0,1.1-0.9,2-2,2h-5C12.9,12,12,11.1,12,10z"/>
<circle cx="16.5" cy="5.5" r="1.5"/>
</svg>
