<svg version="1.1" id="Layer_1" xmlns="http://www.w3.org/2000/svg" xmlns:xlink="http://www.w3.org/1999/xlink" x="0px" y="0px"
	 width="32px" height="32px" viewBox="0 0 32 32" enable-background="new 0 0 32 32" xml:space="preserve">
<path d="M30,25h1h1V9V7h-2H2H1H0v16v2h2H30z M2,9h28v14H2V9z"/>
<rect x="4" y="11" width="3" height="2"/>
<rect x="9" y="11" width="2" height="2"/>
<rect x="13" y="11" width="2" height="2"/>
<rect x="17" y="11" width="2" height="2"/>
<rect x="21" y="11" width="2" height="2"/>
<rect x="25" y="11" width="3" height="2"/>
<rect x="4" y="15" width="2" height="2"/>
<rect x="8" y="15" width="2" height="2"/>
<rect x="12" y="15" width="2" height="2"/>
<rect x="16" y="15" width="2" height="2"/>
<rect x="20" y="15" width="2" height="2"/>
<rect x="24" y="15" width="4" height="2"/>
<rect x="4" y="19" width="3" height="2"/>
<rect x="9" y="19" width="13" height="2"/>
<polygon points="24,19 24,21 26,21 28,21 28,19 26,19 "/>
</svg>
