<svg version="1.1" id="Layer_1" xmlns="http://www.w3.org/2000/svg" xmlns:xlink="http://www.w3.org/1999/xlink" x="0px" y="0px"
	 width="32px" height="32px" viewBox="0 0 32 32" enable-background="new 0 0 32 32" xml:space="preserve">
<path d="M25,2c-1.9,0-3.4,1.3-3.9,3H4v20c0,2.8,2.2,5,5,5h14c2.8,0,5-2.2,5-5v-1h-2V9.9c1.7-0.4,3-2,3-3.9
	C29,3.8,27.2,2,25,2z M13,28c0.4-0.6,0.8-1.3,0.9-2h11.9c-0.4,1.2-1.5,2-2.8,2H13z M6,7h15.1c0.1,0.4,0.2,0.7,0.4,1l-7.3,7.3
	C14.1,15.5,14,15.7,14,16c0,0.3,0.1,0.5,0.3,0.7c0.4,0.4,1,0.4,1.4,0L23,9.4c0.3,0.2,0.7,0.3,1,0.4V24H12v1c0,1.7-1.3,3-3,3
	s-3-1.3-3-3V7z M25,4c1.1,0,2,0.9,2,2s-0.9,2-2,2s-2-0.9-2-2S23.9,4,25,4z"/>
</svg>
