<svg version="1.1" id="Layer_1" xmlns="http://www.w3.org/2000/svg" xmlns:xlink="http://www.w3.org/1999/xlink" x="0px" y="0px"
	 width="32px" height="32px" viewBox="0 0 32 32" enable-background="new 0 0 32 32" xml:space="preserve">
<path d="M9,14h2c0-1.7,1.3-3,3-3V9c-1,0-2,0.3-2.8,0.8L3.7,2.3L2.3,3.7l7.5,7.5C9.3,12,9,13,9,14z"/>
<path d="M21,14h2c0-1-0.3-2-0.8-2.8l7.5-7.5l-1.4-1.4l-7.5,7.5C20,9.3,19,9,18,9v2C19.7,11,21,12.3,21,14z"/>
<path d="M13,16c0,1.7,1.3,3,3,3s3-1.3,3-3s-1.3-3-3-3S13,14.3,13,16z M16,15c0.6,0,1,0.4,1,1s-0.4,1-1,1s-1-0.4-1-1
	S15.4,15,16,15z"/>
<path d="M22.2,20.8C22.7,20,23,19,23,18h-2c0,1.7-1.3,3-3,3v2c1,0,2-0.3,2.8-0.8l7.5,7.5l1.4-1.4L22.2,20.8z"/>
<path d="M11.2,22.2C12,22.7,13,23,14,23v-2c-1.7,0-3-1.3-3-3H9c0,1,0.3,2,0.8,2.8l-7.5,7.5l1.4,1.4L11.2,22.2z"/>
</svg>
