<svg version="1.1" id="Layer_1" xmlns="http://www.w3.org/2000/svg" xmlns:xlink="http://www.w3.org/1999/xlink" x="0px" y="0px"
	 width="32px" height="32px" viewBox="0 0 32 32" enable-background="new 0 0 32 32" xml:space="preserve">
<path d="M16,2C8.3,2,2,8.3,2,16c0,3.5,1.3,6.7,3.4,9.2l-3.1,3.1l1.4,1.4l3.1-3.1C9.3,28.7,12.5,30,16,30
	c7.7,0,14-6.3,14-14S23.7,2,16,2z M16,28c-2.9,0-5.6-1.1-7.7-2.8L21,12.4V21h2V9H11v2h8.6L6.8,23.7C5.1,21.6,4,18.9,4,16
	C4,9.4,9.4,4,16,4s12,5.4,12,12S22.6,28,16,28z"/>
</svg>
