<svg version="1.1" id="Layer_1" xmlns="http://www.w3.org/2000/svg" xmlns:xlink="http://www.w3.org/1999/xlink" x="0px" y="0px"
	 width="32px" height="32px" viewBox="0 0 32 32" enable-background="new 0 0 32 32" xml:space="preserve">
<path d="M16,2C8.3,2,2,8.3,2,16s6.3,14,14,14c3.5,0,6.7-1.3,9.2-3.4l3.1,3.1l1.4-1.4l-3.1-3.1
	c2.1-2.5,3.4-5.7,3.4-9.2C30,8.3,23.7,2,16,2z M12.4,11H21V9H9v12h2v-8.6l12.7,12.7C21.6,26.9,18.9,28,16,28C9.4,28,4,22.6,4,16
	S9.4,4,16,4s12,5.4,12,12c0,2.9-1.1,5.6-2.8,7.7L12.4,11z"/>
</svg>
