<svg version="1.1" id="Layer_1" xmlns="http://www.w3.org/2000/svg" xmlns:xlink="http://www.w3.org/1999/xlink" x="0px" y="0px"
	 width="32px" height="32px" viewBox="0 0 32 32" enable-background="new 0 0 32 32" xml:space="preserve">
<path d="M17,29v-4.1c4.2-0.5,7.5-3.8,7.9-7.9H29v-2h-4.1c-0.5-4.2-3.8-7.5-7.9-7.9V3h-2v4.1
	c-4.2,0.5-7.5,3.8-7.9,7.9H3v2h4.1c0.5,4.2,3.8,7.5,7.9,7.9V29H17z M9,16c0-3.9,3.1-7,7-7s7,3.1,7,7s-3.1,7-7,7S9,19.9,9,16z"/>
<path d="M20,16c0-2.2-1.8-4-4-4s-4,1.8-4,4s1.8,4,4,4S20,18.2,20,16z M14,16c0-1.1,0.9-2,2-2s2,0.9,2,2s-0.9,2-2,2
	S14,17.1,14,16z"/>
</svg>
