<svg version="1.1" id="Layer_1" xmlns="http://www.w3.org/2000/svg" xmlns:xlink="http://www.w3.org/1999/xlink" x="0px" y="0px"
	 width="32px" height="32px" viewBox="0 0 32 32" enable-background="new 0 0 32 32" xml:space="preserve">
<path d="M27.9,15C27.5,9.2,22.8,4.5,17,4.1V2h-2v2.1C9.2,4.5,4.5,9.2,4.1,15H2v2h2.1C4.5,22.8,9.2,27.5,15,27.9V30h2
	v-2.1c5.8-0.5,10.5-5.1,10.9-10.9H30v-2H27.9z M17,25.9V22h-2v3.9c-4.7-0.5-8.5-4.2-8.9-8.9H10v-2H6.1c0.5-4.7,4.2-8.5,8.9-8.9V10h2
	V6.1c4.7,0.5,8.5,4.2,8.9,8.9H22v2h3.9C25.5,21.7,21.7,25.5,17,25.9z"/>
</svg>
