<svg version="1.1" id="Layer_1" xmlns="http://www.w3.org/2000/svg" xmlns:xlink="http://www.w3.org/1999/xlink" x="0px" y="0px"
	 width="32px" height="32px" viewBox="0 0 32 32" enable-background="new 0 0 32 32" xml:space="preserve">
<path d="M24,14L24,14l0-4c0-4.4-3.6-8-8-8c-4.4,0-8,3.6-8,8v4h0c-1.3,1.7-2,3.7-2,6c0,5.5,4.5,10,10,10
	c5.5,0,10-4.5,10-10C26,17.7,25.2,15.7,24,14z M16,4c3.3,0,6,2.7,6,6v2c-1.7-1.3-3.7-2-6-2c-2.3,0-4.3,0.8-6,2v-2
	C10,6.7,12.7,4,16,4z M16,28c-4.4,0-8-3.6-8-8s3.6-8,8-8c4.4,0,8,3.6,8,8S20.4,28,16,28z"/>
<path d="M16,17c-1.1,0-2,0.9-2,2c0,0.7,0.4,1.4,1,1.7V24h2v-3.3c0.6-0.3,1-1,1-1.7C18,17.9,17.1,17,16,17z"/>
</svg>
