<svg version="1.1" id="Layer_1" xmlns="http://www.w3.org/2000/svg" xmlns:xlink="http://www.w3.org/1999/xlink" x="0px" y="0px"
	 width="32px" height="32px" viewBox="0 0 32 32" enable-background="new 0 0 32 32" xml:space="preserve">
<path d="M23,2H7C5.3,2,4,3.3,4,5v22c0,1.7,1.3,3,3,3h15c1.7,0,3-1.3,3-3v-1.8c0.6-0.5,1-1.3,1-2.2V9h2V5h-2
	C26,3.3,24.7,2,23,2z M23,27c0,0.6-0.4,1-1,1H7c-0.6,0-1-0.4-1-1s0.4-1,1-1h16V27z M24,23c0,0.6-0.4,1-1,1H7c-0.4,0-0.7,0.1-1,0.2V5
	c0-0.6,0.4-1,1-1h16c0.6,0,1,0.4,1,1V23z"/>
<path d="M18.1,14.9C19.3,14,20,12.6,20,11c0-2.8-2.2-5-5-5s-5,2.2-5,5c0,1.6,0.7,3,1.9,3.9C10.2,15.9,9,17.8,9,20h2
	c0-2.2,1.8-4,4-4s4,1.8,4,4h2C21,17.8,19.8,15.9,18.1,14.9z M12,11c0-1.7,1.3-3,3-3s3,1.3,3,3s-1.3,3-3,3S12,12.7,12,11z"/>
</svg>
