<svg version="1.1" id="Layer_1" xmlns="http://www.w3.org/2000/svg" xmlns:xlink="http://www.w3.org/1999/xlink" x="0px" y="0px"
	 width="32px" height="32px" viewBox="0 0 32 32" enable-background="new 0 0 32 32" xml:space="preserve">
<polygon points="28,13 26,13 26,9.4 21.6,5 6,5 6,13 4,13 4,3 22.4,3 28,8.6 "/>
<polygon points="30,28 2,28 2,11.9 4.6,10.6 5.4,12.4 4,13.1 4,26 28,26 28,13.1 26.6,12.4 27.4,10.6 30,11.9 "/>
<polygon points="16,20.1 2.6,13.4 3.4,11.6 16,17.9 28.6,11.6 29.4,13.4 "/>
<polygon points="27,11 20,11 20,4 22,4 22,9 27,9 "/>
</svg>
