<svg version="1.1" id="Layer_1" xmlns="http://www.w3.org/2000/svg" xmlns:xlink="http://www.w3.org/1999/xlink" x="0px" y="0px"
	 width="32px" height="32px" viewBox="0 0 32 32" enable-background="new 0 0 32 32" xml:space="preserve">
<path d="M26,3c-1.9,0-3.4,1.3-3.9,3H8V4H7C4.2,4,2,6.2,2,9v14c0,2.8,2.2,5,5,5h20V10.9c1.7-0.4,3-2,3-3.9
	C30,4.8,28.2,3,26,3z M4,9c0-1.3,0.8-2.4,2-2.8v11.9c-0.7,0.2-1.4,0.5-2,0.9V9z M7,26c-1.7,0-3-1.3-3-3s1.3-3,3-3h1V8h14.1
	c0.1,0.4,0.2,0.7,0.4,1l-7.3,7.3c-0.4,0.4-0.4,1,0,1.4c0.2,0.2,0.5,0.3,0.7,0.3c0.3,0,0.5-0.1,0.7-0.3l7.3-7.3
	c0.3,0.2,0.7,0.3,1,0.4V26H7z M26,9c-1.1,0-2-0.9-2-2s0.9-2,2-2s2,0.9,2,2S27.1,9,26,9z"/>
</svg>
