<svg version="1.1" id="Layer_1" xmlns="http://www.w3.org/2000/svg" xmlns:xlink="http://www.w3.org/1999/xlink" x="0px" y="0px"
	 width="32px" height="32px" viewBox="0 0 32 32" enable-background="new 0 0 32 32" xml:space="preserve">
<path d="M24,13h-7v-2.2c1.7-0.4,3-2,3-3.8c0-2.2-1.8-4-4-4c-2.2,0-4,1.8-4,4c0,1.8,1.3,3.4,3,3.8V13H8L1,29h30L24,13
	z M14,7c0-1.1,0.9-2,2-2s2,0.9,2,2c0,1.1-0.9,2-2,2S14,8.1,14,7z M20.7,23l1,4H10.3l1-4H20.7z M22.8,23h3.4l1.8,4h-4.2L22.8,23z
	 M21.8,19h2.7l0.9,2h-3L21.8,19z M23.6,17h-2.3l-0.5-2h1.9L23.6,17z M18.7,15l1.5,6H17v-6H18.7z M9.3,15H15v6H6.7L9.3,15z M5.8,23
	h3.4l-1,4H4.1L5.8,23z"/>
</svg>
