<svg version="1.1" id="Layer_1" xmlns="http://www.w3.org/2000/svg" xmlns:xlink="http://www.w3.org/1999/xlink" x="0px" y="0px"
	 width="32px" height="32px" viewBox="0 0 32 32" enable-background="new 0 0 32 32" xml:space="preserve">
<path d="M7,11.9l-2,0.2l1,8.6c0.4,3.6,3.4,6.3,7,6.3H15v2h-4v2h10v-2h-4v-2h2.1c3.6,0,6.6-2.7,7-6.3l1-8.6l-2-0.2
	l-1,8.6c-0.3,2.6-2.4,4.5-5,4.5h-6.1c-2.6,0-4.7-1.9-5-4.5L7,11.9z"/>
<path d="M13,23h6c1.6,0,3-1.3,3-2.9l1-7.7c0-0.2,0-0.4,0-0.7l-1-7.7C22,2.3,20.6,1,19,1h-6c-1.6,0-3,1.3-3,2.9
	l-1,7.7c0,0.2,0,0.4,0,0.7l1,7.7C10,21.7,11.4,23,13,23z M12,4.1L12,4c0-0.6,0.4-1,1-1h6c0.6,0,1,0.4,1,1l1,7.9c0,0.1,0,0.1,0,0.2
	l-1,7.8l0,0.1c0,0.6-0.4,1-1,1h-6c-0.6,0-1-0.4-1-1l-1-7.9c0-0.1,0-0.1,0-0.2L12,4.1z"/>
</svg>
