<svg version="1.1" id="Layer_1" xmlns="http://www.w3.org/2000/svg" xmlns:xlink="http://www.w3.org/1999/xlink" x="0px" y="0px"
	 width="32px" height="32px" viewBox="0 0 32 32" enable-background="new 0 0 32 32" xml:space="preserve">
<path d="M24.6,15.8C27.7,15.1,30,12.3,30,9c0-3.9-3.1-7-7-7c-3.3,0-6.1,2.3-6.8,5.4L1.7,25.1l5.3,5.3L24.6,15.8z
	 M18.1,8.2c0.1-0.7,0.4-1.4,0.8-1.9l6.9,6.9c-0.6,0.4-1.2,0.6-1.9,0.8l0,0l0,0C23.5,14,23.2,14,23,14c-2.8,0-5-2.2-5-5
	C18,8.8,18,8.5,18.1,8.2L18.1,8.2L18.1,8.2z M21.4,15.8L9.8,25.4l-3.2-3.2l9.6-11.6C16.8,13.2,18.8,15.2,21.4,15.8z M28,9
	c0,1-0.3,2-0.8,2.8l-6.9-6.9C21,4.3,22,4,23,4C25.8,4,28,6.2,28,9z M5.3,23.7l2.9,2.9l-1.2,1l-2.7-2.7L5.3,23.7z"/>
</svg>
