<svg version="1.1" id="Layer_1" xmlns="http://www.w3.org/2000/svg" xmlns:xlink="http://www.w3.org/1999/xlink" x="0px" y="0px"
	 width="32px" height="32px" viewBox="0 0 32 32" enable-background="new 0 0 32 32" xml:space="preserve">
<path d="M4,19H2.3l0.4,1.3C4.5,26.1,9.9,30,16,30c6.1,0,11.4-3.9,13.3-9.7l0.4-1.3H18c-1.7,0-3-1.3-3-3s1.3-3,3-3
	h11.7l-0.4-1.3C27.4,5.9,22.1,2,16,2C9.9,2,4.5,5.9,2.7,11.7L2.3,13H4c1.7,0,3,1.3,3,3S5.7,19,4,19z M5,11.1C6.9,6.8,11.2,4,16,4
	c4.7,0,9,2.8,10.9,7H18c-2.8,0-5,2.2-5,5s2.2,5,5,5h8.9c-1.9,4.2-6.2,7-10.9,7c-4.8,0-9.1-2.8-11-7.1c2.3-0.5,4-2.5,4-4.9
	S7.3,11.6,5,11.1z"/>
</svg>
