<svg version="1.1" id="Layer_1" xmlns="http://www.w3.org/2000/svg" xmlns:xlink="http://www.w3.org/1999/xlink" x="0px" y="0px"
	 width="32px" height="32px" viewBox="0 0 32 32" enable-background="new 0 0 32 32" xml:space="preserve">
<path d="M4,12c-2.2,0-4,1.8-4,4s1.8,4,4,4c2.2,0,4-1.8,4-4S6.2,12,4,12z M4,18c-1.1,0-2-0.9-2-2s0.9-2,2-2s2,0.9,2,2
	S5.1,18,4,18z"/>
<path d="M16,12c-2.2,0-4,1.8-4,4s1.8,4,4,4c2.2,0,4-1.8,4-4S18.2,12,16,12z M16,18c-1.1,0-2-0.9-2-2s0.9-2,2-2
	s2,0.9,2,2S17.1,18,16,18z"/>
<path d="M28,12c-2.2,0-4,1.8-4,4s1.8,4,4,4c2.2,0,4-1.8,4-4S30.2,12,28,12z M28,18c-1.1,0-2-0.9-2-2s0.9-2,2-2
	s2,0.9,2,2S29.1,18,28,18z"/>
</svg>
