<svg version="1.1" id="Layer_1" xmlns="http://www.w3.org/2000/svg" xmlns:xlink="http://www.w3.org/1999/xlink" x="0px" y="0px"
	 width="32px" height="32px" viewBox="0 0 32 32" enable-background="new 0 0 32 32" xml:space="preserve">
<circle cx="14" cy="18" r="2"/>
<circle cx="14" cy="8" r="2"/>
<circle cx="19" cy="13" r="2"/>
<circle cx="9" cy="13" r="2"/>
<path d="M26,13c0-6.6-5.4-12-12-12C7.7,1,2.6,5.9,2.1,12H2v6c0,6.6,5.4,12,12,12c3.2,0,6.2-0.8,8.5-2.1
	c2-1.2,4.6-1.9,7.5-1.9v-1v-1v-3v-1v-1c-1.4,0-2.7,0.2-4,0.4V13z M14,3c5.5,0,10,4.5,10,10l-0.3,2.4c-1.1,4.4-5,7.6-9.7,7.6
	C8.5,23,4,18.5,4,13S8.5,3,14,3z M28,24.1c-2.4,0.2-4.7,0.9-6.5,2c-2,1.2-4.6,1.9-7.5,1.9c-4.9,0-8.9-3.5-9.8-8.1
	C6.4,23,9.9,25,14,25c3.2,0,6.2-0.8,8.5-2.1c1.5-0.9,3.4-1.5,5.5-1.7V24.1z"/>
</svg>
