<svg version="1.1" id="Layer_1" xmlns="http://www.w3.org/2000/svg" xmlns:xlink="http://www.w3.org/1999/xlink" x="0px" y="0px"
	 width="32px" height="32px" viewBox="0 0 32 32" enable-background="new 0 0 32 32" xml:space="preserve">
<path d="M14,15c-1.7,0-3,1.3-3,3s1.3,3,3,3s3-1.3,3-3S15.7,15,14,15z M14,19c-0.6,0-1-0.4-1-1s0.4-1,1-1s1,0.4,1,1
	S14.6,19,14,19z"/>
<path d="M14,11c1.7,0,3-1.3,3-3s-1.3-3-3-3s-3,1.3-3,3S12.3,11,14,11z M14,7c0.6,0,1,0.4,1,1s-0.4,1-1,1s-1-0.4-1-1
	S13.4,7,14,7z"/>
<path d="M16,13c0,1.7,1.3,3,3,3s3-1.3,3-3s-1.3-3-3-3S16,11.3,16,13z M19,12c0.6,0,1,0.4,1,1s-0.4,1-1,1s-1-0.4-1-1
	S18.4,12,19,12z"/>
<path d="M9,16c1.7,0,3-1.3,3-3s-1.3-3-3-3s-3,1.3-3,3S7.3,16,9,16z M9,12c0.6,0,1,0.4,1,1s-0.4,1-1,1s-1-0.4-1-1
	S8.4,12,9,12z"/>
<path d="M26,13c0-6.6-5.4-12-12-12C7.7,1,2.6,5.9,2.1,12H2v7c0,6.6,5.4,12,12,12c3.2,0,6.2-0.8,8.5-2.1
	c2-1.2,4.6-1.9,7.5-1.9v-1v-1v-4v-1v-1c-1.4,0-2.7,0.2-4,0.4V13z M14,3c5.5,0,10,4.5,10,10l-0.3,2.4c-1.1,4.4-5,7.6-9.7,7.6
	C8.5,23,4,18.5,4,13S8.5,3,14,3z M28,25.1c-2.4,0.2-4.7,0.9-6.5,2c-2,1.2-4.6,1.9-7.5,1.9c-5.3,0-9.6-4.1-10-9.3
	C6.2,22.9,9.9,25,14,25c3.2,0,6.2-0.8,8.5-2.1c1.5-0.9,3.4-1.5,5.5-1.7V25.1z"/>
</svg>
