<svg version="1.1" id="Layer_1" xmlns="http://www.w3.org/2000/svg" xmlns:xlink="http://www.w3.org/1999/xlink" x="0px" y="0px"
	 width="32px" height="32px" viewBox="0 0 32 32" enable-background="new 0 0 32 32" xml:space="preserve">
<path d="M22.9,8.1c-0.3-1-1-1.7-2-2c-0.3-1-1-1.7-2-2C18.5,2.9,17.4,2,16,2s-2.5,0.9-2.9,2.1c-1,0.3-1.7,1-2,2
	c-1,0.3-1.7,1-2,2C7.9,8.5,7,9.6,7,11H6l2,19h16l2-19h-1C25,9.6,24.1,8.5,22.9,8.1z M15.6,13l7.4,7.4l-0.5,4.7L10.4,13H15.6z
	 M23.3,17.9L18.4,13h5.4L23.3,17.9z M10,10h1V9c0-0.6,0.4-1,1-1h1V7c0-0.6,0.4-1,1-1h1V5c0-0.6,0.4-1,1-1s1,0.4,1,1v1h1
	c0.6,0,1,0.4,1,1v1h1c0.6,0,1,0.4,1,1v1h1c0.6,0,1,0.4,1,1H9C9,10.4,9.4,10,10,10z M9.2,22.7l5.3,5.3H9.8L9.2,22.7z M17.4,28
	l-8.5-8.5l-0.6-5.8l13.9,13.9l0,0.3H17.4z"/>
</svg>
