<svg version="1.1" id="Layer_1" xmlns="http://www.w3.org/2000/svg" xmlns:xlink="http://www.w3.org/1999/xlink" x="0px" y="0px"
	 width="32px" height="32px" viewBox="0 0 32 32" enable-background="new 0 0 32 32" xml:space="preserve">
<polygon points="14,26 18,23 14,20 "/>
<path d="M24,6H8v12h16V6z M22,16H10V8h12V16z"/>
<path d="M7,30h18c1.7,0,3-1.3,3-3V5c0-1.7-1.3-3-3-3H7C5.3,2,4,3.3,4,5v22C4,28.7,5.3,30,7,30z M6,5c0-0.6,0.4-1,1-1
	h18c0.6,0,1,0.4,1,1v22c0,0.6-0.4,1-1,1H7c-0.6,0-1-0.4-1-1V5z"/>
</svg>
