<svg version="1.1" id="Layer_1" xmlns="http://www.w3.org/2000/svg" xmlns:xlink="http://www.w3.org/1999/xlink" x="0px" y="0px"
	 width="32px" height="32px" viewBox="0 0 32 32" enable-background="new 0 0 32 32" xml:space="preserve">
<path d="M24,18c-2.2,0-4,1.8-4,4s1.8,4,4,4s4-1.8,4-4V4V3V2H10v1v1v18.6C9.4,22.2,8.7,22,8,22c-2.2,0-4,1.8-4,4
	s1.8,4,4,4s4-1.8,4-4V4h14v14.6C25.4,18.2,24.7,18,24,18z M8,28c-1.1,0-2-0.9-2-2s0.9-2,2-2s2,0.9,2,2S9.1,28,8,28z M24,24
	c-1.1,0-2-0.9-2-2s0.9-2,2-2s2,0.9,2,2S25.1,24,24,24z"/>
</svg>
