<svg version="1.1" id="Layer_1" xmlns="http://www.w3.org/2000/svg" xmlns:xlink="http://www.w3.org/1999/xlink" x="0px" y="0px"
	 width="32px" height="32px" viewBox="0 0 32 32" enable-background="new 0 0 32 32" xml:space="preserve">
<path d="M7,8h4V6H7H5v2v6.2C4.7,14.1,4.4,14,4,14c-1.7,0-3,1.3-3,3s1.3,3,3,3s3-1.3,3-3V8z M4,18c-0.6,0-1-0.4-1-1
	s0.4-1,1-1s1,0.4,1,1S4.6,18,4,18z"/>
<path d="M29,14.2c-0.3-0.1-0.6-0.2-1-0.2c-1.7,0-3,1.3-3,3s1.3,3,3,3s3-1.3,3-3V6h-2V14.2z M28,18c-0.6,0-1-0.4-1-1
	s0.4-1,1-1s1,0.4,1,1S28.6,18,28,18z"/>
<path d="M13,10h-2v2v8.2c-0.3-0.1-0.6-0.2-1-0.2c-1.7,0-3,1.3-3,3s1.3,3,3,3s3-1.3,3-3V12h8v8.2
	c-0.3-0.1-0.6-0.2-1-0.2c-1.7,0-3,1.3-3,3s1.3,3,3,3s3-1.3,3-3V12v-2h-2H13z M10,24c-0.6,0-1-0.4-1-1s0.4-1,1-1s1,0.4,1,1
	S10.6,24,10,24z M20,24c-0.6,0-1-0.4-1-1s0.4-1,1-1s1,0.4,1,1S20.6,24,20,24z"/>
</svg>
