<svg version="1.1" id="Layer_1" xmlns="http://www.w3.org/2000/svg" xmlns:xlink="http://www.w3.org/1999/xlink" x="0px" y="0px"
	 width="32px" height="32px" viewBox="0 0 32 32" enable-background="new 0 0 32 32" xml:space="preserve">
<path d="M6.1,25.9l1.4-1.4c-4.7-4.7-4.7-12.3,0-17L6.1,6.1C0.6,11.6,0.6,20.4,6.1,25.9z"/>
<path d="M25.9,6.1l-1.4,1.4c4.7,4.7,4.7,12.3,0,17l1.4,1.4C31.4,20.4,31.4,11.6,25.9,6.1z"/>
<path d="M9.6,9.6c-3.5,3.5-3.5,9.2,0,12.7l1.4-1.4c-2.7-2.7-2.7-7.2,0-9.9L9.6,9.6z"/>
<path d="M22.4,22.4c3.5-3.5,3.5-9.2,0-12.7L20.9,11c2.7,2.7,2.7,7.2,0,9.9L22.4,22.4z"/>
<path d="M17,29v-9.1c1.7-0.4,3-2,3-3.9c0-2.2-1.8-4-4-4s-4,1.8-4,4c0,1.9,1.3,3.4,3,3.9V29H17z M14,16
	c0-1.1,0.9-2,2-2s2,0.9,2,2s-0.9,2-2,2S14,17.1,14,16z"/>
</svg>
