<svg version="1.1" id="Layer_1" xmlns="http://www.w3.org/2000/svg" xmlns:xlink="http://www.w3.org/1999/xlink" x="0px" y="0px"
	 width="32px" height="32px" viewBox="0 0 32 32" enable-background="new 0 0 32 32" xml:space="preserve">
<path d="M7.5,24.5c-4.7-4.7-4.7-12.3,0-17L6.1,6.1c-5.5,5.5-5.5,14.3,0,19.8L7.5,24.5z"/>
<path d="M25.9,6.1l-1.4,1.4c4.7,4.7,4.7,12.3,0,17l1.4,1.4C31.4,20.4,31.4,11.6,25.9,6.1z"/>
<path d="M9.6,9.6c-3.5,3.5-3.5,9.2,0,12.7l1.4-1.4c-2.7-2.7-2.7-7.2,0-9.9L9.6,9.6z"/>
<path d="M22.4,22.4c3.5-3.5,3.5-9.2,0-12.7L20.9,11c2.7,2.7,2.7,7.2,0,9.9L22.4,22.4z"/>
<path d="M16,12c-2.2,0-4,1.8-4,4s1.8,4,4,4s4-1.8,4-4S18.2,12,16,12z M16,18c-1.1,0-2-0.9-2-2s0.9-2,2-2s2,0.9,2,2
	S17.1,18,16,18z"/>
</svg>
