<svg version="1.1" id="Layer_1" xmlns="http://www.w3.org/2000/svg" xmlns:xlink="http://www.w3.org/1999/xlink" x="0px" y="0px"
	 width="32px" height="32px" viewBox="0 0 32 32" enable-background="new 0 0 32 32" xml:space="preserve">
<path d="M27.3,8.7l1.4-1.4C25.3,3.9,20.8,2,16,2S6.7,3.9,3.3,7.3l1.4,1.4c3-3,7-4.7,11.3-4.7S24.3,5.7,27.3,8.7z"/>
<path d="M16,9c2.9,0,5.7,1.1,7.7,3.2l1.4-1.4C22.7,8.3,19.5,7,16,7s-6.7,1.4-9.2,3.8l1.4,1.4C10.3,10.1,13.1,9,16,9z
	"/>
<path d="M21.6,14.3C20.1,12.8,18.1,12,16,12s-4.1,0.8-5.6,2.3l1.4,1.4c1.1-1.1,2.6-1.8,4.2-1.8s3.1,0.6,4.2,1.8
	L21.6,14.3z"/>
<path d="M16,17c-2.2,0-4,1.8-4,4c0,1.9,1.3,3.4,3,3.9V30h2v-5.1c1.7-0.4,3-2,3-3.9C20,18.8,18.2,17,16,17z M16,23
	c-1.1,0-2-0.9-2-2s0.9-2,2-2s2,0.9,2,2S17.1,23,16,23z"/>
</svg>
