<svg version="1.1" id="Layer_1" xmlns="http://www.w3.org/2000/svg" xmlns:xlink="http://www.w3.org/1999/xlink" x="0px" y="0px"
	 width="32px" height="32px" viewBox="0 0 32 32" enable-background="new 0 0 32 32" xml:space="preserve">
<path d="M7.5,24.3c-4.7-4.7-4.7-12.3,0-17L6.1,5.9c-5.5,5.5-5.5,14.3,0,19.8L7.5,24.3z"/>
<path d="M25.9,5.9l-1.4,1.4c4.7,4.7,4.7,12.3,0,17l1.4,1.4C31.4,20.2,31.4,11.4,25.9,5.9z"/>
<path d="M9.6,9.4c-3.5,3.5-3.5,9.2,0,12.7l1.4-1.4c-2.7-2.7-2.7-7.2,0-9.9L9.6,9.4z"/>
<path d="M22.4,9.4l-1.4,1.4c2.7,2.7,2.7,7.2,0,9.9l1.4,1.4C25.9,18.7,25.9,13,22.4,9.4z"/>
<path d="M13.2,13c-0.8,0.8-1.2,1.8-1.2,2.8c0,1.1,0.4,2.1,1.2,2.8l1.4-1.4c-0.4-0.4-0.6-0.9-0.6-1.4
	c0-0.5,0.2-1,0.6-1.4L13.2,13z"/>
<path d="M18.8,18.6c0.8-0.8,1.2-1.8,1.2-2.8c0-1.1-0.4-2.1-1.2-2.8l-1.4,1.4c0.4,0.4,0.6,0.9,0.6,1.4
	c0,0.5-0.2,1-0.6,1.4L18.8,18.6z"/>
</svg>
