<svg version="1.1" id="Layer_1" xmlns="http://www.w3.org/2000/svg" xmlns:xlink="http://www.w3.org/1999/xlink" x="0px" y="0px"
	 width="32px" height="32px" viewBox="0 0 32 32" enable-background="new 0 0 32 32" xml:space="preserve">
<path d="M16,5.8l2.6,2.6L19.2,9H20h3v3v0.8l0.6,0.6l2.6,2.6l-2.6,2.6L23,19.2V20v3h-3h-0.8l-0.6,0.6L16,26.2
	l-2.6-2.6L12.8,23H12H9v-3v-0.8l-0.6-0.6L5.8,16l2.6-2.6L9,12.8V12V9h3h0.8l0.6-0.6L16,5.8 M16,3l-4,4H7v5l-4,4l4,4v5h5l4,4l4-4h5
	v-5l4-4l-4-4V7h-5L16,3L16,3z"/>
</svg>
