<svg version="1.1" id="Layer_1" xmlns="http://www.w3.org/2000/svg" xmlns:xlink="http://www.w3.org/1999/xlink" x="0px" y="0px"
	 width="32px" height="32px" viewBox="0 0 32 32" enable-background="new 0 0 32 32" xml:space="preserve">
<path d="M6,4v2H2v19c0,1.7,1.3,3,3,3h22c1.7,0,3-1.3,3-3V4H6z M6,25c0,0.6-0.4,1-1,1s-1-0.4-1-1V8h2V25z M28,25
	c0,0.6-0.4,1-1,1H7.8C7.9,25.7,8,25.4,8,25V6h20V25z"/>
<rect x="10" y="9" width="16" height="2"/>
<path d="M16,23h10V13H16V23z M18,15h6v6h-6V15z"/>
<rect x="10" y="13" width="4" height="2"/>
<rect x="10" y="17" width="4" height="2"/>
<rect x="10" y="21" width="4" height="2"/>
</svg>
