<svg version="1.1" id="Layer_1" xmlns="http://www.w3.org/2000/svg" xmlns:xlink="http://www.w3.org/1999/xlink" x="0px" y="0px"
	 width="32px" height="32px" viewBox="0 0 32 32" enable-background="new 0 0 32 32" xml:space="preserve">
<path d="M6,12v11H4v2h7c0,2.8,2.2,5,5,5s5-2.2,5-5h3.6l2.7,2.7l1.4-1.4L26,23.6V12c0-5.5-4.5-10-10-10
	c-3.2,0-6,1.5-7.8,3.8L4.7,2.3L3.3,3.7l3.8,3.8C6.4,8.9,6,10.4,6,12z M16,28c-1.7,0-3-1.3-3-3h6C19,26.7,17.7,28,16,28z M8,23V12
	c0-1.1,0.2-2.1,0.6-3l14,14H8z M16,4c4.4,0,8,3.6,8,8v9.6L9.6,7.2C11.1,5.3,13.4,4,16,4z"/>
</svg>
