<svg version="1.1" id="Layer_1" xmlns="http://www.w3.org/2000/svg" xmlns:xlink="http://www.w3.org/1999/xlink" x="0px" y="0px"
	 width="32px" height="32px" viewBox="0 0 32 32" enable-background="new 0 0 32 32" xml:space="preserve">
<path d="M24.9,2.9L6.7,21C5.2,21.2,4,22.4,4,24c0,0.6-0.4,1-1,1H2v1c0,2.2,1.8,4,4,4c2.7,0,4.8-2.1,5-4.7L29.1,7.1
	c1.2-1.2,1.2-3.1,0-4.2C28,1.7,26,1.7,24.9,2.9z M11.9,21.5L10.4,23c-0.3-0.6-0.8-1.1-1.4-1.4l1.5-1.5
	C11.2,20.3,11.7,20.8,11.9,21.5z M6,28c-0.8,0-1.5-0.5-1.8-1.2C5.2,26.3,6,25.2,6,24c0-0.6,0.4-1,1-1c1.1,0,2,0.9,2,2
	C9,26.7,7.7,28,6,28z M27.7,5.7L13.4,20c-0.3-0.6-0.8-1.1-1.4-1.4L26.3,4.3c0.4-0.4,1-0.4,1.4,0C28.1,4.7,28.1,5.3,27.7,5.7z"/>
</svg>
