<svg version="1.1" id="Layer_1" xmlns="http://www.w3.org/2000/svg" xmlns:xlink="http://www.w3.org/1999/xlink" x="0px" y="0px"
	 width="32px" height="32px" viewBox="0 0 32 32" enable-background="new 0 0 32 32" xml:space="preserve">
<path d="M26,4.6l-0.7,0.7C22.8,7.7,19.5,9,16,9S9.2,7.7,6.7,5.3L6,4.6L5.3,5.3c-5.7,5.9-5.7,15.5,0,21.4L6,27.4
	l0.7-0.7C9.2,24.3,12.5,23,16,23s6.8,1.3,9.3,3.7l0.7,0.7l0.7-0.7c5.7-5.9,5.7-15.5,0-21.4L26,4.6z M6.1,24.6C2,19.7,2,12.3,6.1,7.4
	c1.2,1,2.5,1.8,3.9,2.4v12.4C8.6,22.8,7.3,23.6,6.1,24.6z M12,21.5v-11c1.3,0.3,2.6,0.5,4,0.5s2.7-0.2,4-0.5v11
	c-1.3-0.3-2.6-0.5-4-0.5S13.3,21.2,12,21.5z M25.9,24.6c-1.2-1-2.5-1.8-3.9-2.4V9.8c1.4-0.6,2.7-1.4,3.9-2.4
	C30,12.3,30,19.7,25.9,24.6z"/>
</svg>
