<svg version="1.1" id="Layer_1" xmlns="http://www.w3.org/2000/svg" xmlns:xlink="http://www.w3.org/1999/xlink" x="0px" y="0px"
	 width="32px" height="32px" viewBox="0 0 32 32" enable-background="new 0 0 32 32" xml:space="preserve">
<path d="M22.1,29L22.1,29c-2.1,0-4.1-0.8-5.6-2.3L5.3,15.4c-3-3-3-8.1,0-11.2C6,3.5,7,3,8,3s2,0.5,2.8,1.3l2.5,2.5
	c1,1.2,1,3.1,0,4.3c-0.4,0.5-0.4,1.2,0,1.7l5.9,5.9c0.4,0.3,1.3,0.3,1.7,0c1.2-0.9,3.1-0.9,4.3,0l0.1,0.1l2.5,2.5
	C28.5,22,29,23,29,24c0,1-0.5,2-1.4,2.8C26.2,28.2,24.2,29,22.1,29z M8,5C7.6,5,7.1,5.2,6.8,5.6C4.4,8,4.4,11.8,6.7,14L18,25.3
	c1.1,1.1,2.6,1.7,4.2,1.7c1.6,0,3-0.6,4.2-1.7c0.5-0.4,0.7-0.8,0.7-1.3c0-0.4-0.2-0.9-0.6-1.2l-2.5-2.5c-0.4-0.3-1.3-0.3-1.7,0
	c-1.2,0.9-3.1,0.9-4.3,0l-0.1-0.1l-6.1-6.1c-1-1.2-1-3.1,0-4.3c0.4-0.5,0.4-1.2,0-1.7L9.3,5.7C8.9,5.2,8.4,5,8,5z"/>
</svg>
