<svg version="1.1" id="Layer_1" xmlns="http://www.w3.org/2000/svg" xmlns:xlink="http://www.w3.org/1999/xlink" x="0px" y="0px"
	 width="32px" height="32px" viewBox="0 0 32 32" enable-background="new 0 0 32 32" xml:space="preserve">
<path d="M4,24H7c2.2,0,4-1.8,4-4c0-1.1,0.9-2,2-2h6c1.1,0,2,0.9,2,2c0,2.2,1.8,4,4,4h3c2.2,0,4-1.8,4-4
	c0-5.5-4.5-10-10-10H10C4.5,10,0,14.5,0,20C0,22.2,1.8,24,4,24z M10,12h12c4.4,0,8,3.6,8,8c0,1.1-0.9,2-2,2h-3c-1.1,0-2-0.9-2-2
	c0-2.2-1.8-4-4-4h-6c-2.2,0-4,1.8-4,4c0,1.1-0.9,2-2,2H4c-1.1,0-2-0.9-2-2C2,15.6,5.6,12,10,12z"/>
</svg>
