<svg version="1.1" id="Layer_1" xmlns="http://www.w3.org/2000/svg" xmlns:xlink="http://www.w3.org/1999/xlink" x="0px" y="0px"
	 width="32px" height="32px" viewBox="0 0 32 32" enable-background="new 0 0 32 32" xml:space="preserve">
<path d="M29.7,21.4l-3.1-3.1c-1.5-1.5-4.1-1.5-5.7,0c-0.8,0.8-2.1,0.7-2.8,0l-4.8-5C13,13,12.8,12.5,12.8,12
	c0-0.5,0.2-1,0.6-1.4c1.6-1.6,1.6-4.1,0-5.7l-2.7-2.6C9.8,1.6,8.8,1.1,7.8,1.1c-1.1,0-2.1,0.4-2.8,1.2C1,6.2,1,12.6,4.9,16.5
	l10.6,10.6C17.4,29,20,30,22.6,30c2.7,0,5.2-1,7.1-2.9C31.3,25.5,31.3,23,29.7,21.4z M28.3,25.7c-1.5,1.5-3.5,2.3-5.6,2.3
	c-2.1,0-4.2-0.8-5.7-2.4L6.3,15c-3.1-3.1-3.1-8.2,0-11.3c0.4-0.4,0.9-0.6,1.4-0.6c0.5,0,1,0.2,1.4,0.6l2.7,2.6c0.8,0.8,0.8,2,0,2.8
	c-0.8,0.8-1.2,1.8-1.2,2.8c0,1.1,0.4,2.1,1.2,2.8l4.8,5c0.8,0.8,1.8,1.2,2.8,1.2c1.1,0,2.1-0.4,2.8-1.2c0.8-0.8,2.1-0.8,2.8,0
	l3.1,3.1C29.1,23.6,29.1,24.9,28.3,25.7z"/>
</svg>
