<svg version="1.1" id="Layer_1" xmlns="http://www.w3.org/2000/svg" xmlns:xlink="http://www.w3.org/1999/xlink" x="0px" y="0px"
	 width="32px" height="32px" viewBox="0 0 32 32" enable-background="new 0 0 32 32" xml:space="preserve">
<path fill="none" stroke="#010101" stroke-width="2" stroke-miterlimit="10" d="M5.6,16.6l9.9,9.9c3.5,3.5,9.2,3.5,12.7,0
	c1.2-1.2,1.2-3.1,0-4.2l-2.5-2.5c-1.2-1.2-3.1-1.2-4.2,0c-1.2,1.2-3.1,1.2-4.2,0l-4.9-4.9c-1.2-1.2-1.2-3.1,0-4.2s1.2-3.1,0-4.2
	L9.9,3.9c-1.2-1.2-3.1-1.2-4.2,0C2.1,7.4,2.1,13.1,5.6,16.6z"/>
</svg>
