<svg version="1.1" id="Layer_1" xmlns="http://www.w3.org/2000/svg" xmlns:xlink="http://www.w3.org/1999/xlink" x="0px" y="0px"
	 width="32px" height="32px" viewBox="0 0 32 32" enable-background="new 0 0 32 32" xml:space="preserve">
<path fill="none" stroke="#010101" stroke-width="2" stroke-miterlimit="10" d="M28,23c-1-1-2-2-3-3c-0.6-0.6-1.2-1-2-1
	c-0.8,0-1.5,0.4-2,1c-0.5,0.6-1.2,1-2,1c-0.8,0-1.4-0.4-2-1c-1-1-4-4-5-5c-0.6-0.6-1-1.2-1-2s0.4-1.5,1-2c0.6-0.5,1-1.2,1-2
	s-0.4-1.4-1-2c-1-1-2-2-3-3C8.4,3.4,7.8,3,7,3C6.2,3,5.6,3.4,5,4L4,5C3.4,5.6,3,6.2,3,7c0,5.5,3,10,7,14c0,0,0,0,1,1c4,4,8.5,7,14,7
	c0.8,0,1.4-0.4,2-1l1-1c0.6-0.6,1-1.2,1-2S28.6,23.6,28,23z"/>
</svg>
