<svg version="1.1" id="Layer_1" xmlns="http://www.w3.org/2000/svg" xmlns:xlink="http://www.w3.org/1999/xlink" x="0px" y="0px"
	 width="32px" height="32px" viewBox="0 0 32 32" enable-background="new 0 0 32 32" xml:space="preserve">
<path d="M24,10H8c-4.4,0-8,3.6-8,8c0,2.2,1.8,4,4,4h4c1.7,0,3-1.3,3-3c0-0.6,0.4-1,1-1h8c0.6,0,1,0.4,1,1
	c0,1.7,1.3,3,3,3h4c2.2,0,4-1.8,4-4C32,13.6,28.4,10,24,10z M28,20h-4c-0.6,0-1-0.4-1-1c0-1.7-1.3-3-3-3h-8c-1.7,0-3,1.3-3,3
	c0,0.6-0.4,1-1,1H4c-1.1,0-2-0.9-2-2c0-3.3,2.7-6,6-6h16c3.3,0,6,2.7,6,6C30,19.1,29.1,20,28,20z"/>
</svg>
