<svg version="1.1" id="Layer_1" xmlns="http://www.w3.org/2000/svg" xmlns:xlink="http://www.w3.org/1999/xlink" x="0px" y="0px"
	 width="32px" height="32px" viewBox="0 0 32 32" enable-background="new 0 0 32 32" xml:space="preserve">
<path d="M4,3v1v24v1v1h22h1h1V4V3V2H4V3z M6,4h20v24H6V4z"/>
<path d="M22,6H10H9H8v10v8h1h1h12h1h1v-6V6h-1H22z M22,8v8l-1-1l-2,2l-6-6l-3,3V8H22z M22,22H10v-5.2l0.9-0.9
	l2.1-2.1l4.6,4.6l1.4,1.4l1.4-1.4l0.6-0.6l0.6,0.6l0.4,0.4V22z"/>
<circle cx="18.5" cy="11.5" r="1.5"/>
<path d="M4,3v1v24v1v1h22h1h1V4V3V2H4V3z M6,4h20v24H6V4z"/>
<path d="M22,6H10H9H8v10v8h1h1h12h1h1v-6V6h-1H22z M22,8v8l-1-1l-2,2l-6-6l-3,3V8H22z M22,22H10v-5.2l0.9-0.9
	l2.1-2.1l4.6,4.6l1.4,1.4l1.4-1.4l0.6-0.6l0.6,0.6l0.4,0.4V22z"/>
<circle cx="18.5" cy="11.5" r="1.5"/>
</svg>
