<svg version="1.1" id="Layer_1" xmlns="http://www.w3.org/2000/svg" xmlns:xlink="http://www.w3.org/1999/xlink" x="0px" y="0px"
	 width="32px" height="32px" viewBox="0 0 32 32" enable-background="new 0 0 32 32" xml:space="preserve">
<path d="M23.5,19h2c0.3,0,0.5-0.2,0.5-0.5c0-0.3-0.2-0.5-0.5-0.5c0-0.6-0.4-1-1-1s-1,0.4-1,1c-0.3,0-0.5,0.2-0.5,0.5
	C23,18.8,23.2,19,23.5,19z"/>
<circle cx="13" cy="8" r="1"/>
<path d="M18,13V6V5V4H0v1v1v6v5v1v1h14v7v1v1h18v-1v-1V15v-1v-1H18z M2,6h14v7h-1l-2-2l-2,2L5,7l-3,3V6z M2,17v-4.2
	l3-3l4.6,4.6l1.4,1.4l1.4-1.4l0.6-0.6l1,1V15v2H2z M30,22l-1-3v-1h-1v1l-1,3h-1l-2,2h-1c0,0.6,0.4,1,1,1s1-0.4,1-1c0,0.6,0.4,1,1,1
	s1-0.4,1-1c0,0.6,0.4,1,1,1s1-0.4,1-1c0,0.6,0.4,1,1,1v1H16v-1c0.6,0,1-0.4,1-1h-1v-5v-2v-2h14V22z"/>
<path d="M23,23h-2h-2h-2v1c0,0.6,0.4,1,1,1s1-0.4,1-1c0,0.6,0.4,1,1,1s1-0.4,1-1c0,0.6,0.4,1,1,1s1-0.4,1-1h-1L23,23
	z"/>
<polygon points="21,16 19.5,19 18,22 21,22 "/>
<path d="M28.5,17c-0.3,0-0.5,0.2-0.5,0.5h1C29,17.2,28.8,17,28.5,17z"/>
</svg>
