<svg version="1.1" id="Layer_1" xmlns="http://www.w3.org/2000/svg" xmlns:xlink="http://www.w3.org/1999/xlink" x="0px" y="0px"
	 width="32px" height="32px" viewBox="0 0 32 32" enable-background="new 0 0 32 32" xml:space="preserve">
<path d="M4.2,27.8C4.9,28.6,5.9,29,7,29s2.1-0.4,2.8-1.2l1-1c1.6,0.8,3.3,1.2,5.2,1.2c6.6,0,12-5.4,12-12
	c0-1.8-0.4-3.6-1.2-5.2l1-1c1.6-1.6,1.6-4.1,0-5.7c-1.6-1.6-4.1-1.6-5.7,0l-1,1C19.6,4.4,17.8,4,16,4C9.4,4,4,9.4,4,16
	c0,1.8,0.4,3.6,1.2,5.2l-1,1C2.6,23.7,2.6,26.3,4.2,27.8z M26,16c0,5.5-4.5,10-10,10c-1.3,0-2.5-0.3-3.6-0.7l12.9-12.9
	C25.7,13.5,26,14.7,26,16z M23.6,5.6c0.8-0.8,2.1-0.8,2.8,0C26.8,6,27,6.5,27,7s-0.2,1-0.6,1.4l-0.6,0.6C25,8,24,7,22.9,6.2
	L23.6,5.6z M16,6c3.5,0,6.5,1.8,8.3,4.5L10.5,24.3C7.8,22.5,6,19.5,6,16C6,10.5,10.5,6,16,6z M5.6,23.6l0.6-0.6C7,24,8,25,9.1,25.8
	l-0.6,0.6c-0.8,0.8-2.1,0.8-2.8,0C4.8,25.6,4.8,24.4,5.6,23.6z"/>
</svg>
