<svg version="1.1" id="Layer_1" xmlns="http://www.w3.org/2000/svg" xmlns:xlink="http://www.w3.org/1999/xlink" x="0px" y="0px"
	 width="32px" height="32px" viewBox="0 0 32 32" enable-background="new 0 0 32 32" xml:space="preserve">
<path d="M27.2,11.6C25.4,7.2,21.1,4,16,4c-5.1,0-9.4,3.2-11.2,7.6C0.9,13,0,14.7,0,16c0,1.9,1.9,3.4,4.9,4.4
	C6.6,24.9,10.9,28,16,28s9.4-3.1,11.1-7.6c2.9-1,4.9-2.5,4.9-4.4C32,14.7,31.1,13,27.2,11.6z M16,6c5.5,0,10,4.5,10,10
	c0,1-0.1,1.9-0.4,2.8C23.2,19.5,19.9,20,16,20s-7.2-0.5-9.6-1.2C6.1,17.9,6,17,6,16C6,10.5,10.5,6,16,6z M2,16c0-0.5,0.6-1.2,2.2-2
	C4.1,14.7,4,15.3,4,16c0,0.7,0.1,1.3,0.2,2C2.8,17.3,2,16.6,2,16z M16,26c-3.6,0-6.8-2-8.6-4.9C10,21.7,13,22,16,22s6-0.3,8.6-0.9
	C22.8,24,19.6,26,16,26z M27.8,18c0.1-0.6,0.2-1.3,0.2-2c0-0.7-0.1-1.3-0.2-2c1.6,0.7,2.2,1.5,2.2,2C30,16.6,29.2,17.3,27.8,18z"/>
<circle cx="3" cy="6" r="1"/>
<circle cx="29" cy="27" r="1"/>
<circle cx="28.5" cy="7.5" r="0.5"/>
<circle cx="1.5" cy="25.5" r="1.5"/>
</svg>
