<svg version="1.1" id="Layer_1" xmlns="http://www.w3.org/2000/svg" xmlns:xlink="http://www.w3.org/1999/xlink" x="0px" y="0px"
	 width="32px" height="32px" viewBox="0 0 32 32" enable-background="new 0 0 32 32" xml:space="preserve">
<path d="M26,2c-1.9,0-3.4,1.3-3.9,3H4v16l7,7h16V9.9c1.7-0.4,3-2,3-3.9C30,3.8,28.2,2,26,2z M26,8c-1.1,0-2-0.9-2-2
	s0.9-2,2-2s2,0.9,2,2S27.1,8,26,8z M6.8,21H11v4.2L6.8,21z M13,26v-7H6V7h16.1c0.1,0.4,0.2,0.7,0.4,1l-7.3,7.3c-0.4,0.4-0.4,1,0,1.4
	c0.2,0.2,0.5,0.3,0.7,0.3c0.3,0,0.5-0.1,0.7-0.3L24,9.4c0.3,0.2,0.7,0.3,1,0.4V26H13z"/>
</svg>
