<svg version="1.1" id="Layer_1" xmlns="http://www.w3.org/2000/svg" xmlns:xlink="http://www.w3.org/1999/xlink" x="0px" y="0px"
	 width="32px" height="32px" viewBox="0 0 32 32" enable-background="new 0 0 32 32" xml:space="preserve">
<path d="M1,5v22h30V5H1z M29,25H3V7h26V25z"/>
<path d="M5,23h2c0-2.2,1.8-4,4-4s4,1.8,4,4h2c0-2.2-1.2-4.1-2.9-5.1C15.3,17,16,15.6,16,14c0-2.8-2.2-5-5-5
	s-5,2.2-5,5c0,1.6,0.7,3,1.9,3.9C6.2,18.9,5,20.8,5,23z M8,14c0-1.7,1.3-3,3-3s3,1.3,3,3s-1.3,3-3,3S8,15.7,8,14z"/>
<rect x="19" y="9" width="8" height="2"/>
<rect x="19" y="21" width="8" height="2"/>
<rect x="19" y="15" width="8" height="2"/>
</svg>
