<svg width="17" height="15" viewBox="0 0 17 15" version="1.1" xmlns="http://www.w3.org/2000/svg" xmlns:xlink="http://www.w3.org/1999/xlink">
<title>PublicIPAddresses</title>
<desc>Created using Figma</desc>
<g id="Canvas" transform="translate(2401 -4440)">
<g id="PublicIPAddresses">
<g id="Group" fill="currentColor">
<g id="Vector">
<path transform="translate(-2401 4440)" d="M 16.9 0L 16.9 14.6L 0 14.6L 0 0L 16.9 0ZM 1.1 1.1L 1.1 2.2L 15.7 2.2L 15.7 1.1L 1.1 1.1ZM 15.8 13.5L 15.8 3.4L 1.1 3.4L 1.1 13.5L 15.8 13.5Z"/>
</g>
<g id="Vector">
<path transform="translate(-2396.5 4449)" d="M 1.1 0L 0 0L 0 1.1L 1.1 1.1L 1.1 0Z"/>
</g>
<g id="Vector">
<path transform="translate(-2393.1 4449)" d="M 1.1 0L 0 0L 0 1.1L 1.1 1.1L 1.1 0Z"/>
</g>
<g id="Vector">
<path transform="translate(-2389.7 4449)" d="M 1.1 0L 0 0L 0 1.1L 1.1 1.1L 1.1 0Z"/>
</g>
</g>
</g>
</g>
</svg>
