<svg version="1.1" id="Layer_1" xmlns="http://www.w3.org/2000/svg" xmlns:xlink="http://www.w3.org/1999/xlink" x="0px" y="0px"
	 width="32px" height="32px" viewBox="0 0 32 32" enable-background="new 0 0 32 32" xml:space="preserve">
<path d="M7,27h23V5H8V3H7C4.2,3,2,5.2,2,8v14C2,24.8,4.2,27,7,27z M4,8c0-1.3,0.8-2.4,2-2.8v11.9
	c-0.7,0.2-1.4,0.5-2,0.9V8z M7,19h1V7h20v18H7c-1.7,0-3-1.3-3-3S5.3,19,7,19z"/>
<circle cx="7" cy="22" r="1"/>
<polygon points="22,13.5 23,12.4 24,13.5 25.5,12 24.4,11 25.5,10 24,8.5 23,9.6 22,8.5 20.5,10 21.6,11 20.5,12 "/>
<path d="M26,19.5c0-1.9-1.6-3.5-3.5-3.5H14c-1.1,0-2-0.9-2-2s0.9-2,2-2h5v-2h-5c-2.2,0-4,1.8-4,4s1.8,4,4,4h8.5
	c0.8,0,1.5,0.7,1.5,1.5S23.3,21,22.5,21H9v2h13.5C24.4,23,26,21.4,26,19.5z"/>
</svg>
