<svg version="1.1" id="Layer_1" xmlns="http://www.w3.org/2000/svg" xmlns:xlink="http://www.w3.org/1999/xlink" x="0px" y="0px"
	 width="32px" height="32px" viewBox="0 0 32 32" enable-background="new 0 0 32 32" xml:space="preserve">
<path d="M7,28h23V6H8V4H7C4.2,4,2,6.2,2,9v14C2,25.8,4.2,28,7,28z M4,9c0-1.3,0.8-2.4,2-2.8v11.9
	c-0.7,0.2-1.4,0.5-2,0.9V9z M7,20h1V8h20v18H7c-1.7,0-3-1.3-3-3S5.3,20,7,20z"/>
<polygon points="12,15 13,13.9 14,15 15.5,13.5 14.4,12.5 15.5,11.5 14,10 13,11.1 12,10 10.5,11.5 11.6,12.5 
	10.5,13.5 "/>
<path d="M14,20v-4h-2v4c0,2.2,1.8,4,4,4s4-1.8,4-4v-5.5c0-0.8,0.7-1.5,1.5-1.5s1.5,0.7,1.5,1.5v5.8
	c-0.6,0.3-1,1-1,1.7c0,1.1,0.9,2,2,2s2-0.9,2-2c0-0.7-0.4-1.4-1-1.7v-5.8c0-1.9-1.6-3.5-3.5-3.5S18,12.6,18,14.5V20c0,1.1-0.9,2-2,2
	S14,21.1,14,20z"/>
</svg>
