<svg version="1.1" id="Layer_1" xmlns="http://www.w3.org/2000/svg" xmlns:xlink="http://www.w3.org/1999/xlink" x="0px" y="0px"
	 width="32px" height="32px" viewBox="0 0 32 32" enable-background="new 0 0 32 32" xml:space="preserve">
<path d="M16,1C7.7,1,1,7.7,1,16s6.7,15,15,15s15-6.7,15-15S24.3,1,16,1z M28.9,15H17v1c0,0.6-0.4,1-1,1s-1-0.4-1-1
	s0.4-1,1-1h1V3.1C23.4,3.5,28.5,8.6,28.9,15z M16,19c1.3,0,2.4-0.8,2.8-2h4.1c-0.5,3.4-3.4,6-6.9,6c-3.9,0-7-3.1-7-7
	c0-3.5,2.6-6.4,6-6.9v4.1c-1.2,0.4-2,1.5-2,2.8C13,17.7,14.3,19,16,19z M16,29C8.8,29,3,23.2,3,16C3,9.2,8.3,3.6,15,3.1v4
	c-4.5,0.5-8,4.3-8,8.9c0,5,4,9,9,9c4.6,0,8.4-3.5,8.9-8h4C28.4,23.7,22.8,29,16,29z"/>
<circle cx="22" cy="10" r="1"/>
</svg>
