<svg version="1.1" id="Layer_1" xmlns="http://www.w3.org/2000/svg" xmlns:xlink="http://www.w3.org/1999/xlink" x="0px" y="0px"
	 width="32px" height="32px" viewBox="0 0 32 32" enable-background="new 0 0 32 32" xml:space="preserve">
<path d="M30,6H6V4.9L28.1,3l-0.2-2L4,3.1V6H2v22h28V6z M28,8v2H4V8H28z M4,26V12h24v14H4z"/>
<path d="M21,14c-2.8,0-5,2.2-5,5s2.2,5,5,5s5-2.2,5-5S23.8,14,21,14z M21,22c-1.7,0-3-1.3-3-3s1.3-3,3-3s3,1.3,3,3
	S22.7,22,21,22z"/>
<circle cx="13" cy="22" r="1"/>
<circle cx="13" cy="16" r="1"/>
<polygon points="9,15 7,15 7,17 6,17 6,19 7,19 7,23 9,23 9,19 10,19 10,17 9,17 "/>
</svg>
