<svg version="1.1" id="Layer_1" xmlns="http://www.w3.org/2000/svg" xmlns:xlink="http://www.w3.org/1999/xlink" x="0px" y="0px"
	 width="32px" height="32px" viewBox="0 0 32 32" enable-background="new 0 0 32 32" xml:space="preserve">
<path d="M3,29h2C5,15.8,15.8,5,29,5V3C14.7,3,3,14.7,3,29z"/>
<path d="M8,29h2c0-10.5,8.5-19,19-19V8C17.4,8,8,17.4,8,29z"/>
<path d="M13,29h2c0-7.7,6.3-14,14-14v-2C20.2,13,13,20.2,13,29z"/>
<path d="M18,29h2c0-5,4-9,9-9v-2C22.9,18,18,22.9,18,29z"/>
<path d="M23,29h2c0-2.2,1.8-4,4-4v-2C25.7,23,23,25.7,23,29z"/>
</svg>
