<svg width="17" height="15" viewBox="0 0 17 15" version="1.1" xmlns="http://www.w3.org/2000/svg" xmlns:xlink="http://www.w3.org/1999/xlink">
<title>Group</title>
<desc>Created using Figma</desc>
<g id="Canvas" transform="translate(2481 -4705)">
<g id="Group">
<g id="Group" fill="currentColor">
<g id="Vector">
<path transform="translate(-2478.75 4705)" d="M 6.19 0L 0 3.57L 0 10.71L 6.19 14.28L 12.38 10.71L 12.38 3.57L 6.19 0ZM 10.69 3.9L 6.19 6.5L 1.69 3.9L 6.19 1.3L 10.69 3.9ZM 1.13 4.87L 5.63 7.47L 5.63 12.67L 1.13 10.07L 1.13 4.87ZM 6.75 12.67L 6.75 7.47L 11.25 4.87L 11.25 10.07L 6.75 12.67Z"/>
</g>
<g id="Vector">
<path transform="translate(-2481 4705.28)" d="M 3.1 13.64L 0.28 12.01C 0.11 11.91 0 11.72 0 11.52L 0 2.12C 0 1.92 0.11 1.73 0.28 1.63L 3.1 1.19209e-09L 3.66 0.97L 1.13 2.45L 1.13 11.2L 3.67 12.67L 3.1 13.64Z"/>
</g>
<g id="Vector">
<path transform="translate(-2467.78 4705.29)" d="M 0.56 13.63L 2.67029e-07 12.66L 2.54 11.19L 2.54 2.44L 2.67029e-07 0.97L 0.56 -8.34465e-09L 3.38 1.63C 3.55 1.73 3.66 1.92 3.66 2.12L 3.66 11.52C 3.66 11.72 3.55 11.91 3.38 12.01L 0.56 13.63Z"/>
</g>
</g>
</g>
</g>
</svg>
