<svg version="1.1" id="Layer_1" xmlns="http://www.w3.org/2000/svg" xmlns:xlink="http://www.w3.org/1999/xlink" x="0px" y="0px"
	 width="32px" height="32px" viewBox="0 0 32 32" enable-background="new 0 0 32 32" xml:space="preserve">
<path d="M6.8,30.2l5-2l1.8,1.8H21V19.4l1.6-1.6C27.4,13.8,30,8.6,30,3V2h-1c-5.6,0-10.8,2.6-14.7,7.3L12.6,11H2v7.4
	l1.8,1.8l-2,5L6.8,30.2z M4.2,24.8l1.2-3l4.9,4.9l-3,1.2L4.2,24.8z M19,28h-4.6l-1-1l5.6-5.6V28z M24.9,12.5l-5.3-5.3
	C22.1,5.3,25,4.2,28,4C27.8,7,26.7,9.9,24.9,12.5z M15.8,10.6c0.7-0.8,1.4-1.6,2.2-2.3l5.6,5.6c-0.7,0.8-1.5,1.6-2.3,2.3L12,25.6
	L6.4,20L15.8,10.6z M4,13h6.6L5,18.6l-1-1V13z"/>
<circle cx="17" cy="15" r="2"/>
</svg>
