<svg version="1.1" id="Layer_1" xmlns="http://www.w3.org/2000/svg" xmlns:xlink="http://www.w3.org/1999/xlink" x="0px" y="0px"
	 width="32px" height="32px" viewBox="0 0 32 32" enable-background="new 0 0 32 32" xml:space="preserve">
<path d="M9,12H5.8C7.4,7.8,11.4,5,16,5c6.1,0,11,4.9,11,11s-4.9,11-11,11S5,22.1,5,16H3c0,7.2,5.8,13,13,13
	s13-5.8,13-13S23.2,3,16,3C10.7,3,6,6.2,4,11.1V7H2v7h7V12z"/>
<path d="M20,16c0-2.2-1.8-4-4-4s-4,1.8-4,4s1.8,4,4,4S20,18.2,20,16z M14,16c0-1.1,0.9-2,2-2s2,0.9,2,2s-0.9,2-2,2
	S14,17.1,14,16z"/>
</svg>
