<svg version="1.1" id="Layer_1" xmlns="http://www.w3.org/2000/svg" xmlns:xlink="http://www.w3.org/1999/xlink" x="0px" y="0px"
	 width="32px" height="32px" viewBox="0 0 32 32" enable-background="new 0 0 32 32" xml:space="preserve">
<path d="M15,29c7.2,0,13-5.8,13-13h-2c0,6.1-4.9,11-11,11S4,22.1,4,16S8.9,5,15,5c4.6,0,8.6,2.8,10.2,7H22v2h7V7h-2
	v4.1C25,6.2,20.3,3,15,3C7.8,3,2,8.8,2,16S7.8,29,15,29z"/>
<path d="M11,16c0,2.2,1.8,4,4,4s4-1.8,4-4s-1.8-4-4-4S11,13.8,11,16z M17,16c0,1.1-0.9,2-2,2s-2-0.9-2-2s0.9-2,2-2
	S17,14.9,17,16z"/>
</svg>
