<svg version="1.1" id="Layer_1" xmlns="http://www.w3.org/2000/svg" xmlns:xlink="http://www.w3.org/1999/xlink" x="0px" y="0px"
	 width="32px" height="32px" viewBox="0 0 32 32" enable-background="new 0 0 32 32" xml:space="preserve">
<path d="M26.9,20c-0.2-0.9-0.5-1.8-1-2.5l0.8-0.8l-1.4-1.4l-0.8,0.8c-0.7-0.5-1.6-0.9-2.5-1V14h-2v1.1
	c-0.9,0.2-1.8,0.5-2.5,1l-0.8-0.8l-1.4,1.4l0.8,0.8c-0.5,0.7-0.9,1.6-1,2.5H14v2h1.1c0.2,0.9,0.5,1.8,1,2.5l-0.8,0.8l1.4,1.4
	l0.8-0.8c0.7,0.5,1.6,0.9,2.5,1V28h2v-1.1c0.9-0.2,1.8-0.5,2.5-1l0.8,0.8l1.4-1.4l-0.8-0.8c0.5-0.7,0.9-1.6,1-2.5H28v-2H26.9z
	 M21,25c-2.2,0-4-1.8-4-4c0-2.2,1.8-4,4-4c2.2,0,4,1.8,4,4C25,23.2,23.2,25,21,25z"/>
<path d="M16.1,7.8c-0.5-0.8-1.1-1.4-1.9-1.9l0.4-1l-1.8-0.8l-0.4,1C11.5,5,10.6,5,9.7,5.2l-0.4-1L7.4,4.9l0.4,1
	C7,6.4,6.4,7.1,5.9,7.8l-1-0.4L4.2,9.2l1,0.4c-0.2,0.9-0.2,1.8,0,2.7l-1,0.4l0.8,1.8l1-0.4c0.5,0.8,1.1,1.4,1.9,1.9l-0.4,1l1.8,0.8
	l0.4-1c0.9,0.2,1.8,0.2,2.7,0l0.4,1l1.8-0.8l-0.4-1c0.8-0.5,1.4-1.1,1.9-1.9l1,0.4l0.8-1.8l-1-0.4c0.2-0.9,0.2-1.8,0-2.7l1-0.4
	l-0.8-1.8L16.1,7.8z M12.5,14.7c-2,0.8-4.4-0.1-5.2-2.2c-0.8-2,0.1-4.4,2.2-5.2s4.4,0.1,5.2,2.2C15.5,11.5,14.6,13.9,12.5,14.7z"/>
<rect x="3" y="3" fill="none" width="26" height="26"/>
</svg>
