<svg version="1.1" id="Layer_1" xmlns="http://www.w3.org/2000/svg" xmlns:xlink="http://www.w3.org/1999/xlink" x="0px" y="0px"
	 width="32px" height="32px" viewBox="0 0 32 32" enable-background="new 0 0 32 32" xml:space="preserve">
<path d="M3,23c0,2.2,1.8,4,4,4c0.6,0,1.2-0.2,1.8-0.4c2.1,1.6,4.6,2.4,7.2,2.4s5.1-0.9,7.2-2.4
	c0.5,0.3,1.1,0.4,1.8,0.4c2.2,0,4-1.8,4-4c0-1.2-0.5-2.3-1.4-3c0.3-1,0.4-2,0.4-3c0-5.1-3.3-9.6-8-11.3C19.8,3.6,18.1,2,16,2
	s-3.8,1.6-4,3.7C7.3,7.4,4,11.9,4,17c0,1,0.1,2,0.4,3C3.5,20.7,3,21.8,3,23z M5,23c0-1.1,0.9-2,2-2s2,0.9,2,2s-0.9,2-2,2
	S5,24.1,5,23z M25,25c-1.1,0-2-0.9-2-2s0.9-2,2-2s2,0.9,2,2S26.1,25,25,25z M16,4c1.1,0,2,0.9,2,2s-0.9,2-2,2s-2-0.9-2-2
	S14.9,4,16,4z M6,17c0-4.1,2.6-7.8,6.4-9.3C13,9,14.4,10,16,10s3-1,3.6-2.3C23.4,9.2,26,12.9,26,17c0,0.7-0.1,1.4-0.2,2.1
	C25.5,19,25.3,19,25,19c-2.2,0-4,1.8-4,4c0,0.8,0.2,1.6,0.7,2.2C20,26.4,18,27,16,27s-4-0.6-5.7-1.8c0.4-0.6,0.7-1.4,0.7-2.2
	c0-2.2-1.8-4-4-4c-0.3,0-0.5,0-0.8,0.1C6.1,18.4,6,17.7,6,17z"/>
</svg>
