<svg version="1.1" id="Layer_1" xmlns="http://www.w3.org/2000/svg" xmlns:xlink="http://www.w3.org/1999/xlink" x="0px" y="0px"
	 width="32px" height="32px" viewBox="0 0 32 32" enable-background="new 0 0 32 32" xml:space="preserve">
<path d="M26,12c2.2,0,4-1.8,4-4s-1.8-4-4-4c-2,0-3.6,1.4-3.9,3.3L8.4,12.8C7.7,12.3,6.9,12,6,12c-2.2,0-4,1.8-4,4
	s1.8,4,4,4c0.9,0,1.7-0.3,2.4-0.8l13.7,5.5c0.3,1.9,2,3.3,3.9,3.3c2.2,0,4-1.8,4-4s-1.8-4-4-4c-1.7,0-3.2,1.1-3.7,2.6l-12.6-5
	c0.2-0.5,0.3-1,0.3-1.6c0-0.6-0.1-1.1-0.3-1.6l12.6-5C22.8,10.9,24.3,12,26,12z M26,6c1.1,0,2,0.9,2,2s-0.9,2-2,2s-2-0.9-2-2
	S24.9,6,26,6z M6,18c-1.1,0-2-0.9-2-2s0.9-2,2-2s2,0.9,2,2S7.1,18,6,18z M26,22c1.1,0,2,0.9,2,2s-0.9,2-2,2s-2-0.9-2-2
	S24.9,22,26,22z"/>
</svg>
