<svg version="1.1" id="Layer_1" xmlns="http://www.w3.org/2000/svg" xmlns:xlink="http://www.w3.org/1999/xlink" x="0px" y="0px"
	 width="32px" height="32px" viewBox="0 0 32 32" enable-background="new 0 0 32 32" xml:space="preserve">
<path d="M23.3,21l-0.2,2H9c-1.7,0-3,1.3-3,3s1.3,3,3,3s3-1.3,3-3c0-0.4-0.1-0.7-0.2-1h8.4c-0.1,0.3-0.2,0.6-0.2,1
	c0,1.7,1.3,3,3,3s3-1.3,3-3c0-0.9-0.4-1.6-1-2.2L26.9,7H30V5h-4.9l-0.4,4H3l2,12H23.3z M10,26c0,0.6-0.4,1-1,1s-1-0.4-1-1s0.4-1,1-1
	S10,25.4,10,26z M23,27c-0.6,0-1-0.4-1-1s0.4-1,1-1s1,0.4,1,1S23.6,27,23,27z M24.4,11l-0.9,8H6.7l-1.3-8H24.4z"/>
</svg>
