<svg version="1.1" id="Layer_1" xmlns="http://www.w3.org/2000/svg" xmlns:xlink="http://www.w3.org/1999/xlink" x="0px" y="0px"
	 width="32px" height="32px" viewBox="0 0 32 32" enable-background="new 0 0 32 32" xml:space="preserve">
<path d="M29,5V3h-3.9l-0.4,4H3l2,14h18.3l-0.2,2H8c-1.7,0-3,1.3-3,3s1.3,3,3,3c1.7,0,3-1.3,3-3c0-0.4-0.1-0.7-0.2-1
	h10.4c-0.1,0.3-0.2,0.6-0.2,1c0,1.7,1.3,3,3,3c1.7,0,3-1.3,3-3c0-1.3-0.8-2.4-1.9-2.8L26.9,5H29z M6.7,19L5.3,9h19.2l-1,10H6.7z
	 M9,26c0,0.6-0.4,1-1,1c-0.6,0-1-0.4-1-1s0.4-1,1-1C8.6,25,9,25.4,9,26z M24,27c-0.6,0-1-0.4-1-1s0.4-1,1-1c0.6,0,1,0.4,1,1
	S24.6,27,24,27z"/>
</svg>
