<svg version="1.1" id="Layer_1" xmlns="http://www.w3.org/2000/svg" xmlns:xlink="http://www.w3.org/1999/xlink" x="0px" y="0px"
	 width="32px" height="32px" viewBox="0 0 32 32" enable-background="new 0 0 32 32" xml:space="preserve">
<path d="M25.3,5.7L27.6,8c-5.4,0.1-10.5,2.7-14.4,7.4C9.7,19.6,5,22,0,22v2c5.6,0,10.8-2.6,14.8-7.4
	c3.4-4.2,8-6.5,12.8-6.6l-2.3,2.3l1.4,1.4L31.4,9l-4.7-4.7L25.3,5.7z"/>
<path d="M11.7,14.1c0.3-0.4,0.6-0.7,0.9-1C9,9.8,4.6,8,0,8v2c4.1,0,8,1.6,11.2,4.6C11.4,14.4,11.5,14.3,11.7,14.1z"
	/>
<path d="M25.3,19.7l2.3,2.3c-3.9-0.1-7.7-1.7-10.8-4.6c-0.1,0.2-0.3,0.3-0.4,0.5c-0.3,0.4-0.6,0.7-0.9,1
	c3.5,3.2,7.7,4.9,12.2,5l-2.3,2.3l1.4,1.4l4.7-4.7l-4.7-4.7L25.3,19.7z"/>
</svg>
