<svg version="1.1" id="Layer_1" xmlns="http://www.w3.org/2000/svg" xmlns:xlink="http://www.w3.org/1999/xlink" x="0px" y="0px"
	 width="32px" height="32px" viewBox="0 0 32 32" enable-background="new 0 0 32 32" xml:space="preserve">
<path d="M16.3,29c6.1,0,11.2-4.1,12.7-9.7c-1.1,0.3-2.3,0.5-3.6,0.5c-7.3,0-13.3-5.9-13.3-13.3
	c0-1.2,0.2-2.4,0.5-3.6C7.1,4.6,3,9.7,3,15.7C3,23.1,8.9,29,16.3,29z M10.2,6.3c0,0.1,0,0.2,0,0.3c0,8.4,6.8,15.3,15.3,15.3
	c0.1,0,0.2,0,0.3,0c-2,3.2-5.6,5.2-9.5,5.2C10,27,5,22,5,15.7C5,11.9,7,8.3,10.2,6.3z"/>
<path d="M25,4c-0.1,0-0.2,0-0.3,0C23.9,3.4,23,3,22,3c-1.5,0-2.9,0.9-3.6,2.2C17,5.6,16,6.9,16,8.5
	c0,1.9,1.6,3.5,3.5,3.5H25c2.2,0,4-1.8,4-4S27.2,4,25,4z M25,10h-5.5C18.7,10,18,9.3,18,8.5S18.7,7,19.5,7c0.2,0,0.3,0,0.5,0.1
	c0,0,0-0.1,0-0.1c0-1.1,0.9-2,2-2c0.9,0,1.6,0.6,1.9,1.3C24.2,6.1,24.6,6,25,6c1.1,0,2,0.9,2,2S26.1,10,25,10z"/>
</svg>
