<svg version="1.1" id="Layer_1" xmlns="http://www.w3.org/2000/svg" xmlns:xlink="http://www.w3.org/1999/xlink" x="0px" y="0px"
	 width="32px" height="32px" viewBox="0 0 32 32" enable-background="new 0 0 32 32" xml:space="preserve">
<path d="M21.1,8.8c-2.7-2.4-7.4-2.4-10.1,0l1.3,1.5c1.9-1.7,5.6-1.7,7.5,0L21.1,8.8z"/>
<path d="M24.4,5C19.8,1,12.2,1,7.6,5L9,6.5c3.8-3.4,10.3-3.4,14.1,0L24.4,5z"/>
<polygon points="4,9 4,11 4,27 4,29 6,29 26,29 28,29 28,27 28,11 28,9 26,9 23,9 23,11 26,11 26,27 6,27 6,11 9,11 
	9,9 6,9 "/>
<rect x="15" y="23" width="2" height="2"/>
<path d="M13.9,12.9l1.4,1.4c0.4-0.4,1-0.4,1.4,0l1.4-1.4C17,11.7,15,11.7,13.9,12.9z"/>
</svg>
