<svg version="1.1" id="Layer_1" xmlns="http://www.w3.org/2000/svg" xmlns:xlink="http://www.w3.org/1999/xlink" x="0px" y="0px"
	 width="32px" height="32px" viewBox="0 0 32 32" enable-background="new 0 0 32 32" xml:space="preserve">
<path d="M6,12H3v8h3l7,7h2V5h-2L6,12z M13,24.2l-5.6-5.6L6.8,18H6H5v-4h1h0.8l0.6-0.6L13,7.8V24.2z"/>
<path d="M17.7,12.3c1.7,1.9,1.7,5.6,0,7.5l1.5,1.3c2.4-2.7,2.4-7.4,0-10.1L17.7,12.3z"/>
<path d="M23,7.6L21.5,9c3.4,3.8,3.4,10.3,0,14.1l1.5,1.3C27,19.8,27,12.2,23,7.6z"/>
<path d="M25.2,5.7c5,5.7,5,15,0,20.7l1.5,1.3c5.6-6.4,5.6-16.9,0-23.3L25.2,5.7z"/>
</svg>
