<svg version="1.1" id="Layer_1" xmlns="http://www.w3.org/2000/svg" xmlns:xlink="http://www.w3.org/1999/xlink" x="0px" y="0px"
	 width="32px" height="32px" viewBox="0 0 32 32" enable-background="new 0 0 32 32" xml:space="preserve">
<path d="M29,13c0-0.5,0-0.9-0.1-1.4c0,0,0,0,0,0l0,0c-0.3-2.1-1.3-4.1-2.8-5.6c-1.5-1.5-3.5-2.5-5.6-2.8l0,0
	c0,0,0,0,0,0C19.9,3,19.5,3,19,3c-2.7,0-5.2,1-7.1,2.9c-1.2,1.2-2,2.7-2.5,4.3C8.6,10.1,7.8,10,7,10c-2.2,0-4,1.8-4,4
	c0,8.3,6.7,15,15,15c2.2,0,4-1.8,4-4c0-0.8-0.1-1.6-0.2-2.4c1.6-0.5,3.1-1.3,4.3-2.5C28,18.2,29,15.7,29,13z M26.7,10.7
	c-1.1,0.5-2.5,0.4-3.4-0.6l-1.4,1.4c1,1,2.3,1.5,3.5,1.5c0.5,0,1.1-0.1,1.6-0.3c0.1,1.8-0.5,3.6-1.7,5.1L20.4,13l4.9-4.9
	C25.9,8.9,26.4,9.8,26.7,10.7z M19.2,5c-0.6,1.7-0.2,3.8,1.2,5.2l1.4-1.4c-0.9-0.9-1.1-2.3-0.6-3.4c0.9,0.3,1.8,0.7,2.6,1.4L19,11.6
	l-4.9-4.9C15.6,5.5,17.4,5,19.2,5z M12.7,8.1l4.9,4.9l-0.7,0.7c-1.6-1.4-3.4-2.4-5.5-3.1C11.7,9.7,12.1,8.9,12.7,8.1z M18,27
	c-7.2,0-13-5.8-13-13c0-1.1,0.9-2,2-2c7.2,0,13,5.8,13,13C20,26.1,19.1,27,18,27z M18.3,15.1l0.7-0.7l4.9,4.9
	c-0.8,0.6-1.6,1-2.6,1.3C20.7,18.6,19.7,16.7,18.3,15.1z"/>
<rect x="9" y="18.5" transform="matrix(-0.7071 -0.7071 0.7071 -0.7071 7.5503 42.1274)" width="7.1" height="2"/>
</svg>
