<svg version="1.1" id="Layer_1" xmlns="http://www.w3.org/2000/svg" xmlns:xlink="http://www.w3.org/1999/xlink" x="0px" y="0px"
	 width="32px" height="32px" viewBox="0 0 32 32" enable-background="new 0 0 32 32" xml:space="preserve">
<path d="M16,31c8.3,0,15-6.7,15-15S24.3,1,16,1S1,7.7,1,16S7.7,31,16,31z M16,3c7.2,0,13,5.8,13,13s-5.8,13-13,13
	S3,23.2,3,16S8.8,3,16,3z"/>
<path d="M21,17c-2.2,0-4,1.8-4,4v3.9v2c0.7-0.1,1.4-0.2,2-0.4c3.7-1,6.5-3.9,7.6-7.6c0.2-0.6,0.3-1.3,0.4-2h-2H21z
	 M19,24.5V21c0-1.1,0.9-2,2-2h3.5C23.6,21.5,21.5,23.6,19,24.5z"/>
<path d="M13,26.6c0.6,0.2,1.3,0.3,2,0.4v-2V21c0-2.2-1.8-4-4-4H7.1h-2c0.1,0.7,0.2,1.4,0.4,2
	C6.5,22.7,9.3,25.5,13,26.6z M11,19c1.1,0,2,0.9,2,2v3.5c-2.5-0.9-4.6-2.9-5.5-5.5H11z"/>
<path d="M24.9,15h2c-0.1-0.7-0.2-1.4-0.4-2C25.3,8.4,21,5,16,5S6.7,8.4,5.4,13c-0.2,0.6-0.3,1.3-0.4,2h2H24.9z M16,7
	c3.9,0,7.2,2.5,8.5,6H7.5C8.8,9.5,12.1,7,16,7z"/>
</svg>
