<svg version="1.1" id="Layer_1" xmlns="http://www.w3.org/2000/svg" xmlns:xlink="http://www.w3.org/1999/xlink" x="0px" y="0px"
	 width="32px" height="32px" viewBox="0 0 32 32" enable-background="new 0 0 32 32" xml:space="preserve">
<path d="M16,30c7.2,0,13-5.8,13-13c0-3.2-1.2-6.2-3.1-8.4l1.8-1.8l-1.4-1.4l-1.8,1.8c-2-1.7-4.6-2.9-7.4-3.1V2h2V0
	h-6v2h2v2.1c-2.8,0.2-5.4,1.3-7.4,3.1L5.7,5.3L4.3,6.7l1.8,1.8C4.2,10.8,3,13.8,3,17C3,24.2,8.8,30,16,30z M16,6c6.1,0,11,4.9,11,11
	s-4.9,11-11,11S5,23.1,5,17S9.9,6,16,6z"/>
<polygon points="21.7,21.2 17,16.6 17,10 15,10 15,17.4 20.2,22.7 "/>
</svg>
