<svg version="1.1" id="Layer_1" xmlns="http://www.w3.org/2000/svg" xmlns:xlink="http://www.w3.org/1999/xlink" x="0px" y="0px"
	 width="32px" height="32px" viewBox="0 0 32 32" enable-background="new 0 0 32 32" xml:space="preserve">
<path d="M4,30h1h1h20h1h1V14.6c0.6-0.7,1-1.6,1-2.6V8h-8V2h-1h-1h-6h-1h-1v6H3v4c0,1,0.4,1.9,1,2.6V30z M10,20h5v8
	h-5V20z M22,20v8h-5v-8H22z M24,28v-8v-1v-1H10H9H8v10H6V15.9C6.3,15.9,6.7,16,7,16c1.2,0,2.3-0.5,3-1.4c0.7,0.8,1.8,1.4,3,1.4
	s2.3-0.5,3-1.4c0.7,0.8,1.8,1.4,3,1.4s2.3-0.5,3-1.4c0.7,0.8,1.8,1.4,3,1.4c0.3,0,0.7-0.1,1-0.1V28H24z M11,10h4v2c0,1.1-0.9,2-2,2
	s-2-0.9-2-2V10z M17,10h4v2c0,1.1-0.9,2-2,2s-2-0.9-2-2V10z M27,12c0,1.1-0.9,2-2,2s-2-0.9-2-2v-2h4V12z M13,4h6v4h-6V4z M5,10h4v2
	c0,1.1-0.9,2-2,2s-2-0.9-2-2V10z"/>
</svg>
