<svg version="1.1" id="Layer_1" xmlns="http://www.w3.org/2000/svg" xmlns:xlink="http://www.w3.org/1999/xlink" x="0px" y="0px"
	 width="32px" height="32px" viewBox="0 0 32 32" enable-background="new 0 0 32 32" xml:space="preserve">
<path d="M25,10c-3.9,0-7,3.1-7,7c0,2,0.8,3.7,2.1,5h-8.2c1.3-1.3,2.1-3,2.1-5c0-3.9-3.1-7-7-7s-7,3.1-7,7s3.1,7,7,7
	h18c3.9,0,7-3.1,7-7S28.9,10,25,10z M2,17c0-2.8,2.2-5,5-5s5,2.2,5,5s-2.2,5-5,5S2,19.8,2,17z M25,22c-2.8,0-5-2.2-5-5s2.2-5,5-5
	s5,2.2,5,5S27.8,22,25,22z"/>
</svg>
