<svg version="1.1" id="Layer_1" xmlns="http://www.w3.org/2000/svg" xmlns:xlink="http://www.w3.org/1999/xlink" x="0px" y="0px"
	 width="32px" height="32px" viewBox="0 0 32 32" enable-background="new 0 0 32 32" xml:space="preserve">
<path d="M16,30c7.7,0,14-6.3,14-14S23.7,2,16,2S2,8.3,2,16S8.3,30,16,30z M16,4c6.6,0,12,5.4,12,12s-5.4,12-12,12
	S4,22.6,4,16S9.4,4,16,4z"/>
<path d="M16,25c5,0,9-4,9-9s-4-9-9-9s-9,4-9,9S11,25,16,25z M16,9c3.9,0,7,3.1,7,7s-3.1,7-7,7s-7-3.1-7-7
	S12.1,9,16,9z"/>
<path d="M16,20c2.2,0,4-1.8,4-4s-1.8-4-4-4s-4,1.8-4,4S13.8,20,16,20z M16,14c1.1,0,2,0.9,2,2s-0.9,2-2,2s-2-0.9-2-2
	S14.9,14,16,14z"/>
</svg>
