<svg version="1.1" id="Layer_1" xmlns="http://www.w3.org/2000/svg" xmlns:xlink="http://www.w3.org/1999/xlink" x="0px" y="0px"
	 width="32px" height="32px" viewBox="0 0 32 32" enable-background="new 0 0 32 32" xml:space="preserve">
<path d="M16,30c7.7,0,14-6.3,14-14c0-2.5-0.7-4.9-1.9-7.1L31,6h-5V1l-2.9,2.9C20.9,2.7,18.5,2,16,2C8.3,2,2,8.3,2,16
	S8.3,30,16,30z M26,8h0.2l-2,2H22V7.8l2-2V6v2H26z M23,16c0,3.9-3.1,7-7,7s-7-3.1-7-7s3.1-7,7-7c1.5,0,2.8,0.5,4,1.3v0.3l-2,2
	c-0.6-0.4-1.3-0.6-2-0.6c-2.2,0-4,1.8-4,4s1.8,4,4,4s4-1.8,4-4c0-0.7-0.2-1.4-0.6-2l2-2h0.3C22.5,13.2,23,14.6,23,16z M18,16
	c0,1.1-0.9,2-2,2s-2-0.9-2-2s0.9-2,2-2c0.2,0,0.3,0,0.5,0.1l-1.2,1.2c-0.4,0.4-0.4,1,0,1.4c0.2,0.2,0.5,0.3,0.7,0.3
	c0.3,0,0.5-0.1,0.7-0.3l1.2-1.2C18,15.7,18,15.8,18,16z M16,4c2,0,3.9,0.5,5.6,1.4L20,7v0.9C18.8,7.3,17.4,7,16,7c-5,0-9,4-9,9
	s4,9,9,9s9-4,9-9c0-1.4-0.3-2.8-1-4h1l1.6-1.6C27.5,12.1,28,14,28,16c0,6.6-5.4,12-12,12S4,22.6,4,16S9.4,4,16,4z"/>
</svg>
