<svg version="1.1" id="Layer_1" xmlns="http://www.w3.org/2000/svg" xmlns:xlink="http://www.w3.org/1999/xlink" x="0px" y="0px"
	 width="32px" height="32px" viewBox="0 0 32 32" enable-background="new 0 0 32 32" xml:space="preserve">
<path d="M14.4,8L13,6.6L11.6,8H6L0,26h32L26,8H14.4z M10.6,16H5.4l0.7-2h2.3L13,9.4l3.6,3.6l-3.1,3.1L12,14.6
	L10.6,16z M8.6,18l-2,2H4.1l0.7-2H8.6z M19,13.4l4.6,4.6h3.6l0.7,2H17.4l-2.5-2.5L19,13.4z M24.4,16l-2-2h3.5l0.7,2H24.4z M24.6,10
	l0.7,2h-4.8L19,10.6l-1,1L16.4,10H24.6z M9.6,10l-2,2H6.8l0.7-2H9.6z M2.8,24l0.7-2h4l4.6-4.6l4.6,4.6h12l0.7,2H2.8z"/>
</svg>
