<svg version="1.1" id="Layer_1" xmlns="http://www.w3.org/2000/svg" xmlns:xlink="http://www.w3.org/1999/xlink" x="0px" y="0px"
	 width="32px" height="32px" viewBox="0 0 32 32" enable-background="new 0 0 32 32" xml:space="preserve">
<path d="M20.4,3.2L20.4,3.2L20.4,3.2L8,5L3,17l8,12l14-2l4-12L22,3L20.4,3.2z M14,12.1l6.3,3.2L14,21.6V12.1z
	 M14.8,10.3L20.2,6l0.7,7.3L14.8,10.3z M12,21l-5.4-4l5.4-4.4V21z M13.8,24.3l5.2,1.6l-5.7,0.8L13.8,24.3z M15.7,22.8l5.5-5.5
	l0.7,7.4L15.7,22.8z M22.3,7.5l3.8,6.5h-3.2L22.3,7.5z M13.3,8.9L11,6.6l6.3-0.9L13.3,8.9z M9.1,7.5l2.7,2.7l-5.7,4.6L9.1,7.5z
	 M7.5,20.1l4.4,3.3L11.4,26L7.5,20.1z M23.8,24.2L23.1,16h3.5L23.8,24.2z"/>
</svg>
