<svg version="1.1" id="Layer_1" xmlns="http://www.w3.org/2000/svg" xmlns:xlink="http://www.w3.org/1999/xlink" x="0px" y="0px"
	 width="32px" height="32px" viewBox="0 0 32 32" enable-background="new 0 0 32 32" xml:space="preserve">
<path d="M16,9.6l-3,3V14h-3v2H7v1c0,3.3,2.7,6,6,6h10c2.8,0,5,2.2,5,5h2V12.6l-11-11l-6,6l-2-2l-9,9V17
	c0,6.1,4.9,11,11,11v0l2,0c0-1.1-0.9-2-2-2c-5,0-9-4-9-9v-1.6l7-7l2,2l6-6l9,9V15h-3v-3h-5v2h-1v-1.4L16,9.6z M22,16v-2h1v3h5v6.1
	c-1.3-1.3-3-2.1-5-2.1H13c-1.9,0-3.4-1.3-3.9-3H12v-2h3v-2.6l1-1l1,1V16H22z"/>
</svg>
