<svg version="1.1" id="Layer_1" xmlns="http://www.w3.org/2000/svg" xmlns:xlink="http://www.w3.org/1999/xlink" x="0px" y="0px"
	 width="32px" height="32px" viewBox="0 0 32 32" enable-background="new 0 0 32 32" xml:space="preserve">
<path d="M20.4,8L17,4.6l-3,3l-1-1L11.6,8H5L2,28h28L27,8H20.4z M25.3,10l0.3,2h-1.2l-2-2H25.3z M14,10.4l3-3l6.6,6.6
	h2.3l1.6,10.7c-2-0.6-3.5-2.5-3.5-4.7v-2c0-1.7-1.3-3-3-3s-3,1.3-3,3s-1.3,3-3,3s-3-1.3-3-3v-2c0-1.5-0.9-2.8-2.1-3.5L13,9.4
	L14,10.4z M9.6,10l-2,2H6.4l0.3-2H9.6z M6.1,14H8c1.1,0,2,0.9,2,2v2c0,2.8,2.2,5,5,5s5-2.2,5-5c0-0.6,0.4-1,1-1s1,0.4,1,1v2
	c0,2.5,1.4,4.8,3.4,6H4.3L6.1,14z"/>
</svg>
