<svg version="1.1" id="Layer_1" xmlns="http://www.w3.org/2000/svg" xmlns:xlink="http://www.w3.org/1999/xlink" x="0px" y="0px"
	 width="32px" height="32px" viewBox="0 0 32 32" enable-background="new 0 0 32 32" xml:space="preserve">
<path d="M23,5v2.6l-9.5,9.5L10,13.5l-1.4,1.4l1.4,1.4l-7.8,7.8C1.4,24.9,1,25.9,1,27s0.4,2.1,1.2,2.8
	C2.9,30.6,3.9,31,5,31s2.1-0.4,2.8-1.2l7.8-7.8l1.4,1.4l1.4-1.4l-3.5-3.5L24.4,9H27l4-4l-4-4L23,5z M6.4,28.4
	c-0.8,0.8-2.1,0.8-2.8,0C3.2,28,3,27.5,3,27s0.2-1,0.6-1.4l7.8-7.8l2.8,2.8L6.4,28.4z M26.2,7H25V5.8l2-2L28.2,5L26.2,7z"/>
</svg>
