<svg version="1.1" id="Layer_1" xmlns="http://www.w3.org/2000/svg" xmlns:xlink="http://www.w3.org/1999/xlink" x="0px" y="0px"
	 width="32px" height="32px" viewBox="0 0 32 32" enable-background="new 0 0 32 32" xml:space="preserve">
<path d="M10,32c1.7,0,3-1.3,3-3V18h2v-2h-4V7l2-2V0H7v5l2,2v9H5v2h2v11C7,30.7,8.3,32,10,32z M9,2h2v2.2l-1,1l-1-1V2
	z M11,29c0,0.6-0.4,1-1,1s-1-0.4-1-1V18h2V29z"/>
<path d="M21,32c1.7,0,3-1.3,3-3V11.2c1.8-1.1,3-3,3-5.2c0-3.3-2.7-6-6-6s-6,2.7-6,6c0,2.2,1.2,4.1,3,5.2V29
	C18,30.7,19.3,32,21,32z M17,6c0-1.9,1.3-3.4,3-3.9V5c0,0.6,0.4,1,1,1s1-0.4,1-1V2.1c1.7,0.4,3,2,3,3.9c0,1.6-0.9,3-2.4,3.7L22,9.9
	V29c0,0.6-0.4,1-1,1s-1-0.4-1-1V9.9l-0.6-0.3C17.9,9,17,7.6,17,6z"/>
</svg>
