<svg width="19" height="18" viewBox="0 0 19 18" version="1.1" xmlns="http://www.w3.org/2000/svg" xmlns:xlink="http://www.w3.org/1999/xlink">
<title>TrafficManagerProfiles</title>
<desc>Created using Figma</desc>
<g id="Canvas" transform="translate(2375 -4424)">
<g id="TrafficManagerProfiles">
<g id="Group" fill="currentColor">
<g id="Vector">
<path transform="translate(-2375 4424)" d="M 12.3 1.1L 16.9 5.7L 16.9 12.2L 12.3 16.8L 5.7 16.8L 1.1 12.2L 1.1 5.7L 5.7 1.1L 12.3 1.1L 12.3 1.1ZM 12.7 0L 5.3 0L 0 5.3L 0 12.8L 5.3 18L 12.8 18L 18.1 12.7L 18.1 5.3L 12.7 0Z"/>
</g>
<g id="Vector">
<path transform="translate(-2372.6 4427.6)" d="M 0.8 -9.53674e-08L 5.5 4.6L 5.5 0.9L 6.6 0.9L 6.6 6.5L 1 6.5L 1 5.4L 4.7 5.4L 9.53674e-08 0.7L 0.8 -9.53674e-08Z"/>
</g>
<g id="Vector">
<path transform="translate(-2368.2 4435.3)" d="M 5.7 6.5L 1.1 1.9L 1.1 4.5L 1.90735e-07 4.5L 1.90735e-07 1.90735e-07L 4.5 1.90735e-07L 4.5 1.1L 1.9 1.1L 6.5 5.7L 5.7 6.5Z"/>
</g>
<g id="Vector">
<path transform="translate(-2364.9 4428.5)" d="M 6.9 7.7L 1.2 1.9L 1.2 4.5L 3.8147e-07 4.5L 3.8147e-07 0L 4.5 0L 4.5 1.1L 1.9 1.1L 7.7 6.9L 6.9 7.7Z"/>
</g>
</g>
</g>
</g>
</svg>
