<svg width="18" height="11" viewBox="0 0 18 11" version="1.1" xmlns="http://www.w3.org/2000/svg" xmlns:xlink="http://www.w3.org/1999/xlink">
<title>VirtualNetwork</title>
<desc>Created using Figma</desc>
<g id="Canvas" transform="translate(2371 -4478)">
<g id="VirtualNetwork">
<g id="Group" fill="currentColor">
<g id="Vector">
<path transform="translate(-2366.5 4482.4)" d="M 1.1 2.2C 0.9 2.2 0.8 2.2 0.7 2.1C 0.6 2 0.4 2 0.3 1.9C 0.2 1.8 0.0999999 1.6 0.0999999 1.5C -9.68575e-08 1.4 0 1.2 0 1.1C 0 0.9 -9.68575e-08 0.8 0.0999999 0.7C 0.2 0.6 0.2 0.4 0.3 0.3C 0.4 0.2 0.5 0.1 0.7 0.1C 0.8 0 1 9.53674e-08 1.1 9.53674e-08C 1.2 9.53674e-08 1.4 0 1.5 0.1C 1.6 0.2 1.8 0.2 1.9 0.3C 2 0.4 2.1 0.5 2.2 0.6C 2.3 0.7 2.3 0.9 2.3 1C 2.3 1.2 2.3 1.3 2.2 1.4C 2.1 1.6 2 1.8 1.9 1.9C 1.8 2 1.7 2 1.6 2.1C 1.4 2.2 1.3 2.2 1.1 2.2Z"/>
</g>
<g id="Vector">
<path transform="translate(-2363.1 4482.3)" d="M 1.1 2.3C 0.9 2.3 0.8 2.3 0.7 2.2C 0.5 2.1 0.4 2.1 0.3 2C 0.2 1.9 0.1 1.7 0.1 1.6C 0 1.5 9.53674e-08 1.3 9.53674e-08 1.2C 9.53674e-08 1 0 0.9 0.1 0.8C 0.1 0.6 0.2 0.5 0.3 0.4C 0.4 0.3 0.5 0.2 0.7 0.2C 0.8 0.1 0.9 1.90735e-07 1.1 1.90735e-07C 1.3 1.90735e-07 1.4 9.68575e-08 1.5 0.1C 1.6 0.2 1.8 0.2 1.9 0.3C 2 0.5 2.1 0.6 2.1 0.7C 2.2 0.8 2.2 1 2.2 1.1C 2.2 1.3 2.2 1.4 2.1 1.5C 2.1 1.7 2 1.9 1.9 2C 1.8 2.1 1.7 2.1 1.5 2.2C 1.4 2.3 1.3 2.3 1.1 2.3Z"/>
</g>
<g id="Vector">
<path transform="translate(-2359.7 4482.4)" d="M 1.1 2.2C 0.9 2.2 0.8 2.2 0.7 2.1C 0.6 2 0.4 2 0.3 1.9C 0.2 1.8 0.0999996 1.7 0.0999996 1.5C -3.7998e-07 1.4 1.90735e-07 1.2 1.90735e-07 1.1C 1.90735e-07 0.9 -3.7998e-07 0.8 0.0999996 0.7C 0.2 0.6 0.2 0.4 0.3 0.3C 0.4 0.2 0.5 0.1 0.7 0.1C 0.8 0 1 9.53674e-08 1.1 9.53674e-08C 1.2 9.53674e-08 1.4 0 1.5 0.1C 1.6 0.2 1.8 0.2 1.9 0.3C 2 0.4 2.1 0.5 2.1 0.7C 2.2 0.8 2.2 1 2.2 1.1C 2.2 1.3 2.2 1.4 2.1 1.5C 2 1.6 2 1.8 1.9 1.9C 1.8 2 1.7 2.1 1.5 2.1C 1.4 2.2 1.2 2.2 1.1 2.2Z"/>
</g>
<g id="Vector">
<path transform="translate(-2371 4478)" d="M 1.6 5.5L 6.2 0.8L 5.5 0L 0 5.5L 5.5 10.9L 6.2 10.1L 1.6 5.5Z"/>
</g>
<g id="Vector">
<path transform="translate(-2359.2 4478)" d="M 4.6 5.5L 1.90735e-07 0.8L 0.7 0L 6.2 5.5L 0.7 10.9L 1.90735e-07 10.1L 4.6 5.5Z"/>
</g>
</g>
</g>
</g>
</svg>
