<svg width="17" height="16" viewBox="0 0 17 16" version="1.1" xmlns="http://www.w3.org/2000/svg" xmlns:xlink="http://www.w3.org/1999/xlink">
<title>VirtualMachine</title>
<desc>Created using Figma</desc>
<g id="Canvas" transform="translate(2323 -4478)">
<g id="VirtualMachine">
<g id="Group">
<g id="Vector">
<path transform="translate(-2318.5 4480.2)" fill="currentColor" d="M 3.9 4.76837e-08L 0 2.3L 0 6.8L 3.9 9.1L 7.9 6.8L 7.9 2.3L 3.9 4.76837e-08ZM 6.2 2.6L 3.9 3.9L 1.7 2.6L 4 1.3L 6.2 2.6ZM 1.1 3.6L 3.4 4.9L 3.4 7.5L 1.1 6.2L 1.1 3.6ZM 4.5 7.5L 4.5 4.9L 6.8 3.6L 6.8 6.2L 4.5 7.5Z"/>
</g>
<g id="Vector">
<path transform="translate(-2323 4478)" fill="currentColor" d="M 0 13.5L 7.9 13.5L 7.9 14.6L 4.5 14.6L 4.5 15.7L 12.4 15.7L 12.4 14.6L 9 14.6L 9 13.5L 16.9 13.5L 16.9 0L 0 0L 0 13.5ZM 1.1 1.1L 15.7 1.1L 15.7 12.4L 1.1 12.4L 1.1 1.1Z"/>
</g>
</g>
</g>
</g>
</svg>
