<svg version="1.1" id="Layer_1" xmlns="http://www.w3.org/2000/svg" xmlns:xlink="http://www.w3.org/1999/xlink" x="0px" y="0px"
	 width="32px" height="32px" viewBox="0 0 32 32" enable-background="new 0 0 32 32" xml:space="preserve">
<rect x="18" y="2" width="2" height="4"/>
<rect x="9.9" y="5.9" transform="matrix(0.7071 0.7071 -0.7071 0.7071 8.3934 -6.4056)" width="4" height="2"/>
<rect x="27" y="13" width="4" height="2"/>
<rect x="25.1" y="4.9" transform="matrix(0.7071 0.7071 -0.7071 0.7071 12.5355 -16.4056)" width="2" height="4"/>
<path d="M10,28h11c3.3,0,6-2.7,6-6c0-2.1-1.1-4-2.8-5.1C24.7,16,25,15,25,14c0-3.3-2.7-6-6-6c-2.9,0-5.2,2-5.8,4.7
	c-1-0.4-2-0.7-3.2-0.7c-4.4,0-8,3.6-8,8S5.6,28,10,28z M19,10c2.2,0,4,1.8,4,4c0,0.8-0.2,1.5-0.7,2.2C21.9,16.1,21.5,16,21,16
	c-1.3,0-2.5,0.4-3.5,1.2c-0.5-1.3-1.4-2.5-2.5-3.4C15.1,11.7,16.9,10,19,10z M10,14c3,0,5.6,2.2,5.9,5.2l0.3,2.5l1.5-2.1
	c0.8-1.1,2-1.7,3.2-1.7c2.2,0,4,1.8,4,4s-1.8,4-4,4H10c-3.3,0-6-2.7-6-6S6.7,14,10,14z"/>
</svg>
