<svg version="1.1" id="Layer_1" xmlns="http://www.w3.org/2000/svg" xmlns:xlink="http://www.w3.org/1999/xlink" x="0px" y="0px"
	 width="32px" height="32px" viewBox="0 0 32 32" enable-background="new 0 0 32 32" xml:space="preserve">
<path d="M21.3,24.1c-2.9-2.8-7.7-2.8-10.6,0l1.4,1.4c2.1-2,5.7-2,7.8,0L21.3,24.1z"/>
<path d="M7.3,20.5l1.4,1.4c4.1-3.9,10.7-3.9,14.7,0l1.4-1.4C19.9,15.8,12.1,15.8,7.3,20.5z"/>
<path d="M28.2,16.9c-6.7-6.5-17.7-6.5-24.4,0l1.4,1.4c6-5.8,15.7-5.8,21.7,0L28.2,16.9z"/>
<path d="M30.3,14.7l1.4-1.4C23,4.9,9,4.9,0.3,13.3l1.4,1.4C9.6,7.1,22.4,7.1,30.3,14.7z"/>
</svg>
