<svg version="1.1" id="Layer_1" xmlns="http://www.w3.org/2000/svg" xmlns:xlink="http://www.w3.org/1999/xlink" x="0px" y="0px"
	 width="32px" height="32px" viewBox="0 0 32 32" enable-background="new 0 0 32 32" xml:space="preserve">
<path d="M3,30c0.3,0,0.5-0.1,0.7-0.3L15.4,18c1.5,1.2,3.5,2,5.6,2c5,0,9-4,9-9s-4-9-9-9s-9,4-9,9
	c0,2.1,0.7,4.1,2,5.6L2.3,28.3c-0.4,0.4-0.4,1,0,1.4C2.5,29.9,2.7,30,3,30z M21,4c3.9,0,7,3.1,7,7s-3.1,7-7,7s-7-3.1-7-7
	S17.1,4,21,4z"/>
<rect x="17" y="10" width="8" height="2"/>
</svg>
