<svg version="1.1" id="Layer_1" xmlns="http://www.w3.org/2000/svg" xmlns:xlink="http://www.w3.org/1999/xlink" x="0px" y="0px"
	 viewBox="0 0 50 50" enable-background="new 0 0 50 50" xml:space="preserve">
<path class="msportalfx-svg-c19" d="M0,27.2c0,0.7,0.5,1.2,1.2,1.2h27.6c0.7,0,1.2-0.5,1.2-1.2v-20H0V27.2z"/>
<path class="msportalfx-svg-c03" d="M28.8,2H1.2C0.5,2,0,2.5,0,3.2v4.4h30V3.2C30,2.5,29.5,2,28.8,2z"/>
<path opacity="0.1" class="msportalfx-svg-c01" d="M1.2,2C0.5,2,0,2.5,0,3.2v4.4v2v17.6c0,0.7,0.5,1.2,1.2,1.2h11.5L26.2,2H1.2z"/>
<path class="msportalfx-svg-c01" d="M5.1,14.6l-0.3-0.3c-0.1-0.1-0.1-0.2,0-0.3l0.8-0.7c0,0,0.1-0.1,0.1-0.1c0.1,0,0.1,0,0.1,0.1l2.2,2.4
	l3.9-4.9c0,0,0.1-0.1,0.2-0.1c0,0,0.1,0,0.1,0l0.9,0.7c0,0,0.1,0.1,0.1,0.1c0,0.1,0,0.1,0,0.1l-5,6.3L5.1,14.6z"/>
<path class="msportalfx-svg-c01" d="M5.1,22.4l-0.3-0.3c-0.1-0.1-0.1-0.2,0-0.3l0.8-0.7c0,0,0.1-0.1,0.1-0.1c0.1,0,0.1,0,0.1,0.1l2.2,2.4
	l3.9-4.9c0,0,0.1-0.1,0.2-0.1c0,0,0.1,0,0.1,0l0.9,0.7c0,0,0.1,0.1,0.1,0.1c0,0.1,0,0.1,0,0.1l-5,6.3L5.1,22.4z"/>
<path class="msportalfx-svg-c16" d="M10,37.2c0,0.7,0.5,1.2,1.2,1.2h27.6c0.7,0,1.2-0.5,1.2-1.2v-20H10V37.2z"/>
<path class="msportalfx-svg-c03" d="M38.8,12H11.2c-0.7,0-1.2,0.5-1.2,1.2v4.4h30v-4.4C40,12.5,39.5,12,38.8,12z"/>
<path opacity="0.1" class="msportalfx-svg-c01" d="M11.2,12c-0.7,0-1.2,0.5-1.2,1.2v4.4v2v17.6c0,0.7,0.5,1.2,1.2,1.2h11.5L36.2,12H11.2z"/>
<path class="msportalfx-svg-c01" d="M15.1,24.6l-0.3-0.3c-0.1-0.1-0.1-0.2,0-0.3l0.8-0.7c0,0,0.1-0.1,0.1-0.1c0.1,0,0.1,0,0.1,0.1l2.2,2.4
	l3.9-4.9c0,0,0.1-0.1,0.2-0.1c0,0,0.1,0,0.1,0l0.9,0.7c0,0,0.1,0.1,0.1,0.1c0,0.1,0,0.1,0,0.1l-5,6.3L15.1,24.6z"/>
<path class="msportalfx-svg-c01" d="M15.1,32.4l-0.3-0.3c-0.1-0.1-0.1-0.2,0-0.3l0.8-0.7c0,0,0.1-0.1,0.1-0.1c0.1,0,0.1,0,0.1,0.1l2.2,2.4
	l3.9-4.9c0,0,0.1-0.1,0.2-0.1c0,0,0.1,0,0.1,0l0.9,0.7c0,0,0.1,0.1,0.1,0.1c0,0.1,0,0.1,0,0.1l-5,6.3L15.1,32.4z"/>
<path class="msportalfx-svg-c15" d="M20,47.2c0,0.7,0.5,1.2,1.2,1.2h27.6c0.7,0,1.2-0.5,1.2-1.2v-20H20V47.2z"/>
<path class="msportalfx-svg-c03" d="M48.8,22H21.2c-0.7,0-1.2,0.5-1.2,1.2v4.4h30v-4.4C50,22.5,49.5,22,48.8,22z"/>
<rect x="20" y="27.6" opacity="0.15" class="msportalfx-svg-c01" width="30" height="2"/>
<path opacity="0.1" class="msportalfx-svg-c01" d="M21.2,22c-0.7,0-1.2,0.5-1.2,1.2v4.4v2v17.6c0,0.7,0.5,1.2,1.2,1.2h11.5L46.2,22H21.2z"/>
<path class="msportalfx-svg-c01" d="M25.1,34.6l-0.3-0.3c-0.1-0.1-0.1-0.2,0-0.3l0.8-0.7c0,0,0.1-0.1,0.1-0.1c0.1,0,0.1,0,0.1,0.1l2.2,2.4
	l3.9-4.9c0,0,0.1-0.1,0.2-0.1c0,0,0.1,0,0.1,0l0.9,0.7c0,0,0.1,0.1,0.1,0.1c0,0.1,0,0.1,0,0.1l-5,6.3L25.1,34.6z"/>
<rect x="33.2" y="34.5" opacity="0.6" class="msportalfx-svg-c01" width="12" height="2"/>
<path class="msportalfx-svg-c01" d="M25.1,42.4l-0.3-0.3c-0.1-0.1-0.1-0.2,0-0.3l0.8-0.7c0,0,0.1-0.1,0.1-0.1c0.1,0,0.1,0,0.1,0.1l2.2,2.4
	l3.9-4.9c0,0,0.1-0.1,0.2-0.1c0,0,0.1,0,0.1,0l0.9,0.7c0,0,0.1,0.1,0.1,0.1c0,0.1,0,0.1,0,0.1l-5,6.3L25.1,42.4z"/>
<rect x="33.2" y="42.4" opacity="0.6" class="msportalfx-svg-c01" width="12" height="2"/>
</svg>
