<svg version="1.1" id="Layer_1" xmlns="http://www.w3.org/2000/svg" xmlns:xlink="http://www.w3.org/1999/xlink" x="0px" y="0px"
	 viewBox="0 0 50 50" enable-background="new 0 0 50 50" xml:space="preserve">
<path fill="#A0A1A2" d="M34,46.5c0,1.4-1.1,2.5-2.5,2.5H6.5C5.1,49,4,47.9,4,46.5V4.5C4,3.1,5.1,2,6.5,2h24.9C32.9,2,34,3.1,34,4.5
	V46.5z"/>
<rect x="8" y="7" fill="#777777" width="6" height="7"/>
<rect x="16" y="7" fill="#777777" width="6" height="7"/>
<rect x="24" y="7" fill="#777777" width="6" height="7"/>
<rect x="8" y="18" fill="#777777" width="6" height="7"/>
<rect x="16" y="18" fill="#777777" width="6" height="7"/>
<rect x="8" y="29" fill="#777777" width="6" height="7"/>
<rect x="16" y="29" fill="#777777" width="6" height="7"/>
<path fill="#777777" d="M46,46.5c0,1.4-1.1,2.5-2.5,2.5H26.5c-1.4,0-2.5-1.1-2.5-2.5V18.5c0-1.4,1.1-2.5,2.5-2.5h16.9
	c1.4,0,2.5,1.1,2.5,2.5V46.5z"/>
<rect x="28" y="21" fill="#A0A1A2" width="6" height="7"/>
<rect x="36" y="21" fill="#A0A1A2" width="6" height="7"/>
<rect x="28" y="32" fill="#A0A1A2" width="6" height="7"/>
<rect x="36" y="32" fill="#A0A1A2" width="6" height="7"/>
</svg>
