<?xml version="1.0" encoding="utf-8"?>
<!-- Generator: Adobe Illustrator 21.1.0, SVG Export Plug-In . SVG Version: 6.00 Build 0)  -->
<svg version="1.1" id="Layer_1" xmlns="http://www.w3.org/2000/svg" xmlns:xlink="http://www.w3.org/1999/xlink" x="0px" y="0px"
	 width="24px" height="24px" viewBox="0 0 24 24" enable-background="new 0 0 24 24" xml:space="preserve">
<path fill="#4A4A4A" d="M16.969,15.625c0.419,0,0.8,0.07,1.166,0.215c0.372,0.148,0.692,0.344,0.977,0.601
	c0.281,0.253,0.518,0.56,0.704,0.913c0.185,0.35,0.305,0.736,0.358,1.147l0.112,0.873h0.88c0.258,0,0.49,0.046,0.711,0.14
	c0.23,0.098,0.424,0.226,0.592,0.391c0.166,0.162,0.294,0.35,0.391,0.575c0.094,0.217,0.14,0.448,0.14,0.707
	c0,0.256-0.045,0.484-0.137,0.697c-0.098,0.226-0.226,0.417-0.393,0.583c-0.168,0.168-0.36,0.296-0.586,0.394
	C21.667,22.955,21.439,23,21.188,23H21.11h-6.095H12.75c-0.384,0-0.733-0.07-1.068-0.213c-0.341-0.146-0.629-0.339-0.88-0.589
	c-0.25-0.25-0.443-0.538-0.59-0.88C10.069,20.984,10,20.635,10,20.25c0-0.384,0.07-0.733,0.213-1.068
	c0.146-0.341,0.339-0.629,0.589-0.88c0.25-0.25,0.538-0.443,0.88-0.59c0.334-0.143,0.683-0.212,1.068-0.212
	c0.161,0,0.327,0.016,0.494,0.048l0.663,0.126l0.365-0.567c0.149-0.232,0.326-0.444,0.523-0.631
	c0.194-0.183,0.406-0.338,0.633-0.462c0.229-0.125,0.476-0.223,0.736-0.289C16.421,15.659,16.692,15.625,16.969,15.625
	 M16.969,14.625c-0.361,0-0.713,0.044-1.055,0.132c-0.342,0.088-0.664,0.215-0.966,0.381c-0.302,0.166-0.583,0.37-0.839,0.612
	c-0.256,0.242-0.483,0.514-0.678,0.816c-0.229-0.044-0.457-0.066-0.681-0.066c-0.517,0-1.004,0.097-1.461,0.293
	c-0.457,0.196-0.854,0.462-1.194,0.802c-0.339,0.339-0.607,0.738-0.802,1.194C9.098,19.245,9,19.733,9,20.25
	s0.097,1.004,0.293,1.461c0.196,0.457,0.462,0.854,0.802,1.194c0.339,0.339,0.738,0.607,1.194,0.802
	C11.745,23.902,12.233,24,12.75,24h2.265h6.095h0.077c0.386,0,0.749-0.073,1.091-0.22c0.342-0.147,0.641-0.348,0.898-0.604
	c0.257-0.256,0.458-0.554,0.604-0.894C23.927,21.943,24,21.578,24,21.188c0-0.396-0.074-0.764-0.223-1.106
	c-0.149-0.342-0.351-0.638-0.608-0.89c-0.257-0.252-0.557-0.451-0.901-0.597s-0.712-0.219-1.103-0.219
	c-0.068-0.532-0.223-1.028-0.465-1.487c-0.242-0.459-0.548-0.856-0.919-1.19c-0.371-0.334-0.797-0.597-1.278-0.787
	C18.022,14.72,17.511,14.625,16.969,14.625L16.969,14.625z M8.195,18.972L1.42,13.376L11.5,1.542l10.08,11.834l-1.54,1.272
	c0.138,0.101,0.283,0.193,0.41,0.307c0.124,0.112,0.229,0.245,0.342,0.369L23,13.5L11.5,0L0,13.5l8.013,6.619
	C8.023,19.724,8.091,19.343,8.195,18.972z M5.5,12C4.672,12,4,12.672,4,13.5S4.672,15,5.5,15c0.337,0,0.645-0.115,0.895-0.303
	l3.124,2.083c0.26-0.242,0.55-0.447,0.861-0.627l-3.43-2.288C6.98,13.748,7,13.627,7,13.5c0-0.307-0.093-0.593-0.252-0.831L11,6.999
	v8.842c0.321-0.128,0.656-0.214,1-0.267C12,14.652,12,7,12,7l4.252,5.67C16.093,12.908,16,13.193,16,13.5
	c0,0.076,0.018,0.147,0.03,0.219c0.308-0.056,0.621-0.094,0.939-0.094c0.02,0,0.038,0.005,0.058,0.005
	C17.015,13.588,17,13.546,17,13.5c0-0.276,0.224-0.5,0.5-0.5s0.5,0.224,0.5,0.5c0,0.078-0.021,0.149-0.053,0.215
	c0.318,0.059,0.626,0.148,0.924,0.266c0.013,0.005,0.024,0.013,0.037,0.018C18.964,13.842,19,13.676,19,13.5
	c0-0.828-0.672-1.5-1.5-1.5c-0.156,0-0.303,0.03-0.444,0.074l-4.308-5.743C12.907,6.093,13,5.808,13,5.5C13,4.672,12.328,4,11.5,4
	S10,4.672,10,5.5c0,0.307,0.093,0.593,0.252,0.831l-4.307,5.744C5.803,12.031,5.656,12,5.5,12z M11.5,5C11.776,5,12,5.224,12,5.5
	S11.776,6,11.5,6S11,5.776,11,5.5S11.224,5,11.5,5z M5.5,14C5.224,14,5,13.776,5,13.5S5.224,13,5.5,13S6,13.224,6,13.5
	S5.776,14,5.5,14z"/>
</svg>
