<?xml version="1.0" encoding="utf-8"?>
<!-- Generator: Adobe Illustrator 21.1.0, SVG Export Plug-In . SVG Version: 6.00 Build 0)  -->
<svg version="1.1" id="Layer_1" xmlns="http://www.w3.org/2000/svg" xmlns:xlink="http://www.w3.org/1999/xlink" x="0px" y="0px"
	 width="24px" height="24px" viewBox="0 0 24 24" enable-background="new 0 0 24 24" xml:space="preserve">
<path fill="#4A4A4A" d="M23,18.5c0,0.287-0.037,0.576-0.109,0.867l1.07,0.438l-0.375,0.93l-1.078-0.445
	c-0.308,0.511-0.714,0.917-1.219,1.219l0.445,1.07l-0.93,0.383l-0.438-1.07C20.075,21.964,19.786,22,19.5,22
	c-0.287,0-0.576-0.036-0.867-0.109l-0.438,1.07l-0.93-0.383l0.445-1.07c-0.511-0.302-0.917-0.708-1.219-1.219l-1.078,0.445
	l-0.375-0.93l1.07-0.438C16.036,19.076,16,18.787,16,18.5c0-0.286,0.036-0.575,0.109-0.867l-1.07-0.438l0.375-0.93l1.078,0.445
	c0.302-0.505,0.708-0.911,1.219-1.219l-0.445-1.078l0.93-0.375l0.438,1.07C18.924,15.037,19.213,15,19.5,15
	c0.286,0,0.575,0.037,0.867,0.109l0.438-1.07l0.93,0.375l-0.445,1.078c0.505,0.308,0.911,0.714,1.219,1.219l1.078-0.445l0.375,0.93
	l-1.07,0.438C22.963,17.925,23,18.214,23,18.5z M19.5,21c0.344,0,0.666-0.064,0.969-0.195c0.302-0.13,0.566-0.309,0.793-0.535
	s0.406-0.492,0.539-0.797S22,18.844,22,18.5s-0.066-0.666-0.199-0.969c-0.133-0.302-0.312-0.566-0.539-0.793
	s-0.491-0.406-0.793-0.539C20.166,16.066,19.844,16,19.5,16s-0.668,0.066-0.973,0.199s-0.57,0.312-0.797,0.539
	s-0.405,0.491-0.535,0.793C17.064,17.834,17,18.156,17,18.5s0.064,0.668,0.195,0.973c0.13,0.305,0.309,0.57,0.535,0.797
	s0.492,0.405,0.797,0.535C18.832,20.936,19.156,21,19.5,21z M13.92,19.704l-2.42,1.999L1.42,13.376L11.5,1.542l9.947,11.678
	l1.271,0.513L23,13.5L11.5,0L0,13.5L11.5,23l2.813-2.323L13.92,19.704z M14.864,14.956l0.835,0.346l0.667-0.445l-0.39-0.942
	l-3.582,2.388c-0.119-0.089-0.252-0.16-0.395-0.211V7l4.252,5.67C16.093,12.908,16,13.193,16,13.5c0,0.114,0.02,0.222,0.045,0.328
	l0.968-0.39C17.044,13.193,17.246,13,17.5,13c0.119,0,0.223,0.047,0.309,0.117l0.935-0.377l0.238,0.581
	C18.892,12.578,18.266,12,17.5,12c-0.156,0-0.303,0.03-0.444,0.074l-4.308-5.743C12.907,6.093,13,5.808,13,5.5
	C13,4.672,12.328,4,11.5,4S10,4.672,10,5.5c0,0.307,0.093,0.593,0.252,0.831l-4.307,5.744C5.803,12.031,5.656,12,5.5,12
	C4.672,12,4,12.672,4,13.5S4.672,15,5.5,15c0.337,0,0.645-0.115,0.895-0.303l3.655,2.437C10.02,17.252,10,17.373,10,17.5
	c0,0.828,0.672,1.5,1.5,1.5s1.5-0.672,1.5-1.5c0-0.127-0.02-0.248-0.05-0.365l1.416-0.944L14.864,14.956z M5.5,14
	C5.224,14,5,13.776,5,13.5S5.224,13,5.5,13S6,13.224,6,13.5S5.776,14,5.5,14z M11.5,5C11.776,5,12,5.224,12,5.5S11.776,6,11.5,6
	S11,5.776,11,5.5S11.224,5,11.5,5z M6.95,13.865C6.98,13.748,7,13.627,7,13.5c0-0.307-0.093-0.593-0.252-0.831L11,6.999v9.093
	c-0.143,0.051-0.276,0.121-0.395,0.211L6.95,13.865z M11.5,18c-0.276,0-0.5-0.224-0.5-0.5s0.224-0.5,0.5-0.5s0.5,0.224,0.5,0.5
	S11.776,18,11.5,18z"/>
</svg>
