<?xml version="1.0" encoding="utf-8"?>
<!-- Generator: Adobe Illustrator 21.1.0, SVG Export Plug-In . SVG Version: 6.00 Build 0)  -->
<svg version="1.1" id="Layer_1" xmlns="http://www.w3.org/2000/svg" xmlns:xlink="http://www.w3.org/1999/xlink" x="0px" y="0px"
	 width="24px" height="24px" viewBox="0 0 24 24" enable-background="new 0 0 24 24" xml:space="preserve">
<path fill="#4A4A4A" d="M21.175,16.004c0.486,0,0.943,0.189,1.287,0.533c0.344,0.344,0.533,0.801,0.533,1.287
	c0,0.486-0.189,0.943-0.534,1.288L19,22.579l-3.462-3.466c-0.344-0.344-0.533-0.801-0.533-1.287c0-0.486,0.189-0.943,0.533-1.287
	c0.344-0.344,0.801-0.533,1.287-0.533c0.486,0,0.943,0.189,1.297,0.543L18.3,16.72l0.7,0.681l0.7-0.681l0.187-0.182
	C20.232,16.194,20.689,16.004,21.175,16.004 M21.175,15c-0.723,0-1.446,0.276-1.998,0.827L19,16l-0.177-0.173
	C18.271,15.276,17.548,15,16.825,15c-0.723,0-1.446,0.276-1.998,0.827c-1.103,1.103-1.103,2.892,0,3.995L19,24l4.173-4.177
	c1.103-1.103,1.103-2.892,0-3.995C22.621,15.276,21.898,15,21.175,15L21.175,15z M14.117,20.533
	c-0.184-0.184-0.345-0.383-0.484-0.592L11.5,21.703L1.42,13.376L11.5,1.542l10.08,11.834l-0.785,0.648
	c0.126-0.012,0.251-0.029,0.38-0.029c0.356,0,0.699,0.065,1.033,0.158L23,13.5L11.5,0L0,13.5L11.5,23l2.784-2.3L14.117,20.533z
	 M14.05,15.2l-1.655,1.103c-0.119-0.089-0.252-0.16-0.395-0.211V7l4.252,5.67C16.093,12.908,16,13.193,16,13.5
	c0,0.127,0.02,0.248,0.05,0.366l-0.576,0.384c0.427-0.161,0.881-0.255,1.352-0.255c0.648,0,1.266,0.167,1.818,0.466
	C18.862,14.2,19,13.868,19,13.5c0-0.828-0.672-1.5-1.5-1.5c-0.156,0-0.303,0.03-0.444,0.074l-4.308-5.743
	C12.907,6.093,13,5.808,13,5.5C13,4.672,12.328,4,11.5,4S10,4.672,10,5.5c0,0.307,0.093,0.593,0.252,0.831l-4.307,5.744
	C5.803,12.031,5.656,12,5.5,12C4.672,12,4,12.672,4,13.5S4.672,15,5.5,15c0.337,0,0.645-0.115,0.895-0.303l3.655,2.437
	C10.02,17.252,10,17.373,10,17.5c0,0.828,0.672,1.5,1.5,1.5s1.5-0.672,1.5-1.5c0-0.127-0.02-0.248-0.05-0.365l0.131-0.087
	C13.22,16.373,13.545,15.733,14.05,15.2z M17.5,13c0.276,0,0.5,0.224,0.5,0.5S17.776,14,17.5,14S17,13.776,17,13.5
	S17.224,13,17.5,13z M5.5,14C5.224,14,5,13.776,5,13.5S5.224,13,5.5,13S6,13.224,6,13.5S5.776,14,5.5,14z M11.5,5
	C11.776,5,12,5.224,12,5.5S11.776,6,11.5,6S11,5.776,11,5.5S11.224,5,11.5,5z M6.95,13.865C6.98,13.748,7,13.627,7,13.5
	c0-0.307-0.093-0.593-0.252-0.831L11,6.999v9.093c-0.143,0.051-0.276,0.121-0.395,0.211L6.95,13.865z M11.5,18
	c-0.276,0-0.5-0.224-0.5-0.5s0.224-0.5,0.5-0.5s0.5,0.224,0.5,0.5S11.776,18,11.5,18z"/>
</svg>
