<?xml version="1.0" encoding="utf-8"?>
<!-- Generator: Adobe Illustrator 21.1.0, SVG Export Plug-In . SVG Version: 6.00 Build 0)  -->
<svg version="1.1" id="Layer_1" xmlns="http://www.w3.org/2000/svg" xmlns:xlink="http://www.w3.org/1999/xlink" x="0px" y="0px"
	 width="24px" height="24px" viewBox="0 0 24 24" enable-background="new 0 0 24 24" xml:space="preserve">
<path fill="#4A4A4A" d="M23.891,19.207c-0.072-0.258-0.176-0.5-0.309-0.727s-0.294-0.434-0.484-0.621
	c-0.189-0.188-0.404-0.349-0.645-0.484c0.172-0.182,0.307-0.393,0.402-0.633C22.952,16.503,23,16.256,23,16
	c0-0.275-0.052-0.535-0.156-0.777c-0.104-0.242-0.247-0.454-0.43-0.637c-0.182-0.182-0.395-0.325-0.637-0.43
	C21.535,14.053,21.276,14,21,14c-0.275,0-0.535,0.053-0.777,0.156c-0.242,0.104-0.454,0.248-0.637,0.43
	c-0.182,0.183-0.325,0.395-0.43,0.637C19.053,15.465,19,15.725,19,16c0,0.256,0.049,0.503,0.145,0.742
	c0.097,0.24,0.23,0.451,0.402,0.633c-0.239,0.136-0.454,0.297-0.645,0.484c-0.189,0.188-0.352,0.395-0.484,0.621
	c-0.015,0.025-0.02,0.055-0.034,0.081c-0.175-0.169-0.377-0.306-0.606-0.405C17.535,18.053,17.276,18,17,18
	c-0.275,0-0.535,0.053-0.777,0.156c-0.242,0.104-0.454,0.248-0.637,0.43c-0.182,0.183-0.325,0.395-0.43,0.637
	C15.053,19.465,15,19.725,15,20c0,0.256,0.049,0.503,0.145,0.742c0.097,0.24,0.23,0.451,0.402,0.633
	c-0.239,0.136-0.454,0.297-0.645,0.484c-0.189,0.188-0.352,0.395-0.484,0.621s-0.235,0.469-0.309,0.727
	C14.037,23.465,14,23.729,14,24h1c0-0.275,0.053-0.535,0.156-0.777c0.104-0.242,0.248-0.454,0.43-0.637
	c0.183-0.182,0.395-0.325,0.637-0.43C16.465,22.053,16.725,22,17,22c0.276,0,0.535,0.053,0.777,0.156
	c0.242,0.104,0.455,0.248,0.637,0.43c0.183,0.183,0.326,0.395,0.43,0.637C18.948,23.465,19,23.725,19,24h1
	c0-0.271-0.036-0.535-0.109-0.793c-0.072-0.258-0.176-0.5-0.309-0.727s-0.294-0.434-0.484-0.621
	c-0.189-0.188-0.404-0.349-0.645-0.484c0.172-0.182,0.307-0.393,0.402-0.633C18.952,20.503,19,20.256,19,20
	c0-0.275,0.053-0.535,0.156-0.777c0.104-0.242,0.248-0.454,0.43-0.637c0.183-0.182,0.395-0.325,0.637-0.43
	C20.465,18.053,20.725,18,21,18c0.276,0,0.535,0.053,0.777,0.156c0.242,0.104,0.455,0.248,0.637,0.43
	c0.183,0.183,0.326,0.395,0.43,0.637C22.948,19.465,23,19.725,23,20h1C24,19.729,23.964,19.465,23.891,19.207z M17.922,20.391
	c-0.052,0.12-0.123,0.226-0.215,0.316c-0.091,0.092-0.196,0.163-0.316,0.215C17.271,20.975,17.141,21,17,21
	s-0.271-0.025-0.391-0.078c-0.119-0.052-0.225-0.123-0.316-0.215c-0.091-0.091-0.162-0.196-0.215-0.316
	C16.026,20.271,16,20.141,16,20s0.026-0.271,0.078-0.391c0.053-0.119,0.124-0.225,0.215-0.316c0.092-0.091,0.197-0.162,0.316-0.215
	C16.729,19.026,16.859,19,17,19s0.271,0.026,0.391,0.078c0.12,0.053,0.226,0.124,0.316,0.215c0.092,0.092,0.163,0.197,0.215,0.316
	C17.975,19.729,18,19.859,18,20S17.975,20.271,17.922,20.391z M21.922,16.391c-0.052,0.12-0.123,0.226-0.215,0.316
	c-0.091,0.092-0.196,0.163-0.316,0.215C21.271,16.975,21.141,17,21,17s-0.271-0.025-0.391-0.078
	c-0.119-0.052-0.225-0.123-0.316-0.215c-0.091-0.091-0.162-0.196-0.215-0.316C20.026,16.271,20,16.141,20,16
	s0.026-0.271,0.078-0.391c0.053-0.119,0.124-0.225,0.215-0.316c0.092-0.091,0.197-0.162,0.316-0.215C20.729,15.026,20.859,15,21,15
	s0.271,0.026,0.391,0.078c0.12,0.053,0.226,0.124,0.316,0.215c0.092,0.092,0.163,0.197,0.215,0.316C21.975,15.729,22,15.859,22,16
	C22,16.141,21.975,16.271,21.922,16.391z M17.5,15c0.279,0,0.537-0.081,0.76-0.214c0.153-0.34,0.358-0.646,0.617-0.905
	c0.028-0.028,0.062-0.049,0.092-0.076C18.989,13.707,19,13.605,19,13.5c0-0.828-0.672-1.5-1.5-1.5c-0.156,0-0.303,0.03-0.444,0.074
	l-4.308-5.743C12.907,6.093,13,5.808,13,5.5C13,4.672,12.328,4,11.5,4S10,4.672,10,5.5c0,0.307,0.093,0.593,0.252,0.831
	l-4.307,5.744C5.803,12.031,5.656,12,5.5,12C4.672,12,4,12.672,4,13.5S4.672,15,5.5,15c0.337,0,0.645-0.115,0.895-0.303l3.655,2.437
	C10.02,17.252,10,17.373,10,17.5c0,0.828,0.672,1.5,1.5,1.5s1.5-0.672,1.5-1.5c0-0.127-0.02-0.248-0.05-0.365l3.655-2.437
	C16.856,14.885,17.163,15,17.5,15z M17.5,13c0.276,0,0.5,0.224,0.5,0.5S17.776,14,17.5,14S17,13.776,17,13.5S17.224,13,17.5,13z
	 M5.5,14C5.224,14,5,13.776,5,13.5S5.224,13,5.5,13S6,13.224,6,13.5S5.776,14,5.5,14z M11.5,5C11.776,5,12,5.224,12,5.5
	S11.776,6,11.5,6S11,5.776,11,5.5S11.224,5,11.5,5z M6.95,13.865C6.98,13.748,7,13.627,7,13.5c0-0.307-0.093-0.593-0.252-0.831
	L11,6.999v9.093c-0.143,0.051-0.276,0.121-0.395,0.211L6.95,13.865z M11.5,18c-0.276,0-0.5-0.224-0.5-0.5s0.224-0.5,0.5-0.5
	s0.5,0.224,0.5,0.5S11.776,18,11.5,18z M16.05,13.866l-3.655,2.437c-0.119-0.089-0.252-0.16-0.395-0.211V7l4.252,5.67
	C16.093,12.908,16,13.193,16,13.5C16,13.627,16.02,13.748,16.05,13.866z M14,20c0-0.134,0.022-0.264,0.039-0.395L11.5,21.703
	L1.42,13.376L11.5,1.542l9.785,11.487c0.304,0.028,0.605,0.088,0.885,0.207c0.243,0.105,0.458,0.246,0.661,0.403L23,13.5L11.5,0
	L0,13.5L11.5,23l2.631-2.174C14.053,20.556,14,20.281,14,20z"/>
</svg>
