<?xml version="1.0" encoding="utf-8"?>
<!-- Generator: Adobe Illustrator 21.1.0, SVG Export Plug-In . SVG Version: 6.00 Build 0)  -->
<svg version="1.1" id="Layer_1" xmlns="http://www.w3.org/2000/svg" xmlns:xlink="http://www.w3.org/1999/xlink" x="0px" y="0px"
	 width="24px" height="24px" viewBox="0 0 24 24" enable-background="new 0 0 24 24" xml:space="preserve">
<path fill="#4A4A4A" d="M16.5,10.542l6.08,7.138l-6.08,5.023l-6.08-5.023L16.5,10.542 M16.5,9L9,17.804L16.5,24l7.5-6.196L16.5,9
	L16.5,9z M11.825,21.435L11.5,21.703L1.42,13.376L11.5,1.542l10.08,11.834l-0.023,0.019l0.649,0.761L23,13.5L11.5,0L0,13.5L11.5,23
	l1.11-0.917L11.825,21.435z M19.5,16c-0.156,0-0.303,0.03-0.444,0.075l-1.308-1.744l0,0C17.907,14.093,18,13.808,18,13.5
	c0-0.828-0.672-1.5-1.5-1.5S15,12.672,15,13.5c0,0.308,0.093,0.593,0.252,0.831l0,0l-1.308,1.744C13.803,16.03,13.656,16,13.5,16
	c-0.828,0-1.5,0.672-1.5,1.5s0.672,1.5,1.5,1.5c0.337,0,0.645-0.115,0.895-0.303l0.655,0.437l0,0C15.021,19.252,15,19.373,15,19.5
	c0,0.828,0.672,1.5,1.5,1.5s1.5-0.672,1.5-1.5c0-0.127-0.021-0.248-0.05-0.366l0,0l0.655-0.437C18.855,18.885,19.163,19,19.5,19
	c0.828,0,1.5-0.672,1.5-1.5S20.328,16,19.5,16z M16.5,13c0.276,0,0.5,0.224,0.5,0.5S16.776,14,16.5,14S16,13.776,16,13.5
	S16.224,13,16.5,13z M13.5,18c-0.276,0-0.5-0.224-0.5-0.5s0.224-0.5,0.5-0.5s0.5,0.224,0.5,0.5S13.776,18,13.5,18z M14.95,17.866
	C14.979,17.748,15,17.627,15,17.5c0-0.308-0.093-0.593-0.252-0.831L16,15v3.092c-0.143,0.051-0.276,0.122-0.395,0.211c0,0,0,0,0,0
	L14.95,17.866z M16.5,20c-0.276,0-0.5-0.224-0.5-0.5s0.224-0.5,0.5-0.5s0.5,0.224,0.5,0.5S16.776,20,16.5,20z M17.395,18.303
	C17.395,18.303,17.395,18.303,17.395,18.303c-0.119-0.089-0.252-0.16-0.395-0.211V15l1.252,1.669C18.093,16.907,18,17.192,18,17.5
	c0,0.127,0.021,0.248,0.05,0.366L17.395,18.303z M19.5,18c-0.276,0-0.5-0.224-0.5-0.5s0.224-0.5,0.5-0.5s0.5,0.224,0.5,0.5
	S19.776,18,19.5,18z"/>
</svg>
