<?xml version="1.0" encoding="utf-8"?>
<!-- Generator: Adobe Illustrator 21.1.0, SVG Export Plug-In . SVG Version: 6.00 Build 0)  -->
<svg version="1.1" id="Layer_1" xmlns="http://www.w3.org/2000/svg" xmlns:xlink="http://www.w3.org/1999/xlink" x="0px" y="0px"
	 width="24px" height="24px" viewBox="0 0 24 24" enable-background="new 0 0 24 24" xml:space="preserve">
<path fill="#4A4A4A" d="M19.5,13.857c1.045,0.656,2.262,1.016,3.5,1.026v4.046c0,0.279-0.041,0.543-0.121,0.786
	c-0.088,0.265-0.21,0.52-0.364,0.757c-0.162,0.251-0.358,0.491-0.582,0.716c-0.243,0.243-0.509,0.474-0.79,0.685
	c-0.286,0.216-0.597,0.422-0.923,0.613c-0.237,0.139-0.477,0.271-0.72,0.396c-0.245-0.126-0.486-0.259-0.721-0.397
	c-0.32-0.187-0.631-0.393-0.922-0.612c-0.282-0.212-0.548-0.443-0.79-0.685c-0.223-0.223-0.42-0.464-0.583-0.717
	c-0.154-0.237-0.276-0.491-0.362-0.753C16.041,19.472,16,19.206,16,18.929v-4.046C17.238,14.872,18.455,14.513,19.5,13.857
	 M19.5,12.632c-0.973,0.781-2.207,1.251-3.553,1.251c-0.324,0-0.639-0.033-0.947-0.085v5.131c0,0.387,0.057,0.753,0.171,1.1
	c0.114,0.347,0.272,0.676,0.474,0.987c0.201,0.311,0.44,0.604,0.715,0.88c0.275,0.275,0.573,0.534,0.895,0.776
	c0.322,0.242,0.662,0.468,1.019,0.677c0.358,0.209,0.718,0.402,1.08,0.58L19.5,24l0.145-0.072c0.362-0.177,0.723-0.37,1.08-0.58
	c0.358-0.209,0.698-0.435,1.019-0.677c0.322-0.242,0.62-0.501,0.895-0.776c0.275-0.275,0.513-0.568,0.715-0.88
	c0.201-0.311,0.359-0.64,0.474-0.987c0.115-0.347,0.171-0.714,0.171-1.1v-5.131c-0.309,0.052-0.624,0.085-0.947,0.085
	C21.707,13.883,20.473,13.413,19.5,12.632L19.5,12.632z M14.221,20.34c-0.079-0.241-0.133-0.49-0.169-0.745L11.5,21.703L1.42,13.376
	L11.5,1.542l8.992,10.556c0.589,0.39,1.243,0.64,1.938,0.732L11.5,0L0,13.5L11.5,23l2.845-2.35
	C14.304,20.546,14.255,20.446,14.221,20.34z M12.395,16.303c-0.119-0.089-0.252-0.16-0.395-0.211V7l4.252,5.67
	c-0.04,0.06-0.062,0.13-0.093,0.195c0.764-0.034,1.492-0.244,2.144-0.628C18.07,12.089,17.796,12,17.5,12
	c-0.156,0-0.303,0.03-0.444,0.074l-4.308-5.743C12.907,6.093,13,5.808,13,5.5C13,4.672,12.328,4,11.5,4S10,4.672,10,5.5
	c0,0.307,0.093,0.593,0.252,0.831l-4.307,5.744C5.803,12.031,5.656,12,5.5,12C4.672,12,4,12.672,4,13.5S4.672,15,5.5,15
	c0.337,0,0.645-0.115,0.895-0.303l3.655,2.437C10.02,17.252,10,17.373,10,17.5c0,0.828,0.672,1.5,1.5,1.5s1.5-0.672,1.5-1.5
	c0-0.127-0.02-0.248-0.05-0.365l1.05-0.7v-1.202L12.395,16.303z M5.5,14C5.224,14,5,13.776,5,13.5S5.224,13,5.5,13S6,13.224,6,13.5
	S5.776,14,5.5,14z M11.5,5C11.776,5,12,5.224,12,5.5S11.776,6,11.5,6S11,5.776,11,5.5S11.224,5,11.5,5z M6.95,13.865
	C6.98,13.748,7,13.627,7,13.5c0-0.307-0.093-0.593-0.252-0.831L11,6.999v9.093c-0.143,0.051-0.276,0.121-0.395,0.211L6.95,13.865z
	 M11.5,18c-0.276,0-0.5-0.224-0.5-0.5s0.224-0.5,0.5-0.5s0.5,0.224,0.5,0.5S11.776,18,11.5,18z"/>
</svg>
