<?xml version="1.0" encoding="utf-8"?>
<!-- Generator: Adobe Illustrator 21.1.0, SVG Export Plug-In . SVG Version: 6.00 Build 0)  -->
<svg version="1.1" id="Layer_1" xmlns="http://www.w3.org/2000/svg" xmlns:xlink="http://www.w3.org/1999/xlink" x="0px" y="0px"
	 width="24px" height="24px" viewBox="0 0 24 24" enable-background="new 0 0 24 24" xml:space="preserve">
<path fill="#4A4A4A" d="M11.5,1.542l10.08,11.834L11.5,21.703L1.42,13.376L11.5,1.542 M11.5,0L0,13.5L11.5,23L23,13.5L11.5,0L11.5,0
	z M17.5,12c-0.156,0-0.303,0.03-0.444,0.074l-4.308-5.743C12.907,6.093,13,5.808,13,5.5C13,4.672,12.328,4,11.5,4S10,4.672,10,5.5
	c0,0.307,0.093,0.593,0.252,0.831l-4.307,5.744C5.803,12.031,5.656,12,5.5,12C4.672,12,4,12.672,4,13.5S4.672,15,5.5,15
	c0.337,0,0.645-0.115,0.895-0.303l3.655,2.437C10.02,17.252,10,17.373,10,17.5c0,0.828,0.672,1.5,1.5,1.5s1.5-0.672,1.5-1.5
	c0-0.127-0.02-0.248-0.05-0.365l3.655-2.437C16.856,14.885,17.163,15,17.5,15c0.828,0,1.5-0.672,1.5-1.5S18.328,12,17.5,12z
	 M6.748,12.669L11,6.999v9.093c-0.143,0.051-0.276,0.121-0.395,0.211L6.95,13.865C6.98,13.748,7,13.627,7,13.5
	C7,13.193,6.907,12.907,6.748,12.669z M12,7l4.252,5.67C16.093,12.908,16,13.193,16,13.5c0,0.127,0.02,0.248,0.05,0.366
	l-3.655,2.437c-0.119-0.089-0.252-0.16-0.395-0.211V7z M11.5,5C11.776,5,12,5.224,12,5.5S11.776,6,11.5,6S11,5.776,11,5.5
	S11.224,5,11.5,5z M5.5,14C5.224,14,5,13.776,5,13.5S5.224,13,5.5,13S6,13.224,6,13.5S5.776,14,5.5,14z M11.5,18
	c-0.276,0-0.5-0.224-0.5-0.5s0.224-0.5,0.5-0.5s0.5,0.224,0.5,0.5S11.776,18,11.5,18z M17.5,14c-0.276,0-0.5-0.224-0.5-0.5
	s0.224-0.5,0.5-0.5s0.5,0.224,0.5,0.5S17.776,14,17.5,14z"/>
</svg>
