<?xml version="1.0" encoding="utf-8"?>
<!-- Generator: Adobe Illustrator 21.1.0, SVG Export Plug-In . SVG Version: 6.00 Build 0)  -->
<svg version="1.1" id="Layer_1" xmlns="http://www.w3.org/2000/svg" xmlns:xlink="http://www.w3.org/1999/xlink" x="0px" y="0px"
	 width="24px" height="24px" viewBox="0 0 24 24" enable-background="new 0 0 24 24" xml:space="preserve">
<path fill="#4A4A4A" d="M17.852,19.852l2.875-2.875l-0.703-0.703l-2.875,2.875l0.008,0.008C16.948,19.052,16.729,19,16.5,19
	c-0.208,0-0.404,0.039-0.586,0.117c-0.183,0.078-0.341,0.185-0.477,0.32c-0.136,0.136-0.242,0.294-0.32,0.477S15,20.292,15,20.5
	s0.039,0.403,0.117,0.586s0.185,0.341,0.32,0.477c0.135,0.136,0.294,0.242,0.477,0.32C16.096,21.961,16.292,22,16.5,22
	c0.208,0,0.403-0.039,0.586-0.117c0.182-0.078,0.341-0.185,0.477-0.32c0.135-0.136,0.242-0.294,0.32-0.477S18,20.708,18,20.5
	c0-0.229-0.052-0.448-0.156-0.656L17.852,19.852z M16.852,20.852C16.752,20.95,16.635,21,16.5,21c-0.136,0-0.253-0.05-0.352-0.148
	C16.049,20.753,16,20.636,16,20.5s0.049-0.253,0.148-0.352C16.247,20.05,16.364,20,16.5,20c0.135,0,0.252,0.05,0.352,0.148
	C16.95,20.247,17,20.364,17,20.5S16.95,20.753,16.852,20.852z M16.5,14c0.592,0,1.17,0.078,1.717,0.232
	c0.552,0.156,1.077,0.377,1.56,0.659c0.48,0.281,0.924,0.623,1.317,1.015c0.394,0.394,0.736,0.837,1.016,1.317
	c0.282,0.483,0.503,1.008,0.659,1.56C22.922,19.329,23,19.907,23,20.5s-0.078,1.171-0.232,1.717
	c-0.073,0.258-0.166,0.517-0.281,0.783H10.513c-0.115-0.265-0.208-0.524-0.281-0.783C10.078,21.671,10,21.093,10,20.5
	s0.078-1.171,0.232-1.717c0.156-0.554,0.378-1.079,0.659-1.56c0.28-0.479,0.621-0.922,1.015-1.316
	c0.393-0.393,0.836-0.735,1.317-1.015c0.482-0.282,1.007-0.503,1.56-0.659C15.329,14.078,15.907,14,16.5,14 M16.5,13
	c-0.688,0-1.351,0.09-1.988,0.27c-0.638,0.18-1.236,0.433-1.793,0.758c-0.558,0.326-1.064,0.716-1.52,1.172
	c-0.456,0.456-0.847,0.962-1.172,1.52c-0.326,0.558-0.578,1.155-0.758,1.793C9.09,19.149,9,19.812,9,20.5s0.09,1.351,0.27,1.988
	C9.42,23.022,9.634,23.522,9.887,24h13.227c0.253-0.478,0.467-0.978,0.617-1.512C23.91,21.851,24,21.188,24,20.5
	s-0.09-1.351-0.27-1.988c-0.18-0.638-0.433-1.235-0.758-1.793c-0.326-0.558-0.716-1.063-1.172-1.52
	c-0.456-0.456-0.962-0.846-1.52-1.172c-0.558-0.325-1.155-0.578-1.793-0.758C17.85,13.09,17.188,13,16.5,13L16.5,13z M17.5,12
	c0.267,0,0.514,0.076,0.732,0.198c-0.337-0.07-0.678-0.121-1.025-0.149C17.303,12.027,17.397,12,17.5,12z M8.025,20.129L0,13.5
	L11.5,0L23,13.5l-0.836,0.69c-0.254-0.228-0.52-0.44-0.8-0.636l0.215-0.178L11.5,1.542L1.42,13.376l6.741,5.569
	C8.088,19.333,8.042,19.727,8.025,20.129z M5.5,12C4.672,12,4,12.672,4,13.5S4.672,15,5.5,15c0.337,0,0.645-0.115,0.895-0.303
	l2.645,1.764c0.044-0.081,0.077-0.168,0.124-0.247c0.122-0.209,0.266-0.404,0.405-0.602L6.95,13.865C6.98,13.748,7,13.627,7,13.5
	c0-0.307-0.093-0.593-0.252-0.831L11,6.999v7.047c0.315-0.269,0.647-0.517,1-0.737C12,10.628,12,7,12,7l3.787,5.049
	c0.414-0.034,0.827-0.038,1.242-0.012l-4.28-5.706C12.907,6.093,13,5.808,13,5.5C13,4.672,12.328,4,11.5,4S10,4.672,10,5.5
	c0,0.307,0.093,0.593,0.252,0.831l-4.307,5.744C5.803,12.031,5.656,12,5.5,12z M11.5,5C11.776,5,12,5.224,12,5.5S11.776,6,11.5,6
	S11,5.776,11,5.5S11.224,5,11.5,5z M5.5,14C5.224,14,5,13.776,5,13.5S5.224,13,5.5,13S6,13.224,6,13.5S5.776,14,5.5,14z M11.231,22
	C11.094,21.514,11,21.018,11,20.5c0-0.505,0.065-0.992,0.195-1.461c0.13-0.469,0.315-0.906,0.555-1.312
	c0.239-0.406,0.526-0.776,0.859-1.109c0.333-0.333,0.703-0.618,1.109-0.855c0.406-0.237,0.844-0.42,1.312-0.551
	c0.469-0.13,0.958-0.195,1.469-0.195c0.391,0,0.774,0.041,1.152,0.121c0.377,0.081,0.743,0.202,1.098,0.363l-0.406,0.906
	C17.745,16.136,17.122,16,16.477,16c-0.412,0-0.808,0.054-1.188,0.16c-0.38,0.106-0.737,0.259-1.07,0.457
	c-0.333,0.198-0.636,0.434-0.906,0.707c-0.271,0.273-0.504,0.577-0.699,0.91s-0.347,0.691-0.453,1.074
	C12.053,19.691,12,20.089,12,20.5c0,0.52,0.103,1.017,0.276,1.5H11.231z M21,20.523c0-0.646-0.136-1.269-0.406-1.867L21.5,18.25
	c0.161,0.354,0.282,0.72,0.363,1.098c0.081,0.378,0.121,0.762,0.121,1.152c0,0.516-0.093,1.012-0.23,1.5h-1.026
	C20.898,21.527,21,21.038,21,20.523z"/>
</svg>
