<?xml version="1.0" encoding="utf-8"?>
<!-- Generator: Adobe Illustrator 21.1.0, SVG Export Plug-In . SVG Version: 6.00 Build 0)  -->
<svg version="1.1" id="Layer_1" xmlns="http://www.w3.org/2000/svg" xmlns:xlink="http://www.w3.org/1999/xlink" x="0px" y="0px"
	 width="24px" height="24px" viewBox="0 0 24 24" enable-background="new 0 0 24 24" xml:space="preserve">
<path fill="#4A4A4A" d="M19,12.5c0-2.485-2.015-4.5-4.5-4.5S10,10.015,10,12.5c0,1.063,0.384,2.027,1,2.797v7.637L14.5,21l3.5,1.934
	v-7.637C18.616,14.527,19,13.563,19,12.5z M14.5,9c1.93,0,3.5,1.57,3.5,3.5S16.43,16,14.5,16S11,14.43,11,12.5S12.57,9,14.5,9z
	 M14.984,20.125L14.5,19.857l-0.484,0.267L12,21.239V16.24c0.715,0.479,1.575,0.76,2.5,0.76s1.785-0.281,2.5-0.76v4.999
	L14.984,20.125z M24,10.5c0,0.625-0.116,1.208-0.351,1.751c-0.235,0.543-0.556,1.02-0.967,1.43c-0.411,0.41-0.889,0.732-1.436,0.967
	C20.699,14.883,20.117,15,19.5,15h-0.124c0.173-0.33,0.307-0.674,0.408-1.027c0.373-0.029,0.729-0.098,1.067-0.244
	c0.433-0.186,0.801-0.433,1.125-0.756c0.321-0.32,0.568-0.686,0.755-1.119C22.912,11.436,23,10.993,23,10.5
	c0-0.499-0.09-0.947-0.274-1.371c-0.188-0.431-0.435-0.794-0.756-1.109c-0.324-0.317-0.694-0.562-1.132-0.749
	C20.415,7.091,19.953,7,19.465,7h-0.88l-0.112-0.873c-0.093-0.729-0.307-1.415-0.637-2.039c-0.331-0.627-0.753-1.175-1.256-1.627
	c-0.503-0.453-1.09-0.814-1.744-1.073C14.189,1.13,13.487,1,12.75,1c-0.493,0-0.977,0.06-1.438,0.179
	c-0.464,0.12-0.906,0.294-1.315,0.518C9.589,1.92,9.207,2.199,8.86,2.526C8.509,2.858,8.196,3.235,7.93,3.647L7.565,4.214
	L6.903,4.087C6.599,4.029,6.295,4,6,4C5.312,4,4.657,4.131,4.056,4.388C3.437,4.653,2.915,5.003,2.459,5.459
	c-0.45,0.45-0.81,0.987-1.071,1.596C1.131,7.658,1,8.313,1,9c0,0.688,0.131,1.343,0.388,1.944c0.265,0.619,0.615,1.141,1.071,1.596
	c0.45,0.45,0.987,0.81,1.596,1.071C4.658,13.869,5.313,14,6,14h3.222c0.1,0.344,0.233,0.678,0.402,1H6
	c-0.828,0-1.608-0.157-2.338-0.469c-0.73-0.312-1.367-0.74-1.91-1.283c-0.543-0.543-0.97-1.179-1.283-1.91C0.156,10.607,0,9.828,0,9
	s0.157-1.608,0.469-2.338c0.312-0.73,0.74-1.367,1.283-1.91c0.543-0.543,1.179-0.97,1.91-1.283C4.393,3.156,5.172,3,6,3
	c0.359,0,0.723,0.035,1.09,0.105c0.312-0.484,0.674-0.919,1.084-1.306c0.41-0.387,0.858-0.714,1.342-0.979s0.999-0.468,1.546-0.609
	S12.172,0,12.75,0c0.867,0,1.685,0.152,2.455,0.457c0.77,0.305,1.451,0.725,2.045,1.26c0.594,0.535,1.084,1.17,1.471,1.904
	C19.108,4.355,19.356,5.148,19.465,6c0.625,0,1.214,0.117,1.764,0.351s1.03,0.552,1.441,0.955c0.411,0.403,0.735,0.877,0.973,1.424
	S24,9.867,24,10.5z"/>
</svg>
