<?xml version="1.0" encoding="utf-8"?>
<!-- Generator: Adobe Illustrator 21.1.0, SVG Export Plug-In . SVG Version: 6.00 Build 0)  -->
<svg version="1.1" id="Layer_1" xmlns="http://www.w3.org/2000/svg" xmlns:xlink="http://www.w3.org/1999/xlink" x="0px" y="0px"
	 width="24px" height="24px" viewBox="0 0 24 24" enable-background="new 0 0 24 24" xml:space="preserve">
<path d="M14,1v5H9V1H14 M15,0H8v7h7V0L15,0z M6,1v5H1V1H6 M7,0H0v7h7V0L7,0z M22,1v5h-5V1H22 M23,0h-7v7h7V0L23,0z M14,9v5H9V9H14
	 M15,8H8v7h7V8L15,8z M6,9v5H1V9H6 M7,8H0v7h7V8L7,8z M22,9v5h-5V9H22 M23,8h-7v7h7V8L23,8z M14,17v5H9v-5H14 M15,16H8v7h7V16L15,16
	z M6,17v5H1v-5H6 M7,16H0v7h7V16L7,16z M22,17v5h-5v-5H22 M23,16h-7v7h7V16L23,16z"/>
</svg>
