<?xml version="1.0" encoding="utf-8"?>
<!-- Generator: Adobe Illustrator 21.1.0, SVG Export Plug-In . SVG Version: 6.00 Build 0)  -->
<svg version="1.1" id="Layer_1" xmlns="http://www.w3.org/2000/svg" xmlns:xlink="http://www.w3.org/1999/xlink" x="0px" y="0px"
	 width="24px" height="24px" viewBox="0 0 24 24" enable-background="new 0 0 24 24" xml:space="preserve">
<path fill="#4A4A4A" d="M19.5,10c-0.448,0-0.846,0.201-1.121,0.513L5.994,5.559C5.995,5.539,6,5.52,6,5.5C6,4.672,5.328,4,4.5,4
	S3,4.672,3,5.5c0,0.722,0.511,1.325,1.191,1.468l1.627,12.203C5.334,19.42,5,19.918,5,20.5C5,21.328,5.672,22,6.5,22
	S8,21.328,8,20.5c0-0.136-0.024-0.265-0.058-0.391l10.683-7.395C18.872,12.892,19.172,13,19.5,13c0.828,0,1.5-0.672,1.5-1.5
	S20.328,10,19.5,10z M18.006,11.441C18.005,11.461,18,11.48,18,11.5c0,0.136,0.024,0.265,0.058,0.39L7.375,19.286
	c-0.167-0.121-0.358-0.21-0.566-0.254L5.182,6.829c0.168-0.086,0.316-0.202,0.44-0.342L18.006,11.441z M4,5.5C4,5.224,4.224,5,4.5,5
	S5,5.224,5,5.5S4.776,6,4.5,6S4,5.776,4,5.5z M6.5,21C6.224,21,6,20.776,6,20.5S6.224,20,6.5,20S7,20.224,7,20.5S6.776,21,6.5,21z
	 M19.5,12c-0.276,0-0.5-0.224-0.5-0.5s0.224-0.5,0.5-0.5s0.5,0.224,0.5,0.5S19.776,12,19.5,12z M6.48,9L6.347,8h0.364L9,8.916V9
	H6.48z M3.32,8H1V3h7v2.284l1,0.4V0H0v9h3.453L3.32,8z M1,1h7v1H1V1z M15,11.316l1,0.4v0.383l-1,0.692V11.316z M15,6v2.084L17.29,9
	H23v5h-4.476l-1.444,1H24V6H15z M23,8h-7V7h7V8z M7.546,17h1.374l-1.258,0.871L7.546,17z M10,16.253V16H7.413L7.28,15H11v0.56
	L10,16.253z M11,19.209V24H2v-9h2.253l0.133,1H3v1h1.52l0.133,1H3v5h7v-3.099L11,19.209z"/>
</svg>
