<?xml version="1.0" encoding="utf-8"?>
<!-- Generator: Adobe Illustrator 21.1.0, SVG Export Plug-In . SVG Version: 6.00 Build 0)  -->
<!DOCTYPE svg PUBLIC "-//W3C//DTD SVG 1.1//EN" "http://www.w3.org/Graphics/SVG/1.1/DTD/svg11.dtd">
<svg version="1.1" id="Layer_1" xmlns="http://www.w3.org/2000/svg" xmlns:xlink="http://www.w3.org/1999/xlink" x="0px" y="0px"
	 width="24px" height="24px" viewBox="0 0 24 24" enable-background="new 0 0 24 24" xml:space="preserve">
<path fill="#4B4B4B" d="M0,2v20h24V2H0z M1,3h22v2H1V3z M1,21v-7h8.05c0.232,1.141,1.24,2,2.45,2c1.381,0,2.5-1.119,2.5-2.5
	S12.881,11,11.5,11c-1.209,0-2.218,0.859-2.45,2H1V6h22v7h-7.051c-0.252-2.244-2.139-4-4.449-4c-0.575,0-1.144,0.112-1.688,0.333
	l0.376,0.927C10.613,10.087,11.054,10,11.5,10c1.93,0,3.5,1.57,3.5,3.5S13.43,17,11.5,17c-0.446,0-0.887-0.088-1.312-0.26
	l-0.376,0.926C10.356,17.888,10.925,18,11.5,18c2.31,0,4.197-1.756,4.449-4H23v7H1z M10,13.5c0-0.827,0.673-1.5,1.5-1.5
	s1.5,0.673,1.5,1.5S12.327,15,11.5,15S10,14.327,10,13.5z"/>
</svg>
