<?xml version="1.0" encoding="utf-8"?>
<!-- Generator: Adobe Illustrator 21.1.0, SVG Export Plug-In . SVG Version: 6.00 Build 0)  -->
<!DOCTYPE svg PUBLIC "-//W3C//DTD SVG 1.1//EN" "http://www.w3.org/Graphics/SVG/1.1/DTD/svg11.dtd">
<svg version="1.1" id="Layer_1" xmlns="http://www.w3.org/2000/svg" xmlns:xlink="http://www.w3.org/1999/xlink" x="0px" y="0px"
	 width="24px" height="24px" viewBox="0 0 24 24" enable-background="new 0 0 24 24" xml:space="preserve">
<path fill="#4C4B4C" d="M24,14.5c0,3.038-2.462,5.5-5.5,5.5h-6C9.462,20,7,17.538,7,14.5S9.462,9,12.5,9H15v1h-2.5
	C10.019,10,8,12.019,8,14.5s2.019,4.5,4.5,4.5h6c2.481,0,4.5-2.019,4.5-4.5S20.981,10,18.5,10H18V9h0.5C21.538,9,24,11.462,24,14.5z
	 M11.5,4h-6C2.462,4,0,6.462,0,9.5S2.462,15,5.5,15H6v-1H5.5C3.019,14,1,11.981,1,9.5S3.019,5,5.5,5h6C13.981,5,16,7.019,16,9.5
	S13.981,14,11.5,14H9v1h2.5c3.038,0,5.5-2.462,5.5-5.5S14.538,4,11.5,4z"/>
</svg>
