<?xml version="1.0" encoding="utf-8"?>
<!-- Generator: Adobe Illustrator 21.1.0, SVG Export Plug-In . SVG Version: 6.00 Build 0)  -->
<svg version="1.1" id="Layer_1" xmlns="http://www.w3.org/2000/svg" xmlns:xlink="http://www.w3.org/1999/xlink" x="0px" y="0px"
	 width="24px" height="24px" viewBox="0 0 24 24" enable-background="new 0 0 24 24" xml:space="preserve">
<path fill="#4A4A4A" d="M11.5,1.414L21.586,11.5L11.5,21.586L1.414,11.5L11.5,1.414 M11.5,0L0,11.5L11.5,23L23,11.5L11.5,0L11.5,0z
	 M14.719,15H18l-0.001-3.307l-1,0.008L17,13.255l-3.165-3.165C14.545,9.449,15,8.532,15,7.5C15,5.567,13.433,4,11.5,4S8,5.567,8,7.5
	c0,1.032,0.455,1.949,1.165,2.59L6,13.255l0.001-1.554l-1-0.008L5,15h3.281v-1H6.669l3.343-3.343c0.303,0.143,0.627,0.24,0.97,0.291
	v6.111L9.884,15.96l-0.713,0.701L11.509,19l2.32-2.32l-0.707-0.707l-1.14,1.14v-6.162c0.356-0.049,0.693-0.147,1.006-0.295
	L16.331,14h-1.612V15z M13.454,5.959c0.141,0.179,0.266,0.371,0.354,0.584c-0.257-0.15-0.507-0.31-0.741-0.492
	C13.192,6.01,13.325,5.991,13.454,5.959z M12.493,5.208c-0.087,0.031-0.179,0.053-0.264,0.087c-0.07-0.073-0.126-0.157-0.191-0.233
	C12.195,5.096,12.347,5.145,12.493,5.208z M12.025,6.481c0.581,0.515,1.247,0.923,1.95,1.267c-0.036,0.36-0.146,0.695-0.318,0.994
	c-1.23-0.094-2.384-0.462-3.388-1.065C10.794,7.201,11.384,6.798,12.025,6.481z M12.802,9.624C12.422,9.858,11.979,10,11.5,10
	c-0.937,0-1.745-0.524-2.173-1.288c0.072-0.104,0.143-0.207,0.225-0.303C10.52,9.028,11.625,9.432,12.802,9.624z M10.814,5.108
	c0.151,0.212,0.292,0.431,0.464,0.625c-0.678,0.37-1.298,0.832-1.853,1.361C9.313,7.005,9.216,6.9,9.111,6.803
	C9.351,5.984,9.993,5.344,10.814,5.108z"/>
</svg>
