<?xml version="1.0" encoding="utf-8"?>
<!-- Generator: Adobe Illustrator 21.1.0, SVG Export Plug-In . SVG Version: 6.00 Build 0)  -->
<svg version="1.1" id="Layer_1" xmlns="http://www.w3.org/2000/svg" xmlns:xlink="http://www.w3.org/1999/xlink" x="0px" y="0px"
	 width="24px" height="24px" viewBox="0 0 24 24" enable-background="new 0 0 24 24" xml:space="preserve">
<path fill="#4A4A4A" d="M12.562,7c0.523,0,1.021,0.09,1.48,0.268c0.463,0.179,0.878,0.428,1.233,0.741
	c0.355,0.314,0.653,0.691,0.885,1.121c0.234,0.434,0.38,0.892,0.448,1.402l0.115,0.868h0.876c0.339,0,0.646,0.059,0.939,0.181
	c0.3,0.125,0.553,0.288,0.774,0.499c0.214,0.205,0.38,0.443,0.507,0.729C19.941,13.083,20,13.375,20,13.7
	c0,0.321-0.058,0.609-0.179,0.881c-0.125,0.284-0.291,0.524-0.508,0.735c-0.221,0.215-0.471,0.379-0.766,0.503
	C18.258,15.941,17.957,16,17.625,16H7.5c-0.493,0-0.939-0.087-1.367-0.267c-0.434-0.181-0.8-0.421-1.121-0.735
	c-0.311-0.303-0.561-0.667-0.743-1.085C4.088,13.501,4,13.071,4,12.6c0-0.47,0.088-0.9,0.268-1.313
	c0.184-0.42,0.428-0.776,0.743-1.085c0.322-0.314,0.689-0.554,1.121-0.735C6.562,9.287,7.009,9.2,7.5,9.2
	c0.206,0,0.419,0.02,0.635,0.06l0.651,0.121l0.365-0.553c0.188-0.285,0.41-0.546,0.657-0.774c0.246-0.227,0.508-0.414,0.798-0.571
	c0.295-0.157,0.609-0.278,0.933-0.36C11.867,7.042,12.211,7,12.562,7 M12.562,6c-0.433,0-0.856,0.051-1.266,0.154
	c-0.41,0.103-0.796,0.253-1.16,0.447C9.773,6.797,9.438,7.035,9.13,7.319C8.823,7.603,8.551,7.923,8.317,8.277
	C8.042,8.226,7.769,8.2,7.5,8.2c-0.621,0-1.205,0.115-1.753,0.344c-0.549,0.23-1.025,0.544-1.433,0.941
	c-0.407,0.399-0.728,0.866-0.962,1.401C3.118,11.422,3,11.993,3,12.6c0,0.608,0.118,1.179,0.352,1.714
	c0.234,0.536,0.554,1.004,0.962,1.401c0.408,0.399,0.885,0.712,1.433,0.941C6.295,16.886,6.879,17,7.5,17h10.125
	c0.463,0,0.899-0.086,1.309-0.258c0.41-0.172,0.769-0.409,1.077-0.709c0.308-0.3,0.549-0.649,0.725-1.048
	C20.912,14.587,21,14.159,21,13.7c0-0.464-0.089-0.896-0.268-1.298c-0.179-0.401-0.421-0.749-0.729-1.044
	c-0.308-0.294-0.668-0.528-1.081-0.7c-0.413-0.172-0.854-0.258-1.323-0.258c-0.083-0.624-0.268-1.205-0.559-1.745
	c-0.29-0.538-0.658-1.003-1.103-1.396c-0.445-0.392-0.957-0.701-1.534-0.924C13.827,6.112,13.212,6,12.562,6L12.562,6z"/>
<path fill="#4A4A4A" d="M2.435,10.487C2.51,10.314,2.614,10.162,2.705,10H1.998C1.448,10,1,9.552,1,9.002V1.998
	C1,1.448,1.448,1,1.998,1h7.004C9.552,1,10,1.448,10,1.998v3.568c0.325-0.149,0.658-0.276,1-0.365V1.998C11,0.894,10.106,0,9.002,0
	H1.998C0.894,0,0,0.894,0,1.998v7.004C0,10.106,0.894,11,1.998,11h0.274C2.326,10.829,2.363,10.652,2.435,10.487z"/>
<path fill="#4A4A4A" d="M22.002,0h-7.004C13.894,0,13,0.894,13,1.998v3.023c0.339,0.024,0.673,0.078,1,0.155V1.998
	C14,1.448,14.448,1,14.998,1h7.004C22.552,1,23,1.448,23,1.998v7.004C23,9.552,22.552,10,22.002,10H19.81
	c0.319,0.181,0.621,0.385,0.883,0.635c0.116,0.111,0.211,0.242,0.313,0.365h0.996C23.106,11,24,10.106,24,9.002V1.998
	C24,0.894,23.106,0,22.002,0z"/>
<path fill="#4A4A4A" d="M10,18v4.002C10,22.552,9.552,23,9.002,23H1.998C1.448,23,1,22.552,1,22.002v-7.004
	C1,14.448,1.448,14,1.998,14h0.211c-0.089-0.325-0.143-0.658-0.168-1H1.998C0.894,13,0,13.894,0,14.998v7.004
	C0,23.106,0.894,24,1.998,24h7.004C10.106,24,11,23.106,11,22.002V18H10z"/>
<path fill="#4A4A4A" d="M22.002,13h-0.073C21.967,13.229,22,13.46,22,13.7c0,0.103-0.023,0.199-0.03,0.3h0.032
	C22.552,14,23,14.448,23,14.998v7.004C23,22.552,22.552,23,22.002,23h-7.004C14.448,23,14,22.552,14,22.002V18h-1v4.002
	C13,23.106,13.894,24,14.998,24h7.004C23.106,24,24,23.106,24,22.002v-7.004C24,13.894,23.106,13,22.002,13z"/>
</svg>
