<?xml version="1.0" encoding="utf-8"?>
<!-- Generator: Adobe Illustrator 21.1.0, SVG Export Plug-In . SVG Version: 6.00 Build 0)  -->
<!DOCTYPE svg PUBLIC "-//W3C//DTD SVG 1.1//EN" "http://www.w3.org/Graphics/SVG/1.1/DTD/svg11.dtd">
<svg version="1.1" id="Layer_1" xmlns="http://www.w3.org/2000/svg" xmlns:xlink="http://www.w3.org/1999/xlink" x="0px" y="0px"
	 width="24px" height="24px" viewBox="0 0 24 24" enable-background="new 0 0 24 24" xml:space="preserve">
<path fill="#4A4A4A" d="M20.977,18c0.417,0,0.809,0.078,1.176,0.234s0.688,0.369,0.961,0.637c0.273,0.269,0.489,0.585,0.648,0.949
	C23.921,20.186,24,20.578,24,21c0,0.417-0.078,0.807-0.234,1.168c-0.156,0.362-0.371,0.68-0.645,0.953s-0.593,0.488-0.957,0.645
	S21.411,24,21,24h-9c-0.552,0-1.071-0.104-1.559-0.312c-0.487-0.208-0.911-0.493-1.273-0.855c-0.362-0.361-0.647-0.786-0.855-1.273
	C8.104,21.072,8,20.553,8,20c0-0.552,0.104-1.071,0.312-1.559c0.208-0.486,0.493-0.911,0.855-1.273
	c0.362-0.361,0.786-0.646,1.273-0.855C10.929,16.104,11.448,16,12,16c0.239,0,0.481,0.023,0.727,0.07
	c0.208-0.322,0.449-0.613,0.723-0.871s0.571-0.475,0.895-0.652c0.323-0.177,0.667-0.312,1.031-0.406S16.114,14,16.5,14
	c0.578,0,1.124,0.102,1.637,0.305s0.968,0.483,1.363,0.84c0.396,0.357,0.723,0.78,0.98,1.27C20.738,16.904,20.903,17.433,20.977,18z
	 M21,23c0.276,0,0.535-0.052,0.777-0.156c0.242-0.104,0.454-0.247,0.637-0.43c0.183-0.182,0.325-0.395,0.43-0.637S23,21.276,23,21
	c0-0.275-0.052-0.535-0.156-0.777s-0.247-0.454-0.43-0.637c-0.183-0.182-0.395-0.325-0.637-0.43C21.535,19.053,21.276,19,21,19h-1
	v-0.5c0-0.484-0.091-0.938-0.273-1.363c-0.183-0.424-0.433-0.795-0.75-1.113c-0.317-0.317-0.688-0.567-1.113-0.75
	C17.438,15.092,16.984,15,16.5,15c-0.364,0-0.716,0.055-1.055,0.164s-0.649,0.264-0.934,0.461c-0.284,0.198-0.535,0.437-0.754,0.715
	c-0.219,0.279-0.394,0.59-0.523,0.934C12.844,17.092,12.433,17,12,17c-0.417,0-0.806,0.078-1.168,0.234s-0.68,0.371-0.953,0.645
	s-0.488,0.593-0.645,0.957C9.078,19.201,9,19.589,9,20c0,0.417,0.078,0.807,0.234,1.168c0.156,0.362,0.371,0.68,0.645,0.953
	s0.591,0.488,0.953,0.645S11.583,23,12,23H21z M2,13h8v-1H2V13z M7.419,18H2v1h5.098c0.066-0.327,0.164-0.645,0.295-0.952
	C7.4,18.031,7.412,18.017,7.419,18z M2,4h8V3H2V4z M2,16h7.022c0.303-0.224,0.625-0.425,0.978-0.581V15H2V16z M7.393,21.952
	c-0.131-0.307-0.229-0.625-0.295-0.953H1V2.002C1,1.449,1.449,1,2.002,1h7.997C10.551,1,11,1.449,11,2.002v13.097
	C11.325,15.033,11.659,15,12,15V2.002C12,0.896,11.104,0,9.998,0H2.002C0.896,0,0,0.896,0,2.002v19.997h7.418
	C7.411,21.982,7.4,21.968,7.393,21.952z"/>
</svg>
