<?xml version="1.0" encoding="utf-8"?>
<!-- Generator: Adobe Illustrator 21.1.0, SVG Export Plug-In . SVG Version: 6.00 Build 0)  -->
<svg version="1.1" id="Layer_1" xmlns="http://www.w3.org/2000/svg" xmlns:xlink="http://www.w3.org/1999/xlink" x="0px" y="0px"
	 width="24px" height="24px" viewBox="0 0 24 24" enable-background="new 0 0 24 24" xml:space="preserve">
<g>
	<path fill="#4A4A4A" d="M9.29,1.32l1.438,2.314l0.293,0.472h0.556c0.089,0,0.178-0.002,0.266-0.007
		C11.896,4.095,11.948,4.094,12,4.094s0.104,0.001,0.155,0.004c0.089,0.005,0.178,0.007,0.266,0.007h0.556l0.293-0.472l1.44-2.313
		l2.924,1.214l-0.608,2.657l-0.129,0.565l0.426,0.393c0.184,0.169,0.36,0.346,0.529,0.529l0.393,0.426l0.565-0.129l2.657-0.608
		L22.68,9.29l-2.314,1.438l-0.472,0.293v0.556c0,0.089,0.002,0.178,0.007,0.266c0.003,0.052,0.004,0.104,0.004,0.155
		c0,0.052-0.001,0.104-0.004,0.155c-0.005,0.089-0.007,0.178-0.007,0.266v0.556l0.472,0.293l2.314,1.438l-1.214,2.924l-2.657-0.608
		l-0.565-0.129l-0.393,0.426c-0.169,0.184-0.346,0.36-0.529,0.529l-0.426,0.393l0.129,0.565l0.608,2.657L14.71,22.68l-1.438-2.314
		l-0.293-0.472h-0.556c-0.089,0-0.178,0.002-0.266,0.007c-0.052,0.003-0.104,0.004-0.155,0.004c-0.052,0-0.104-0.001-0.155-0.004
		c-0.089-0.005-0.178-0.007-0.266-0.007h-0.556l-0.293,0.472L9.29,22.68l-2.924-1.214l0.608-2.657l0.129-0.565l-0.426-0.393
		c-0.184-0.169-0.36-0.346-0.529-0.529l-0.393-0.426L5.19,17.025l-2.657,0.608L1.32,14.71l2.314-1.438l0.472-0.293v-0.556
		c0-0.089-0.002-0.178-0.007-0.266C4.095,12.104,4.094,12.052,4.094,12s0.001-0.104,0.004-0.155
		c0.005-0.089,0.007-0.178,0.007-0.266v-0.556L3.633,10.73L1.32,9.29l1.214-2.924l2.657,0.608l0.565,0.129l0.393-0.426
		c0.169-0.184,0.346-0.36,0.529-0.529l0.426-0.393L6.975,5.191L6.366,2.533L9.29,1.32 M14.309,0.07l-1.887,3.035
		c-0.07,0-0.141-0.002-0.211-0.006C12.141,3.096,12.07,3.094,12,3.094S11.859,3.096,11.789,3.1c-0.07,0.004-0.141,0.006-0.211,0.006
		L9.691,0.07L5.203,1.934L6,5.414C5.797,5.602,5.602,5.797,5.414,6l-3.48-0.797L0.07,9.691l3.035,1.887
		c0,0.07-0.002,0.141-0.006,0.211C3.096,11.859,3.094,11.93,3.094,12s0.002,0.141,0.006,0.211c0.004,0.07,0.006,0.141,0.006,0.211
		L0.07,14.309l1.863,4.488L5.414,18C5.602,18.203,5.797,18.398,6,18.586l-0.797,3.48l4.488,1.863l1.887-3.035
		c0.07,0,0.141,0.002,0.211,0.006c0.07,0.004,0.141,0.006,0.211,0.006s0.141-0.002,0.211-0.006c0.07-0.004,0.141-0.006,0.211-0.006
		l1.887,3.035l4.488-1.863L18,18.586c0.203-0.188,0.398-0.383,0.586-0.586l3.48,0.797l1.863-4.488l-3.035-1.887
		c0-0.07,0.002-0.141,0.006-0.211c0.004-0.07,0.006-0.141,0.006-0.211s-0.002-0.141-0.006-0.211
		c-0.004-0.07-0.006-0.141-0.006-0.211l3.035-1.887l-1.863-4.488L18.586,6C18.398,5.797,18.203,5.602,18,5.414l0.797-3.48
		L14.309,0.07L14.309,0.07z"/>
</g>
<g>
	<path fill="#4A4A4A" d="M13.253,8.394l-0.777,2.318l-0.442,1.318h1.39h0.97l-3.548,3.564l0.751-2.28L12.03,12h-1.382H9.625
		L13.253,8.394 M15.544,4.708L7.2,13h3.448l-2.072,6.291l8.225-8.26V11.03h-3.376L15.544,4.708L15.544,4.708z"/>
</g>
<g>
	<path fill="#4A4A4A" d="M7.982,17.723l0.33-0.997C6.907,15.628,6,13.922,6,12c0-3.314,2.686-6,6-6c0.245,0,0.484,0.019,0.721,0.047
		l0.863-0.86C13.075,5.069,12.546,5,12,5c-3.86,0-7,3.14-7,7C5,14.365,6.182,16.455,7.982,17.723z"/>
	<path fill="#4A4A4A" d="M16.014,6.274L15.68,7.268C17.09,8.366,18,10.075,18,12c0,3.314-2.686,6-6,6c-0.25,0-0.496-0.02-0.738-0.05
		l-0.856,0.86C10.919,18.93,11.451,19,12,19c3.86,0,7-3.14,7-7C19,9.634,17.817,7.542,16.014,6.274z"/>
</g>
</svg>
