<?xml version="1.0" encoding="utf-8"?>
<!-- Generator: Adobe Illustrator 21.1.0, SVG Export Plug-In . SVG Version: 6.00 Build 0)  -->
<!DOCTYPE svg PUBLIC "-//W3C//DTD SVG 1.1//EN" "http://www.w3.org/Graphics/SVG/1.1/DTD/svg11.dtd">
<svg version="1.1" id="Layer_1" xmlns="http://www.w3.org/2000/svg" xmlns:xlink="http://www.w3.org/1999/xlink" x="0px" y="0px"
	 width="24px" height="24px" viewBox="0 0 24 24" enable-background="new 0 0 24 24" xml:space="preserve">
<path fill="#4A4A4A" d="M18,1V0h6v6h-1V1.711L10.831,13.872l-0.703-0.703L22.289,1H18z M1,8H0V5h1V8z M1,14H0v-4h1V14z M1,19H0v-3h1
	V19z M24,14h-1v-4h1V14z M24,19h-1v-3h1V19z M3,1H1v2H0V0h3V1z M8,1H5V0h3V1z M14,1h-4V0h4V1z M3,23v1H0v-3h1v2H3z M24,21v3h-3v-1h2
	v-2H24z M8,24H5v-1h3V24z M14,24h-4v-1h4V24z M19,24h-3v-1h3V24z M18,10.121V18H6V6h7.879l0.999-1H5v14h14V9.122L18,10.121z"/>
</svg>
