<?xml version="1.0" encoding="utf-8"?>
<!-- Generator: Adobe Illustrator 21.1.0, SVG Export Plug-In . SVG Version: 6.00 Build 0)  -->
<!DOCTYPE svg PUBLIC "-//W3C//DTD SVG 1.1//EN" "http://www.w3.org/Graphics/SVG/1.1/DTD/svg11.dtd">
<svg version="1.1" id="Layer_1" xmlns="http://www.w3.org/2000/svg" xmlns:xlink="http://www.w3.org/1999/xlink" x="0px" y="0px"
	 width="24px" height="24px" viewBox="0 0 24 24" enable-background="new 0 0 24 24" xml:space="preserve">
<path fill="#4A4A4A" d="M14.25,8.5c0.715,0,1.403,0.126,2.044,0.373c0.638,0.247,1.216,0.594,1.719,1.033s0.926,0.965,1.257,1.564
	c0.175,0.316,0.32,0.651,0.432,0.996l0.167,0.516l0.524,0.141c0.141,0.038,0.281,0.086,0.417,0.141
	c0.428,0.175,0.809,0.423,1.135,0.734c0.327,0.314,0.588,0.687,0.774,1.108C22.905,15.534,23,16.002,23,16.5
	c0,0.48-0.093,0.939-0.275,1.364c-0.181,0.42-0.433,0.794-0.75,1.111s-0.691,0.57-1.111,0.75C20.439,19.907,19.98,20,19.5,20H6.75
	c-0.581,0-1.138-0.112-1.655-0.333c-0.514-0.219-0.969-0.525-1.352-0.909c-0.384-0.384-0.689-0.839-0.909-1.353
	C2.612,16.888,2.5,16.331,2.5,15.75c0-0.581,0.112-1.138,0.333-1.655c0.219-0.514,0.525-0.969,0.909-1.352
	c0.384-0.384,0.839-0.689,1.353-0.909C5.612,11.612,6.169,11.5,6.75,11.5c0.477,0,0.942,0.08,1.382,0.237l0.773,0.276l0.422-0.704
	c0.049-0.082,0.101-0.163,0.154-0.243c0.353-0.527,0.778-0.985,1.264-1.36c0.485-0.374,1.029-0.671,1.619-0.883
	C12.959,8.608,13.593,8.5,14.25,8.5 M14.25,7.5c-0.772,0-1.521,0.128-2.224,0.382c-0.688,0.247-1.324,0.595-1.891,1.033
	C9.562,9.356,9.063,9.892,8.65,10.509c-0.063,0.094-0.123,0.189-0.181,0.286C7.92,10.599,7.342,10.5,6.75,10.5
	c-0.717,0-1.406,0.139-2.048,0.414c-0.632,0.27-1.192,0.647-1.667,1.121c-0.474,0.474-0.852,1.035-1.121,1.667
	C1.639,14.344,1.5,15.033,1.5,15.75c0,0.717,0.139,1.406,0.414,2.048c0.27,0.632,0.647,1.192,1.121,1.667
	c0.474,0.474,1.035,0.851,1.667,1.121C5.344,20.861,6.033,21,6.75,21H19.5c0.617,0,1.209-0.12,1.759-0.356
	c0.537-0.231,1.016-0.555,1.423-0.962s0.731-0.886,0.962-1.423C23.88,17.709,24,17.117,24,16.5c0-0.637-0.124-1.241-0.368-1.795
	c-0.239-0.542-0.574-1.022-0.997-1.427c-0.416-0.399-0.903-0.714-1.447-0.937c-0.175-0.072-0.354-0.132-0.536-0.181
	c-0.132-0.407-0.302-0.799-0.508-1.173c-0.388-0.701-0.884-1.318-1.475-1.834S17.4,8.229,16.653,7.941
	C15.898,7.648,15.089,7.5,14.25,7.5L14.25,7.5z"/>
<path fill="#4B4B4B" d="M9,6H6.711l1.266-1.273L7.273,4.023L4.797,6.5l2.477,2.477l0.703-0.703L6.711,7H9c0.551,0,1,0.449,1,1v2l1-1
	V8C11,6.9,10.1,6,9,6z"/>
<path fill="#4B4B4B" d="M1.836,11.765c0.034,0.015,0.071,0.02,0.105,0.033c0.129-0.157,0.243-0.326,0.387-0.47
	c0.131-0.131,0.285-0.233,0.427-0.351c-0.182-0.022-0.358-0.059-0.525-0.131c-0.248-0.106-0.458-0.248-0.644-0.433
	C1.402,10.23,1.261,10.02,1.153,9.771C1.05,9.534,1,9.282,1,9c0-0.286,0.051-0.541,0.155-0.781c0.108-0.247,0.249-0.455,0.432-0.634
	c0.186-0.182,0.399-0.323,0.651-0.43C2.483,7.051,2.74,7,3.023,7h0.88l0.112-0.873C4.072,5.681,4.203,5.261,4.404,4.88
	c0.202-0.383,0.46-0.717,0.765-0.993c0.31-0.279,0.658-0.493,1.063-0.654C6.624,3.079,7.05,3,7.5,3c0.3,0,0.595,0.037,0.875,0.109
	c0.283,0.073,0.552,0.179,0.8,0.315C9.422,3.56,9.654,3.729,9.864,3.927c0.215,0.203,0.406,0.433,0.569,0.685l0.365,0.567
	l0.662-0.126C11.643,5.018,11.824,5,12,5c0.419,0,0.801,0.076,1.166,0.232c0.372,0.159,0.685,0.369,0.959,0.643
	c0.189,0.189,0.338,0.407,0.471,0.64c0.392,0.017,0.778,0.058,1.156,0.132c-0.024-0.068-0.036-0.14-0.065-0.206
	c-0.208-0.487-0.493-0.911-0.855-1.273c-0.362-0.362-0.787-0.647-1.273-0.855C13.071,4.104,12.552,4,12,4
	c-0.239,0-0.482,0.023-0.727,0.07c-0.208-0.323-0.449-0.613-0.723-0.871c-0.273-0.258-0.571-0.475-0.895-0.653
	C9.333,2.37,8.989,2.235,8.625,2.141C8.261,2.047,7.885,2,7.5,2C6.922,2,6.376,2.101,5.863,2.305C5.35,2.508,4.896,2.788,4.5,3.145
	s-0.723,0.78-0.981,1.269S3.096,5.432,3.023,6C2.607,6,2.215,6.078,1.847,6.234C1.481,6.39,1.16,6.603,0.887,6.871
	C0.613,7.139,0.397,7.455,0.238,7.82S0,8.578,0,9c0,0.417,0.078,0.806,0.234,1.167c0.157,0.362,0.371,0.68,0.645,0.953
	C1.153,11.394,1.471,11.609,1.836,11.765z"/>
</svg>
