<?xml version="1.0" encoding="utf-8"?>
<!-- Generator: Adobe Illustrator 21.1.0, SVG Export Plug-In . SVG Version: 6.00 Build 0)  -->
<svg version="1.1" id="Layer_1" xmlns="http://www.w3.org/2000/svg" xmlns:xlink="http://www.w3.org/1999/xlink" x="0px" y="0px"
	 width="24px" height="24px" viewBox="0 0 24 24" enable-background="new 0 0 24 24" xml:space="preserve">
<path d="M0,1v16h17V1H0z M16,16H1V5h15V16z M16,4H1V2h15V4z"/>
<polygon points="18,4 18,5 19,5 19,7 18,7 18,8 19,8 19,19 4,19 4,18 3,18 3,20 20,20 20,4 "/>
<polygon points="21,7 21,8 22,8 22,10 21,10 21,11 22,11 22,22 7,22 7,21 6,21 6,23 23,23 23,7 "/>
<g>
	<path d="M4.5,8.664l1.648-1.641l0.703,0.703L4.5,10.078L3.148,8.727l0.703-0.703L4.5,8.664z M4.5,12.664l1.648-1.641l0.703,0.703
		L4.5,14.078l-1.352-1.352l0.703-0.703L4.5,12.664z M8,8h6v1H8V8z M8,13v-1h6v1H8z"/>
</g>
</svg>
