<?xml version="1.0" encoding="utf-8"?>
<!-- Generator: Adobe Illustrator 21.1.0, SVG Export Plug-In . SVG Version: 6.00 Build 0)  -->
<svg version="1.1" id="Layer_1" xmlns="http://www.w3.org/2000/svg" xmlns:xlink="http://www.w3.org/1999/xlink" x="0px" y="0px"
	 width="24px" height="24px" viewBox="0 0 24 24" enable-background="new 0 0 24 24" xml:space="preserve">
<path fill="#4A4A4A" d="M6,15v8.001H1L0.999,15H6 M6.001,14H0.999C0.447,14,0,14.447,0,14.999v9.001h7v-9.001
	C7,14.447,6.553,14,6.001,14L6.001,14z M22,15v8.001h-5L16.999,15H22 M22.001,14h-5.001C16.447,14,16,14.447,16,14.999v9.001h7
	v-9.001C23,14.447,22.553,14,22.001,14L22.001,14z M2,16h3v1H2V16z M2,19h3v1H2V19z M2,21h3v1H2V21z M18,16h3v1h-3V16z M18,19h3v1
	h-3V19z M18,21h3v1h-3V21z M15.973,7.882L17.091,9H13.95c-0.2-0.985-0.98-1.758-1.968-1.951V4.887l1.14,1.14l0.707-0.707L11.51,3
	L9.171,5.339L9.884,6.04l1.098-1.099v2.114C10.011,7.26,9.248,8.026,9.05,9H5.909l1.118-1.118L6.32,7.175L4,9.495l2.339,2.338
	L7.04,11.12L5.92,10h3.13c0.199,0.98,0.97,1.751,1.95,1.95V14H7.722C7.894,14.295,8,14.633,8,14.999V15h3v4.05
	c-1.141,0.232-2,1.24-2,2.45c0,1.381,1.119,2.5,2.5,2.5c1.381,0,2.5-1.119,2.5-2.5c0-1.209-0.859-2.218-2-2.45V15h3v-0.001
	c0-0.366,0.106-0.704,0.278-0.999H12v-2.05c0.98-0.199,1.751-0.97,1.95-1.95h3.13l-1.12,1.12l0.701,0.713L19,9.495l-2.32-2.32
	L15.973,7.882z M13,21.5c0,0.827-0.673,1.5-1.5,1.5S10,22.327,10,21.5s0.673-1.5,1.5-1.5S13,20.673,13,21.5z M11.5,11
	c-0.827,0-1.5-0.673-1.5-1.5S10.673,8,11.5,8C12.327,8,13,8.673,13,9.5S12.327,11,11.5,11z M23.643,8.73
	c-0.238-0.547-0.562-1.021-0.973-1.424c-0.411-0.403-0.891-0.721-1.441-0.955S20.09,6,19.465,6
	c-0.109-0.852-0.357-1.645-0.744-2.379c-0.387-0.734-0.877-1.369-1.471-1.904c-0.594-0.535-1.275-0.955-2.045-1.26
	C14.435,0.152,13.617,0,12.75,0c-0.578,0-1.141,0.07-1.688,0.211S10,0.555,9.516,0.82C9.032,1.085,8.584,1.412,8.174,1.799
	C7.764,2.186,7.402,2.621,7.09,3.105C6.723,3.035,6.359,3,6,3C5.172,3,4.393,3.156,3.662,3.469c-0.731,0.313-1.367,0.74-1.91,1.283
	c-0.543,0.543-0.971,1.18-1.283,1.91C0.157,7.392,0,8.172,0,9s0.156,1.607,0.469,2.338c0.269,0.628,0.64,1.173,1.079,1.662h1.47
	c-0.194-0.144-0.389-0.289-0.559-0.459c-0.456-0.456-0.806-0.978-1.071-1.596C1.131,10.343,1,9.688,1,9
	c0-0.687,0.131-1.342,0.389-1.945c0.26-0.609,0.62-1.146,1.071-1.596c0.456-0.456,0.978-0.806,1.597-1.071C4.657,4.131,5.312,4,6,4
	c0.295,0,0.599,0.029,0.903,0.087l0.662,0.126l0.365-0.567c0.265-0.412,0.578-0.789,0.93-1.121C9.207,2.199,9.589,1.92,9.996,1.697
	c0.409-0.224,0.852-0.398,1.315-0.518C11.773,1.06,12.257,1,12.75,1c0.737,0,1.439,0.13,2.087,0.387
	c0.654,0.259,1.241,0.62,1.744,1.073c0.503,0.453,0.925,1,1.256,1.627c0.329,0.624,0.543,1.311,0.637,2.039L18.585,7h0.88
	c0.488,0,0.95,0.091,1.372,0.271c0.438,0.186,0.809,0.431,1.132,0.749c0.321,0.315,0.568,0.678,0.756,1.109
	C22.91,9.553,23,10.001,23,10.5c0,0.493-0.088,0.936-0.269,1.354c-0.187,0.433-0.434,0.799-0.755,1.119
	c-0.01,0.01-0.023,0.017-0.033,0.027H22c0.37,0,0.712,0.108,1.01,0.284c0.251-0.315,0.474-0.652,0.639-1.033
	C23.884,11.708,24,11.125,24,10.5C24,9.867,23.881,9.277,23.643,8.73z"/>
</svg>
