<?xml version="1.0" encoding="utf-8"?>
<!-- Generator: Adobe Illustrator 21.1.0, SVG Export Plug-In . SVG Version: 6.00 Build 0)  -->
<!DOCTYPE svg PUBLIC "-//W3C//DTD SVG 1.1//EN" "http://www.w3.org/Graphics/SVG/1.1/DTD/svg11.dtd">
<svg version="1.1" id="Layer_1" xmlns="http://www.w3.org/2000/svg" xmlns:xlink="http://www.w3.org/1999/xlink" x="0px" y="0px"
	 width="24px" height="24px" viewBox="0 0 24 24" enable-background="new 0 0 24 24" xml:space="preserve">
<path fill="#4A4A4A" d="M23.643,8.73c-0.238-0.547-0.562-1.021-0.973-1.424s-0.891-0.721-1.441-0.955S20.09,6,19.465,6
	c-0.109-0.852-0.357-1.645-0.744-2.379s-0.877-1.369-1.471-1.904s-1.275-0.955-2.045-1.26C14.435,0.152,13.617,0,12.75,0
	c-0.578,0-1.141,0.07-1.688,0.211S10,0.555,9.516,0.82S8.584,1.412,8.174,1.799S7.402,2.621,7.09,3.105C6.723,3.035,6.359,3,6,3
	C5.172,3,4.393,3.156,3.662,3.469s-1.367,0.74-1.91,1.283s-0.971,1.18-1.283,1.91S0,8.172,0,9s0.156,1.607,0.469,2.338
	s0.74,1.367,1.283,1.91s1.18,0.971,1.91,1.283S5.172,15,6,15h5v4.05c-1.141,0.232-2,1.24-2,2.45c0,1.381,1.119,2.5,2.5,2.5
	s2.5-1.119,2.5-2.5c0-1.209-0.859-2.218-2-2.45V15h7.5c0.617,0,1.199-0.117,1.746-0.352c0.547-0.235,1.025-0.557,1.436-0.967
	c0.411-0.41,0.732-0.887,0.967-1.43C23.884,11.708,24,11.125,24,10.5C24,9.867,23.881,9.277,23.643,8.73z M13,21.5
	c0,0.827-0.673,1.5-1.5,1.5S10,22.327,10,21.5s0.673-1.5,1.5-1.5S13,20.673,13,21.5z M11.5,8C12.327,8,13,8.673,13,9.5
	S12.327,11,11.5,11S10,10.327,10,9.5S10.673,8,11.5,8z M22.731,11.854c-0.187,0.433-0.434,0.799-0.755,1.119
	c-0.324,0.323-0.691,0.57-1.125,0.756C20.427,13.911,19.985,14,19.5,14H12v-2.05c0.979-0.199,1.751-0.97,1.95-1.95h3.131l-1.12,1.12
	l0.701,0.713L19,9.495l-2.32-2.32l-0.707,0.707L17.091,9H13.95c-0.2-0.985-0.98-1.758-1.967-1.951V4.887l1.14,1.14L13.83,5.32
	L11.51,3L9.171,5.339L9.884,6.04l1.099-1.099v2.114C10.011,7.26,9.248,8.027,9.05,9H5.909l1.118-1.118L6.32,7.175L4,9.495
	l2.339,2.339L7.04,11.12L5.92,10h3.13c0.199,0.979,0.97,1.751,1.95,1.95V14H6c-0.687,0-1.342-0.131-1.945-0.389
	c-0.609-0.26-1.146-0.62-1.596-1.071c-0.456-0.456-0.806-0.978-1.071-1.596C1.131,10.343,1,9.688,1,9
	c0-0.687,0.131-1.342,0.389-1.945c0.26-0.609,0.62-1.146,1.071-1.596c0.456-0.456,0.978-0.806,1.596-1.071C4.657,4.131,5.312,4,6,4
	c0.295,0,0.599,0.029,0.903,0.087l0.662,0.126L7.93,3.647c0.265-0.412,0.578-0.789,0.93-1.121C9.207,2.199,9.589,1.92,9.996,1.697
	c0.409-0.224,0.852-0.398,1.315-0.518C11.773,1.06,12.257,1,12.75,1c0.737,0,1.439,0.13,2.087,0.387
	c0.654,0.259,1.241,0.62,1.744,1.073s0.925,1,1.256,1.627c0.329,0.624,0.543,1.311,0.637,2.039L18.585,7h0.88
	c0.488,0,0.95,0.091,1.372,0.271c0.438,0.186,0.809,0.431,1.132,0.749c0.321,0.315,0.568,0.678,0.756,1.109
	C22.91,9.553,23,10.001,23,10.5C23,10.993,22.912,11.436,22.731,11.854z"/>
</svg>
