<?xml version="1.0" encoding="utf-8"?>
<!-- Generator: Adobe Illustrator 21.1.0, SVG Export Plug-In . SVG Version: 6.00 Build 0)  -->
<!DOCTYPE svg PUBLIC "-//W3C//DTD SVG 1.1//EN" "http://www.w3.org/Graphics/SVG/1.1/DTD/svg11.dtd">
<svg version="1.1" id="Layer_1" xmlns="http://www.w3.org/2000/svg" xmlns:xlink="http://www.w3.org/1999/xlink" x="0px" y="0px"
	 width="24px" height="24px" viewBox="0 0 24 24" enable-background="new 0 0 24 24" xml:space="preserve">
<path fill="#4A4A4A" d="M9.5,10C8.672,10,8,10.672,8,11.5S8.672,13,9.5,13s1.5-0.672,1.5-1.5S10.328,10,9.5,10z M9.5,12
	C9.224,12,9,11.776,9,11.5S9.224,11,9.5,11s0.5,0.224,0.5,0.5S9.776,12,9.5,12z M13.5,10c-0.828,0-1.5,0.672-1.5,1.5
	s0.672,1.5,1.5,1.5s1.5-0.672,1.5-1.5S14.328,10,13.5,10z M13.5,12c-0.276,0-0.5-0.224-0.5-0.5s0.224-0.5,0.5-0.5s0.5,0.224,0.5,0.5
	S13.776,12,13.5,12z M6,18c-0.552,0-1-0.448-1-1V8h1v9h9v1H6z M17,5c0.552,0,1,0.448,1,1v9h-1V6H8V5H17z M11.5,1
	C17.29,1,22,5.71,22,11.5S17.29,22,11.5,22S1,17.29,1,11.5S5.71,1,11.5,1 M11.5,0C5.149,0,0,5.149,0,11.5S5.149,23,11.5,23
	S23,17.851,23,11.5S17.851,0,11.5,0L11.5,0z"/>
</svg>
