<?xml version="1.0" encoding="utf-8"?>
<!-- Generator: Adobe Illustrator 21.1.0, SVG Export Plug-In . SVG Version: 6.00 Build 0)  -->
<svg version="1.1" id="Layer_1" xmlns="http://www.w3.org/2000/svg" xmlns:xlink="http://www.w3.org/1999/xlink" x="0px" y="0px"
	 width="24px" height="24px" viewBox="0 0 24 24" enable-background="new 0 0 24 24" xml:space="preserve">
<path fill="#4A4A4A" d="M24,21H11v-1h12V4H1v16h3v1H0V3h24V21z M22,5H2v14h2v-1H3V6h18v12H11v1h11V5z M19,8H5v1h14V8L19,8z M19,11
	h-6v1h6V11L19,11z M19,14h-6v1h6V14L19,14z M10,16.944v4.868l-2.5-1.258L5,21.812V21v-1v-3.056c-0.617-0.631-1-1.492-1-2.444
	C4,12.567,5.567,11,7.5,11s3.5,1.567,3.5,3.5C11,15.452,10.617,16.313,10,16.944z M5,14.5C5,15.878,6.122,17,7.5,17
	s2.5-1.122,2.5-2.5S8.878,12,7.5,12S5,13.122,5,14.5z M9,20.188V17.65C8.544,17.868,8.039,18,7.5,18S6.456,17.868,6,17.65v2.537
	l1.5-0.742L9,20.188z"/>
</svg>
