<?xml version="1.0" encoding="utf-8"?>
<!-- Generator: Adobe Illustrator 21.1.0, SVG Export Plug-In . SVG Version: 6.00 Build 0)  -->
<svg version="1.1" id="Layer_1" xmlns="http://www.w3.org/2000/svg" xmlns:xlink="http://www.w3.org/1999/xlink" x="0px" y="0px"
	 width="24px" height="24px" viewBox="0 0 24 24" enable-background="new 0 0 24 24" xml:space="preserve">
<path fill="#4A4A4A" d="M20.977,18c0.416,0,0.809,0.078,1.176,0.234s0.688,0.369,0.961,0.637c0.273,0.269,0.489,0.585,0.648,0.949
	C23.92,20.186,24,20.578,24,21c0,0.417-0.078,0.807-0.234,1.168c-0.156,0.362-0.371,0.68-0.645,0.953s-0.593,0.488-0.957,0.645
	C21.799,23.922,21.411,24,21,24h-9c-0.552,0-1.072-0.104-1.559-0.312c-0.487-0.208-0.912-0.493-1.273-0.855
	c-0.362-0.361-0.647-0.786-0.855-1.273C8.104,21.072,8,20.553,8,20c0-0.552,0.104-1.071,0.312-1.559
	c0.208-0.486,0.493-0.911,0.855-1.273c0.362-0.361,0.786-0.646,1.273-0.855C10.928,16.104,11.448,16,12,16
	c0.239,0,0.481,0.023,0.727,0.07c0.208-0.322,0.449-0.613,0.723-0.871s0.571-0.475,0.895-0.652c0.322-0.177,0.666-0.312,1.031-0.406
	C15.739,14.047,16.114,14,16.5,14c0.578,0,1.123,0.102,1.637,0.305c0.513,0.203,0.967,0.483,1.363,0.84
	c0.396,0.357,0.723,0.78,0.98,1.27C20.738,16.904,20.903,17.433,20.977,18z M21,23c0.275,0,0.535-0.052,0.777-0.156
	c0.242-0.104,0.454-0.247,0.637-0.43c0.182-0.182,0.325-0.395,0.43-0.637C22.947,21.535,23,21.276,23,21
	c0-0.275-0.053-0.535-0.156-0.777c-0.104-0.242-0.248-0.454-0.43-0.637c-0.183-0.182-0.395-0.325-0.637-0.43
	C21.535,19.053,21.275,19,21,19h-1v-0.5c0-0.484-0.092-0.938-0.273-1.363c-0.183-0.424-0.433-0.795-0.75-1.113
	c-0.318-0.317-0.689-0.567-1.113-0.75C17.438,15.092,16.984,15,16.5,15c-0.365,0-0.717,0.055-1.055,0.164
	c-0.339,0.109-0.65,0.264-0.934,0.461c-0.284,0.198-0.535,0.437-0.754,0.715c-0.219,0.279-0.394,0.59-0.523,0.934
	C12.844,17.092,12.432,17,12,17c-0.417,0-0.806,0.078-1.168,0.234c-0.362,0.156-0.68,0.371-0.953,0.645s-0.488,0.593-0.645,0.957
	C9.078,19.201,9,19.589,9,20c0,0.417,0.078,0.807,0.234,1.168c0.156,0.362,0.371,0.68,0.645,0.953s0.591,0.488,0.953,0.645
	C11.194,22.922,11.583,23,12,23H21z M6,12h5v-1H6V12z M3.289,11.406L7.359,8.5l-4.07-2.906L2.711,6.406L5.641,8.5l-2.93,2.094
	L3.289,11.406z M8.017,17H1V3h18v10.623c0.357,0.184,0.694,0.398,1,0.652V0H0v18h7.419C7.579,17.638,7.785,17.309,8.017,17z M1,1h18
	v1H1V1z"/>
</svg>
