<?xml version="1.0" encoding="utf-8"?>
<!-- Generator: Adobe Illustrator 21.1.0, SVG Export Plug-In . SVG Version: 6.00 Build 0)  -->
<!DOCTYPE svg PUBLIC "-//W3C//DTD SVG 1.1//EN" "http://www.w3.org/Graphics/SVG/1.1/DTD/svg11.dtd">
<svg version="1.1" id="Layer_1" xmlns="http://www.w3.org/2000/svg" xmlns:xlink="http://www.w3.org/1999/xlink" x="0px" y="0px"
	 width="24px" height="24px" viewBox="0 0 24 24" enable-background="new 0 0 24 24" xml:space="preserve">
<path fill="#4A4A4A" d="M12.75,5c0.737,0,1.439,0.13,2.087,0.387c0.654,0.259,1.241,0.62,1.744,1.073
	c0.502,0.453,0.925,1,1.256,1.627c0.329,0.624,0.543,1.311,0.637,2.04L18.585,11h0.88c0.488,0,0.95,0.091,1.373,0.271
	c0.438,0.186,0.809,0.431,1.132,0.749c0.321,0.315,0.569,0.678,0.756,1.109C22.91,13.553,23,14.001,23,14.5
	c0,0.493-0.088,0.936-0.269,1.354c-0.187,0.433-0.434,0.799-0.756,1.119c-0.324,0.323-0.691,0.57-1.124,0.756
	C20.427,17.911,19.985,18,19.5,18H6c-0.687,0-1.342-0.131-1.945-0.389c-0.609-0.26-1.146-0.62-1.596-1.071
	c-0.456-0.456-0.806-0.978-1.071-1.597C1.131,14.343,1,13.688,1,13c0-0.687,0.131-1.342,0.389-1.945
	c0.26-0.609,0.62-1.146,1.071-1.596c0.456-0.456,0.978-0.806,1.597-1.071C4.657,8.131,5.312,8,6,8c0.295,0,0.599,0.029,0.903,0.087
	l0.662,0.126l0.365-0.567c0.265-0.412,0.578-0.789,0.93-1.121C9.207,6.199,9.589,5.92,9.996,5.697
	c0.409-0.224,0.852-0.398,1.315-0.518C11.773,5.06,12.257,5,12.75,5 M12.75,4c-0.578,0-1.141,0.07-1.688,0.211
	C10.515,4.352,10,4.555,9.516,4.82S8.584,5.412,8.174,5.799C7.764,6.186,7.402,6.621,7.09,7.105C6.723,7.035,6.359,7,6,7
	C5.172,7,4.393,7.156,3.662,7.469s-1.367,0.74-1.91,1.283s-0.971,1.18-1.283,1.91C0.157,11.392,0,12.172,0,13
	s0.156,1.607,0.469,2.338s0.74,1.367,1.283,1.91c0.543,0.543,1.18,0.971,1.91,1.283S5.172,19,6,19h13.5
	c0.617,0,1.199-0.117,1.746-0.352c0.547-0.235,1.025-0.557,1.436-0.967c0.411-0.41,0.732-0.887,0.967-1.43
	C23.884,15.708,24,15.125,24,14.5c0-0.633-0.119-1.223-0.357-1.77c-0.238-0.547-0.562-1.021-0.973-1.424s-0.891-0.721-1.441-0.955
	S20.09,10,19.465,10c-0.109-0.852-0.357-1.645-0.744-2.379c-0.387-0.734-0.877-1.369-1.471-1.904
	c-0.594-0.535-1.275-0.955-2.045-1.26C14.435,4.152,13.617,4,12.75,4L12.75,4z M11.094,10.32l0.938-0.547
	C12.016,9.68,12.008,9.589,12.008,9.5c0-0.088,0.008-0.18,0.023-0.273L11.094,8.68l0.5-0.859l0.945,0.539
	c0.073-0.057,0.147-0.108,0.223-0.152c0.076-0.044,0.158-0.082,0.246-0.113V7h1v1.094c0.162,0.058,0.318,0.146,0.469,0.266
	l0.945-0.539l0.5,0.859l-0.938,0.547C15,9.32,15.008,9.412,15.008,9.5c0,0.089-0.008,0.18-0.023,0.273l0.938,0.547l-0.5,0.859
	l-0.945-0.539c-0.151,0.12-0.307,0.208-0.469,0.266V12h-1v-1.094c-0.088-0.031-0.17-0.069-0.246-0.113
	c-0.075-0.044-0.149-0.095-0.223-0.152l-0.945,0.539L11.094,10.32z M14.039,10.031c0.146-0.146,0.219-0.323,0.219-0.531
	c0-0.208-0.073-0.385-0.219-0.531c-0.146-0.146-0.323-0.219-0.531-0.219c-0.208,0-0.385,0.073-0.531,0.219
	c-0.146,0.146-0.219,0.323-0.219,0.531c0,0.208,0.073,0.386,0.219,0.531c0.146,0.146,0.323,0.219,0.531,0.219
	C13.716,10.25,13.894,10.177,14.039,10.031z M5.086,12.625l0.383-0.93l0.969,0.406c0.183-0.266,0.406-0.489,0.672-0.672
	l-0.406-0.969l0.93-0.383l0.398,0.969C8.188,11.016,8.347,11,8.508,11c0.162,0,0.32,0.016,0.477,0.047l0.398-0.969l0.93,0.383
	L9.906,11.43c0.266,0.183,0.49,0.406,0.672,0.672l0.969-0.406l0.383,0.93l-0.969,0.398c0.031,0.156,0.047,0.315,0.047,0.477
	s-0.016,0.32-0.047,0.477l0.969,0.398l-0.383,0.93l-0.969-0.406c-0.182,0.266-0.406,0.489-0.672,0.672l0.406,0.969l-0.93,0.383
	l-0.398-0.969C8.828,15.984,8.67,16,8.508,16c-0.161,0-0.32-0.016-0.477-0.047l-0.398,0.969l-0.93-0.383l0.406-0.969
	c-0.266-0.183-0.489-0.406-0.672-0.672l-0.969,0.406l-0.383-0.93l0.969-0.398C6.023,13.82,6.008,13.661,6.008,13.5
	s0.016-0.32,0.047-0.477L5.086,12.625z M9.094,14.883c0.183-0.078,0.342-0.185,0.477-0.32c0.136-0.136,0.242-0.294,0.32-0.477
	s0.117-0.378,0.117-0.586s-0.039-0.403-0.117-0.586c-0.078-0.182-0.185-0.341-0.32-0.477c-0.135-0.135-0.294-0.242-0.477-0.32
	C8.912,12.039,8.717,12,8.508,12c-0.208,0-0.403,0.039-0.586,0.117c-0.182,0.078-0.341,0.186-0.477,0.32
	c-0.135,0.136-0.242,0.295-0.32,0.477c-0.078,0.183-0.117,0.378-0.117,0.586s0.039,0.403,0.117,0.586s0.186,0.341,0.32,0.477
	c0.136,0.136,0.295,0.242,0.477,0.32C8.104,14.961,8.3,15,8.508,15C8.717,15,8.912,14.961,9.094,14.883z"/>
</svg>
