<?xml version="1.0" encoding="utf-8"?>
<!-- Generator: Adobe Illustrator 21.1.0, SVG Export Plug-In . SVG Version: 6.00 Build 0)  -->
<svg version="1.1" id="Layer_1" xmlns="http://www.w3.org/2000/svg" xmlns:xlink="http://www.w3.org/1999/xlink" x="0px" y="0px"
	 width="24px" height="24px" viewBox="0 0 24 24" enable-background="new 0 0 24 24" xml:space="preserve">
<path fill="#4A4A4A" d="M23.643,12.73c-0.238-0.547-0.562-1.021-0.973-1.424c-0.411-0.403-0.891-0.721-1.441-0.955
	S20.09,10,19.465,10c-0.109-0.852-0.357-1.645-0.744-2.379c-0.387-0.734-0.877-1.369-1.471-1.904
	c-0.594-0.535-1.275-0.955-2.045-1.26C14.435,4.152,13.617,4,12.75,4c-0.578,0-1.141,0.07-1.688,0.211S10,4.555,9.516,4.82
	S8.584,5.412,8.174,5.799C7.764,6.186,7.402,6.621,7.09,7.105C6.723,7.035,6.359,7,6,7C5.172,7,4.393,7.156,3.662,7.469
	c-0.731,0.313-1.367,0.74-1.91,1.283c-0.543,0.543-0.971,1.18-1.283,1.91C0.157,11.392,0,12.172,0,13s0.156,1.607,0.469,2.338
	c0.313,0.731,0.74,1.367,1.283,1.91c0.543,0.543,1.18,0.971,1.91,1.283C4.392,18.843,5.172,19,6,19h13.5
	c0.617,0,1.199-0.117,1.746-0.352c0.547-0.235,1.025-0.557,1.436-0.967c0.411-0.41,0.732-0.887,0.967-1.43
	C23.884,15.708,24,15.125,24,14.5C24,13.867,23.881,13.277,23.643,12.73z M22.731,15.854c-0.187,0.433-0.434,0.799-0.755,1.119
	c-0.324,0.323-0.691,0.57-1.125,0.756C20.427,17.911,19.985,18,19.5,18H16v-2.5l0.001-0.001c0-0.275,0.224-0.499,0.499-0.499h1.592
	c0.207,0.581,0.756,1,1.408,1c0.828,0,1.5-0.672,1.5-1.5S20.328,13,19.5,13c-0.652,0-1.202,0.419-1.408,1H16.5
	c-0.828,0-1.499,0.671-1.499,1.499L15,15.5V18H9V9.5l0.001-0.001C9.001,9.224,9.225,9,9.5,9h1.592c0.207,0.581,0.756,1,1.408,1
	c0.828,0,1.5-0.672,1.5-1.5S13.328,7,12.5,7c-0.652,0-1.202,0.419-1.408,1H9.5C8.672,8,8.001,8.671,8.001,9.499L8,9.5V15H5.5
	l-0.001-0.001C5.224,14.999,5,14.775,5,14.5v-0.592c0.581-0.207,1-0.756,1-1.408C6,11.672,5.328,11,4.5,11S3,11.672,3,12.5
	c0,0.652,0.419,1.202,1,1.408V14.5c0,0.828,0.671,1.499,1.499,1.499L5.5,16H8v2H6c-0.687,0-1.342-0.131-1.945-0.389
	c-0.609-0.26-1.146-0.62-1.596-1.071c-0.456-0.456-0.806-0.978-1.071-1.596C1.131,14.343,1,13.688,1,13
	c0-0.687,0.131-1.342,0.389-1.945c0.26-0.609,0.62-1.146,1.071-1.596c0.456-0.456,0.978-0.806,1.596-1.071C4.657,8.131,5.312,8,6,8
	c0.295,0,0.599,0.029,0.903,0.087l0.662,0.126L7.93,7.647c0.265-0.412,0.578-0.789,0.93-1.121C9.207,6.199,9.589,5.92,9.996,5.697
	c0.409-0.224,0.852-0.398,1.315-0.518C11.773,5.06,12.257,5,12.75,5c0.737,0,1.439,0.13,2.087,0.387
	C15.258,5.554,15.639,5.777,16,6.026V10.5l-0.001,0.001c0,0.275-0.224,0.499-0.499,0.499h-2c-0.828,0-1.499,0.671-1.499,1.499
	L12,12.5v1.592c-0.581,0.207-1,0.756-1,1.408c0,0.828,0.672,1.5,1.5,1.5s1.5-0.672,1.5-1.5c0-0.652-0.419-1.202-1-1.408V12.5
	l0.001-0.001c0-0.275,0.224-0.499,0.499-0.499h2c0.828,0,1.499-0.671,1.499-1.499L17,10.5V6.913
	c0.316,0.355,0.606,0.737,0.836,1.174c0.329,0.624,0.543,1.311,0.637,2.039L18.585,11h0.88c0.488,0,0.95,0.091,1.372,0.271
	c0.438,0.186,0.809,0.431,1.132,0.749c0.321,0.315,0.568,0.678,0.756,1.109C22.91,13.553,23,14.001,23,14.5
	C23,14.993,22.912,15.436,22.731,15.854z M19,14.5c0-0.276,0.224-0.5,0.5-0.5s0.5,0.224,0.5,0.5S19.776,15,19.5,15
	S19,14.776,19,14.5z M12,8.5C12,8.224,12.224,8,12.5,8S13,8.224,13,8.5S12.776,9,12.5,9S12,8.776,12,8.5z M4.5,13
	C4.224,13,4,12.776,4,12.5S4.224,12,4.5,12S5,12.224,5,12.5S4.776,13,4.5,13z M13,15.5c0,0.276-0.224,0.5-0.5,0.5S12,15.776,12,15.5
	s0.224-0.5,0.5-0.5S13,15.224,13,15.5z"/>
</svg>
