<?xml version="1.0" encoding="utf-8"?>
<!-- Generator: Adobe Illustrator 21.1.0, SVG Export Plug-In . SVG Version: 6.00 Build 0)  -->
<svg version="1.1" id="Layer_1" xmlns="http://www.w3.org/2000/svg" xmlns:xlink="http://www.w3.org/1999/xlink" x="0px" y="0px"
	 width="24px" height="24px" viewBox="0 0 24 24" enable-background="new 0 0 24 24" xml:space="preserve">
<rect x="4" y="14" fill="#4A4A4A" width="1" height="6"/>
<rect x="8" y="14" fill="#4A4A4A" width="1" height="6"/>
<rect x="6" y="14" fill="#4A4A4A" width="1" height="6"/>
<path fill="#4A4A4A" d="M0,12v10h11V12H0z M10,21H1v-8h9V21z"/>
<rect x="2" y="14" fill="#4A4A4A" width="1" height="6"/>
<rect x="10" y="3" fill="#4A4A4A" width="1" height="6"/>
<rect x="12" y="3" fill="#4A4A4A" width="1" height="6"/>
<path fill="#4A4A4A" d="M6,1v10h11V1H6z M16,10H7V2h9V10z"/>
<rect x="14" y="3" fill="#4A4A4A" width="1" height="6"/>
<rect x="8" y="3" fill="#4A4A4A" width="1" height="6"/>
<rect x="16" y="14" fill="#4A4A4A" width="1" height="6"/>
<rect x="18" y="14" fill="#4A4A4A" width="1" height="6"/>
<rect x="20" y="14" fill="#4A4A4A" width="1" height="6"/>
<path fill="#4A4A4A" d="M12,12v10h11V12H12z M22,21h-9v-8h9V21z"/>
<rect x="14" y="14" fill="#4A4A4A" width="1" height="6"/>
</svg>
