<?xml version="1.0" encoding="utf-8"?>
<!-- Generator: Adobe Illustrator 21.1.0, SVG Export Plug-In . SVG Version: 6.00 Build 0)  -->
<svg version="1.1" id="Layer_1" xmlns="http://www.w3.org/2000/svg" xmlns:xlink="http://www.w3.org/1999/xlink" x="0px" y="0px"
	 width="24px" height="24px" viewBox="0 0 24 24" enable-background="new 0 0 24 24" xml:space="preserve">
<path fill="#4A4A4A" d="M18,22h-1v-6h1V22z M22,16h-1v6h1V16z M20,16h-1v6h1V16z M24,14v10H13V14H24z M23,15h-9v8h9V15z M16,16h-1v6
	h1V16z M10,19H9v3h1V19z M12,17v7H5v-7H12z M11,18H6v5h5V18z M8,19H7v3h1V19z M12,14H6c-0.687,0-1.342-0.131-1.945-0.389
	c-0.609-0.26-1.146-0.62-1.596-1.071c-0.456-0.456-0.806-0.978-1.071-1.596C1.131,10.343,1,9.688,1,9
	c0-0.687,0.131-1.342,0.389-1.945c0.26-0.609,0.62-1.146,1.071-1.596c0.456-0.456,0.978-0.806,1.596-1.071C4.657,4.131,5.312,4,6,4
	c0.295,0,0.599,0.029,0.903,0.087l0.662,0.126L7.93,3.647c0.265-0.412,0.578-0.789,0.93-1.121C9.207,2.199,9.589,1.92,9.996,1.697
	c0.409-0.224,0.852-0.398,1.315-0.518C11.773,1.06,12.257,1,12.75,1c0.737,0,1.439,0.13,2.087,0.387
	c0.654,0.259,1.241,0.62,1.744,1.073c0.503,0.453,0.925,1,1.256,1.627c0.329,0.624,0.543,1.311,0.637,2.039L18.585,7h0.88
	c0.488,0,0.95,0.091,1.372,0.271c0.438,0.186,0.809,0.431,1.132,0.749c0.321,0.315,0.568,0.678,0.756,1.109
	C22.91,9.553,23,10.001,23,10.5c0,0.493-0.088,0.936-0.269,1.354c-0.187,0.433-0.434,0.799-0.755,1.119
	c-0.01,0.01-0.023,0.017-0.033,0.027h1.297c0.157-0.234,0.294-0.483,0.409-0.749C23.884,11.708,24,11.125,24,10.5
	c0-0.633-0.119-1.223-0.357-1.77s-0.562-1.021-0.973-1.424c-0.411-0.403-0.891-0.721-1.441-0.955S20.09,6,19.465,6
	c-0.109-0.852-0.357-1.645-0.744-2.379c-0.387-0.734-0.877-1.369-1.471-1.904c-0.594-0.535-1.275-0.955-2.045-1.26
	C14.435,0.152,13.617,0,12.75,0c-0.578,0-1.141,0.07-1.688,0.211S10,0.555,9.516,0.82S8.584,1.412,8.174,1.799
	C7.764,2.186,7.402,2.621,7.09,3.105C6.723,3.035,6.359,3,6,3C5.172,3,4.393,3.156,3.662,3.469c-0.731,0.313-1.367,0.74-1.91,1.283
	c-0.543,0.543-0.971,1.18-1.283,1.91C0.157,7.392,0,8.172,0,9s0.156,1.607,0.469,2.338c0.313,0.731,0.74,1.367,1.283,1.91
	c0.543,0.543,1.18,0.971,1.91,1.283C4.392,14.843,5.172,15,6,15h6V14z"/>
</svg>
