<?xml version="1.0" encoding="utf-8"?>
<!-- Generator: Adobe Illustrator 21.1.0, SVG Export Plug-In . SVG Version: 6.00 Build 0)  -->
<svg version="1.1" id="Layer_1" xmlns="http://www.w3.org/2000/svg" xmlns:xlink="http://www.w3.org/1999/xlink" x="0px" y="0px"
	 width="24px" height="24px" viewBox="0 0 24 24" enable-background="new 0 0 24 24" xml:space="preserve">
<path fill="#4A4A4A" d="M11.5,8c0.505,0,0.992,0.065,1.461,0.195c0.469,0.13,0.907,0.315,1.316,0.555
	c0.409,0.24,0.78,0.526,1.113,0.859c0.333,0.333,0.62,0.705,0.859,1.113c0.239,0.409,0.425,0.848,0.555,1.316S17,12.995,17,13.5
	c0,0.756-0.144,1.456-0.43,2.102c-0.286,0.646-0.695,1.232-1.227,1.758c-0.433,0.428-0.765,0.904-0.996,1.43
	C14.116,19.315,14,19.886,14,20.5v2c0,0.209-0.039,0.404-0.117,0.586c-0.078,0.183-0.185,0.342-0.32,0.477
	c-0.136,0.136-0.294,0.242-0.477,0.32S12.708,24,12.5,24h-2c-0.208,0-0.403-0.039-0.586-0.117s-0.341-0.185-0.477-0.32
	c-0.136-0.135-0.242-0.294-0.32-0.477C9.039,22.904,9,22.709,9,22.5v-2c0-0.614-0.116-1.185-0.348-1.711
	c-0.231-0.525-0.563-1.002-0.996-1.43c-0.531-0.525-0.94-1.111-1.227-1.758C6.144,14.956,6,14.256,6,13.5
	c0-0.505,0.065-0.992,0.195-1.461s0.315-0.907,0.555-1.316c0.239-0.409,0.526-0.78,0.859-1.113C7.942,9.276,8.313,8.99,8.723,8.75
	c0.409-0.239,0.848-0.424,1.316-0.555C10.508,8.065,10.995,8,11.5,8z M13.023,20c0.067-0.672,0.239-1.281,0.516-1.828
	s0.648-1.057,1.117-1.531c0.433-0.438,0.765-0.915,0.996-1.434C15.884,14.689,16,14.12,16,13.5c0-0.619-0.118-1.203-0.355-1.75
	s-0.559-1.023-0.965-1.43s-0.883-0.728-1.43-0.965C12.703,9.119,12.12,9,11.5,9s-1.203,0.119-1.75,0.355
	C9.203,9.593,8.727,9.914,8.32,10.32s-0.728,0.883-0.965,1.43S7,12.881,7,13.5c0,0.62,0.116,1.189,0.348,1.707
	c0.231,0.519,0.563,0.996,0.996,1.434c0.469,0.475,0.841,0.984,1.117,1.531S9.909,19.328,9.977,20H13.023z M12.5,23
	c0.136,0,0.253-0.049,0.352-0.148C12.95,22.753,13,22.636,13,22.5V21h-3v1.5c0,0.136,0.05,0.253,0.148,0.352
	C10.247,22.951,10.364,23,10.5,23H12.5z M23.643,8.73c-0.238-0.547-0.562-1.021-0.973-1.424c-0.411-0.403-0.891-0.721-1.441-0.955
	S20.09,6,19.465,6c-0.109-0.852-0.357-1.645-0.744-2.379c-0.387-0.734-0.877-1.369-1.471-1.904c-0.594-0.535-1.275-0.955-2.045-1.26
	C14.435,0.152,13.617,0,12.75,0c-0.578,0-1.141,0.07-1.688,0.211S10,0.555,9.516,0.82S8.584,1.412,8.174,1.799
	C7.764,2.186,7.402,2.621,7.09,3.105C6.723,3.035,6.359,3,6,3C5.172,3,4.393,3.156,3.662,3.469c-0.731,0.313-1.367,0.74-1.91,1.283
	c-0.543,0.543-0.971,1.18-1.283,1.91C0.157,7.392,0,8.172,0,9s0.156,1.607,0.469,2.338c0.313,0.731,0.74,1.367,1.283,1.91
	c0.543,0.543,1.18,0.971,1.91,1.283c0.479,0.205,0.982,0.336,1.504,0.407c-0.077-0.335-0.125-0.68-0.146-1.033
	c-0.333-0.065-0.656-0.161-0.965-0.293c-0.609-0.26-1.146-0.62-1.596-1.071c-0.456-0.456-0.806-0.978-1.071-1.596
	C1.131,10.343,1,9.688,1,9c0-0.687,0.131-1.342,0.389-1.945c0.26-0.609,0.62-1.146,1.071-1.596c0.456-0.456,0.978-0.806,1.596-1.071
	C4.657,4.131,5.312,4,6,4c0.295,0,0.599,0.029,0.903,0.087l0.662,0.126L7.93,3.647c0.265-0.412,0.578-0.789,0.93-1.121
	C9.207,2.199,9.589,1.92,9.996,1.697c0.409-0.224,0.852-0.398,1.315-0.518C11.773,1.06,12.257,1,12.75,1
	c0.737,0,1.439,0.13,2.087,0.387c0.654,0.259,1.241,0.62,1.744,1.073c0.503,0.453,0.925,1,1.256,1.627
	c0.329,0.624,0.543,1.311,0.637,2.039L18.585,7h0.88c0.488,0,0.95,0.091,1.372,0.271c0.438,0.186,0.809,0.431,1.132,0.749
	c0.321,0.315,0.568,0.678,0.756,1.109C22.91,9.553,23,10.001,23,10.5c0,0.493-0.088,0.936-0.269,1.354
	c-0.187,0.433-0.434,0.799-0.755,1.119c-0.324,0.323-0.691,0.57-1.125,0.756C20.427,13.911,19.985,14,19.5,14h-1.525
	c-0.026,0.342-0.079,0.675-0.158,1H19.5c0.617,0,1.199-0.117,1.746-0.352c0.547-0.235,1.025-0.557,1.436-0.967
	c0.411-0.41,0.732-0.887,0.967-1.43C23.884,11.708,24,11.125,24,10.5C24,9.867,23.881,9.277,23.643,8.73z"/>
</svg>
