<?xml version="1.0" encoding="utf-8"?>
<!-- Generator: Adobe Illustrator 21.1.0, SVG Export Plug-In . SVG Version: 6.00 Build 0)  -->
<svg version="1.1" id="Layer_1" xmlns="http://www.w3.org/2000/svg" xmlns:xlink="http://www.w3.org/1999/xlink" x="0px" y="0px"
	 width="24px" height="24px" viewBox="0 0 24 24" enable-background="new 0 0 24 24" xml:space="preserve">
<path d="M23,3v18H1V3H23 M24,2H0v20h24V2L24,2z"/>
<path d="M7,6v10H3V6H7 M8,5H2v12h6V5L8,5z"/>
<path d="M19,6v4h-9V6H19 M20,5H9v6h11V5L20,5z"/>
<path d="M13,13v3h-3v-3H13 M14,12H9v5h5V12L14,12z"/>
<path d="M19,13v3h-3v-3H19 M20,12h-5v5h5V12L20,12z"/>
</svg>
