<?xml version="1.0" encoding="utf-8"?>
<!-- Generator: Adobe Illustrator 21.1.0, SVG Export Plug-In . SVG Version: 6.00 Build 0)  -->
<!DOCTYPE svg PUBLIC "-//W3C//DTD SVG 1.1//EN" "http://www.w3.org/Graphics/SVG/1.1/DTD/svg11.dtd">
<svg version="1.1" id="Layer_1" xmlns="http://www.w3.org/2000/svg" xmlns:xlink="http://www.w3.org/1999/xlink" x="0px" y="0px"
	 width="24px" height="24px" viewBox="0 0 24 24" enable-background="new 0 0 24 24" xml:space="preserve">
<path fill="#4A4A4A" d="M16,8.174 M2,12 M10.971,18.029v0.943h-0.943v-0.943H10.971 M12,17H9v3h3V17L12,17z M15.971,18.029v0.943
	h-0.943v-0.943H15.971 M17,17h-3v3h3V17L17,17z M20.971,18.029v0.943h-0.943v-0.943H20.971 M22,17h-3v3h3V17L22,17z M17,12V6l-7,6
	V2.5C10,1.119,7.761,0,5,0S0,1.119,0,2.5V24h24V6L17,12z M5,1c2.481,0,4,0.971,4,1.5S7.481,4,5,4S1,3.029,1,2.5S2.519,1,5,1z M23,23
	H1V3.986C1.911,4.598,3.357,5,5,5s3.089-0.402,4-1.014v10.188l7-6v6l7-6V23z"/>
</svg>
