<?xml version="1.0" encoding="utf-8"?>
<!-- Generator: Adobe Illustrator 21.1.0, SVG Export Plug-In . SVG Version: 6.00 Build 0)  -->
<!DOCTYPE svg PUBLIC "-//W3C//DTD SVG 1.1//EN" "http://www.w3.org/Graphics/SVG/1.1/DTD/svg11.dtd">
<svg version="1.1" id="Layer_1" xmlns="http://www.w3.org/2000/svg" xmlns:xlink="http://www.w3.org/1999/xlink" x="0px" y="0px"
	 width="24px" height="24px" viewBox="0 0 24 24" enable-background="new 0 0 24 24" xml:space="preserve">
<path fill="#4A4A4A" d="M12,0C7.029,0,3,1.567,3,3.5v17c0,1.933,4.029,3.5,9,3.5s9-1.567,9-3.5v-17C21,1.567,16.971,0,12,0z M12,1
	c5.176,0,8,1.651,8,2.5S17.176,6,12,6S4,4.349,4,3.5S6.824,1,12,1z M12,23c-5.176,0-8-1.651-8-2.5V5.099C5.494,6.227,8.512,7,12,7
	c3.504,0,6.533-0.78,8.019-1.917L20,20.5C20,21.349,17.176,23,12,23z M18,11v2v1h-1h-2v-1h1.234c-0.792-1.519-2.412-2.5-4.234-2.5
	c-2.252,0-4.21,1.516-4.655,3.604l-0.979-0.209C6.91,11.349,9.279,9.5,12,9.5c2.118,0,4.003,1.111,5,2.84V11H18z M17.634,16.104
	C17.09,18.651,14.721,20.5,12,20.5c-2.118,0-4.003-1.11-5-2.839V19H6v-2v-1h1h2v1H7.765c0.792,1.519,2.412,2.5,4.235,2.5
	c2.252,0,4.21-1.516,4.655-3.604L17.634,16.104z"/>
</svg>
