<?xml version="1.0" encoding="utf-8"?>
<!-- Generator: Adobe Illustrator 21.1.0, SVG Export Plug-In . SVG Version: 6.00 Build 0)  -->
<!DOCTYPE svg PUBLIC "-//W3C//DTD SVG 1.1//EN" "http://www.w3.org/Graphics/SVG/1.1/DTD/svg11.dtd">
<svg version="1.1" id="Layer_1" xmlns="http://www.w3.org/2000/svg" xmlns:xlink="http://www.w3.org/1999/xlink" x="0px" y="0px"
	 width="24px" height="24px" viewBox="0 0 24 24" enable-background="new 0 0 24 24" xml:space="preserve">
<path fill="#4A4A4A" d="M18.5,10c0.375,0,0.79,0.021,1.246,0.062c0.455,0.042,0.911,0.113,1.367,0.215
	c0.455,0.102,0.889,0.241,1.301,0.418c0.411,0.177,0.758,0.398,1.039,0.664c0.161,0.151,0.293,0.323,0.395,0.516
	C23.949,12.068,24,12.276,24,12.5v9c0,0.234-0.051,0.444-0.152,0.629c-0.102,0.186-0.233,0.355-0.395,0.512
	c-0.271,0.266-0.613,0.486-1.027,0.66c-0.414,0.175-0.852,0.314-1.312,0.418c-0.461,0.104-0.921,0.178-1.379,0.219
	C19.275,23.979,18.864,24,18.5,24c-0.375,0-0.791-0.021-1.246-0.062c-0.456-0.041-0.912-0.113-1.367-0.215
	c-0.456-0.102-0.89-0.24-1.301-0.418c-0.412-0.177-0.758-0.398-1.039-0.664c-0.162-0.15-0.293-0.322-0.395-0.516
	C13.051,21.933,13,21.725,13,21.5v-9c0-0.234,0.051-0.443,0.152-0.629c0.102-0.185,0.232-0.355,0.395-0.512
	c0.271-0.266,0.613-0.485,1.027-0.66c0.414-0.174,0.852-0.313,1.312-0.418c0.461-0.104,0.92-0.177,1.379-0.219
	C17.724,10.021,18.135,10,18.5,10z M18.5,11c-0.266,0-0.543,0.009-0.832,0.027c-0.289,0.019-0.58,0.05-0.871,0.094
	c-0.292,0.044-0.577,0.102-0.855,0.172c-0.279,0.07-0.543,0.155-0.793,0.254c-0.078,0.031-0.183,0.08-0.312,0.145
	c-0.131,0.065-0.258,0.14-0.383,0.223c-0.125,0.083-0.232,0.176-0.32,0.277C14.044,12.293,14,12.396,14,12.5
	c0,0.042,0.008,0.081,0.023,0.117c0.016,0.037,0.036,0.073,0.062,0.109c0.109,0.167,0.267,0.312,0.473,0.438
	c0.205,0.125,0.438,0.234,0.695,0.328s0.532,0.174,0.824,0.238c0.291,0.065,0.582,0.117,0.871,0.156s0.567,0.068,0.836,0.086
	C18.053,13.991,18.291,14,18.5,14c0.208,0,0.446-0.009,0.715-0.027c0.268-0.018,0.547-0.047,0.836-0.086s0.579-0.091,0.871-0.156
	c0.291-0.064,0.566-0.145,0.824-0.238s0.488-0.203,0.691-0.328s0.361-0.271,0.477-0.438c0.025-0.036,0.047-0.072,0.062-0.109
	C22.992,12.581,23,12.542,23,12.5c0-0.104-0.045-0.207-0.133-0.309c-0.089-0.102-0.195-0.194-0.32-0.277
	c-0.125-0.083-0.253-0.157-0.383-0.223c-0.131-0.065-0.234-0.113-0.312-0.145c-0.25-0.099-0.515-0.184-0.793-0.254
	c-0.279-0.07-0.564-0.127-0.855-0.172c-0.292-0.044-0.582-0.075-0.871-0.094C19.043,11.009,18.766,11,18.5,11z M18.5,23
	c0.266,0,0.543-0.009,0.832-0.027c0.289-0.018,0.579-0.049,0.871-0.094c0.291-0.044,0.576-0.1,0.855-0.168
	c0.278-0.067,0.543-0.153,0.793-0.258c0.078-0.031,0.182-0.079,0.312-0.145c0.13-0.064,0.258-0.139,0.383-0.223
	c0.125-0.083,0.231-0.176,0.32-0.277C22.955,21.707,23,21.604,23,21.5v-7.516c-0.297,0.193-0.633,0.354-1.008,0.484
	c-0.375,0.131-0.765,0.234-1.168,0.312c-0.404,0.078-0.807,0.135-1.207,0.168C19.216,14.983,18.844,15,18.5,15
	s-0.718-0.017-1.121-0.051c-0.404-0.033-0.807-0.09-1.207-0.168c-0.401-0.078-0.789-0.182-1.164-0.312
	c-0.375-0.13-0.711-0.291-1.008-0.484V21.5c0,0.104,0.044,0.207,0.133,0.309c0.088,0.102,0.195,0.194,0.32,0.277
	c0.125,0.084,0.252,0.158,0.383,0.223c0.13,0.065,0.234,0.113,0.312,0.145c0.25,0.104,0.514,0.19,0.793,0.258
	c0.278,0.068,0.563,0.124,0.855,0.168c0.291,0.045,0.582,0.076,0.871,0.094C17.957,22.991,18.234,23,18.5,23z M12,20H2.5
	C2.224,20,2,19.776,2,19.5S2.224,19,2.5,19H12v-1H2.5c-0.176,0-0.343,0.036-0.5,0.092V16h1v-1H2v-2.977h1v-1H2V8.039h1v-1H2V4h1V3H2
	V2c0-0.551,0.449-1,1-1h13v8.253c0.333-0.065,0.667-0.123,1-0.159V0H3C1.895,0,1,0.895,1,2v1H0v1h1v3.039H0v1h1v2.984H0v1h1V15H0v1
	h1v3.5C1,20.328,1.672,21,2.5,21H12V20z"/>
</svg>
