<?xml version="1.0" encoding="utf-8"?>
<!-- Generator: Adobe Illustrator 21.1.0, SVG Export Plug-In . SVG Version: 6.00 Build 0)  -->
<!DOCTYPE svg PUBLIC "-//W3C//DTD SVG 1.1//EN" "http://www.w3.org/Graphics/SVG/1.1/DTD/svg11.dtd">
<svg version="1.1" id="Layer_1" xmlns="http://www.w3.org/2000/svg" xmlns:xlink="http://www.w3.org/1999/xlink" x="0px" y="0px"
	 width="24px" height="24px" viewBox="0 0 24 24" enable-background="new 0 0 24 24" xml:space="preserve">
<path fill="#4A4A4A" d="M15.248,11.336l-5.635,5.659l1.452-4.381H8.752l5.635-5.61l-1.452,4.331H15.248z M19.997,4L20,4.003
	L19.997,20L4,19.997L4.003,4H19.997 M19.997,3H4.003C3.449,3,3,3.449,3,4.003v15.995C3,20.551,3.449,21,4.003,21h15.995
	C20.551,21,21,20.551,21,19.997V4.003C21,3.449,20.551,3,19.997,3L19.997,3z M0.499,15.569L2,16.476v-1.171L1.015,14.71L2,13.079
	v-1.934l-1.841,3.047C-0.127,14.666,0.025,15.283,0.499,15.569z M23.501,8.431L22,7.524v1.171l0.985,0.595L22,10.92v1.935
	l1.841-3.047C24.127,9.334,23.975,8.717,23.501,8.431z M14.71,22.985L13.08,22h-1.935l3.047,1.841
	c0.162,0.098,0.341,0.145,0.517,0.145c0.34,0,0.671-0.173,0.859-0.484L16.476,22h-1.171L14.71,22.985z M9.29,1.001l1.63,0.985h1.935
	L9.808,0.145C9.645,0.047,9.467,0,9.29,0c-0.34,0-0.671,0.173-0.859,0.484L7.524,1.985h1.171L9.29,1.001z"/>
</svg>
