<?xml version="1.0" encoding="utf-8"?>
<!-- Generator: Adobe Illustrator 21.1.0, SVG Export Plug-In . SVG Version: 6.00 Build 0)  -->
<svg version="1.1" id="Layer_1" xmlns="http://www.w3.org/2000/svg" xmlns:xlink="http://www.w3.org/1999/xlink" x="0px" y="0px"
	 width="24px" height="24px" viewBox="0 0 24 24" enable-background="new 0 0 24 24" xml:space="preserve">
<path fill="#4A4A4A" d="M22.998,5H11c0,0-1.375,0-2-1S7,3,7,3H1.002C0.449,3,0,3.449,0,4.002V21h24V6.002
	C24,5.449,23.551,5,22.998,5z M1,4h6c0.008,0,0.84,0.031,1.152,0.53c0.282,0.451,0.652,0.753,1.03,0.97
	c-0.378,0.217-0.748,0.518-1.03,0.97C7.84,6.969,7.008,7,7,7H1V4z M23,20H1V8h6c0,0,1.375,0,2-1s2-1,2-1h12V20z M15.246,12.331
	l-5.636,5.66l1.452-4.381H8.75L14.385,8l-1.452,4.331C12.933,12.331,15.246,12.331,15.246,12.331z"/>
</svg>
