<?xml version="1.0" encoding="utf-8"?>
<!-- Generator: Adobe Illustrator 21.1.0, SVG Export Plug-In . SVG Version: 6.00 Build 0)  -->
<!DOCTYPE svg PUBLIC "-//W3C//DTD SVG 1.1//EN" "http://www.w3.org/Graphics/SVG/1.1/DTD/svg11.dtd">
<svg version="1.1" id="Layer_1" xmlns="http://www.w3.org/2000/svg" xmlns:xlink="http://www.w3.org/1999/xlink" x="0px" y="0px"
	 width="24px" height="24px" viewBox="0 0 24 24" enable-background="new 0 0 24 24" xml:space="preserve">
<path fill="#4A4A4A" d="M12,0C7.029,0,3,1.567,3,3.5v17c0,1.933,4.029,3.5,9,3.5s9-1.567,9-3.5v-17C21,1.567,16.971,0,12,0z M12,1
	c5.176,0,8,1.651,8,2.5S17.176,6,12,6S4,4.349,4,3.5S6.824,1,12,1z M12,23c-5.176,0-8-1.651-8-2.5V5.099C5.494,6.227,8.512,7,12,7
	c3.504,0,6.533-0.78,8.019-1.917L20,20.5C20,21.349,17.176,23,12,23z"/>
</svg>
