<?xml version="1.0" encoding="utf-8"?>
<!-- Generator: Adobe Illustrator 21.1.0, SVG Export Plug-In . SVG Version: 6.00 Build 0)  -->
<svg version="1.1" id="Layer_1" xmlns="http://www.w3.org/2000/svg" xmlns:xlink="http://www.w3.org/1999/xlink" x="0px" y="0px"
	 width="24px" height="24px" viewBox="0 0 24 24" enable-background="new 0 0 24 24" xml:space="preserve">
<path fill="#4A4A4A" d="M24,12.22c0-1.534-1.248-2.78-2.784-2.78c-0.096,0-0.24,0-0.336,0c0.192-0.623,0.24-1.294,0.24-1.965
	C21.168,3.355,17.808,0,13.728,0C10.464,0,7.68,2.109,6.72,5.08C6.192,4.888,5.664,4.792,5.088,4.792C2.256,4.792,0,7.093,0,9.92
	C0,12.748,2.256,15,5.04,15h5.801L6.72,22.224C6.144,23.184,6.624,24,7.728,24h13.488c1.152,0,1.584-0.768,1.008-1.776L18.147,15
	h3.261C22.896,14.856,24,13.658,24,12.22z M21.356,22.72c0.063,0.111,0.095,0.196,0.11,0.254C21.412,22.988,21.33,23,21.216,23
	H7.728C7.6,23,7.522,22.981,7.48,22.965c0.009-0.044,0.033-0.119,0.098-0.227l0.006-0.009l0.005-0.01L9.711,19H15
	c0,0.552,0.448,1,1,1s1-0.448,1-1h2.256L21.356,22.72z M18.692,18h-8.411l1.711-3l0.57-0.999l0.306-0.537L13,13.234v-0.265V9v0h3v0
	v3.969v0.263l0.129,0.229l0.305,0.541L16.998,15L18.692,18z M17.583,14.001L17,12.969V9h1V8h-7v1h1v3.969l-0.589,1.032H5.04
	c-2.228,0-4.041-1.831-4.041-4.081c0-2.277,1.834-4.129,4.089-4.129c0.453,0,0.863,0.072,1.291,0.228l0.973,0.353l0.318-0.985
	c0.848-2.625,3.282-4.388,6.057-4.388c1.715,0,3.329,0.677,4.545,1.907c1.212,1.226,1.868,2.845,1.848,4.558l0,0.006v0.006
	c0,0.716-0.06,1.231-0.196,1.671l-0.399,1.293h1.354h0.336c0.984,0,1.785,0.799,1.785,1.78c0,0.911-0.704,1.669-1.646,1.78H17.583z
	 M15,21.5c0,0.276-0.224,0.5-0.5,0.5S14,21.776,14,21.5s0.224-0.5,0.5-0.5S15,21.224,15,21.5z"/>
</svg>
