<?xml version="1.0" encoding="utf-8"?>
<!-- Generator: Adobe Illustrator 21.1.0, SVG Export Plug-In . SVG Version: 6.00 Build 0)  -->
<svg version="1.1" id="Layer_1" xmlns="http://www.w3.org/2000/svg" xmlns:xlink="http://www.w3.org/1999/xlink" x="0px" y="0px"
	 width="24px" height="24px" viewBox="0 0 24 24" enable-background="new 0 0 24 24" xml:space="preserve">
<path fill="#4A4A4A" d="M2,22.5C2,23.328,2.672,24,3.5,24H22v-1c-0.276,0-0.5-0.224-0.5-0.5S21.724,22,22,22V0H4
	C2.895,0,2,0.895,2,2V22.5z M3,2c0-0.551,0.449-1,1-1h17v20H3.5c-0.176,0-0.343,0.036-0.5,0.092V2z M3,22.5
	C3,22.224,3.224,22,3.5,22h17.092c-0.056,0.157-0.092,0.324-0.092,0.5s0.036,0.343,0.092,0.5H3.5C3.224,23,3,22.776,3,22.5z
	 M14,18.463l-4-11L8.35,12H5v-1h2.65L10,4.537l4,11L15.649,11H19v1h-2.649L14,18.463z"/>
</svg>
