<?xml version="1.0" encoding="utf-8"?>
<!-- Generator: Adobe Illustrator 21.1.0, SVG Export Plug-In . SVG Version: 6.00 Build 0)  -->
<svg version="1.1" id="Layer_1" xmlns="http://www.w3.org/2000/svg" xmlns:xlink="http://www.w3.org/1999/xlink" x="0px" y="0px"
	 width="24px" height="24px" viewBox="0 0 24 24" enable-background="new 0 0 24 24" xml:space="preserve">
<path fill="#4A4A4A" d="M12,5.25c0.807,0,1.409,0.121,1.8,0.25c-0.392,0.129-0.994,0.25-1.8,0.25s-1.409-0.121-1.8-0.25
	C10.591,5.371,11.193,5.25,12,5.25 M12,4.25c-1.795,0-3.25,0.56-3.25,1.25S10.205,6.75,12,6.75s3.25-0.56,3.25-1.25
	S13.795,4.25,12,4.25L12,4.25z M12,15.25c0.807,0,1.409,0.121,1.8,0.25c-0.392,0.129-0.994,0.25-1.8,0.25s-1.409-0.121-1.8-0.25
	C10.591,15.371,11.193,15.25,12,15.25 M12,14.25c-1.795,0-3.25,0.56-3.25,1.25c0,0.69,1.455,1.25,3.25,1.25s3.25-0.56,3.25-1.25
	C15.25,14.81,13.795,14.25,12,14.25L12,14.25z M24,8.5v-3C24,3.015,18.627,1,12,1S0,3.015,0,5.5v3c0,1.414,1.744,2.675,4.465,3.5
	C1.744,12.825,0,14.086,0,15.5v3C0,20.985,5.373,23,12,23s12-2.015,12-4.5v-3c0-1.414-1.744-2.675-4.465-3.5
	C22.256,11.175,24,9.914,24,8.5z M12,2c6.715,0,11,2.073,11,3.5S18.715,9,12,9S1,6.927,1,5.5S5.285,2,12,2z M12,22
	c-6.715,0-11-2.073-11-3.5v-1.204C2.85,18.887,7.076,20,12,20s9.15-1.113,11-2.704V18.5C23,19.927,18.715,22,12,22z M23,15.5
	c0,1.427-4.285,3.5-11,3.5S1,16.927,1,15.5c0-0.989,2.062-2.288,5.563-2.992C8.197,12.82,10.041,13,12,13s3.803-0.18,5.437-0.492
	C20.938,13.212,23,14.511,23,15.5z M17.437,11.492C15.888,11.804,14.06,12,12,12s-3.888-0.196-5.437-0.508
	C3.062,10.788,1,9.489,1,8.5V7.296C2.85,8.887,7.076,10,12,10s9.15-1.113,11-2.704V8.5C23,9.489,20.938,10.788,17.437,11.492z"/>
</svg>
