<?xml version="1.0" encoding="utf-8"?>
<!-- Generator: Adobe Illustrator 21.1.0, SVG Export Plug-In . SVG Version: 6.00 Build 0)  -->
<svg version="1.1" id="Layer_1" xmlns="http://www.w3.org/2000/svg" xmlns:xlink="http://www.w3.org/1999/xlink" x="0px" y="0px"
	 width="24px" height="24px" viewBox="0 0 24 24" enable-background="new 0 0 24 24" xml:space="preserve">
<path fill="#4A4A4A" d="M21.216,9.441H20.88c0.192-0.623,0.24-1.294,0.24-1.965C21.168,3.355,17.808,0,13.728,0
	C10.464,0,7.68,2.108,6.721,5.08c-0.53-0.192-1.057-0.287-1.633-0.287C2.256,4.793,0,7.093,0,9.92C0,12.748,2.256,15,5.04,15H6
	v6.631c0,1.297,2.863,2.349,6.411,2.366V24h0.069h0.02c3.59,0,6.5-1.061,6.5-2.368V15h2.408C22.896,14.856,24,13.658,24,12.221
	C24,10.687,22.752,9.441,21.216,9.441z M12.597,22.999l-0.181-0.001C8.943,22.981,7.132,21.994,7,21.632v-7.729
	c1.15,0.666,3.181,1.11,5.5,1.11c2.321,0,4.351-0.444,5.501-1.11l0.003,7.699C17.872,21.984,16.018,22.978,12.597,22.999z
	 M12,10.287V7V6h-1h-0.086L12.5,4.414L14.086,6H14h-1v1v3.287v1.008V12h-1v-0.705V10.287z M14,13v-1.642
	c2.441,0.226,3.815,0.95,3.992,1.287c-0.21,0.404-2.098,1.369-5.492,1.369s-5.281-0.965-5.491-1.369
	c0.176-0.337,1.551-1.06,3.991-1.286V13H14z M21.357,14H19v-1.353v-0.002c0-1.119-2.135-2.052-5-2.299V7h2.5l-4-4l-4,4H11v3.346
	c-2.865,0.247-5,1.18-5,2.298V14H5.04C2.812,14,1,12.17,1,9.92c0-2.276,1.834-4.127,4.088-4.127c0.453,0,0.863,0.072,1.291,0.227
	l0.975,0.354l0.317-0.987C8.52,2.763,10.953,1,13.728,1c1.716,0,3.329,0.677,4.546,1.907c1.211,1.226,1.866,2.845,1.847,4.569
	c0,0.716-0.061,1.232-0.196,1.671l-0.397,1.294h1.354h0.336c0.983,0,1.784,0.798,1.784,1.78C23.002,13.131,22.298,13.889,21.357,14z
	"/>
</svg>
