<?xml version="1.0" encoding="utf-8"?>
<!-- Generator: Adobe Illustrator 21.1.0, SVG Export Plug-In . SVG Version: 6.00 Build 0)  -->
<svg version="1.1" id="Layer_1" xmlns="http://www.w3.org/2000/svg" xmlns:xlink="http://www.w3.org/1999/xlink" x="0px" y="0px"
	 width="24px" height="24px" viewBox="0 0 24 24" enable-background="new 0 0 24 24" xml:space="preserve">
<path fill="#4A4A4A" d="M15.996,10.716c0-0.502,0.187-0.906,0.559-1.209c0.373-0.303,0.867-0.455,1.484-0.455
	c0.547,0,1,0.072,1.359,0.215v1.168c-0.377-0.26-0.807-0.391-1.289-0.391c-0.242,0-0.434,0.051-0.574,0.154s-0.211,0.24-0.211,0.412
	c0,0.177,0.057,0.322,0.17,0.436s0.346,0.253,0.697,0.42c0.523,0.247,0.896,0.499,1.119,0.754s0.334,0.573,0.334,0.953
	c0,0.531-0.192,0.942-0.578,1.234c-0.385,0.292-0.918,0.438-1.598,0.438c-0.578,0-1.061-0.104-1.449-0.312v-1.25
	c0.448,0.38,0.941,0.57,1.48,0.57c0.261,0,0.462-0.052,0.604-0.156c0.143-0.104,0.213-0.242,0.213-0.414
	c0-0.169-0.068-0.316-0.205-0.441s-0.414-0.286-0.834-0.484C16.424,11.955,15.996,11.408,15.996,10.716z M11.198,11.669
	c0-0.396-0.01-0.698-0.031-0.906h0.016c0.052,0.104,0.146,0.259,0.281,0.465l2.308,3.52h1.273V9.146h-1.191v3.098
	c0,0.378,0.011,0.634,0.031,0.77h-0.016l-0.281-0.457l-2.222-3.41h-1.359v5.602h1.191V11.669z M4.192,14.747V9.146h1.984
	c1.99,0,2.984,0.91,2.984,2.73c0,0.567-0.123,1.069-0.369,1.506s-0.596,0.772-1.051,1.01s-0.976,0.355-1.564,0.355H4.192z
	 M5.454,13.724h0.625c0.537,0,0.963-0.162,1.279-0.486s0.475-0.772,0.475-1.346c0-0.536-0.157-0.957-0.471-1.262
	s-0.744-0.457-1.291-0.457H5.454V13.724z M14.591,23.712L14.591,23.712C14.591,23.712,14.591,23.712,14.591,23.712
	c-0.405,0.089-0.817,0.16-1.236,0.207c-0.015,0.002-0.029,0.005-0.044,0.007C12.88,23.972,12.443,24,12,24s-0.88-0.028-1.31-0.075
	c-0.015-0.002-0.029-0.005-0.044-0.007c-0.419-0.047-0.831-0.117-1.236-0.207c0,0,0,0,0,0v0C4.029,22.526,0,17.737,0,12
	S4.029,1.474,9.409,0.288v0c0,0,0,0,0,0c0.405-0.089,0.817-0.159,1.236-0.207c0.015-0.002,0.029-0.005,0.044-0.007
	C11.12,0.028,11.557,0,12,0s0.88,0.028,1.31,0.075c0.015,0.002,0.029,0.005,0.044,0.007c0.419,0.047,0.831,0.117,1.236,0.207
	c0,0,0,0,0,0v0C19.971,1.474,24,6.263,24,12S19.971,22.526,14.591,23.712z M15.594,1.615C16.165,2.545,16.65,3.696,17.036,5h3.442
	C19.206,3.461,17.518,2.283,15.594,1.615z M12,1c-0.709,0-1.4,0.073-2.071,0.202C9.19,2.064,8.514,3.364,7.998,5h8.004
	c-0.516-1.636-1.191-2.936-1.93-3.798C13.4,1.073,12.709,1,12,1z M3.521,5h3.442C7.35,3.696,7.835,2.545,8.406,1.615
	C6.482,2.283,4.794,3.461,3.521,5z M1,12c0,2.214,0.663,4.273,1.792,6h3.902c-0.154-0.64-0.291-1.303-0.396-2h1.005
	c0.11,0.706,0.25,1.371,0.41,2h8.573c0.16-0.629,0.3-1.294,0.41-2h1.005c-0.104,0.697-0.241,1.36-0.396,2h3.902
	C22.337,16.273,23,14.214,23,12s-0.663-4.273-1.792-6h-3.902c0.154,0.64,0.291,1.303,0.396,2h-1.005c-0.11-0.706-0.25-1.371-0.41-2
	H7.714c-0.16,0.629-0.3,1.294-0.41,2H6.299C6.404,7.303,6.54,6.64,6.695,6H2.792C1.663,7.727,1,9.786,1,12z M8.406,22.385
	C7.835,21.455,7.35,20.304,6.964,19H3.521C4.794,20.539,6.482,21.717,8.406,22.385z M12,23c0.709,0,1.4-0.073,2.071-0.202
	c0.739-0.862,1.414-2.162,1.93-3.798H7.998c0.516,1.636,1.191,2.936,1.93,3.798C10.6,22.927,11.291,23,12,23z M20.479,19h-3.442
	c-0.386,1.304-0.872,2.455-1.442,3.385C17.518,21.717,19.206,20.539,20.479,19z"/>
</svg>
