<?xml version="1.0" encoding="utf-8"?>
<!-- Generator: Adobe Illustrator 21.1.0, SVG Export Plug-In . SVG Version: 6.00 Build 0)  -->
<svg version="1.1" id="Layer_1" xmlns="http://www.w3.org/2000/svg" xmlns:xlink="http://www.w3.org/1999/xlink" x="0px" y="0px"
	 width="24px" height="24px" viewBox="0 0 24 24" enable-background="new 0 0 24 24" xml:space="preserve">
<path fill="#4A4A4A" d="M7,10.311h0.99l-1.121,3.378h-0.99l-0.633-1.9l-0.633,1.9h-0.99L2.5,10.311h0.99l0.633,1.9l0.633-1.9h0.976
	l0.633,1.9L7,10.311z M13.755,10.311h0.99l-1.121,3.378h-0.99L12,11.789l-0.633,1.9h-0.99l-1.121-3.378h0.99l0.633,1.9l0.633-1.9
	h0.976l0.633,1.9L13.755,10.311z M19.877,12.211l0.634-1.9h0.99l-1.121,3.378h-0.991l-0.633-1.9l-0.633,1.9h-0.99l-1.121-3.378H17
	l0.633,1.9l0.633-1.9h0.976L19.877,12.211z M12,1c6.065,0,11,4.935,11,11s-4.935,11-11,11S1,18.065,1,12S5.935,1,12,1 M12,0
	C5.373,0,0,5.373,0,12s5.373,12,12,12s12-5.373,12-12S18.627,0,12,0L12,0z"/>
</svg>
