<?xml version="1.0" encoding="utf-8"?>
<!-- Generator: Adobe Illustrator 21.1.0, SVG Export Plug-In . SVG Version: 6.00 Build 0)  -->
<svg version="1.1" id="Layer_1" xmlns="http://www.w3.org/2000/svg" xmlns:xlink="http://www.w3.org/1999/xlink" x="0px" y="0px"
	 width="24px" height="24px" viewBox="0 0 24 24" enable-background="new 0 0 24 24" xml:space="preserve">
<path fill="#4A4A4A" d="M20.5,9c-1.209,0-2.218,0.859-2.45,2H7.207l4-4h1.843c0.232,1.141,1.24,2,2.45,2C16.881,9,18,7.881,18,6.5
	S16.881,4,15.5,4c-1.209,0-2.218,0.859-2.45,2h-2.258l-5,5H0v1h2.793l5,5h3.258c0.232,1.141,1.24,2,2.45,2
	c1.381,0,2.5-1.119,2.5-2.5S14.881,14,13.5,14c-1.209,0-2.218,0.859-2.45,2H8.207l-4-4H18.05c0.232,1.141,1.24,2,2.45,2
	c1.381,0,2.5-1.119,2.5-2.5S21.881,9,20.5,9z M15.5,5C16.327,5,17,5.673,17,6.5S16.327,8,15.5,8S14,7.327,14,6.5S14.673,5,15.5,5z
	 M13.5,15c0.827,0,1.5,0.673,1.5,1.5S14.327,18,13.5,18S12,17.327,12,16.5S12.673,15,13.5,15z M20.5,13c-0.827,0-1.5-0.673-1.5-1.5
	s0.673-1.5,1.5-1.5s1.5,0.673,1.5,1.5S21.327,13,20.5,13z M23,1H1v5h1V2h20v4h1V1L23,1z M23,17h-1v4H2v-4H1v5h22V17L23,17z"/>
</svg>
