<?xml version="1.0" encoding="utf-8"?>
<!-- Generator: Adobe Illustrator 21.1.0, SVG Export Plug-In . SVG Version: 6.00 Build 0)  -->
<svg version="1.1" id="Layer_1" xmlns="http://www.w3.org/2000/svg" xmlns:xlink="http://www.w3.org/1999/xlink" x="0px" y="0px"
	 width="24px" height="24px" viewBox="0 0 24 24" enable-background="new 0 0 24 24" xml:space="preserve">
<path fill="#4A4A4A" d="M5,2h18v4h1V1l0,0H5V2z M5,22h19v-5l0,0h-1v4H5V22z M14.58,7l-1.12,1.12l0.701,0.713L16.5,6.495l-2.32-2.32
	l-0.707,0.707L14.591,6H4.95C4.718,4.859,3.709,4,2.5,4C1.119,4,0,5.119,0,6.5C0,7.881,1.119,9,2.5,9c1.21,0,2.218-0.859,2.45-2
	H14.58z M4,6.5C4,7.327,3.327,8,2.5,8S1,7.327,1,6.5S1.673,5,2.5,5S4,5.673,4,6.5z M14.58,17l-1.12,1.12l0.701,0.713l2.339-2.339
	l-2.32-2.32l-0.707,0.707L14.591,16H4.95c-0.232-1.141-1.241-2-2.45-2C1.119,14,0,15.119,0,16.5C0,17.881,1.119,19,2.5,19
	c1.21,0,2.218-0.859,2.45-2H14.58z M4,16.5C4,17.327,3.327,18,2.5,18S1,17.327,1,16.5C1,15.673,1.673,15,2.5,15S4,15.673,4,16.5z
	 M19.58,12l-1.12,1.12l0.701,0.713l2.339-2.339l-2.32-2.32l-0.707,0.707L19.591,11H9.95C9.718,9.859,8.709,9,7.5,9
	C6.119,9,5,10.119,5,11.5S6.119,14,7.5,14c1.21,0,2.218-0.859,2.45-2H19.58z M9,11.5C9,12.327,8.327,13,7.5,13S6,12.327,6,11.5
	C6,10.673,6.673,10,7.5,10S9,10.673,9,11.5z"/>
</svg>
