<?xml version="1.0" encoding="utf-8"?>
<!-- Generator: Adobe Illustrator 21.1.0, SVG Export Plug-In . SVG Version: 6.00 Build 0)  -->
<!DOCTYPE svg PUBLIC "-//W3C//DTD SVG 1.1//EN" "http://www.w3.org/Graphics/SVG/1.1/DTD/svg11.dtd">
<svg version="1.1" id="Layer_1" xmlns="http://www.w3.org/2000/svg" xmlns:xlink="http://www.w3.org/1999/xlink" x="0px" y="0px"
	 width="24px" height="24px" viewBox="0 0 24 24" enable-background="new 0 0 24 24" xml:space="preserve">
<path fill="#4A4A4A" d="M1.406,11.5l5.281,5.281l-0.703,0.703L0,11.5l5.992-5.992l0.703,0.703L1.406,11.5z M17.27,6.176l0.703-0.703
	L24,11.5l-6.016,6.016l-0.703-0.703l5.313-5.313L17.27,6.176z M15.393,4l-2.736,5.558L11.948,11h1.607h2.367l-6.782,7.535
	l1.264-4.25L10.786,13H9.445H7.317l2.949-9H15.393 M17,3H9.542L5.937,14h3.508l-2.529,8.5L18.167,10h-4.612L17,3L17,3z"/>
</svg>
