<?xml version="1.0" encoding="utf-8"?>
<!-- Generator: Adobe Illustrator 21.1.0, SVG Export Plug-In . SVG Version: 6.00 Build 0)  -->
<svg version="1.1" id="Layer_1" xmlns="http://www.w3.org/2000/svg" xmlns:xlink="http://www.w3.org/1999/xlink" x="0px" y="0px"
	 width="24px" height="24px" viewBox="0 0 24 24" enable-background="new 0 0 24 24" xml:space="preserve">
<path d="M12,4c3.308,0,6,2.692,6,6s-2.692,6-6,6s-6-2.692-6-6S8.692,4,12,4 M12,3c-3.866,0-7,3.134-7,7s3.134,7,7,7s7-3.134,7-7
	S15.866,3,12,3L12,3z"/>
<path d="M4,6c0.551,0,1,0.449,1,1v5c0,0.551-0.449,1-1,1s-1-0.449-1-1V7C3,6.449,3.449,6,4,6 M4,5C2.895,5,2,5.895,2,7v5
	c0,1.105,0.895,2,2,2s2-0.895,2-2V7C6,5.895,5.105,5,4,5L4,5z"/>
<path d="M20,6c0.551,0,1,0.449,1,1v5c0,0.551-0.449,1-1,1s-1-0.449-1-1V7C19,6.449,19.449,6,20,6 M20,5c-1.105,0-2,0.895-2,2v5
	c0,1.105,0.895,2,2,2s2-0.895,2-2V7C22,5.895,21.105,5,20,5L20,5z"/>
<path d="M4,14v-1h7.5c0.276,0,0.5,0.224,0.5,0.5S11.776,14,11.5,14H4z"/>
<path d="M4.976,5.458C6.275,2.892,8.932,1.125,12,1.125s5.725,1.767,7.024,4.333h1.25C18.899,2.249,15.713,0,12,0
	S5.101,2.249,3.726,5.458H4.976z"/>
<path d="M2.465,24c1.278-4.052,5.065-7,9.534-7s8.256,2.948,9.534,7h1.041c-1.306-4.615-5.541-8-10.574-8s-9.268,3.385-10.574,8
	H2.465z"/>
</svg>
