<?xml version="1.0" encoding="utf-8"?>
<!-- Generator: Adobe Illustrator 21.1.0, SVG Export Plug-In . SVG Version: 6.00 Build 0)  -->
<svg version="1.1" id="Layer_1" xmlns="http://www.w3.org/2000/svg" xmlns:xlink="http://www.w3.org/1999/xlink" x="0px" y="0px"
	 width="24px" height="24px" viewBox="0 0 24 24" enable-background="new 0 0 24 24" xml:space="preserve">
<path fill="#4A4A4A" d="M18,9V6.117c0-0.844-0.152-1.637-0.457-2.379s-0.727-1.391-1.266-1.945s-1.174-0.992-1.904-1.312
	S12.852,0,12,0h-1c-0.852,0-1.643,0.16-2.373,0.48S7.262,1.238,6.723,1.793S5.762,2.996,5.457,3.738S5,5.273,5,6.117V9H2v15h9h1h9V9
	H18z M6,6.117c0-0.709,0.129-1.382,0.382-1.999C6.637,3.498,6.993,2.95,7.44,2.49c0.446-0.459,0.98-0.827,1.589-1.094
	C9.628,1.133,10.292,1,11,1h1c0.708,0,1.372,0.133,1.971,0.396c0.608,0.267,1.143,0.635,1.589,1.094
	c0.447,0.46,0.803,1.008,1.058,1.628C16.871,4.736,17,5.408,17,6.117V9H6V6.117z M20,23H3V10h17V23z M15.5,18
	c-0.46,0-0.867,0.212-1.142,0.538l-5.361-2.01C8.997,16.518,9,16.509,9,16.5s-0.003-0.018-0.003-0.028l5.361-2.01
	C14.633,14.788,15.04,15,15.5,15c0.828,0,1.5-0.672,1.5-1.5S16.328,12,15.5,12S14,12.672,14,13.5c0,0.01,0.003,0.018,0.003,0.028
	l-5.361,2.01C8.367,15.212,7.96,15,7.5,15C6.672,15,6,15.672,6,16.5S6.672,18,7.5,18c0.46,0,0.867-0.212,1.142-0.538l5.361,2.01
	C14.003,19.482,14,19.49,14,19.5c0,0.828,0.672,1.5,1.5,1.5s1.5-0.672,1.5-1.5S16.328,18,15.5,18z M15.5,13
	c0.276,0,0.5,0.224,0.5,0.5S15.776,14,15.5,14S15,13.776,15,13.5S15.224,13,15.5,13z M7.5,17C7.224,17,7,16.776,7,16.5
	S7.224,16,7.5,16S8,16.224,8,16.5S7.776,17,7.5,17z M15.5,20c-0.276,0-0.5-0.224-0.5-0.5s0.224-0.5,0.5-0.5s0.5,0.224,0.5,0.5
	S15.776,20,15.5,20z"/>
</svg>
