<?xml version="1.0" encoding="utf-8"?>
<!-- Generator: Adobe Illustrator 21.1.0, SVG Export Plug-In . SVG Version: 6.00 Build 0)  -->
<!DOCTYPE svg PUBLIC "-//W3C//DTD SVG 1.1//EN" "http://www.w3.org/Graphics/SVG/1.1/DTD/svg11.dtd">
<svg version="1.1" id="Layer_1" xmlns="http://www.w3.org/2000/svg" xmlns:xlink="http://www.w3.org/1999/xlink" x="0px" y="0px"
	 width="24px" height="24px" viewBox="0 0 24 24" enable-background="new 0 0 24 24" xml:space="preserve">
<path fill="#4A4A4A" d="M22,2v20H2V2H22 M23,1H1v22h22V1L23,1z M7,17v2H5v-2H7 M8,16H4v4h4V16L8,16z M13,17v2h-2v-2H13 M14,16h-4v4
	h4V16L14,16z M7,11v2H5v-2H7 M8,10H4v4h4V10L8,10z M13,11v2h-2v-2H13 M14,10h-4v4h4V10L14,10z M7,5v2H5V5H7 M8,4H4v4h4V4L8,4z
	 M19,17v2h-2v-2H19 M20,16h-4v4h4V16L20,16z"/>
</svg>
