<?xml version="1.0" encoding="utf-8"?>
<!-- Generator: Adobe Illustrator 21.1.0, SVG Export Plug-In . SVG Version: 6.00 Build 0)  -->
<svg version="1.1" id="Layer_1" xmlns="http://www.w3.org/2000/svg" xmlns:xlink="http://www.w3.org/1999/xlink" x="0px" y="0px"
	 width="24px" height="24px" viewBox="0 0 24 24" enable-background="new 0 0 24 24" xml:space="preserve">
<path fill="#4A4A4A" d="M21,20h-2v-1h2V20z M9.5,8c0.71,0,1.329,0.504,1.47,1.199L11.031,9.5L10.97,9.801
	C10.829,10.496,10.21,11,9.5,11C8.673,11,8,10.327,8,9.5S8.673,8,9.5,8 M9.5,7C8.119,7,7,8.119,7,9.5S8.119,12,9.5,12
	c1.209,0,2.218-0.859,2.45-2h11.046L23,10.005L22.995,21L17,20.995L17.004,16H16v4.995C16,21.55,16.45,22,17.005,22h5.991
	C23.55,22,24,21.55,24,20.995V10.005C24,9.45,23.55,9,22.995,9H11.95C11.718,7.859,10.709,7,9.5,7L9.5,7z M20.086,15l-1.066,1.066
	l0.707,0.707L22,14.5l-2.274-2.274l-0.707,0.707L20.086,14H1V3h17v5h1V2H0v13h9v2H5v1h9v-1h-4v-2H20.086z"/>
</svg>
