<?xml version="1.0" encoding="utf-8"?>
<!-- Generator: Adobe Illustrator 21.1.0, SVG Export Plug-In . SVG Version: 6.00 Build 0)  -->
<svg version="1.1" id="Layer_1" xmlns="http://www.w3.org/2000/svg" xmlns:xlink="http://www.w3.org/1999/xlink" x="0px" y="0px"
	 width="24px" height="24px" viewBox="0 0 24 24" enable-background="new 0 0 24 24" xml:space="preserve">
<path fill="#4A4A4A" d="M4.5,13.857c1.045,0.656,2.262,1.016,3.5,1.026v4.046c0,0.279-0.041,0.543-0.121,0.786
	c-0.088,0.265-0.21,0.52-0.364,0.757c-0.162,0.251-0.358,0.491-0.582,0.716c-0.243,0.243-0.509,0.474-0.79,0.685
	c-0.286,0.216-0.597,0.422-0.923,0.613c-0.237,0.139-0.477,0.271-0.72,0.396c-0.245-0.126-0.486-0.259-0.721-0.397
	c-0.32-0.187-0.631-0.393-0.922-0.612c-0.282-0.212-0.548-0.443-0.79-0.685c-0.223-0.223-0.42-0.464-0.583-0.717
	c-0.154-0.237-0.276-0.491-0.362-0.753C1.041,19.472,1,19.206,1,18.929v-4.046C2.238,14.872,3.455,14.513,4.5,13.857 M4.5,12.632
	c-0.973,0.781-2.207,1.251-3.553,1.251c-0.324,0-0.639-0.033-0.947-0.085v5.131c0,0.387,0.057,0.753,0.171,1.1
	c0.114,0.347,0.272,0.676,0.474,0.987c0.201,0.311,0.44,0.604,0.715,0.88c0.275,0.275,0.573,0.534,0.895,0.776
	s0.662,0.468,1.019,0.677c0.358,0.209,0.718,0.402,1.08,0.58L4.5,24l0.145-0.072c0.362-0.177,0.723-0.37,1.08-0.58
	c0.358-0.209,0.698-0.435,1.019-0.677c0.322-0.242,0.62-0.501,0.895-0.776s0.513-0.568,0.715-0.88
	c0.201-0.311,0.359-0.64,0.474-0.987c0.115-0.347,0.171-0.714,0.171-1.1v-5.131c-0.309,0.052-0.624,0.085-0.947,0.085
	C6.707,13.883,5.473,13.413,4.5,12.632L4.5,12.632z M9.999,16H14v-1h-4 M10,13h10.086l-1.066,1.066l0.707,0.707L22,12.5
	l-2.274-2.274l-0.707,0.707L20.086,12H5.345c0.795,0.569,1.719,0.882,2.702,0.882c0.231-0.002,0.499-0.023,0.787-0.071l1.165-0.195
	L10,13z M22.995,7H11.95c-0.232-1.141-1.241-2-2.45-2C8.119,5,7,6.119,7,7.5S8.119,10,9.5,10c1.209,0,2.218-0.859,2.45-2h11.046
	L23,8.005L22.995,19L17,18.995L17.004,14H16v4.995C16,19.55,16.45,20,17.005,20h5.991C23.55,20,24,19.55,24,18.995V8.005
	C24,7.45,23.55,7,22.995,7z M10.97,7.801C10.829,8.496,10.21,9,9.5,9C8.673,9,8,8.327,8,7.5S8.673,6,9.5,6
	c0.71,0,1.329,0.504,1.47,1.199L11.031,7.5L10.97,7.801z M0.166,12.812c0.285,0.048,0.541,0.071,0.781,0.071
	c0.986,0,1.912-0.313,2.708-0.883H1V1h17v5h1V0H0v12.784L0.166,12.812z M19,18h2v-1h-2V18z"/>
</svg>
