<?xml version="1.0" encoding="utf-8"?>
<!-- Generator: Adobe Illustrator 21.1.0, SVG Export Plug-In . SVG Version: 6.00 Build 0)  -->
<!DOCTYPE svg PUBLIC "-//W3C//DTD SVG 1.1//EN" "http://www.w3.org/Graphics/SVG/1.1/DTD/svg11.dtd">
<svg version="1.1" id="Layer_1" xmlns="http://www.w3.org/2000/svg" xmlns:xlink="http://www.w3.org/1999/xlink" x="0px" y="0px"
	 width="24px" height="24px" viewBox="0 0 24 24" enable-background="new 0 0 24 24" xml:space="preserve">
<path fill="#4A4A4A" d="M20.441,19l-3.266-5H18V7h-5.883L10,4.626V0H5v5h3.995L11,7.25v3.245L6,11.21V10H2v4h4v-1.781l5-0.714V14
	h1.519l-1.236,3H9v4h4v-4h-0.636l1.235-3h2.382l3.264,5H19v5h5v-5H20.441z M5,13H3v-2h2V13z M12,20h-2v-2h2V20z M6,1h3v3H6V1z M12,8
	h5v5h-5V8z M23,23h-3v-3h3V23z"/>
</svg>
