<?xml version="1.0" encoding="utf-8"?>
<!-- Generator: Adobe Illustrator 21.1.0, SVG Export Plug-In . SVG Version: 6.00 Build 0)  -->
<!DOCTYPE svg PUBLIC "-//W3C//DTD SVG 1.1//EN" "http://www.w3.org/Graphics/SVG/1.1/DTD/svg11.dtd">
<svg version="1.1" id="Layer_1" xmlns="http://www.w3.org/2000/svg" xmlns:xlink="http://www.w3.org/1999/xlink" x="0px" y="0px"
	 width="24px" height="24px" viewBox="0 0 24 24" enable-background="new 0 0 24 24" xml:space="preserve">
<path fill="#4A4A4A" d="M18,2h4v4h1V1l0,0h-5V2z M6,22H2v-4H1v5h5V22z M20.5,18c-0.332,0-0.648,0.068-0.938,0.186l-2.892-4.959
	C17.474,12.586,18,11.609,18,10.5C18,8.567,16.433,7,14.5,7c-0.69,0-1.328,0.206-1.87,0.551l-2.164-2.524
	C10.796,4.603,11,4.078,11,3.5C11,2.119,9.881,1,8.5,1S6,2.119,6,3.5S7.119,6,8.5,6c0.44,0,0.848-0.124,1.207-0.323l2.168,2.53
	c-0.537,0.614-0.874,1.408-0.875,2.288l-5.155,0.737C5.544,10.508,4.832,10,4,10c-1.105,0-2,0.895-2,2s0.895,2,2,2
	c1.028,0,1.866-0.779,1.978-1.778l5.18-0.74c0.252,0.857,0.815,1.571,1.567,2.018l-1.453,3.527C11.182,17.015,11.093,17,11,17
	c-1.105,0-2,0.895-2,2s0.895,2,2,2s2-0.895,2-2c0-0.654-0.318-1.229-0.803-1.594l1.45-3.523C13.922,13.952,14.204,14,14.5,14
	c0.465,0,0.906-0.095,1.312-0.259l2.915,4.998C18.278,19.191,18,19.813,18,20.5c0,1.381,1.119,2.5,2.5,2.5s2.5-1.119,2.5-2.5
	S21.881,18,20.5,18z M11,20c-0.551,0-1-0.449-1-1s0.449-1,1-1s1,0.449,1,1S11.551,20,11,20z M7,3.5C7,2.673,7.673,2,8.5,2
	S10,2.673,10,3.5S9.327,5,8.5,5S7,4.327,7,3.5z M4,13c-0.551,0-1-0.449-1-1s0.449-1,1-1s1,0.449,1,1S4.551,13,4,13z M12,10.5
	C12,9.122,13.122,8,14.5,8S17,9.122,17,10.5S15.878,13,14.5,13S12,11.878,12,10.5z M20.5,22c-0.827,0-1.5-0.673-1.5-1.5
	s0.673-1.5,1.5-1.5s1.5,0.673,1.5,1.5S21.327,22,20.5,22z"/>
</svg>
