<?xml version="1.0" encoding="utf-8"?>
<!-- Generator: Adobe Illustrator 21.1.0, SVG Export Plug-In . SVG Version: 6.00 Build 0)  -->
<svg version="1.1" id="Layer_1" xmlns="http://www.w3.org/2000/svg" xmlns:xlink="http://www.w3.org/1999/xlink" x="0px" y="0px"
	 width="24px" height="24px" viewBox="0 0 24 24" enable-background="new 0 0 24 24" xml:space="preserve">
<path fill="#4A4A4A" d="M11.5,1.414L21.586,11.5L11.5,21.586L1.414,11.5L11.5,1.414 M11.5,0L0,11.5L11.5,23L23,11.5L11.5,0L11.5,0z
	 M16.726,9.226l-0.707,0.707L17.086,11H13.95c-0.199-0.979-0.97-1.751-1.95-1.95V5.914l1.066,1.066l0.707-0.707L11.5,4L9.226,6.274
	l0.707,0.707L11,5.914V9.05C10.021,9.249,9.249,10.02,9.05,11H5.914L6.98,9.934L6.274,9.226L4,11.5l2.274,2.274l0.707-0.707
	L5.914,12H9.05c0.199,0.979,0.97,1.751,1.95,1.95v2.142c-0.581,0.207-1,0.756-1,1.408c0,0.828,0.672,1.5,1.5,1.5s1.5-0.672,1.5-1.5
	c0-0.652-0.419-1.202-1-1.408V13.95c0.979-0.199,1.751-0.97,1.95-1.95h3.136l-1.066,1.066l0.707,0.707L19,11.5L16.726,9.226z
	 M11.5,18c-0.276,0-0.5-0.224-0.5-0.5s0.224-0.5,0.5-0.5s0.5,0.224,0.5,0.5S11.776,18,11.5,18z M11.5,13c-0.827,0-1.5-0.673-1.5-1.5
	s0.673-1.5,1.5-1.5s1.5,0.673,1.5,1.5S12.327,13,11.5,13z"/>
</svg>
