<?xml version="1.0" encoding="utf-8"?>
<!-- Generator: Adobe Illustrator 21.1.0, SVG Export Plug-In . SVG Version: 6.00 Build 0)  -->
<svg version="1.1" id="Layer_1" xmlns="http://www.w3.org/2000/svg" xmlns:xlink="http://www.w3.org/1999/xlink" x="0px" y="0px"
	 width="24px" height="24px" viewBox="0 0 24 24" enable-background="new 0 0 24 24" xml:space="preserve">
<path fill="#4A4A4A" d="M11.5,1.414L21.586,11.5L11.5,21.586L1.414,11.5L11.5,1.414 M11.5,0L0,11.5L11.5,23L23,11.5L11.5,0L11.5,0z
	 M6.68,9.175L5.973,9.882L7.091,11H4v1h3.08l-1.12,1.12l0.701,0.713L9,11.495L6.68,9.175z M19,11h-3.091l1.118-1.118L16.32,9.175
	L14,11.495l2.339,2.339l0.701-0.713L15.92,12H19V11z M13.122,15.973l-1.14,1.14v-3.127h-1v3.072L9.884,15.96l-0.713,0.701L11.509,19
	l2.32-2.32L13.122,15.973z M13.829,6.32L11.51,4L9.171,6.339L9.884,7.04l1.099-1.099v3.08h1V5.887l1.14,1.14L13.829,6.32z"/>
</svg>
