<?xml version="1.0" encoding="utf-8"?>
<!-- Generator: Adobe Illustrator 21.1.0, SVG Export Plug-In . SVG Version: 6.00 Build 0)  -->
<!DOCTYPE svg PUBLIC "-//W3C//DTD SVG 1.1//EN" "http://www.w3.org/Graphics/SVG/1.1/DTD/svg11.dtd">
<svg version="1.1" id="Layer_1" xmlns="http://www.w3.org/2000/svg" xmlns:xlink="http://www.w3.org/1999/xlink" x="0px" y="0px"
	 width="24px" height="24px" viewBox="0 0 24 24" enable-background="new 0 0 24 24" xml:space="preserve">
<g>
	<path fill="#4A4A4A" d="M13,11h-1V5h1V11z M16,6h-1v5h1V6z M19,4h-1v7h1V4z M15.5,1C11.916,1,9,3.916,9,7.5V14h6.5
		c3.584,0,6.5-2.916,6.5-6.5S19.084,1,15.5,1 M15.5,0C19.642,0,23,3.358,23,7.5S19.642,15,15.5,15H8V7.5C8,3.358,11.358,0,15.5,0
		L15.5,0z M9,16H8v1h1V16z M8,21h1v-1H8V21z M9,18H8v1h1V18z M14,16v1h0.849c0.066-0.326,0.103-0.661,0.125-1H14z M14,18v1h0.131
		c0.169-0.32,0.311-0.655,0.433-1H14z M11,22h-1v0.564c0.345-0.122,0.68-0.264,1-0.433V22z M12,19h1v-1h-1V19z M13,16h-1v1h1V16z
		 M13,20h-1v1h0.587c0.143-0.133,0.281-0.27,0.413-0.413V20z M11,18h-1v1h1V18z M10,21h1v-1h-1V21z M3,12H2v1h1V12z M5,8.436
		C4.655,8.558,4.32,8.7,4,8.869V9h1V8.436z M3,14H2v1h1V14z M1,15v-1H0.151c-0.066,0.326-0.103,0.661-0.125,1H1z M2,19h1v-1H2V19z
		 M1,13v-1H0.869c-0.169,0.32-0.311,0.655-0.433,1H1z M7,22H6v0.849c0.326,0.066,0.661,0.103,1,0.125V22z M6,8.151V9h1V8.025
		C6.661,8.048,6.326,8.085,6,8.151z M5,22H4v0.131c0.32,0.169,0.655,0.311,1,0.433V22z M3,20H2v0.587
		C2.133,20.73,2.27,20.867,2.413,21H3V20z M1,19v-1H0.436c0.122,0.345,0.264,0.68,0.433,1H1z M1,16H0.025
		c0.022,0.339,0.059,0.674,0.125,1H1V16z M5,18H4v1h1V18z M7,14H6v1h1V14z M7,16H6v1h1V16z M7,12H6v1h1V12z M6,21h1v-1H6V21z M7,18
		H6v1h1V18z M5,10H4v1h1V10z M5,12H4v1h1V12z M5,14H4v1h1V14z M2,11h1v-1H2.413C2.27,10.133,2.133,10.27,2,10.413V11z M5,16H4v1h1
		V16z M4,21h1v-1H4V21z"/>
</g>
</svg>
