<?xml version="1.0" encoding="utf-8"?>
<!-- Generator: Adobe Illustrator 21.1.0, SVG Export Plug-In . SVG Version: 6.00 Build 0)  -->
<!DOCTYPE svg PUBLIC "-//W3C//DTD SVG 1.1//EN" "http://www.w3.org/Graphics/SVG/1.1/DTD/svg11.dtd">
<svg version="1.1" id="Layer_1" xmlns="http://www.w3.org/2000/svg" xmlns:xlink="http://www.w3.org/1999/xlink" x="0px" y="0px"
	 width="24px" height="24px" viewBox="0 0 24 24" enable-background="new 0 0 24 24" xml:space="preserve">
<path fill="#4C4B4C" d="M16,14h2v5h-5v-5h2v-2H8v2h2v5H5v-5h2v-3h4V9H9V4h5v5h-2v2h4V14z M9,18v-3H6v3H9z M10,5v3h3V5H10z M17,18v-3
	h-3v3H17z M0,11c0.271,0,0.528-0.054,0.773-0.16c0.245-0.106,0.457-0.25,0.637-0.43s0.323-0.391,0.43-0.633C1.946,9.535,2,9.276,2,9
	c0-0.37-0.008-0.739-0.023-1.109S1.973,4.16,2.012,3.809s0.122-0.691,0.25-1.02c0.127-0.328,0.332-0.633,0.613-0.914
	s0.606-0.497,0.977-0.648C4.221,1.075,4.604,1,5,1v1C4.724,2,4.465,2.054,4.223,2.16S3.77,2.41,3.59,2.59S3.267,2.981,3.16,3.227
	C3.053,3.472,3,3.729,3,4c0,0.292,0.005,3.579,0.016,3.863c0.01,0.284,0.012,0.562,0.004,0.836S2.987,9.238,2.945,9.496
	C2.903,9.754,2.833,10,2.734,10.234c-0.099,0.234-0.234,0.458-0.406,0.672S1.935,11.317,1.664,11.5
	c0.271,0.183,0.492,0.38,0.664,0.594s0.307,0.438,0.406,0.672c0.099,0.234,0.169,0.48,0.211,0.738
	c0.042,0.258,0.066,0.523,0.074,0.797s0.006,0.552-0.004,0.836C3.005,15.421,3,18.708,3,19c0,0.276,0.053,0.535,0.16,0.777
	c0.106,0.242,0.25,0.453,0.43,0.633s0.391,0.323,0.633,0.43S4.724,21,5,21v1c-0.396,0-0.779-0.075-1.148-0.227
	c-0.37-0.151-0.695-0.367-0.977-0.648s-0.486-0.586-0.613-0.914c-0.128-0.328-0.211-0.668-0.25-1.02s-0.051-3.712-0.035-4.082
	S2,14.37,2,14c0-0.271-0.054-0.528-0.16-0.773c-0.107-0.245-0.25-0.457-0.43-0.637s-0.392-0.323-0.637-0.43
	C0.528,12.054,0.271,12,0,12V11z M18,1c0.396,0,0.778,0.075,1.148,0.227c0.37,0.151,0.695,0.367,0.977,0.648
	s0.485,0.586,0.613,0.914c0.127,0.328,0.211,0.668,0.25,1.02s0.051,3.712,0.035,4.082S21,8.63,21,9c0,0.276,0.053,0.535,0.16,0.777
	c0.106,0.242,0.25,0.453,0.43,0.633s0.391,0.323,0.633,0.43S22.724,11,23,11v1c-0.276,0-0.535,0.054-0.777,0.16
	s-0.453,0.25-0.633,0.43s-0.323,0.392-0.43,0.637C21.053,13.472,21,13.729,21,14c0,0.37,0.008,0.739,0.023,1.109
	s0.004,3.73-0.035,4.082s-0.123,0.691-0.25,1.02c-0.128,0.328-0.332,0.633-0.613,0.914s-0.607,0.497-0.977,0.648
	C18.778,21.925,18.396,22,18,22v-1c0.271,0,0.528-0.054,0.773-0.16c0.245-0.106,0.457-0.25,0.637-0.43s0.323-0.391,0.43-0.633
	C19.946,19.535,20,19.276,20,19c0-0.292-0.005-3.579-0.016-3.863c-0.011-0.284-0.012-0.562-0.004-0.836s0.032-0.539,0.074-0.797
	c0.042-0.258,0.112-0.504,0.211-0.738c0.099-0.234,0.234-0.458,0.406-0.672s0.393-0.411,0.664-0.594
	c-0.271-0.183-0.492-0.38-0.664-0.594s-0.308-0.438-0.406-0.672c-0.099-0.234-0.169-0.48-0.211-0.738
	c-0.042-0.258-0.066-0.523-0.074-0.797s-0.007-0.552,0.004-0.836C19.995,7.579,20,4.292,20,4c0-0.271-0.054-0.528-0.16-0.773
	c-0.107-0.245-0.25-0.457-0.43-0.637s-0.392-0.323-0.637-0.43C18.528,2.054,18.271,2,18,2V1z"/>
</svg>
