<?xml version="1.0" encoding="utf-8"?>
<!-- Generator: Adobe Illustrator 21.1.0, SVG Export Plug-In . SVG Version: 6.00 Build 0)  -->
<svg version="1.1" id="Layer_1" xmlns="http://www.w3.org/2000/svg" xmlns:xlink="http://www.w3.org/1999/xlink" x="0px" y="0px"
	 width="24px" height="24px" viewBox="0 0 24 24" enable-background="new 0 0 24 24" xml:space="preserve">
<path fill="#4A4A4A" d="M10,9v3.969v0.263l0.129,0.229l5.227,9.26c0.063,0.111,0.095,0.196,0.11,0.254
	C15.412,22.988,15.33,23,15.216,23H1.728c-0.127,0-0.205-0.019-0.248-0.034c0.01-0.045,0.036-0.126,0.108-0.246l5.28-9.255L7,13.234
	v-0.265V9H10 M12,8H5v1h1v3.969l-5.28,9.255C0.144,23.184,0.624,24,1.728,24h13.488c1.152,0,1.584-0.768,1.008-1.776L11,12.969V9h1
	V8L12,8z"/>
<polygon fill="#4A4A4A" points="12.938,17 7,17 3.455,23.5 4.594,23.5 7.594,18 12.938,18 "/>
<path fill="#4A4A4A" d="M16,0c-4.079,0-7.438,3.055-7.931,7h1.012c0.115-0.776,0.354-1.512,0.702-2.185
	C10.147,5.588,10.645,6.312,11.219,7H13v0.092C13.157,7.036,13.324,7,13.5,7C14.327,7,15,7.673,15,8.5S14.327,10,13.5,10
	c-0.176,0-0.343-0.036-0.5-0.092V10h-1v0.461c0.115,0.087,0.225,0.181,0.353,0.248c-0.127,0.491-0.245,0.988-0.353,1.49v0.507
	l0.693,1.228c0.162-1.009,0.379-1.99,0.628-2.952c0,0,0,0,0,0C13.381,10.986,13.438,11,13.5,11c0.684,0,1.304-0.276,1.755-0.722
	c0.85,0.466,1.775,0.859,2.747,1.199c0,0.008-0.002,0.015-0.002,0.023c0,0.828,0.672,1.5,1.5,1.5c0.56,0,1.042-0.31,1.3-0.765
	c0.22,0.044,0.429,0.106,0.653,0.143C20.169,13.974,18.203,15,16,15c-1.127,0-2.186-0.277-3.13-0.752l0.792,1.403
	C14.402,15.877,15.186,16,16,16c4.418,0,8-3.582,8-8S20.418,0,16,0z M22.986,7.714c-0.709-0.269-1.382-0.578-2.015-0.919
	C20.989,6.699,21,6.601,21,6.5C21,5.672,20.328,5,19.5,5c-0.308,0-0.595,0.094-0.833,0.253c-0.799-0.658-1.49-1.382-2.042-2.162
	c0.393-0.635,0.81-1.245,1.247-1.827C20.734,2.061,22.86,4.63,22.986,7.714z M20,6.5C20,6.776,19.776,7,19.5,7S19,6.776,19,6.5
	S19.224,6,19.5,6S20,6.224,20,6.5z M16,1c0.271,0,0.538,0.019,0.802,0.049c-0.26,0.36-0.515,0.728-0.759,1.107
	c-0.2-0.369-0.369-0.746-0.509-1.133C15.688,1.013,15.842,1,16,1z M13.978,6.048C13.823,6.018,13.664,6,13.5,6
	c-0.542,0-1.04,0.177-1.449,0.469c0,0,0.001-0.001,0.001-0.001c-0.704-0.834-1.263-1.734-1.62-2.694
	c0.994-1.307,2.438-2.245,4.097-2.602c0.228,0.675,0.531,1.328,0.918,1.951C14.904,4.048,14.425,5.035,13.978,6.048z M19.5,12
	c-0.276,0-0.5-0.224-0.5-0.5s0.224-0.5,0.5-0.5s0.5,0.224,0.5,0.5S19.776,12,19.5,12z M22.067,11.473
	c-0.368-0.052-0.73-0.115-1.088-0.186c0,0,0,0-0.001,0C20.874,10.56,20.255,10,19.5,10c-0.472,0-0.888,0.223-1.163,0.564
	c-0.895-0.314-1.745-0.681-2.528-1.107c0,0,0,0,0,0C15.931,9.162,16,8.839,16,8.5c0-0.867-0.442-1.63-1.112-2.078
	c0.364-0.826,0.752-1.63,1.182-2.393c0.564,0.729,1.24,1.406,2.005,2.026c0,0,0,0,0,0C18.031,6.196,18,6.344,18,6.5
	C18,7.328,18.672,8,19.5,8c0.372,0,0.707-0.14,0.969-0.364c0.773,0.418,1.594,0.792,2.466,1.108
	C22.829,9.728,22.539,10.654,22.067,11.473z"/>
</svg>
