<?xml version="1.0" encoding="utf-8"?>
<!-- Generator: Adobe Illustrator 21.1.0, SVG Export Plug-In . SVG Version: 6.00 Build 0)  -->
<svg version="1.1" id="Layer_1" xmlns="http://www.w3.org/2000/svg" xmlns:xlink="http://www.w3.org/1999/xlink" x="0px" y="0px"
	 width="24px" height="24px" viewBox="0 0 24 24" enable-background="new 0 0 24 24" xml:space="preserve">
<path fill="#4A4A4A" d="M10,9v3.969v0.263l0.129,0.229l5.227,9.26c0.063,0.111,0.095,0.196,0.11,0.254
	C15.412,22.988,15.33,23,15.216,23H1.728c-0.127,0-0.205-0.019-0.248-0.034c0.01-0.045,0.036-0.126,0.108-0.246l5.28-9.255L7,13.234
	v-0.265V9H10 M12,8H5v1h1v3.969l-5.28,9.255C0.144,23.184,0.624,24,1.728,24h13.488c1.152,0,1.584-0.768,1.008-1.776L11,12.969V9h1
	V8L12,8z"/>
<polygon fill="#4A4A4A" points="12.938,17 7,17 3.455,23.5 4.594,23.5 7.594,18 12.938,18 "/>
<path fill="#4A4A4A" d="M11,6H9V4h2V6z M11,3H9V1h2V3z M14,6h-2V4h2V6z M14,3h-2V1h2V3z M17,12h-2v-2h2V12z M17,9h-2V7h2V9z M17,6
	h-2V4h2V6z M17,3h-2V1h2V3z M20,12h-2v-2h2V12z M20,9h-2V7h2V9z M20,6h-2V4h2V6z M20,3h-2V1h2V3z M21,13h2h1V0H8v7h1h2h1h1h1v2h-1v1
	h1v2h-2v0.707L12.166,13H14H21z M23,12h-2v-2h2V12z M23,9h-2V7h2V9z M23,6h-2V4h2V6z M23,3h-2V1h2V3z"/>
</svg>
