<?xml version="1.0" encoding="utf-8"?>
<!-- Generator: Adobe Illustrator 21.1.0, SVG Export Plug-In . SVG Version: 6.00 Build 0)  -->
<svg version="1.1" id="Layer_1" xmlns="http://www.w3.org/2000/svg" xmlns:xlink="http://www.w3.org/1999/xlink" x="0px" y="0px"
	 width="24px" height="24px" viewBox="0 0 24 24" enable-background="new 0 0 24 24" xml:space="preserve">
<path fill="#4A4A4A" d="M17,13.477l-4.5,2.242L8,13.477V7.523l4.5-2.242L17,7.523V13.477z M9,8.641v4.219l3,1.492v-4.211L9,8.641z
	 M15.383,7.836L12.5,6.398L9.617,7.836L12.5,9.273L15.383,7.836z M13,14.352l3-1.492V8.641l-3,1.5V14.352z M4,0C2.895,0,2,0.895,2,2
	v1H1v1h1v3.039H1v1h1v2.984H1v1h1V15H1v1h1v3H1v1h1v2.5C2,23.328,2.672,24,3.5,24H22v-1c-0.276,0-0.5-0.224-0.5-0.5S21.724,22,22,22
	V0H4z M3,20h1v-1H3v-3h1v-1H3v-2.977h1v-1H3V8.039h1v-1H3V4h1V3H3V2c0-0.551,0.449-1,1-1h17v20H3.5c-0.176,0-0.343,0.036-0.5,0.092
	V20z M3,22.5C3,22.224,3.224,22,3.5,22h17.092c-0.056,0.157-0.092,0.324-0.092,0.5s0.036,0.343,0.092,0.5H3.5
	C3.224,23,3,22.776,3,22.5z"/>
</svg>
