<?xml version="1.0" encoding="utf-8"?>
<!-- Generator: Adobe Illustrator 21.1.0, SVG Export Plug-In . SVG Version: 6.00 Build 0)  -->
<svg version="1.1" id="Layer_1" xmlns="http://www.w3.org/2000/svg" xmlns:xlink="http://www.w3.org/1999/xlink" x="0px" y="0px"
	 width="24px" height="24px" viewBox="0 0 24 24" enable-background="new 0 0 24 24" xml:space="preserve">
<path fill="#4A4A4A" d="M19,6V3.997C19,1.79,17.208,0,15,0h-1c-0.731,0-1.41,0.211-2,0.554C11.41,0.211,10.734,0,10.003,0H10H9
	C6.792,0,5,1.79,5,3.997v2.004l-4,0v14.996C1,22.656,2.344,24,4.002,24h15.996C21.656,24,23,22.656,23,20.998v-0.002V6.002V6L19,6z
	 M12.873,1.223C13.22,1.082,13.602,1,14,1h1c1.653,0,3,1.345,3,2.997V6h-4V3.997C14,2.918,13.568,1.942,12.873,1.223L12.873,1.223z
	 M6,3.997C6,2.345,7.347,1,9,1h1c1.653,0,3,1.345,3,2.997V6H6V3.997z M4.002,23C2.898,23,2,22.102,2,20.998V7h15v13.996
	c0,0.773,0.301,1.472,0.781,2.004H4.002z M22,20.996c0,1.103-0.897,2.001-1.999,2.002C18.897,22.997,18,22.099,18,20.996V7h4V20.996
	z M12.836,13.023c0.308,0.042,0.594,0.136,0.859,0.281c0.266,0.146,0.495,0.33,0.688,0.551c0.192,0.222,0.344,0.473,0.453,0.754
	S15,15.188,15,15.5c0,0.344-0.066,0.668-0.199,0.973s-0.312,0.57-0.539,0.797s-0.491,0.405-0.793,0.535S12.844,18,12.5,18H7
	c-0.417,0-0.806-0.078-1.168-0.234s-0.68-0.371-0.953-0.645s-0.488-0.591-0.645-0.953C4.078,15.807,4,15.417,4,15
	c0-0.411,0.078-0.799,0.234-1.164c0.156-0.364,0.371-0.684,0.645-0.957s0.591-0.488,0.953-0.645S6.583,12,7,12
	c0.12,0,0.238,0.007,0.355,0.02c0.117,0.014,0.233,0.033,0.348,0.059c0.281-0.344,0.624-0.609,1.027-0.797S9.558,11,10,11
	c0.317,0,0.625,0.048,0.922,0.145c0.297,0.097,0.57,0.233,0.82,0.41c0.25,0.177,0.469,0.391,0.656,0.641
	S12.731,12.722,12.836,13.023z M12.5,17c0.208,0,0.403-0.039,0.586-0.117s0.341-0.185,0.477-0.32
	c0.136-0.135,0.242-0.294,0.32-0.477C13.961,15.904,14,15.709,14,15.5c0-0.208-0.039-0.403-0.117-0.586
	c-0.078-0.182-0.185-0.341-0.32-0.477c-0.136-0.135-0.294-0.242-0.477-0.32S12.708,14,12.5,14H12c0-0.275-0.052-0.535-0.156-0.777
	s-0.247-0.454-0.43-0.637c-0.183-0.182-0.395-0.325-0.637-0.43C10.535,12.053,10.276,12,10,12c-0.214,0-0.418,0.033-0.613,0.098
	c-0.195,0.065-0.375,0.156-0.539,0.273s-0.31,0.258-0.438,0.422s-0.226,0.348-0.293,0.551C7.784,13.115,7.411,13,7,13
	c-0.276,0-0.535,0.053-0.777,0.156c-0.242,0.104-0.454,0.248-0.637,0.43c-0.183,0.183-0.325,0.395-0.43,0.637S5,14.725,5,15
	c0,0.276,0.052,0.535,0.156,0.777s0.247,0.455,0.43,0.637c0.183,0.183,0.395,0.326,0.637,0.43C6.465,16.948,6.724,17,7,17H12.5z"/>
</svg>
