<?xml version="1.0" encoding="utf-8"?>
<!-- Generator: Adobe Illustrator 21.1.0, SVG Export Plug-In . SVG Version: 6.00 Build 0)  -->
<!DOCTYPE svg PUBLIC "-//W3C//DTD SVG 1.1//EN" "http://www.w3.org/Graphics/SVG/1.1/DTD/svg11.dtd">
<svg version="1.1" id="Layer_1" xmlns="http://www.w3.org/2000/svg" xmlns:xlink="http://www.w3.org/1999/xlink" x="0px" y="0px"
	 width="24px" height="24px" viewBox="0 0 24 24" enable-background="new 0 0 24 24" xml:space="preserve">
<path fill="#4C4B4C" d="M12,4c0.734,0,1.442,0.095,2.125,0.285c0.683,0.19,1.319,0.46,1.91,0.809
	c0.591,0.349,1.13,0.767,1.617,1.254c0.487,0.487,0.905,1.026,1.254,1.617c0.349,0.591,0.618,1.228,0.809,1.91
	C19.905,10.558,20,11.266,20,12s-0.095,1.442-0.285,2.125s-0.46,1.319-0.809,1.91s-0.767,1.13-1.254,1.617s-1.026,0.905-1.617,1.254
	s-1.228,0.618-1.91,0.809S12.734,20,12,20s-1.442-0.095-2.125-0.285s-1.32-0.458-1.914-0.805s-1.134-0.763-1.621-1.25
	s-0.903-1.027-1.25-1.621s-0.614-1.23-0.805-1.91S4,12.74,4,12c0-0.734,0.095-1.442,0.285-2.125c0.19-0.682,0.46-1.319,0.809-1.91
	c0.349-0.591,0.767-1.13,1.254-1.617c0.487-0.487,1.026-0.905,1.617-1.254c0.591-0.349,1.228-0.618,1.91-0.809
	C10.558,4.095,11.266,4,12,4z M12,19c0.646,0,1.267-0.083,1.863-0.25s1.153-0.402,1.672-0.707s0.989-0.669,1.414-1.094
	s0.789-0.896,1.094-1.414s0.54-1.075,0.707-1.672S19,12.646,19,12c0-0.646-0.083-1.267-0.25-1.863
	c-0.167-0.596-0.402-1.153-0.707-1.672c-0.305-0.518-0.669-0.989-1.094-1.414c-0.425-0.424-0.896-0.789-1.414-1.094
	s-1.075-0.54-1.672-0.707C13.267,5.083,12.646,5,12,5s-1.267,0.083-1.863,0.25C9.54,5.417,8.983,5.652,8.465,5.957
	S7.476,6.626,7.051,7.051C6.626,7.476,6.262,7.947,5.957,8.465c-0.305,0.519-0.54,1.076-0.707,1.672C5.083,10.733,5,11.354,5,12
	c0,0.646,0.083,1.267,0.25,1.863s0.401,1.153,0.703,1.672s0.667,0.991,1.094,1.418s0.899,0.792,1.418,1.094s1.075,0.536,1.672,0.703
	S11.354,19,12,19z M10,8l6,3.977L10,16V8z M11,14.125l3.195-2.141L11,9.859V14.125z M12,1.139l10,5.455v10.813l-10,5.455L2,17.406
	V6.594L12,1.139 M12,0L1,6v12l11,6l11-6V6L12,0L12,0z"/>
</svg>
