<?xml version="1.0" encoding="utf-8"?>
<!-- Generator: Adobe Illustrator 21.1.0, SVG Export Plug-In . SVG Version: 6.00 Build 0)  -->
<!DOCTYPE svg PUBLIC "-//W3C//DTD SVG 1.1//EN" "http://www.w3.org/Graphics/SVG/1.1/DTD/svg11.dtd">
<svg version="1.1" id="Layer_1" xmlns="http://www.w3.org/2000/svg" xmlns:xlink="http://www.w3.org/1999/xlink" x="0px" y="0px"
	 width="24px" height="24px" viewBox="0 0 24 24" enable-background="new 0 0 24 24" xml:space="preserve">
<path fill="#4A4A4A" d="M16,0c-4.418,0-8,3.582-8,8c0,2.029,0.762,3.876,2.007,5.287L8.743,14.55l-0.002-0.002
	c-0.39-0.39-1.022-0.39-1.412,0L0.438,21.44c-0.585,0.585-0.585,1.532,0,2.117l0.004,0.004c0.585,0.585,1.532,0.585,2.117,0
	l6.891-6.891c0.39-0.39,0.39-1.022,0-1.412L9.45,15.258l1.264-1.264C12.124,15.238,13.971,16,16,16c4.418,0,8-3.582,8-8
	S20.418,0,16,0z M1.853,22.854c-0.194,0.194-0.509,0.194-0.707-0.004c-0.194-0.194-0.194-0.509,0-0.703l6.889-6.891l0.71,0.707
	L1.853,22.854z M16,15c-3.86,0-7-3.14-7-7s3.14-7,7-7s7,3.14,7,7S19.86,15,16,15z M14,4l6,3.977L14,12V4z M15,10.125l3.195-2.141
	L15,5.859V10.125z"/>
</svg>
