<?xml version="1.0" encoding="utf-8"?>
<!-- Generator: Adobe Illustrator 21.1.0, SVG Export Plug-In . SVG Version: 6.00 Build 0)  -->
<!DOCTYPE svg PUBLIC "-//W3C//DTD SVG 1.1//EN" "http://www.w3.org/Graphics/SVG/1.1/DTD/svg11.dtd">
<svg version="1.1" id="Layer_1" xmlns="http://www.w3.org/2000/svg" xmlns:xlink="http://www.w3.org/1999/xlink" x="0px" y="0px"
	 width="24px" height="24px" viewBox="0 0 24 24" enable-background="new 0 0 24 24" xml:space="preserve">
<path fill="#4A4A4A" d="M9.999,7.862l6.198,4.107l-6.198,4.156L9.999,7.862 M8.999,6v12L18,11.965L8.999,6L8.999,6z M20.998,1
	C22.102,1,23,1.898,23,3.002v17.997C23,22.102,22.102,23,20.998,23H3.002C1.898,23,1,22.102,1,20.998V3.002C1,1.898,1.898,1,3.002,1
	H20.998 M20.998,0H3.002C1.344,0,0,1.344,0,3.002v17.997C0,22.656,1.344,24,3.002,24h17.997C22.656,24,24,22.656,24,20.998V3.002
	C24,1.344,22.656,0,20.998,0L20.998,0z"/>
</svg>
