<?xml version="1.0" encoding="utf-8"?>
<!-- Generator: Adobe Illustrator 21.1.0, SVG Export Plug-In . SVG Version: 6.00 Build 0)  -->
<!DOCTYPE svg PUBLIC "-//W3C//DTD SVG 1.1//EN" "http://www.w3.org/Graphics/SVG/1.1/DTD/svg11.dtd">
<svg version="1.1" id="Layer_1" xmlns="http://www.w3.org/2000/svg" xmlns:xlink="http://www.w3.org/1999/xlink" x="0px" y="0px"
	 width="24px" height="24px" viewBox="0 0 24 24" enable-background="new 0 0 24 24" xml:space="preserve">
<path fill="#4B4B4B" d="M16.997,1C17.55,1,18,1.45,18,2.003v19.994C18,22.55,17.55,23,16.997,23H6.003C5.45,23,5,22.55,5,21.997
	V2.003C5,1.45,5.45,1,6.003,1H16.997 M16.997,0H6.003C4.897,0,4,0.897,4,2.003v19.994C4,23.103,4.897,24,6.003,24h10.994
	C18.103,24,19,23.103,19,21.997V2.003C19,0.897,18.103,0,16.997,0L16.997,0z M13,21h-3v1h3V21z M16,3v16H7V3H16 M17,2H6v18h11V2
	L17,2z M9,15H8v3h1V15L9,15z M11,14h-1v4h1V14L11,14z M13,13h-1v5h1V13L13,13z M15,12h-1v6h1V12L15,12z M14,5v3h-2h-0.414
	l-0.293,0.293L11,8.586V8h-1H9V5H14 M15,4H8v5h2v2l2-2h3V4L15,4z"/>
</svg>
