<?xml version="1.0" encoding="utf-8"?>
<!-- Generator: Adobe Illustrator 21.1.0, SVG Export Plug-In . SVG Version: 6.00 Build 0)  -->
<!DOCTYPE svg PUBLIC "-//W3C//DTD SVG 1.1//EN" "http://www.w3.org/Graphics/SVG/1.1/DTD/svg11.dtd">
<svg version="1.1" id="Layer_1" xmlns="http://www.w3.org/2000/svg" xmlns:xlink="http://www.w3.org/1999/xlink" x="0px" y="0px"
	 width="24px" height="24px" viewBox="0 0 24 24" enable-background="new 0 0 24 24" xml:space="preserve">
<path fill="#4A4A4A" d="M11.5,1C17.29,1,22,5.71,22,11.5S17.29,22,11.5,22S1,17.29,1,11.5S5.71,1,11.5,1 M11.5,0
	C5.149,0,0,5.149,0,11.5S5.149,23,11.5,23S23,17.851,23,11.5S17.851,0,11.5,0L11.5,0z M17.847,5.86
	c-0.222-0.249-0.458-0.485-0.707-0.707l-4.997,4.997C11.947,10.057,11.731,10,11.5,10c-0.828,0-1.5,0.672-1.5,1.5s0.672,1.5,1.5,1.5
	s1.5-0.672,1.5-1.5c0-0.231-0.057-0.447-0.15-0.643L17.847,5.86z M11.5,12c-0.276,0-0.5-0.224-0.5-0.5s0.224-0.5,0.5-0.5
	s0.5,0.224,0.5,0.5S11.776,12,11.5,12z M11.5,7c0.693,0,1.341,0.17,1.928,0.451l0.752-0.752C13.387,6.255,12.474,6,11.5,6
	C8.467,6,6,8.467,6,11.5c0,1.129,0.339,2.206,0.969,3.117L5.536,16.05C4.54,14.749,4,13.166,4,11.5C4,7.364,7.364,4,11.5,4
	c1.526,0,2.946,0.461,4.132,1.247l0.721-0.721C14.976,3.567,13.305,3,11.5,3c0,0,0,0,0,0C6.806,3,3,6.806,3,11.5
	c0,2.347,0.951,4.472,2.49,6.01l2.83-2.83C7.505,13.866,7,12.741,7,11.5C7,9.019,9.019,7,11.5,7z M20,11.5
	c0-1.805-0.567-3.476-1.526-4.852l-0.721,0.721C18.539,8.554,19,9.974,19,11.5c0,1.666-0.54,3.249-1.536,4.55l-1.433-1.433
	C16.661,13.706,17,12.629,17,11.5c0-0.973-0.255-1.886-0.699-2.68l-0.752,0.752C15.83,10.159,16,10.807,16,11.5
	c0,1.241-0.505,2.366-1.32,3.18l2.83,2.83C19.049,15.972,20,13.847,20,11.5z"/>
</svg>
