<?xml version="1.0" encoding="utf-8"?>
<!-- Generator: Adobe Illustrator 21.1.0, SVG Export Plug-In . SVG Version: 6.00 Build 0)  -->
<svg version="1.1" id="Layer_1" xmlns="http://www.w3.org/2000/svg" xmlns:xlink="http://www.w3.org/1999/xlink" x="0px" y="0px"
	 width="24px" height="24px" viewBox="0 0 24 24" enable-background="new 0 0 24 24" xml:space="preserve">
<path fill="#4A4A4A" d="M12,16c0.551,0,1,0.449,1,1c0,0.354-0.188,0.675-0.503,0.858L12,18.148v0.575V20v-1.277v-0.575l-0.497-0.289
	C11.188,17.675,11,17.354,11,17C11,16.449,11.449,16,12,16 M12,15c-1.105,0-2,0.895-2,2c0,0.738,0.405,1.376,1,1.723V21h2v-2.277
	c0.595-0.346,1-0.984,1-1.723C14,15.895,13.105,15,12,15L12,15z M8,12V1h8v9h1V0H7v12H6v12h12V12H8z M17,23H7V13h10V23z M13,2h-2v1
	h2V2z"/>
</svg>
