<?xml version="1.0" encoding="utf-8"?>
<!-- Generator: Adobe Illustrator 21.1.0, SVG Export Plug-In . SVG Version: 6.00 Build 0)  -->
<svg version="1.1" id="Layer_1" xmlns="http://www.w3.org/2000/svg" xmlns:xlink="http://www.w3.org/1999/xlink" x="0px" y="0px"
	 width="24px" height="24px" viewBox="0 0 24 24" enable-background="new 0 0 24 24" xml:space="preserve">
<path fill="#4A4A4A" d="M23.715,5.875c-0.19-0.682-0.459-1.32-0.805-1.914c-0.347-0.594-0.764-1.134-1.25-1.621
	c-0.487-0.487-1.027-0.903-1.621-1.25c-0.594-0.346-1.232-0.614-1.914-0.805C17.442,0.095,16.734,0,16,0
	c-0.74,0-1.449,0.095-2.129,0.285c-0.68,0.19-1.316,0.458-1.91,0.805s-1.134,0.763-1.621,1.25S9.436,3.367,9.09,3.961
	C8.743,4.555,8.475,5.193,8.285,5.875C8.14,6.396,8.068,6.937,8.034,7.489c0.24-0.099,0.485-0.187,0.738-0.257
	c0.094-0.026,0.192-0.037,0.287-0.058C9.105,6.774,9.174,6.381,9.289,6h2.836c-0.042,0.333-0.073,0.666-0.094,0.996
	c-0.004,0.064-0.003,0.13-0.006,0.194c0.067,0.016,0.137,0.023,0.204,0.042c0.27,0.075,0.533,0.168,0.788,0.275
	c0.006-0.17,0.006-0.342,0.018-0.511c0.024-0.33,0.056-0.663,0.098-0.996h5.734c0.041,0.333,0.074,0.666,0.098,0.996
	C18.988,7.327,19,7.662,19,8c0,0.339-0.012,0.673-0.035,1.004C18.941,9.335,18.908,9.667,18.867,10h-2.904
	c0.048,0.074,0.104,0.143,0.149,0.219c0.146,0.249,0.275,0.51,0.387,0.781h2.196c-0.042,0.203-0.102,0.443-0.18,0.719
	c-0.078,0.276-0.175,0.562-0.289,0.859c-0.115,0.297-0.246,0.59-0.395,0.879s-0.316,0.549-0.504,0.777
	c-0.138,0.169-0.288,0.305-0.444,0.425c-0.034,0.191-0.065,0.384-0.116,0.57c-0.071,0.253-0.159,0.497-0.257,0.737
	c0.552-0.034,1.093-0.106,1.614-0.252c0.682-0.189,1.32-0.458,1.914-0.805c0.594-0.346,1.134-0.763,1.621-1.25
	c0.486-0.486,0.903-1.027,1.25-1.621c0.346-0.594,0.614-1.231,0.805-1.914C23.904,9.443,24,8.734,24,8S23.904,6.558,23.715,5.875z
	 M12.801,3.113c-0.117,0.31-0.218,0.624-0.301,0.941C12.417,4.373,12.344,4.688,12.281,5H9.68c0.198-0.422,0.438-0.819,0.719-1.191
	s0.594-0.712,0.938-1.02c0.344-0.307,0.716-0.581,1.117-0.82s0.82-0.435,1.258-0.586c-0.188,0.261-0.357,0.537-0.508,0.828
	C13.052,2.503,12.918,2.804,12.801,3.113z M13.305,5c0.041-0.203,0.102-0.442,0.18-0.719c0.078-0.276,0.174-0.562,0.289-0.859
	c0.114-0.297,0.246-0.59,0.395-0.879s0.316-0.548,0.504-0.777s0.392-0.414,0.613-0.555C15.506,1.07,15.744,1,16,1
	c0.255,0,0.493,0.07,0.715,0.211c0.221,0.141,0.426,0.326,0.613,0.555c0.188,0.229,0.355,0.488,0.504,0.777s0.279,0.582,0.395,0.879
	c0.114,0.297,0.211,0.583,0.289,0.859S18.654,4.797,18.696,5H13.305z M18.797,2.211c-0.151-0.292-0.32-0.567-0.508-0.828
	c0.438,0.151,0.856,0.347,1.258,0.586c0.4,0.24,0.773,0.513,1.117,0.82c0.344,0.308,0.656,0.647,0.938,1.02
	C21.883,4.181,22.122,4.578,22.32,5h-2.602c-0.062-0.312-0.136-0.627-0.219-0.945c-0.084-0.317-0.184-0.631-0.301-0.941
	C19.082,2.804,18.947,2.503,18.797,2.211z M21.602,12.191c-0.281,0.373-0.594,0.712-0.938,1.02c-0.344,0.308-0.717,0.581-1.117,0.82
	c-0.401,0.24-0.82,0.436-1.258,0.586c0.188-0.26,0.356-0.536,0.508-0.828c0.15-0.291,0.285-0.592,0.402-0.902
	s0.217-0.624,0.301-0.941c0.083-0.317,0.156-0.633,0.219-0.945h2.602C22.122,11.422,21.883,11.819,21.602,12.191z M22.711,10h-2.836
	c0.041-0.333,0.072-0.665,0.094-0.996C19.989,8.673,20,8.339,20,8c0-0.338-0.011-0.673-0.031-1.004
	C19.947,6.666,19.916,6.333,19.875,6h2.836C22.903,6.641,23,7.308,23,8C23,8.693,22.903,9.359,22.711,10z"/>
<path fill="#4A4A4A" d="M10.5,8c0.505,0,0.992,0.065,1.461,0.195c0.469,0.13,0.906,0.315,1.312,0.555
	c0.406,0.24,0.777,0.527,1.113,0.863s0.623,0.707,0.863,1.113c0.239,0.406,0.424,0.844,0.555,1.312C15.935,12.508,16,12.995,16,13.5
	c0,0.506-0.065,0.992-0.195,1.461c-0.131,0.469-0.315,0.906-0.555,1.312c-0.24,0.406-0.527,0.777-0.863,1.113
	s-0.707,0.624-1.113,0.863s-0.844,0.425-1.312,0.555S11.005,19,10.5,19c-0.651,0-1.275-0.109-1.871-0.328
	c-0.597-0.219-1.145-0.534-1.645-0.945l-6.133,6.125C0.752,23.95,0.635,24,0.5,24c-0.136,0-0.253-0.05-0.352-0.148
	C0.049,23.753,0,23.636,0,23.5s0.049-0.253,0.148-0.352l6.125-6.133c-0.412-0.5-0.727-1.048-0.945-1.645
	C5.109,14.775,5,14.151,5,13.5c0-0.505,0.065-0.992,0.195-1.461c0.13-0.469,0.315-0.906,0.555-1.312
	c0.239-0.406,0.527-0.777,0.863-1.113S7.32,8.99,7.727,8.75C8.133,8.511,8.57,8.326,9.039,8.195C9.508,8.065,9.995,8,10.5,8z
	 M10.5,18c0.62,0,1.203-0.118,1.75-0.355s1.023-0.559,1.43-0.965s0.728-0.883,0.965-1.43C14.881,14.703,15,14.12,15,13.5
	s-0.119-1.203-0.355-1.75c-0.237-0.547-0.559-1.023-0.965-1.43s-0.883-0.728-1.43-0.965C11.703,9.119,11.12,9,10.5,9
	S9.297,9.119,8.75,9.355C8.203,9.593,7.727,9.914,7.32,10.32s-0.728,0.883-0.965,1.43S6,12.88,6,13.5s0.118,1.203,0.355,1.75
	s0.559,1.023,0.965,1.43s0.883,0.728,1.43,0.965S9.88,18,10.5,18z"/>
</svg>
