<?xml version="1.0" encoding="utf-8"?>
<!-- Generator: Adobe Illustrator 21.1.0, SVG Export Plug-In . SVG Version: 6.00 Build 0)  -->
<!DOCTYPE svg PUBLIC "-//W3C//DTD SVG 1.1//EN" "http://www.w3.org/Graphics/SVG/1.1/DTD/svg11.dtd">
<svg version="1.1" id="Layer_1" xmlns="http://www.w3.org/2000/svg" xmlns:xlink="http://www.w3.org/1999/xlink" x="0px" y="0px"
	 width="24px" height="24px" viewBox="0 0 24 24" enable-background="new 0 0 24 24" xml:space="preserve">
<path fill="#4A4A4A" d="M19,2.641c-2.84,0-5.445-0.992-7.5-2.641C9.445,1.649,6.84,2.641,4,2.641c-0.683,0-1.348-0.07-2-0.18v10.833
	c0,0.816,0.121,1.59,0.361,2.323c0.24,0.732,0.574,1.427,1,2.083c0.425,0.656,0.928,1.276,1.509,1.857s1.21,1.127,1.89,1.639
	c0.68,0.511,1.397,0.988,2.152,1.429c0.755,0.442,1.516,0.849,2.281,1.224L11.5,24l0.306-0.151c0.765-0.374,1.526-0.782,2.281-1.224
	s1.473-0.918,2.152-1.43c0.68-0.511,1.309-1.058,1.89-1.639c0.581-0.581,1.084-1.2,1.509-1.857c0.425-0.656,0.758-1.351,1-2.083
	C20.88,14.884,21,14.109,21,13.294V2.461C20.348,2.57,19.683,2.641,19,2.641z M20,3.597V11h-8V1.58c2.089,1.347,4.481,2.061,7,2.061
	C19.325,3.641,19.657,3.626,20,3.597z M4,3.641c2.519,0,4.911-0.714,7-2.061V11H3V3.597C3.342,3.627,3.674,3.641,4,3.641z
	 M7.362,20.397c-0.637-0.48-1.237-1-1.784-1.547c-0.527-0.527-0.99-1.097-1.377-1.695c-0.378-0.582-0.677-1.204-0.888-1.85
	C3.105,14.675,3,13.998,3,13.294V12h8v10.616c-0.535-0.276-1.071-0.554-1.584-0.854C8.704,21.345,8.012,20.886,7.362,20.397z
	 M11.5,22.885c-0.006-0.003-0.013-0.007-0.019-0.01h0.038C11.512,22.878,11.506,22.882,11.5,22.885z M19.689,15.302
	c-0.215,0.65-0.514,1.273-0.89,1.854c-0.385,0.595-0.848,1.165-1.376,1.693c-0.551,0.551-1.151,1.071-1.785,1.548
	c-0.639,0.482-1.33,0.941-2.055,1.365c-0.518,0.304-1.051,0.579-1.582,0.853V12h8v1.294C20,14.001,19.895,14.677,19.689,15.302z"/>
</svg>
