<?xml version="1.0" encoding="utf-8"?>
<!-- Generator: Adobe Illustrator 21.1.0, SVG Export Plug-In . SVG Version: 6.00 Build 0)  -->
<svg version="1.1" id="Layer_1" xmlns="http://www.w3.org/2000/svg" xmlns:xlink="http://www.w3.org/1999/xlink" x="0px" y="0px"
	 width="24px" height="24px" viewBox="0 0 24 24" enable-background="new 0 0 24 24" xml:space="preserve">
<path fill="#4A4A4A" d="M4,0v2H1v11h3v2H1v5h3v4h19V0H4z M4,19H2v-3h2V19z M4,12H2V3h2V12z M22,23H4.977V1H22V23z M11,19v1H8v-1H11
	 M12,18H7v3h5V18L12,18z M15,19v1h-1v-1H15 M16,18h-3v3h3V18L16,18z M9,4v1H8V4H9 M10,3H7v3h3V3L10,3z M19,19v1h-1v-1H19 M20,18h-3
	v3h3V18L20,18z M20,5V4h-1V3h-5v1h-3v4H7v7h4v2h9v-4h-7v-1h4v-2h2V9h1V8h-1V7h1V6h-1V5H20z M19,14v2h-7v-2H19z M16,11h-4v2h-1v1H8V9
	h4V5h2v1h-1v1h1v1h-1v1h1v1h2V11z M18,9h-3V4h3V9z"/>
</svg>
