<?xml version="1.0" encoding="utf-8"?>
<!-- Generator: Adobe Illustrator 21.1.0, SVG Export Plug-In . SVG Version: 6.00 Build 0)  -->
<svg version="1.1" id="Layer_1" xmlns="http://www.w3.org/2000/svg" xmlns:xlink="http://www.w3.org/1999/xlink" x="0px" y="0px"
	 width="24px" height="24px" viewBox="0 0 24 24" enable-background="new 0 0 24 24" xml:space="preserve">
<path fill="#4A4A4A" d="M6.5,15C6.776,15,7,15.224,7,15.5S6.776,16,6.5,16S6,15.776,6,15.5S6.224,15,6.5,15 M6.5,14
	C5.672,14,5,14.672,5,15.5S5.672,17,6.5,17S8,16.328,8,15.5S7.328,14,6.5,14L6.5,14z M11.5,15c0.276,0,0.5,0.224,0.5,0.5
	S11.776,16,11.5,16S11,15.776,11,15.5S11.224,15,11.5,15 M11.5,14c-0.828,0-1.5,0.672-1.5,1.5s0.672,1.5,1.5,1.5s1.5-0.672,1.5-1.5
	S12.328,14,11.5,14L11.5,14z M16.5,15c0.276,0,0.5,0.224,0.5,0.5S16.776,16,16.5,16S16,15.776,16,15.5S16.224,15,16.5,15 M16.5,14
	c-0.828,0-1.5,0.672-1.5,1.5s0.672,1.5,1.5,1.5s1.5-0.672,1.5-1.5S17.328,14,16.5,14L16.5,14z M0,2v20h23V2H0z M22,21H1V6h21V21z
	 M1,5V3h21v2H1z"/>
</svg>
