<?xml version="1.0" encoding="utf-8"?>
<!-- Generator: Adobe Illustrator 21.1.0, SVG Export Plug-In . SVG Version: 6.00 Build 0)  -->
<!DOCTYPE svg PUBLIC "-//W3C//DTD SVG 1.1//EN" "http://www.w3.org/Graphics/SVG/1.1/DTD/svg11.dtd">
<svg version="1.1" id="Layer_1" xmlns="http://www.w3.org/2000/svg" xmlns:xlink="http://www.w3.org/1999/xlink" x="0px" y="0px"
	 width="24px" height="24px" viewBox="0 0 24 24" enable-background="new 0 0 24 24" xml:space="preserve">
<path fill="#4A4A4A" d="M20.695,17.249l-4.676,4.696l1.205-3.635h-1.919l4.676-4.655l-1.205,3.594
	C18.776,17.249,20.695,17.249,20.695,17.249z M18,8V3.5C18,1.567,13.97,0,9,0S0,1.567,0,3.5v15C0,20.433,4.03,22,9,22
	c1.07,0,2.092-0.076,3.044-0.21l0,0C12.389,23.034,14.923,24,18,24c3.313,0,6-1.119,6-2.5v-11C24,9.119,21.313,8,18,8z M9,1
	c5.176,0,8,1.651,8,2.5S14.176,6,9,6S1,4.349,1,3.5S3.824,1,9,1z M12,10.5v10.292C11.109,20.92,10.113,21,9,21
	c-5.176,0-8-1.651-8-2.5V5.099C2.494,6.227,5.512,7,9,7s6.506-0.773,8-1.901v2.939l0,0C14.164,8.236,12,9.262,12,10.5z M23,21.5
	c0,0.385-1.719,1.5-5,1.5s-5-1.115-5-1.5v-9.619C14.075,12.555,15.912,13,18,13s3.925-0.445,5-1.119V21.5z M18,12
	c-3.281,0-5-1.115-5-1.5S14.719,9,18,9s5,1.115,5,1.5S21.281,12,18,12z"/>
</svg>
