<?xml version="1.0" encoding="utf-8"?>
<!-- Generator: Adobe Illustrator 21.1.0, SVG Export Plug-In . SVG Version: 6.00 Build 0)  -->
<!DOCTYPE svg PUBLIC "-//W3C//DTD SVG 1.1//EN" "http://www.w3.org/Graphics/SVG/1.1/DTD/svg11.dtd">
<svg version="1.1" id="Layer_1" xmlns="http://www.w3.org/2000/svg" xmlns:xlink="http://www.w3.org/1999/xlink" x="0px" y="0px"
	 width="24px" height="24px" viewBox="0 0 24 24" enable-background="new 0 0 24 24" xml:space="preserve">
<path fill="#4A4A4A" d="M23,1H1v5h1V2h20v4h1V1L23,1z M23,18h-1v4H2v-4H1v5h22V18L23,18z M17,15c-0.144,0-0.283,0.017-0.418,0.045
	L13.31,8.501C13.729,8.134,14,7.601,14,7c0-1.105-0.895-2-2-2s-2,0.895-2,2c0,0.601,0.271,1.134,0.691,1.501l-3.272,6.545
	C7.283,15.017,7.144,15,7,15c-1.105,0-2,0.895-2,2s0.895,2,2,2s2-0.895,2-2c0-0.601-0.271-1.134-0.691-1.501l3.272-6.545
	C11.717,8.983,11.856,9,12,9c0.144,0,0.283-0.017,0.418-0.045l3.272,6.545C15.271,15.866,15,16.399,15,17c0,1.105,0.895,2,2,2
	s2-0.895,2-2S18.105,15,17,15z M7,18c-0.551,0-1-0.449-1-1s0.449-1,1-1s1,0.449,1,1S7.551,18,7,18z M11,7c0-0.551,0.449-1,1-1
	s1,0.449,1,1s-0.449,1-1,1S11,7.551,11,7z M17,18c-0.551,0-1-0.449-1-1s0.449-1,1-1s1,0.449,1,1S17.551,18,17,18z"/>
</svg>
