<?xml version="1.0" encoding="utf-8"?>
<!-- Generator: Adobe Illustrator 21.1.0, SVG Export Plug-In . SVG Version: 6.00 Build 0)  -->
<svg version="1.1" id="Layer_1" xmlns="http://www.w3.org/2000/svg" xmlns:xlink="http://www.w3.org/1999/xlink" x="0px" y="0px"
	 width="24px" height="24px" viewBox="0 0 24 24" enable-background="new 0 0 24 24" xml:space="preserve">
<path fill="#4A4A4A" d="M11.5,2.185L3,7.093v9.815l8.5,4.907l8.5-4.907V7.093L11.5,2.185z M18.605,7.32L11.5,11.423L4.395,7.32
	L11.5,3.218L18.605,7.32z M3.895,8.186L11,12.288v8.205l-7.105-4.102V8.186z M12,20.493v-8.205l7.105-4.102v8.205L12,20.493z
	 M5,22.372l-5-2.887V4.515l5-2.887v1.155l-4,2.31v13.815l4,2.309V22.372z M23,4.515v14.97l-5,2.887v-1.155l4-2.309V5.093l-4-2.309
	V1.628L23,4.515z"/>
</svg>
