<?xml version="1.0" encoding="utf-8"?>
<!-- Generator: Adobe Illustrator 21.1.0, SVG Export Plug-In . SVG Version: 6.00 Build 0)  -->
<svg version="1.1" id="Layer_1" xmlns="http://www.w3.org/2000/svg" xmlns:xlink="http://www.w3.org/1999/xlink" x="0px" y="0px"
	 width="24px" height="24px" viewBox="0 0 24 24" enable-background="new 0 0 24 24" xml:space="preserve">
<path fill="#4A4A4A" d="M16,16.477l-4.5,2.242L7,16.477v-5.954l4.5-2.242l4.5,2.242V16.477z M8,11.641v4.219l3,1.492v-4.211
	L8,11.641z M14.383,10.836L11.5,9.398l-2.883,1.438l2.883,1.437L14.383,10.836z M12,17.352l3-1.492v-4.219l-3,1.5V17.352z M21.998,5
	H11c0,0-1.375,0-2-1S7,3,7,3H1.002C0.449,3,0,3.449,0,4.002V21h23V6.002C23,5.449,22.551,5,21.998,5z M1,4h6
	c0.008,0,0.84,0.031,1.152,0.53c0.282,0.451,0.652,0.753,1.03,0.97c-0.378,0.217-0.748,0.518-1.03,0.97C7.84,6.969,7.008,7,7,7H1V4z
	 M22,20H1V8h6c0,0,1.375,0,2-1s2-1,2-1h11V20z"/>
</svg>
