<?xml version="1.0" encoding="utf-8"?>
<!-- Generator: Adobe Illustrator 21.1.0, SVG Export Plug-In . SVG Version: 6.00 Build 0)  -->
<svg version="1.1" id="Layer_1" xmlns="http://www.w3.org/2000/svg" xmlns:xlink="http://www.w3.org/1999/xlink" x="0px" y="0px"
	 width="24px" height="24px" viewBox="0 0 24 24" enable-background="new 0 0 24 24" xml:space="preserve">
<path fill="#4A4A4A" d="M7,0v10H1.914l1.503,1.503L2.71,12.21L0,9.5l2.711-2.711l0.706,0.708L1.914,9H6V0H7z M23.95,24h-1.008
	c-0.5-4.493-4.317-8-8.941-8s-8.442,3.507-8.941,8H4.05c0.412-4.151,3.364-7.55,7.278-8.634C9.357,14.383,8,12.352,8,10
	c0-3.314,2.686-6,6-6s6,2.686,6,6c0,2.352-1.357,4.383-3.328,5.366C20.586,16.45,23.537,19.849,23.95,24z M14,15
	c2.757,0,5-2.243,5-5s-2.243-5-5-5s-5,2.243-5,5S11.243,15,14,15z"/>
</svg>
