<?xml version="1.0" encoding="utf-8"?>
<!-- Generator: Adobe Illustrator 21.1.0, SVG Export Plug-In . SVG Version: 6.00 Build 0)  -->
<svg version="1.1" id="Layer_1" xmlns="http://www.w3.org/2000/svg" xmlns:xlink="http://www.w3.org/1999/xlink" x="0px" y="0px"
	 width="24px" height="24px" viewBox="0 0 24 24" enable-background="new 0 0 24 24" xml:space="preserve">
<path fill="#4A4A4A" d="M5,23.372l-5-2.887V3.515l5-2.887v1.155l-4,2.31v15.815l4,2.309V23.372z M24,3.515v16.97l-5,2.887v-1.155
	l4-2.309V4.093l-4-2.309V0.628L24,3.515z M12,3c-4.971,0-9,4.029-9,9c0,3.489,1.987,6.508,4.89,8H6v1h4v-4H9v2.399
	C6.074,18.21,4,15.348,4,12c0-4.411,3.589-8,8-8s8,3.589,8,8s-3.589,8-8,8v1c4.971,0,9-4.029,9-9S16.971,3,12,3z M12,12V6h-1v7h5v-1
	H12z"/>
</svg>
