<?xml version="1.0" encoding="utf-8"?>
<!-- Generator: Adobe Illustrator 21.1.0, SVG Export Plug-In . SVG Version: 6.00 Build 0)  -->
<svg version="1.1" id="Layer_1" xmlns="http://www.w3.org/2000/svg" xmlns:xlink="http://www.w3.org/1999/xlink" x="0px" y="0px"
	 width="24px" height="24px" viewBox="0 0 24 24" enable-background="new 0 0 24 24" xml:space="preserve">
<path fill="#4A4A4A" d="M12,4v8h5v1h-6V4H12z M12,0C5.373,0,0,5.373,0,12c0,4.183,2.147,7.854,5.393,10H2v1h5v-5H6v3.197
	C2.996,19.233,1,15.85,1,12C1,5.935,5.935,1,12,1s11,4.935,11,11s-4.935,11-11,11c-0.684,0-1.35-0.071-2-0.191v1.011
	c0.652,0.11,1.317,0.18,2,0.18c6.627,0,12-5.373,12-12S18.627,0,12,0z"/>
</svg>
