<?xml version="1.0" encoding="utf-8"?>
<!-- Generator: Adobe Illustrator 21.1.0, SVG Export Plug-In . SVG Version: 6.00 Build 0)  -->
<svg version="1.1" id="Layer_1" xmlns="http://www.w3.org/2000/svg" xmlns:xlink="http://www.w3.org/1999/xlink" x="0px" y="0px"
	 width="24px" height="24px" viewBox="0 0 24 24" enable-background="new 0 0 24 24" xml:space="preserve">
<path fill="#4A4A4A" d="M10.5,8c0.505,0,0.992,0.065,1.461,0.195c0.469,0.13,0.906,0.315,1.312,0.555
	c0.406,0.24,0.777,0.527,1.113,0.863s0.623,0.707,0.863,1.113c0.239,0.406,0.424,0.844,0.555,1.312C15.935,12.508,16,12.995,16,13.5
	c0,0.506-0.065,0.992-0.195,1.461c-0.131,0.469-0.315,0.906-0.555,1.312c-0.24,0.406-0.527,0.777-0.863,1.113
	s-0.707,0.624-1.113,0.863s-0.844,0.425-1.312,0.555S11.005,19,10.5,19c-0.651,0-1.275-0.109-1.871-0.328
	c-0.597-0.219-1.145-0.534-1.645-0.945l-6.133,6.125C0.752,23.95,0.635,24,0.5,24c-0.136,0-0.253-0.05-0.352-0.148
	C0.049,23.753,0,23.636,0,23.5s0.049-0.253,0.148-0.352l6.125-6.133c-0.412-0.5-0.727-1.048-0.945-1.645
	C5.109,14.775,5,14.151,5,13.5c0-0.505,0.065-0.992,0.195-1.461c0.13-0.469,0.315-0.906,0.555-1.312
	c0.239-0.406,0.527-0.777,0.863-1.113S7.32,8.99,7.727,8.75C8.133,8.511,8.57,8.326,9.039,8.195C9.508,8.065,9.995,8,10.5,8z
	 M10.5,18c0.62,0,1.203-0.118,1.75-0.355s1.023-0.559,1.43-0.965s0.728-0.883,0.965-1.43C14.881,14.703,15,14.12,15,13.5
	s-0.119-1.203-0.355-1.75c-0.237-0.547-0.559-1.023-0.965-1.43s-0.883-0.728-1.43-0.965C11.703,9.119,11.12,9,10.5,9
	S9.297,9.119,8.75,9.355C8.203,9.593,7.727,9.914,7.32,10.32s-0.728,0.883-0.965,1.43S6,12.88,6,13.5s0.118,1.203,0.355,1.75
	s0.559,1.023,0.965,1.43s0.883,0.728,1.43,0.965S9.88,18,10.5,18z M23.643,8.73c-0.238-0.547-0.562-1.021-0.973-1.424
	s-0.891-0.721-1.441-0.955S20.09,6,19.465,6c-0.109-0.852-0.357-1.645-0.744-2.379s-0.877-1.369-1.471-1.904
	s-1.275-0.955-2.045-1.26S13.617,0,12.75,0c-0.578,0-1.141,0.07-1.688,0.211S10,0.555,9.516,0.82S8.584,1.412,8.174,1.799
	S7.402,2.621,7.09,3.105C6.723,3.035,6.359,3,6,3C5.172,3,4.393,3.156,3.662,3.469s-1.367,0.74-1.91,1.283s-0.971,1.18-1.283,1.91
	S0,8.172,0,9s0.156,1.607,0.469,2.338s0.74,1.367,1.283,1.91s1.18,0.971,1.91,1.283c0.149,0.064,0.301,0.116,0.453,0.167
	c-0.068-0.364-0.103-0.735-0.108-1.112c-0.588-0.259-1.111-0.608-1.548-1.045c-0.45-0.45-0.81-0.987-1.071-1.596
	C1.131,10.343,1,9.688,1,9s0.131-1.343,0.388-1.945c0.261-0.609,0.621-1.146,1.071-1.596c0.45-0.45,0.987-0.81,1.596-1.071
	C4.657,4.131,5.312,4,6,4c0.295,0,0.598,0.029,0.902,0.088l0.663,0.127L7.93,3.648c0.267-0.414,0.58-0.792,0.93-1.121
	C9.206,2.2,9.589,1.921,9.996,1.697c0.409-0.224,0.852-0.398,1.315-0.518C11.775,1.06,12.259,1,12.75,1
	c0.737,0,1.439,0.13,2.087,0.387c0.655,0.259,1.241,0.62,1.744,1.073c0.503,0.454,0.926,1.001,1.255,1.627
	c0.329,0.625,0.544,1.312,0.637,2.04L18.585,7h0.88c0.494,0,0.942,0.089,1.372,0.272c0.433,0.184,0.814,0.436,1.133,0.749
	c0.321,0.314,0.568,0.677,0.756,1.109C22.91,9.553,23,10.002,23,10.5c0,0.492-0.088,0.935-0.27,1.356
	c-0.186,0.43-0.433,0.796-0.756,1.119c-0.322,0.322-0.69,0.569-1.122,0.755C20.427,13.911,19.985,14,19.5,14h-2.533
	c-0.026,0.34-0.074,0.674-0.152,1H19.5c0.617,0,1.199-0.117,1.746-0.352s1.025-0.557,1.436-0.967s0.732-0.887,0.967-1.43
	S24,11.125,24,10.5C24,9.867,23.881,9.277,23.643,8.73z"/>
</svg>
