<?xml version="1.0" encoding="utf-8"?>
<!-- Generator: Adobe Illustrator 21.1.0, SVG Export Plug-In . SVG Version: 6.00 Build 0)  -->
<svg version="1.1" id="Layer_1" xmlns="http://www.w3.org/2000/svg" xmlns:xlink="http://www.w3.org/1999/xlink" x="0px" y="0px"
	 width="24px" height="24px" viewBox="0 0 24 24" enable-background="new 0 0 24 24" xml:space="preserve">
<path fill="#4A4A4A" d="M11.5,6.959L8,8.979v4.041l3.5,2.021l3.5-2.021V8.979L11.5,6.959z M13.5,9.268l-2,1.155l-2-1.155l2-1.155
	L13.5,9.268z M9,10.134l2,1.155v2.309l-2-1.155V10.134z M12,13.598v-2.309l2-1.155v2.31L12,13.598z M4,17h7v1H8v1h7v-1h-3v-1h7V5H4
	V17z M5,6h13v10H5V6z M19.419,18c-0.379,0.544-0.8,1.066-1.29,1.556c-0.581,0.581-1.21,1.128-1.89,1.639
	c-0.679,0.512-1.397,0.988-2.152,1.43s-1.516,0.85-2.281,1.224L11.5,24l-0.307-0.151c-0.765-0.375-1.526-0.782-2.281-1.224
	c-0.755-0.441-1.472-0.918-2.152-1.429c-0.68-0.512-1.309-1.058-1.89-1.639C4.38,19.067,3.958,18.544,3.579,18h1.238
	c0.236,0.293,0.49,0.578,0.762,0.85c0.547,0.547,1.147,1.067,1.784,1.547c0.651,0.489,1.343,0.948,2.055,1.364
	c0.675,0.395,1.374,0.773,2.083,1.124c0.701-0.347,1.4-0.724,2.082-1.123c0.725-0.424,1.416-0.883,2.055-1.365
	c0.634-0.477,1.234-0.997,1.785-1.548c0.272-0.273,0.526-0.557,0.761-0.849H19.419z M21,2.461v10.833c0,0.815-0.12,1.59-0.362,2.322
	C20.473,16.115,20.25,16.59,20,17.054v-3.76V5V3.597c-0.343,0.029-0.675,0.044-1,0.044c-2.721,0-5.298-0.823-7.5-2.388
	C9.298,2.818,6.721,3.641,4,3.641c-0.326,0-0.658-0.015-1-0.044V5v8.294v3.764c-0.251-0.465-0.475-0.941-0.639-1.441
	C2.121,14.884,2,14.11,2,13.294V2.461c0.652,0.11,1.317,0.18,2,0.18c2.84,0,5.445-0.992,7.5-2.641c2.055,1.649,4.66,2.641,7.5,2.641
	C19.683,2.641,20.348,2.57,21,2.461z"/>
</svg>
