<?xml version="1.0" encoding="utf-8"?>
<!-- Generator: Adobe Illustrator 21.1.0, SVG Export Plug-In . SVG Version: 6.00 Build 0)  -->
<!DOCTYPE svg PUBLIC "-//W3C//DTD SVG 1.1//EN" "http://www.w3.org/Graphics/SVG/1.1/DTD/svg11.dtd">
<svg version="1.1" id="Layer_1" xmlns="http://www.w3.org/2000/svg" xmlns:xlink="http://www.w3.org/1999/xlink" x="0px" y="0px"
	 width="24px" height="24px" viewBox="0 0 24 24" enable-background="new 0 0 24 24" xml:space="preserve">
<path fill="#4A4A4A" d="M14,9V7.5C14,6.119,12.881,5,11.5,5S9,6.119,9,7.5V9H7v7h9V9H14z M10,7.5C10,6.673,10.673,6,11.5,6
	S13,6.673,13,7.5V9h-3V7.5z M15,15H8v-5h7V15z M11.5,1.253c2.202,1.565,4.779,2.388,7.5,2.388c0.325,0,0.657-0.015,1-0.044v9.697
	c0,0.707-0.105,1.383-0.311,2.008c-0.215,0.65-0.514,1.274-0.89,1.854c-0.385,0.595-0.848,1.164-1.376,1.693
	c-0.551,0.551-1.151,1.071-1.785,1.548c-0.639,0.482-1.33,0.941-2.055,1.365c-0.682,0.399-1.381,0.776-2.082,1.123
	c-0.709-0.351-1.408-0.729-2.083-1.124c-0.712-0.416-1.404-0.875-2.055-1.364c-0.637-0.48-1.237-1-1.784-1.547
	c-0.527-0.527-0.99-1.097-1.377-1.695c-0.378-0.582-0.677-1.204-0.888-1.85C3.105,14.675,3,13.998,3,13.294V3.597
	c0.342,0.029,0.674,0.044,1,0.044C6.721,3.641,9.298,2.818,11.5,1.253 M11.5,0C9.445,1.649,6.84,2.641,4,2.641
	c-0.683,0-1.348-0.07-2-0.18v10.833c0,0.816,0.121,1.59,0.361,2.323c0.24,0.732,0.574,1.427,1,2.083
	c0.425,0.656,0.928,1.276,1.509,1.857c0.581,0.581,1.21,1.127,1.89,1.639c0.68,0.511,1.397,0.988,2.152,1.429
	c0.755,0.442,1.516,0.849,2.281,1.224L11.5,24l0.306-0.151c0.765-0.374,1.526-0.782,2.281-1.224c0.755-0.442,1.473-0.918,2.152-1.43
	c0.68-0.511,1.309-1.058,1.89-1.639c0.581-0.581,1.084-1.2,1.509-1.857c0.425-0.656,0.758-1.351,1-2.083
	C20.88,14.884,21,14.109,21,13.294V2.461c-0.652,0.109-1.317,0.18-2,0.18C16.16,2.641,13.555,1.649,11.5,0L11.5,0z"/>
</svg>
