<?xml version="1.0" encoding="utf-8"?>
<!-- Generator: Adobe Illustrator 21.1.0, SVG Export Plug-In . SVG Version: 6.00 Build 0)  -->
<!DOCTYPE svg PUBLIC "-//W3C//DTD SVG 1.1//EN" "http://www.w3.org/Graphics/SVG/1.1/DTD/svg11.dtd">
<svg version="1.1" id="Layer_1" xmlns="http://www.w3.org/2000/svg" xmlns:xlink="http://www.w3.org/1999/xlink" x="0px" y="0px"
	 width="24px" height="24px" viewBox="0 0 24 24" enable-background="new 0 0 24 24" xml:space="preserve">
<path fill="#4A4A4A" d="M16,15H8v-1h8V15z M16,18H8v-1h8V18z M16,21H8v-1h8V21z M16,4H8V3h8V4z M15.998,1
	C16.551,1,17,1.449,17,2.002v20.997H7V2.002C7,1.449,7.449,1,8.002,1H15.998 M15.998,0H8.002C6.896,0,6,0.896,6,2.002v21.997h12
	V2.002C18,0.896,17.104,0,15.998,0L15.998,0z"/>
</svg>
