<?xml version="1.0" encoding="utf-8"?>
<!-- Generator: Adobe Illustrator 21.1.0, SVG Export Plug-In . SVG Version: 6.00 Build 0)  -->
<!DOCTYPE svg PUBLIC "-//W3C//DTD SVG 1.1//EN" "http://www.w3.org/Graphics/SVG/1.1/DTD/svg11.dtd">
<svg version="1.1" id="Layer_1" xmlns="http://www.w3.org/2000/svg" xmlns:xlink="http://www.w3.org/1999/xlink" x="0px" y="0px"
	 width="24px" height="24px" viewBox="0 0 24 24" enable-background="new 0 0 24 24" xml:space="preserve">
<path fill="#4A4A4A" d="M17.625,2c0.741,0,1.443,0.142,2.086,0.421c0.655,0.285,1.234,0.674,1.721,1.158
	c0.484,0.48,0.871,1.056,1.15,1.711C22.859,5.938,23,6.64,23,7.375c0,0.715-0.138,1.41-0.41,2.066
	c-0.272,0.656-0.663,1.241-1.16,1.738L12,20.598L2.57,11.18c-0.498-0.498-0.888-1.083-1.16-1.739C1.138,8.785,1,8.09,1,7.375
	C1,6.64,1.141,5.938,1.418,5.289c0.28-0.655,0.667-1.23,1.15-1.711c0.487-0.483,1.066-0.873,1.721-1.158
	C4.932,2.142,5.634,2,6.375,2c0.55,0,1.04,0.061,1.454,0.182c0.423,0.124,0.818,0.296,1.176,0.512
	c0.373,0.225,0.735,0.501,1.078,0.819c0.382,0.355,0.787,0.751,1.204,1.176L12,5.415l0.713-0.726
	c0.417-0.425,0.822-0.82,1.204-1.176c0.342-0.319,0.705-0.594,1.078-0.819c0.358-0.216,0.753-0.388,1.176-0.512
	C16.585,2.061,17.075,2,17.625,2 M17.625,1c-0.648,0-1.227,0.074-1.734,0.223c-0.508,0.148-0.979,0.354-1.412,0.615
	c-0.434,0.262-0.848,0.576-1.242,0.943C12.842,3.148,12.43,3.551,12,3.988c-0.43-0.438-0.842-0.84-1.236-1.207
	C10.369,2.414,9.955,2.1,9.521,1.838C9.088,1.576,8.617,1.371,8.109,1.223C7.602,1.074,7.023,1,6.375,1
	C5.492,1,4.664,1.168,3.891,1.504C3.117,1.84,2.441,2.295,1.863,2.869C1.285,3.443,0.83,4.119,0.498,4.896
	C0.166,5.674,0,6.5,0,7.375c0,0.852,0.162,1.668,0.486,2.449s0.783,1.469,1.377,2.062L12,22.012l10.137-10.125
	c0.594-0.594,1.053-1.281,1.377-2.062S24,8.227,24,7.375c0-0.875-0.166-1.701-0.498-2.479c-0.332-0.777-0.787-1.453-1.365-2.027
	c-0.578-0.574-1.254-1.029-2.027-1.365C19.336,1.168,18.508,1,17.625,1L17.625,1z"/>
<polygon fill="#4A4A4A" points="11.816,16.677 9.873,9.874 8.309,13 4,13 3,12 7.691,12 10.127,7.126 12.184,14.323 13.732,12 
	17,12 17,13 14.268,13 "/>
</svg>
