<?xml version="1.0" encoding="utf-8"?>
<!-- Generator: Adobe Illustrator 21.1.0, SVG Export Plug-In . SVG Version: 6.00 Build 0)  -->
<svg version="1.1" id="Layer_1" xmlns="http://www.w3.org/2000/svg" xmlns:xlink="http://www.w3.org/1999/xlink" x="0px" y="0px"
	 width="24px" height="24px" viewBox="0 0 24 24" enable-background="new 0 0 24 24" xml:space="preserve">
<path fill="#4A4A4A" d="M4,2H1v3H0V1h4V2z M1,22v-3H0v4h4v-1H1z M20,1v1h3v3h1V1H20z M23,19v3h-3v1h4v-4H23z M12,6.625
	c-1.381,0-2.5,0.392-2.5,0.875s1.119,0.875,2.5,0.875s2.5-0.392,2.5-0.875S13.381,6.625,12,6.625z M18.992,12
	C20.846,12.635,22,13.52,22,14.5v2c0,1.933-4.477,3.5-10,3.5S2,18.433,2,16.5v-2c0-0.98,1.154-1.865,3.008-2.5
	C3.154,11.365,2,10.48,2,9.5v-2C2,5.567,6.477,4,12,4s10,1.567,10,3.5v2C22,10.48,20.846,11.365,18.992,12z M21,16.018
	C19.383,17.19,15.967,18,12,18s-7.383-0.81-9-1.982V16.5c0,0.881,3.417,2.5,9,2.5s9-1.619,9-2.5V16.018z M17.078,12.511
	C15.588,12.82,13.856,13,12,13s-3.588-0.18-5.078-0.489C4.423,13.061,3,13.932,3,14.5c0,0.881,3.417,2.5,9,2.5s9-1.619,9-2.5
	C21,13.932,19.577,13.061,17.078,12.511z M21,9.018C19.383,10.19,15.967,11,12,11s-7.383-0.81-9-1.982V9.5
	c0,0.568,1.423,1.439,3.922,1.989C8.305,11.793,10.012,12,12,12s3.695-0.207,5.078-0.511C19.577,10.939,21,10.068,21,9.5V9.018z
	 M21,7.5C21,6.619,17.583,5,12,5S3,6.619,3,7.5C3,8.381,6.417,10,12,10S21,8.381,21,7.5z M12,13.625c-1.381,0-2.5,0.392-2.5,0.875
	s1.119,0.875,2.5,0.875s2.5-0.392,2.5-0.875S13.381,13.625,12,13.625z"/>
</svg>
