<?xml version="1.0" encoding="utf-8"?>
<!-- Generator: Adobe Illustrator 21.1.0, SVG Export Plug-In . SVG Version: 6.00 Build 0)  -->
<!DOCTYPE svg PUBLIC "-//W3C//DTD SVG 1.1//EN" "http://www.w3.org/Graphics/SVG/1.1/DTD/svg11.dtd">
<svg version="1.1" id="Layer_1" xmlns="http://www.w3.org/2000/svg" xmlns:xlink="http://www.w3.org/1999/xlink" x="0px" y="0px"
	 width="24px" height="24px" viewBox="0 0 24 24" enable-background="new 0 0 24 24" xml:space="preserve">
<path fill="#4A4A4A" d="M12,12c-1.657,0-3,0.672-3,1.5v5c0,0.828,1.343,1.5,3,1.5s3-0.672,3-1.5v-5C15,12.672,13.657,12,12,12z
	 M13.932,13.506C13.697,13.701,13.028,14,12,14c-1.028,0-1.698-0.299-1.932-0.494C10.283,13.312,10.942,13,12,13
	C13.058,13,13.717,13.312,13.932,13.506z M12,19c-1.15,0-1.855-0.375-2-0.559v-3.837C10.53,14.846,11.224,15,12,15
	c0.772,0,1.47-0.149,2-0.389v3.83C13.855,18.625,13.15,19,12,19z M12,3c-1.657,0-3,0.672-3,1.5v5c0,0.828,1.343,1.5,3,1.5
	s3-0.672,3-1.5v-5C15,3.672,13.657,3,12,3z M13.932,4.506C13.697,4.701,13.028,5,12,5c-1.028,0-1.698-0.299-1.932-0.494
	C10.283,4.312,10.942,4,12,4C13.058,4,13.717,4.312,13.932,4.506z M12,10c-1.15,0-1.855-0.375-2-0.559V5.604
	C10.53,5.846,11.224,6,12,6c0.772,0,1.47-0.149,2-0.389v3.83C13.855,9.625,13.15,10,12,10z M5,8C3.343,8,2,8.672,2,9.5v5
	C2,15.328,3.343,16,5,16s3-0.672,3-1.5v-5C8,8.672,6.657,8,5,8z M6.932,9.506C6.697,9.701,6.028,10,5,10
	c-1.028,0-1.698-0.299-1.932-0.494C3.283,9.312,3.942,9,5,9C6.058,9,6.717,9.312,6.932,9.506z M5,15c-1.15,0-1.855-0.375-2-0.559
	v-3.837C3.53,10.846,4.224,11,5,11c0.772,0,1.47-0.149,2-0.389v3.83C6.855,14.625,6.15,15,5,15z M19,8c-1.657,0-3,0.672-3,1.5v5
	c0,0.828,1.343,1.5,3,1.5s3-0.672,3-1.5v-5C22,8.672,20.657,8,19,8z M20.932,9.506C20.697,9.701,20.028,10,19,10
	c-1.028,0-1.698-0.299-1.932-0.494C17.283,9.312,17.942,9,19,9C20.058,9,20.717,9.312,20.932,9.506z M19,15
	c-1.15,0-1.855-0.375-2-0.559v-3.837C17.53,10.846,18.224,11,19,11c0.772,0,1.47-0.149,2-0.389v3.83C20.855,14.625,20.15,15,19,15z
	 M12,1c6.065,0,11,4.935,11,11s-4.935,11-11,11S1,18.065,1,12S5.935,1,12,1 M12,0C5.373,0,0,5.373,0,12s5.373,12,12,12
	s12-5.373,12-12S18.627,0,12,0L12,0z"/>
</svg>
