<?xml version="1.0" encoding="utf-8"?>
<!-- Generator: Adobe Illustrator 21.1.0, SVG Export Plug-In . SVG Version: 6.00 Build 0)  -->
<svg version="1.1" id="Layer_1" xmlns="http://www.w3.org/2000/svg" xmlns:xlink="http://www.w3.org/1999/xlink" x="0px" y="0px"
	 width="24px" height="24px" viewBox="0 0 24 24" enable-background="new 0 0 24 24" xml:space="preserve">
<path fill="#4A4A4A" d="M23,19.398c0,0.287-0.037,0.576-0.109,0.867l1.07,0.438l-0.375,0.93l-1.078-0.445
	c-0.308,0.511-0.714,0.917-1.219,1.219l0.445,1.07l-0.93,0.383l-0.438-1.07c-0.292,0.073-0.581,0.109-0.867,0.109
	c-0.287,0-0.576-0.036-0.867-0.109l-0.438,1.07l-0.93-0.383l0.445-1.07c-0.511-0.302-0.917-0.708-1.219-1.219l-1.078,0.445
	l-0.375-0.93l1.07-0.438C16.036,19.975,16,19.686,16,19.398c0-0.286,0.036-0.575,0.109-0.867l-1.07-0.438l0.375-0.93l1.078,0.445
	c0.302-0.505,0.708-0.911,1.219-1.219l-0.445-1.078l0.93-0.375l0.438,1.07c0.291-0.072,0.58-0.109,0.867-0.109
	c0.286,0,0.575,0.037,0.867,0.109l0.438-1.07l0.93,0.375l-0.445,1.078c0.505,0.308,0.911,0.714,1.219,1.219l1.078-0.445l0.375,0.93
	l-1.07,0.438C22.963,18.823,23,19.112,23,19.398z M19.5,21.898c0.344,0,0.666-0.064,0.969-0.195c0.302-0.13,0.566-0.309,0.793-0.535
	s0.406-0.492,0.539-0.797S22,19.742,22,19.398s-0.066-0.666-0.199-0.969c-0.133-0.302-0.312-0.566-0.539-0.793
	s-0.491-0.406-0.793-0.539c-0.303-0.133-0.625-0.199-0.969-0.199s-0.668,0.066-0.973,0.199s-0.57,0.312-0.797,0.539
	s-0.405,0.491-0.535,0.793C17.064,18.732,17,19.055,17,19.398s0.064,0.668,0.195,0.973c0.13,0.305,0.309,0.57,0.535,0.797
	s0.492,0.405,0.797,0.535C18.832,21.834,19.156,21.898,19.5,21.898z M14.737,22.14C13.39,22.624,11.465,23,9,23
	c-5.176,0-8-1.651-8-2.5V5.099C2.494,6.227,5.512,7,9,7c3.504,0,6.533-0.78,8.019-1.917L17.007,14.5
	c0.315-0.161,0.646-0.291,0.993-0.389V3.5C18,1.567,13.971,0,9,0S0,1.567,0,3.5v17C0,22.433,4.029,24,9,24
	c2.472,0,4.709-0.388,6.336-1.015C15.11,22.724,14.91,22.441,14.737,22.14z M9,1c5.176,0,8,1.651,8,2.5S14.176,6,9,6S1,4.349,1,3.5
	S3.824,1,9,1z M11.251,15.733c0.271-0.441,0.407-0.962,0.407-1.561c0.002-0.506-0.1-0.958-0.304-1.356
	c-0.204-0.398-0.49-0.705-0.859-0.921s-0.787-0.324-1.254-0.324c-0.5,0-0.943,0.112-1.33,0.334c-0.387,0.223-0.686,0.541-0.9,0.955
	c-0.213,0.414-0.32,0.885-0.32,1.414c0,0.477,0.099,0.909,0.295,1.297c0.197,0.388,0.476,0.693,0.838,0.916s0.768,0.343,1.218,0.359
	l1.05,1.185h1.485l-1.471-1.37C10.599,16.483,10.98,16.174,11.251,15.733z M10.111,15.421c-0.231,0.288-0.543,0.432-0.937,0.432
	c-0.387,0-0.696-0.149-0.93-0.446c-0.233-0.298-0.35-0.695-0.35-1.193c0-0.5,0.119-0.901,0.357-1.202
	c0.238-0.301,0.555-0.451,0.951-0.451c0.389,0,0.695,0.15,0.92,0.45c0.224,0.3,0.336,0.709,0.336,1.226
	C10.458,14.738,10.343,15.133,10.111,15.421z M4.263,15.942c-0.488,0-0.934-0.174-1.34-0.52v1.138
	c0.351,0.19,0.789,0.285,1.312,0.285c0.615,0,1.097-0.132,1.446-0.398c0.349-0.265,0.523-0.64,0.523-1.124
	c0-0.346-0.1-0.635-0.301-0.868c-0.201-0.233-0.539-0.461-1.013-0.687c-0.318-0.151-0.529-0.279-0.631-0.382
	c-0.103-0.103-0.154-0.236-0.154-0.397c0-0.156,0.064-0.281,0.191-0.375c0.128-0.093,0.301-0.14,0.52-0.14
	c0.436,0,0.825,0.119,1.167,0.356v-1.063c-0.326-0.13-0.736-0.196-1.231-0.196c-0.559,0-1.007,0.138-1.344,0.414
	c-0.338,0.276-0.506,0.643-0.506,1.101c0,0.631,0.387,1.129,1.16,1.494c0.379,0.18,0.631,0.327,0.755,0.441
	c0.124,0.114,0.186,0.248,0.186,0.402c0,0.157-0.064,0.282-0.193,0.377C4.681,15.895,4.499,15.942,4.263,15.942z M13.64,15.825
	v-4.169h-1.142v5.101h2.178c0.183-0.334,0.402-0.645,0.648-0.932H13.64z"/>
</svg>
