<?xml version="1.0" encoding="utf-8"?>
<!-- Generator: Adobe Illustrator 21.1.0, SVG Export Plug-In . SVG Version: 6.00 Build 0)  -->
<svg version="1.1" id="Layer_1" xmlns="http://www.w3.org/2000/svg" xmlns:xlink="http://www.w3.org/1999/xlink" x="0px" y="0px"
	 width="24px" height="24px" viewBox="0 0 24 24" enable-background="new 0 0 24 24" xml:space="preserve">
<path fill="#4A4A4A" d="M0,2v20h24V2H0z M23,21H1V6h22V21z M1,5V3h22v2H1z M20,9v1H4V9H20 M21,8H3v3h18V8L21,8z M20,13v1H4v-1H20
	 M21,12H3v3h18V12L21,12z M20,17v1H4v-1H20 M21,16H3v3h18V16L21,16z"/>
</svg>
