<?xml version="1.0" encoding="utf-8"?>
<!-- Generator: Adobe Illustrator 21.1.0, SVG Export Plug-In . SVG Version: 6.00 Build 0)  -->
<svg version="1.1" id="Layer_1" xmlns="http://www.w3.org/2000/svg" xmlns:xlink="http://www.w3.org/1999/xlink" x="0px" y="0px"
	 width="24px" height="24px" viewBox="0 0 24 24" enable-background="new 0 0 24 24" xml:space="preserve">
<path fill="#4A4A4A" d="M12.75,2c0.737,0,1.439,0.13,2.087,0.387c0.655,0.259,1.241,0.62,1.744,1.073
	c0.503,0.454,0.926,1.001,1.255,1.627c0.329,0.625,0.543,1.312,0.637,2.04L18.585,8h0.88c0.494,0,0.942,0.089,1.372,0.272
	c0.433,0.184,0.814,0.436,1.133,0.749c0.321,0.314,0.568,0.677,0.756,1.109C22.91,10.553,23,11.002,23,11.5
	c0,0.492-0.088,0.935-0.27,1.356c-0.186,0.43-0.433,0.796-0.756,1.119c-0.322,0.322-0.689,0.569-1.122,0.755
	C20.427,14.911,19.985,15,19.5,15H6c-0.688,0-1.343-0.131-1.945-0.388c-0.609-0.261-1.146-0.621-1.596-1.071
	c-0.45-0.45-0.81-0.987-1.071-1.596C1.131,11.343,1,10.688,1,10s0.131-1.343,0.388-1.945c0.261-0.609,0.621-1.146,1.071-1.596
	c0.45-0.45,0.987-0.81,1.596-1.071C4.657,5.131,5.312,5,6,5c0.295,0,0.598,0.029,0.902,0.088l0.663,0.127L7.93,4.648
	c0.267-0.414,0.58-0.792,0.93-1.121C9.206,3.2,9.589,2.921,9.996,2.697c0.409-0.224,0.851-0.398,1.315-0.518
	C11.775,2.06,12.259,2,12.75,2 M12.75,1c-0.578,0-1.141,0.07-1.688,0.211C10.516,1.352,10,1.555,9.516,1.82
	C9.031,2.086,8.584,2.412,8.174,2.799C7.764,3.186,7.402,3.621,7.09,4.105C6.723,4.035,6.359,4,6,4C5.172,4,4.393,4.156,3.662,4.469
	c-0.73,0.312-1.367,0.74-1.91,1.283c-0.543,0.543-0.971,1.18-1.283,1.91C0.156,8.393,0,9.172,0,10c0,0.828,0.156,1.607,0.469,2.338
	s0.74,1.367,1.283,1.91c0.543,0.543,1.18,0.971,1.91,1.283C4.393,15.844,5.172,16,6,16h13.5c0.617,0,1.199-0.117,1.746-0.352
	c0.547-0.234,1.025-0.557,1.436-0.967s0.732-0.887,0.967-1.43C23.883,12.709,24,12.125,24,11.5c0-0.633-0.119-1.223-0.357-1.77
	c-0.238-0.547-0.562-1.021-0.973-1.424c-0.41-0.402-0.891-0.721-1.441-0.955C20.678,7.117,20.09,7,19.465,7
	c-0.109-0.852-0.357-1.645-0.744-2.379c-0.387-0.734-0.877-1.369-1.471-1.904c-0.594-0.535-1.275-0.955-2.045-1.26
	C14.436,1.152,13.617,1,12.75,1L12.75,1z M18,17h-5v1h5V17z M18,19h-5v1h5V19z M18,21h-5v1h5V21z M12,9H7v1h5V9z M12,11H7v1h5V11z
	 M12,13H7v1h5V13z"/>
</svg>
