<?xml version="1.0" encoding="utf-8"?>
<!-- Generator: Adobe Illustrator 21.1.0, SVG Export Plug-In . SVG Version: 6.00 Build 0)  -->
<!DOCTYPE svg PUBLIC "-//W3C//DTD SVG 1.1//EN" "http://www.w3.org/Graphics/SVG/1.1/DTD/svg11.dtd">
<svg version="1.1" id="Layer_1" xmlns="http://www.w3.org/2000/svg" xmlns:xlink="http://www.w3.org/1999/xlink" x="0px" y="0px"
	 width="24px" height="24px" viewBox="0 0 24 24" enable-background="new 0 0 24 24" xml:space="preserve">
<path fill="#4A4A4A" d="M0,2v20h24V2H0z M23,21H1V6h22V21z M1,5V3h22v2H1z M7,9v9H5V9H7 M8,8H4v11h4V8L8,8z M13,9v9h-2V9H13 M14,8
	h-4v11h4V8L14,8z M19,9v9h-2V9H19 M20,8h-4v11h4V8L20,8z"/>
</svg>
