<?xml version="1.0" encoding="utf-8"?>
<!-- Generator: Adobe Illustrator 21.1.0, SVG Export Plug-In . SVG Version: 6.00 Build 0)  -->
<svg version="1.1" id="Layer_1" xmlns="http://www.w3.org/2000/svg" xmlns:xlink="http://www.w3.org/1999/xlink" x="0px" y="0px"
	 width="24px" height="24px" viewBox="0 0 24 24" enable-background="new 0 0 24 24" xml:space="preserve">
<path d="M12.207,4.793c0.099,0.099,0.173,0.21,0.221,0.331C12.476,5.246,12.499,5.371,12.5,5.5c0,0.129-0.024,0.254-0.072,0.376
	c-0.048,0.122-0.122,0.232-0.221,0.331s-0.21,0.173-0.331,0.221C11.754,6.476,11.629,6.5,11.5,6.5c-0.129,0-0.254-0.024-0.376-0.072
	c-0.122-0.048-0.232-0.122-0.331-0.221s-0.173-0.21-0.221-0.331C10.524,5.754,10.5,5.629,10.5,5.5c0-0.129,0.023-0.254,0.072-0.376
	c0.048-0.122,0.122-0.232,0.221-0.331s0.21-0.173,0.331-0.221C11.245,4.524,11.371,4.5,11.5,4.5c0.128,0,0.254,0.024,0.376,0.072
	C11.996,4.62,12.107,4.694,12.207,4.793z M5,22.372l-5-2.887V4.515l5-2.887v1.155l-4,2.31v13.814l4,2.31V22.372z M23,4.515v14.97
	l-5,2.887v-1.155l4-2.31V5.093l-4-2.31V1.628L23,4.515z M11.5,2C8.462,2,6,4.462,6,7.5c0,2.41,1.553,4.453,3.71,5.196l-1.162,1.166
	l1.414,1.414L8.548,16.69l1.414,1.414l-1.414,1.414l2.828,2.828L14,19.722v-7.327c1.78-0.911,3-2.758,3-4.895
	C17,4.462,14.538,2,11.5,2z M13.544,11.505L13,11.783v0.612v6.913l-1.624,1.624l-1.414-1.414l0.707-0.707l0.707-0.707l-0.707-0.707
	L9.962,16.69l0.707-0.707l0.707-0.707l-0.707-0.707l-0.707-0.707l1.475-1.475l-0.431-0.431c-0.447-0.042-0.875-0.165-1.291-0.344
	C8.082,10.902,7,9.299,7,7.5C7,5.019,9.019,3,11.5,3S16,5.019,16,7.5C16,9.195,15.059,10.729,13.544,11.505z"/>
</svg>
