<?xml version="1.0" encoding="utf-8"?>
<!-- Generator: Adobe Illustrator 21.1.0, SVG Export Plug-In . SVG Version: 6.00 Build 0)  -->
<svg version="1.1" id="Layer_1" xmlns="http://www.w3.org/2000/svg" xmlns:xlink="http://www.w3.org/1999/xlink" x="0px" y="0px"
	 width="24px" height="24px" viewBox="0 0 24 24" enable-background="new 0 0 24 24" xml:space="preserve">
<path fill="#4A4A4A" d="M21,5.029V1h-9L0,13l9,9l5.669-5.669C15.526,16.75,16.481,17,17.5,17c3.59,0,6.5-2.91,6.5-6.5
	C24,8.2,22.802,6.184,21,5.029z M1.414,13l11-11H20v2.5C19.23,4.179,18.386,4,17.5,4C17.224,4,17,4.224,17,4.5S17.224,5,17.5,5
	c0.901,0,1.749,0.222,2.5,0.607v3.979l-11,11L1.414,13z M17.5,16c-0.738,0-1.439-0.152-2.082-0.418L21,10V6.261
	c1.221,1.01,2,2.535,2,4.239C23,13.533,20.533,16,17.5,16z"/>
</svg>
