<?xml version="1.0" encoding="utf-8"?>
<!-- Generator: Adobe Illustrator 21.1.0, SVG Export Plug-In . SVG Version: 6.00 Build 0)  -->
<svg version="1.1" id="Layer_1" xmlns="http://www.w3.org/2000/svg" xmlns:xlink="http://www.w3.org/1999/xlink" x="0px" y="0px"
	 width="24px" height="24px" viewBox="0 0 24 24" enable-background="new 0 0 24 24" xml:space="preserve">
<path fill="#4A4A4A" d="M14.149,11h8.825C22.982,11.167,23,11.331,23,11.5s-0.018,0.333-0.025,0.5h-8.124l-2.512,6.907l-2-11
	L8.85,12H0.025C0.018,11.833,0,11.669,0,11.5s0.018-0.333,0.025-0.5H8.15l2.512-6.907l2,11L14.149,11z M1.12,10
	C1.852,4.92,6.221,1,11.5,1s9.648,3.92,10.38,9h1.011C22.154,4.359,17.342,0,11.5,0S0.846,4.359,0.109,10H1.12z M21.88,13
	c-0.732,5.08-5.101,9-10.38,9s-9.648-3.92-10.38-9H0.109C0.846,18.641,5.658,23,11.5,23s10.654-4.359,11.391-10H21.88z"/>
</svg>
