<?xml version="1.0" encoding="utf-8"?>
<!-- Generator: Adobe Illustrator 21.1.0, SVG Export Plug-In . SVG Version: 6.00 Build 0)  -->
<svg version="1.1" id="Layer_1" xmlns="http://www.w3.org/2000/svg" xmlns:xlink="http://www.w3.org/1999/xlink" x="0px" y="0px"
	 width="24px" height="24px" viewBox="0 0 24 24" enable-background="new 0 0 24 24" xml:space="preserve">
<path d="M14.409,14.414C17.106,13.278,19,10.611,19,7.5C19,3.358,15.642,0,11.5,0S4,3.358,4,7.5c0,3.111,1.894,5.778,4.591,6.914
	C4.366,15.633,1.241,19.434,1.025,24h1c0.263-5.005,4.405-9,9.475-9c5.07,0,9.212,3.995,9.475,9h1
	C21.759,19.434,18.634,15.633,14.409,14.414z M5,7.5C5,3.916,7.916,1,11.5,1S18,3.916,18,7.5S15.084,14,11.5,14S5,11.084,5,7.5z"/>
</svg>
