<?xml version="1.0" encoding="utf-8"?>
<!-- Generator: Adobe Illustrator 21.1.0, SVG Export Plug-In . SVG Version: 6.00 Build 0)  -->
<svg version="1.1" id="Layer_1" xmlns="http://www.w3.org/2000/svg" xmlns:xlink="http://www.w3.org/1999/xlink" x="0px" y="0px"
	 width="24px" height="24px" viewBox="0 0 24 24" enable-background="new 0 0 24 24" xml:space="preserve">
<path d="M11,11.979v4.041l3.5,2.021l3.5-2.021v-4.041l-3.5-2.021L11,11.979z M14.5,11.113l2,1.155l-2,1.155l-2-1.155L14.5,11.113z
	 M17,15.443l-2,1.155v-2.309l2-1.155V15.443z M12,15.443v-2.31l2,1.155v2.309L12,15.443z M23,8H6v12h8v1h-3v1h7v-1h-3v-1h8V8z
	 M22,19H7V9h15V19z M20,5v2h-1V6H4v10h1v1H3V5H20z M17,2v2h-1V3H1v10h1v1H0L0,2H17z"/>
</svg>
