<?xml version="1.0" encoding="utf-8"?>
<!-- Generator: Adobe Illustrator 21.1.0, SVG Export Plug-In . SVG Version: 6.00 Build 0)  -->
<svg version="1.1" id="Layer_1" xmlns="http://www.w3.org/2000/svg" xmlns:xlink="http://www.w3.org/1999/xlink" x="0px" y="0px"
	 width="24px" height="24px" viewBox="0 0 24 24" enable-background="new 0 0 24 24" xml:space="preserve">
<path fill="#4A4A4A" d="M1.406,11.5l5.711,5.711l-0.703,0.703L0,11.5l6.414-6.414l0.703,0.703L1.406,11.5z M7.5,10
	C6.672,10,6,10.672,6,11.5S6.672,13,7.5,13S9,12.328,9,11.5S8.328,10,7.5,10z M7.5,12C7.224,12,7,11.776,7,11.5S7.224,11,7.5,11
	S8,11.224,8,11.5S7.776,12,7.5,12z M11.5,10c-0.828,0-1.5,0.672-1.5,1.5s0.672,1.5,1.5,1.5s1.5-0.672,1.5-1.5S12.328,10,11.5,10z
	 M11.5,12c-0.276,0-0.5-0.224-0.5-0.5s0.224-0.5,0.5-0.5s0.5,0.224,0.5,0.5S11.776,12,11.5,12z M15.5,10c-0.828,0-1.5,0.672-1.5,1.5
	s0.672,1.5,1.5,1.5s1.5-0.672,1.5-1.5S16.328,10,15.5,10z M15.5,12c-0.276,0-0.5-0.224-0.5-0.5s0.224-0.5,0.5-0.5s0.5,0.224,0.5,0.5
	S15.776,12,15.5,12z M15.883,5.789l0.703-0.703L23,11.5l-6.414,6.414l-0.703-0.703l5.711-5.711L15.883,5.789z"/>
</svg>
