<?xml version="1.0" encoding="utf-8"?>
<!-- Generator: Adobe Illustrator 21.1.0, SVG Export Plug-In . SVG Version: 6.00 Build 0)  -->
<svg version="1.1" id="Layer_1" xmlns="http://www.w3.org/2000/svg" xmlns:xlink="http://www.w3.org/1999/xlink" x="0px" y="0px"
	 width="24px" height="24px" viewBox="0 0 24 24" enable-background="new 0 0 24 24" xml:space="preserve">
<path fill="#4A4A4A" d="M18,9V6.117c0-0.844-0.152-1.637-0.457-2.379s-0.727-1.391-1.266-1.945s-1.174-0.992-1.904-1.312
	S12.852,0,12,0h-1c-0.852,0-1.643,0.16-2.373,0.48S7.262,1.238,6.723,1.793S5.762,2.996,5.457,3.738S5,5.273,5,6.117V9H2v15h9h1h9V9
	H18z M6,6.117c0-0.709,0.129-1.382,0.382-1.999C6.637,3.498,6.993,2.95,7.44,2.49C7.886,2.031,8.42,1.663,9.029,1.396
	C9.628,1.133,10.292,1,11,1h1c0.708,0,1.372,0.133,1.971,0.396c0.608,0.267,1.143,0.635,1.589,1.094
	c0.447,0.46,0.803,1.008,1.058,1.628C16.871,4.736,17,5.408,17,6.117V9H6V6.117z M20,23H3V10h17V23z M9.5,16.495l-2.339,2.339
	L6.46,18.12L7.58,17H4.5v-1h3.091l-1.118-1.118l0.707-0.707L9.5,16.495z M9.866,13.54l-0.713-0.701l2.339-2.339l2.32,2.32
	l-0.707,0.707l-1.14-1.14v2.135h-1v-2.08L9.866,13.54z M13.104,19.473l0.707,0.707l-2.32,2.32l-2.339-2.339l0.713-0.701l1.099,1.099
	v-2.072h1v2.127L13.104,19.473z M18.5,17h-3.116l1.12,1.12l-0.701,0.713l-2.339-2.339l2.32-2.32l0.707,0.707L15.373,16H18.5V17z"/>
</svg>
