<?xml version="1.0" encoding="utf-8"?>
<!-- Generator: Adobe Illustrator 21.1.0, SVG Export Plug-In . SVG Version: 6.00 Build 0)  -->
<svg version="1.1" id="Layer_1" xmlns="http://www.w3.org/2000/svg" xmlns:xlink="http://www.w3.org/1999/xlink" x="0px" y="0px"
	 width="24px" height="24px" viewBox="0 0 24 24" enable-background="new 0 0 24 24" xml:space="preserve">
<path fill="#4A4A4A" d="M0,19h11v2H6v1h11v-1h-5v-2h11V2H0V19z M1,3h21v15H1V3z M16,13.477l-4.5,2.242L7,13.477V7.523l4.5-2.242
	L16,7.523V13.477z M8,8.641v4.219l3,1.492v-4.211L8,8.641z M14.383,7.836L11.5,6.398L8.617,7.836L11.5,9.273L14.383,7.836z
	 M12,14.352l3-1.492V8.641l-3,1.5V14.352z"/>
</svg>
