<?xml version="1.0" encoding="utf-8"?>
<!-- Generator: Adobe Illustrator 21.1.0, SVG Export Plug-In . SVG Version: 6.00 Build 0)  -->
<svg version="1.1" id="Layer_1" xmlns="http://www.w3.org/2000/svg" xmlns:xlink="http://www.w3.org/1999/xlink" x="0px" y="0px"
	 width="24px" height="24px" viewBox="0 0 24 24" enable-background="new 0 0 24 24" xml:space="preserve">
<path fill="#4A4A4A" d="M13.204,18.323c0,0.484-0.174,0.859-0.523,1.124c-0.349,0.266-0.831,0.398-1.446,0.398
	c-0.523,0-0.961-0.095-1.312-0.285v-1.138c0.406,0.346,0.852,0.52,1.34,0.52c0.236,0,0.418-0.047,0.547-0.142
	c0.129-0.095,0.193-0.22,0.193-0.377c0-0.154-0.062-0.288-0.186-0.402c-0.124-0.114-0.376-0.261-0.755-0.441
	c-0.773-0.365-1.16-0.863-1.16-1.494c0-0.458,0.168-0.825,0.506-1.101c0.337-0.276,0.785-0.414,1.344-0.414
	c0.495,0,0.905,0.066,1.231,0.196v1.063c-0.342-0.237-0.731-0.356-1.167-0.356c-0.219,0-0.392,0.047-0.52,0.14
	c-0.127,0.094-0.191,0.219-0.191,0.375c0,0.161,0.051,0.294,0.154,0.397c0.102,0.103,0.313,0.231,0.631,0.382
	c0.474,0.226,0.812,0.454,1.013,0.687C13.104,17.688,13.204,17.977,13.204,18.323z M18.354,15.816
	c-0.204-0.398-0.49-0.705-0.859-0.921c-0.369-0.216-0.787-0.324-1.254-0.324c-0.5,0-0.943,0.112-1.33,0.334
	c-0.387,0.223-0.686,0.541-0.9,0.955c-0.213,0.414-0.32,0.885-0.32,1.414c0,0.477,0.099,0.909,0.295,1.297
	c0.197,0.388,0.476,0.693,0.838,0.916c0.362,0.223,0.768,0.343,1.218,0.359l1.05,1.185h1.485l-1.471-1.37
	c0.493-0.178,0.874-0.487,1.145-0.928s0.407-0.962,0.407-1.561C18.66,16.666,18.558,16.214,18.354,15.816z M17.111,18.421
	c-0.231,0.288-0.543,0.432-0.937,0.432c-0.387,0-0.696-0.149-0.93-0.446c-0.233-0.298-0.35-0.695-0.35-1.193
	c0-0.5,0.119-0.901,0.357-1.202c0.238-0.301,0.555-0.451,0.951-0.451c0.389,0,0.695,0.15,0.92,0.45
	c0.224,0.3,0.336,0.709,0.336,1.226C17.458,17.738,17.343,18.133,17.111,18.421z M22.518,18.825H20.64v-4.169h-1.142v5.101h3.02
	V18.825z M16,6c-4.418,0-8,1.567-8,3.5v11c0,1.933,3.582,3.5,8,3.5s8-1.567,8-3.5v-11C24,7.567,20.418,6,16,6z M16,7
	c4.273,0,7,1.481,7,2.5S20.273,12,16,12s-7-1.481-7-2.5S11.727,7,16,7z M16,23c-4.273,0-7-1.481-7-2.5v-9.307
	C10.364,12.27,12.986,13,16,13s5.636-0.73,7-1.807V20.5C23,21.519,20.273,23,16,23z M7,14.923c-0.838-0.121-1.631-0.385-2.346-0.776
	h0c0.165-1.085,0.4-2.134,0.667-3.164c0,0,0,0,0,0C5.381,10.986,5.438,11,5.5,11c0.566,0,1.081-0.196,1.5-0.514V9.5
	c0-0.694,0.291-1.34,0.806-1.916C7.618,7.112,7.306,6.701,6.888,6.422C7.252,5.596,7.64,4.792,8.07,4.029
	c0.564,0.729,1.24,1.406,2.005,2.026l0,0c-0.001,0.003-0.001,0.006-0.001,0.009c0.699-0.298,1.492-0.544,2.367-0.723
	C12.183,5.131,11.858,5,11.5,5c-0.308,0-0.595,0.094-0.833,0.253c-0.799-0.658-1.49-1.382-2.042-2.162
	c0.393-0.635,0.81-1.245,1.247-1.827c1.987,0.553,3.6,1.971,4.454,3.811c0.356-0.031,0.721-0.05,1.092-0.061
	C14.234,2.076,11.362,0,8,0C3.582,0,0,3.582,0,8c0,4.079,3.055,7.438,7,7.931V14.923z M8,1c0.271,0,0.538,0.019,0.802,0.049
	c-0.26,0.36-0.515,0.728-0.759,1.107c-0.2-0.369-0.369-0.746-0.509-1.133C7.688,1.013,7.842,1,8,1z M6.529,1.173
	c0.228,0.675,0.531,1.328,0.918,1.951c-0.543,0.924-1.022,1.911-1.47,2.924C5.823,6.018,5.664,6,5.5,6
	C4.958,6,4.46,6.177,4.051,6.469c0,0,0.001-0.001,0.001-0.001c-0.704-0.834-1.263-1.734-1.62-2.694
	C3.427,2.468,4.87,1.53,6.529,1.173z M3.74,13.542C2.078,12.261,1,10.256,1,8c0-1.149,0.289-2.228,0.784-3.185
	c0.398,0.846,0.942,1.641,1.59,2.385l0,0C3.141,7.58,3,8.022,3,8.5c0,0.965,0.553,1.793,1.353,2.209
	C4.114,11.634,3.901,12.575,3.74,13.542z M4,8.5C4,7.673,4.673,7,5.5,7S7,7.673,7,8.5S6.327,10,5.5,10S4,9.327,4,8.5z"/>
</svg>
