<?xml version="1.0" encoding="utf-8"?>
<!-- Generator: Adobe Illustrator 21.1.0, SVG Export Plug-In . SVG Version: 6.00 Build 0)  -->
<svg version="1.1" id="Layer_1" xmlns="http://www.w3.org/2000/svg" xmlns:xlink="http://www.w3.org/1999/xlink" x="0px" y="0px"
	 width="24px" height="24px" viewBox="0 0 24 24" enable-background="new 0 0 24 24" xml:space="preserve">
<path fill="#4A4A4A" d="M16,6c-4.418,0-8,1.567-8,3.5v11c0,1.933,3.582,3.5,8,3.5s8-1.567,8-3.5v-11C24,7.567,20.418,6,16,6z M16,7
	c4.273,0,7,1.481,7,2.5S20.273,12,16,12s-7-1.481-7-2.5S11.727,7,16,7z M16,23c-4.273,0-7-1.481-7-2.5v-9.307
	C10.364,12.27,12.986,13,16,13s5.636-0.73,7-1.807V20.5C23,21.519,20.273,23,16,23z M7,14.923c-0.838-0.121-1.631-0.385-2.346-0.776
	l0,0c0.165-1.085,0.4-2.134,0.667-3.164l0,0C5.381,10.986,5.438,11,5.5,11c0.566,0,1.081-0.196,1.5-0.514V9.5
	c0-0.694,0.291-1.34,0.806-1.916c-0.188-0.472-0.5-0.883-0.918-1.162C7.252,5.596,7.64,4.792,8.07,4.029
	c0.564,0.729,1.24,1.406,2.005,2.026l0,0c-0.001,0.003-0.001,0.006-0.001,0.009c0.699-0.298,1.492-0.544,2.367-0.723
	C12.183,5.131,11.858,5,11.5,5c-0.308,0-0.595,0.094-0.833,0.253c-0.799-0.658-1.49-1.382-2.042-2.162
	c0.393-0.635,0.81-1.245,1.247-1.827c1.987,0.553,3.6,1.971,4.454,3.811c0.356-0.031,0.721-0.05,1.092-0.061
	C14.234,2.076,11.362,0,8,0C3.582,0,0,3.582,0,8c0,4.079,3.055,7.438,7,7.931V14.923z M8,1c0.271,0,0.538,0.019,0.802,0.049
	c-0.26,0.36-0.515,0.728-0.759,1.107c-0.2-0.369-0.369-0.746-0.509-1.133C7.688,1.013,7.842,1,8,1z M6.529,1.173
	C6.757,1.848,7.06,2.501,7.447,3.124c-0.543,0.924-1.022,1.911-1.47,2.924C5.823,6.018,5.664,6,5.5,6
	C4.958,6,4.46,6.177,4.051,6.469l0.001-0.001c-0.704-0.834-1.263-1.734-1.62-2.694C3.427,2.468,4.87,1.53,6.529,1.173z M3.74,13.542
	C2.078,12.261,1,10.256,1,8c0-1.149,0.289-2.228,0.784-3.185C2.182,5.661,2.726,6.456,3.374,7.2l0,0C3.141,7.58,3,8.022,3,8.5
	c0,0.965,0.553,1.793,1.353,2.209C4.114,11.634,3.901,12.575,3.74,13.542z M4,8.5C4,7.673,4.673,7,5.5,7S7,7.673,7,8.5
	S6.327,10,5.5,10S4,9.327,4,8.5z M10,19.265h0.957v-4.21l1.483,3.67c0.175,0.445,0.414,0.602,0.884,0.602s0.7-0.158,0.875-0.602
	l1.483-3.67v4.21h0.957v-4.203c0-0.41-0.147-0.609-0.451-0.711c-0.728-0.253-1.215-0.034-1.437,0.513l-1.455,3.622l-1.409-3.622
	c-0.212-0.547-0.709-0.765-1.437-0.513c-0.304,0.101-0.452,0.3-0.452,0.71V19.265L10,19.265z M17.437,15.837h0.957v2.319
	c-0.009,0.126,0.037,0.422,0.561,0.431c0.267,0.005,2.066,0,2.083,0v-2.762h0.96c0.004,0-0.001,3.766-0.001,3.783
	c0.005,0.929-1.035,1.131-1.515,1.146h-3.025v-0.717c0.005,0,3.022,0.001,3.03,0c0.616-0.072,0.543-0.414,0.543-0.528V19.23h-2.036
	c-0.947-0.009-1.551-0.47-1.558-0.999C17.437,18.181,17.458,15.86,17.437,15.837L17.437,15.837z"/>
</svg>
