<?xml version="1.0" encoding="utf-8"?>
<!-- Generator: Adobe Illustrator 21.1.0, SVG Export Plug-In . SVG Version: 6.00 Build 0)  -->
<svg version="1.1" id="Layer_1" xmlns="http://www.w3.org/2000/svg" xmlns:xlink="http://www.w3.org/1999/xlink" x="0px" y="0px"
	 width="24px" height="24px" viewBox="0 0 24 24" enable-background="new 0 0 24 24" xml:space="preserve">
<path fill="#4A4A4A" d="M12,0C5.373,0,0,5.373,0,12s5.373,12,12,12c6.627,0,12-5.373,12-12S18.627,0,12,0z M22.883,13.591
	c-1.08-0.548-2.132-1.144-3.155-1.783c0.107-0.279,0.168-0.58,0.168-0.897c0-1.386-1.124-2.51-2.51-2.51
	c-0.618,0-1.183,0.225-1.621,0.595c-1.096-0.88-2.145-1.815-3.145-2.801c1.989-1.243,4.252-2.085,6.677-2.417
	C21.567,5.795,23,8.733,23,12C23,12.54,22.959,13.071,22.883,13.591z M18.326,12.092c-0.258,0.206-0.584,0.33-0.939,0.33
	c-0.833,0-1.51-0.677-1.51-1.51c0-0.174,0.031-0.341,0.086-0.497c0.114-0.325,0.335-0.599,0.622-0.78
	c0.233-0.147,0.508-0.233,0.803-0.233c0.833,0,1.51,0.677,1.51,1.51c0,0.116-0.014,0.229-0.039,0.338
	C18.78,11.588,18.589,11.883,18.326,12.092z M12,1c2.304,0,4.445,0.714,6.214,1.93c-2.29,0.44-4.428,1.311-6.323,2.531
	c-1.188-1.231-2.301-2.536-3.33-3.907C9.644,1.196,10.799,1,12,1z M7.592,1.925C8.66,3.368,9.818,4.74,11.058,6.034
	C9.893,6.88,8.834,7.861,7.903,8.955C7.42,8.697,6.869,8.55,6.283,8.55c-0.446,0-0.871,0.088-1.263,0.242
	c-0.57-1.3-0.977-2.685-1.207-4.129C4.856,3.5,6.143,2.561,7.592,1.925z M8.165,13.566c-0.214,0.257-0.481,0.468-0.783,0.621
	c-0.331,0.167-0.704,0.264-1.099,0.264c-0.171,0-0.338-0.018-0.499-0.051c-0.337-0.07-0.647-0.211-0.918-0.404
	C4.242,13.55,3.833,12.823,3.833,12c0-0.701,0.298-1.333,0.771-1.78c0.242-0.228,0.53-0.407,0.849-0.522
	C5.713,9.604,5.992,9.55,6.283,9.55c0.346,0,0.675,0.073,0.974,0.203c0.313,0.136,0.59,0.337,0.819,0.583
	C8.483,10.774,8.733,11.358,8.733,12C8.733,12.595,8.519,13.141,8.165,13.566z M1,12c0-2.343,0.739-4.516,1.993-6.303
	c0.263,1.249,0.656,2.45,1.163,3.59C3.352,9.919,2.833,10.898,2.833,12c0,1.259,0.677,2.357,1.684,2.96
	c-0.444,1.341-0.733,2.752-0.848,4.211C2.008,17.244,1,14.738,1,12z M12,23c-2.838,0-5.429-1.081-7.382-2.852
	c0.044-1.673,0.331-3.285,0.827-4.805c0.269,0.067,0.548,0.107,0.838,0.107c0.668,0,1.29-0.193,1.818-0.522
	c1.309,1.267,2.81,2.335,4.454,3.16c-0.029,0.136-0.046,0.277-0.046,0.422c0,1.105,0.895,2,2,2c0.761,0,1.422-0.425,1.76-1.05
	c1.07,0.265,2.177,0.434,3.313,0.497C17.608,21.84,14.938,23,12,23z M13.51,18.51c0-0.365,0.199-0.682,0.492-0.856
	c0.149-0.089,0.322-0.144,0.508-0.144c0.439,0,0.808,0.286,0.943,0.679c0.035,0.101,0.058,0.208,0.058,0.321
	c0,0.256-0.099,0.487-0.258,0.664c-0.183,0.205-0.446,0.336-0.742,0.336c-0.544,0-0.985-0.437-0.998-0.977
	C13.512,18.525,13.51,18.518,13.51,18.51z M20.491,18.986c-1.372-0.008-2.705-0.178-3.981-0.494
	c-0.01-1.096-0.901-1.981-1.999-1.981c-0.601,0-1.138,0.266-1.505,0.685c-1.524-0.764-2.916-1.751-4.137-2.917
	C9.405,13.671,9.733,12.874,9.733,12c0-0.959-0.392-1.826-1.023-2.451c0.902-1.049,1.931-1.985,3.062-2.788
	c1.071,1.065,2.197,2.074,3.377,3.019c-0.172,0.34-0.272,0.724-0.272,1.132c0,1.386,1.124,2.51,2.51,2.51
	c0.711,0,1.352-0.297,1.808-0.772c1.129,0.705,2.293,1.358,3.491,1.956C22.288,16.237,21.527,17.729,20.491,18.986z"/>
</svg>
