<svg width="37" height="36" viewBox="0 0 37 36" fill="none" xmlns="http://www.w3.org/2000/svg">
<path d="M18.5316 31.7732C8.34231 31.7732 0.0634766 28.3733 0.0634766 24.2109V28.278C0.0634766 28.3098 0.0634766 28.3733 0.0634766 28.4051C0.0634766 28.4687 0.0634766 28.5322 0.0634766 28.564V28.6593C0.413735 32.7264 8.53336 35.9673 18.4998 35.9673C28.6891 35.9673 36.968 32.5675 36.968 28.4051V24.2109C36.9998 28.3733 28.7528 31.7732 18.5316 31.7732Z" fill="url(#paint0_linear)"/>
<path d="M18.5316 31.933C28.7313 31.933 36.9998 28.5473 36.9998 24.3708C36.9998 20.1943 28.7313 16.8086 18.5316 16.8086C8.33195 16.8086 0.0634766 20.1943 0.0634766 24.3708C0.0634766 28.5473 8.33195 31.933 18.5316 31.933Z" fill="url(#paint1_linear)"/>
<path d="M19.0097 25.9579C22.4037 25.9579 25.1551 25.2039 25.1551 24.2739C25.1551 23.3438 22.4037 22.5898 19.0097 22.5898C15.6157 22.5898 12.8643 23.3438 12.8643 24.2739C12.8643 25.2039 15.6157 25.9579 19.0097 25.9579Z" fill="url(#paint2_linear)"/>
<path d="M19.0094 31.9333C18.8821 31.9333 18.7547 31.9333 18.6273 31.9333C8.43801 31.9333 0.15918 28.5335 0.15918 24.371C0.15918 23.6402 0.413913 22.9094 0.891538 22.2422C0.827854 22.5599 0.764171 22.8777 0.764171 23.1954C0.796013 27.9615 8.91563 31.838 19.0094 31.9333Z" fill="url(#paint3_linear)" stroke="url(#paint4_linear)" stroke-miterlimit="10"/>
<path d="M34.2617 28.2461C34.2936 28.2461 34.3254 28.2779 34.3254 28.2779C34.3254 28.2779 34.2936 28.2461 34.2617 28.2461Z" fill="url(#paint5_linear)"/>
<path d="M34.3252 28.2773C34.357 28.2773 34.3889 28.3091 34.4207 28.3091C34.3889 28.3091 34.357 28.2773 34.3252 28.2773Z" fill="url(#paint6_linear)"/>
<path d="M18.4366 22.5614C18.4047 22.2754 18.2773 22.2118 18.2773 22.2118C22.7989 21.6081 25.6964 23.1333 25.6964 24.023C25.6964 24.2454 24.9641 24.9126 24.9004 24.9762C24.9322 24.9126 25.1233 24.3089 25.1233 24.1501C25.0596 23.4193 22.6715 22.4343 18.4366 22.5614Z" fill="url(#paint7_linear)"/>
<path d="M18.5316 31.8393C28.7313 31.8393 36.9998 28.4536 36.9998 24.2771C36.9998 20.1006 28.7313 16.7148 18.5316 16.7148C8.33195 16.7148 0.0634766 20.1006 0.0634766 24.2771C0.0634766 28.4536 8.33195 31.8393 18.5316 31.8393Z" fill="url(#paint8_linear)"/>
<path d="M18.5316 14.9646C8.34231 14.9646 0.0634766 11.5647 0.0634766 7.40234V11.4694C0.0634766 11.5012 0.0634766 11.5647 0.0634766 11.5965C0.0634766 11.6601 0.0634766 11.7236 0.0634766 11.7554V11.8507C0.413735 15.9178 8.53336 19.1587 18.4998 19.1587C28.6891 19.1587 36.968 15.7589 36.968 11.5965V7.40234C36.9998 11.5965 28.7528 14.9646 18.5316 14.9646Z" fill="url(#paint9_linear)"/>
<path d="M18.5316 15.1244C28.7313 15.1244 36.9998 11.7387 36.9998 7.56222C36.9998 3.38572 28.7313 0 18.5316 0C8.33195 0 0.0634766 3.38572 0.0634766 7.56222C0.0634766 11.7387 8.33195 15.1244 18.5316 15.1244Z" fill="url(#paint10_linear)"/>
<path d="M19.0097 9.18055C22.4037 9.18055 25.1551 8.42659 25.1551 7.49653C25.1551 6.56646 22.4037 5.8125 19.0097 5.8125C15.6157 5.8125 12.8643 6.56646 12.8643 7.49653C12.8643 8.42659 15.6157 9.18055 19.0097 9.18055Z" fill="url(#paint11_linear)"/>
<path d="M19.0094 15.1247C18.8821 15.1247 18.7547 15.1247 18.6273 15.1247C8.43801 15.1247 0.15918 11.7249 0.15918 7.56245C0.15918 6.83165 0.413913 6.10085 0.891538 5.43359C0.827854 5.75133 0.764171 6.06907 0.764171 6.38681C0.796013 11.1847 8.91563 15.0611 19.0094 15.1247Z" fill="url(#paint12_linear)" stroke="url(#paint13_linear)" stroke-miterlimit="10"/>
<path d="M34.2617 11.4375C34.2936 11.4375 34.3254 11.4693 34.3254 11.4693C34.3254 11.4693 34.2936 11.4693 34.2617 11.4375Z" fill="url(#paint14_linear)"/>
<path d="M34.3252 11.4688C34.357 11.4688 34.3889 11.5005 34.4207 11.5005C34.3889 11.5005 34.357 11.5005 34.3252 11.4688Z" fill="url(#paint15_linear)"/>
<path d="M18.4366 5.75277C18.4047 5.4668 18.2773 5.40325 18.2773 5.40325C22.7989 4.79954 25.6964 6.3247 25.6964 7.21437C25.6964 7.43679 24.9641 8.10404 24.9004 8.16759C24.9322 8.10404 25.1233 7.50034 25.1233 7.34147C25.0596 6.64244 22.6715 5.62567 18.4366 5.75277Z" fill="url(#paint16_linear)"/>
<defs>
<linearGradient id="paint0_linear" x1="1.5102" y1="32.4245" x2="27.7789" y2="26.4069" gradientUnits="userSpaceOnUse">
<stop stop-color="#365615"/>
<stop offset="0.2208" stop-color="#456E1B"/>
<stop offset="0.493" stop-color="#538420"/>
<stop offset="0.7531" stop-color="#5B9123"/>
<stop offset="0.9859" stop-color="#5E9624"/>
</linearGradient>
<linearGradient id="paint1_linear" x1="10.0309" y1="9.63006" x2="37.2253" y2="28.2493" gradientUnits="userSpaceOnUse">
<stop stop-color="#5E9624"/>
<stop offset="0.00988267" stop-color="#639B25"/>
<stop offset="0.0721035" stop-color="#81B92B"/>
<stop offset="0.1384" stop-color="#97CF30"/>
<stop offset="0.2098" stop-color="#A7DF33"/>
<stop offset="0.2899" stop-color="#B1E935"/>
<stop offset="0.3967" stop-color="#B4EC36"/>
<stop offset="0.5416" stop-color="#B1E935"/>
<stop offset="0.6635" stop-color="#A6DE33"/>
<stop offset="0.7772" stop-color="#95CD2F"/>
<stop offset="0.8852" stop-color="#7CB42A"/>
<stop offset="0.9867" stop-color="#5E9624"/>
</linearGradient>
<linearGradient id="paint2_linear" x1="13.7264" y1="26.1992" x2="21.6529" y2="23.3081" gradientUnits="userSpaceOnUse">
<stop stop-color="#365615"/>
<stop offset="0.224" stop-color="#456E1B"/>
<stop offset="0.5" stop-color="#538420"/>
<stop offset="0.7638" stop-color="#5B9123"/>
<stop offset="1" stop-color="#5E9624"/>
</linearGradient>
<linearGradient id="paint3_linear" x1="0.155136" y1="25.4413" x2="14.4429" y2="28.7204" gradientUnits="userSpaceOnUse">
<stop stop-color="white" stop-opacity="0"/>
<stop offset="0.5" stop-color="white" stop-opacity="0.2"/>
<stop offset="1" stop-color="white" stop-opacity="0"/>
</linearGradient>
<linearGradient id="paint4_linear" x1="5.73574e-06" y1="26.795" x2="19.0035" y2="26.795" gradientUnits="userSpaceOnUse">
<stop stop-color="white" stop-opacity="0"/>
<stop offset="0.5" stop-color="white" stop-opacity="0.2"/>
<stop offset="1" stop-color="white" stop-opacity="0"/>
</linearGradient>
<linearGradient id="paint5_linear" x1="34.2651" y1="28.2743" x2="34.3152" y2="28.2628" gradientUnits="userSpaceOnUse">
<stop stop-color="#0078D4"/>
<stop offset="0.1377" stop-color="#1782DA"/>
<stop offset="0.365" stop-color="#368FE3"/>
<stop offset="0.5865" stop-color="#4C98EA"/>
<stop offset="0.7973" stop-color="#599EEE"/>
<stop offset="0.9859" stop-color="#5EA0EF"/>
</linearGradient>
<linearGradient id="paint6_linear" x1="34.345" y1="28.3069" x2="34.4016" y2="28.294" gradientUnits="userSpaceOnUse">
<stop stop-color="#0078D4"/>
<stop offset="0.1377" stop-color="#1782DA"/>
<stop offset="0.365" stop-color="#368FE3"/>
<stop offset="0.5865" stop-color="#4C98EA"/>
<stop offset="0.7973" stop-color="#599EEE"/>
<stop offset="0.9859" stop-color="#5EA0EF"/>
</linearGradient>
<linearGradient id="paint7_linear" x1="25.5807" y1="24.0468" x2="20.1565" y2="22.8018" gradientUnits="userSpaceOnUse">
<stop stop-color="white" stop-opacity="0"/>
<stop offset="0.083974" stop-color="white" stop-opacity="0.04"/>
<stop offset="0.4167" stop-color="white" stop-opacity="0.2"/>
<stop offset="1" stop-color="white" stop-opacity="0"/>
</linearGradient>
<linearGradient id="paint8_linear" x1="18.5428" y1="31.8531" x2="18.5428" y2="16.7192" gradientUnits="userSpaceOnUse">
<stop stop-color="#231F20" stop-opacity="0"/>
<stop offset="0.5896" stop-color="#231F20" stop-opacity="0.0173818"/>
<stop offset="1" stop-color="#231F20" stop-opacity="0.5"/>
</linearGradient>
<linearGradient id="paint9_linear" x1="1.51017" y1="15.6241" x2="27.7788" y2="9.60653" gradientUnits="userSpaceOnUse">
<stop stop-color="#003067"/>
<stop offset="0.2036" stop-color="#00498D"/>
<stop offset="0.4132" stop-color="#005DAC"/>
<stop offset="0.6175" stop-color="#006CC2"/>
<stop offset="0.8119" stop-color="#0075CF"/>
<stop offset="0.9859" stop-color="#0078D4"/>
</linearGradient>
<linearGradient id="paint10_linear" x1="10.0309" y1="-7.1701" x2="37.2252" y2="11.4491" gradientUnits="userSpaceOnUse">
<stop stop-color="#0078D4"/>
<stop offset="0.0231272" stop-color="#0D7ED8"/>
<stop offset="0.0832106" stop-color="#2B8AE0"/>
<stop offset="0.1473" stop-color="#4194E7"/>
<stop offset="0.2162" stop-color="#519BEB"/>
<stop offset="0.2935" stop-color="#5B9FEE"/>
<stop offset="0.3967" stop-color="#5EA0EF"/>
<stop offset="0.5495" stop-color="#5B9FEE"/>
<stop offset="0.6782" stop-color="#509AEB"/>
<stop offset="0.798" stop-color="#3F92E6"/>
<stop offset="0.9119" stop-color="#2688DF"/>
<stop offset="0.9867" stop-color="#127FD9"/>
</linearGradient>
<linearGradient id="paint11_linear" x1="13.7264" y1="9.3983" x2="21.6528" y2="6.50715" gradientUnits="userSpaceOnUse">
<stop stop-color="#003067"/>
<stop offset="0.2036" stop-color="#00498D"/>
<stop offset="0.4132" stop-color="#005DAC"/>
<stop offset="0.6175" stop-color="#006CC2"/>
<stop offset="0.8119" stop-color="#0075CF"/>
<stop offset="0.9859" stop-color="#0078D4"/>
</linearGradient>
<linearGradient id="paint12_linear" x1="0.155104" y1="8.64067" x2="14.4429" y2="11.92" gradientUnits="userSpaceOnUse">
<stop stop-color="white" stop-opacity="0"/>
<stop offset="0.5" stop-color="white" stop-opacity="0.2"/>
<stop offset="1" stop-color="white" stop-opacity="0"/>
</linearGradient>
<linearGradient id="paint13_linear" x1="-2.85829e-05" y1="9.99457" x2="19.0035" y2="9.99457" gradientUnits="userSpaceOnUse">
<stop stop-color="white" stop-opacity="0"/>
<stop offset="0.5" stop-color="white" stop-opacity="0.2"/>
<stop offset="1" stop-color="white" stop-opacity="0"/>
</linearGradient>
<linearGradient id="paint14_linear" x1="34.265" y1="11.4739" x2="34.3151" y2="11.4624" gradientUnits="userSpaceOnUse">
<stop stop-color="#0078D4"/>
<stop offset="0.1377" stop-color="#1782DA"/>
<stop offset="0.365" stop-color="#368FE3"/>
<stop offset="0.5865" stop-color="#4C98EA"/>
<stop offset="0.7973" stop-color="#599EEE"/>
<stop offset="0.9859" stop-color="#5EA0EF"/>
</linearGradient>
<linearGradient id="paint15_linear" x1="34.345" y1="11.5065" x2="34.4016" y2="11.4936" gradientUnits="userSpaceOnUse">
<stop stop-color="#0078D4"/>
<stop offset="0.1377" stop-color="#1782DA"/>
<stop offset="0.365" stop-color="#368FE3"/>
<stop offset="0.5865" stop-color="#4C98EA"/>
<stop offset="0.7973" stop-color="#599EEE"/>
<stop offset="0.9859" stop-color="#5EA0EF"/>
</linearGradient>
<linearGradient id="paint16_linear" x1="25.5807" y1="7.24634" x2="20.1565" y2="6.0014" gradientUnits="userSpaceOnUse">
<stop stop-color="white" stop-opacity="0"/>
<stop offset="0.083974" stop-color="white" stop-opacity="0.04"/>
<stop offset="0.4167" stop-color="white" stop-opacity="0.2"/>
<stop offset="1" stop-color="white" stop-opacity="0"/>
</linearGradient>
</defs>
</svg>
