<svg width="36" height="37" viewBox="0 0 36 37" fill="none" xmlns="http://www.w3.org/2000/svg">
<path d="M12.4229 14.2188H7.9926C7.9926 16.8212 8.11652 18.4012 5.66903 18.742C5.08039 18.8349 4.55371 19.2686 4.55371 19.8263H15.8308C15.8308 19.2686 15.3041 18.8039 14.7155 18.742C12.299 18.4012 12.4229 16.8212 12.4229 14.2188Z" fill="#CCCCCC"/>
<path d="M12.4229 14.2188H7.9926C7.9926 16.8212 8.11652 18.4012 5.66903 18.742C5.08039 18.8349 4.55371 19.2686 4.55371 19.8263H15.8308C15.8308 19.2686 15.3041 18.8039 14.7155 18.742C12.299 18.4012 12.4229 16.8212 12.4229 14.2188Z" fill="url(#paint0_linear)"/>
<path d="M0.712831 0H19.7042C20.0759 0 20.3858 0.30981 20.3858 0.681581V13.7246C20.3858 14.0963 20.0759 14.4062 19.7042 14.4062H0.712831C0.34106 14.4062 0.03125 14.0963 0.03125 13.7246V0.681581C0.03125 0.30981 0.34106 0 0.712831 0Z" fill="url(#paint1_linear)"/>
<path d="M6.53955 4.58152L10.2573 2.72266L13.975 4.58152L10.2573 6.34743L6.53955 4.58152Z" fill="white"/>
<path d="M10.2544 11.119V6.37893L13.9721 4.58203V9.26016L10.2544 11.119Z" fill="white"/>
<path d="M10.2548 11.119V6.37893L6.53711 4.58203V9.26016L10.2548 11.119Z" fill="white"/>
<path d="M6.54053 4.58152L10.2582 2.72266L13.976 4.58152L10.2582 6.34743L6.54053 4.58152Z" fill="#3CC1F4"/>
<path d="M10.2582 2.8156L13.7901 4.58152L10.2582 6.25449L6.72641 4.58152L10.2582 2.8156ZM10.2582 2.72266L6.54053 4.58152L10.2582 6.34743L13.976 4.58152L10.2582 2.72266Z" fill="#3CC1F4"/>
<path d="M10.2544 11.119V6.37893L13.9721 4.58203V9.26016L10.2544 11.119Z" fill="#3CC1F4"/>
<path d="M13.9102 4.73694V9.1982L10.3473 10.9641V6.40991L13.9102 4.73694ZM13.9721 4.58203L10.2544 6.34795V11.088L13.9721 9.22918V4.58203Z" fill="#3CC1F4"/>
<path d="M10.2548 11.119V6.37893L6.53711 4.58203V9.26016L10.2548 11.119Z" fill="#3CC1F4"/>
<path d="M6.63005 4.73694L10.1929 6.44089V10.9951L6.63005 9.22918V4.73694ZM6.53711 4.58203V9.22918L10.2548 11.088V6.37893L6.53711 4.58203Z" fill="#3CC1F4"/>
<path opacity="0.9" d="M6.50635 4.61667L10.255 2.75781L14.0037 4.61667L10.255 6.38259L6.50635 4.61667Z" fill="white"/>
<path opacity="0.2" d="M6.50586 9.26147L10.2546 7.43359L14.0033 9.26147L10.2546 11.0893L6.50586 9.26147Z" fill="white"/>
<path opacity="0.3" d="M10.2554 11.0883V6.3792L14.0041 4.61328V9.22945L10.2554 11.0883Z" fill="white"/>
<path opacity="0.6" d="M10.2546 11.0883V6.3792L6.50586 4.61328V9.22945L10.2546 11.0883Z" fill="white"/>
<path opacity="0.5" d="M6.53711 9.23047L10.2548 11.0893V12.8862L6.53711 10.9654V9.23047Z" fill="url(#paint2_linear)"/>
<path opacity="0.5" d="M14.0341 9.23047L10.2544 11.0893V12.8862L14.0341 10.9654V9.23047Z" fill="url(#paint3_linear)"/>
<path d="M20.4165 22.6133H15.9863C15.9863 25.2157 16.1102 26.7957 13.6627 27.1365C13.074 27.2294 12.5474 27.6632 12.5474 28.2208H23.8554C23.8554 27.6632 23.3287 27.1985 22.7401 27.1365C20.3236 26.7957 20.4165 25.1847 20.4165 22.6133Z" fill="#CCCCCC"/>
<path d="M20.4165 22.6133H15.9863C15.9863 25.2157 16.1102 26.7957 13.6627 27.1365C13.074 27.2294 12.5474 27.6632 12.5474 28.2208H23.8554C23.8554 27.6632 23.3287 27.1985 22.7401 27.1365C20.3236 26.7957 20.4165 25.1847 20.4165 22.6133Z" fill="url(#paint4_linear)"/>
<path d="M8.73676 8.39844H27.7281C28.0999 8.39844 28.4097 8.70825 28.4097 9.08002V22.123C28.4097 22.4948 28.0999 22.8046 27.7281 22.8046H8.73676C8.36499 22.8046 8.05518 22.4948 8.05518 22.123V9.08002C8.05518 8.70825 8.334 8.39844 8.73676 8.39844Z" fill="url(#paint5_linear)"/>
<path d="M14.5298 12.9839L18.2785 11.125L21.9962 12.9839L18.2785 14.7498L14.5298 12.9839Z" fill="white"/>
<path d="M18.2793 19.5214V14.7503L21.997 12.9844V17.6315L18.2793 19.5214Z" fill="white"/>
<path d="M18.2788 19.5214V14.7503L14.561 12.9844V17.6315L18.2788 19.5214Z" fill="white"/>
<path d="M14.5303 12.9839L18.279 11.125L21.9967 12.9839L18.279 14.7498L14.5303 12.9839Z" fill="#3CC1F4"/>
<path d="M18.2792 11.214L21.8111 12.98L18.2792 14.6529L14.7474 12.98L18.2792 11.214ZM18.2792 11.1211L14.5615 12.98L18.2792 14.7459L21.997 12.98L18.2792 11.1211Z" fill="#3CC1F4"/>
<path d="M18.2798 19.5175V14.7464L21.9975 12.9805V17.6276L18.2798 19.5175Z" fill="#3CC1F4"/>
<path d="M21.9046 13.1044V17.5657L18.3417 19.3316V14.8083L21.9046 13.1044ZM21.9975 12.9805L18.2798 14.7464V19.5175L21.9975 17.6586V12.9805Z" fill="#3CC1F4"/>
<path d="M18.2788 19.5175V14.7464L14.561 12.9805V17.6276L18.2788 19.5175Z" fill="#3CC1F4"/>
<path d="M14.654 13.1044L18.2168 14.8083V19.3626L14.654 17.5966V13.1044ZM14.561 12.9805V17.6276L18.2788 19.4865V14.7464L14.561 12.9805Z" fill="#3CC1F4"/>
<path opacity="0.9" d="M14.501 12.9802L18.2807 11.1523L22.0294 12.9802L18.2807 14.7461L14.501 12.9802Z" fill="white"/>
<path opacity="0.2" d="M14.4985 17.6599L18.2782 15.832L22.0269 17.6599L18.2782 19.4568L14.4985 17.6599Z" fill="white"/>
<path opacity="0.3" d="M18.2778 19.4865V14.7464L22.0265 12.9805V17.6276L18.2778 19.4865Z" fill="white"/>
<path opacity="0.6" d="M18.2782 19.4865V14.7464L14.4985 12.9805V17.6276L18.2782 19.4865Z" fill="white"/>
<path opacity="0.5" d="M14.5298 17.6289L18.2475 19.4878V21.2537L14.5298 19.3638V17.6289Z" fill="url(#paint6_linear)"/>
<path opacity="0.5" d="M22.0595 17.6289L18.2798 19.4878V21.2537L22.0595 19.3638V17.6289Z" fill="url(#paint7_linear)"/>
<path d="M28.0371 30.6992H23.6069C23.6069 33.3016 23.7308 34.8817 21.2833 35.2224C20.6946 35.3154 20.168 35.7491 20.168 36.3068H31.445C31.445 35.7491 30.9184 35.2844 30.3297 35.2224C27.9132 34.8817 28.0062 33.2706 28.0371 30.6992Z" fill="#CCCCCC"/>
<path d="M28.0371 30.6992H23.6069C23.6069 33.3016 23.7308 34.8817 21.2833 35.2224C20.6946 35.3154 20.168 35.7491 20.168 36.3068H31.445C31.445 35.7491 30.9184 35.2844 30.3297 35.2224C27.9132 34.8817 28.0062 33.2706 28.0371 30.6992Z" fill="url(#paint8_linear)"/>
<path d="M16.3271 16.4844H35.3184C35.6902 16.4844 36 16.7942 36 17.166V30.2089C36 30.5807 35.6902 30.8905 35.3184 30.8905H16.3271C15.9553 30.8905 15.6455 30.5807 15.6455 30.2089V17.166C15.6455 16.7942 15.9243 16.4844 16.3271 16.4844Z" fill="url(#paint9_linear)"/>
<path d="M22.1201 21.0659L25.8688 19.207L29.5865 21.0659L25.8688 22.8318L22.1201 21.0659Z" fill="white"/>
<path d="M25.8687 27.5724V22.8323L29.5864 21.0664V25.7136L25.8687 27.5724Z" fill="white"/>
<path d="M25.8691 27.5724V22.8323L22.1514 21.0664V25.7136L25.8691 27.5724Z" fill="white"/>
<path d="M22.1201 21.0659L25.8688 19.207L29.5865 21.0659L25.8688 22.8318L22.1201 21.0659Z" fill="#3CC1F4"/>
<path d="M25.8696 19.3L29.4014 21.0659L25.8696 22.7389L22.3377 21.0659L25.8696 19.3ZM25.8696 19.207L22.1519 21.0659L25.8696 22.8318L29.5873 21.0659L25.8696 19.207Z" fill="#3CC1F4"/>
<path d="M25.8687 27.5724V22.8323L29.5864 21.0664V25.7136L25.8687 27.5724Z" fill="#3CC1F4"/>
<path d="M29.4934 21.1903V25.6516L25.9306 27.4175V22.8943L29.4934 21.1903ZM29.5864 21.0664L25.8687 22.8323V27.5724L29.5864 25.7136V21.0664Z" fill="#3CC1F4"/>
<path d="M25.8691 27.5724V22.8323L22.1514 21.0664V25.7136L25.8691 27.5724Z" fill="#3CC1F4"/>
<path d="M22.2443 21.1903L25.8071 22.8943V27.4485L22.2443 25.6826V21.1903ZM22.1514 21.0664V25.7136L25.8691 27.5724V22.8323L22.1514 21.0664Z" fill="#3CC1F4"/>
<path opacity="0.9" d="M22.1201 21.0659L25.8688 19.207L29.6175 21.0659L25.8688 22.8318L22.1201 21.0659Z" fill="white"/>
<path opacity="0.2" d="M22.1196 25.7458L25.8683 23.918L29.617 25.7149L25.8683 27.5427L22.1196 25.7458Z" fill="white"/>
<path opacity="0.3" d="M25.8691 27.5724V22.8323L29.6178 21.0664V25.7136L25.8691 27.5724Z" fill="white"/>
<path opacity="0.6" d="M25.8683 27.5724V22.8323L22.1196 21.0664V25.7136L25.8683 27.5724Z" fill="white"/>
<path opacity="0.5" d="M22.1201 25.7148L25.8688 27.5737V29.3396L22.1201 27.4498V25.7148Z" fill="url(#paint10_linear)"/>
<path opacity="0.5" d="M29.6488 25.7148L25.8691 27.5737V29.3396L29.6488 27.4498V25.7148Z" fill="url(#paint11_linear)"/>
<path d="M15.5835 17.1661C15.5835 16.7943 15.8933 16.4845 16.2651 16.4845H28.3477V9.08002C28.3477 8.70825 28.0379 8.39844 27.6661 8.39844H8.67475C8.30297 8.39844 7.99316 8.70825 7.99316 9.08002V22.123C7.99316 22.4948 8.30297 22.8046 8.67475 22.8046H15.5835V17.1661Z" fill="url(#paint12_linear)"/>
<path d="M8.05505 9.04645C8.05505 8.70566 8.33388 8.42683 8.67467 8.42683H20.0137C20.2925 8.42683 20.5404 8.20996 20.5404 7.90015L20.3855 0.681582C20.3855 0.30981 20.0757 0 19.7039 0H0.402753C0.185886 0 0 0.185886 0 0.402753V13.7865C0 14.1583 0.30981 14.4681 0.681581 14.4681L8.05505 14.4991V9.04645Z" fill="url(#paint13_linear)"/>
<defs>
<linearGradient id="paint0_linear" x1="10.2993" y1="13.9085" x2="10.2993" y2="19.7449" gradientUnits="userSpaceOnUse">
<stop stop-color="#001F50"/>
<stop offset="1" stop-color="#828282" stop-opacity="0.7"/>
</linearGradient>
<linearGradient id="paint1_linear" x1="1.73638" y1="15.8786" x2="18.7204" y2="-1.10553" gradientUnits="userSpaceOnUse">
<stop offset="0.003" stop-color="#1B93EB"/>
<stop offset="0.079" stop-color="#299AEC"/>
<stop offset="0.36" stop-color="#59B0F0"/>
<stop offset="0.5" stop-color="#6BB9F2"/>
<stop offset="0.598" stop-color="#65B6F1"/>
<stop offset="0.725" stop-color="#55AEF0"/>
<stop offset="0.869" stop-color="#3AA2EE"/>
<stop offset="1" stop-color="#1B93EB"/>
</linearGradient>
<linearGradient id="paint2_linear" x1="8.98533" y1="10.0914" x2="8.15044" y2="11.7425" gradientUnits="userSpaceOnUse">
<stop stop-color="#003C90"/>
<stop offset="0.149" stop-color="#194F9B" stop-opacity="0.9"/>
<stop offset="0.432" stop-color="#5C83B8" stop-opacity="0.637"/>
<stop offset="0.817" stop-color="#C8D5E7" stop-opacity="0.217"/>
<stop offset="1" stop-color="white" stop-opacity="0"/>
</linearGradient>
<linearGradient id="paint3_linear" x1="11.7067" y1="10.1695" x2="12.5414" y2="11.8202" gradientUnits="userSpaceOnUse">
<stop stop-color="#003C90"/>
<stop offset="0.149" stop-color="#194F9B" stop-opacity="0.9"/>
<stop offset="0.432" stop-color="#5C83B8" stop-opacity="0.637"/>
<stop offset="0.817" stop-color="#C8D5E7" stop-opacity="0.217"/>
<stop offset="1" stop-color="white" stop-opacity="0"/>
</linearGradient>
<linearGradient id="paint4_linear" x1="18.3123" y1="22.2962" x2="18.3123" y2="28.1327" gradientUnits="userSpaceOnUse">
<stop stop-color="#001F50"/>
<stop offset="1" stop-color="#828282" stop-opacity="0.7"/>
</linearGradient>
<linearGradient id="paint5_linear" x1="9.74855" y1="24.2703" x2="26.7325" y2="7.28644" gradientUnits="userSpaceOnUse">
<stop offset="0.003" stop-color="#1B93EB"/>
<stop offset="0.079" stop-color="#299AEC"/>
<stop offset="0.36" stop-color="#59B0F0"/>
<stop offset="0.5" stop-color="#6BB9F2"/>
<stop offset="0.598" stop-color="#65B6F1"/>
<stop offset="0.725" stop-color="#55AEF0"/>
<stop offset="0.869" stop-color="#3AA2EE"/>
<stop offset="1" stop-color="#1B93EB"/>
</linearGradient>
<linearGradient id="paint6_linear" x1="16.9972" y1="18.4834" x2="16.1624" y2="20.1341" gradientUnits="userSpaceOnUse">
<stop stop-color="#003C90"/>
<stop offset="0.149" stop-color="#194F9B" stop-opacity="0.9"/>
<stop offset="0.432" stop-color="#5C83B8" stop-opacity="0.637"/>
<stop offset="0.817" stop-color="#C8D5E7" stop-opacity="0.217"/>
<stop offset="1" stop-color="white" stop-opacity="0"/>
</linearGradient>
<linearGradient id="paint7_linear" x1="19.7202" y1="18.5612" x2="20.5551" y2="20.2119" gradientUnits="userSpaceOnUse">
<stop stop-color="#003C90"/>
<stop offset="0.149" stop-color="#194F9B" stop-opacity="0.9"/>
<stop offset="0.432" stop-color="#5C83B8" stop-opacity="0.637"/>
<stop offset="0.817" stop-color="#C8D5E7" stop-opacity="0.217"/>
<stop offset="1" stop-color="white" stop-opacity="0"/>
</linearGradient>
<linearGradient id="paint8_linear" x1="25.9034" y1="30.3787" x2="25.9034" y2="36.2149" gradientUnits="userSpaceOnUse">
<stop stop-color="#001F50"/>
<stop offset="1" stop-color="#828282" stop-opacity="0.7"/>
</linearGradient>
<linearGradient id="paint9_linear" x1="17.3405" y1="32.3528" x2="34.3245" y2="15.3686" gradientUnits="userSpaceOnUse">
<stop offset="0.003" stop-color="#1B93EB"/>
<stop offset="0.079" stop-color="#299AEC"/>
<stop offset="0.36" stop-color="#59B0F0"/>
<stop offset="0.5" stop-color="#6BB9F2"/>
<stop offset="0.598" stop-color="#65B6F1"/>
<stop offset="0.725" stop-color="#55AEF0"/>
<stop offset="0.869" stop-color="#3AA2EE"/>
<stop offset="1" stop-color="#1B93EB"/>
</linearGradient>
<linearGradient id="paint10_linear" x1="24.5892" y1="26.5656" x2="23.7543" y2="28.2163" gradientUnits="userSpaceOnUse">
<stop stop-color="#003C90"/>
<stop offset="0.149" stop-color="#194F9B" stop-opacity="0.9"/>
<stop offset="0.432" stop-color="#5C83B8" stop-opacity="0.637"/>
<stop offset="0.817" stop-color="#C8D5E7" stop-opacity="0.217"/>
<stop offset="1" stop-color="white" stop-opacity="0"/>
</linearGradient>
<linearGradient id="paint11_linear" x1="27.3112" y1="26.6434" x2="28.1461" y2="28.2944" gradientUnits="userSpaceOnUse">
<stop stop-color="#003C90"/>
<stop offset="0.149" stop-color="#194F9B" stop-opacity="0.9"/>
<stop offset="0.432" stop-color="#5C83B8" stop-opacity="0.637"/>
<stop offset="0.817" stop-color="#C8D5E7" stop-opacity="0.217"/>
<stop offset="1" stop-color="white" stop-opacity="0"/>
</linearGradient>
<linearGradient id="paint12_linear" x1="9.68073" y1="7.10758" x2="23.6999" y2="21.1268" gradientUnits="userSpaceOnUse">
<stop offset="0.00173926" stop-color="white" stop-opacity="0.1"/>
<stop offset="0.0998699" stop-color="#EFF3F8" stop-opacity="0.1492"/>
<stop offset="0.293" stop-color="#C3D3E5" stop-opacity="0.2459"/>
<stop offset="0.5626" stop-color="#7EA0C6" stop-opacity="0.3809"/>
<stop offset="0.8951" stop-color="#1F5B9D" stop-opacity="0.5474"/>
<stop offset="1" stop-color="#00448F" stop-opacity="0.6"/>
</linearGradient>
<linearGradient id="paint13_linear" x1="1.59276" y1="-1.35783" x2="15.8025" y2="12.852" gradientUnits="userSpaceOnUse">
<stop offset="0.00173926" stop-color="white" stop-opacity="0.1"/>
<stop offset="0.0998699" stop-color="#EFF3F8" stop-opacity="0.1492"/>
<stop offset="0.293" stop-color="#C3D3E5" stop-opacity="0.2459"/>
<stop offset="0.5626" stop-color="#7EA0C6" stop-opacity="0.3809"/>
<stop offset="0.8951" stop-color="#1F5B9D" stop-opacity="0.5474"/>
<stop offset="1" stop-color="#00448F" stop-opacity="0.6"/>
</linearGradient>
</defs>
</svg>
