<?xml version="1.0" encoding="utf-8"?>
<!-- Generator: Adobe Illustrator 21.1.0, SVG Export Plug-In . SVG Version: 6.00 Build 0)  -->
<svg version="1.1" id="Layer_1" xmlns="http://www.w3.org/2000/svg" xmlns:xlink="http://www.w3.org/1999/xlink" x="0px" y="0px"
	 width="24px" height="24px" viewBox="0 0 24 24" enable-background="new 0 0 24 24" xml:space="preserve">
<path fill="#3C9BE4" d="M8.374,18.396c0.244-0.571,0.585-1.079,1.014-1.509c0.43-0.429,0.937-0.77,1.507-1.014
	c0.646-0.276,1.353-0.403,2.075-0.368c0.141-0.17,0.291-0.331,0.451-0.483c0.324-0.304,0.676-0.56,1.048-0.763
	c0.372-0.204,0.775-0.363,1.196-0.472c1.056-0.271,2.212-0.201,3.206,0.192c0.593,0.235,1.124,0.563,1.58,0.976
	c0.124,0.112,0.228,0.244,0.341,0.368L23,13.5L11.5,0L0,13.5l8.013,6.619C8.029,19.517,8.143,18.937,8.374,18.396z"/>
<circle fill="#FFFFFF" cx="5.5" cy="13.5" r="1.5"/>
<circle fill="#FFFFFF" cx="11.5" cy="5.5" r="1.5"/>
<rect x="3.5" y="9" transform="matrix(0.5998 -0.8001 0.8001 0.5998 -4.1996 10.6022)" opacity="0.5" fill="#FFFFFF" enable-background="new    " width="10" height="1"/>
<path fill="#FFFFFF" d="M17.621,13.681l-0.397-0.596l-0.878,0.585C16.771,13.62,17.198,13.629,17.621,13.681z"/>
<path fill="#59B4D9" d="M23.777,20.081c-0.149-0.342-0.351-0.638-0.608-0.89c-0.257-0.252-0.557-0.451-0.901-0.597
	c-0.344-0.146-0.712-0.219-1.103-0.219c-0.068-0.532-0.223-1.028-0.465-1.487c-0.242-0.459-0.548-0.856-0.919-1.19
	c-0.371-0.334-0.797-0.597-1.278-0.787c-0.481-0.191-0.993-0.286-1.534-0.286c-0.361,0-0.713,0.044-1.055,0.132
	c-0.342,0.088-0.664,0.215-0.966,0.381c-0.303,0.166-0.583,0.37-0.839,0.612c-0.256,0.242-0.482,0.514-0.677,0.816
	c-0.229-0.044-0.457-0.066-0.681-0.066c-0.517,0-1.004,0.097-1.461,0.293c-0.457,0.196-0.854,0.462-1.194,0.802
	c-0.339,0.339-0.607,0.738-0.802,1.194S9,19.733,9,20.25s0.097,1.004,0.293,1.461s0.462,0.854,0.802,1.194
	c0.339,0.339,0.737,0.607,1.194,0.802S12.233,24,12.75,24h8.438c0.386,0,0.749-0.073,1.091-0.22
	c0.342-0.147,0.641-0.348,0.898-0.604s0.458-0.554,0.604-0.894C23.928,21.942,24,21.578,24,21.188
	C24,20.792,23.926,20.423,23.777,20.081z"/>
<path opacity="0.2" fill="#FFFFFF" enable-background="new    " d="M11.837,23.311c-0.283-0.408-0.477-0.866-0.581-1.372
	c-0.104-0.507-0.106-1.004-0.007-1.49c0.099-0.486,0.281-0.93,0.546-1.331s0.601-0.743,1.008-1.026
	c0.408-0.284,0.866-0.477,1.373-0.581c0.22-0.045,0.447-0.069,0.68-0.072c0.131-0.336,0.297-0.648,0.499-0.936
	c0.202-0.288,0.436-0.544,0.699-0.768c0.263-0.224,0.553-0.412,0.871-0.568c0.318-0.155,0.653-0.269,1.007-0.341
	c0.074-0.015,0.147-0.024,0.221-0.035c-0.377-0.111-0.771-0.166-1.184-0.166c-0.361,0-0.713,0.044-1.055,0.132
	c-0.342,0.088-0.664,0.215-0.966,0.381c-0.303,0.166-0.583,0.37-0.839,0.612c-0.256,0.242-0.482,0.514-0.677,0.816
	c-0.229-0.044-0.457-0.066-0.681-0.066c-0.517,0-1.004,0.097-1.461,0.293c-0.457,0.196-0.854,0.462-1.194,0.802
	c-0.339,0.339-0.607,0.738-0.802,1.194S9,19.733,9,20.25s0.097,1.004,0.293,1.461s0.462,0.854,0.802,1.194
	c0.339,0.339,0.737,0.607,1.194,0.802c0.367,0.157,0.755,0.248,1.162,0.279C12.226,23.786,12.015,23.567,11.837,23.311z"/>
<path opacity="0.5" fill="#FFFFFF" enable-background="new    " d="M17.314,13.638l0.586-0.439l-6-8l-0.8,0.6l5.881,7.841
	C17.092,13.641,17.203,13.631,17.314,13.638z"/>
<path fill="#FFFFFF" d="M18.871,13.98c0.013,0.005,0.024,0.013,0.037,0.019C18.964,13.842,19,13.676,19,13.5
	c0-0.828-0.672-1.5-1.5-1.5S16,12.672,16,13.5c0,0.078,0.011,0.152,0.023,0.226C16.978,13.553,17.987,13.631,18.871,13.98z"/>
<path fill="#FFFFFF" d="M12,15.562V5.5h-1v10.336C11.321,15.708,11.656,15.616,12,15.562z"/>
<path fill="#FFFFFF" d="M10.382,16.153l-4.603-3.069l-0.555,0.832l4.296,2.864C9.78,16.537,10.071,16.332,10.382,16.153z"/>
<path opacity="0.2" fill="#FFFFFF" enable-background="new    " d="M8.374,18.396c0.244-0.571,0.585-1.079,1.014-1.509
	c0.43-0.429,0.937-0.77,1.507-1.014c0.196-0.084,0.399-0.149,0.605-0.205V0L0,13.5l8.013,6.619
	C8.029,19.517,8.143,18.937,8.374,18.396z"/>
</svg>
