<?xml version="1.0" encoding="utf-8"?>
<!-- Generator: Adobe Illustrator 21.1.0, SVG Export Plug-In . SVG Version: 6.00 Build 0)  -->
<svg version="1.1" id="Layer_1" xmlns="http://www.w3.org/2000/svg" xmlns:xlink="http://www.w3.org/1999/xlink" x="0px" y="0px"
	 width="24px" height="24px" viewBox="0 0 24 24" enable-background="new 0 0 24 24" xml:space="preserve">
<g>
	<polygon fill="#3C9BE4" points="11.5,0 0,13.5 11.5,23 23,13.5 	"/>
</g>
<polygon opacity="0.2" fill="#FFFFFF" enable-background="new    " points="11.5,0 11.5,0 0,13.5 11.5,23 "/>
<circle fill="#FFFFFF" cx="11.5" cy="17.5" r="1.5"/>
<circle fill="#FFFFFF" cx="5.5" cy="13.5" r="1.5"/>
<circle fill="#FFFFFF" cx="17.5" cy="13.5" r="1.5"/>
<circle fill="#FFFFFF" cx="11.5" cy="5.5" r="1.5"/>
<rect x="14" y="4.499" transform="matrix(0.8 -0.6 0.6 0.8 -2.7996 10.5999)" opacity="0.5" fill="#FFFFFF" enable-background="new    " width="1" height="10"/>
<rect x="8" y="11.894" transform="matrix(0.5547 -0.8321 0.8321 0.5547 -9.111 13.9751)" fill="#FFFFFF" width="1" height="7.211"/>
<rect x="3.5" y="9" transform="matrix(0.5998 -0.8001 0.8001 0.5998 -4.1998 10.6023)" opacity="0.5" fill="#FFFFFF" enable-background="new    " width="10" height="1"/>
<rect x="10.895" y="15.001" transform="matrix(0.8321 -0.5547 0.5547 0.8321 -6.163 10.6461)" fill="#FFFFFF" width="7.211" height="1"/>
<rect x="11" y="5.5" fill="#FFFFFF" width="1" height="12"/>
</svg>
