<?xml version="1.0" encoding="utf-8"?>
<!-- Generator: Adobe Illustrator 21.1.0, SVG Export Plug-In . SVG Version: 6.00 Build 0)  -->
<svg version="1.1" id="Layer_1" xmlns="http://www.w3.org/2000/svg" xmlns:xlink="http://www.w3.org/1999/xlink" x="0px" y="0px"
	 width="24px" height="24px" viewBox="0 0 24 24" enable-background="new 0 0 24 24" xml:space="preserve">
<path fill="#3C9BE4" d="M14.221,20.343C14.074,19.891,14,19.416,14,18.929v-6.317l1.168,0.2c0.282,0.048,0.537,0.071,0.779,0.071
	c1.074,0,2.086-0.356,2.927-1.031L19.5,11.35l0.626,0.502c0.676,0.542,1.464,0.867,2.304,0.979L11.5,0L0,13.5L11.5,23l2.845-2.35
	C14.303,20.548,14.255,20.447,14.221,20.343z"/>
<polygon opacity="0.2" fill="#FFFFFF" enable-background="new    " points="11.5,0 11.5,0 0,13.5 11.5,23 "/>
<circle fill="#FFFFFF" cx="11.5" cy="17.5" r="1.5"/>
<circle fill="#FFFFFF" cx="5.5" cy="13.5" r="1.5"/>
<circle fill="#FFFFFF" cx="11.5" cy="5.5" r="1.5"/>
<rect x="8.001" y="11.894" transform="matrix(0.5547 -0.8321 0.8321 0.5547 -9.1111 13.9759)" fill="#FFFFFF" width="1" height="7.211"/>
<rect x="3.5" y="9" transform="matrix(0.5998 -0.8001 0.8001 0.5998 -4.1996 10.6022)" opacity="0.5" fill="#FFFFFF" enable-background="new    " width="10" height="1"/>
<rect x="11" y="5.5" fill="#FFFFFF" width="1" height="12"/>
<path fill="#7FBA00" d="M19.5,12.632c-0.973,0.781-2.207,1.251-3.553,1.251c-0.324,0-0.639-0.033-0.947-0.085v5.131
	c0,0.387,0.057,0.753,0.171,1.1c0.114,0.347,0.272,0.676,0.474,0.987c0.201,0.311,0.44,0.604,0.715,0.88
	c0.275,0.275,0.573,0.534,0.895,0.776c0.322,0.242,0.662,0.468,1.019,0.677c0.358,0.209,0.718,0.402,1.08,0.58L19.5,24l0.145-0.072
	c0.362-0.177,0.723-0.37,1.08-0.58c0.358-0.209,0.698-0.435,1.019-0.677c0.322-0.242,0.62-0.501,0.895-0.776
	c0.275-0.275,0.513-0.568,0.715-0.88c0.201-0.311,0.359-0.64,0.474-0.987c0.115-0.347,0.171-0.714,0.171-1.1v-5.131
	c-0.309,0.052-0.624,0.085-0.947,0.085C21.707,13.883,20.473,13.413,19.5,12.632L19.5,12.632z"/>
<path opacity="0.15" fill="#FFFFFF" enable-background="new    " d="M19.5,12.632L19.5,12.632c-0.973,0.781-2.207,1.251-3.553,1.251
	c-0.324,0-0.639-0.033-0.947-0.085v5.131c0,0.387,0.057,0.753,0.171,1.1c0.114,0.347,0.272,0.676,0.474,0.987
	c0.201,0.311,0.44,0.604,0.715,0.88c0.275,0.275,0.573,0.534,0.895,0.776c0.322,0.242,0.662,0.468,1.019,0.677
	c0.358,0.209,0.718,0.402,1.08,0.58L19.5,24V12.632z"/>
<path fill="#FFFFFF" d="M18.303,12.237C18.071,12.089,17.796,12,17.5,12c-0.601,0-1.116,0.356-1.355,0.866
	C16.914,12.834,17.647,12.623,18.303,12.237z"/>
<path opacity="0.5" fill="#FFFFFF" enable-background="new    " d="M17.471,12.627L11.9,5.199l-0.8,0.6l5.285,7.047
	C16.757,12.812,17.123,12.748,17.471,12.627z"/>
<polygon fill="#FFFFFF" points="14,15.234 11.224,17.085 11.779,17.917 14,16.436 "/>
</svg>
