<?xml version="1.0" encoding="utf-8"?>
<!-- Generator: Adobe Illustrator 21.1.0, SVG Export Plug-In . SVG Version: 6.00 Build 0)  -->
<svg version="1.1" id="Layer_1" xmlns="http://www.w3.org/2000/svg" xmlns:xlink="http://www.w3.org/1999/xlink" x="0px" y="0px"
	 width="24px" height="24px" viewBox="0 0 24 24" enable-background="new 0 0 24 24" xml:space="preserve">
<path fill="#0072C6" d="M3.5,23C3.224,23,3,22.776,3,22.5S3.224,22,3.5,22H22V0H4C2.895,0,2,0.895,2,2v20.5
	C2,23.328,2.672,24,3.5,24H22v-1H3.5z"/>
<path opacity="0.3" fill="#0072C6" enable-background="new    " d="M2,22.5C2,23.328,2.672,24,3.5,24H22v-1H3.5
	C3.224,23,3,22.776,3,22.5S3.224,22,3.5,22H22v-1H3.5C2.672,21,2,21.672,2,22.5z"/>
<path fill="#FFFFFF" d="M16.001,4H8.999C8.447,4,8,4.447,8,4.999V8c0,0.553,0.447,1,0.999,1H16c0.553,0,1-0.447,1-0.999V4.999
	C17,4.447,16.553,4,16.001,4L16.001,4z"/>
<path opacity="0.5" fill="#000C82" enable-background="new    " d="M2,22.5C2,23.328,2.672,24,3.5,24H22v-1H3.5
	C3.224,23,3,22.776,3,22.5S3.224,22,3.5,22H22v-1H3.5C2.672,21,2,21.672,2,22.5z"/>
<path fill="#A0A1A2" d="M3.5,23C3.224,23,3,22.776,3,22.5S3.224,22,3.5,22H22c-0.276,0-0.5,0.224-0.5,0.5S21.724,23,22,23H3.5z"/>
</svg>
