<?xml version="1.0" encoding="utf-8"?>
<!-- Generator: Adobe Illustrator 21.1.0, SVG Export Plug-In . SVG Version: 6.00 Build 0)  -->
<svg version="1.1" id="Layer_1" xmlns="http://www.w3.org/2000/svg" xmlns:xlink="http://www.w3.org/1999/xlink" x="0px" y="0px"
	 width="24px" height="24px" viewBox="0 0 24 24" enable-background="new 0 0 24 24" xml:space="preserve">
<path fill="#3C9BE4" d="M14.12,20.529c-1.491-1.49-1.491-3.917,0-5.409c1.326-1.325,3.391-1.472,4.88-0.442
	c0.951-0.657,2.135-0.831,3.213-0.528L23,13.5L11.5,0L0,13.5L11.5,23l2.788-2.303L14.12,20.529z"/>
<polygon opacity="0.2" fill="#FFFFFF" enable-background="new    " points="11.5,0 11.5,0 0,13.5 11.5,23 "/>
<circle fill="#FFFFFF" cx="11.5" cy="17.5" r="1.5"/>
<circle fill="#FFFFFF" cx="5.5" cy="13.5" r="1.5"/>
<path fill="#FFFFFF" d="M18.635,14.471C18.859,14.208,19,13.872,19,13.5c0-0.828-0.672-1.5-1.5-1.5S16,12.672,16,13.5
	c0,0.206,0.042,0.403,0.117,0.581C16.968,13.922,17.856,14.052,18.635,14.471z"/>
<circle fill="#FFFFFF" cx="11.5" cy="5.5" r="1.5"/>
<rect x="14" y="4.499" transform="matrix(0.8 -0.6 0.6 0.8 -2.7995 10.5997)" opacity="0.5" fill="#FFFFFF" enable-background="new    " width="1" height="10"/>
<rect x="8.001" y="11.894" transform="matrix(0.5547 -0.8321 0.8321 0.5547 -9.1111 13.9759)" fill="#FFFFFF" width="1" height="7.211"/>
<rect x="3.5" y="9" transform="matrix(0.5998 -0.8001 0.8001 0.5998 -4.1996 10.6022)" opacity="0.5" fill="#FFFFFF" enable-background="new    " width="10" height="1"/>
<g>
	<path fill="#FFFFFF" d="M17.533,14.081l0.246-0.164l-0.555-0.832l-1.782,1.188C16.112,14.014,16.834,13.951,17.533,14.081z"/>
	<path fill="#FFFFFF" d="M14.059,15.195l-2.835,1.89l0.555,0.832l1.308-0.872C13.226,16.37,13.552,15.728,14.059,15.195z"/>
</g>
<rect x="11" y="5.5" fill="#FFFFFF" width="1" height="12"/>
<path fill="#BA141A" d="M19.177,15.827c1.103-1.103,2.892-1.103,3.995,0s1.103,2.892,0,3.995L19,24c0,0-4.173-4.177-4.173-4.177
	c-1.103-1.103-1.103-2.892,0-3.995s2.892-1.103,3.995,0L19,16L19.177,15.827z"/>
<path opacity="0.15" fill="#FFFFFF" d="M19,24c0,0-4.173-4.177-4.173-4.177c-1.103-1.103-1.103-2.892,0-3.995s2.892-1.103,3.995,0
	L19,16V24z"/>
</svg>
