<?xml version="1.0" encoding="utf-8"?>
<!-- Generator: Adobe Illustrator 21.1.0, SVG Export Plug-In . SVG Version: 6.00 Build 0)  -->
<svg version="1.1" id="Layer_1" xmlns="http://www.w3.org/2000/svg" xmlns:xlink="http://www.w3.org/1999/xlink" x="0px" y="0px"
	 width="24px" height="24px" viewBox="0 0 24 24" enable-background="new 0 0 24 24" xml:space="preserve">
<path fill="#FFFFFF" d="M23.249,18.648c-0.167-0.593-0.405-1.157-0.709-1.678c-0.301-0.517-0.668-0.994-1.093-1.418
	c-0.424-0.423-0.901-0.791-1.419-1.094c-0.521-0.304-1.084-0.542-1.676-0.708c-1.184-0.332-2.528-0.332-3.704,0
	c-0.594,0.167-1.158,0.405-1.679,0.708c-0.516,0.302-0.992,0.67-1.417,1.094c-0.426,0.427-0.794,0.904-1.093,1.417
	c-0.303,0.518-0.542,1.083-0.709,1.678C9.585,19.237,9.5,19.86,9.5,20.5s0.085,1.263,0.251,1.852
	c0.078,0.28,0.179,0.561,0.305,0.849l0.131,0.3h12.627l0.131-0.3c0.126-0.288,0.227-0.568,0.305-0.848
	c0.166-0.59,0.251-1.213,0.251-1.853S23.415,19.237,23.249,18.648z"/>
<path fill="#3C9BE4" d="M8.307,18.24c0.202-0.717,0.49-1.398,0.857-2.025c0.366-0.628,0.812-1.207,1.328-1.723
	c0.511-0.512,1.091-0.959,1.722-1.328c0.629-0.367,1.311-0.655,2.027-0.857c1.445-0.407,3.072-0.407,4.519,0
	c0.715,0.202,1.396,0.49,2.026,0.856c0.499,0.292,0.953,0.645,1.379,1.027L23,13.5L11.5,0L0,13.5l8.025,6.629
	C8.053,19.483,8.136,18.847,8.307,18.24z"/>
<circle fill="#FFFFFF" cx="5.5" cy="13.5" r="1.5"/>
<circle fill="#FFFFFF" cx="11.5" cy="5.5" r="1.5"/>
<rect x="3.5" y="9" transform="matrix(0.5998 -0.8001 0.8001 0.5998 -4.1996 10.6022)" opacity="0.5" fill="#FFFFFF" enable-background="new    " width="10" height="1"/>
<path fill="#DD5900" d="M17.852,19.852l2.875-2.875l-0.703-0.703l-2.875,2.875l0.008,0.008C16.948,19.052,16.729,19,16.5,19
	c-0.208,0-0.404,0.039-0.586,0.117c-0.183,0.078-0.341,0.185-0.477,0.32c-0.136,0.136-0.242,0.294-0.32,0.477S15,20.292,15,20.5
	s0.039,0.403,0.117,0.586s0.185,0.341,0.32,0.477c0.135,0.136,0.294,0.242,0.477,0.32C16.096,21.961,16.292,22,16.5,22
	c0.208,0,0.403-0.039,0.586-0.117c0.182-0.078,0.341-0.185,0.477-0.32c0.135-0.136,0.242-0.294,0.32-0.477S18,20.708,18,20.5
	c0-0.229-0.052-0.448-0.156-0.656L17.852,19.852z"/>
<path fill="#A0A1A2" d="M16.5,14c0.592,0,1.17,0.078,1.717,0.232c0.552,0.156,1.077,0.377,1.56,0.659
	c0.48,0.281,0.924,0.623,1.317,1.015c0.394,0.394,0.736,0.837,1.016,1.317c0.282,0.483,0.503,1.008,0.659,1.56
	C22.922,19.329,23,19.907,23,20.5s-0.078,1.171-0.232,1.717c-0.073,0.258-0.166,0.517-0.281,0.783H10.513
	c-0.115-0.265-0.208-0.524-0.281-0.783C10.078,21.671,10,21.093,10,20.5s0.078-1.171,0.232-1.717
	c0.156-0.554,0.378-1.079,0.659-1.56c0.28-0.479,0.621-0.922,1.015-1.316c0.393-0.393,0.836-0.735,1.317-1.015
	c0.482-0.282,1.007-0.503,1.56-0.659C15.329,14.078,15.907,14,16.5,14 M16.5,13c-0.688,0-1.351,0.09-1.988,0.27
	c-0.638,0.18-1.236,0.433-1.793,0.758c-0.558,0.326-1.064,0.716-1.52,1.172c-0.456,0.456-0.847,0.962-1.172,1.52
	c-0.326,0.558-0.578,1.155-0.758,1.793C9.09,19.149,9,19.812,9,20.5s0.09,1.351,0.27,1.988C9.42,23.022,9.634,23.522,9.887,24
	h13.227c0.253-0.478,0.467-0.978,0.617-1.512C23.91,21.851,24,21.188,24,20.5s-0.09-1.351-0.27-1.988
	c-0.18-0.638-0.433-1.235-0.758-1.793c-0.326-0.558-0.716-1.063-1.172-1.52c-0.456-0.456-0.962-0.846-1.52-1.172
	c-0.558-0.325-1.155-0.578-1.793-0.758C17.85,13.09,17.188,13,16.5,13L16.5,13z"/>
<path opacity="0.5" fill="#7FBA00" enable-background="new    " d="M12.276,22C12.103,21.517,12,21.02,12,20.5
	c0-0.411,0.053-0.809,0.16-1.191c0.106-0.383,0.258-0.741,0.453-1.074s0.428-0.637,0.699-0.91c0.271-0.273,0.573-0.509,0.906-0.707
	c0.333-0.198,0.69-0.351,1.07-0.457c0.38-0.106,0.776-0.16,1.188-0.16c0.646,0,1.268,0.136,1.867,0.406L18.75,15.5
	c-0.354-0.161-0.72-0.282-1.098-0.363c-0.378-0.081-0.762-0.121-1.152-0.121c-0.511,0-1,0.065-1.469,0.195
	c-0.469,0.13-0.906,0.314-1.312,0.551c-0.406,0.237-0.776,0.522-1.109,0.855c-0.333,0.333-0.62,0.703-0.859,1.109
	c-0.24,0.406-0.425,0.844-0.555,1.312C11.065,19.508,11,19.995,11,20.5c0,0.518,0.094,1.014,0.231,1.5H12.276z"/>
<path fill="#7FBA00" d="M20.729,22h1.026c0.137-0.488,0.23-0.984,0.23-1.5c0-0.391-0.041-0.774-0.121-1.152
	c-0.081-0.378-0.202-0.743-0.363-1.098l-0.906,0.406C20.864,19.255,21,19.878,21,20.523C21,21.038,20.898,21.527,20.729,22z"/>
<path opacity="0.2" fill="#FFFFFF" enable-background="new    " d="M16.5,13c-0.688,0-1.351,0.09-1.988,0.27
	c-0.638,0.18-1.236,0.433-1.793,0.758c-0.558,0.326-1.064,0.716-1.52,1.172c-0.456,0.456-0.847,0.962-1.172,1.52
	c-0.326,0.558-0.578,1.155-0.758,1.793S9,19.812,9,20.5s0.09,1.351,0.27,1.988C9.42,23.022,9.634,23.522,9.887,24H16.5V13z"/>
<path fill="#FFFFFF" d="M9.164,16.215c0.122-0.21,0.266-0.405,0.406-0.603l-3.792-2.528l-0.555,0.832l3.817,2.545
	C9.085,16.38,9.118,16.294,9.164,16.215z"/>
<path fill="#FFFFFF" d="M12,13.308V5.5h-1v8.546C11.315,13.777,11.647,13.529,12,13.308z"/>
<path opacity="0.5" fill="#FFFFFF" enable-background="new    " d="M17.028,12.037L11.9,5.199l-0.8,0.6l4.687,6.25
	C16.2,12.015,16.613,12.011,17.028,12.037z"/>
<path opacity="0.2" fill="#FFFFFF" enable-background="new    " d="M8.307,18.24c0.202-0.717,0.49-1.398,0.857-2.025
	c0.366-0.628,0.812-1.207,1.328-1.723c0.31-0.31,0.652-0.587,1.008-0.847V0L0,13.5l8.025,6.629
	C8.053,19.483,8.136,18.847,8.307,18.24z"/>
</svg>
