<?xml version="1.0" encoding="utf-8"?>
<!-- Generator: Adobe Illustrator 21.1.0, SVG Export Plug-In . SVG Version: 6.00 Build 0)  -->
<svg version="1.1" id="Layer_1" xmlns="http://www.w3.org/2000/svg" xmlns:xlink="http://www.w3.org/1999/xlink" x="0px" y="0px"
	 width="24px" height="24px" viewBox="0 0 24 24" enable-background="new 0 0 24 24" xml:space="preserve">
<path fill="#3C9BE4" d="M13.739,19.256l1.268-0.519C15.002,18.658,15,18.579,15,18.5s0.002-0.158,0.007-0.237l-1.268-0.519
	l1.125-2.788l1.291,0.534c0.105-0.117,0.217-0.229,0.335-0.334l-0.534-1.292l2.788-1.125l0.519,1.268c0.158-0.01,0.316-0.01,0.475,0
	l0.519-1.268l2.462,0.994L23,13.5L11.5,0L0,13.5L11.5,23l2.813-2.323L13.739,19.256z"/>
<polygon opacity="0.2" fill="#FFFFFF" enable-background="new    " points="11.5,0 11.5,0 0,13.5 11.5,23 "/>
<circle fill="#FFFFFF" cx="11.5" cy="17.5" r="1.5"/>
<circle fill="#FFFFFF" cx="5.5" cy="13.5" r="1.5"/>
<circle fill="#FFFFFF" cx="11.5" cy="5.5" r="1.5"/>
<rect x="8.001" y="11.894" transform="matrix(0.5547 -0.8321 0.8321 0.5547 -9.1111 13.9759)" fill="#FFFFFF" width="1" height="7.211"/>
<rect x="3.5" y="9" transform="matrix(0.5998 -0.8001 0.8001 0.5998 -4.1996 10.6022)" opacity="0.5" fill="#FFFFFF" enable-background="new    " width="10" height="1"/>
<rect x="11" y="5.5" fill="#FFFFFF" width="1" height="12"/>
<g>
	<path fill="#3E3E3E" d="M23,18.5c0,0.287-0.037,0.576-0.109,0.867l1.07,0.438l-0.375,0.93l-1.078-0.445
		c-0.308,0.511-0.714,0.917-1.219,1.219l0.445,1.07l-0.93,0.383l-0.438-1.07C20.075,21.964,19.786,22,19.5,22
		c-0.287,0-0.576-0.036-0.867-0.109l-0.438,1.07l-0.93-0.383l0.445-1.07c-0.511-0.302-0.917-0.708-1.219-1.219l-1.078,0.445
		l-0.375-0.93l1.07-0.438C16.036,19.076,16,18.787,16,18.5c0-0.286,0.036-0.575,0.109-0.867l-1.07-0.438l0.375-0.93l1.078,0.445
		c0.302-0.505,0.708-0.911,1.219-1.219l-0.445-1.078l0.93-0.375l0.438,1.07C18.924,15.037,19.213,15,19.5,15
		c0.286,0,0.575,0.037,0.867,0.109l0.438-1.07l0.93,0.375l-0.445,1.078c0.505,0.308,0.911,0.714,1.219,1.219l1.078-0.445l0.375,0.93
		l-1.07,0.438C22.963,17.925,23,18.214,23,18.5z M19.5,21c0.344,0,0.666-0.064,0.969-0.195c0.302-0.13,0.566-0.309,0.793-0.535
		s0.406-0.492,0.539-0.797S22,18.844,22,18.5s-0.066-0.666-0.199-0.969c-0.133-0.302-0.312-0.566-0.539-0.793
		s-0.491-0.406-0.793-0.539C20.166,16.066,19.844,16,19.5,16s-0.668,0.066-0.973,0.199s-0.57,0.312-0.797,0.539
		s-0.405,0.491-0.535,0.793C17.064,17.834,17,18.156,17,18.5s0.064,0.668,0.195,0.973c0.13,0.305,0.309,0.57,0.535,0.797
		s0.492,0.405,0.797,0.535C18.832,20.936,19.156,21,19.5,21z"/>
</g>
<polygon opacity="0.5" fill="#FFFFFF" enable-background="new    " points="17.831,13.108 11.9,5.199 11.1,5.799 16.872,13.495 "/>
<g>
	<polygon fill="#FFFFFF" points="17.365,13.296 17.224,13.085 16.207,13.763 	"/>
	<polygon fill="#FFFFFF" points="14.864,14.956 15.701,15.302 16.367,14.858 15.977,13.916 11.224,17.085 11.779,17.917 
		14.365,16.193 	"/>
</g>
<path fill="#FFFFFF" d="M18.744,12.739l0.238,0.581C18.892,12.578,18.267,12,17.5,12c-0.828,0-1.5,0.672-1.5,1.5
	c0,0.114,0.015,0.224,0.039,0.331L18.744,12.739z"/>
</svg>
