<?xml version="1.0" encoding="utf-8"?>
<!-- Generator: Adobe Illustrator 21.1.0, SVG Export Plug-In . SVG Version: 6.00 Build 0)  -->
<svg version="1.1" id="Layer_1" xmlns="http://www.w3.org/2000/svg" xmlns:xlink="http://www.w3.org/1999/xlink" x="0px" y="0px"
	 width="24px" height="24px" viewBox="0 0 24 24" enable-background="new 0 0 24 24" xml:space="preserve">
<path fill="#B8D432" d="M15,0H8v7h7V0L15,0z"/>
<path fill="#B8D432" d="M7,0H0v7h7V0L7,0z"/>
<path fill="#B8D432" d="M23,0h-7v7h7V0L23,0z"/>
<path fill="#B8D432" d="M15,8H8v7h7V8L15,8z"/>
<path fill="#B8D432" d="M7,8H0v7h7V8L7,8z"/>
<path fill="#B8D432" d="M23,8h-7v7h7V8L23,8z"/>
<path fill="#B8D432" d="M15,16H8v7h7V16L15,16z"/>
<path fill="#B8D432" d="M7,16H0v7h7V16L7,16z"/>
<path fill="#B8D432" d="M23,16h-7v7h7V16L23,16z"/>
</svg>
