<?xml version="1.0" encoding="utf-8"?>
<!-- Generator: Adobe Illustrator 21.1.0, SVG Export Plug-In . SVG Version: 6.00 Build 0)  -->
<svg version="1.1" id="Layer_1" xmlns="http://www.w3.org/2000/svg" xmlns:xlink="http://www.w3.org/1999/xlink" x="0px" y="0px"
	 width="24px" height="24px" viewBox="0 0 24 24" enable-background="new 0 0 24 24" xml:space="preserve">
<g>
	<polygon fill="#0072C6" points="15,12.791 16.351,11.856 15,11.316 	"/>
	<path fill="#0072C6" d="M15,6v2.084l3.205,1.282C18.593,9.129,19.04,9,19.5,9c1.379,0,2.5,1.122,2.5,2.5c0,1.379-1.121,2.5-2.5,2.5
		c-0.271,0-0.537-0.044-0.79-0.129L17.079,15H24V6H15z"/>
</g>
<g>
	<polygon fill="#0072C6" points="11,15.56 11,15 7.28,15 7.663,17.871 	"/>
	<path fill="#0072C6" d="M8.998,20.595C8.949,21.93,7.847,23,6.5,23C5.122,23,4,21.879,4,20.5c0-0.681,0.276-1.316,0.75-1.778
		L4.253,15H2v9h9v-4.791L8.998,20.595z"/>
</g>
<g>
	<polygon fill="#0072C6" points="9,8.916 6.326,7.846 6.48,9 9,9 	"/>
	<path fill="#0072C6" d="M3.277,7.679C2.508,7.245,2,6.417,2,5.5C2,4.122,3.122,3,4.5,3c1.154,0,2.127,0.786,2.415,1.85L9,5.684V0H0
		v9h3.453L3.277,7.679z"/>
</g>
<path fill="#59B4D9" d="M19.5,10c-0.448,0-0.846,0.201-1.121,0.513L5.994,5.559C5.995,5.539,6,5.52,6,5.5C6,4.672,5.328,4,4.5,4
	S3,4.672,3,5.5c0,0.722,0.511,1.325,1.191,1.468l1.627,12.203C5.334,19.42,5,19.918,5,20.5C5,21.328,5.672,22,6.5,22
	S8,21.328,8,20.5c0-0.136-0.024-0.265-0.058-0.391l10.683-7.395C18.872,12.892,19.172,13,19.5,13c0.828,0,1.5-0.672,1.5-1.5
	S20.328,10,19.5,10z M18.006,11.441C18.005,11.461,18,11.48,18,11.5c0,0.136,0.024,0.265,0.058,0.39L7.375,19.286
	c-0.167-0.121-0.358-0.21-0.566-0.254L5.182,6.829c0.168-0.086,0.316-0.202,0.44-0.342L18.006,11.441z M4,5.5C4,5.224,4.224,5,4.5,5
	S5,5.224,5,5.5S4.776,6,4.5,6S4,5.776,4,5.5z M6.5,21C6.224,21,6,20.776,6,20.5S6.224,20,6.5,20S7,20.224,7,20.5S6.776,21,6.5,21z
	 M19.5,12c-0.276,0-0.5-0.224-0.5-0.5s0.224-0.5,0.5-0.5s0.5,0.224,0.5,0.5S19.776,12,19.5,12z"/>
<rect fill="#A0A1A2" width="9" height="3"/>
<g>
	<polygon fill="#A0A1A2" points="11,15.56 11,15 7.28,15 7.663,17.871 	"/>
	<polygon fill="#A0A1A2" points="4.253,15 2,15 2,18 4.653,18 	"/>
</g>
<polygon fill="#A0A1A2" points="15,6 15,8.084 17.29,9 24,9 24,6 "/>
</svg>
