<?xml version="1.0" encoding="utf-8"?>
<!-- Generator: Adobe Illustrator 21.1.0, SVG Export Plug-In . SVG Version: 6.00 Build 0)  -->
<!DOCTYPE svg PUBLIC "-//W3C//DTD SVG 1.1//EN" "http://www.w3.org/Graphics/SVG/1.1/DTD/svg11.dtd">
<svg version="1.1" id="Layer_1" xmlns="http://www.w3.org/2000/svg" xmlns:xlink="http://www.w3.org/1999/xlink" x="0px" y="0px"
	 width="24px" height="24px" viewBox="0 0 24 24" enable-background="new 0 0 24 24" xml:space="preserve">
<rect y="5" fill="#59B4D9" width="24" height="17"/>
<polygon opacity="0.15" fill="#FFFFFF" enable-background="new    " points="6,22 0,22 0,5 17,5 "/>
<rect y="2" fill="#7A7A7A" width="24" height="4"/>
<path fill="#FFFFFF" d="M24,13h-8.051c-0.252-2.244-2.139-4-4.449-4c-0.575,0-1.144,0.112-1.688,0.333l0.376,0.927
	C10.613,10.087,11.054,10,11.5,10c1.93,0,3.5,1.57,3.5,3.5S13.43,17,11.5,17c-0.446,0-0.887-0.088-1.312-0.26l-0.376,0.926
	C10.356,17.888,10.925,18,11.5,18c2.31,0,4.197-1.756,4.449-4H24V13z"/>
<path fill="#FFFFFF" d="M11.5,11c-1.209,0-2.218,0.859-2.45,2H0v1h9.05c0.232,1.141,1.24,2,2.45,2c1.381,0,2.5-1.119,2.5-2.5
	S12.881,11,11.5,11z M11.5,15c-0.827,0-1.5-0.673-1.5-1.5s0.673-1.5,1.5-1.5s1.5,0.673,1.5,1.5S12.327,15,11.5,15z"/>
</svg>
