<?xml version="1.0" encoding="utf-8"?>
<!-- Generator: Adobe Illustrator 21.1.0, SVG Export Plug-In . SVG Version: 6.00 Build 0)  -->
<!DOCTYPE svg PUBLIC "-//W3C//DTD SVG 1.1//EN" "http://www.w3.org/Graphics/SVG/1.1/DTD/svg11.dtd">
<svg version="1.1" id="Layer_1" xmlns="http://www.w3.org/2000/svg" xmlns:xlink="http://www.w3.org/1999/xlink" x="0px" y="0px"
	 width="24px" height="24px" viewBox="0 0 24 24" enable-background="new 0 0 24 24" xml:space="preserve">
<path fill="#7FBA00" d="M18.5,9H18v1h0.5c2.481,0,4.5,2.019,4.5,4.5S20.981,19,18.5,19h-6C10.019,19,8,16.981,8,14.5
	s2.019-4.5,4.5-4.5H15V9h-2.5C9.462,9,7,11.462,7,14.5S9.462,20,12.5,20h6c3.038,0,5.5-2.462,5.5-5.5S21.538,9,18.5,9z"/>
<path fill="#59B4D9" d="M11.5,4h-6C2.462,4,0,6.462,0,9.5S2.462,15,5.5,15H6v-1H5.5C3.019,14,1,11.981,1,9.5S3.019,5,5.5,5h6
	C13.981,5,16,7.019,16,9.5S13.981,14,11.5,14H9v1h2.5c3.038,0,5.5-2.462,5.5-5.5S14.538,4,11.5,4z"/>
</svg>
