<?xml version="1.0" encoding="utf-8"?>
<!-- Generator: Adobe Illustrator 21.1.0, SVG Export Plug-In . SVG Version: 6.00 Build 0)  -->
<svg version="1.1" id="Layer_1" xmlns="http://www.w3.org/2000/svg" xmlns:xlink="http://www.w3.org/1999/xlink" x="0px" y="0px"
	 width="24px" height="24px" viewBox="0 0 24 24" enable-background="new 0 0 24 24" xml:space="preserve">
<path fill="#59B4D9" d="M23.643,10.73c-0.238-0.547-0.562-1.021-0.973-1.424s-0.891-0.721-1.441-0.955S20.09,8,19.465,8
	c-0.109-0.852-0.357-1.645-0.744-2.379s-0.877-1.369-1.471-1.904s-1.275-0.955-2.045-1.26C14.435,2.152,13.617,2,12.75,2
	c-0.578,0-1.141,0.07-1.688,0.211S10,2.555,9.516,2.82S8.584,3.412,8.174,3.799S7.402,4.621,7.09,5.105C6.723,5.035,6.359,5,6,5
	C5.172,5,4.393,5.156,3.662,5.469c-0.731,0.313-1.367,0.74-1.91,1.283s-0.971,1.18-1.283,1.91S0,10.172,0,11
	s0.156,1.607,0.469,2.338s0.74,1.367,1.283,1.91s1.18,0.971,1.91,1.283S5.172,17,6,17h3.583v-1H6c-0.687,0-1.342-0.131-1.945-0.389
	c-0.609-0.26-1.146-0.62-1.596-1.071c-0.456-0.456-0.806-0.978-1.071-1.596C1.131,12.343,1,11.688,1,11
	c0-0.687,0.131-1.342,0.389-1.945c0.26-0.609,0.62-1.146,1.071-1.596c0.456-0.456,0.978-0.806,1.596-1.071C4.657,6.131,5.312,6,6,6
	c0.295,0,0.599,0.029,0.903,0.087l0.662,0.126L7.93,5.647c0.265-0.412,0.578-0.789,0.93-1.121C9.207,4.199,9.589,3.92,9.996,3.697
	c0.409-0.224,0.852-0.398,1.315-0.518C11.773,3.06,12.257,3,12.75,3c0.737,0,1.439,0.13,2.087,0.387
	c0.654,0.259,1.241,0.62,1.744,1.073s0.925,1,1.256,1.627c0.329,0.624,0.543,1.311,0.637,2.039L18.585,9h0.88
	c0.488,0,0.95,0.091,1.372,0.271c0.438,0.186,0.809,0.431,1.132,0.749c0.321,0.315,0.568,0.678,0.756,1.109
	C22.91,11.553,23,12.001,23,12.5c0,0.493-0.088,0.936-0.269,1.354c-0.187,0.433-0.434,0.799-0.755,1.119
	c-0.324,0.323-0.691,0.57-1.125,0.756C20.427,15.911,19.985,16,19.5,16h-3.551c-0.252-2.244-2.139-4-4.449-4
	c-0.575,0-1.144,0.112-1.688,0.333l0.376,0.927C10.613,13.087,11.054,13,11.5,13c1.93,0,3.5,1.57,3.5,3.5S13.43,20,11.5,20
	c-0.446,0-0.887-0.088-1.312-0.26l-0.376,0.926C10.356,20.888,10.925,21,11.5,21c2.31,0,4.197-1.756,4.449-4H19.5
	c0.617,0,1.199-0.117,1.746-0.352c0.547-0.235,1.025-0.557,1.436-0.967c0.411-0.41,0.732-0.887,0.967-1.43
	C23.884,13.708,24,13.125,24,12.5C24,11.867,23.881,11.277,23.643,10.73z"/>
<path fill="#804998" d="M11.5,14C10.119,14,9,15.119,9,16.5s1.119,2.5,2.5,2.5s2.5-1.119,2.5-2.5S12.881,14,11.5,14L11.5,14z"/>
</svg>
