<?xml version="1.0" encoding="utf-8"?>
<!-- Generator: Adobe Illustrator 19.1.0, SVG Export Plug-In . SVG Version: 6.00 Build 0)  -->
<!DOCTYPE svg PUBLIC "-//W3C//DTD SVG 1.1//EN" "http://www.w3.org/Graphics/SVG/1.1/DTD/svg11.dtd">
<svg version="1.1" id="Layer_1" xmlns="http://www.w3.org/2000/svg" xmlns:xlink="http://www.w3.org/1999/xlink" x="0px" y="0px"
	 viewBox="-107 426 50 50" style="enable-background:new -107 426 50 50;" xml:space="preserve">
<style type="text/css">
	.st0{fill:#68217A;}
	.st1{fill:#7A7A7A;}
	.st2{opacity:0.65;}
	.st3{fill:#FFFFFF;}
	.st4{opacity:0.15;}
</style>
<g>
	<path class="st0" d="M-65.6,440.7L-65.6,440.7v-0.3c0-7.7-6.6-14.1-14.7-14.2c-0.2-0.3-4.8,0.1-4.8,0.1l0,0c-7.3,0.9-13,7-13,14.1
		c0,0.2-0.8,5.8,4.9,10.5c2.6,2.3,5.3,8.5,5.7,10.3l0.3,0.6h10.6l0.3-0.6c0.4-1.8,3.2-8,5.7-10.2C-64.9,446.2-65.6,440.9-65.6,440.7
		z"/>
	<rect x="-87" y="465.4" class="st1" width="10.6" height="3.4"/>
	<polygon class="st1" points="-83.7,476 -79.8,476 -76.5,472.5 -87,472.5 	"/>
	<g class="st2">
		<path class="st3" d="M-79.1,461.3h-2v-12.7h-1.7v12.6h-2v-12.6h-1.7c-2,0-3.7-1.7-3.7-3.7s1.6-3.7,3.7-3.7c2.1,0,3.7,1.7,3.7,3.7
			v1.7h1.7v-1.7c0-2,1.7-3.7,3.7-3.7s3.7,1.7,3.7,3.7s-1.7,3.7-3.7,3.7h-1.7C-79.1,448.6-79.1,461.3-79.1,461.3z M-86.5,443.2
			c-0.9,0-1.7,0.7-1.7,1.7c0,0.9,0.8,1.7,1.7,1.7h1.7v-1.7C-84.9,444-85.6,443.2-86.5,443.2z M-77.4,443.2c-0.9,0-1.7,0.8-1.7,1.7
			v1.7h1.7c0.9,0,1.7-0.8,1.7-1.7S-76.4,443.2-77.4,443.2z"/>
	</g>
	<g class="st4">
		<path class="st3" d="M-80.3,426.2c-0.2-0.3-4.8,0.1-4.8,0.1c-7.3,0.9-13,7-13,14.1c0,0.2-0.7,5.1,3.9,9.6l21.6-21.6
			C-74.9,427-77.5,426.2-80.3,426.2z"/>
	</g>
</g>
</svg>
