<?xml version="1.0" encoding="utf-8"?>
<!-- Generator: Adobe Illustrator 21.1.0, SVG Export Plug-In . SVG Version: 6.00 Build 0)  -->
<!DOCTYPE svg PUBLIC "-//W3C//DTD SVG 1.1//EN" "http://www.w3.org/Graphics/SVG/1.1/DTD/svg11.dtd">
<svg version="1.1" id="Layer_1" xmlns="http://www.w3.org/2000/svg" xmlns:xlink="http://www.w3.org/1999/xlink" x="0px" y="0px"
	 width="24px" height="24px" viewBox="0 0 24 24" enable-background="new 0 0 24 24" xml:space="preserve">
<path fill="#804998" d="M12,0C7.582,0,4,3.582,4,8c0,1.099,0.208,2.117,0.625,3.057c0.417,0.939,1.011,1.792,1.784,2.557
	c0.057,0.056,0.091,0.117,0.141,0.174C7.448,14.767,8,16.067,8,17.5V22c0,1.105,0.895,2,2,2h4c1.105,0,2-0.895,2-2v-4.5
	c0-1.431,0.551-2.731,1.447-3.709c0.05-0.059,0.085-0.12,0.144-0.177c0.773-0.765,1.367-1.617,1.784-2.557
	C19.792,10.117,20,9.099,20,8C20,3.582,16.418,0,12,0L12,0z"/>
<path opacity="0.2" fill="#FFFFFF" d="M11.896,22v-4.5c0-1.433-0.4-2.733-1.05-3.712c-0.036-0.058-0.061-0.118-0.102-0.174
	c-0.559-0.765-0.99-1.617-1.292-2.557C9.151,10.117,9,9.099,9,8c0-3.161,1.331-6.396,3.257-7.987C12.171,0.01,12.087,0,12,0
	C7.582,0,4,3.582,4,8c0,1.099,0.208,2.117,0.625,3.057s1.011,1.792,1.784,2.557c0.057,0.056,0.091,0.117,0.141,0.174
	C7.448,14.767,8,16.067,8,17.5V22c0,1.105,0.895,2,2,2h3.344C12.544,24,11.896,23.105,11.896,22z"/>
<path opacity="0.4" fill="#FFFFFF" d="M14.5,8h-5C8.672,8,8,8.672,8,9.5S8.672,11,9.5,11c0.276,0,0.5,0.224,0.5,0.5v7h1v-7
	c0-0.828-0.672-1.5-1.5-1.5C9.224,10,9,9.776,9,9.5S9.224,9,9.5,9h5C14.776,9,15,9.224,15,9.5S14.776,10,14.5,10
	c-0.828,0-1.5,0.672-1.5,1.5v7h1v-7c0-0.276,0.224-0.5,0.5-0.5c0.828,0,1.5-0.672,1.5-1.5S15.328,8,14.5,8z"/>
<path fill="#A0A1A2" d="M8,18v4c0,1.105,0.895,2,2,2h4c1.105,0,2-0.895,2-2v-4H8z"/>
<rect x="8" y="19" fill="#7A7A7A" width="8" height="1"/>
<rect x="8" y="21" fill="#7A7A7A" width="8" height="1"/>
</svg>
