<?xml version="1.0" encoding="utf-8"?>
<!-- Generator: Adobe Illustrator 21.1.0, SVG Export Plug-In . SVG Version: 6.00 Build 0)  -->
<svg version="1.1" id="Layer_1" xmlns="http://www.w3.org/2000/svg" xmlns:xlink="http://www.w3.org/1999/xlink" x="0px" y="0px"
	 width="24px" height="24px" viewBox="0 0 24 24" enable-background="new 0 0 24 24" xml:space="preserve">
<polygon fill="#7FBA00" points="11.5,0 0,11.5 11.5,23 23,11.5 "/>
<polygon opacity="0.2" fill="#FFFFFF" enable-background="new    " points="11.5,0 11.5,0 0,11.5 11.5,23 "/>
<polygon fill="#FFFFFF" points="13.122,15.973 11.982,17.113 11.982,8.986 10.982,8.986 10.982,17.059 9.884,15.96 9.171,16.661 
	11.509,19 13.829,16.68 "/>
<polygon fill="#FFFFFF" points="8.281,14 6.669,14 11.406,9.263 10.699,8.556 6,13.255 6.001,11.701 5.001,11.693 5,15 8.281,15 "/>
<polygon fill="#FFFFFF" points="14.719,15 18,15 17.999,11.693 16.999,11.701 17,13.255 12.301,8.556 11.594,9.263 16.331,14 
	14.719,14 "/>
<path fill="#59B4D9" d="M11.5,4C9.567,4,8,5.567,8,7.5S9.567,11,11.5,11S15,9.433,15,7.5S13.433,4,11.5,4L11.5,4z"/>
<g>
	<path fill="#3C9BE4" d="M13.946,4.999c0.233,0.486,0.367,1.027,0.367,1.602c0,2.05-1.662,3.712-3.712,3.712
		c-0.575,0-1.116-0.134-1.602-0.367C9.634,10.595,10.519,11,11.5,11c1.933,0,3.5-1.567,3.5-3.5C15,6.519,14.595,5.634,13.946,4.999z
		"/>
</g>
<path fill="#FFFFFF" d="M8.72,9.605c0.241-0.424,0.518-0.826,0.832-1.196c1.329,0.849,2.9,1.349,4.586,1.368
	C14.4,9.473,14.614,9.13,14.76,8.748c-0.175,0.013-0.347,0.036-0.525,0.036c-1.451,0-2.805-0.409-3.967-1.108
	c0.526-0.475,1.115-0.878,1.756-1.196c0.841,0.746,1.826,1.328,2.906,1.707C14.975,7.965,15,7.736,15,7.5
	c0-0.125-0.024-0.244-0.037-0.366c-0.684-0.274-1.323-0.637-1.896-1.083c0.464-0.15,0.95-0.241,1.447-0.302
	c-0.201-0.345-0.457-0.649-0.76-0.906c-0.527,0.105-1.037,0.257-1.526,0.452c-0.37-0.386-0.695-0.814-0.98-1.269
	c-0.359,0.026-0.705,0.097-1.025,0.223c0.303,0.53,0.652,1.03,1.055,1.484C10.6,6.103,9.98,6.565,9.425,7.094
	c-0.399-0.318-0.76-0.68-1.089-1.069c-0.167,0.358-0.267,0.75-0.304,1.161c0.223,0.225,0.457,0.438,0.703,0.638
	C8.537,8.062,8.356,8.313,8.184,8.57C8.306,8.948,8.485,9.296,8.72,9.605z"/>
</svg>
