<?xml version="1.0" encoding="utf-8"?>
<!-- Generator: Adobe Illustrator 21.1.0, SVG Export Plug-In . SVG Version: 6.00 Build 0)  -->
<svg version="1.1" id="Layer_1" xmlns="http://www.w3.org/2000/svg" xmlns:xlink="http://www.w3.org/1999/xlink" x="0px" y="0px"
	 width="24px" height="24px" viewBox="0 0 24 24" enable-background="new 0 0 24 24" xml:space="preserve">
<path fill="#3E3E3E" d="M7.393,21.952C7.132,21.342,7,20.685,7,20c0-0.684,0.132-1.341,0.393-1.952
	c0.258-0.602,0.617-1.136,1.069-1.588c0.451-0.45,0.985-0.809,1.587-1.067C10.659,15.132,11.316,15,12,15V2.002
	C12,0.896,11.104,0,9.998,0H2.002C0.896,0,0,0.896,0,2.002v19.997h7.418C7.411,21.982,7.4,21.968,7.393,21.952z"/>
<path fill="#1E1E1E" d="M7.393,18.048C7.4,18.031,7.412,18.017,7.419,18H2v1h5.098C7.164,18.673,7.262,18.355,7.393,18.048z"/>
<path fill="#1E1E1E" d="M10,15.419V15H2v1h7.022C9.324,15.776,9.646,15.575,10,15.419z"/>
<rect x="2" y="12" fill="#1E1E1E" width="8" height="1"/>
<rect x="2" y="3" fill="#1E1E1E" width="8" height="1"/>
<rect x="2" y="12" fill="#B8D432" width="1" height="1"/>
<rect x="2" y="15" fill="#B8D432" width="1" height="1"/>
<rect x="2" y="18" fill="#B8D432" width="1" height="1"/>
<rect x="2" y="3" fill="#B8D432" width="1" height="1"/>
<path fill="#59B4D9" d="M20.977,18c0.417,0,0.809,0.078,1.176,0.234s0.688,0.369,0.961,0.637c0.273,0.269,0.489,0.585,0.648,0.949
	C23.921,20.186,24,20.578,24,21c0,0.417-0.078,0.807-0.234,1.168c-0.156,0.362-0.371,0.68-0.645,0.953s-0.593,0.488-0.957,0.645
	S21.411,24,21,24h-9c-0.552,0-1.071-0.104-1.559-0.312c-0.487-0.208-0.911-0.493-1.273-0.855c-0.362-0.361-0.647-0.786-0.855-1.273
	C8.104,21.072,8,20.553,8,20c0-0.552,0.104-1.071,0.312-1.559c0.208-0.486,0.493-0.911,0.855-1.273
	c0.362-0.361,0.786-0.646,1.273-0.855C10.929,16.104,11.448,16,12,16c0.239,0,0.481,0.023,0.727,0.07
	c0.208-0.322,0.449-0.613,0.723-0.871s0.571-0.475,0.895-0.652c0.323-0.177,0.667-0.312,1.031-0.406S16.114,14,16.5,14
	c0.578,0,1.124,0.102,1.637,0.305s0.968,0.483,1.363,0.84c0.396,0.357,0.723,0.78,0.98,1.27C20.738,16.904,20.903,17.433,20.977,18z
	"/>
<path opacity="0.2" fill="#FFFFFF" enable-background="new    " d="M10.055,23.362c-0.23-0.538-0.346-1.113-0.346-1.724
	c0-0.61,0.116-1.185,0.346-1.724c0.23-0.538,0.546-1.008,0.946-1.409c0.401-0.4,0.87-0.715,1.409-0.946
	c0.539-0.23,1.114-0.346,1.724-0.346c0.265,0,0.533,0.026,0.804,0.078c0.23-0.357,0.497-0.678,0.799-0.964
	c0.302-0.285,0.632-0.525,0.99-0.722c0.358-0.196,0.738-0.346,1.141-0.449S18.686,15,19.113,15c0.076,0,0.146,0.017,0.221,0.02
	c-0.357-0.293-0.751-0.539-1.197-0.715C17.624,14.102,17.078,14,16.5,14c-0.386,0-0.761,0.047-1.125,0.141s-0.708,0.229-1.031,0.406
	c-0.323,0.178-0.621,0.395-0.895,0.652s-0.515,0.549-0.723,0.871C12.481,16.023,12.239,16,12,16c-0.552,0-1.071,0.104-1.559,0.312
	c-0.487,0.209-0.911,0.494-1.273,0.855c-0.362,0.362-0.647,0.787-0.855,1.273C8.104,18.929,8,19.448,8,20
	c0,0.553,0.104,1.072,0.312,1.559s0.493,0.912,0.855,1.273c0.284,0.284,0.617,0.506,0.977,0.695
	C10.117,23.47,10.08,23.421,10.055,23.362z"/>
</svg>
