<svg xmlns="http://www.w3.org/2000/svg" width="14" height="14" viewBox="0 0 14 14"><title>Asset 18error</title><g id="Layer_2" data-name="Layer 2"><g id="Layer_1-2" data-name="Layer 1"><circle cx="7" cy="7" r="7" fill="#e81123"/><path d="M6.907,11.3a1.029,1.029,0,0,1-.73-.269.855.855,0,0,1-.288-.65.828.828,0,0,1,.29-.652,1.064,1.064,0,0,1,.728-.255,1.035,1.035,0,0,1,.725.258.843.843,0,0,1,.282.65.861.861,0,0,1-.279.659A1.027,1.027,0,0,1,6.907,11.3Zm.908-8.063L7.6,8.7H6.182l-.2-5.467Z" fill="#fff"/></g></g></svg>