<?xml version="1.0" encoding="utf-8"?>
<!-- Generator: Adobe Illustrator 21.1.0, SVG Export Plug-In . SVG Version: 6.00 Build 0)  -->
<!DOCTYPE svg PUBLIC "-//W3C//DTD SVG 1.1//EN" "http://www.w3.org/Graphics/SVG/1.1/DTD/svg11.dtd">
<svg version="1.1" id="Layer_1" xmlns="http://www.w3.org/2000/svg" xmlns:xlink="http://www.w3.org/1999/xlink" x="0px" y="0px"
	 width="24px" height="24px" viewBox="0 0 24 24" enable-background="new 0 0 24 24" xml:space="preserve">
<polygon fill="#3E3E3E" points="18,1 18,0 24,0 24,6 23,6 23,1.711 10.831,13.872 10.128,13.169 22.289,1 "/>
<rect y="5" fill="#7FBA00" width="1" height="3"/>
<rect y="10" fill="#7FBA00" width="1" height="4"/>
<rect y="16" fill="#7FBA00" width="1" height="3"/>
<rect x="23" y="10" fill="#7FBA00" width="1" height="4"/>
<rect x="23" y="16" fill="#7FBA00" width="1" height="3"/>
<polygon fill="#7FBA00" points="3,1 1,1 1,3 0,3 0,0 3,0 "/>
<rect x="5" fill="#7FBA00" width="3" height="1"/>
<rect x="10" fill="#7FBA00" width="4" height="1"/>
<polygon fill="#7FBA00" points="3,23 3,24 0,24 0,21 1,21 1,23 "/>
<polygon fill="#7FBA00" points="24,21 24,24 21,24 21,23 23,23 23,21 "/>
<rect x="5" y="23" fill="#7FBA00" width="3" height="1"/>
<rect x="10" y="23" fill="#7FBA00" width="4" height="1"/>
<rect x="16" y="23" fill="#7FBA00" width="3" height="1"/>
<polygon fill="#A0A1A2" points="18,10.121 18,18 6,18 6,6 13.879,6 14.878,5 5,5 5,19 19,19 19,9.122 "/>
</svg>
