<?xml version="1.0" encoding="utf-8"?>
<!-- Generator: Adobe Illustrator 21.1.0, SVG Export Plug-In . SVG Version: 6.00 Build 0)  -->
<!DOCTYPE svg PUBLIC "-//W3C//DTD SVG 1.1//EN" "http://www.w3.org/Graphics/SVG/1.1/DTD/svg11.dtd">
<svg version="1.1" id="Layer_1" xmlns="http://www.w3.org/2000/svg" xmlns:xlink="http://www.w3.org/1999/xlink" x="0px" y="0px"
	 width="24px" height="24px" viewBox="0 0 24 24" enable-background="new 0 0 24 24" xml:space="preserve">
<path fill="#A0A1A2" d="M20.9,12.211c0.004-0.07,0.006-0.141,0.006-0.211s-0.002-0.141-0.006-0.211s-0.006-0.141-0.006-0.211
	l3.035-1.887l-1.863-4.488L18.586,6C18.398,5.797,18.203,5.602,18,5.414l0.797-3.48L14.309,0.07l-1.887,3.035
	c-0.07,0-0.141-0.002-0.211-0.006S12.07,3.094,12,3.094S11.859,3.096,11.789,3.1s-0.141,0.006-0.211,0.006L9.691,0.07L5.203,1.934
	L6,5.414C5.797,5.602,5.602,5.797,5.414,6l-3.48-0.797L0.07,9.691l3.035,1.887c0,0.07-0.002,0.141-0.006,0.211S3.094,11.93,3.094,12
	s0.002,0.141,0.006,0.211s0.006,0.141,0.006,0.211L0.07,14.309l1.863,4.488L5.414,18C5.602,18.203,5.797,18.398,6,18.586
	l-0.797,3.48l4.488,1.863l1.887-3.035c0.07,0,0.141,0.002,0.211,0.006S11.93,20.906,12,20.906s0.141-0.002,0.211-0.006
	s0.141-0.006,0.211-0.006l1.887,3.035l4.488-1.863L18,18.586c0.203-0.188,0.398-0.383,0.586-0.586l3.48,0.797l1.863-4.488
	l-3.035-1.887C20.895,12.352,20.896,12.281,20.9,12.211z M12,18c-0.25,0-0.496-0.02-0.738-0.05l-2.038,2.046
	c-0.193,0.194-0.45,0.294-0.709,0.294c-0.18,0-0.362-0.049-0.524-0.148c-0.395-0.243-0.571-0.726-0.425-1.166l0.746-2.25
	C6.907,15.628,6,13.922,6,12c0-3.314,2.686-6,6-6c0.245,0,0.484,0.019,0.721,0.047L14.778,4c0.193-0.192,0.448-0.291,0.706-0.291
	c0.182,0,0.364,0.049,0.527,0.15c0.394,0.245,0.568,0.728,0.421,1.167L15.68,7.268C17.09,8.366,18,10.075,18,12
	C18,15.314,15.314,18,12,18z"/>
<polygon fill="#FCD116" points="16.741,11.031 8.516,19.291 10.635,12.896 7.259,12.896 15.484,4.708 13.365,11.03 16.741,11.03 "/>
<polygon opacity="0.3" fill="#FF8C00" enable-background="new    " points="15,11.031 16.741,11.031 8.516,19.291 "/>
<polygon opacity="0.3" fill="#FF8C00" enable-background="new    " points="15.484,4.708 13.365,11.03 11.833,11.03 "/>
<g>
	<path fill="#7A7A7A" d="M7.567,18.976l0.746-2.25C6.907,15.628,6,13.922,6,12c0-3.314,2.686-6,6-6c0.245,0,0.484,0.019,0.721,0.047
		L14.778,4c0.193-0.192,0.448-0.291,0.706-0.291c0.007,0,0.014,0.003,0.022,0.003C14.428,3.254,13.243,3,12,3c-4.963,0-9,4.037-9,9
		c0,3.426,1.925,6.41,4.75,7.93C7.533,19.67,7.456,19.311,7.567,18.976z"/>
	<path fill="#7A7A7A" d="M16.25,4.07c0.217,0.261,0.294,0.62,0.182,0.956L15.68,7.268C17.09,8.366,18,10.075,18,12
		c0,3.314-2.686,6-6,6c-0.25,0-0.496-0.02-0.738-0.05l-2.038,2.046c-0.193,0.194-0.45,0.294-0.709,0.294
		c-0.008,0-0.016-0.003-0.024-0.003C9.57,20.746,10.756,21,12,21c4.963,0,9-4.037,9-9C21,8.574,19.075,5.591,16.25,4.07z"/>
</g>
</svg>
