<?xml version="1.0" encoding="utf-8"?>
<!-- Generator: Adobe Illustrator 21.1.0, SVG Export Plug-In . SVG Version: 6.00 Build 0)  -->
<!DOCTYPE svg PUBLIC "-//W3C//DTD SVG 1.1//EN" "http://www.w3.org/Graphics/SVG/1.1/DTD/svg11.dtd">
<svg version="1.1" id="Layer_1" xmlns="http://www.w3.org/2000/svg" xmlns:xlink="http://www.w3.org/1999/xlink" x="0px" y="0px"
	 width="24px" height="24px" viewBox="0 0 24 24" enable-background="new 0 0 24 24" xml:space="preserve">
<path fill="#0072C6" d="M1.836,11.765c0.034,0.015,0.071,0.02,0.105,0.033c0.129-0.157,0.243-0.326,0.387-0.47
	c0.565-0.565,1.231-1.014,1.981-1.334C5.076,9.666,5.897,9.5,6.75,9.5c0.438,0,0.87,0.046,1.292,0.136
	c0.427-0.575,0.924-1.083,1.481-1.514c0.65-0.502,1.378-0.899,2.164-1.182C12.5,6.648,13.362,6.5,14.25,6.5
	c0.511,0,1.013,0.052,1.502,0.148c-0.024-0.068-0.036-0.14-0.065-0.206c-0.208-0.487-0.493-0.911-0.855-1.273
	c-0.362-0.362-0.787-0.647-1.273-0.855C13.071,4.104,12.552,4,12,4c-0.239,0-0.482,0.023-0.727,0.07
	c-0.208-0.323-0.449-0.613-0.723-0.871c-0.273-0.258-0.571-0.475-0.895-0.653C9.333,2.37,8.989,2.235,8.625,2.141
	C8.261,2.047,7.885,2,7.5,2C6.922,2,6.376,2.101,5.863,2.305C5.35,2.508,4.896,2.788,4.5,3.145s-0.723,0.78-0.981,1.269
	S3.096,5.432,3.023,6C2.607,6,2.215,6.078,1.847,6.234C1.481,6.39,1.16,6.603,0.887,6.871C0.613,7.139,0.397,7.455,0.238,7.82
	S0,8.578,0,9c0,0.417,0.078,0.806,0.234,1.167c0.157,0.362,0.371,0.68,0.645,0.953C1.153,11.394,1.471,11.609,1.836,11.765z"/>
<path fill="#FFFFFF" d="M7.977,8.273L6.711,7H9c0.492,0,0.884,0.364,0.966,0.833c0.289-0.193,0.588-0.371,0.902-0.525
	C10.585,6.548,9.856,6,9,6H6.711l1.266-1.273L7.273,4.023L4.797,6.5l2.477,2.477L7.977,8.273z"/>
<path fill="#59B4D9" d="M14.25,7.5c-0.772,0-1.521,0.128-2.224,0.382c-0.688,0.247-1.324,0.595-1.891,1.033
	C9.562,9.356,9.063,9.892,8.65,10.509c-0.063,0.094-0.123,0.189-0.181,0.286C7.92,10.599,7.342,10.5,6.75,10.5
	c-0.717,0-1.406,0.139-2.048,0.414c-0.632,0.27-1.192,0.647-1.667,1.121c-0.474,0.474-0.852,1.035-1.121,1.667
	C1.639,14.344,1.5,15.033,1.5,15.75c0,0.717,0.139,1.406,0.414,2.048c0.27,0.632,0.647,1.192,1.121,1.667
	c0.474,0.474,1.035,0.851,1.667,1.121C5.344,20.861,6.033,21,6.75,21H19.5c0.617,0,1.209-0.12,1.759-0.356
	c0.537-0.231,1.016-0.555,1.423-0.962s0.731-0.886,0.962-1.423C23.88,17.709,24,17.117,24,16.5c0-0.637-0.124-1.241-0.368-1.795
	c-0.239-0.542-0.574-1.022-0.997-1.427c-0.416-0.399-0.903-0.714-1.447-0.937c-0.175-0.072-0.354-0.132-0.536-0.181
	c-0.132-0.407-0.302-0.799-0.508-1.173c-0.388-0.701-0.884-1.318-1.475-1.834S17.4,8.229,16.653,7.941
	C15.898,7.648,15.089,7.5,14.25,7.5L14.25,7.5z"/>
</svg>
