<?xml version="1.0" encoding="utf-8"?>
<!-- Generator: Adobe Illustrator 21.1.0, SVG Export Plug-In . SVG Version: 6.00 Build 0)  -->
<svg version="1.1" id="Layer_1" xmlns="http://www.w3.org/2000/svg" xmlns:xlink="http://www.w3.org/1999/xlink" x="0px" y="0px"
	 width="24px" height="24px" viewBox="0 0 24 24" enable-background="new 0 0 24 24" xml:space="preserve">
<g>
	<rect y="1" fill="#3C9BE4" width="17" height="3"/>
</g>
<rect y="4" fill="#0072C6" width="17" height="13"/>
<g>
	<path fill="#F4F4F4" d="M4.5,8.664l1.648-1.641l0.703,0.703L4.5,10.078L3.148,8.727l0.703-0.703L4.5,8.664z M4.5,12.664
		l1.648-1.641l0.703,0.703L4.5,14.078l-1.352-1.352l0.703-0.703L4.5,12.664z M8,8h6v1H8V8z M8,13v-1h6v1H8z"/>
</g>
<g>
	<rect x="18" y="4" fill="#3C9BE4" width="2" height="3"/>
</g>
<polygon fill="#0072C6" points="18,7 18,18 3,18 3,20 20,20 20,7 "/>
<g>
	<rect x="21" y="7" fill="#3C9BE4" width="2" height="3"/>
</g>
<polygon fill="#0072C6" points="21,10 21,21 6,21 6,23 23,23 23,10 "/>
<rect y="1" opacity="0.15" fill="#FFFFFF" enable-background="new    " width="9" height="16"/>
<rect x="3" y="18" opacity="0.15" fill="#FFFFFF" enable-background="new    " width="9" height="2"/>
<rect x="6" y="21" opacity="0.15" fill="#FFFFFF" enable-background="new    " width="9" height="2"/>
</svg>
