<?xml version="1.0" encoding="utf-8"?>
<!-- Generator: Adobe Illustrator 21.1.0, SVG Export Plug-In . SVG Version: 6.00 Build 0)  -->
<svg version="1.1" id="Layer_1" xmlns="http://www.w3.org/2000/svg" xmlns:xlink="http://www.w3.org/1999/xlink" x="0px" y="0px"
	 width="24px" height="24px" viewBox="0 0 24 24" enable-background="new 0 0 24 24" xml:space="preserve">
<g opacity="0.9" enable-background="new    ">
	<path fill="#B8D432" d="M12,0v5c3.866,0,7,3.134,7,7h5C24,5.373,18.627,0,12,0z"/>
</g>
<g>
	<path fill="#7FBA00" d="M12,19c-3.866,0-7-3.134-7-7s3.134-7,7-7V0C5.373,0,0,5.373,0,12s5.373,12,12,12
		c3.314,0,6.314-1.343,8.485-3.515L16.95,16.95C15.683,18.216,13.933,19,12,19z"/>
</g>
<g>
	<path fill="#FCD116" d="M19,12c0,1.933-0.784,3.683-2.05,4.95l3.536,3.536C22.657,18.314,24,15.314,24,12H19z"/>
</g>
<g>
	<g>
		<path fill="#0F0F0F" d="M11.604,16.781v-1.176c-0.676-0.011-1.375-0.222-1.782-0.512l0.279-0.782
			c0.419,0.281,1.025,0.501,1.677,0.501c0.827,0,1.386-0.477,1.386-1.141c0-0.64-0.454-1.037-1.316-1.386
			c-1.188-0.466-1.922-1.002-1.922-2.015c0-0.967,0.687-1.701,1.759-1.876V7.219h0.722v1.13c0.699,0.023,1.177,0.21,1.515,0.408
			L13.63,9.525c-0.245-0.14-0.722-0.396-1.467-0.396c-0.897,0-1.235,0.536-1.235,1.002c0,0.606,0.431,0.909,1.444,1.328
			c1.2,0.489,1.806,1.095,1.806,2.132c0,0.921-0.641,1.782-1.841,1.98v1.211L11.604,16.781L11.604,16.781z"/>
	</g>
</g>
</svg>
