<?xml version="1.0" encoding="utf-8"?>
<!-- Generator: Adobe Illustrator 21.1.0, SVG Export Plug-In . SVG Version: 6.00 Build 0)  -->
<svg version="1.1" id="Layer_1" xmlns="http://www.w3.org/2000/svg" xmlns:xlink="http://www.w3.org/1999/xlink" x="0px" y="0px"
	 width="24px" height="24px" viewBox="0 0 24 24" enable-background="new 0 0 24 24" xml:space="preserve">
<path fill="#59B4D9" d="M23.643,8.73c-0.238-0.547-0.562-1.021-0.973-1.424c-0.411-0.403-0.891-0.721-1.441-0.955S20.09,6,19.465,6
	c-0.109-0.852-0.357-1.645-0.744-2.379c-0.387-0.734-0.877-1.369-1.471-1.904c-0.594-0.535-1.275-0.955-2.045-1.26
	C14.435,0.152,13.617,0,12.75,0c-0.578,0-1.141,0.07-1.688,0.211S10,0.555,9.516,0.82S8.584,1.412,8.174,1.799
	C7.764,2.186,7.402,2.621,7.09,3.105C6.723,3.035,6.359,3,6,3C5.172,3,4.393,3.156,3.662,3.469c-0.731,0.313-1.367,0.74-1.91,1.283
	c-0.543,0.543-0.971,1.18-1.283,1.91C0.157,7.392,0,8.172,0,9s0.156,1.607,0.469,2.338c0.269,0.628,0.64,1.173,1.079,1.662h4.453
	C7.104,13,8,13.896,8,14.999V15h7v-0.001C15,13.896,15.896,13,16.999,13h5.002c0.37,0,0.712,0.108,1.01,0.283
	c0.251-0.315,0.474-0.652,0.638-1.032C23.884,11.708,24,11.125,24,10.5C24,9.867,23.881,9.277,23.643,8.73z"/>
<path fill="#3E3E3E" d="M0,24.001v-9.001C0,14.447,0.447,14,0.999,14h5.001C6.553,14,7,14.447,7,14.999v9.001H0z"/>
<path fill="#3E3E3E" d="M16,24.001v-9.001C16,14.447,16.447,14,16.999,14h5.001C22.553,14,23,14.447,23,14.999v9.001H16z"/>
<rect x="2" y="16" fill="#1E1E1E" width="3" height="1"/>
<rect x="2" y="19" fill="#1E1E1E" width="3" height="1"/>
<rect x="2" y="21" fill="#1E1E1E" width="3" height="1"/>
<rect x="18" y="16" fill="#1E1E1E" width="3" height="1"/>
<rect x="2" y="16" fill="#B8D432" width="1" height="1"/>
<rect x="18" y="16" fill="#B8D432" width="1" height="1"/>
<rect x="18" y="19" fill="#1E1E1E" width="3" height="1"/>
<rect x="18" y="21" fill="#1E1E1E" width="3" height="1"/>
<rect x="11" y="15" fill="#3999C6" width="1" height="5"/>
<path opacity="0.2" fill="#FFFFFF" enable-background="new    " d="M12.75,0c-0.578,0-1.141,0.07-1.688,0.211S10,0.555,9.516,0.82
	S8.584,1.412,8.174,1.799C7.764,2.186,7.402,2.621,7.09,3.105C6.723,3.035,6.359,3,6,3C5.172,3,4.393,3.156,3.662,3.469
	c-0.731,0.313-1.367,0.74-1.91,1.283c-0.543,0.543-0.971,1.18-1.283,1.91C0.157,7.392,0,8.172,0,9s0.156,1.607,0.469,2.338
	c0.269,0.628,0.64,1.173,1.079,1.662h2.497c-0.187-0.41-0.341-0.838-0.435-1.299c-0.166-0.811-0.17-1.606-0.011-2.384
	c0.159-0.778,0.45-1.488,0.873-2.129C4.895,6.547,5.433,6,6.085,5.547c0.653-0.454,1.385-0.763,2.197-0.93
	C8.634,4.545,8.997,4.506,9.37,4.502c0.209-0.537,0.475-1.037,0.799-1.498c0.324-0.461,0.697-0.871,1.118-1.228
	c0.421-0.358,0.885-0.66,1.393-0.908c0.508-0.248,1.044-0.43,1.611-0.546c0.118-0.024,0.236-0.038,0.353-0.056
	C14.041,0.089,13.41,0,12.75,0z"/>
<path fill="#FFFFFF" d="M11.5,8C12.327,8,13,8.673,13,9.5S12.327,11,11.5,11S10,10.327,10,9.5S10.673,8,11.5,8 M11.5,7
	C10.119,7,9,8.119,9,9.5s1.119,2.5,2.5,2.5S14,10.881,14,9.5S12.881,7,11.5,7L11.5,7z"/>
<circle fill="#0072C6" cx="11.5" cy="21.5" r="2.5"/>
<rect x="11" y="11.5" fill="#FFFFFF" width="1" height="3.5"/>
<polygon fill="#FFFFFF" points="16.68,7.175 15.973,7.882 17.091,9 13.396,9 13.396,10 17.08,10 15.96,11.12 16.661,11.833 
	19,9.495 "/>
<polygon fill="#FFFFFF" points="9.688,9 5.909,9 7.027,7.882 6.32,7.175 4,9.495 6.339,11.833 7.04,11.12 5.92,10 9.688,10 "/>
<polygon fill="#FFFFFF" points="13.829,5.32 11.51,3 9.171,5.339 9.884,6.04 10.982,4.941 10.982,7.646 11.982,7.646 11.982,4.887 
	13.122,6.027 "/>
<path fill="#B8D432" d="M11.5,8C12.327,8,13,8.673,13,9.5S12.327,11,11.5,11S10,10.327,10,9.5S10.673,8,11.5,8"/>
</svg>
