<?xml version="1.0" encoding="utf-8"?>
<!-- Generator: Adobe Illustrator 21.1.0, SVG Export Plug-In . SVG Version: 6.00 Build 0)  -->
<!DOCTYPE svg PUBLIC "-//W3C//DTD SVG 1.1//EN" "http://www.w3.org/Graphics/SVG/1.1/DTD/svg11.dtd">
<svg version="1.1" id="Layer_1" xmlns="http://www.w3.org/2000/svg" xmlns:xlink="http://www.w3.org/1999/xlink" x="0px" y="0px"
	 width="24px" height="24px" viewBox="0 0 24 24" enable-background="new 0 0 24 24" xml:space="preserve">
<path fill="#59B4D9" d="M9.5,10C8.672,10,8,10.672,8,11.5S8.672,13,9.5,13s1.5-0.672,1.5-1.5S10.328,10,9.5,10z"/>
<path fill="#59B4D9" d="M13.5,10c-0.828,0-1.5,0.672-1.5,1.5s0.672,1.5,1.5,1.5s1.5-0.672,1.5-1.5S14.328,10,13.5,10z"/>
<path fill="#59B4D9" d="M6,18c-0.552,0-1-0.448-1-1V8h1v9h9v1H6z"/>
<path fill="#59B4D9" d="M17,5c0.552,0,1,0.448,1,1v9h-1V6H8V5H17z"/>
<path fill="#59B4D9" d="M11.5,1C17.29,1,22,5.71,22,11.5S17.29,22,11.5,22S1,17.29,1,11.5S5.71,1,11.5,1 M11.5,0
	C5.149,0,0,5.149,0,11.5S5.149,23,11.5,23S23,17.851,23,11.5S17.851,0,11.5,0L11.5,0z"/>
</svg>
