<?xml version="1.0" encoding="utf-8"?>
<!-- Generator: Adobe Illustrator 21.1.0, SVG Export Plug-In . SVG Version: 6.00 Build 0)  -->
<svg version="1.1" id="Layer_1" xmlns="http://www.w3.org/2000/svg" xmlns:xlink="http://www.w3.org/1999/xlink" x="0px" y="0px"
	 width="24px" height="24px" viewBox="0 0 24 24" enable-background="new 0 0 24 24" xml:space="preserve">
<path fill="#59B4D9" d="M20.599,10.4c0.469,0,0.91,0.086,1.323,0.258s0.773,0.406,1.081,0.7c0.308,0.295,0.55,0.643,0.729,1.044
	C23.911,12.804,24,13.236,24,13.7c0,0.459-0.088,0.887-0.264,1.285c-0.176,0.399-0.417,0.748-0.725,1.048s-0.667,0.537-1.077,0.709
	S21.088,17,20.625,17H10.5c-0.621,0-1.205-0.114-1.753-0.344c-0.548-0.229-1.025-0.542-1.433-0.941
	c-0.408-0.397-0.728-0.865-0.962-1.401C6.118,13.779,6,13.208,6,12.6c0-0.607,0.118-1.178,0.352-1.714
	c0.234-0.535,0.555-1.002,0.962-1.401c0.408-0.397,0.884-0.711,1.433-0.941C9.295,8.315,9.879,8.2,10.5,8.2
	c0.269,0,0.542,0.026,0.817,0.077c0.234-0.354,0.505-0.675,0.813-0.958c0.308-0.284,0.643-0.522,1.006-0.718
	c0.364-0.194,0.75-0.344,1.16-0.447S15.129,6,15.562,6c0.65,0,1.265,0.112,1.841,0.335c0.577,0.223,1.089,0.532,1.534,0.924
	c0.445,0.393,0.813,0.858,1.103,1.396C20.331,9.195,20.516,9.776,20.599,10.4z"/>
<path fill="#A0A1A2" d="M11.453,6.584C11.689,6.366,11.947,6.176,12.214,6H3v1h8.061C11.189,6.858,11.313,6.713,11.453,6.584z"/>
<path fill="#A0A1A2" d="M5.435,10.485C5.51,10.313,5.614,10.161,5.704,10H0v1h5.272C5.326,10.828,5.363,10.651,5.435,10.485z"/>
<path fill="#A0A1A2" d="M5.593,15H1v1h5.253C5.998,15.693,5.777,15.361,5.593,15z"/>
<path opacity="0.2" fill="#FFFFFF" enable-background="new    " d="M8.312,16.298c-0.259-0.592-0.389-1.224-0.389-1.897
	c0-0.671,0.13-1.304,0.389-1.897c0.259-0.592,0.614-1.109,1.065-1.55c0.451-0.44,0.978-0.787,1.585-1.041
	c0.607-0.253,1.253-0.38,1.94-0.38c0.298,0,0.599,0.028,0.904,0.086c0.259-0.392,0.559-0.746,0.899-1.06
	c0.34-0.314,0.711-0.578,1.113-0.794c0.402-0.215,0.83-0.38,1.283-0.494c0.453-0.114,0.92-0.171,1.4-0.171
	c0.085,0,0.164,0.018,0.248,0.022C18.347,6.8,17.904,6.53,17.402,6.335C16.827,6.112,16.213,6,15.562,6
	c-0.434,0-0.856,0.052-1.266,0.155s-0.797,0.252-1.16,0.447c-0.364,0.196-0.699,0.434-1.006,0.718
	c-0.308,0.284-0.579,0.604-0.813,0.958C11.042,8.226,10.769,8.2,10.5,8.2c-0.621,0-1.205,0.115-1.753,0.344
	c-0.548,0.23-1.025,0.544-1.433,0.941c-0.408,0.399-0.728,0.866-0.962,1.401C6.118,11.422,6,11.993,6,12.6
	c0,0.608,0.118,1.179,0.352,1.714c0.234,0.536,0.555,1.003,0.962,1.401c0.319,0.312,0.694,0.556,1.099,0.764
	C8.382,16.417,8.34,16.363,8.312,16.298z"/>
</svg>
