<?xml version="1.0" encoding="utf-8"?>
<!-- Generator: Adobe Illustrator 21.1.0, SVG Export Plug-In . SVG Version: 6.00 Build 0)  -->
<svg version="1.1" id="Layer_1" xmlns="http://www.w3.org/2000/svg" xmlns:xlink="http://www.w3.org/1999/xlink" x="0px" y="0px"
	 width="24px" height="24px" viewBox="0 0 24 24" enable-background="new 0 0 24 24" xml:space="preserve">
<path fill="#FCD116" d="M0,3v18h4v-1v-2.676c-0.648-0.799-1-1.787-1-2.824C3,12.019,5.019,10,7.5,10s4.5,2.019,4.5,4.5
	c0,1.036-0.352,2.024-1,2.824V21h13V3H0z"/>
<g>
	<path fill="#FFFFFF" d="M2,5v14h2v-1.676c-0.648-0.799-1-1.787-1-2.824C3,12.019,5.019,10,7.5,10s4.5,2.019,4.5,4.5
		c0,1.036-0.352,2.024-1,2.824V19h11V5H2z"/>
</g>
<path fill="#DD5900" d="M11,14.5c0-1.933-1.567-3.5-3.5-3.5S4,12.567,4,14.5c0,0.952,0.383,1.813,1,2.444V20v1v0.812l2.5-1.258
	l2.5,1.258v-4.868C10.617,16.313,11,15.452,11,14.5z"/>
<rect x="5" y="8" fill="#7A7A7A" width="14" height="1"/>
<rect x="13" y="11" fill="#7A7A7A" width="6" height="1"/>
<rect x="13" y="14" fill="#7A7A7A" width="6" height="1"/>
<circle fill="#FF8C00" cx="7.5" cy="14.5" r="2.5"/>
</svg>
