<?xml version="1.0" encoding="utf-8"?>
<!-- Generator: Adobe Illustrator 19.2.1, SVG Export Plug-In . SVG Version: 6.00 Build 0)  -->
<svg version="1.1" id="Layer_1" xmlns="http://www.w3.org/2000/svg" xmlns:xlink="http://www.w3.org/1999/xlink" x="0px" y="0px"
	 width="50px" height="50px" viewBox="0 0 50 50" enable-background="new 0 0 50 50" xml:space="preserve">
<rect x="1" fill="#A0A1A2" width="29" height="33"/>
<rect x="3" y="2" opacity="0.8" fill-rule="evenodd" clip-rule="evenodd" fill="#FFFFFF" width="25" height="29"/>
<rect x="20" y="17" fill="#A0A1A2" width="29" height="33"/>
<rect x="22" y="19" opacity="0.8" fill-rule="evenodd" clip-rule="evenodd" fill="#FFFFFF" width="25" height="29"/>
<polygon fill-rule="evenodd" clip-rule="evenodd" fill="#A0A1A2" points="29,32 41.998,32 41.998,34 27,34 "/>
<rect x="30.001" y="36.001" fill-rule="evenodd" clip-rule="evenodd" fill="#A0A1A2" width="11.999" height="2"/>
<polygon fill-rule="evenodd" clip-rule="evenodd" fill="#A0A1A2" points="42,30 32,30 34,28 42,28 "/>
<rect x="26" y="36" fill-rule="evenodd" clip-rule="evenodd" fill="#A0A1A2" width="3" height="3"/>
<rect x="30.001" y="40" fill-rule="evenodd" clip-rule="evenodd" fill="#A0A1A2" width="11.999" height="2"/>
<rect x="8" y="12" fill-rule="evenodd" clip-rule="evenodd" fill="#A0A1A2" width="15" height="2"/>
<rect x="8" y="20" fill-rule="evenodd" clip-rule="evenodd" fill="#A0A1A2" width="9.999" height="2"/>
<rect x="8" y="16" fill-rule="evenodd" clip-rule="evenodd" fill="#A0A1A2" width="9.999" height="2"/>
<rect x="8" y="8" fill-rule="evenodd" clip-rule="evenodd" fill="#A0A1A2" width="15" height="2"/>
<rect x="26" y="40" fill-rule="evenodd" clip-rule="evenodd" fill="#A0A1A2" width="3" height="3"/>
<polygon fill-rule="evenodd" clip-rule="evenodd" fill="#0072C6" points="32.5,26.5 27,22 27,25 12.002,25 12.002,28 27,28 27,31 "/>
</svg>
