<?xml version="1.0" encoding="utf-8"?>
<!-- Generator: Adobe Illustrator 21.1.0, SVG Export Plug-In . SVG Version: 6.00 Build 0)  -->
<svg version="1.1" id="Layer_1" xmlns="http://www.w3.org/2000/svg" xmlns:xlink="http://www.w3.org/1999/xlink" x="0px" y="0px"
	 width="24px" height="24px" viewBox="0 0 24 24" enable-background="new 0 0 24 24" xml:space="preserve">
<g>
	<circle fill="#FFFFFF" cx="12" cy="12" r="11.5"/>
</g>
<path fill="#59B4D9" d="M12,1c6.065,0,11,4.935,11,11s-4.935,11-11,11S1,18.065,1,12S5.935,1,12,1 M12,0C5.373,0,0,5.373,0,12
	s5.373,12,12,12s12-5.373,12-12S18.627,0,12,0L12,0z"/>
<rect x="11" y="4" fill="#1E1E1E" width="1" height="9"/>
<rect x="12" y="12" fill="#1E1E1E" width="5" height="1"/>
<g>
	<path fill="#A0A1A2" d="M16.057,20.026l0.751,1.301c0.297-0.153,0.585-0.32,0.865-0.501l-0.749-1.298
		C16.646,19.711,16.355,19.875,16.057,20.026z"/>
	<path fill="#A0A1A2" d="M12,21c-0.169,0-0.333-0.016-0.5-0.025v1.5c0.167,0.008,0.331,0.025,0.5,0.025s0.333-0.017,0.5-0.025v-1.5
		C12.333,20.984,12.169,21,12,21z"/>
	<path fill="#A0A1A2" d="M22.475,12.5c0.008-0.167,0.025-0.331,0.025-0.5s-0.017-0.333-0.025-0.5h-1.5
		C20.984,11.667,21,11.831,21,12s-0.016,0.333-0.025,0.5H22.475z"/>
	<path fill="#A0A1A2" d="M20.026,7.944l1.301-0.751c-0.154-0.297-0.321-0.586-0.501-0.866l-1.298,0.749
		C19.711,7.354,19.875,7.645,20.026,7.944z"/>
	<path fill="#A0A1A2" d="M7.943,3.974L7.192,2.673c-0.297,0.153-0.585,0.32-0.865,0.501l0.749,1.298
		C7.354,4.289,7.645,4.125,7.943,3.974z"/>
	<path fill="#A0A1A2" d="M7.076,19.529l-0.749,1.298c0.28,0.18,0.568,0.347,0.865,0.501l0.751-1.301
		C7.645,19.875,7.354,19.711,7.076,19.529z"/>
	<path fill="#A0A1A2" d="M12,3c0.169,0,0.333,0.016,0.5,0.025v-1.5C12.333,1.517,12.169,1.5,12,1.5s-0.333,0.017-0.5,0.025v1.5
		C11.667,3.016,11.831,3,12,3z"/>
	<path fill="#A0A1A2" d="M1.525,11.5C1.517,11.667,1.5,11.831,1.5,12s0.017,0.333,0.025,0.5h1.5C3.016,12.333,3,12.169,3,12
		s0.016-0.333,0.025-0.5H1.525z"/>
	<path fill="#A0A1A2" d="M20.026,16.057c-0.151,0.298-0.315,0.589-0.497,0.867l1.298,0.749c0.18-0.28,0.347-0.568,0.501-0.865
		L20.026,16.057z"/>
	<path fill="#A0A1A2" d="M3.974,16.057l-1.301,0.751c0.153,0.297,0.321,0.585,0.501,0.865l1.298-0.749
		C4.289,16.646,4.125,16.355,3.974,16.057z"/>
	<path fill="#A0A1A2" d="M16.808,2.673l-0.751,1.301c0.298,0.151,0.589,0.315,0.867,0.497l0.749-1.298
		C17.393,2.993,17.105,2.826,16.808,2.673z"/>
	<path fill="#A0A1A2" d="M3.974,7.944c0.151-0.299,0.315-0.589,0.498-0.867L3.173,6.327c-0.18,0.28-0.347,0.568-0.501,0.866
		L3.974,7.944z"/>
</g>
</svg>
