<?xml version="1.0" encoding="utf-8"?>
<!-- Generator: Adobe Illustrator 21.1.0, SVG Export Plug-In . SVG Version: 6.00 Build 0)  -->
<!DOCTYPE svg PUBLIC "-//W3C//DTD SVG 1.1//EN" "http://www.w3.org/Graphics/SVG/1.1/DTD/svg11.dtd">
<svg version="1.1" id="Layer_1" xmlns="http://www.w3.org/2000/svg" xmlns:xlink="http://www.w3.org/1999/xlink" x="0px" y="0px"
	 width="24px" height="24px" viewBox="0 0 24 24" enable-background="new 0 0 24 24" xml:space="preserve">
<path fill="#59B4D9" d="M23.643,12.73c-0.238-0.547-0.562-1.021-0.973-1.424s-0.891-0.721-1.441-0.955S20.09,10,19.465,10
	c-0.109-0.852-0.357-1.645-0.744-2.379c-0.387-0.734-0.877-1.369-1.471-1.904s-1.275-0.955-2.045-1.26
	C14.435,4.152,13.617,4,12.75,4c-0.578,0-1.141,0.07-1.688,0.211C10.515,4.352,10,4.555,9.516,4.82
	C9.032,5.085,8.584,5.412,8.174,5.799S7.402,6.621,7.09,7.105C6.723,7.035,6.359,7,6,7C5.172,7,4.393,7.156,3.662,7.469
	c-0.731,0.313-1.367,0.74-1.91,1.283s-0.971,1.18-1.283,1.91S0,12.172,0,13s0.156,1.607,0.469,2.338s0.74,1.367,1.283,1.91
	c0.543,0.543,1.18,0.971,1.91,1.283S5.172,19,6,19h13.5c0.617,0,1.199-0.117,1.746-0.352s1.025-0.557,1.436-0.967
	s0.732-0.887,0.967-1.43C23.884,15.708,24,15.125,24,14.5C24,13.867,23.881,13.277,23.643,12.73z"/>
<path opacity="0.2" fill="#FFFFFF" enable-background="new    " d="M4.539,17.897c-0.453-0.653-0.763-1.385-0.929-2.196
	c-0.166-0.811-0.17-1.606-0.011-2.384c0.159-0.778,0.45-1.488,0.873-2.129S5.433,10,6.085,9.547c0.653-0.454,1.385-0.763,2.197-0.93
	C8.634,8.545,8.997,8.506,9.37,8.502c0.209-0.537,0.475-1.037,0.799-1.498c0.324-0.461,0.697-0.871,1.118-1.228
	c0.421-0.358,0.885-0.66,1.393-0.908c0.508-0.248,1.044-0.43,1.611-0.546c0.118-0.024,0.236-0.038,0.353-0.056
	C14.041,4.089,13.41,4,12.75,4c-0.578,0-1.141,0.07-1.688,0.211C10.515,4.352,10,4.555,9.516,4.82
	C9.032,5.085,8.584,5.412,8.174,5.799S7.402,6.621,7.09,7.105C6.723,7.035,6.359,7,6,7C5.172,7,4.393,7.156,3.662,7.469
	c-0.731,0.313-1.367,0.74-1.91,1.283s-0.971,1.18-1.283,1.91S0,12.172,0,13s0.156,1.607,0.469,2.338s0.74,1.367,1.283,1.91
	c0.543,0.543,1.18,0.971,1.91,1.283c0.587,0.251,1.208,0.397,1.859,0.446C5.161,18.657,4.824,18.308,4.539,17.897z"/>
<path fill="#FFFFFF" d="M11.094,10.32l0.938-0.547C12.016,9.68,12.008,9.589,12.008,9.5c0-0.088,0.008-0.18,0.023-0.273L11.094,8.68
	l0.5-0.859l0.945,0.539c0.073-0.057,0.147-0.108,0.223-0.152c0.076-0.044,0.158-0.082,0.246-0.113V7h1v1.094
	c0.162,0.058,0.318,0.146,0.469,0.266l0.945-0.539l0.5,0.859l-0.938,0.547C15,9.32,15.008,9.412,15.008,9.5
	c0,0.089-0.008,0.18-0.023,0.273l0.938,0.547l-0.5,0.859l-0.945-0.539c-0.151,0.12-0.307,0.208-0.469,0.266V12h-1v-1.094
	c-0.088-0.031-0.17-0.069-0.246-0.113c-0.075-0.044-0.149-0.095-0.223-0.152l-0.945,0.539L11.094,10.32z"/>
<path fill="#B8D432" d="M14.039,10.031c0.146-0.146,0.219-0.323,0.219-0.531c0-0.208-0.073-0.385-0.219-0.531
	c-0.146-0.146-0.323-0.219-0.531-0.219c-0.208,0-0.385,0.073-0.531,0.219c-0.146,0.146-0.219,0.323-0.219,0.531
	c0,0.208,0.073,0.386,0.219,0.531c0.146,0.146,0.323,0.219,0.531,0.219C13.716,10.25,13.894,10.177,14.039,10.031z"/>
<path fill="#FFFFFF" d="M5.086,12.625l0.383-0.93l0.969,0.406c0.183-0.266,0.406-0.489,0.672-0.672l-0.406-0.969l0.93-0.383
	l0.398,0.969C8.188,11.016,8.347,11,8.508,11c0.162,0,0.32,0.016,0.477,0.047l0.398-0.969l0.93,0.383L9.906,11.43
	c0.266,0.183,0.49,0.406,0.672,0.672l0.969-0.406l0.383,0.93l-0.969,0.398c0.031,0.156,0.047,0.315,0.047,0.477
	s-0.016,0.32-0.047,0.477l0.969,0.398l-0.383,0.93l-0.969-0.406c-0.182,0.266-0.406,0.489-0.672,0.672l0.406,0.969l-0.93,0.383
	l-0.398-0.969C8.828,15.984,8.67,16,8.508,16c-0.161,0-0.32-0.016-0.477-0.047l-0.398,0.969l-0.93-0.383l0.406-0.969
	c-0.266-0.183-0.489-0.406-0.672-0.672l-0.969,0.406l-0.383-0.93l0.969-0.398C6.023,13.82,6.008,13.661,6.008,13.5
	s0.016-0.32,0.047-0.477L5.086,12.625z"/>
<path fill="#B8D432" d="M9.094,14.883c0.183-0.078,0.342-0.185,0.477-0.32c0.136-0.136,0.242-0.294,0.32-0.477
	s0.117-0.378,0.117-0.586s-0.039-0.403-0.117-0.586c-0.078-0.182-0.185-0.341-0.32-0.477c-0.135-0.135-0.294-0.242-0.477-0.32
	C8.912,12.039,8.717,12,8.508,12c-0.208,0-0.403,0.039-0.586,0.117c-0.182,0.078-0.341,0.186-0.477,0.32
	c-0.135,0.136-0.242,0.295-0.32,0.477c-0.078,0.183-0.117,0.378-0.117,0.586s0.039,0.403,0.117,0.586s0.186,0.341,0.32,0.477
	c0.136,0.136,0.295,0.242,0.477,0.32C8.104,14.961,8.3,15,8.508,15C8.717,15,8.912,14.961,9.094,14.883z"/>
</svg>
