<?xml version="1.0" encoding="utf-8"?>
<!-- Generator: Adobe Illustrator 21.1.0, SVG Export Plug-In . SVG Version: 6.00 Build 0)  -->
<svg version="1.1" id="Layer_1" xmlns="http://www.w3.org/2000/svg" xmlns:xlink="http://www.w3.org/1999/xlink" x="0px" y="0px"
	 width="24px" height="24px" viewBox="0 0 24 24" enable-background="new 0 0 24 24" xml:space="preserve">
<path fill="#0072C6" d="M8.459,16.462c0.458-0.454,0.991-0.812,1.589-1.068c0.689-0.296,1.437-0.428,2.216-0.386
	c0.156-0.193,0.324-0.373,0.501-0.539c0.324-0.307,0.693-0.576,1.092-0.798c0.408-0.221,0.832-0.388,1.268-0.5
	c1.101-0.281,2.332-0.211,3.38,0.204c0.551,0.218,1.047,0.528,1.495,0.899V3H0v15h7.42C7.675,17.42,8.022,16.902,8.459,16.462z"/>
<path fill="#59B4D9" d="M20.977,18c0.417,0,0.809,0.078,1.176,0.235c0.367,0.156,0.687,0.369,0.961,0.636
	c0.274,0.268,0.489,0.585,0.648,0.949C23.921,20.185,24,20.578,24,21c0,0.417-0.078,0.806-0.235,1.168
	c-0.156,0.363-0.371,0.68-0.644,0.953c-0.274,0.273-0.593,0.488-0.957,0.645S21.412,24,21,24h-9c-0.552,0-1.071-0.104-1.558-0.313
	c-0.487-0.208-0.911-0.493-1.274-0.855c-0.363-0.361-0.647-0.786-0.855-1.274C8.105,21.072,8,20.553,8,20
	c0-0.552,0.105-1.071,0.313-1.558c0.208-0.486,0.493-0.911,0.855-1.274c0.363-0.361,0.786-0.646,1.274-0.855
	C10.929,16.105,11.448,16,12,16c0.239,0,0.482,0.024,0.726,0.07c0.208-0.322,0.449-0.614,0.723-0.871
	c0.274-0.258,0.572-0.475,0.894-0.653c0.324-0.176,0.667-0.313,1.031-0.406S16.115,14,16.5,14c0.578,0,1.124,0.102,1.636,0.305
	c0.513,0.203,0.968,0.484,1.364,0.84c0.396,0.357,0.723,0.78,0.98,1.269C20.739,16.905,20.903,17.433,20.977,18z"/>
<path opacity="0.2" fill="#FFFFFF" enable-background="new    " d="M10.055,23.362c-0.23-0.538-0.346-1.113-0.346-1.725
	c0-0.61,0.116-1.185,0.346-1.725c0.23-0.538,0.546-1.008,0.947-1.409c0.401-0.4,0.869-0.715,1.409-0.946
	c0.54-0.23,1.114-0.345,1.724-0.345c0.265,0,0.532,0.025,0.804,0.078c0.23-0.356,0.497-0.678,0.799-0.964
	c0.302-0.285,0.632-0.525,0.989-0.722c0.357-0.195,0.738-0.345,1.14-0.449C18.27,15.052,18.685,15,19.112,15
	c0.076,0,0.146,0.016,0.22,0.02c-0.357-0.293-0.751-0.538-1.197-0.715C17.624,14.102,17.078,14,16.5,14
	c-0.386,0-0.761,0.047-1.125,0.141c-0.364,0.094-0.708,0.229-1.031,0.406c-0.324,0.178-0.621,0.395-0.894,0.653
	c-0.274,0.258-0.515,0.549-0.723,0.871C12.482,16.024,12.239,16,12,16c-0.552,0-1.071,0.105-1.558,0.313
	c-0.487,0.209-0.911,0.495-1.274,0.855c-0.363,0.363-0.647,0.787-0.855,1.274C8.105,18.929,8,19.448,8,20
	c0,0.553,0.105,1.072,0.313,1.558c0.208,0.487,0.493,0.912,0.855,1.274c0.284,0.284,0.617,0.505,0.977,0.695
	C10.117,23.47,10.08,23.421,10.055,23.362z"/>
<polygon opacity="0.15" fill="#FFFFFF" enable-background="new    " points="4,18 0,18 0,3 15,3 "/>
<rect fill="#A0A1A2" width="20" height="3"/>
<rect x="6" y="11" fill="#FFFFFF" width="5" height="1"/>
<polygon fill="#FFFFFF" points="3.289,11.406 7.359,8.5 3.289,5.594 2.711,6.406 5.641,8.5 2.711,10.594 "/>
</svg>
