<?xml version="1.0" encoding="utf-8"?>
<!-- Generator: Adobe Illustrator 21.1.0, SVG Export Plug-In . SVG Version: 6.00 Build 0)  -->
<svg version="1.1" id="Layer_1" xmlns="http://www.w3.org/2000/svg" xmlns:xlink="http://www.w3.org/1999/xlink" x="0px" y="0px"
	 width="24px" height="24px" viewBox="0 0 24 24" enable-background="new 0 0 24 24" xml:space="preserve">
<path fill="#0072C6" d="M23.643,12.73c-0.238-0.547-0.562-1.021-0.973-1.424s-0.891-0.721-1.441-0.955S20.09,10,19.465,10
	c-0.109-0.852-0.357-1.645-0.744-2.379c-0.387-0.734-0.877-1.369-1.471-1.904s-1.275-0.955-2.045-1.26
	C14.435,4.152,13.617,4,12.75,4c-0.578,0-1.141,0.07-1.688,0.211C10.515,4.352,10,4.555,9.516,4.82
	C9.032,5.085,8.584,5.412,8.174,5.799S7.402,6.621,7.09,7.105C6.723,7.035,6.359,7,6,7C5.172,7,4.393,7.156,3.662,7.469
	c-0.731,0.313-1.367,0.74-1.91,1.283s-0.971,1.18-1.283,1.91S0,12.172,0,13s0.156,1.607,0.469,2.338s0.74,1.367,1.283,1.91
	c0.543,0.543,1.18,0.971,1.91,1.283S5.172,19,6,19h13.5c0.617,0,1.199-0.117,1.746-0.352s1.025-0.557,1.436-0.967
	s0.732-0.887,0.967-1.43C23.884,15.708,24,15.125,24,14.5C24,13.867,23.881,13.277,23.643,12.73z"/>
<path opacity="0.2" fill="#FFFFFF" enable-background="new    " d="M4.539,17.897c-0.453-0.653-0.763-1.385-0.929-2.196
	c-0.166-0.811-0.17-1.606-0.011-2.384c0.159-0.778,0.45-1.488,0.873-2.129S5.433,10,6.085,9.547c0.653-0.454,1.385-0.763,2.197-0.93
	C8.634,8.545,8.997,8.506,9.37,8.502c0.209-0.537,0.475-1.037,0.799-1.498c0.324-0.461,0.697-0.871,1.118-1.228
	c0.421-0.358,0.885-0.66,1.393-0.908c0.508-0.248,1.044-0.43,1.611-0.546c0.118-0.024,0.236-0.038,0.353-0.056
	C14.041,4.089,13.41,4,12.75,4c-0.578,0-1.141,0.07-1.688,0.211C10.515,4.352,10,4.555,9.516,4.82
	C9.032,5.085,8.584,5.412,8.174,5.799S7.402,6.621,7.09,7.105C6.723,7.035,6.359,7,6,7C5.172,7,4.393,7.156,3.662,7.469
	c-0.731,0.313-1.367,0.74-1.91,1.283s-0.971,1.18-1.283,1.91S0,12.172,0,13s0.156,1.607,0.469,2.338s0.74,1.367,1.283,1.91
	c0.543,0.543,1.18,0.971,1.91,1.283c0.587,0.251,1.208,0.397,1.859,0.446C5.161,18.657,4.824,18.308,4.539,17.897z"/>
<path fill="#FFFFFF" d="M21,14.5c0-0.828-0.672-1.5-1.5-1.5c-0.652,0-1.202,0.419-1.408,1H16.5c-0.828,0-1.499,0.671-1.499,1.499
	L15,15.5V19h1v-3.5l0.001-0.001c0-0.275,0.224-0.499,0.499-0.499h1.592c0.207,0.581,0.756,1,1.408,1C20.328,16,21,15.328,21,14.5z
	 M19,14.5c0-0.276,0.224-0.5,0.5-0.5s0.5,0.224,0.5,0.5S19.776,15,19.5,15S19,14.776,19,14.5z"/>
<path fill="#FFFFFF" d="M12.001,12.499L12.001,12.499L12,14.092c-0.581,0.207-1,0.756-1,1.408c0,0.828,0.672,1.5,1.5,1.5
	s1.5-0.672,1.5-1.5c0-0.652-0.419-1.202-1-1.408V12.5l0.001-0.001c0-0.275,0.224-0.499,0.499-0.499h2
	c0.828,0,1.499-0.671,1.499-1.499L17,10.5V5.53c-0.311-0.255-0.644-0.48-1-0.676V10.5l-0.001,0.001c0,0.275-0.224,0.499-0.499,0.499
	h-2C12.672,11,12.001,11.671,12.001,12.499z M12.5,16c-0.276,0-0.5-0.224-0.5-0.5s0.224-0.5,0.5-0.5s0.5,0.224,0.5,0.5
	S12.776,16,12.5,16z"/>
<path fill="#FFFFFF" d="M8,19h1V9.5l0.001-0.001C9.001,9.224,9.225,9,9.5,9h1.592c0.207,0.581,0.756,1,1.408,1
	c0.828,0,1.5-0.672,1.5-1.5S13.328,7,12.5,7c-0.652,0-1.202,0.419-1.408,1H9.5C8.672,8,8.001,8.671,8.001,9.499L8,9.5V15H5.5
	l-0.001-0.001C5.224,14.999,5,14.775,5,14.5v-0.592c0.581-0.207,1-0.756,1-1.408C6,11.672,5.328,11,4.5,11S3,11.672,3,12.5
	c0,0.652,0.419,1.202,1,1.408V14.5c0,0.828,0.671,1.499,1.499,1.499L5.5,16H8V19z M12.5,8C12.776,8,13,8.224,13,8.5S12.776,9,12.5,9
	S12,8.776,12,8.5S12.224,8,12.5,8z M4.5,13C4.224,13,4,12.776,4,12.5S4.224,12,4.5,12S5,12.224,5,12.5S4.776,13,4.5,13z"/>
</svg>
