<?xml version="1.0" encoding="utf-8"?>
<!-- Generator: Adobe Illustrator 21.1.0, SVG Export Plug-In . SVG Version: 6.00 Build 0)  -->
<svg version="1.1" id="Layer_1" xmlns="http://www.w3.org/2000/svg" xmlns:xlink="http://www.w3.org/1999/xlink" x="0px" y="0px"
	 width="24px" height="24px" viewBox="0 0 24 24" enable-background="new 0 0 24 24" xml:space="preserve">
<polygon fill="#4A9F49" points="7.008,10.711 7.711,10.008 12.203,14.5 7.68,19.023 6.977,18.32 10.797,14.5 "/>
<polygon fill="#7FBA00" points="17.008,5.695 13.203,9.5 17.023,13.32 16.32,14.023 11.797,9.5 16.305,4.992 "/>
<path fill="#0072C6" d="M12,1c6.065,0,11,4.935,11,11s-4.935,11-11,11S1,18.065,1,12S5.935,1,12,1 M12,0C5.373,0,0,5.373,0,12
	s5.373,12,12,12s12-5.373,12-12S18.627,0,12,0L12,0z"/>
</svg>
