<?xml version="1.0" encoding="utf-8"?>
<!-- Generator: Adobe Illustrator 21.1.0, SVG Export Plug-In . SVG Version: 6.00 Build 0)  -->
<svg version="1.1" id="Layer_1" xmlns="http://www.w3.org/2000/svg" xmlns:xlink="http://www.w3.org/1999/xlink" x="0px" y="0px"
	 width="24px" height="24px" viewBox="0 0 24 24" enable-background="new 0 0 24 24" xml:space="preserve">
<rect x="6" y="1" fill="#68217A" width="11" height="10"/>
<rect y="12" fill="#68217A" width="11" height="10"/>
<path opacity="0.3" fill="#FFFFFF" d="M1,13v8h9v-8H1z M2,20v-6h1v6H2z M4,20v-6h1v6H4z M6,20v-6h1v6H6z M9,20H8v-6h1V20z"/>
<path opacity="0.3" fill="#FFFFFF" d="M7,2v8h9V2H7z M8,9V3h1v6H8z M10,9V3h1v6H10z M12,9V3h1v6H12z M15,9h-1V3h1V9z"/>
<rect x="12" y="12" fill="#68217A" width="11" height="10"/>
<path opacity="0.3" fill="#FFFFFF" d="M13,13v8h9v-8H13z M14,20v-6h1v6H14z M16,20v-6h1v6H16z M18,20v-6h1v6H18z M21,20h-1v-6h1V20z
	"/>
<rect x="6" y="1" opacity="0.15" fill="#FFFFFF" width="6" height="10"/>
<rect y="12" opacity="0.15" fill="#FFFFFF" width="6" height="10"/>
<rect x="12" y="12" opacity="0.15" fill="#FFFFFF" width="6" height="10"/>
</svg>
