<?xml version="1.0" encoding="utf-8"?>
<!-- Generator: Adobe Illustrator 21.1.0, SVG Export Plug-In . SVG Version: 6.00 Build 0)  -->
<svg version="1.1" id="Layer_1" xmlns="http://www.w3.org/2000/svg" xmlns:xlink="http://www.w3.org/1999/xlink" x="0px" y="0px"
	 width="24px" height="24px" viewBox="0 0 24 24" enable-background="new 0 0 24 24" xml:space="preserve">
<path fill="#59B4D9" d="M12,13h11.24c0.157-0.234,0.294-0.483,0.409-0.749C23.884,11.708,24,11.125,24,10.5
	c0-0.633-0.119-1.223-0.357-1.77s-0.562-1.021-0.973-1.424c-0.411-0.403-0.891-0.721-1.441-0.955S20.09,6,19.465,6
	c-0.109-0.852-0.357-1.645-0.744-2.379c-0.387-0.734-0.877-1.369-1.471-1.904c-0.594-0.535-1.275-0.955-2.045-1.26
	C14.435,0.152,13.617,0,12.75,0c-0.578,0-1.141,0.07-1.688,0.211S10,0.555,9.516,0.82S8.584,1.412,8.174,1.799
	C7.764,2.186,7.402,2.621,7.09,3.105C6.723,3.035,6.359,3,6,3C5.172,3,4.393,3.156,3.662,3.469c-0.731,0.313-1.367,0.74-1.91,1.283
	c-0.543,0.543-0.971,1.18-1.283,1.91C0.157,7.392,0,8.172,0,9s0.156,1.607,0.469,2.338c0.313,0.731,0.74,1.367,1.283,1.91
	c0.543,0.543,1.18,0.971,1.91,1.283C4.392,14.843,5.172,15,6,15h6V13z"/>
<path opacity="0.2" fill="#FFFFFF" enable-background="new    " d="M4.539,13.897c-0.453-0.653-0.763-1.385-0.929-2.196
	s-0.17-1.606-0.011-2.384c0.159-0.778,0.45-1.488,0.873-2.129S5.433,6,6.085,5.547c0.653-0.454,1.385-0.763,2.197-0.93
	C8.634,4.545,8.997,4.506,9.37,4.502c0.209-0.537,0.475-1.037,0.799-1.498c0.324-0.461,0.697-0.871,1.118-1.228
	c0.421-0.358,0.885-0.66,1.393-0.908c0.508-0.248,1.044-0.43,1.611-0.546c0.118-0.024,0.236-0.038,0.353-0.056
	C14.041,0.089,13.41,0,12.75,0c-0.578,0-1.141,0.07-1.688,0.211S10,0.555,9.516,0.82S8.584,1.412,8.174,1.799
	S7.402,2.621,7.09,3.105C6.723,3.035,6.359,3,6,3C5.172,3,4.393,3.156,3.662,3.469s-1.367,0.74-1.91,1.283s-0.971,1.18-1.283,1.91
	S0,8.172,0,9s0.156,1.607,0.469,2.338s0.74,1.367,1.283,1.91s1.18,0.971,1.91,1.283c0.587,0.251,1.208,0.397,1.859,0.446
	C5.161,14.657,4.824,14.308,4.539,13.897z"/>
<rect x="13" y="14" fill="#68217A" width="11" height="10"/>
<path opacity="0.3" fill="#FFFFFF" d="M14,15v8h9v-8H14z M15,22v-6h1v6H15z M17,22v-6h1v6H17z M19,22v-6h1v6H19z M22,22h-1v-6h1V22z
	"/>
<rect x="13" y="14" opacity="0.15" fill="#FFFFFF" width="6" height="10"/>
<rect x="5" y="17" fill="#68217A" width="7" height="7"/>
<path opacity="0.3" fill="#FFFFFF" d="M11,18H6v5h5V18z M7,22v-3h1v3H7z M9,22v-3h1v3H9z"/>
<rect x="5" y="17" opacity="0.15" fill="#FFFFFF" width="4" height="7"/>
</svg>
