<?xml version="1.0" encoding="utf-8"?>
<!-- Generator: Adobe Illustrator 21.1.0, SVG Export Plug-In . SVG Version: 6.00 Build 0)  -->
<svg version="1.1" id="Layer_1" xmlns="http://www.w3.org/2000/svg" xmlns:xlink="http://www.w3.org/1999/xlink" x="0px" y="0px"
	 width="24px" height="24px" viewBox="0 0 24 24" enable-background="new 0 0 24 24" xml:space="preserve">
<path opacity="0.2" fill="#FFFFFF" enable-background="new    " d="M4.539,13.897c-0.453-0.653-0.763-1.385-0.929-2.196
	s-0.17-1.606-0.011-2.384c0.159-0.778,0.45-1.488,0.873-2.129S5.433,6,6.085,5.547c0.653-0.454,1.385-0.763,2.197-0.93
	C8.634,4.545,8.997,4.506,9.37,4.502c0.209-0.537,0.475-1.037,0.799-1.498c0.324-0.461,0.697-0.871,1.118-1.228
	c0.421-0.358,0.885-0.66,1.393-0.908c0.508-0.248,1.044-0.43,1.611-0.546c0.118-0.024,0.236-0.038,0.353-0.056
	C14.041,0.089,13.41,0,12.75,0c-0.578,0-1.141,0.07-1.688,0.211S10,0.555,9.516,0.82S8.584,1.412,8.174,1.799
	S7.402,2.621,7.09,3.105C6.723,3.035,6.359,3,6,3C5.172,3,4.393,3.156,3.662,3.469s-1.367,0.74-1.91,1.283s-0.971,1.18-1.283,1.91
	S0,8.172,0,9s0.156,1.607,0.469,2.338s0.74,1.367,1.283,1.91s1.18,0.971,1.91,1.283c0.587,0.251,1.208,0.397,1.859,0.446
	C5.161,14.657,4.824,14.308,4.539,13.897z"/>
<path fill="#FCD116" d="M11.5,8c0.505,0,0.992,0.065,1.461,0.195c0.469,0.13,0.907,0.315,1.316,0.555
	c0.409,0.24,0.78,0.526,1.113,0.859s0.62,0.705,0.859,1.113c0.239,0.409,0.425,0.848,0.555,1.316S17,12.995,17,13.5
	c0,0.756-0.144,1.456-0.43,2.102c-0.286,0.646-0.695,1.232-1.227,1.758c-0.433,0.428-0.765,0.904-0.996,1.43
	C14.116,19.315,14,19.886,14,20.5v2c0,0.209-0.039,0.404-0.117,0.586c-0.078,0.183-0.185,0.342-0.32,0.477
	c-0.136,0.136-0.294,0.242-0.477,0.32S12.708,24,12.5,24h-2c-0.208,0-0.403-0.039-0.586-0.117s-0.341-0.185-0.477-0.32
	c-0.136-0.135-0.242-0.294-0.32-0.477C9.039,22.904,9,22.709,9,22.5v-2c0-0.614-0.116-1.185-0.348-1.711
	c-0.231-0.525-0.563-1.002-0.996-1.43c-0.531-0.525-0.94-1.111-1.227-1.758C6.144,14.956,6,14.256,6,13.5
	c0-0.505,0.065-0.992,0.195-1.461s0.315-0.907,0.555-1.316c0.239-0.409,0.526-0.78,0.859-1.113c0.333-0.334,0.704-0.62,1.114-0.86
	c0.409-0.239,0.848-0.424,1.316-0.555C10.508,8.065,10.995,8,11.5,8z"/>
<path fill="#59B4D9" d="M23.643,8.73c-0.238-0.547-0.562-1.021-0.973-1.424s-0.891-0.721-1.441-0.955S20.09,6,19.465,6
	c-0.109-0.852-0.357-1.645-0.744-2.379s-0.877-1.369-1.471-1.904s-1.275-0.955-2.045-1.26C14.435,0.152,13.617,0,12.75,0
	c-0.578,0-1.141,0.07-1.688,0.211S10,0.555,9.516,0.82S8.584,1.412,8.174,1.799S7.402,2.621,7.09,3.105C6.723,3.035,6.359,3,6,3
	C5.172,3,4.393,3.156,3.662,3.469s-1.367,0.74-1.91,1.283s-0.971,1.18-1.283,1.91S0,8.172,0,9s0.156,1.607,0.469,2.338
	s0.74,1.367,1.283,1.91s1.18,0.971,1.91,1.283c0.479,0.205,0.982,0.336,1.504,0.407C5.059,14.475,5,13.996,5,13.5
	c0-0.593,0.078-1.175,0.231-1.728c0.153-0.552,0.375-1.075,0.657-1.556c0.278-0.477,0.62-0.919,1.014-1.313
	c0.389-0.39,0.832-0.732,1.316-1.016C8.699,7.606,9.22,7.386,9.769,7.232c1.113-0.308,2.353-0.307,3.458-0.001
	c0.553,0.154,1.075,0.375,1.556,0.657c0.482,0.284,0.925,0.625,1.313,1.014c0.392,0.392,0.733,0.834,1.015,1.314
	c0.283,0.484,0.504,1.007,0.656,1.555C17.922,12.327,18,12.908,18,13.5c0,0.519-0.066,1.018-0.182,1.5H19.5
	c0.617,0,1.199-0.117,1.746-0.352c0.547-0.235,1.025-0.557,1.436-0.967c0.411-0.41,0.732-0.887,0.967-1.43
	C23.884,11.708,24,11.125,24,10.5C24,9.867,23.881,9.277,23.643,8.73z"/>
<path opacity="0.2" fill="#FFFFFF" enable-background="new    " d="M11.498,23.961c-0.074-0.198-0.111-0.411-0.111-0.639V21.14
	c0-0.67-0.11-1.293-0.329-1.867c-0.219-0.573-0.533-1.093-0.943-1.56c-0.503-0.573-0.89-1.213-1.161-1.918
	c-0.271-0.704-0.407-1.468-0.407-2.293c0-0.551,0.062-1.083,0.185-1.594s0.299-0.99,0.525-1.436s0.498-0.851,0.813-1.215
	c0.315-0.363,0.666-0.676,1.054-0.938c0.172-0.116,0.351-0.215,0.534-0.308C11.605,8.009,11.554,8,11.5,8
	c-0.505,0-0.992,0.065-1.461,0.195C9.57,8.326,9.132,8.511,8.723,8.75C8.314,8.99,7.943,9.276,7.61,9.609s-0.62,0.705-0.859,1.113
	c-0.239,0.409-0.425,0.848-0.555,1.316S6,12.995,6,13.5c0,0.756,0.144,1.456,0.43,2.102c0.286,0.646,0.695,1.232,1.227,1.758
	c0.433,0.428,0.765,0.904,0.996,1.43C8.884,19.315,9,19.886,9,20.5v2c0,0.209,0.039,0.404,0.117,0.586
	c0.078,0.183,0.185,0.342,0.32,0.477c0.136,0.136,0.294,0.242,0.477,0.32S10.292,24,10.5,24h1.021
	C11.515,23.985,11.503,23.976,11.498,23.961z"/>
<path fill="#A0A1A2" d="M9,20.5v2c0,0.209,0.039,0.404,0.117,0.586c0.078,0.183,0.185,0.342,0.32,0.477
	c0.136,0.136,0.294,0.242,0.477,0.32S10.292,24,10.5,24h2c0.208,0,0.403-0.039,0.586-0.117s0.341-0.185,0.477-0.32
	c0.136-0.135,0.242-0.294,0.32-0.477C13.961,22.904,14,22.709,14,22.5v-2c0-0.173,0.031-0.334,0.049-0.5H8.951
	C8.969,20.166,9,20.327,9,20.5z"/>
<rect x="9" y="21" fill="#7A7A7A" width="5" height="1"/>
<path fill="#7A7A7A" d="M13.562,23.562c0.136-0.135,0.242-0.294,0.32-0.477c0.012-0.028,0.017-0.058,0.027-0.086H9.09
	c0.01,0.028,0.015,0.058,0.027,0.086c0.078,0.183,0.185,0.342,0.32,0.477c0.136,0.136,0.294,0.242,0.477,0.32S10.292,24,10.5,24h2
	c0.208,0,0.403-0.039,0.586-0.117S13.427,23.698,13.562,23.562z"/>
<path opacity="0.2" fill="#FFFFFF" enable-background="new    " d="M5.093,14.56c-0.198-0.206-0.387-0.422-0.554-0.663
	c-0.453-0.653-0.763-1.385-0.929-2.196c-0.166-0.811-0.17-1.606-0.011-2.384c0.159-0.778,0.45-1.488,0.873-2.129
	C4.895,6.547,5.433,6,6.085,5.547c0.653-0.454,1.385-0.763,2.197-0.93C8.634,4.545,8.997,4.506,9.37,4.502
	c0.209-0.537,0.475-1.037,0.799-1.498c0.324-0.461,0.697-0.871,1.118-1.228c0.421-0.358,0.885-0.66,1.393-0.908
	c0.508-0.248,1.044-0.43,1.611-0.546c0.118-0.024,0.236-0.038,0.353-0.056C14.041,0.089,13.41,0,12.75,0
	c-0.578,0-1.141,0.07-1.688,0.211S10,0.555,9.516,0.82S8.584,1.412,8.174,1.799C7.764,2.186,7.402,2.621,7.09,3.105
	C6.723,3.035,6.359,3,6,3C5.172,3,4.393,3.156,3.662,3.469c-0.731,0.313-1.367,0.74-1.91,1.283c-0.543,0.543-0.971,1.18-1.283,1.91
	C0.157,7.392,0,8.172,0,9s0.156,1.607,0.469,2.338c0.313,0.731,0.74,1.367,1.283,1.91c0.543,0.543,1.18,0.971,1.91,1.283
	c0.476,0.204,0.981,0.321,1.5,0.391C5.135,14.803,5.113,14.682,5.093,14.56z"/>
</svg>
