<?xml version="1.0" encoding="utf-8"?>
<!-- Generator: Adobe Illustrator 21.1.0, SVG Export Plug-In . SVG Version: 6.00 Build 0)  -->
<svg version="1.1" id="Layer_1" xmlns="http://www.w3.org/2000/svg" xmlns:xlink="http://www.w3.org/1999/xlink" x="0px" y="0px"
	 width="24px" height="24px" viewBox="0 0 24 24" enable-background="new 0 0 24 24" xml:space="preserve">
<path fill="#59B4D9" d="M3,3.5v17c0,1.933,4.03,3.5,9,3.5s9-1.567,9-3.5v-17H3z"/>
<path opacity="0.2" fill="#FFFFFF" d="M12,3.5H3v17c0,1.933,4.03,3.5,9,3.5V3.5z"/>
<path fill="#B8D432" d="M12,1C6.824,1,4,2.651,4,3.5S6.824,6,12,6s8-1.651,8-2.5S17.176,1,12,1z"/>
<path fill="#7FBA00" d="M5.896,5C7.249,5.55,9.301,6,12,6s4.751-0.45,6.104-1C16.751,4.45,14.699,4,12,4S7.249,4.45,5.896,5z"/>
<path fill="#FFFFFF" d="M12,1c5.176,0,8,1.652,8,2.5S17.176,6,12,6S4,4.348,4,3.5S6.824,1,12,1 M12,0C7.029,0,3,1.567,3,3.5
	S7.029,7,12,7s9-1.567,9-3.5S16.971,0,12,0L12,0z"/>
</svg>
