<?xml version="1.0" encoding="utf-8"?>
<!-- Generator: Adobe Illustrator 21.1.0, SVG Export Plug-In . SVG Version: 6.00 Build 0)  -->
<svg version="1.1" id="Layer_1" xmlns="http://www.w3.org/2000/svg" xmlns:xlink="http://www.w3.org/1999/xlink" x="0px" y="0px"
	 width="24px" height="24px" viewBox="0 0 24 24" enable-background="new 0 0 24 24" xml:space="preserve">
<g>
	<polygon fill="#3C9BE4" points="0,2.5 0,24 24,24 24,6 17,12 17,6 10,12 10,2.5 	"/>
</g>
<rect y="2.5" fill="#59B4D9" width="5" height="21.5"/>
<rect x="9" y="17" fill="#0072C6" width="3" height="3"/>
<rect x="14" y="17" fill="#0072C6" width="3" height="3"/>
<rect x="19" y="17" fill="#0072C6" width="3" height="3"/>
<ellipse fill="#B8D432" cx="5" cy="2.5" rx="5" ry="2.5"/>
<path fill="#7FBA00" d="M1.023,4C1.935,4.604,3.37,5,5,5s3.065-0.396,3.977-1C8.065,3.396,6.63,3,5,3S1.935,3.396,1.023,4z"/>
<path fill="#FFFFFF" d="M5,1c2.481,0,4,0.971,4,1.5S7.481,4,5,4S1,3.029,1,2.5S2.519,1,5,1 M5,0C2.239,0,0,1.119,0,2.5S2.239,5,5,5
	s5-1.119,5-2.5S7.761,0,5,0L5,0z"/>
</svg>
