<?xml version="1.0" encoding="utf-8"?>
<!-- Generator: Adobe Illustrator 21.1.0, SVG Export Plug-In . SVG Version: 6.00 Build 0)  -->
<!DOCTYPE svg PUBLIC "-//W3C//DTD SVG 1.1//EN" "http://www.w3.org/Graphics/SVG/1.1/DTD/svg11.dtd">
<svg version="1.1" id="Layer_1" xmlns="http://www.w3.org/2000/svg" xmlns:xlink="http://www.w3.org/1999/xlink" x="0px" y="0px"
	 width="24px" height="24px" viewBox="0 0 24 24" enable-background="new 0 0 24 24" xml:space="preserve">
<path fill="#59B4D9" d="M22.998,5H22H11c-0.197,0-1.955,0.041-2.848,1.47C7.84,6.969,7.008,7,7,7H0v1v13h24V6.002
	C24,5.449,23.551,5,22.998,5z"/>
<polygon fill="#FFFFFF" points="15.246,12.331 9.61,17.991 11.063,13.61 8.75,13.61 14.385,8 12.933,12.331 "/>
<path fill="#0072C6" d="M7.324,5.908c0.534-0.837,1.28-1.295,1.965-1.559C9.183,4.248,9.084,4.134,9,4C8.375,3,7,3,7,3H1.002
	C0.449,3,0,3.449,0,4.002V6l6.958,0.001C7.082,5.994,7.256,5.949,7.324,5.908z"/>
</svg>
