<?xml version="1.0" encoding="utf-8"?>
<!-- Generator: Adobe Illustrator 21.1.0, SVG Export Plug-In . SVG Version: 6.00 Build 0)  -->
<!DOCTYPE svg PUBLIC "-//W3C//DTD SVG 1.1//EN" "http://www.w3.org/Graphics/SVG/1.1/DTD/svg11.dtd">
<svg version="1.1" id="Layer_1" xmlns="http://www.w3.org/2000/svg" xmlns:xlink="http://www.w3.org/1999/xlink" x="0px" y="0px"
	 width="24px" height="24px" viewBox="0 0 24 24" enable-background="new 0 0 24 24" xml:space="preserve">
<path fill="#3999C6" d="M3,3.5v17c0,1.933,4.03,3.5,9,3.5s9-1.567,9-3.5v-17H3z"/>
<path fill="#59B4D9" d="M12,3.5H3v17c0,1.933,4.03,3.5,9,3.5V3.5z"/>
<path fill="#B8D432" d="M21,3.5C21,5.433,16.97,7,12,7S3,5.433,3,3.5S7.03,0,12,0S21,1.567,21,3.5z"/>
<path fill="#FFFFFF" d="M17,11v1.34c-0.997-1.729-2.882-2.84-5-2.84c-2.721,0-5.09,1.849-5.633,4.396l0.979,0.209
	C7.79,12.016,9.748,10.5,12,10.5c1.823,0,3.443,0.981,4.234,2.5H15v1h2h1v-1v-2H17z"/>
<path fill="#FFFFFF" d="M16.655,15.896C16.21,17.984,14.252,19.5,12,19.5c-1.823,0-3.443-0.981-4.235-2.5H9v-1H7H6v1v2h1v-1.339
	C7.997,19.39,9.882,20.5,12,20.5c2.721,0,5.09-1.849,5.634-4.396L16.655,15.896z"/>
</svg>
