<?xml version="1.0" encoding="utf-8"?>
<!-- Generator: Adobe Illustrator 21.1.0, SVG Export Plug-In . SVG Version: 6.00 Build 0)  -->
<svg version="1.1" id="Layer_1" xmlns="http://www.w3.org/2000/svg" xmlns:xlink="http://www.w3.org/1999/xlink" x="0px" y="0px"
	 width="24px" height="24px" viewBox="0 0 24 24" enable-background="new 0 0 24 24" xml:space="preserve">
<path fill="#59B4D9" d="M3,3.5v17c0,1.933,4.03,3.5,9,3.5s9-1.567,9-3.5v-17H3z"/>
<path opacity="0.2" fill="#FFFFFF" enable-background="new    " d="M12,3.5H3v17c0,1.933,4.03,3.5,9,3.5V3.5z"/>
<path fill="#B8D432" d="M12,1C6.824,1,4,2.651,4,3.5S6.824,6,12,6s8-1.651,8-2.5S17.176,1,12,1z"/>
<path fill="#7FBA00" d="M5.896,5C7.249,5.55,9.301,6,12,6s4.751-0.45,6.104-1C16.751,4.45,14.699,4,12,4S7.249,4.45,5.896,5z"/>
<path fill="#FFFFFF" d="M12,1c5.176,0,8,1.652,8,2.5S17.176,6,12,6S4,4.348,4,3.5S6.824,1,12,1 M12,0C7.029,0,3,1.567,3,3.5
	S7.029,7,12,7s9-1.567,9-3.5S16.971,0,12,0L12,0z"/>
<g>
	<path fill="#FFFFFF" d="M18.985,16.645c-0.009-0.026-0.02-0.05-0.034-0.072c-0.084-0.159-0.288-0.207-0.609-0.14
		c-0.999,0.206-1.386,0.079-1.526-0.012c0.811-1.238,1.477-2.732,1.838-4.127c0.165-0.637,0.484-2.14,0.069-2.867
		c-0.026-0.049-0.055-0.094-0.087-0.134c-0.779-0.996-1.923-1.53-3.307-1.544c-0.904-0.01-1.674,0.209-1.883,0.29
		c-0.101-0.019-0.205-0.035-0.312-0.049c-0.248-0.045-0.512-0.073-0.792-0.077c-0.715-0.011-1.332,0.16-1.843,0.508
		c-0.222-0.083-0.796-0.28-1.498-0.393c-1.213-0.195-2.178-0.047-2.866,0.44c-0.821,0.582-1.2,1.621-1.127,3.09
		c0.025,0.494,0.306,2.015,0.751,3.471c0.278,0.91,0.567,1.633,0.866,2.164c0.334,0.601,0.68,0.963,1.036,1.081
		c0.27,0.09,0.684,0.087,1.123-0.44c0.484-0.582,0.961-1.103,1.175-1.334c0.263,0.142,0.548,0.219,0.84,0.228
		c0,0.001,0,0.002,0,0.002c-0.059,0.07-0.108,0.132-0.149,0.185c-0.205,0.26-0.247,0.314-0.906,0.45
		c-0.187,0.039-0.685,0.141-0.693,0.49c-0.002,0.074,0.02,0.14,0.056,0.197c0.137,0.256,0.557,0.368,0.613,0.383
		c0.806,0.202,1.513,0.056,2.037-0.41c-0.01,1.348,0.047,2.669,0.209,3.074c0.134,0.334,0.46,1.151,1.492,1.151
		c0.151,0,0.318-0.018,0.501-0.057c1.077-0.231,1.544-0.707,1.725-1.756c0.091-0.527,0.243-1.74,0.326-2.48
		c0.01-0.041,0.021-0.071,0.034-0.08c0,0,0.042-0.028,0.258,0.019c0.009,0.002,0.018,0.003,0.027,0.004l0.153,0.013
		c0.003,0,0.006,0,0.009,0.001c0.512,0.023,1.155-0.086,1.529-0.26C18.41,17.474,19.112,17.03,18.985,16.645z M6.182,14.925
		c-0.449-1.472-0.712-2.952-0.733-3.367c-0.066-1.312,0.252-2.225,0.944-2.715c1.11-0.785,2.924-0.327,3.691-0.079
		c-0.002,0.002-0.004,0.004-0.006,0.006c-1.223,1.235-1.194,3.345-1.191,3.474c0,0.05,0.004,0.12,0.01,0.217
		c0.021,0.355,0.06,1.015-0.044,1.763c-0.097,0.695,0.117,1.375,0.588,1.867c0.049,0.051,0.1,0.099,0.152,0.143
		c-0.21,0.224-0.665,0.721-1.15,1.304c-0.343,0.412-0.58,0.333-0.658,0.307c-0.237-0.079-0.491-0.355-0.748-0.799
		C6.747,16.541,6.455,15.82,6.182,14.925z M9.812,17.999c-0.103-0.026-0.198-0.068-0.261-0.107c0.054-0.024,0.143-0.054,0.292-0.085
		c0.775-0.16,0.895-0.272,1.157-0.604c0.06-0.076,0.128-0.162,0.222-0.267c0.021-0.023,0.035-0.05,0.044-0.078
		c0.103-0.091,0.165-0.066,0.264-0.025c0.094,0.039,0.186,0.157,0.223,0.287c0.018,0.061,0.037,0.178-0.027,0.269
		C11.179,18.152,10.383,18.142,9.812,17.999z M11.077,15.589l-0.032,0.085c-0.08,0.215-0.155,0.416-0.201,0.606
		c-0.403-0.001-0.796-0.174-1.094-0.485C9.37,15.4,9.198,14.849,9.277,14.285c0.11-0.79,0.07-1.478,0.048-1.848
		c-0.003-0.052-0.006-0.097-0.007-0.133c0.179-0.158,1.007-0.602,1.597-0.467c0.269,0.062,0.434,0.245,0.502,0.561
		c0.353,1.634,0.047,2.315-0.2,2.862C11.166,15.373,11.118,15.479,11.077,15.589z M15.526,18.352
		c-0.01,0.107-0.022,0.227-0.037,0.36l-0.088,0.265c-0.007,0.021-0.011,0.043-0.011,0.065c-0.004,0.287-0.033,0.392-0.069,0.525
		c-0.038,0.139-0.082,0.296-0.108,0.639c-0.066,0.855-0.531,1.345-1.461,1.545c-0.916,0.196-1.078-0.3-1.221-0.738
		c-0.016-0.049-0.031-0.094-0.046-0.137c-0.13-0.354-0.115-0.853-0.095-1.544c0.01-0.339-0.015-1.149-0.2-1.599
		c0.003-0.177,0.006-0.357,0.011-0.539c0.001-0.024-0.003-0.047-0.009-0.068c-0.006-0.041-0.014-0.083-0.027-0.126
		c-0.074-0.259-0.255-0.475-0.471-0.565c-0.086-0.036-0.244-0.101-0.434-0.053c0.04-0.167,0.111-0.355,0.187-0.559l0.032-0.086
		c0.036-0.097,0.081-0.197,0.129-0.303c0.258-0.573,0.611-1.357,0.228-3.128c-0.144-0.664-0.623-0.988-1.349-0.912
		c-0.435,0.045-0.834,0.221-1.033,0.322c-0.043,0.022-0.082,0.043-0.118,0.063C9.39,11.111,9.6,9.862,10.384,9.071
		c0.059-0.059,0.12-0.115,0.183-0.167c0.031-0.006,0.061-0.019,0.087-0.039c0.455-0.345,1.024-0.514,1.693-0.503
		c0.247,0.004,0.484,0.02,0.71,0.049c1.172,0.214,1.96,0.874,2.439,1.44c0.492,0.581,0.758,1.167,0.865,1.483
		c-0.8-0.081-1.343,0.077-1.619,0.471c-0.6,0.857,0.328,2.521,0.774,3.321c0.082,0.147,0.152,0.273,0.175,0.327
		c0.145,0.352,0.333,0.587,0.471,0.758c0.042,0.053,0.083,0.104,0.114,0.148c-0.242,0.07-0.677,0.231-0.638,1.038
		c-0.008,0.095-0.026,0.274-0.051,0.499C15.558,18.023,15.543,18.174,15.526,18.352z M16.064,17.373
		c-0.024-0.503,0.163-0.555,0.361-0.611c0.028-0.008,0.055-0.016,0.082-0.025c0.024,0.021,0.05,0.042,0.081,0.062
		c0.345,0.227,0.956,0.255,1.817,0.081c-0.122,0.107-0.314,0.241-0.576,0.363c-0.248,0.115-0.662,0.201-1.056,0.22
		C16.338,17.484,16.117,17.415,16.064,17.373z M16.409,11.771c-0.004,0.212-0.033,0.404-0.064,0.605
		c-0.033,0.216-0.068,0.44-0.076,0.711c-0.009,0.264,0.024,0.538,0.056,0.804c0.064,0.536,0.131,1.088-0.125,1.632
		c-0.04-0.071-0.078-0.148-0.113-0.233c-0.032-0.077-0.101-0.201-0.196-0.372c-0.372-0.667-1.243-2.229-0.797-2.867
		C15.225,11.861,15.562,11.666,16.409,11.771z M16.547,16.009c-0.017-0.021-0.034-0.043-0.052-0.065
		c-0.007-0.009-0.014-0.018-0.021-0.027c0.439-0.725,0.353-1.442,0.277-2.078c-0.031-0.261-0.061-0.507-0.053-0.739
		c0.008-0.245,0.04-0.456,0.072-0.659c0.039-0.251,0.078-0.51,0.067-0.816c0.008-0.032,0.011-0.07,0.007-0.115
		c-0.028-0.293-0.362-1.171-1.045-1.966c-0.367-0.427-0.9-0.905-1.625-1.232c0.317-0.064,0.745-0.123,1.223-0.112
		c1.24,0.028,2.22,0.492,2.915,1.379c0.014,0.018,0.028,0.039,0.04,0.061C18.788,10.459,18.184,13.431,16.547,16.009z"/>
	<path fill="#FFFFFF" d="M10.85,12.06c-0.156-0.022-0.297-0.002-0.368,0.052c-0.04,0.03-0.053,0.066-0.056,0.09
		c-0.009,0.064,0.036,0.135,0.064,0.172c0.078,0.104,0.193,0.175,0.306,0.191c0.016,0.002,0.033,0.003,0.049,0.003
		c0.189,0,0.36-0.147,0.375-0.255C11.238,12.177,11.041,12.087,10.85,12.06z"/>
	<path fill="#FFFFFF" d="M15.627,11.953c-0.179,0.025-0.354,0.106-0.339,0.213c0.012,0.083,0.161,0.225,0.339,0.225
		c0.015,0,0.03-0.001,0.045-0.003c0.118-0.016,0.205-0.092,0.246-0.135c0.063-0.066,0.099-0.14,0.093-0.187l0,0
		C15.996,11.958,15.807,11.928,15.627,11.953z"/>
</g>
</svg>
