<?xml version="1.0" encoding="utf-8"?>
<!-- Generator: Adobe Illustrator 21.1.0, SVG Export Plug-In . SVG Version: 6.00 Build 0)  -->
<svg version="1.1" id="Layer_1" xmlns="http://www.w3.org/2000/svg" xmlns:xlink="http://www.w3.org/1999/xlink" x="0px" y="0px"
	 width="24px" height="24px" viewBox="0 0 24 24" enable-background="new 0 0 24 24" xml:space="preserve">
<path fill="#A0A1A2" d="M12,19H2.5C2.224,19,2,19.224,2,19.5S2.224,20,2.5,20H12V19z"/>
<path fill="#0072C6" d="M12,20H2.5C2.224,20,2,19.776,2,19.5S2.224,19,2.5,19H12v-6.5c0-0.402,0.093-0.775,0.276-1.111
	c0.151-0.274,0.345-0.526,0.57-0.743c0.359-0.352,0.809-0.644,1.34-0.868c0.465-0.196,0.963-0.354,1.48-0.472
	c0.442-0.1,0.889-0.164,1.333-0.211V0H3C1.895,0,1,0.895,1,2v17.5C1,20.328,1.672,21,2.5,21H12V20z"/>
<rect y="3" fill="#A0A1A2" width="3" height="1"/>
<rect y="7" fill="#A0A1A2" width="3" height="1"/>
<rect y="11" fill="#A0A1A2" width="3" height="1"/>
<rect y="15" fill="#A0A1A2" width="3" height="1"/>
<ellipse fill="#B8D432" cx="18.5" cy="12.5" rx="5.5" ry="2.5"/>
<path fill="#59B4D9" d="M24,21.5c0,1.381-2.462,2.5-5.5,2.5S13,22.881,13,21.5v-9c0,1.381,2.462,2.5,5.5,2.5s5.5-1.119,5.5-2.5V21.5
	z"/>
<path opacity="0.2" fill="#FFFFFF" d="M18.5,24c-3.038,0-5.5-1.119-5.5-2.5v-9c0,1.381,2.462,2.5,5.5,2.5V24z"/>
<path fill="#7FBA00" d="M14.107,14c1.004,0.606,2.595,1,4.393,1s3.389-0.394,4.393-1c-1.004-0.606-2.595-1-4.393-1
	S15.111,13.394,14.107,14z"/>
<path fill="#FFFFFF" d="M18.5,11c2.923,0,4.5,1.065,4.5,1.5S21.423,14,18.5,14S14,12.935,14,12.5S15.577,11,18.5,11 M18.5,10
	c-3.038,0-5.5,1.119-5.5,2.5s2.462,2.5,5.5,2.5s5.5-1.119,5.5-2.5S21.538,10,18.5,10L18.5,10z"/>
<path opacity="0.5" fill="#000C82" d="M12,20H2.5C2.224,20,2,19.776,2,19.5S2.224,19,2.5,19H12v-1H2.5C1.672,18,1,18.672,1,19.5
	S1.672,21,2.5,21H12V20z"/>
</svg>
