<?xml version="1.0" encoding="utf-8"?>
<!-- Generator: Adobe Illustrator 21.1.0, SVG Export Plug-In . SVG Version: 6.00 Build 0)  -->
<svg version="1.1" id="Layer_1" xmlns="http://www.w3.org/2000/svg" xmlns:xlink="http://www.w3.org/1999/xlink" x="0px" y="0px"
	 width="24px" height="24px" viewBox="0 0 24 24" enable-background="new 0 0 24 24" xml:space="preserve">
<g>
	<path fill="#FFFFFF" d="M19.997,21H4.003C3.449,21,3,20.551,3,19.997V4.003C3,3.449,3.449,3,4.003,3h15.995
		C20.551,3,21,3.449,21,4.003v15.995C21,20.551,20.551,21,19.997,21z"/>
</g>
<g>
	<path fill="#A0A1A2" d="M19.997,4L20,4.003L19.997,20L4,19.997L4.003,4H19.997 M19.997,3H4.003C3.449,3,3,3.449,3,4.003v15.995
		C3,20.551,3.449,21,4.003,21h15.995C20.551,21,21,20.551,21,19.997V4.003C21,3.449,20.551,3,19.997,3L19.997,3z"/>
</g>
<polygon fill="#59B4D9" points="15.248,11.336 9.613,16.995 11.065,12.615 8.752,12.615 14.387,7.005 12.935,11.336 "/>
<path fill="#7A7A7A" d="M2,11.145l-1.841,3.047c-0.286,0.474-0.134,1.09,0.34,1.377L2,16.476V11.145z"/>
<path fill="#7A7A7A" d="M22,12.855l1.841-3.047c0.286-0.474,0.134-1.09-0.34-1.377L22,7.524V12.855z"/>
<path fill="#7A7A7A" d="M11.145,22l3.047,1.841c0.162,0.098,0.341,0.145,0.517,0.145c0.34,0,0.671-0.173,0.859-0.484L16.476,22
	H11.145z"/>
<path fill="#7A7A7A" d="M12.855,1.985l-3.047-1.84C9.645,0.047,9.467,0,9.29,0C8.95,0,8.619,0.173,8.431,0.484L7.524,1.985H12.855z"
	/>
</svg>
