<?xml version="1.0" encoding="utf-8"?>
<!-- Generator: Adobe Illustrator 20.0.0, SVG Export Plug-In . SVG Version: 6.00 Build 0)  -->
<svg version="1.1" id="Layer_1" xmlns="http://www.w3.org/2000/svg" xmlns:xlink="http://www.w3.org/1999/xlink" x="0px" y="0px"
	 width="50px" height="50px" viewBox="0 0 50 50" enable-background="new 0 0 50 50" xml:space="preserve">
<path fill="#7A7A7A" d="M24.937,28.391h-9.874c1.307,4.514-0.172,6.261-7.863,6.261V37h25.6v-2.348
	C25.109,34.652,23.63,32.905,24.937,28.391z"/>
<g>
	<path opacity="0.1" d="M24.542,30.391c0.049-0.597,0.18-1.258,0.395-2h-9.874c0.215,0.742,0.346,1.403,0.395,2H24.542z"/>
</g>
<path fill="#7A7A7A" d="M37.583,1H2.174C0.97,1,0,2.031,0,3.182v23.655C0,27.981,0.97,29,2.174,29h35.41
	C38.784,29,40,27.981,40,26.837V3.182C40,2.028,38.784,1,37.583,1"/>
<polygon fill="#59B4D9" points="37,4 37,26 3,26 3,4 "/>
<rect x="7.2" y="34.652" fill="#A0A1A2" width="25.6" height="2.348"/>
<path opacity="0.2" fill="#FFFFFF" enable-background="new    " d="M2.174,29h2.354L35.2,1H2.174C0.97,1,0,2.031,0,3.182v23.655
	C0,27.981,0.97,29,2.174,29z"/>
<path fill="#B8D432" d="M20.568,2.565c0,0.307-0.254,0.556-0.568,0.556c-0.314,0-0.567-0.249-0.567-0.556
	c0-0.308,0.253-0.556,0.567-0.556C20.313,2.01,20.568,2.258,20.568,2.565"/>
<polygon fill="#A0A1A2" points="45,20 23,20 23,50 50,50 50,25 "/>
<polygon fill="#3999C6" points="24,49 24,21 44,21 44,26 49,26 49,49 "/>
<path fill="#FFFFFF" d="M36,35.675C36,35.3,36.3,35,36.675,35h7.8c0.375,0,0.675,0.3,0.675,0.675s-0.3,0.675-0.675,0.675h-7.8
	C36.3,36.35,36,36.05,36,35.675"/>
<path fill="#FFFFFF" d="M36,42.675C36,42.3,36.3,42,36.675,42h7.8c0.375,0,0.675,0.3,0.675,0.675s-0.3,0.675-0.675,0.675h-7.8
	C36.3,43.35,36,43.05,36,42.675"/>
<path fill="#FFFFFF" d="M27.046,29.481l-0.249-0.27c-0.065-0.071-0.065-0.184,0.01-0.252l0.719-0.665
	c0.034-0.031,0.075-0.047,0.12-0.047c0.051,0,0.096,0.021,0.129,0.058l1.977,2.12l3.402-4.357C33.189,26.024,33.24,26,33.295,26
	c0.041,0,0.078,0.014,0.109,0.038l0.778,0.6c0.038,0.028,0.061,0.068,0.068,0.116c0.003,0.047-0.007,0.096-0.038,0.129l-4.37,5.594
	L27.046,29.481z"/>
<path fill="#FFFFFF" d="M27.046,36.481l-0.249-0.27c-0.065-0.071-0.065-0.184,0.01-0.252l0.719-0.665
	c0.034-0.031,0.075-0.047,0.12-0.047c0.051,0,0.096,0.021,0.129,0.058l1.977,2.12l3.402-4.357C33.189,33.024,33.24,33,33.295,33
	c0.041,0,0.078,0.014,0.109,0.038l0.778,0.6c0.038,0.028,0.061,0.068,0.068,0.116c0.003,0.047-0.007,0.096-0.038,0.129l-4.37,5.594
	L27.046,36.481z"/>
<path fill="#FFFFFF" d="M27.046,43.481l-0.249-0.27c-0.065-0.071-0.065-0.184,0.01-0.252l0.719-0.665
	c0.034-0.031,0.075-0.047,0.12-0.047c0.051,0,0.096,0.021,0.129,0.058l1.977,2.12l3.402-4.357C33.189,40.024,33.24,40,33.295,40
	c0.041,0,0.078,0.014,0.109,0.038l0.778,0.6c0.038,0.028,0.061,0.068,0.068,0.116c0.003,0.047-0.007,0.096-0.038,0.129l-4.37,5.594
	L27.046,43.481z"/>
<path fill="#FFFFFF" d="M36,28.675C36,28.3,36.3,28,36.675,28h7.8c0.375,0,0.675,0.3,0.675,0.675s-0.3,0.675-0.675,0.675h-7.8
	C36.3,29.35,36,29.05,36,28.675"/>
<rect x="44" y="26" opacity="0.2" width="5" height="1"/>
</svg>
