<?xml version="1.0" encoding="utf-8"?>
<!-- Generator: Adobe Illustrator 21.1.0, SVG Export Plug-In . SVG Version: 6.00 Build 0)  -->
<svg version="1.1" id="Layer_1" xmlns="http://www.w3.org/2000/svg" xmlns:xlink="http://www.w3.org/1999/xlink" x="0px" y="0px"
	 width="24px" height="24px" viewBox="0 0 24 24" enable-background="new 0 0 24 24" xml:space="preserve">
<path fill="#0072C6" d="M11,12.703V10h-1V7h9v3h-1v2.706L19.295,15h2.113C22.896,14.856,24,13.658,24,12.22
	c0-1.534-1.248-2.78-2.784-2.78c-0.096,0-0.24,0-0.336,0c0.192-0.623,0.24-1.294,0.24-1.965C21.168,3.355,17.808,0,13.728,0
	C10.464,0,7.68,2.109,6.72,5.08C6.192,4.888,5.664,4.792,5.088,4.792C2.256,4.792,0,7.093,0,9.92C0,12.747,2.256,15,5.04,15h4.65
	L11,12.703z"/>
<g opacity="0.2">
	<path fill="#ECF0F1" d="M2.344,12.201c0-2.827,2.256-5.128,5.088-5.128c0.576,0,1.104,0.096,1.632,0.288
		c0.96-2.971,3.744-5.08,7.008-5.08c1.41,0,2.73,0.408,3.857,1.103C18.605,1.349,16.313,0,13.728,0C10.464,0,7.68,2.109,6.72,5.08
		C6.192,4.888,5.664,4.792,5.088,4.792C2.256,4.792,0,7.093,0,9.92c0,2.054,1.198,3.792,2.916,4.596
		C2.562,13.821,2.344,13.043,2.344,12.201z"/>
</g>
<path fill="#59B4D9" d="M18,8h-7v1h1v3.969l-5.28,9.255C6.144,23.184,6.624,24,7.728,24h13.488c1.152,0,1.584-0.768,1.008-1.776
	L17,12.969V9h1V8z"/>
<path fill="#EC008C" d="M21.356,22.72l-2.1-3.72H9.71l-2.122,3.72c-0.072,0.12-0.098,0.2-0.108,0.246
	C7.523,22.981,7.601,23,7.728,23h13.488c0.114,0,0.196-0.013,0.25-0.026C21.451,22.917,21.419,22.831,21.356,22.72z"/>
<path opacity="0.5" fill="#ECF0F1" enable-background="new    " d="M17,19c0,0.552-0.448,1-1,1s-1-0.448-1-1H17z"/>
<circle opacity="0.5" fill="#ECF0F1" enable-background="new    " cx="14.5" cy="21.5" r="0.5"/>
<path opacity="0.25" fill="#ECF0F1" enable-background="new    " d="M14,8h-3v1h1v3.969l-5.28,9.255C6.144,23.184,6.624,24,7.728,24
	H12l2-11.031V8z"/>
</svg>
