<?xml version="1.0" encoding="utf-8"?>
<!-- Generator: Adobe Illustrator 21.1.0, SVG Export Plug-In . SVG Version: 6.00 Build 0)  -->
<svg version="1.1" id="Layer_1" xmlns="http://www.w3.org/2000/svg" xmlns:xlink="http://www.w3.org/1999/xlink" x="0px" y="0px"
	 width="24px" height="24px" viewBox="0 0 24 24" enable-background="new 0 0 24 24" xml:space="preserve">
<path fill="#7FBA00" d="M3.5,23C3.224,23,3,22.776,3,22.5S3.224,22,3.5,22H22V0H4C2.895,0,2,0.895,2,2v20.5
	C2,23.328,2.672,24,3.5,24H22v-1H3.5z"/>
<polygon fill="#FFFFFF" points="14,18.463 10,7.463 8.35,12 5,12 5,11 7.65,11 10,4.537 14,15.537 15.649,11 19,11 19,12 16.351,12 
	"/>
<path fill="#4A9F49" d="M2,22.5C2,23.328,2.672,24,3.5,24H22v-1H3.5C3.224,23,3,22.776,3,22.5S3.224,22,3.5,22H22v-1H3.5
	C2.672,21,2,21.672,2,22.5z"/>
<path fill="#A0A1A2" d="M3.5,23C3.224,23,3,22.776,3,22.5S3.224,22,3.5,22H22c-0.276,0-0.5,0.224-0.5,0.5S21.724,23,22,23H3.5z"/>
</svg>
