<?xml version="1.0" encoding="utf-8"?>
<!-- Generator: Adobe Illustrator 21.1.0, SVG Export Plug-In . SVG Version: 6.00 Build 0)  -->
<svg version="1.1" id="Layer_1" xmlns="http://www.w3.org/2000/svg" xmlns:xlink="http://www.w3.org/1999/xlink" x="0px" y="0px"
	 width="24px" height="24px" viewBox="0 0 24 24" enable-background="new 0 0 24 24" xml:space="preserve">
<path fill="#0072C6" d="M21.216,9.442H20.88c0.192-0.623,0.24-1.294,0.24-1.965C21.168,3.354,17.808,0,13.728,0
	C10.464,0,7.68,2.108,6.721,5.08c-0.53-0.191-1.057-0.288-1.633-0.288C2.256,4.792,0,7.094,0,9.921c0,2.812,2.235,5.053,5,5.075
	v-2.35c0-2.314,3.888-3.368,7.5-3.368s7.5,1.054,7.5,3.368V15h1.408C22.896,14.857,24,13.658,24,12.22
	C24,10.688,22.752,9.442,21.216,9.442z"/>
<path fill="#59B4D9" d="M6,12.646v8.987c0,1.297,2.863,2.348,6.411,2.365V24h0.07H12.5c3.59,0,6.5-1.061,6.5-2.367v-8.987
	C19,12.646,6,12.646,6,12.646z"/>
<path fill="#3999C6" d="M12.5,12.646V24c3.59,0,6.5-1.061,6.5-2.367v-8.987C19,12.646,12.5,12.646,12.5,12.646z"/>
<path fill="#B8D432" d="M19,12.646c0,1.307-2.91,2.368-6.5,2.368S6,13.953,6,12.646c0-1.308,2.91-2.368,6.5-2.368
	S19,11.338,19,12.646"/>
<path opacity="0.2" fill="#ECF0F1" d="M2,11.583c0-2.991,2.425-5.417,5.416-5.417c0.926,0,1.797,0.233,2.56,0.643
	C11.264,4.537,13.699,3,16.498,3c1.395,0,2.695,0.387,3.814,1.05C19.085,1.648,16.585,0,13.728,0C10.464,0,7.68,2.108,6.721,5.08
	c-0.53-0.191-1.057-0.288-1.633-0.288C2.256,4.792,0,7.094,0,9.921c0,2.023,1.165,3.735,2.843,4.556C2.312,13.639,2,12.648,2,11.583
	z"/>
<polygon fill="#FFFFFF" points="12.5,3 8.5,7 11,7 11,13 14,13 14,7 16.5,7 "/>
</svg>
