<?xml version="1.0" encoding="utf-8"?>
<!-- Generator: Adobe Illustrator 21.1.0, SVG Export Plug-In . SVG Version: 6.00 Build 0)  -->
<svg version="1.1" id="Layer_1" xmlns="http://www.w3.org/2000/svg" xmlns:xlink="http://www.w3.org/1999/xlink" x="0px" y="0px"
	 width="24px" height="24px" viewBox="0 0 24 24" enable-background="new 0 0 24 24" xml:space="preserve">
<g>
	<path fill="#3C9BE4" d="M12,0C5.373,0,0,5.373,0,12s5.373,12,12,12s12-5.373,12-12S18.627,0,12,0L12,0z"/>
</g>
<path fill="#FFFFFF" d="M9.161,11.876c0,0.567-0.123,1.069-0.369,1.506s-0.596,0.772-1.051,1.01s-0.976,0.355-1.564,0.355H4.192
	V9.146h1.984C8.166,9.146,9.161,10.056,9.161,11.876z M7.833,11.892c0-0.536-0.157-0.957-0.471-1.262s-0.744-0.457-1.291-0.457
	H5.454v3.551h0.625c0.537,0,0.963-0.162,1.279-0.486S7.833,12.465,7.833,11.892z"/>
<path fill="#FFFFFF" d="M15.045,14.747h-1.273l-2.308-3.52c-0.135-0.206-0.229-0.361-0.281-0.465h-0.016
	c0.021,0.208,0.031,0.511,0.031,0.906v3.078h-1.191v-5.6h1.359l2.222,3.41l0.281,0.457h0.016c-0.021-0.136-0.031-0.392-0.031-0.77
	V9.146h1.191C15.045,9.146,15.045,14.747,15.045,14.747z"/>
<path fill="#FFFFFF" d="M19.645,13.173c0,0.531-0.192,0.942-0.578,1.234c-0.385,0.292-0.918,0.438-1.598,0.438
	c-0.578,0-1.061-0.104-1.449-0.312v-1.25c0.448,0.38,0.941,0.57,1.48,0.57c0.261,0,0.462-0.052,0.604-0.156
	c0.143-0.104,0.213-0.242,0.213-0.414c0-0.169-0.068-0.316-0.205-0.441s-0.414-0.286-0.834-0.484
	c-0.854-0.401-1.281-0.948-1.281-1.641c0-0.502,0.187-0.906,0.559-1.209c0.373-0.303,0.867-0.455,1.484-0.455
	c0.547,0,1,0.072,1.359,0.215v1.168c-0.377-0.26-0.807-0.391-1.289-0.391c-0.242,0-0.434,0.051-0.574,0.154s-0.211,0.24-0.211,0.412
	c0,0.177,0.057,0.322,0.17,0.436s0.346,0.253,0.697,0.42c0.523,0.247,0.896,0.499,1.119,0.754S19.645,12.793,19.645,13.173z"/>
<path fill="#0072C6" d="M20.385,3.423c0.799,1.665,1.259,3.523,1.259,5.492c0,7.03-5.699,12.728-12.728,12.728
	c-1.97,0-3.828-0.461-5.493-1.259C5.602,22.613,8.637,24,12,24c6.627,0,12-5.373,12-12C24,8.637,22.613,5.602,20.385,3.423z"/>
<path fill="#FFFFFF" d="M6.299,8h1.005c0.11-0.706,0.25-1.371,0.41-2h8.573c0.16,0.629,0.3,1.294,0.41,2h1.005
	c-0.104-0.697-0.241-1.36-0.396-2h5.076c-0.2-0.345-0.416-0.678-0.648-1h-4.697c-0.598-2.019-1.44-3.665-2.446-4.712
	C13.756,0.104,12.891,0,12,0c1.461,0,3.021,1.891,4.002,5H7.998C8.979,1.891,10.539,0,12,0c-0.891,0-1.756,0.104-2.591,0.288
	C8.403,1.335,7.562,2.981,6.964,5H2.267C2.035,5.322,1.818,5.655,1.619,6h5.076C6.54,6.64,6.404,7.303,6.299,8z"/>
<path fill="#FFFFFF" d="M17.701,16h-1.005c-0.11,0.706-0.25,1.371-0.41,2H7.714c-0.16-0.629-0.3-1.294-0.41-2H6.299
	c0.104,0.697,0.241,1.36,0.396,2H1.619c0.2,0.345,0.416,0.678,0.648,1h4.697c0.598,2.019,1.44,3.665,2.446,4.712
	C10.244,23.896,11.109,24,12,24c-1.461,0-3.021-1.891-4.002-5h8.004c-0.981,3.109-2.54,5-4.002,5c0.891,0,1.756-0.104,2.591-0.288
	c1.006-1.047,1.848-2.693,2.446-4.712h4.697c0.232-0.322,0.448-0.655,0.648-1h-5.076C17.46,17.36,17.596,16.697,17.701,16z"/>
</svg>
