<?xml version="1.0" encoding="utf-8"?>
<!-- Generator: Adobe Illustrator 21.1.0, SVG Export Plug-In . SVG Version: 6.00 Build 0)  -->
<svg version="1.1" id="Layer_1" xmlns="http://www.w3.org/2000/svg" xmlns:xlink="http://www.w3.org/1999/xlink" x="0px" y="0px"
	 width="24px" height="24px" viewBox="0 0 24 24" enable-background="new 0 0 24 24" xml:space="preserve">
<path fill="#59B4D9" d="M3,3.5v17c0,1.933,4.03,3.5,9,3.5s9-1.567,9-3.5v-17H3z"/>
<path opacity="0.2" fill="#FFFFFF" d="M12,3.5H3v17c0,1.933,4.03,3.5,9,3.5V3.5z"/>
<path fill="#B8D432" d="M12,1C6.824,1,4,2.651,4,3.5S6.824,6,12,6s8-1.651,8-2.5S17.176,1,12,1z"/>
<path fill="#7FBA00" d="M5.896,5C7.249,5.55,9.301,6,12,6s4.751-0.45,6.104-1C16.751,4.45,14.699,4,12,4S7.249,4.45,5.896,5z"/>
<path fill="#FFFFFF" d="M12,1c5.176,0,8,1.652,8,2.5S17.176,6,12,6S4,4.348,4,3.5S6.824,1,12,1 M12,0C7.029,0,3,1.567,3,3.5
	S7.029,7,12,7s9-1.567,9-3.5S16.971,0,12,0L12,0z"/>
<path fill="#FFFFFF" d="M8,18c0,0.276,0.053,0.535,0.16,0.777c0.106,0.242,0.25,0.453,0.43,0.633s0.391,0.323,0.633,0.43
	C9.465,19.947,9.724,20,10,20v1c-0.396,0-0.779-0.075-1.148-0.227c-0.37-0.15-0.695-0.367-0.977-0.648s-0.486-0.586-0.613-0.914
	c-0.128-0.328-0.211-0.668-0.25-1.02L7,17c0-0.271-0.054-0.528-0.16-0.773c-0.107-0.244-0.25-0.457-0.43-0.637
	s-0.392-0.322-0.637-0.43C5.528,15.054,5.271,15,5,15v-1c0.271,0,0.528-0.053,0.773-0.16c0.245-0.106,0.457-0.25,0.637-0.43
	s0.323-0.391,0.43-0.633C6.946,12.535,7,12.276,7,12l0.012-1.191c0.039-0.352,0.122-0.691,0.25-1.02
	c0.127-0.328,0.332-0.633,0.613-0.914s0.606-0.497,0.977-0.648C9.221,8.076,9.604,8,10,8v1C9.724,9,9.465,9.054,9.223,9.16
	C8.98,9.267,8.77,9.41,8.59,9.59s-0.323,0.392-0.43,0.637C8.053,10.472,8,10.729,8,11l0.02,0.699
	c-0.008,0.273-0.033,0.539-0.074,0.797C7.903,12.754,7.833,13,7.734,13.234S7.5,13.693,7.328,13.906
	C7.156,14.12,6.935,14.318,6.664,14.5c0.271,0.183,0.492,0.381,0.664,0.594c0.172,0.214,0.307,0.438,0.406,0.672
	s0.169,0.48,0.211,0.738s0.066,0.523,0.074,0.797L8,18z"/>
<path fill="#FFFFFF" d="M16.988,18.191c-0.039,0.352-0.123,0.691-0.25,1.02c-0.128,0.328-0.332,0.633-0.613,0.914
	s-0.607,0.498-0.977,0.648C14.778,20.925,14.396,21,14,21v-1c0.271,0,0.528-0.053,0.773-0.16c0.244-0.106,0.457-0.25,0.637-0.43
	s0.322-0.391,0.43-0.633C15.946,18.535,16,18.276,16,18l-0.02-0.699c0.008-0.273,0.032-0.539,0.074-0.797
	c0.041-0.258,0.111-0.504,0.211-0.738c0.099-0.234,0.234-0.458,0.406-0.672c0.172-0.213,0.393-0.411,0.664-0.594
	c-0.271-0.182-0.492-0.38-0.664-0.594c-0.172-0.213-0.308-0.438-0.406-0.672c-0.1-0.234-0.17-0.48-0.211-0.738
	c-0.042-0.258-0.066-0.523-0.074-0.797L16,11c0-0.271-0.054-0.528-0.16-0.773c-0.107-0.245-0.25-0.457-0.43-0.637
	s-0.393-0.323-0.637-0.43C14.528,9.054,14.271,9,14,9V8c0.396,0,0.778,0.076,1.148,0.227c0.369,0.151,0.695,0.367,0.977,0.648
	c0.282,0.281,0.485,0.586,0.613,0.914c0.127,0.328,0.211,0.668,0.25,1.02L17,12c0,0.276,0.053,0.535,0.16,0.777
	c0.106,0.242,0.25,0.453,0.43,0.633s0.391,0.323,0.633,0.43C18.465,13.947,18.724,14,19,14v1c-0.276,0-0.535,0.054-0.777,0.16
	c-0.242,0.107-0.453,0.25-0.633,0.43s-0.323,0.393-0.43,0.637C17.053,16.472,17,16.729,17,17L16.988,18.191z"/>
</svg>
