<?xml version="1.0" encoding="utf-8"?>
<!-- Generator: Adobe Illustrator 21.1.0, SVG Export Plug-In . SVG Version: 6.00 Build 0)  -->
<svg version="1.1" id="Layer_1" xmlns="http://www.w3.org/2000/svg" xmlns:xlink="http://www.w3.org/1999/xlink" x="0px" y="0px"
	 width="24px" height="24px" viewBox="0 0 24 24" enable-background="new 0 0 24 24" xml:space="preserve">
<polygon fill="#0F0F0F" points="7,10.311 7.989,10.311 6.868,13.689 5.878,13.689 5.245,11.789 4.611,13.689 3.622,13.689 
	2.5,10.311 3.49,10.311 4.123,12.211 4.757,10.311 5.733,10.311 6.366,12.211 "/>
<polygon fill="#0F0F0F" points="13.755,10.311 14.744,10.311 13.623,13.689 12.633,13.689 12,11.789 11.367,13.689 10.377,13.689 
	9.256,10.311 10.245,10.311 10.878,12.211 11.512,10.311 12.488,10.311 13.121,12.211 "/>
<polygon fill="#0F0F0F" points="19.877,12.211 20.511,10.311 21.5,10.311 20.379,13.689 19.388,13.689 18.755,11.789 18.122,13.689 
	17.132,13.689 16.011,10.311 17,10.311 17.634,12.211 18.267,10.311 19.243,10.311 "/>
<path fill="#0072C6" d="M12,1c6.065,0,11,4.935,11,11s-4.935,11-11,11S1,18.065,1,12S5.935,1,12,1 M12,0C5.373,0,0,5.373,0,12
	s5.373,12,12,12s12-5.373,12-12S18.627,0,12,0L12,0z"/>
</svg>
