<?xml version="1.0" encoding="utf-8"?>
<!-- Generator: Adobe Illustrator 21.1.0, SVG Export Plug-In . SVG Version: 6.00 Build 0)  -->
<svg version="1.1" id="Layer_1" xmlns="http://www.w3.org/2000/svg" xmlns:xlink="http://www.w3.org/1999/xlink" x="0px" y="0px"
	 width="24px" height="24px" viewBox="0 0 24 24" enable-background="new 0 0 24 24" xml:space="preserve">
<polygon fill="#0072C6" points="5,2 23,2 23,6 24,6 24,1 24,1 5,1 "/>
<polygon fill="#0072C6" points="5,22 24,22 24,17 24,17 23,17 23,21 5,21 "/>
<polygon fill="#59B4D9" points="4.5,7 14.58,7 13.46,8.12 14.161,8.833 16.5,6.495 14.18,4.175 13.473,4.882 14.591,6 4.5,6 "/>
<polygon fill="#59B4D9" points="4.5,17 14.58,17 13.46,18.12 14.161,18.833 16.5,16.495 14.18,14.175 13.473,14.882 14.591,16 
	4.5,16 "/>
<polygon fill="#59B4D9" points="9.5,12 19.58,12 18.46,13.12 19.161,13.833 21.5,11.495 19.18,9.175 18.473,9.882 19.591,11 9.5,11 
	"/>
<path fill="#7FBA00" d="M2.5,5C3.327,5,4,5.673,4,6.5S3.327,8,2.5,8S1,7.327,1,6.5S1.673,5,2.5,5 M2.5,4C1.119,4,0,5.119,0,6.5
	S1.119,9,2.5,9S5,7.881,5,6.5S3.881,4,2.5,4L2.5,4z"/>
<path fill="#7FBA00" d="M2.5,15C3.327,15,4,15.673,4,16.5S3.327,18,2.5,18S1,17.327,1,16.5S1.673,15,2.5,15 M2.5,14
	C1.119,14,0,15.119,0,16.5S1.119,19,2.5,19S5,17.881,5,16.5S3.881,14,2.5,14L2.5,14z"/>
<path fill="#7FBA00" d="M7.5,10C8.327,10,9,10.673,9,11.5S8.327,13,7.5,13S6,12.327,6,11.5S6.673,10,7.5,10 M7.5,9
	C6.119,9,5,10.119,5,11.5S6.119,14,7.5,14s2.5-1.119,2.5-2.5S8.881,9,7.5,9L7.5,9z"/>
</svg>
