<?xml version="1.0" encoding="utf-8"?>
<!-- Generator: Adobe Illustrator 21.1.0, SVG Export Plug-In . SVG Version: 6.00 Build 0)  -->
<svg version="1.1" id="Layer_1" xmlns="http://www.w3.org/2000/svg" xmlns:xlink="http://www.w3.org/1999/xlink" x="0px" y="0px"
	 width="24px" height="24px" viewBox="0 0 24 24" enable-background="new 0 0 24 24" xml:space="preserve">
<rect y="11" fill="#59B4D9" width="18.45" height="1"/>
<polygon fill="#59B4D9" points="10.793,6 5.293,11.5 6.708,11.5 11.207,7 13.45,7 13.45,6 "/>
<polygon fill="#59B4D9" points="8.207,16 3.707,11.5 2.292,11.5 7.793,17 11.45,17 11.45,16 "/>
<g>
	<path fill="#0072C6" d="M23,1H1v5h1V2h20v4h1V1L23,1z M23,17h-1v4H2v-4H1v5h22V17L23,17z"/>
</g>
<path fill="#7FBA00" d="M15.5,5C16.327,5,17,5.673,17,6.5S16.327,8,15.5,8C14.673,8,14,7.327,14,6.5S14.673,5,15.5,5 M15.5,4
	C14.119,4,13,5.119,13,6.5S14.119,9,15.5,9S18,7.881,18,6.5S16.881,4,15.5,4L15.5,4z"/>
<path fill="#7FBA00" d="M13.5,15c0.827,0,1.5,0.673,1.5,1.5S14.327,18,13.5,18c-0.827,0-1.5-0.673-1.5-1.5S12.673,15,13.5,15
	 M13.5,14c-1.381,0-2.5,1.119-2.5,2.5s1.119,2.5,2.5,2.5s2.5-1.119,2.5-2.5S14.881,14,13.5,14L13.5,14z"/>
<path fill="#7FBA00" d="M20.5,10c0.827,0,1.5,0.673,1.5,1.5S21.327,13,20.5,13c-0.827,0-1.5-0.673-1.5-1.5S19.673,10,20.5,10
	 M20.5,9c-1.381,0-2.5,1.119-2.5,2.5s1.119,2.5,2.5,2.5s2.5-1.119,2.5-2.5S21.881,9,20.5,9L20.5,9z"/>
</svg>
