<?xml version="1.0" encoding="utf-8"?>
<!-- Generator: Adobe Illustrator 21.1.0, SVG Export Plug-In . SVG Version: 6.00 Build 0)  -->
<!DOCTYPE svg PUBLIC "-//W3C//DTD SVG 1.1//EN" "http://www.w3.org/Graphics/SVG/1.1/DTD/svg11.dtd">
<svg version="1.1" id="Layer_1" xmlns="http://www.w3.org/2000/svg" xmlns:xlink="http://www.w3.org/1999/xlink" x="0px" y="0px"
	 width="24px" height="24px" viewBox="0 0 24 24" enable-background="new 0 0 24 24" xml:space="preserve">
<path fill="#7FBA00" d="M8,4H4v4h4V4z"/>
<path fill="#7FBA00" d="M4,14h4v-4H4V14z"/>
<path fill="#7FBA00" d="M10,17h4v-4h-4V17z"/>
<path fill="#7FBA00" d="M14,7h-4v4h4V7z"/>
<path fill="#7FBA00" d="M16,10v4h4v-4H16z"/>
<path fill="#7FBA00" d="M4,20h4v-4H4V20z"/>
<polygon fill="#0072C6" points="2,2 22,2 22,6 23,6 23,1 1,1 1,6 2,6 "/>
<polygon fill="#0072C6" points="22,18 22,22 2,22 2,18 1,18 1,23 23,23 23,18 "/>
<path opacity="0.2" fill="#FFFFFF" enable-background="new    " d="M6,4H4v4h2V4L6,4z"/>
<path opacity="0.2" fill="#FFFFFF" enable-background="new    " d="M6,10H4v4h2V10L6,10z"/>
<path opacity="0.2" fill="#FFFFFF" enable-background="new    " d="M6,16H4v4h2V16L6,16z"/>
<path opacity="0.2" fill="#FFFFFF" enable-background="new    " d="M12,13h-2v4h2V13L12,13z"/>
<path opacity="0.2" fill="#FFFFFF" enable-background="new    " d="M12,7h-2v4h2V7L12,7z"/>
<path opacity="0.2" fill="#FFFFFF" enable-background="new    " d="M18,10h-2v4h2V10L18,10z"/>
</svg>
