<?xml version="1.0" encoding="utf-8"?>
<!-- Generator: Adobe Illustrator 21.1.0, SVG Export Plug-In . SVG Version: 6.00 Build 0)  -->
<svg version="1.1" id="Layer_1" xmlns="http://www.w3.org/2000/svg" xmlns:xlink="http://www.w3.org/1999/xlink" x="0px" y="0px"
	 width="24px" height="24px" viewBox="0 0 24 24" enable-background="new 0 0 24 24" xml:space="preserve">
<rect x="4.526" y="15" fill="#804998" width="13.797" height="1"/>
<rect x="2.808" y="10.554" transform="matrix(0.7071 -0.7071 0.7071 0.7071 -5.7758 8.1634)" fill="#804998" width="8.317" height="1"/>
<rect x="15.565" y="6.787" transform="matrix(0.7071 -0.7071 0.7071 0.7071 -3.1484 14.6127)" fill="#804998" width="1" height="8.64"/>
<path fill="#B8D432" d="M20.5,13c-1.381,0-2.5,1.119-2.5,2.5s1.119,2.5,2.5,2.5s2.5-1.119,2.5-2.5S21.881,13,20.5,13z M20.5,17
	c-0.828,0-1.5-0.672-1.5-1.5s0.672-1.5,1.5-1.5s1.5,0.672,1.5,1.5C22,16.328,21.328,17,20.5,17z"/>
<path fill="#B8D432" d="M11.5,4C10.119,4,9,5.119,9,6.5S10.119,9,11.5,9S14,7.881,14,6.5S12.881,4,11.5,4z M11.5,8
	C10.672,8,10,7.328,10,6.5S10.672,5,11.5,5S13,5.672,13,6.5S12.328,8,11.5,8z"/>
<path fill="#B8D432" d="M2.5,14C3.327,14,4,14.673,4,15.5S3.327,17,2.5,17S1,16.327,1,15.5S1.673,14,2.5,14 M2.5,13
	C1.119,13,0,14.119,0,15.5S1.119,18,2.5,18S5,16.881,5,15.5S3.881,13,2.5,13L2.5,13z"/>
</svg>
