<?xml version="1.0" encoding="utf-8"?>
<!-- Generator: Adobe Illustrator 21.1.0, SVG Export Plug-In . SVG Version: 6.00 Build 0)  -->
<!DOCTYPE svg PUBLIC "-//W3C//DTD SVG 1.1//EN" "http://www.w3.org/Graphics/SVG/1.1/DTD/svg11.dtd">
<svg version="1.1" id="Layer_1" xmlns="http://www.w3.org/2000/svg" xmlns:xlink="http://www.w3.org/1999/xlink" x="0px" y="0px"
	 width="24px" height="24px" viewBox="0 0 24 24" enable-background="new 0 0 24 24" xml:space="preserve">
<polygon fill="#0879DA" points="1.406,11.5 6.687,16.781 5.984,17.484 0,11.5 5.992,5.508 6.695,6.211 "/>
<polygon fill="#0879DA" points="17.27,6.176 17.973,5.473 24,11.5 17.984,17.516 17.281,16.813 22.594,11.5 "/>
<polygon fill="#FDBD00" points="13.555,10 18.167,10 6.917,22.5 6.917,22.5 9.445,14 5.938,14 9.542,3 17,3 "/>
<polygon fill="#FCD100" points="10.292,11.708 13.458,11.708 6.917,22.5 6.917,22.5 9.445,14 5.938,14 9.542,3 13.667,3 "/>
</svg>
