<?xml version="1.0" encoding="utf-8"?>
<!-- Generator: Adobe Illustrator 21.1.0, SVG Export Plug-In . SVG Version: 6.00 Build 0)  -->
<svg version="1.1" id="Layer_1" xmlns="http://www.w3.org/2000/svg" xmlns:xlink="http://www.w3.org/1999/xlink" x="0px" y="0px"
	 width="24px" height="24px" viewBox="0 0 24 24" enable-background="new 0 0 24 24" xml:space="preserve">
<path fill="#59B4D9" d="M12,3c-3.866,0-7,3.134-7,7s3.134,7,7,7s7-3.134,7-7S15.866,3,12,3L12,3z"/>
<path fill="#3E3E3E" d="M6,12c0,1.105-0.895,2-2,2s-2-0.895-2-2V7c0-1.105,0.895-2,2-2s2,0.895,2,2V12z"/>
<path fill="#3E3E3E" d="M22,12c0,1.105-0.895,2-2,2s-2-0.895-2-2V7c0-1.105,0.895-2,2-2s2,0.895,2,2V12z"/>
<path fill="#3E3E3E" d="M4,14v-1h7.5c0.276,0,0.5,0.224,0.5,0.5S11.776,14,11.5,14H4z"/>
<path fill="#3E3E3E" d="M4.976,5.458C6.275,2.892,8.932,1.125,12,1.125s5.725,1.767,7.024,4.333h1.25C18.899,2.249,15.713,0,12,0
	S5.101,2.249,3.726,5.458H4.976z"/>
<path fill="#59B4D9" d="M22.578,24c-0.925-3.262-3.312-5.908-6.414-7.179C14.95,17.564,13.528,18,12,18s-2.95-0.436-4.164-1.179
	C4.734,18.091,2.347,20.738,1.422,24H22.578z"/>
</svg>
