<?xml version="1.0" encoding="utf-8"?>
<!-- Generator: Adobe Illustrator 21.1.0, SVG Export Plug-In . SVG Version: 6.00 Build 0)  -->
<svg version="1.1" id="Layer_1" xmlns="http://www.w3.org/2000/svg" xmlns:xlink="http://www.w3.org/1999/xlink" x="0px" y="0px"
	 width="24px" height="24px" viewBox="0 0 24 24" enable-background="new 0 0 24 24" xml:space="preserve">
<polygon fill="#3C9BE4" points="2,9 2,24 11,24 12,24 21,24 21,9 "/>
<polygon opacity="0.2" fill="#FFFFFF" enable-background="new    " points="2,9 2,24 6.5,24 7,24 11.5,24 11.5,9 "/>
<path fill="#A0A1A2" d="M18,9V6.117c0-0.844-0.152-1.637-0.457-2.379s-0.727-1.391-1.266-1.945s-1.174-0.992-1.904-1.312
	S12.852,0,12,0h-1c-0.852,0-1.643,0.16-2.373,0.48S7.262,1.238,6.723,1.793S5.762,2.996,5.457,3.738S5,5.273,5,6.117V9h1V6.117
	c0-0.709,0.129-1.382,0.382-1.999C6.637,3.498,6.993,2.95,7.44,2.49c0.446-0.459,0.98-0.827,1.589-1.094C9.628,1.133,10.292,1,11,1
	h1c0.708,0,1.372,0.133,1.971,0.396c0.608,0.267,1.143,0.635,1.589,1.094c0.447,0.46,0.803,1.008,1.058,1.628
	C16.871,4.736,17,5.408,17,6.117V9H18z"/>
<path fill="#FFFFFF" d="M15.5,18c-0.46,0-0.867,0.212-1.142,0.538l-5.361-2.01C8.997,16.518,9,16.509,9,16.5
	s-0.003-0.018-0.003-0.028l5.361-2.01C14.633,14.788,15.04,15,15.5,15c0.828,0,1.5-0.672,1.5-1.5S16.328,12,15.5,12
	S14,12.672,14,13.5c0,0.01,0.003,0.018,0.003,0.028l-5.361,2.01C8.367,15.212,7.96,15,7.5,15C6.672,15,6,15.672,6,16.5
	C6,17.328,6.672,18,7.5,18c0.46,0,0.867-0.212,1.142-0.538l5.361,2.01c0,0.01-0.003,0.018-0.003,0.028c0,0.828,0.672,1.5,1.5,1.5
	c0.828,0,1.5-0.672,1.5-1.5S16.328,18,15.5,18z"/>
</svg>
