<svg version="1.1" width="50" height="50" viewBox="0 0 50 50" xmlns="http://www.w3.org/2000/svg" xmlns:xlink="http://www.w3.org/1999/xlink" id="Layer_1" overflow="hidden"><path d=" M 19.4 45.9 L 22.2 42.1 C 14.9 40.5 8.1 34.3 7.4 26.4 C 6.7 17.8 12.2 10.1 20.3 7.9 L 23.3 4 L 19.5 0.5 C 7.5 3.3 -1 14.5 0.1 27.1 C 1.1 39.1 10.6 48.4 22.1 49.8 L 19.4 45.9 Z" fill="#0072C6"/><path d=" M 28.8 0.2 L 31.2 4.1 L 27.9 7.7 C 35.2 9.4 42 15.6 42.7 23.4 C 43.4 31.9 38 39.6 30 41.9 L 27.7 46.2 L 31.2 49.2 C 42.9 46.2 51 35.2 49.9 22.8 C 48.9 11 39.9 1.9 28.8 0.2 Z" fill="#0072C6"/><rect x="12.7" y="21.5" width="4.1" height="9.7" fill="#0072C6"/><rect x="19.5" y="16" width="4.1" height="15.2" fill="#59B4D9"/><rect x="26.3" y="22.9" width="4.1" height="8.3" fill="#3999C6"/><rect x="33.2" y="18.7" width="4.1" height="12.4" fill="#0072C6"/></svg>