<?xml version="1.0" encoding="utf-8"?>
<!-- Generator: Adobe Illustrator 21.1.0, SVG Export Plug-In . SVG Version: 6.00 Build 0)  -->
<svg version="1.1" id="Layer_1" xmlns="http://www.w3.org/2000/svg" xmlns:xlink="http://www.w3.org/1999/xlink" x="0px" y="0px"
	 width="24px" height="24px" viewBox="0 0 24 24" enable-background="new 0 0 24 24" xml:space="preserve">
<path fill="#804998" d="M20,16h-4v4h4V16L20,16z"/>
<path fill="#0072C6" d="M22,2v20H2V2H22 M23,1H1v22h22V1L23,1z"/>
<path fill="#804998" d="M8,16H4v4h4V16L8,16z"/>
<path fill="#FF8C00" d="M14,16h-4v4h4V16L14,16z"/>
<path fill="#BA141A" d="M8,10H4v4h4V10L8,10z"/>
<g>
	<polygon fill="#3C9BE4" points="14,10 10,10 10,14 14,14 14,10 	"/>
</g>
<path fill="#FCD116" d="M8,4H4v4h4V4L8,4z"/>
<path opacity="0.2" fill="#FFFFFF" enable-background="new    " d="M6,4H4v4h2V4L6,4z"/>
<path opacity="0.2" fill="#FFFFFF" enable-background="new    " d="M6,10H4v4h2V10L6,10z"/>
<path opacity="0.2" fill="#FFFFFF" enable-background="new    " d="M6,16H4v4h2V16L6,16z"/>
<path opacity="0.2" fill="#FFFFFF" enable-background="new    " d="M12,16h-2v4h2V16L12,16z"/>
<path opacity="0.2" fill="#FFFFFF" enable-background="new    " d="M18,16h-2v4h2V16L18,16z"/>
<path opacity="0.2" fill="#FFFFFF" enable-background="new    " d="M12,10h-2v4h2V10L12,10z"/>
</svg>
