<?xml version="1.0" encoding="utf-8"?>
<!-- Generator: Adobe Illustrator 21.1.0, SVG Export Plug-In . SVG Version: 6.00 Build 0)  -->
<svg version="1.1" id="Layer_1" xmlns="http://www.w3.org/2000/svg" xmlns:xlink="http://www.w3.org/1999/xlink" x="0px" y="0px"
	 width="24px" height="24px" viewBox="0 0 24 24" enable-background="new 0 0 24 24" xml:space="preserve">
<g>
	<rect x="19" y="19" fill="#0072C6" width="2" height="1"/>
	<path fill="#0072C6" d="M22.995,9H11.95c-0.232-1.141-1.24-2-2.45-2C8.119,7,7,8.119,7,9.5S8.119,12,9.5,12
		c1.209,0,2.218-0.859,2.45-2h11.046L23,10.005L22.995,21L17,20.995L17.004,16H16v4.995C16,21.55,16.45,22,17.005,22h5.991
		C23.55,22,24,21.55,24,20.995V10.005C24,9.45,23.55,9,22.995,9z M9.5,11C8.673,11,8,10.327,8,9.5S8.673,8,9.5,8S11,8.673,11,9.5
		S10.327,11,9.5,11z"/>
	<polygon fill="#0072C6" points="10,15 20.086,15 19.02,16.066 19.727,16.773 22,14.5 19.726,12.226 19.019,12.933 20.086,14 1,14 
		1,3 18,3 18,8 19,8 19,2 0,2 0,15 9,15 9,17 5,17 5,18 14,18 14,17 10,17 	"/>
</g>
</svg>
