<?xml version="1.0" encoding="utf-8"?>
<!-- Generator: Adobe Illustrator 21.1.0, SVG Export Plug-In . SVG Version: 6.00 Build 0)  -->
<svg version="1.1" id="Layer_1" xmlns="http://www.w3.org/2000/svg" xmlns:xlink="http://www.w3.org/1999/xlink" x="0px" y="0px"
	 width="24px" height="24px" viewBox="0 0 24 24" enable-background="new 0 0 24 24" xml:space="preserve">
<path fill="#7FBA00" d="M4.5,12.632c-0.973,0.781-2.207,1.251-3.553,1.251c-0.324,0-0.639-0.033-0.947-0.085v5.131
	c0,0.387,0.057,0.753,0.171,1.1c0.114,0.347,0.272,0.676,0.474,0.987c0.201,0.311,0.44,0.604,0.715,0.88
	c0.275,0.275,0.573,0.534,0.895,0.776s0.662,0.468,1.019,0.677c0.358,0.209,0.718,0.402,1.08,0.58L4.5,24l0.145-0.072
	c0.362-0.177,0.723-0.37,1.08-0.58c0.358-0.209,0.698-0.435,1.019-0.677c0.322-0.242,0.62-0.501,0.895-0.776s0.513-0.568,0.715-0.88
	c0.201-0.311,0.359-0.64,0.474-0.987c0.115-0.347,0.171-0.714,0.171-1.1v-5.131c-0.309,0.052-0.624,0.085-0.947,0.085
	C6.707,13.883,5.473,13.413,4.5,12.632L4.5,12.632z"/>
<path opacity="0.15" fill="#FFFFFF" enable-background="new    " d="M4.5,12.632L4.5,12.632c-0.973,0.781-2.207,1.251-3.553,1.251
	c-0.324,0-0.639-0.033-0.947-0.085v5.131c0,0.387,0.057,0.753,0.171,1.1c0.114,0.347,0.272,0.676,0.474,0.987
	c0.201,0.311,0.44,0.604,0.715,0.88c0.275,0.275,0.573,0.534,0.895,0.776s0.662,0.468,1.019,0.677
	c0.358,0.209,0.718,0.402,1.08,0.58L4.5,24V12.632z"/>
<g>
	<rect x="10" y="15" fill="#0072C6" width="4" height="1"/>
	<path fill="#0072C6" d="M10,13h10.086l-1.066,1.066l0.707,0.707L22,12.5l-2.274-2.274l-0.707,0.707L20.086,12H5.345
		c0.795,0.569,1.719,0.882,2.702,0.882c0.231-0.002,0.499-0.023,0.787-0.071l1.165-0.195L10,13z"/>
	<path fill="#0072C6" d="M0.166,12.812c0.285,0.048,0.541,0.071,0.781,0.071c0.986,0,1.912-0.313,2.708-0.883H1V1h17v5h1V0H0v12.784
		L0.166,12.812z"/>
	<path fill="#0072C6" d="M22.995,7H11.95c-0.232-1.141-1.24-2-2.45-2C8.119,5,7,6.119,7,7.5S8.119,10,9.5,10
		c1.209,0,2.218-0.859,2.45-2h11.046L23,8.005L22.995,19L17,18.995L17.004,14H16v4.995C16,19.55,16.45,20,17.005,20h5.991
		C23.55,20,24,19.55,24,18.995V8.005C24,7.45,23.55,7,22.995,7z M9.5,9C8.673,9,8,8.327,8,7.5S8.673,6,9.5,6S11,6.673,11,7.5
		S10.327,9,9.5,9z"/>
	<rect x="19" y="17" fill="#0072C6" width="2" height="1"/>
</g>
</svg>
