<?xml version="1.0" encoding="utf-8"?>
<!-- Generator: Adobe Illustrator 21.1.0, SVG Export Plug-In . SVG Version: 6.00 Build 0)  -->
<!DOCTYPE svg PUBLIC "-//W3C//DTD SVG 1.1//EN" "http://www.w3.org/Graphics/SVG/1.1/DTD/svg11.dtd">
<svg version="1.1" id="Layer_1" xmlns="http://www.w3.org/2000/svg" xmlns:xlink="http://www.w3.org/1999/xlink" x="0px" y="0px"
	 width="24px" height="24px" viewBox="0 0 24 24" enable-background="new 0 0 24 24" xml:space="preserve">
<polygon fill="#59B4D9" points="15.812,13.741 19.727,19.739 20.562,19.186 16.67,13.227 "/>
<polygon fill="#006DD6" points="12.725,13.5 11.221,17.151 12.197,17.406 13.647,13.883 "/>
<polygon fill="#59B4D9" points="11.201,10.466 5.845,11.232 5.757,12.254 11.158,11.482 "/>
<polygon fill="#006DD6" points="12.427,7.348 9.466,4.027 8.707,4.677 11.672,8.004 "/>
<path fill="#7FBA00" d="M10,0H5v5h5V0L10,0z"/>
<path opacity="0.2" fill="#FFFFFF" d="M10,0L10,0H5v5L10,0z"/>
<path fill="#7FBA00" d="M6,10H2v4h4V10L6,10z"/>
<path fill="#7FBA00" d="M13,17H9v4h4V17L13,17z"/>
<path fill="#7FBA00" d="M24,19h-5v5h5V19L24,19z"/>
<path fill="#7FBA00" d="M18,7h-7v7h7V7L18,7z"/>
<path opacity="0.2" fill="#FFFFFF" d="M18,7L18,7h-7v7L18,7z"/>
<path opacity="0.2" fill="#FFFFFF" d="M24,19L24,19h-5v5L24,19z"/>
<path opacity="0.2" fill="#FFFFFF" d="M13,17L13,17H9v4L13,17z"/>
<path opacity="0.2" fill="#FFFFFF" d="M6,10L6,10H2v4L6,10z"/>
</svg>
