<?xml version="1.0" encoding="utf-8"?>
<!-- Generator: Adobe Illustrator 21.1.0, SVG Export Plug-In . SVG Version: 6.00 Build 0)  -->
<svg version="1.1" id="Layer_1" xmlns="http://www.w3.org/2000/svg" xmlns:xlink="http://www.w3.org/1999/xlink" x="0px" y="0px"
	 width="24px" height="24px" viewBox="0 0 24 24" enable-background="new 0 0 24 24" xml:space="preserve">
<rect x="10.651" y="4.422" transform="matrix(0.7593 -0.6507 0.6507 0.7593 -1.6069 8.8429)" fill="#7FBA00" width="1" height="4.343"/>
<rect x="5.415" y="10.852" transform="matrix(0.9899 -0.1416 0.1416 0.9899 -1.5215 1.3225)" fill="#7FBA00" width="6.234" height="1"/>
<rect x="10.018" y="14.933" transform="matrix(0.3808 -0.9247 0.9247 0.3808 -6.5497 21.0861)" fill="#7FBA00" width="4.901" height="1"/>
<rect x="17.257" y="12.707" transform="matrix(0.8638 -0.5038 0.5038 0.8638 -5.6844 11.1365)" fill="#7FBA00" width="1" height="6.751"/>
<g>
	<polygon fill="#3C9BE4" points="18,2 22,2 22,6 23,6 23,1 23,1 18,1 	"/>
</g>
<g>
	<polygon fill="#3C9BE4" points="6,22 2,22 2,18 1,18 1,23 6,23 	"/>
</g>
<path fill="#0072C6" d="M14.5,7C12.567,7,11,8.567,11,10.5s1.567,3.5,3.5,3.5s3.5-1.567,3.5-3.5S16.433,7,14.5,7L14.5,7z"/>
<path fill="#0072C6" d="M8.5,1C7.119,1,6,2.119,6,3.5S7.119,6,8.5,6S11,4.881,11,3.5S9.881,1,8.5,1L8.5,1z"/>
<path fill="#0072C6" d="M20.5,18c-1.381,0-2.5,1.119-2.5,2.5s1.119,2.5,2.5,2.5s2.5-1.119,2.5-2.5S21.881,18,20.5,18L20.5,18z"/>
<path fill="#0072C6" d="M4,10c-1.105,0-2,0.895-2,2s0.895,2,2,2s2-0.895,2-2S5.105,10,4,10L4,10z"/>
<path fill="#0072C6" d="M11,17c-1.105,0-2,0.895-2,2s0.895,2,2,2s2-0.895,2-2S12.105,17,11,17L11,17z"/>
</svg>
