<?xml version="1.0" encoding="utf-8"?>
<!-- Generator: Adobe Illustrator 21.1.0, SVG Export Plug-In . SVG Version: 6.00 Build 0)  -->
<svg version="1.1" id="Layer_1" xmlns="http://www.w3.org/2000/svg" xmlns:xlink="http://www.w3.org/1999/xlink" x="0px" y="0px"
	 width="24px" height="24px" viewBox="0 0 24 24" enable-background="new 0 0 24 24" xml:space="preserve">
<path fill="#FCD116" d="M11.5,1C8.462,1,6,3.462,6,6.5c0,2.41,1.553,4.453,3.71,5.196l-1.162,1.166l1.414,1.414L8.548,15.69
	l1.414,1.414l-1.414,1.414l2.828,2.828L14,18.722v-7.327c1.78-0.911,3-2.758,3-4.895C17,3.462,14.538,1,11.5,1z M12.428,4.876
	c-0.048,0.122-0.122,0.232-0.221,0.331s-0.21,0.173-0.331,0.221C11.754,5.476,11.629,5.5,11.5,5.5s-0.254-0.024-0.376-0.072
	c-0.122-0.048-0.232-0.122-0.331-0.221s-0.173-0.21-0.221-0.331C10.524,4.754,10.5,4.629,10.5,4.5s0.023-0.254,0.072-0.376
	c0.048-0.122,0.122-0.232,0.221-0.331s0.21-0.173,0.331-0.221C11.245,3.524,11.371,3.5,11.5,3.5c0.128,0,0.254,0.024,0.376,0.072
	c0.12,0.048,0.231,0.122,0.331,0.221c0.099,0.099,0.173,0.21,0.221,0.331C12.476,4.246,12.499,4.371,12.5,4.5
	C12.5,4.629,12.476,4.754,12.428,4.876z"/>
<path opacity="0.4" fill="#FF8C00" enable-background="new    " d="M12,11.975v7.253l1-1v-6.44
	C12.677,11.879,12.344,11.944,12,11.975z"/>
<path opacity="0.4" fill="#FFFFFF" enable-background="new    " d="M11.5,10c1.762,0,3.205-1.306,3.45-3h-6.9
	C8.295,8.694,9.738,10,11.5,10z"/>
<path fill="#7FBA00" d="M17.42,3.83c0.239,0.528,0.407,1.094,0.498,1.686C19.807,7.253,21,9.737,21,12.5c0,5.238-4.262,9.5-9.5,9.5
	S2,17.738,2,12.5c0-2.763,1.193-5.247,3.083-6.984C5.173,4.924,5.341,4.358,5.58,3.83C2.816,5.721,1,8.898,1,12.5
	C1,18.299,5.701,23,11.5,23S22,18.299,22,12.5C22,8.898,20.184,5.721,17.42,3.83z"/>
</svg>
