<?xml version="1.0" encoding="utf-8"?>
<!-- Generator: Adobe Illustrator 21.1.0, SVG Export Plug-In . SVG Version: 6.00 Build 0)  -->
<svg version="1.1" id="Layer_1" xmlns="http://www.w3.org/2000/svg" xmlns:xlink="http://www.w3.org/1999/xlink" x="0px" y="0px"
	 width="24px" height="24px" viewBox="0 0 24 24" enable-background="new 0 0 24 24" xml:space="preserve">
<polygon fill="#7FBA00" points="11.5,0 0,11.5 11.5,23 23,11.5 "/>
<polygon opacity="0.2" fill="#FFFFFF" enable-background="new    " points="11.5,0 11.5,0 0,11.5 11.5,23 "/>
<polygon fill="#FFFFFF" points="6.68,9.175 5.973,9.882 7.091,11 4,11 4,12 7.08,12 5.96,13.12 6.661,13.833 9,11.495 "/>
<polygon fill="#FFFFFF" points="19,11 15.909,11 17.027,9.882 16.32,9.175 14,11.495 16.339,13.833 17.04,13.12 15.92,12 19,12 "/>
<polygon fill="#FFFFFF" points="13.122,15.973 11.982,17.113 11.982,13.986 10.982,13.986 10.982,17.059 9.884,15.96 9.171,16.661 
	11.509,19 13.829,16.68 "/>
<polygon fill="#FFFFFF" points="13.829,6.32 11.51,4 9.171,6.339 9.884,7.04 10.982,5.941 10.982,9.022 11.982,9.022 11.982,5.887 
	13.122,7.027 "/>
</svg>
