<?xml version="1.0" encoding="utf-8"?>
<!-- Generator: Adobe Illustrator 19.1.0, SVG Export Plug-In . SVG Version: 6.00 Build 0)  -->
<!DOCTYPE svg PUBLIC "-//W3C//DTD SVG 1.1//EN" "http://www.w3.org/Graphics/SVG/1.1/DTD/svg11.dtd">
<svg version="1.1" id="Layer_1" xmlns="http://www.w3.org/2000/svg" xmlns:xlink="http://www.w3.org/1999/xlink" x="0px" y="0px"
	 viewBox="-267 426 50 50" style="enable-background:new -267 426 50 50;" xml:space="preserve">
<style type="text/css">
	.st0{fill:#3999C6;}
	.st1{fill:#59B4D9;}
	.st2{fill:#FFFFFF;}
</style>
<g>
	<path class="st0" d="M-254,463v-16.9c-7.3,1-13,7.2-13,14.9c0,8.3,6.7,15,15,15c7.6,0,13.9-5.7,14.9-13H-254z"/>
	<path class="st1" d="M-234.5,426c9.8,0,17.5,7.7,17.5,17.5s-7.7,17.5-17.5,17.5c-4.5,0-17.5,0-17.5,0v-17.5
		C-252,433.7-244.3,426-234.5,426z"/>
	<rect x="-262" y="457" class="st2" width="4" height="4"/>
	<rect x="-258" y="469" class="st2" width="4" height="4"/>
	<rect x="-246" y="465" class="st2" width="4" height="4"/>
	<path class="st2" d="M-246,441h4v12h-4V441z"/>
	<path class="st2" d="M-238,445h4v8h-4V445z"/>
	<path class="st2" d="M-230,437h4v16h-4V437z"/>
</g>
</svg>
