<?xml version="1.0" encoding="utf-8"?>
<!-- Generator: Adobe Illustrator 21.1.0, SVG Export Plug-In . SVG Version: 6.00 Build 0)  -->
<svg version="1.1" id="Layer_1" xmlns="http://www.w3.org/2000/svg" xmlns:xlink="http://www.w3.org/1999/xlink" x="0px" y="0px"
	 width="24px" height="24px" viewBox="0 0 24 24" enable-background="new 0 0 24 24" xml:space="preserve">
<path fill="#59B4D9" d="M15.5,0C11.358,0,8,3.358,8,7.5V15h7.5c4.142,0,7.5-3.358,7.5-7.5S19.642,0,15.5,0L15.5,0z"/>
<rect x="8" y="16" fill="#0072C6" width="1" height="1"/>
<rect x="8" y="20" fill="#0072C6" width="1" height="1"/>
<rect x="8" y="18" fill="#0072C6" width="1" height="1"/>
<path fill="#0072C6" d="M14,16v1h0.849c0.066-0.326,0.103-0.661,0.125-1H14z"/>
<path fill="#0072C6" d="M14,18v1h0.131c0.169-0.32,0.311-0.655,0.433-1H14z"/>
<path fill="#0072C6" d="M11,22h-1v0.564c0.345-0.122,0.68-0.264,1-0.433V22z"/>
<rect x="12" y="18" fill="#0072C6" width="1" height="1"/>
<rect x="12" y="16" fill="#0072C6" width="1" height="1"/>
<path fill="#0072C6" d="M13,20h-1v1h0.587c0.143-0.133,0.281-0.27,0.413-0.413V20z"/>
<rect x="10" y="18" fill="#0072C6" width="1" height="1"/>
<rect x="10" y="20" fill="#0072C6" width="1" height="1"/>
<rect x="2" y="12" fill="#0072C6" width="1" height="1"/>
<path fill="#0072C6" d="M5,8.436C4.655,8.558,4.32,8.7,4,8.869V9h1V8.436z"/>
<rect x="2" y="14" fill="#0072C6" width="1" height="1"/>
<path fill="#0072C6" d="M1,15v-1H0.151c-0.066,0.326-0.103,0.661-0.125,1H1z"/>
<rect x="2" y="18" fill="#0072C6" width="1" height="1"/>
<path fill="#0072C6" d="M1,13v-1H0.869c-0.169,0.32-0.311,0.655-0.433,1H1z"/>
<path fill="#0072C6" d="M7,22H6v0.849c0.326,0.066,0.661,0.103,1,0.125V22z"/>
<path fill="#0072C6" d="M6,8.151V9h1V8.025C6.661,8.048,6.326,8.085,6,8.151z"/>
<path fill="#0072C6" d="M5,22H4v0.131c0.32,0.169,0.655,0.311,1,0.433V22z"/>
<path fill="#0072C6" d="M3,20H2v0.587C2.133,20.73,2.27,20.867,2.413,21H3V20z"/>
<path fill="#0072C6" d="M1,19v-1H0.436c0.122,0.345,0.264,0.68,0.433,1H1z"/>
<path fill="#0072C6" d="M1,16H0.025c0.022,0.339,0.059,0.674,0.125,1H1V16z"/>
<rect x="4" y="18" fill="#0072C6" width="1" height="1"/>
<rect x="6" y="14" fill="#0072C6" width="1" height="1"/>
<rect x="6" y="16" fill="#0072C6" width="1" height="1"/>
<rect x="6" y="12" fill="#0072C6" width="1" height="1"/>
<rect x="6" y="20" fill="#0072C6" width="1" height="1"/>
<rect x="6" y="18" fill="#0072C6" width="1" height="1"/>
<rect x="4" y="10" fill="#0072C6" width="1" height="1"/>
<rect x="4" y="12" fill="#0072C6" width="1" height="1"/>
<rect x="4" y="14" fill="#0072C6" width="1" height="1"/>
<path fill="#0072C6" d="M2,11h1v-1H2.413C2.27,10.133,2.133,10.27,2,10.413V11z"/>
<rect x="4" y="16" fill="#0072C6" width="1" height="1"/>
<rect x="4" y="20" fill="#0072C6" width="1" height="1"/>
<g>
	<rect x="12" y="5" fill="#FFFFFF" width="1" height="6"/>
</g>
<g>
	<rect x="15" y="6" fill="#FFFFFF" width="1" height="5"/>
</g>
<g>
	<rect x="18" y="4" fill="#FFFFFF" width="1" height="7"/>
</g>
</svg>
