<?xml version="1.0" encoding="utf-8"?>
<!-- Generator: Adobe Illustrator 21.1.0, SVG Export Plug-In . SVG Version: 6.00 Build 0)  -->
<svg version="1.1" id="Layer_1" xmlns="http://www.w3.org/2000/svg" xmlns:xlink="http://www.w3.org/1999/xlink" x="0px" y="0px"
	 width="24px" height="24px" viewBox="0 0 24 24" enable-background="new 0 0 24 24" xml:space="preserve">
<path fill="#59B4D9" d="M23.619,21.336L16,7.453V1h2V0H6v1h2v6.453L0.368,21.336C-0.496,22.776,0.224,24,1.879,24h20.228
	C23.835,24,24.483,22.848,23.619,21.336z"/>
<path fill="#0072C6" d="M22.751,21.832L18.452,14H5.542l-4.298,7.818c-0.23,0.385-0.299,0.714-0.199,0.891
	C1.147,22.888,1.467,23,1.879,23h20.228c0.489,0,0.782-0.128,0.856-0.256C23.041,22.611,23.005,22.277,22.751,21.832z"/>
<path opacity="0.25" fill="#ECF0F1" enable-background="new    " d="M12,7.453V0H6v1h2v6.453L0.368,21.336
	C-0.496,22.776,0.224,24,1.879,24H7.62L12,7.453z"/>
<g>
	<circle fill="#3C9BE4" cx="13" cy="19" r="1"/>
</g>
<g>
	<path fill="#3C9BE4" d="M14.092,14C14.036,14.157,14,14.324,14,14.5c0,0.828,0.672,1.5,1.5,1.5s1.5-0.672,1.5-1.5
		c0-0.176-0.036-0.343-0.092-0.5H14.092z"/>
</g>
</svg>
