<?xml version="1.0" encoding="utf-8"?>
<!-- Generator: Adobe Illustrator 21.1.0, SVG Export Plug-In . SVG Version: 6.00 Build 0)  -->
<svg version="1.1" id="Layer_1" xmlns="http://www.w3.org/2000/svg" xmlns:xlink="http://www.w3.org/1999/xlink" x="0px" y="0px"
	 width="24px" height="24px" viewBox="0 0 24 24" enable-background="new 0 0 24 24" xml:space="preserve">
<path fill="#A0A1A2" d="M10,1c1.653,0,3,1.345,3,2.997V6H6V3.997C6,2.345,7.347,1,9,1h1.003 M10,0H9C6.792,0,5,1.79,5,3.997v2.659h9
	V3.997C14,1.79,12.21,0,10.003,0H10z"/>
<path fill="#7A7A7A" d="M15,0h-1c-0.731,0-1.41,0.211-2,0.554c0.32,0.186,0.617,0.405,0.873,0.67C13.22,1.082,13.602,1,14,1h1
	c1.653,0,3,1.345,3,2.997V6h-4v1h5V3.997C19,1.79,17.208,0,15,0z"/>
<g>
	<path fill="#3C9BE4" d="M1,6.002v14.996C1,22.656,2.344,24,4.002,24h15.996C21.656,24,23,22.656,23,20.998v-0.002V6.002V6L1,6.002z
		"/>
</g>
<path fill="#FFFFFF" d="M12.836,13.023c0.308,0.042,0.594,0.136,0.859,0.281c0.266,0.146,0.495,0.33,0.688,0.551
	c0.192,0.222,0.344,0.473,0.453,0.754S15,15.188,15,15.5c0,0.344-0.066,0.668-0.199,0.973s-0.312,0.57-0.539,0.797
	s-0.491,0.405-0.793,0.535S12.844,18,12.5,18H7c-0.417,0-0.806-0.078-1.168-0.234s-0.68-0.371-0.953-0.645s-0.488-0.591-0.645-0.953
	C4.078,15.807,4,15.417,4,15c0-0.411,0.078-0.799,0.234-1.164c0.156-0.364,0.371-0.684,0.645-0.957s0.591-0.488,0.953-0.645
	S6.583,12,7,12c0.12,0,0.238,0.007,0.355,0.02c0.117,0.014,0.233,0.033,0.348,0.059c0.281-0.344,0.624-0.609,1.027-0.797
	S9.558,11,10,11c0.317,0,0.625,0.048,0.922,0.145s0.57,0.233,0.82,0.41s0.469,0.391,0.656,0.641S12.731,12.722,12.836,13.023z"/>
<path fill="#0072C6" d="M23,6h-6v14.996c0,1.657,1.343,3.001,3,3.002c1.657-0.001,3-1.345,3-3.002V6L23,6z"/>
</svg>
