<?xml version="1.0" encoding="utf-8"?>
<!-- Generator: Adobe Illustrator 21.1.0, SVG Export Plug-In . SVG Version: 6.00 Build 0)  -->
<!DOCTYPE svg PUBLIC "-//W3C//DTD SVG 1.1//EN" "http://www.w3.org/Graphics/SVG/1.1/DTD/svg11.dtd">
<svg version="1.1" id="Layer_1" xmlns="http://www.w3.org/2000/svg" xmlns:xlink="http://www.w3.org/1999/xlink" x="0px" y="0px"
	 width="24px" height="24px" viewBox="0 0 24 24" enable-background="new 0 0 24 24" xml:space="preserve">
<path fill="#59B4D9" d="M20.998,0H3.002C1.344,0,0,1.344,0,3.002v17.997C0,22.656,1.344,24,3.002,24h17.997
	C22.656,24,24,22.656,24,20.998V3.002C24,1.344,22.656,0,20.998,0L20.998,0z"/>
<polygon fill="#FFFFFF" points="8.999,6 18,11.965 8.999,18 "/>
<path opacity="0.2" fill="#FFFFFF" enable-background="new    " d="M12,0H3.002C1.344,0,0,1.344,0,3.002v17.997
	C0,22.656,1.344,24,3.002,24H12V0z"/>
</svg>
