<?xml version="1.0" encoding="utf-8"?>
<!-- Generator: Adobe Illustrator 21.1.0, SVG Export Plug-In . SVG Version: 6.00 Build 0)  -->
<!DOCTYPE svg PUBLIC "-//W3C//DTD SVG 1.1//EN" "http://www.w3.org/Graphics/SVG/1.1/DTD/svg11.dtd">
<svg version="1.1" id="Layer_1" xmlns="http://www.w3.org/2000/svg" xmlns:xlink="http://www.w3.org/1999/xlink" x="0px" y="0px"
	 width="24px" height="24px" viewBox="0 0 24 24" enable-background="new 0 0 24 24" xml:space="preserve">
<polygon fill="#59B4D9" points="3,9 3,24 21,24 21,9 "/>
<polygon opacity="0.29" fill="#FFFFFF" points="3,9 3,24 7.263,24 7.737,24 12,24 12,9 "/>
<path fill="#737373" d="M18,9V6.117c0-0.844-0.152-1.637-0.457-2.379s-0.727-1.391-1.266-1.945s-1.174-0.992-1.904-1.312
	S12.852,0,12,0l0,0c-0.852,0-1.643,0.16-2.373,0.48S8.262,1.238,7.723,1.793S6.762,2.996,6.457,3.738S6,5.273,6,6.117V9h1V6.117
	c0-0.709,0.129-1.382,0.382-1.999C7.637,3.498,7.993,2.95,8.44,2.49c0.446-0.459,0.98-0.827,1.589-1.094C10.628,1.133,11.292,1,12,1
	l0,0c0.708,0,1.372,0.133,1.971,0.396c0.608,0.267,1.143,0.635,1.589,1.094c0.447,0.46,0.803,1.008,1.058,1.628
	C16.871,4.736,17,5.408,17,6.117V9H18z"/>
<polygon fill="#FFFFFF" points="10,13 16,16.977 10,21 "/>
</svg>
