<?xml version="1.0" encoding="utf-8"?>
<!-- Generator: Adobe Illustrator 21.1.0, SVG Export Plug-In . SVG Version: 6.00 Build 0)  -->
<!DOCTYPE svg PUBLIC "-//W3C//DTD SVG 1.1//EN" "http://www.w3.org/Graphics/SVG/1.1/DTD/svg11.dtd">
<svg version="1.1" id="Layer_1" xmlns="http://www.w3.org/2000/svg" xmlns:xlink="http://www.w3.org/1999/xlink" x="0px" y="0px"
	 width="24px" height="24px" viewBox="0 0 24 24" enable-background="new 0 0 24 24" xml:space="preserve">
<path fill="#FFFFFF" enable-background="new    " d="M16,0.5c-1.033,0-2.005,0.197-2.917,0.592C12.172,1.487,11.378,2.023,10.7,2.7
	c-0.678,0.677-1.213,1.472-1.608,2.383C8.698,5.995,8.5,6.967,8.5,8s0.198,2.005,0.592,2.917c0.395,0.912,0.932,1.705,1.608,2.383
	c0.677,0.678,1.472,1.213,2.383,1.608C13.995,15.302,14.967,15.5,16,15.5s2.005-0.198,2.917-0.592
	c0.912-0.397,1.705-0.932,2.383-1.608c0.678-0.677,1.213-1.472,1.608-2.383C23.303,10.005,23.5,9.033,23.5,8
	s-0.197-2.005-0.592-2.917C22.513,4.172,21.977,3.378,21.3,2.7c-0.677-0.678-1.472-1.213-2.383-1.608S17.033,0.5,16,0.5z"/>
<path opacity="0.1" fill="#59B4D9" enable-background="new    " d="M16,1c-0.964,0-1.871,0.184-2.722,0.552s-1.591,0.87-2.224,1.501
	S9.921,4.427,9.552,5.278C9.185,6.129,9,7.035,9,8s0.185,1.871,0.552,2.722c0.369,0.851,0.87,1.591,1.501,2.224
	s1.374,1.132,2.224,1.501C14.129,14.815,15.035,15,16,15s1.871-0.185,2.722-0.552c0.851-0.37,1.591-0.87,2.224-1.501
	c0.633-0.632,1.132-1.374,1.501-2.224C22.816,9.871,23,8.964,23,8s-0.184-1.871-0.552-2.722c-0.369-0.851-0.87-1.591-1.501-2.224
	c-0.632-0.633-1.374-1.132-2.224-1.501C17.871,1.184,16.964,1,16,1z"/>
<path opacity="0.3" fill="#59B4D9" enable-background="new    " d="M12.222,13.881c0.639,0.414,1.346,0.725,2.106,0.913
	C14.88,14.931,15.445,15,16.008,15c3.222,0,6.015-2.192,6.791-5.332c0.492-2.005,0.054-4.021-1.025-5.608
	c-0.19-0.278-0.404-0.54-0.633-0.789C19.655,7.86,16.421,11.659,12.222,13.881"/>
<polygon fill="#59B4D9" points="14,4 20,7.977 14,12 "/>
<path fill="#4A4A4A" d="M16,1c3.86,0,7,3.14,7,7s-3.14,7-7,7s-7-3.14-7-7S12.14,1,16,1 M16,0c-4.418,0-8,3.582-8,8s3.582,8,8,8
	s8-3.582,8-8S20.418,0,16,0L16,0z"/>
<rect x="8.083" y="13.709" transform="matrix(0.7071 -0.7071 0.7071 0.7071 -7.179 11.0854)" fill="#4A4A4A" width="3.418" height="1"/>
<path fill="#0072C6" d="M2.56,23.562l6.891-6.891c0.39-0.39,0.39-1.022,0-1.412l-0.71-0.71c-0.39-0.39-1.022-0.39-1.412,0
	L0.438,21.44c-0.585,0.585-0.585,1.532,0,2.117l0.004,0.004C1.027,24.146,1.975,24.146,2.56,23.562L2.56,23.562z"/>
<path opacity="0.1" fill="#FFFFFF" enable-background="new    " d="M8.741,14.549c-0.39-0.39-1.022-0.39-1.412,0L0.438,21.44
	c-0.582,0.582-0.583,1.523-0.006,2.108l8.654-8.654L8.741,14.549z"/>
</svg>
