<?xml version="1.0" encoding="utf-8"?>
<!-- Generator: Adobe Illustrator 21.1.0, SVG Export Plug-In . SVG Version: 6.00 Build 0)  -->
<!DOCTYPE svg PUBLIC "-//W3C//DTD SVG 1.1//EN" "http://www.w3.org/Graphics/SVG/1.1/DTD/svg11.dtd">
<svg version="1.1" id="Layer_1" xmlns="http://www.w3.org/2000/svg" xmlns:xlink="http://www.w3.org/1999/xlink" x="0px" y="0px"
	 width="24px" height="24px" viewBox="0 0 24 24" enable-background="new 0 0 24 24" xml:space="preserve">
<circle fill="#A0A1A2" cx="11.5" cy="11.5" r="11.5"/>
<circle fill="#FFFFFF" cx="11.5" cy="11.5" r="10.5"/>
<path fill="#DD5900" d="M17.847,5.86c-0.222-0.249-0.458-0.485-0.707-0.707l-4.997,4.997C11.947,10.057,11.731,10,11.5,10
	c-0.828,0-1.5,0.672-1.5,1.5s0.672,1.5,1.5,1.5s1.5-0.672,1.5-1.5c0-0.231-0.057-0.447-0.15-0.643L17.847,5.86z"/>
<path opacity="0.2" fill="#FFFFFF" enable-background="new    " d="M11.5,23C5.149,23,0,17.851,0,11.5S5.149,0,11.5,0V23z"/>
<g>
	<path opacity="0.5" fill="#7FBA00" d="M5.86,5.153L8.707,8C9.352,7.483,10.136,7.148,11,7.051V3.025
		C9.031,3.14,7.244,3.922,5.86,5.153z"/>
	<path opacity="0.4" fill="#7FBA00" d="M5.153,5.86C3.922,7.244,3.14,9.031,3.025,11h4.025C7.148,10.136,7.483,9.352,8,8.707
		L5.153,5.86z"/>
	<path opacity="0.25" fill="#7FBA00" d="M3.025,12c0.125,2.147,1.037,4.083,2.464,5.51l2.83-2.83
		C7.617,13.978,7.167,13.039,7.051,12H3.025z"/>
	<path opacity="0.65" fill="#7FBA00" d="M12,7.03c0.506,0.06,0.985,0.209,1.428,0.421l2.925-2.924
		C15.106,3.657,13.611,3.134,12,3.039V7.03z"/>
</g>
<g>
	<path opacity="0.8" fill="#7FBA00" d="M19.961,11c-0.095-1.611-0.618-3.105-1.487-4.352l-2.925,2.924
		c0.212,0.443,0.36,0.922,0.421,1.428H19.961z"/>
	<path fill="#7FBA00" d="M15.949,12c-0.117,1.039-0.567,1.978-1.269,2.68l2.83,2.83c1.428-1.428,2.339-3.363,2.464-5.51H15.949z"/>
</g>
</svg>
