<?xml version="1.0" encoding="utf-8"?>
<!-- Generator: Adobe Illustrator 19.1.0, SVG Export Plug-In . SVG Version: 6.00 Build 0)  -->
<!DOCTYPE svg PUBLIC "-//W3C//DTD SVG 1.1//EN" "http://www.w3.org/Graphics/SVG/1.1/DTD/svg11.dtd">
<svg version="1.1" id="Layer_1" xmlns="http://www.w3.org/2000/svg" xmlns:xlink="http://www.w3.org/1999/xlink" x="0px" y="0px"
	 viewBox="-267 426 50 50" style="enable-background:new -267 426 50 50;" xml:space="preserve">
<style type="text/css">
	.st0{fill:#FFFFFF;}
	.st1{opacity:0.4;fill:#7FBA00;enable-background:new    ;}
	.st2{opacity:0.8;fill:#7FBA00;enable-background:new    ;}
	.st3{opacity:0.6;fill:#7FBA00;enable-background:new    ;}
	.st4{opacity:0.25;fill:#7FBA00;enable-background:new    ;}
	.st5{fill:#A0A1A2;}
	.st6{opacity:0.2;fill:#FFFFFF;enable-background:new    ;}
	.st7{fill:#7FBA00;}
	.st8{fill:#DD5900;}
	.st9{fill:#FF8C00;}
</style>
<g>
	<path class="st0" d="M-244.2,430.4c-5.7,0.6-10.6,3.4-14,7.6c-3.3,4.1-5.1,9.5-4.5,15.2c0.6,5.7,3.4,10.6,7.6,13.9
		c4.1,3.3,9.5,5.1,15.2,4.5c5.7-0.6,10.6-3.5,14-7.6c3.3-4.1,5.1-9.5,4.5-15.2c-0.6-5.8-3.5-10.7-7.7-14.1c-3.5-2.9-8-4.5-12.9-4.5
		C-242.7,430.3-243.4,430.3-244.2,430.4"/>
	<path class="st1" d="M-250.5,445.5l-5-4.1c-2.2,3.1-3.1,6.7-3,10.2l6.5-0.7C-252.1,449-251.6,447.2-250.5,445.5"/>
	<path class="st2" d="M-236.4,442.3l4.1-5c-3.1-2.2-6.7-3.1-10.2-3l0.7,6.5C-240,440.7-238.1,441.2-236.4,442.3"/>
	<path class="st3" d="M-244.1,441l-0.7-6.5c-3.5,0.6-6.8,2.4-9.3,5.1l5,4.1C-247.7,442.3-246,441.4-244.1,441"/>
	<path class="st4" d="M-251.9,453.2l-6.5,0.7c0.6,3.5,2.3,6.8,5.1,9.4l4.1-5C-250.5,456.8-251.5,455-251.9,453.2"/>
	<path class="st5" d="M-217.1,448.4c-0.7-6.9-4.3-12.9-9.3-16.9c-1-0.8-2-1.5-3.1-2.1l-2,3.8c0.8,0.5,1.6,1,2.4,1.6
		c4.2,3.4,7.1,8.3,7.7,14.1c0.6,5.7-1.2,11.1-4.5,15.2c-3.3,4.1-8.3,7-14,7.6c-3.8,0.4-7.5-0.3-10.7-1.8l-2,3.8
		c4,1.9,8.5,2.7,13.2,2.2c6.9-0.7,12.8-4.2,16.8-9.1C-218.5,461.8-216.4,455.2-217.1,448.4"/>
	<path class="st5" d="M-255,467.1c-4.1-3.3-7-8.2-7.6-13.9c-0.6-5.7,1.2-11.1,4.5-15.2c3.3-4.1,8.2-7,14-7.6c4.6-0.5,9,0.6,12.7,2.8
		l2-3.8c-4.4-2.6-9.7-3.8-15.1-3.2c-6.9,0.7-12.8,4.2-16.8,9.1l0,0c-4,5-6.1,11.5-5.4,18.3c0.7,6.9,4.2,12.8,9.1,16.8
		c1.6,1.3,3.3,2.3,5.2,3.2l2-3.8C-252.2,469.1-253.7,468.2-255,467.1"/>
	<path class="st6" d="M-255,467.1c-4.1-3.3-7-8.2-7.6-13.9c-0.6-5.7,1.2-11.1,4.5-15.2c3.3-4.1,8.2-7,14-7.6c4.6-0.5,9,0.6,12.7,2.8
		l2-3.8c-4.4-2.6-9.7-3.8-15.1-3.2c-6.9,0.7-12.8,4.2-16.8,9.1l0,0c-4,5-6.1,11.5-5.4,18.3c0.7,6.9,4.2,12.8,9.1,16.8
		c1.6,1.3,3.3,2.3,5.2,3.2l2-3.8C-252.2,469.1-253.7,468.2-255,467.1"/>
	<path class="st7" d="M-230.6,438.6l-4.1,5c1,1,1.8,2.2,2.3,3.4h6.8C-226.4,444-228,441-230.6,438.6z"/>
	<path class="st8" d="M-243.9,453c-1.1-1.1-1.2-3,0-4.1c0.6-0.6,1.3-0.9,2.1-0.9c0.7,0,1.5,0.2,2.1,0.8c0,0,0,0,0,0h7.6h6.7l0.6,0
		l0,0c1.2,0,2.1,0.9,2.1,2.1c0,1.2-0.9,2.1-2.1,2.1h-15.1c-0.6,0.5-1.2,0.8-1.9,0.8C-242.6,453.9-243.3,453.6-243.9,453"/>
	<path class="st9" d="M-224.9,448.9L-224.9,448.9h-0.6h-6.7h-7.6c0,0,0,0,0,0c-0.6-0.6-1.3-0.8-2.1-0.8c-0.8,0-1.5,0.3-2.1,0.9
		c-0.6,0.6-0.8,1.3-0.8,2.1h22C-222.7,449.8-223.7,448.9-224.9,448.9z"/>
</g>
</svg>
