<?xml version="1.0" encoding="utf-8"?>
<!-- Generator: Adobe Illustrator 21.1.0, SVG Export Plug-In . SVG Version: 6.00 Build 0)  -->
<svg version="1.1" id="Layer_1" xmlns="http://www.w3.org/2000/svg" xmlns:xlink="http://www.w3.org/1999/xlink" x="0px" y="0px"
	 width="24px" height="24px" viewBox="0 0 24 24" enable-background="new 0 0 24 24" xml:space="preserve">
<polygon fill="#3E3E3E" points="8,12 8,3 16,3 16,10 17,10 17,0 7,0 7,12 6,12 6,24 18,24 18,12 "/>
<g>
	<path fill="#FFFFFF" d="M14,17c0-1.105-0.895-2-2-2s-2,0.895-2,2c0,0.738,0.405,1.376,1,1.723V21h2v-2.277
		C13.595,18.376,14,17.738,14,17z"/>
</g>
<rect x="11" y="1" fill="#B8D432" width="2" height="1"/>
<polygon opacity="0.2" fill="#FFFFFF" points="12,12 8,12 8,3 12,3 12,0 7,0 7,12 6,12 6,24 12,24 "/>
</svg>
