<?xml version="1.0" encoding="utf-8"?>
<!-- Generator: Adobe Illustrator 21.1.0, SVG Export Plug-In . SVG Version: 6.00 Build 0)  -->
<svg version="1.1" id="Layer_1" xmlns="http://www.w3.org/2000/svg" xmlns:xlink="http://www.w3.org/1999/xlink" x="0px" y="0px"
	 width="24px" height="24px" viewBox="0 0 24 24" enable-background="new 0 0 24 24" xml:space="preserve">
<path fill="#0072C6" d="M12,7C7.03,7,3,5.433,3,3.5v17c0,1.933,4.03,3.5,9,3.5s9-1.567,9-3.5v-17C21,5.433,16.97,7,12,7z"/>
<g>
	<path fill="#3C9BE4" d="M3,3.5v17c0,1.933,4.03,3.5,9,3.5V7C7.03,7,3,5.433,3,3.5z"/>
</g>
<path fill="#FF8C00" d="M12,1C6.824,1,4,2.651,4,3.5S6.824,6,12,6s8-1.651,8-2.5S17.176,1,12,1z"/>
<path fill="#DD5900" d="M5.896,5C7.249,5.55,9.301,6,12,6s4.751-0.45,6.104-1C16.751,4.45,14.699,4,12,4S7.249,4.45,5.896,5z"/>
<path fill="#FFFFFF" d="M12,1c5.176,0,8,1.652,8,2.5S17.176,6,12,6S4,4.348,4,3.5S6.824,1,12,1 M12,0C7.029,0,3,1.567,3,3.5
	S7.029,7,12,7s9-1.567,9-3.5S16.971,0,12,0L12,0z"/>
<path fill="#FFFFFF" d="M5,16.559h1.117v-4.912l1.73,4.282c0.204,0.519,0.483,0.702,1.031,0.702s0.817-0.184,1.021-0.702l1.73-4.282
	v4.912h1.117v-4.904c0-0.478-0.172-0.71-0.526-0.829c-0.849-0.295-1.418-0.04-1.676,0.598L8.847,15.65l-1.644-4.226
	c-0.247-0.638-0.827-0.893-1.676-0.598C5.172,10.944,5,11.176,5,11.654V16.559L5,16.559z"/>
<path fill="#FFFFFF" d="M13.677,12.56h1.117v2.706c-0.011,0.147,0.043,0.492,0.654,0.503c0.312,0.006,2.41,0,2.43,0v-3.222h1.12
	c0.005,0-0.001,4.394-0.001,4.413c0.006,1.084-1.208,1.319-1.768,1.337H13.7V17.46c0.006,0,3.526,0.001,3.535,0
	c0.719-0.084,0.634-0.483,0.634-0.616v-0.326h-2.375c-1.105-0.011-1.809-0.548-1.818-1.166
	C13.676,15.295,13.701,12.587,13.677,12.56L13.677,12.56z"/>
</svg>
