<?xml version="1.0" encoding="utf-8"?>
<!-- Generator: Adobe Illustrator 21.1.0, SVG Export Plug-In . SVG Version: 6.00 Build 0)  -->
<svg version="1.1" id="Layer_1" xmlns="http://www.w3.org/2000/svg" xmlns:xlink="http://www.w3.org/1999/xlink" x="0px" y="0px"
	 width="24px" height="24px" viewBox="0 0 24 24" enable-background="new 0 0 24 24" xml:space="preserve">
<path fill="#4A9F49" d="M4,0h19v24H4V0z"/>
<rect x="1" y="2" fill="#FCD116" width="3" height="11"/>
<rect x="1" y="15" fill="#FCD116" width="3" height="5"/>
<path fill="#1E1E1E" d="M19,3h-5v7h5V3L19,3z"/>
<path fill="#E5E5E5" d="M20,13h-9v3h9V13L20,13z"/>
<path fill="#E5E5E5" d="M12,18H7v3h5V18L12,18z"/>
<path fill="#1E1E1E" d="M16,18h-3v3h3V18L16,18z"/>
<path opacity="0.3" fill="#1E1E1E" d="M15,16h-1v2h1V16L15,16z"/>
<path opacity="0.3" fill="#1E1E1E" d="M19,16h-1v2h1V16L19,16z"/>
<path fill="#E5E5E5" d="M10,3H7v3h3V3L10,3z"/>
<path fill="#1E1E1E" d="M20,18h-3v3h3V18L20,18z"/>
<polygon opacity="0.3" fill="#1E1E1E" points="16,10 16,11 12,11 12,13 13,13 13,12 17,12 17,10 "/>
<rect x="19" y="4" fill="#E5E5E5" width="1" height="1"/>
<rect x="19" y="6" fill="#E5E5E5" width="1" height="1"/>
<rect x="19" y="8" fill="#E5E5E5" width="1" height="1"/>
<rect x="13" y="8" fill="#E5E5E5" width="1" height="1"/>
<rect x="13" y="6" fill="#E5E5E5" width="1" height="1"/>
<polygon opacity="0.3" fill="#1E1E1E" points="14,4 11,4 11,8 7,8 7,15 11,15 11,14 8,14 8,9 12,9 12,5 14,5 "/>
</svg>
