<?xml version="1.0" encoding="utf-8"?>
<!-- Generator: Adobe Illustrator 21.1.0, SVG Export Plug-In . SVG Version: 6.00 Build 0)  -->
<svg version="1.1" id="Layer_1" xmlns="http://www.w3.org/2000/svg" xmlns:xlink="http://www.w3.org/1999/xlink" x="0px" y="0px"
	 width="24px" height="24px" viewBox="0 0 24 24" enable-background="new 0 0 24 24" xml:space="preserve">
<path fill="#0072C6" d="M19,2.641c-2.84,0-5.445-0.992-7.5-2.641C9.445,1.649,6.84,2.641,4,2.641c-0.683,0-1.348-0.07-2-0.18v10.833
	c0,0.816,0.121,1.59,0.361,2.323c0.24,0.732,0.574,1.427,1,2.083c0.425,0.656,0.928,1.276,1.509,1.857
	c0.581,0.581,1.21,1.127,1.89,1.639c0.68,0.511,1.397,0.988,2.152,1.429c0.755,0.442,1.516,0.849,2.281,1.224L11.5,24l0.306-0.151
	c0.765-0.374,1.526-0.782,2.281-1.224c0.755-0.442,1.473-0.918,2.152-1.43c0.68-0.511,1.309-1.058,1.89-1.639
	c0.581-0.581,1.084-1.2,1.509-1.857c0.425-0.656,0.758-1.351,1-2.083S21,14.109,21,13.294V2.461C20.348,2.57,19.683,2.641,19,2.641z
	"/>
<g>
	<path fill="#59B4D9" d="M11,11V1.58c-2.089,1.347-4.48,2.06-7,2.06c-0.326,0-0.658-0.014-1-0.044V11H11z"/>
</g>
<g>
	<path fill="#59B4D9" d="M20,12v1.294c0,0.705-0.105,1.382-0.311,2.011c-0.212,0.645-0.511,1.268-0.889,1.851
		c-0.386,0.596-0.85,1.166-1.377,1.693c-0.545,0.546-1.145,1.066-1.784,1.547c-0.647,0.487-1.339,0.946-2.056,1.365
		c-0.52,0.304-1.052,0.58-1.583,0.854V12H20z"/>
</g>
<path opacity="0.15" fill="#FFFFFF" enable-background="new    " d="M19,2.641c-2.84,0-5.445-0.992-7.5-2.641
	C9.445,1.649,6.84,2.641,4,2.641c-0.683,0-1.348-0.07-2-0.18v10.833c0,0.816,0.121,1.59,0.361,2.323c0.24,0.732,0.574,1.427,1,2.083
	c0.246,0.38,0.526,0.744,0.824,1.099L20.449,2.534C19.973,2.595,19.493,2.641,19,2.641z"/>
</svg>
