<?xml version="1.0" encoding="utf-8"?>
<!-- Generator: Adobe Illustrator 21.1.0, SVG Export Plug-In . SVG Version: 6.00 Build 0)  -->
<svg version="1.1" id="Layer_1" xmlns="http://www.w3.org/2000/svg" xmlns:xlink="http://www.w3.org/1999/xlink" x="0px" y="0px"
	 width="24px" height="24px" viewBox="0 0 24 24" enable-background="new 0 0 24 24" xml:space="preserve">
<g>
	<path fill="#3C9BE4" d="M16,0c-4.246,0-7.71,3.311-7.974,7.49C8.789,7.176,9.624,7,10.5,7c3.59,0,6.5,2.91,6.5,6.5
		c0,0.876-0.176,1.711-0.49,2.474C20.689,15.71,24,12.246,24,8C24,3.582,20.418,0,16,0z"/>
</g>
<path fill="#3E3E3E" d="M10.5,8c0.505,0,0.992,0.065,1.461,0.195c0.469,0.13,0.906,0.315,1.312,0.555
	c0.406,0.24,0.777,0.527,1.113,0.863s0.623,0.707,0.863,1.113c0.239,0.406,0.424,0.844,0.555,1.312C15.935,12.508,16,12.995,16,13.5
	c0,0.506-0.065,0.992-0.195,1.461c-0.131,0.469-0.315,0.906-0.555,1.312c-0.24,0.406-0.527,0.777-0.863,1.113
	s-0.707,0.624-1.113,0.863s-0.844,0.425-1.312,0.555S11.005,19,10.5,19c-0.651,0-1.275-0.109-1.871-0.328
	c-0.597-0.219-1.145-0.534-1.645-0.945l-6.133,6.125C0.752,23.95,0.635,24,0.5,24c-0.136,0-0.253-0.05-0.352-0.148
	C0.049,23.753,0,23.636,0,23.5s0.049-0.253,0.148-0.352l6.125-6.133c-0.412-0.5-0.727-1.048-0.945-1.645
	C5.109,14.775,5,14.151,5,13.5c0-0.505,0.065-0.992,0.195-1.461c0.13-0.469,0.315-0.906,0.555-1.312
	c0.239-0.406,0.527-0.777,0.863-1.113S7.32,8.99,7.727,8.75C8.133,8.511,8.57,8.326,9.039,8.195C9.508,8.065,9.995,8,10.5,8z
	 M10.5,18c0.62,0,1.203-0.118,1.75-0.355s1.023-0.559,1.43-0.965s0.728-0.883,0.965-1.43C14.881,14.703,15,14.12,15,13.5
	s-0.119-1.203-0.355-1.75c-0.237-0.547-0.559-1.023-0.965-1.43s-0.883-0.728-1.43-0.965C11.703,9.119,11.12,9,10.5,9
	S9.297,9.119,8.75,9.355C8.203,9.593,7.727,9.914,7.32,10.32s-0.728,0.883-0.965,1.43S6,12.88,6,13.5s0.118,1.203,0.355,1.75
	s0.559,1.023,0.965,1.43s0.883,0.728,1.43,0.965S9.88,18,10.5,18z"/>
<path fill="#0072C6" d="M21.59,2.282c0.533,1.11,0.84,2.348,0.84,3.662c0,3.617-2.267,6.696-5.453,7.918
	c-0.025,0.467-0.086,0.927-0.208,1.368c-0.071,0.256-0.161,0.503-0.26,0.744C20.689,15.711,24,12.247,24,8
	C24,5.758,23.075,3.735,21.59,2.282z"/>
<path fill="#FFFFFF" d="M10.5,18c0.62,0,1.203-0.118,1.75-0.355s1.023-0.559,1.43-0.965s0.728-0.883,0.965-1.43
	C14.881,14.703,15,14.12,15,13.5s-0.119-1.203-0.355-1.75c-0.237-0.547-0.559-1.023-0.965-1.43s-0.883-0.728-1.43-0.965
	C11.703,9.119,11.12,9,10.5,9S9.297,9.119,8.75,9.355C8.203,9.593,7.727,9.914,7.32,10.32s-0.728,0.883-0.965,1.43S6,12.88,6,13.5
	s0.118,1.203,0.355,1.75s0.559,1.023,0.965,1.43s0.883,0.728,1.43,0.965S9.88,18,10.5,18z"/>
<path opacity="0.1" fill="#59B4D9" enable-background="new    " d="M10.5,9C9.88,9,9.297,9.118,8.75,9.355S7.727,9.914,7.32,10.32
	s-0.728,0.883-0.965,1.43C6.119,12.297,6,12.88,6,13.5s0.119,1.203,0.355,1.75c0.237,0.547,0.559,1.023,0.965,1.43
	s0.883,0.728,1.43,0.965C9.297,17.881,9.88,18,10.5,18s1.203-0.119,1.75-0.355c0.547-0.238,1.023-0.559,1.43-0.965
	c0.407-0.406,0.728-0.883,0.965-1.43C14.882,14.703,15,14.12,15,13.5s-0.118-1.203-0.355-1.75c-0.237-0.547-0.559-1.023-0.965-1.43
	s-0.883-0.728-1.43-0.965S11.12,9,10.5,9z"/>
<path opacity="0.3" fill="#59B4D9" enable-background="new    " d="M8.071,17.281c0.411,0.266,0.865,0.466,1.354,0.587
	C9.78,17.956,10.143,18,10.505,18c2.071,0,3.867-1.409,4.366-3.428c0.316-1.289,0.035-2.585-0.659-3.605
	c-0.122-0.179-0.26-0.347-0.407-0.507C12.85,13.41,10.771,15.852,8.071,17.281"/>
<path fill="#FFFFFF" d="M20,8c0-0.686-0.031-1.353-0.084-2h3.822c-0.088-0.342-0.194-0.677-0.325-1h-3.601
	c-0.226-1.785-0.643-3.356-1.196-4.554c-0.418-0.145-0.851-0.254-1.297-0.329C17.945,1.135,18.516,2.82,18.803,5h-5.607
	c0.287-2.18,0.858-3.865,1.484-4.882c-0.446,0.074-0.879,0.184-1.297,0.329C12.831,1.644,12.414,3.215,12.188,5H8.587
	C8.456,5.323,8.35,5.658,8.262,6h3.822c-0.031,0.385-0.036,0.791-0.05,1.19c0.336,0.081,0.665,0.183,0.978,0.315
	C13.025,6.985,13.05,6.482,13.09,6h5.819C18.963,6.635,19,7.296,19,8s-0.037,1.365-0.09,2h-2.938c0.203,0.317,0.382,0.649,0.529,1
	h2.303c-0.287,2.18-0.858,3.865-1.484,4.882c0.446-0.074,0.879-0.184,1.297-0.329c0.553-1.198,0.97-2.769,1.196-4.554h3.601
	c0.131-0.323,0.237-0.658,0.325-1h-3.822C19.969,9.353,20,8.686,20,8z"/>
</svg>
