<?xml version="1.0" encoding="utf-8"?>
<!-- Generator: Adobe Illustrator 21.1.0, SVG Export Plug-In . SVG Version: 6.00 Build 0)  -->
<!DOCTYPE svg PUBLIC "-//W3C//DTD SVG 1.1//EN" "http://www.w3.org/Graphics/SVG/1.1/DTD/svg11.dtd">
<svg version="1.1" id="Layer_1" xmlns="http://www.w3.org/2000/svg" xmlns:xlink="http://www.w3.org/1999/xlink" x="0px" y="0px"
	 width="24px" height="24px" viewBox="0 0 24 24" enable-background="new 0 0 24 24" xml:space="preserve">
<polygon fill="#FF8C00" points="5.992,15.695 1.297,11 24,11 24,1 0,1 0,8 18.018,8 18.018,4.315 22.703,9 0,9 0,18 3,18 3,24 9,18 
	24,18 24,12 5.992,12 "/>
<g opacity="0.2">
	<polygon fill="#FFFFFF" points="12,11 12,9 0,9 0,18 3,18 3,24 9,18 12,18 12,12 5.992,12 5.992,15.695 1.297,11 	"/>
	<rect y="1" fill="#FFFFFF" width="12" height="7"/>
</g>
</svg>
