<?xml version="1.0" encoding="utf-8"?>
<!-- Generator: Adobe Illustrator 21.1.0, SVG Export Plug-In . SVG Version: 6.00 Build 0)  -->
<svg version="1.1" id="Layer_1" xmlns="http://www.w3.org/2000/svg" xmlns:xlink="http://www.w3.org/1999/xlink" x="0px" y="0px"
	 width="24px" height="24px" viewBox="0 0 24 24" enable-background="new 0 0 24 24" xml:space="preserve">
<rect y="5" fill="#0072C6" width="23" height="17"/>
<polygon opacity="0.15" fill="#FFFFFF" enable-background="new    " points="6,22 0,22 0,5 17,5 "/>
<path fill="#FFFFFF" d="M6.5,14C5.672,14,5,14.672,5,15.5C5,16.328,5.672,17,6.5,17S8,16.328,8,15.5S7.328,14,6.5,14L6.5,14z"/>
<path fill="#FFFFFF" d="M11.5,14c-0.828,0-1.5,0.672-1.5,1.5c0,0.828,0.672,1.5,1.5,1.5s1.5-0.672,1.5-1.5S12.328,14,11.5,14
	L11.5,14z"/>
<path fill="#FFFFFF" d="M16.5,14c-0.828,0-1.5,0.672-1.5,1.5c0,0.828,0.672,1.5,1.5,1.5c0.828,0,1.5-0.672,1.5-1.5
	S17.328,14,16.5,14L16.5,14z"/>
<rect y="2" fill="#A0A1A2" width="23" height="4"/>
</svg>
