<?xml version="1.0" encoding="utf-8"?>
<!-- Generator: Adobe Illustrator 21.1.0, SVG Export Plug-In . SVG Version: 6.00 Build 0)  -->
<svg version="1.1" id="Layer_1" xmlns="http://www.w3.org/2000/svg" xmlns:xlink="http://www.w3.org/1999/xlink" x="0px" y="0px"
	 width="24px" height="24px" viewBox="0 0 24 24" enable-background="new 0 0 24 24" xml:space="preserve">
<path fill="#0072C6" d="M0,3.5v15C0,20.433,4.03,22,9,22s9-1.567,9-3.5v-15H0z"/>
<path fill="#3C9BE4" d="M9,3.5H0v15C0,20.433,4.03,22,9,22V3.5z"/>
<path fill="#0072C6" d="M12,10.5v11c0,1.381,2.687,2.5,6,2.5s6-1.119,6-2.5v-11l0,0H12z"/>
<path fill="#3C9BE4" d="M18,10.5L18,10.5h-6v11c0,1.381,2.687,2.5,6,2.5V10.5z"/>
<path fill="#FFFFFF" d="M18,9c3.281,0,5,1.115,5,1.5S21.281,12,18,12s-5-1.115-5-1.5S14.719,9,18,9 M18,8c-3.313,0-6,1.119-6,2.5
	s2.687,2.5,6,2.5s6-1.119,6-2.5S21.313,8,18,8L18,8z"/>
<path fill="#B8D432" d="M18,9c3.281,0,5,1.115,5,1.5S21.281,12,18,12s-5-1.115-5-1.5S14.719,9,18,9"/>
<path fill="#7FBA00" d="M14.59,11.5C15.417,11.777,16.546,12,18,12s2.583-0.223,3.41-0.5C20.583,11.223,19.454,11,18,11
	S15.417,11.223,14.59,11.5z"/>
<polygon fill="#FFFFFF" points="20.695,17.249 16.019,21.945 17.224,18.31 15.305,18.31 19.981,13.655 18.776,17.249 "/>
<path fill="#B8D432" d="M9,1C3.824,1,1,2.651,1,3.5S3.824,6,9,6s8-1.651,8-2.5S14.176,1,9,1z"/>
<path fill="#7FBA00" d="M2.896,5C4.249,5.55,6.301,6,9,6s4.751-0.45,6.104-1C13.751,4.45,11.699,4,9,4S4.249,4.45,2.896,5z"/>
<path fill="#FFFFFF" d="M9,1c5.176,0,8,1.652,8,2.5S14.176,6,9,6S1,4.348,1,3.5S3.824,1,9,1 M9,0C4.029,0,0,1.567,0,3.5S4.029,7,9,7
	s9-1.567,9-3.5S13.971,0,9,0L9,0z"/>
</svg>
