<?xml version="1.0" encoding="utf-8"?>
<!-- Generator: Adobe Illustrator 21.1.0, SVG Export Plug-In . SVG Version: 6.00 Build 0)  -->
<!DOCTYPE svg PUBLIC "-//W3C//DTD SVG 1.1//EN" "http://www.w3.org/Graphics/SVG/1.1/DTD/svg11.dtd">
<svg version="1.1" id="Layer_1" xmlns="http://www.w3.org/2000/svg" xmlns:xlink="http://www.w3.org/1999/xlink" x="0px" y="0px"
	 width="24px" height="24px" viewBox="0 0 24 24" enable-background="new 0 0 24 24" xml:space="preserve">
<polygon fill="#0072C6" points="2,2 22,2 22,6 23,6 23,1 1,1 1,6 2,6 "/>
<polygon fill="#0072C6" points="22,18 22,22 2,22 2,18 1,18 1,23 23,23 23,18 "/>
<g>
	
		<rect x="5.281" y="11.525" transform="matrix(0.4472 -0.8944 0.8944 0.4472 -5.5108 15.1331)" fill="#0072C6" width="8.413" height="1"/>
</g>
<g>
	
		<rect x="14.016" y="7.832" transform="matrix(0.8944 -0.4472 0.4472 0.8944 -3.8479 7.7613)" fill="#0072C6" width="1" height="8.399"/>
</g>
<path fill="#7FBA00" d="M12,5c-1.105,0-2,0.895-2,2s0.895,2,2,2s2-0.895,2-2S13.105,5,12,5L12,5z"/>
<path fill="#59B4D9" d="M7,15c-1.105,0-2,0.895-2,2s0.895,2,2,2s2-0.895,2-2S8.105,15,7,15L7,15z"/>
<path fill="#59B4D9" d="M17,15c-1.105,0-2,0.895-2,2s0.895,2,2,2s2-0.895,2-2S18.105,15,17,15L17,15z"/>
</svg>
