<?xml version="1.0" encoding="utf-8"?>
<!-- Generator: Adobe Illustrator 21.1.0, SVG Export Plug-In . SVG Version: 6.00 Build 0)  -->
<svg version="1.1" id="Layer_1" xmlns="http://www.w3.org/2000/svg" xmlns:xlink="http://www.w3.org/1999/xlink" x="0px" y="0px"
	 width="24px" height="24px" viewBox="0 0 24 24" enable-background="new 0 0 24 24" xml:space="preserve">
<path fill="#FEE087" d="M21.998,5H21H11c-0.197,0-1.955,0.041-2.848,1.47C7.84,6.969,7.008,7,7,7H0v1v13h23V6.002
	C23,5.449,22.551,5,21.998,5z"/>
<path fill="#FEE087" d="M7.324,5.908c0.534-0.837,1.28-1.295,1.965-1.559C9.183,4.248,9.084,4.134,9,4C8.375,3,7,3,7,3H1.002
	C0.449,3,0,3.449,0,4.002V6l6.958,0.001C7.082,5.994,7.256,5.949,7.324,5.908z"/>
<path opacity="0.4" fill="#DD5900" d="M7.324,5.908c0.534-0.837,1.28-1.295,1.965-1.559C9.183,4.248,9.084,4.134,9,4
	C8.375,3,7,3,7,3H1.002C0.449,3,0,3.449,0,4.002V6l6.958,0.001C7.082,5.994,7.256,5.949,7.324,5.908z"/>
<polygon fill="#DD5900" points="8,11.641 8,15.86 11,17.352 11,13.141 "/>
<polygon fill="#DD5900" points="14.383,10.836 11.5,9.398 8.617,10.836 11.5,12.273 "/>
<polygon fill="#DD5900" points="12,17.352 15,15.86 15,11.641 12,13.141 "/>
</svg>
