<?xml version="1.0" encoding="utf-8"?>
<!-- Generator: Adobe Illustrator 21.1.0, SVG Export Plug-In . SVG Version: 6.00 Build 0)  -->
<svg version="1.1" id="Layer_1" xmlns="http://www.w3.org/2000/svg" xmlns:xlink="http://www.w3.org/1999/xlink" x="0px" y="0px"
	 width="24px" height="24px" viewBox="0 0 24 24" enable-background="new 0 0 24 24" xml:space="preserve">
<polygon fill="#A0A1A2" points="5,22.372 0,19.485 0,4.515 5,1.628 5,2.783 1,5.093 1,18.907 5,21.217 "/>
<polygon fill="#A0A1A2" points="23,4.515 23,19.485 18,22.372 18,21.217 22,18.907 22,5.093 18,2.783 18,1.628 "/>
<g>
	<polygon fill="#3C9BE4" points="11.5,12 3,7.093 3,16.907 11.5,21.815 	"/>
</g>
<polygon fill="#59B4D9" points="20,7.093 11.5,2.185 3,7.093 11.5,12 "/>
<polygon fill="#0072C6" points="11.5,12 20,7.093 20,16.907 11.5,21.815 "/>
</svg>
