<?xml version="1.0" encoding="utf-8"?>
<!-- Generator: Adobe Illustrator 21.1.0, SVG Export Plug-In . SVG Version: 6.00 Build 0)  -->
<svg version="1.1" id="Layer_1" xmlns="http://www.w3.org/2000/svg" xmlns:xlink="http://www.w3.org/1999/xlink" x="0px" y="0px"
	 width="24px" height="24px" viewBox="0 0 24 24" enable-background="new 0 0 24 24" xml:space="preserve">
<path fill="#59B4D9" d="M14,4c-3.314,0-6,2.686-6,6s2.686,6,6,6s6-2.686,6-6S17.314,4,14,4L14,4z"/>
<polygon fill="#A0A1A2" points="6,0 6,9 1.914,9 3.417,7.497 2.711,6.789 0,9.5 2.71,12.21 3.417,11.503 1.914,10 7,10 7,0 "/>
<path fill="#59B4D9" d="M17.911,15.803C16.793,16.558,15.447,17,14,17s-2.793-0.442-3.911-1.197C6.805,17.202,4.418,20.301,4.05,24
	h19.9C23.582,20.301,21.195,17.202,17.911,15.803z"/>
</svg>
