<?xml version="1.0" encoding="utf-8"?>
<!-- Generator: Adobe Illustrator 21.1.0, SVG Export Plug-In . SVG Version: 6.00 Build 0)  -->
<svg version="1.1" id="Layer_1" xmlns="http://www.w3.org/2000/svg" xmlns:xlink="http://www.w3.org/1999/xlink" x="0px" y="0px"
	 width="24px" height="24px" viewBox="0 0 24 24" enable-background="new 0 0 24 24" xml:space="preserve">
<path fill="#FFFFFF" d="M13,3.564V5h-1c-3.86,0-7,3.14-7,7c0,2.323,1.14,4.439,3,5.729V16h3v4.436c0.329,0.039,0.661,0.064,1,0.064
	c4.694,0,8.5-3.806,8.5-8.5C20.5,7.645,17.222,4.06,13,3.564z"/>
<path fill="#A0A1A2" d="M5,23.372l-5-2.887V3.515l5-2.887v1.155l-4,2.31v15.815l4,2.309V23.372z M24,3.515v16.97l-5,2.887v-1.155
	l4-2.309V4.093l-4-2.309V0.628L24,3.515z"/>
<polygon fill="#1E1E1E" points="12,12 12,6 11,6 11,13 16,13 16,12 "/>
<path fill="#7FBA00" d="M12,4V3c-4.971,0-9,4.029-9,9c0,3.489,1.987,6.508,4.89,8H6v1h4v-4H9v2.399C6.074,18.21,4,15.348,4,12
	C4,7.589,7.589,4,12,4z"/>
<path fill="#59B4D9" d="M13,3.059v1.011c3.94,0.495,7,3.859,7,7.931c0,4.411-3.589,8-8,8c-0.339,0-0.672-0.028-1-0.069v1.011
	C11.329,20.978,11.662,21,12,21c4.971,0,9-4.029,9-9C21,7.368,17.499,3.557,13,3.059z"/>
</svg>
