<?xml version="1.0" encoding="utf-8"?>
<!-- Generator: Adobe Illustrator 21.1.0, SVG Export Plug-In . SVG Version: 6.00 Build 0)  -->
<svg version="1.1" id="Layer_1" xmlns="http://www.w3.org/2000/svg" xmlns:xlink="http://www.w3.org/1999/xlink" x="0px" y="0px"
	 width="24px" height="24px" viewBox="0 0 24 24" enable-background="new 0 0 24 24" xml:space="preserve">
<path fill="#FFFFFF" d="M13,0.551V2h-1C6.486,2,2,6.486,2,12c0,2.707,1.095,5.255,3,7.118V17h3v5.771
	c1.247,0.464,2.591,0.729,4,0.729c6.351,0,11.5-5.149,11.5-11.5C23.5,5.986,18.882,1.058,13,0.551z"/>
<rect x="11" y="4" fill="#1E1E1E" width="1" height="9"/>
<rect x="12" y="12" fill="#1E1E1E" width="5" height="1"/>
<g>
	<path fill="#A0A1A2" d="M16.057,20.026l0.751,1.301c0.297-0.153,0.585-0.32,0.865-0.501l-0.749-1.298
		C16.646,19.711,16.355,19.875,16.057,20.026z"/>
	<path fill="#A0A1A2" d="M12,21c-0.169,0-0.333-0.016-0.5-0.025v1.5c0.167,0.008,0.331,0.025,0.5,0.025s0.333-0.017,0.5-0.025v-1.5
		C12.333,20.984,12.169,21,12,21z"/>
	<path fill="#A0A1A2" d="M22.475,12.5c0.008-0.167,0.025-0.331,0.025-0.5s-0.017-0.333-0.025-0.5h-1.5
		C20.984,11.667,21,11.831,21,12s-0.016,0.333-0.025,0.5H22.475z"/>
	<path fill="#A0A1A2" d="M20.026,7.944l1.301-0.751c-0.154-0.297-0.321-0.586-0.501-0.866l-1.298,0.749
		C19.711,7.354,19.875,7.645,20.026,7.944z"/>
	<path fill="#A0A1A2" d="M20.026,16.057c-0.151,0.298-0.315,0.589-0.497,0.867l1.298,0.749c0.18-0.28,0.347-0.568,0.501-0.865
		L20.026,16.057z"/>
	<path fill="#A0A1A2" d="M16.808,2.673l-0.751,1.301c0.298,0.151,0.589,0.315,0.867,0.497l0.749-1.298
		C17.393,2.993,17.105,2.826,16.808,2.673z"/>
</g>
<path fill="#7FBA00" d="M12,0C5.373,0,0,5.373,0,12c0,4.183,2.147,7.854,5.393,10H2v1h5v-5H6v3.197C2.996,19.233,1,15.85,1,12
	C1,5.935,5.935,1,12,1V0z"/>
<path fill="#59B4D9" d="M13,0.05v1C18.598,1.558,23,6.273,23,12c0,6.065-4.935,11-11,11c-1.412,0-2.758-0.277-4-0.764v1.067
	C9.253,23.746,10.595,24,12,24c6.627,0,12-5.373,12-12C24,5.711,19.158,0.56,13,0.05z"/>
<path fill="#A0A1A2" d="M12,2c-0.169,0-0.333,0.017-0.5,0.025v1C11.667,3.016,11.831,3,12,3s0.333,0.016,0.5,0.025V2H12z"/>
<path fill="#A0A1A2" d="M7.076,4.472c0.278-0.183,0.569-0.347,0.867-0.498L7.444,3.109c-0.297,0.153-0.586,0.319-0.865,0.5
	L7.076,4.472z"/>
<path fill="#A0A1A2" d="M3.974,7.944c0.151-0.299,0.315-0.589,0.498-0.867L3.609,6.579C3.428,6.858,3.262,7.147,3.109,7.445
	L3.974,7.944z"/>
<path fill="#A0A1A2" d="M2.025,12.5h1C3.016,12.333,3,12.169,3,12s0.016-0.333,0.025-0.5h-1C2.017,11.667,2,11.831,2,12
	C2,12.168,2.017,12.333,2.025,12.5z"/>
<path fill="#A0A1A2" d="M3.114,16.554c0.153,0.296,0.32,0.584,0.502,0.864l0.856-0.494c-0.183-0.278-0.347-0.569-0.498-0.867
	L3.114,16.554z"/>
</svg>
