<?xml version="1.0" encoding="utf-8"?>
<!-- Generator: Adobe Illustrator 21.1.0, SVG Export Plug-In . SVG Version: 6.00 Build 0)  -->
<svg version="1.1" id="Layer_1" xmlns="http://www.w3.org/2000/svg" xmlns:xlink="http://www.w3.org/1999/xlink" x="0px" y="0px"
	 width="24px" height="24px" viewBox="0 0 24 24" enable-background="new 0 0 24 24" xml:space="preserve">
<path fill="#59B4D9" d="M23.643,8.73c-0.238-0.547-0.562-1.021-0.973-1.424c-0.411-0.403-0.891-0.721-1.441-0.955S20.09,6,19.465,6
	c-0.109-0.852-0.357-1.645-0.744-2.379c-0.387-0.734-0.877-1.369-1.471-1.904c-0.594-0.535-1.275-0.955-2.045-1.26
	C14.435,0.152,13.617,0,12.75,0c-0.578,0-1.141,0.07-1.688,0.211S10,0.555,9.516,0.82S8.584,1.412,8.174,1.799
	C7.764,2.186,7.402,2.621,7.09,3.105C6.723,3.035,6.359,3,6,3C5.172,3,4.393,3.156,3.662,3.469c-0.731,0.313-1.367,0.74-1.91,1.283
	c-0.543,0.543-0.971,1.18-1.283,1.91C0.157,7.392,0,8.172,0,9s0.156,1.607,0.469,2.338c0.313,0.731,0.74,1.367,1.283,1.91
	c0.543,0.543,1.18,0.971,1.91,1.283c0.148,0.063,0.3,0.116,0.453,0.167C4.042,14.309,4,13.91,4,13.5C4,9.91,6.91,7,10.5,7
	S17,9.91,17,13.5c0,0.517-0.067,1.018-0.181,1.5H19.5c0.617,0,1.199-0.117,1.746-0.352c0.547-0.235,1.025-0.557,1.436-0.967
	c0.411-0.41,0.732-0.887,0.967-1.43C23.884,11.708,24,11.125,24,10.5C24,9.867,23.881,9.277,23.643,8.73z"/>
<path fill="#3E3E3E" d="M10.5,8c0.505,0,0.992,0.065,1.461,0.195c0.469,0.13,0.906,0.315,1.312,0.555
	c0.406,0.24,0.777,0.527,1.113,0.863s0.623,0.707,0.863,1.113c0.239,0.406,0.424,0.844,0.555,1.312C15.935,12.508,16,12.995,16,13.5
	c0,0.506-0.065,0.992-0.195,1.461c-0.131,0.469-0.315,0.906-0.555,1.312c-0.24,0.406-0.527,0.777-0.863,1.113
	s-0.707,0.624-1.113,0.863s-0.844,0.425-1.312,0.555S11.005,19,10.5,19c-0.651,0-1.275-0.109-1.871-0.328
	c-0.597-0.219-1.145-0.534-1.645-0.945l-6.133,6.125C0.752,23.95,0.635,24,0.5,24c-0.136,0-0.253-0.05-0.352-0.148
	C0.049,23.753,0,23.636,0,23.5s0.049-0.253,0.148-0.352l6.125-6.133c-0.412-0.5-0.727-1.048-0.945-1.645
	C5.109,14.775,5,14.151,5,13.5c0-0.505,0.065-0.992,0.195-1.461c0.13-0.469,0.315-0.906,0.555-1.312
	c0.239-0.406,0.527-0.777,0.863-1.113S7.32,8.99,7.727,8.75C8.133,8.511,8.57,8.326,9.039,8.195C9.508,8.065,9.995,8,10.5,8z
	 M10.5,18c0.62,0,1.203-0.118,1.75-0.355s1.023-0.559,1.43-0.965s0.728-0.883,0.965-1.43C14.881,14.703,15,14.12,15,13.5
	s-0.119-1.203-0.355-1.75c-0.237-0.547-0.559-1.023-0.965-1.43s-0.883-0.728-1.43-0.965C11.703,9.119,11.12,9,10.5,9
	S9.297,9.119,8.75,9.355C8.203,9.593,7.727,9.914,7.32,10.32s-0.728,0.883-0.965,1.43S6,12.88,6,13.5s0.118,1.203,0.355,1.75
	s0.559,1.023,0.965,1.43s0.883,0.728,1.43,0.965S9.88,18,10.5,18z"/>
<path fill="#FFFFFF" d="M10.5,18c0.62,0,1.203-0.118,1.75-0.355s1.023-0.559,1.43-0.965s0.728-0.883,0.965-1.43
	C14.881,14.703,15,14.12,15,13.5s-0.119-1.203-0.355-1.75c-0.237-0.547-0.559-1.023-0.965-1.43s-0.883-0.728-1.43-0.965
	C11.703,9.119,11.12,9,10.5,9S9.297,9.119,8.75,9.355C8.203,9.593,7.727,9.914,7.32,10.32s-0.728,0.883-0.965,1.43S6,12.88,6,13.5
	s0.118,1.203,0.355,1.75s0.559,1.023,0.965,1.43s0.883,0.728,1.43,0.965S9.88,18,10.5,18z"/>
<path opacity="0.1" fill="#59B4D9" enable-background="new    " d="M10.5,9C9.88,9,9.297,9.118,8.75,9.355S7.727,9.914,7.32,10.32
	s-0.728,0.883-0.965,1.43C6.119,12.297,6,12.88,6,13.5s0.119,1.203,0.355,1.75c0.237,0.547,0.559,1.023,0.965,1.43
	s0.883,0.728,1.43,0.965C9.297,17.881,9.88,18,10.5,18s1.203-0.119,1.75-0.355c0.547-0.238,1.023-0.559,1.43-0.965
	c0.407-0.406,0.728-0.883,0.965-1.43C14.882,14.703,15,14.12,15,13.5s-0.118-1.203-0.355-1.75c-0.237-0.547-0.559-1.023-0.965-1.43
	s-0.883-0.728-1.43-0.965S11.12,9,10.5,9z"/>
<path opacity="0.3" fill="#59B4D9" enable-background="new    " d="M8.071,17.281c0.411,0.266,0.865,0.466,1.354,0.587
	C9.78,17.956,10.143,18,10.505,18c2.071,0,3.867-1.409,4.366-3.428c0.316-1.289,0.035-2.585-0.659-3.605
	c-0.122-0.179-0.26-0.347-0.407-0.507C12.85,13.41,10.771,15.852,8.071,17.281"/>
<path opacity="0.2" fill="#FFFFFF" enable-background="new    " d="M4,13.5c0-0.18,0.013-0.357,0.027-0.533
	c-0.179-0.4-0.325-0.818-0.417-1.266c-0.166-0.811-0.17-1.606-0.011-2.384c0.159-0.778,0.45-1.488,0.873-2.129
	C4.895,6.547,5.433,6,6.085,5.547c0.653-0.454,1.385-0.763,2.197-0.93C8.634,4.545,8.997,4.506,9.37,4.502
	c0.209-0.537,0.475-1.037,0.799-1.498c0.324-0.461,0.697-0.871,1.118-1.228c0.421-0.358,0.885-0.66,1.393-0.908
	c0.508-0.248,1.044-0.43,1.611-0.546c0.118-0.024,0.236-0.038,0.353-0.056C14.041,0.089,13.41,0,12.75,0
	c-0.578,0-1.141,0.07-1.688,0.211S10,0.555,9.516,0.82S8.584,1.412,8.174,1.799C7.764,2.186,7.402,2.621,7.09,3.105
	C6.723,3.035,6.359,3,6,3C5.172,3,4.393,3.156,3.662,3.469c-0.731,0.313-1.367,0.74-1.91,1.283c-0.543,0.543-0.971,1.18-1.283,1.91
	C0.157,7.392,0,8.172,0,9s0.156,1.607,0.469,2.338c0.313,0.731,0.74,1.367,1.283,1.91c0.543,0.543,1.18,0.971,1.91,1.283
	c0.146,0.062,0.3,0.099,0.45,0.148C4.042,14.296,4,13.903,4,13.5z"/>
</svg>
