<?xml version="1.0" encoding="utf-8"?>
<!-- Generator: Adobe Illustrator 21.1.0, SVG Export Plug-In . SVG Version: 6.00 Build 0)  -->
<svg version="1.1" id="Layer_1" xmlns="http://www.w3.org/2000/svg" xmlns:xlink="http://www.w3.org/1999/xlink" x="0px" y="0px"
	 width="24px" height="24px" viewBox="0 0 24 24" enable-background="new 0 0 24 24" xml:space="preserve">
<g>
	<path fill="#3C9BE4" d="M19,2.641c-2.84,0-5.445-0.992-7.5-2.641C9.445,1.649,6.84,2.641,4,2.641c-0.683,0-1.348-0.07-2-0.18
		v10.833c0,0.816,0.121,1.59,0.361,2.323c0.24,0.732,0.574,1.427,1,2.083c0.425,0.656,0.928,1.276,1.509,1.857
		s1.21,1.127,1.89,1.639c0.68,0.511,1.397,0.988,2.152,1.429c0.755,0.442,1.516,0.849,2.281,1.224L11.5,24l0.306-0.151
		c0.765-0.374,1.526-0.782,2.281-1.224c0.755-0.442,1.473-0.918,2.152-1.43c0.68-0.511,1.309-1.058,1.89-1.639
		s1.084-1.2,1.509-1.857c0.425-0.656,0.758-1.351,1-2.083S21,14.109,21,13.294V2.461C20.348,2.57,19.683,2.641,19,2.641z"/>
</g>
<path opacity="0.2" fill="#FFFFFF" enable-background="new    " d="M19,2.641c-2.84,0-5.445-0.992-7.5-2.641
	C9.445,1.649,6.84,2.641,4,2.641c-0.683,0-1.348-0.07-2-0.18v10.833c0,0.816,0.121,1.59,0.361,2.323c0.24,0.732,0.574,1.427,1,2.083
	c0.246,0.38,0.526,0.744,0.824,1.099L20.449,2.534C19.973,2.595,19.493,2.641,19,2.641z"/>
<path fill="#FFFFFF" d="M11.5,6.959L8,8.979v4.041l3.5,2.021l3.5-2.021V8.979L11.5,6.959z M13.5,9.268l-2,1.155l-2-1.155l2-1.155
	L13.5,9.268z M9,10.134l2,1.155v2.309l-2-1.155V10.134z M12,13.598v-2.309l2-1.155v2.31L12,13.598z M4,17h7v1H8v1h7v-1h-3v-1h7V5H4
	V17z M5,6h13v10H5V6z"/>
</svg>
