<?xml version="1.0" encoding="utf-8"?>
<!-- Generator: Adobe Illustrator 21.1.0, SVG Export Plug-In . SVG Version: 6.00 Build 0)  -->
<svg version="1.1" id="Layer_1" xmlns="http://www.w3.org/2000/svg" xmlns:xlink="http://www.w3.org/1999/xlink" x="0px" y="0px"
	 width="24px" height="24px" viewBox="0 0 24 24" enable-background="new 0 0 24 24" xml:space="preserve">
<path fill="#DD5900" d="M4.981,13.661c-0.299,0.141-0.62,0.236-0.958,0.287l1.086,3.343c0.303-0.131,0.631-0.207,0.971-0.248
	L4.981,13.661z"/>
<path fill="#DD5900" d="M19.019,13.661l-1.099,3.382c0.34,0.041,0.668,0.117,0.971,0.248l1.086-3.343
	C19.639,13.896,19.318,13.801,19.019,13.661z"/>
<path fill="#DD5900" d="M14.05,20H9.95C9.973,20.165,10,20.329,10,20.5S9.973,20.835,9.95,21h4.101C14.027,20.835,14,20.671,14,20.5
	S14.027,20.165,14.05,20z"/>
<path fill="#DD5900" d="M14.436,6.507l3.06,2.223c0.172-0.29,0.378-0.554,0.624-0.783l-3.082-2.239
	C14.872,6.001,14.676,6.274,14.436,6.507z"/>
<path fill="#DD5900" d="M6.504,8.73l3.06-2.223c-0.24-0.233-0.436-0.506-0.601-0.799L5.88,7.947C6.125,8.176,6.332,8.44,6.504,8.73z
	"/>
<path fill="#FF8C00" d="M20.5,7C18.567,7,17,8.567,17,10.5s1.567,3.5,3.5,3.5s3.5-1.567,3.5-3.5S22.433,7,20.5,7L20.5,7z"/>
<path opacity="0.35" fill="#DD5900" d="M22.946,7.999c0.233,0.486,0.367,1.027,0.367,1.602c0,2.05-1.662,3.712-3.712,3.712
	c-0.575,0-1.116-0.134-1.602-0.367C18.634,13.595,19.519,14,20.5,14c1.933,0,3.5-1.567,3.5-3.5C24,9.519,23.595,8.634,22.946,7.999z
	"/>
<path fill="#FF8C00" d="M12,0.5c-1.933,0-3.5,1.567-3.5,3.5s1.567,3.5,3.5,3.5s3.5-1.567,3.5-3.5S13.933,0.5,12,0.5L12,0.5z"/>
<path opacity="0.35" fill="#DD5900" d="M14.446,1.499c0.233,0.486,0.367,1.027,0.367,1.602c0,2.05-1.662,3.712-3.712,3.712
	c-0.575,0-1.116-0.134-1.602-0.367C10.134,7.095,11.019,7.5,12,7.5c1.933,0,3.5-1.567,3.5-3.5C15.5,3.019,15.095,2.134,14.446,1.499
	z"/>
<path fill="#FF8C00" d="M3.5,7C1.567,7,0,8.567,0,10.5S1.567,14,3.5,14S7,12.433,7,10.5S5.433,7,3.5,7L3.5,7z"/>
<path opacity="0.35" fill="#DD5900" d="M5.946,7.999C6.179,8.484,6.313,9.026,6.313,9.6c0,2.05-1.662,3.712-3.712,3.712
	c-0.575,0-1.116-0.134-1.602-0.367C1.634,13.595,2.519,14,3.5,14C5.433,14,7,12.433,7,10.5C7,9.519,6.595,8.634,5.946,7.999z"/>
<path fill="#FF8C00" d="M6.5,17C4.567,17,3,18.567,3,20.5S4.567,24,6.5,24s3.5-1.567,3.5-3.5S8.433,17,6.5,17L6.5,17z"/>
<path opacity="0.35" fill="#DD5900" d="M8.946,17.999c0.233,0.486,0.367,1.027,0.367,1.602c0,2.05-1.662,3.712-3.712,3.712
	c-0.575,0-1.116-0.134-1.602-0.367C4.634,23.595,5.519,24,6.5,24c1.933,0,3.5-1.567,3.5-3.5C10,19.519,9.595,18.634,8.946,17.999z"
	/>
<path fill="#FF8C00" d="M17.5,17c-1.933,0-3.5,1.567-3.5,3.5s1.567,3.5,3.5,3.5s3.5-1.567,3.5-3.5S19.433,17,17.5,17L17.5,17z"/>
<path opacity="0.35" fill="#DD5900" d="M19.946,17.999c0.233,0.486,0.367,1.027,0.367,1.602c0,2.05-1.662,3.712-3.712,3.712
	c-0.575,0-1.116-0.134-1.602-0.367C15.634,23.595,16.519,24,17.5,24c1.933,0,3.5-1.567,3.5-3.5
	C21,19.519,20.595,18.634,19.946,17.999z"/>
</svg>
