<?xml version="1.0" encoding="utf-8"?>
<svg version="1.1" xmlns="http://www.w3.org/2000/svg" xmlns:xlink="http://www.w3.org/1999/xlink" x="0px" y="0px" width="14px" height="16px" viewBox="0 0 14 16" enable-background="new 0 0 134 16" xml:space="preserve">
<path fill="#FCD116" d="M6.857,16c1.575,0,2.857-1.282,2.857-2.857h4V12h-1.143V5.714C12.571,2.563,10.008,0,6.857,0 S1.143,2.563,1.143,5.714V12H0v1.143h4C4,14.718,5.282,16,6.857,16z"/>
<path opacity="0.8" fill="#FCD116" d="M6.857,14.857c-0.945,0-1.714-0.769-1.714-1.714h3.429 C8.571,14.088,7.802,14.857,6.857,14.857z"/>
<rect y="12" opacity="0.4" fill="#FF8C00" width="13.714" height="1.143"/>
<path opacity="0.8" fill="#FCD116" d="M6.857,12V0C3.706,0,1.143,2.563,1.143,5.714V12L6.857,12z"/>
<path opacity="0.4" fill="#FF8C00" d="M6.857,12V0C3.706,0,1.143,2.563,1.143,5.714V12L6.857,12z"/>
<path opacity="0.7" fill="#DD5900" d="M8.571,13.152c0,1-0.769,1.714-1.714,1.714s-1.714-0.714-1.714-1.714L4,13.143 C4,14.718,5.282,16,6.857,16s2.857-1.282,2.857-2.857L8.571,13.152z"/>
</svg>