<?xml version="1.0" encoding="utf-8"?>
<!-- Generator: Adobe Illustrator 21.1.0, SVG Export Plug-In . SVG Version: 6.00 Build 0)  -->
<svg version="1.1" id="Layer_1" xmlns="http://www.w3.org/2000/svg" xmlns:xlink="http://www.w3.org/1999/xlink" x="0px" y="0px"
	 width="24px" height="24px" viewBox="0 0 24 24" enable-background="new 0 0 24 24" xml:space="preserve">
<path fill="#4A9F49" d="M2,16.5C2,18.433,6.477,20,12,20s10-1.567,10-3.5v-2H2V16.5z"/>
<ellipse fill="#B8D432" cx="12" cy="14.5" rx="10" ry="3.5"/>
<path opacity="0.4" fill="#FFFFFF" d="M10.732,11.031c-1.773,0.079-3.397,0.32-4.755,0.68l4.524,2.093
	c0.339-0.089,0.742-0.148,1.184-0.168L10.732,11.031z"/>
<path opacity="0.4" fill="#FFFFFF" d="M18.014,17.291l-4.515-2.095c-0.339,0.089-0.742,0.148-1.184,0.168l0.936,2.606
	C15.027,17.892,16.654,17.651,18.014,17.291z"/>
<ellipse fill="#4A9F49" cx="12" cy="14.5" rx="2.5" ry="0.875"/>
<path fill="#0072C6" d="M2,9.5C2,11.433,6.477,13,12,13s10-1.567,10-3.5v-2H2V9.5z"/>
<ellipse fill="#59B4D9" cx="12" cy="7.5" rx="10" ry="3.5"/>
<polygon fill="#A0A1A2" points="4,2 1,2 1,5 0,5 0,1 4,1 "/>
<polygon fill="#A0A1A2" points="1,22 1,19 0,19 0,23 4,23 4,22 "/>
<polygon fill="#A0A1A2" points="20,1 20,2 23,2 23,5 24,5 24,1 "/>
<polygon fill="#A0A1A2" points="23,19 23,22 20,22 20,23 24,23 24,19 "/>
<path opacity="0.3" fill="#FFFFFF" d="M10.732,4.031c-1.773,0.079-3.397,0.32-4.755,0.68l4.524,2.093
	c0.339-0.089,0.742-0.148,1.184-0.168L10.732,4.031z"/>
<path opacity="0.3" fill="#FFFFFF" d="M18.014,10.291l-4.515-2.095c-0.339,0.089-0.742,0.148-1.184,0.168l0.936,2.606
	C15.027,10.892,16.654,10.651,18.014,10.291z"/>
<ellipse fill="#0072C6" cx="12" cy="7.5" rx="2.5" ry="0.875"/>
</svg>
