<?xml version="1.0" encoding="utf-8"?>
<!-- Generator: Adobe Illustrator 21.1.0, SVG Export Plug-In . SVG Version: 6.00 Build 0)  -->
<svg version="1.1" id="Layer_1" xmlns:svg="http://www.w3.org/2000/svg"
	 xmlns="http://www.w3.org/2000/svg" xmlns:xlink="http://www.w3.org/1999/xlink" x="0px" y="0px" viewBox="0 0 50 50"
	 style="enable-background:new 0 0 50 50;" xml:space="preserve">
<style type="text/css">
	.st0{fill:#DD5900;}
	.st1{fill:#3999C6;}
	.st2{fill:#FFFFFF;}
	.st3{stroke:#FFFFFF;stroke-width:2;stroke-miterlimit:10;}
</style>
<g>
	<path class="st0" d="M0,18h15v15H0V18z M0,35h15v15H0V35z M17,35h15v15H17V35z"/>
	<path class="st1" d="M33.5,0C24.3,0,17,7.3,17,16.5V33h16.5C42.7,33,50,25.7,50,16.5S42.7,0,33.5,0z"/>
	<circle class="st2" cx="23" cy="25" r="3"/>
	<circle class="st2" cx="37" cy="22" r="3"/>
	<circle class="st2" cx="30" cy="14" r="3"/>
	<path class="st3" d="M24,24l6-10"/>
	<circle class="st2" cx="43" cy="11" r="3"/>
	<path class="st3" d="M42,12l-5,10 M37,22l-7-8"/>
</g>
</svg>
