<?xml version="1.0" encoding="utf-8"?>
<!-- Generator: Adobe Illustrator 17.0.1, SVG Export Plug-In . SVG Version: 6.00 Build 0)  -->
<!DOCTYPE svg PUBLIC "-//W3C//DTD SVG 1.1//EN" "http://www.w3.org/Graphics/SVG/1.1/DTD/svg11.dtd">
<svg version="1.1" id="Layer_1" xmlns="http://www.w3.org/2000/svg" xmlns:xlink="http://www.w3.org/1999/xlink" x="0px" y="0px"
	 width="50px" height="50px" viewBox="0.5 0.5 50 50" enable-background="new 0.5 0.5 50 50" xml:space="preserve">
<path fill="#BA141A" d="M18.971,7.331L18.971,7.331l-18.471,0v36.338c0,3.741,8.135,6.776,18.218,6.827v0.004h0.22
	c0.011,0,0.022,0.001,0.033,0.001v-0.001h0c10.201,0,18.471-3.057,18.471-6.831V7.331H18.971z"/>
<path opacity="0.15" d="M18.718,50.499h0.253c10.201,0,18.471-3.057,18.471-6.831V7.331H18.718V50.499z"/>
<path fill="#FFFFFF" d="M37.442,7.331c0,3.773-8.27,6.831-18.471,6.831S0.5,11.103,0.5,7.331C0.5,3.558,8.77,0.5,18.971,0.5
	S37.442,3.558,37.442,7.331"/>
<path fill="#7FBA00" d="M33.666,6.938c0,2.491-6.579,4.507-14.695,4.507S4.275,9.428,4.275,6.938c0-2.49,6.58-4.507,14.696-4.507
	S33.666,4.448,33.666,6.938"/>
<path fill="#B8D432" d="M30.587,9.691c1.924-0.762,3.08-1.716,3.08-2.752c0-2.491-6.579-4.508-14.696-4.508
	c-8.116,0-14.695,2.018-14.695,4.508c0,1.036,1.156,1.99,3.08,2.752c2.686-1.065,6.885-1.752,11.615-1.752
	C23.702,7.939,27.899,8.626,30.587,9.691"/>
<g>
	<path fill="#FFFFFF" d="M12.536,29.223c0,1.122-0.398,1.991-1.195,2.607c-0.797,0.616-1.898,0.924-3.304,0.924
		c-1.196,0-2.195-0.22-2.997-0.66v-2.64c0.926,0.803,1.947,1.205,3.062,1.205c0.538,0,0.955-0.11,1.248-0.33
		c0.294-0.22,0.441-0.511,0.441-0.875c0-0.357-0.141-0.668-0.424-0.932s-0.858-0.605-1.725-1.023
		c-1.767-0.846-2.65-2.002-2.65-3.464c0-1.061,0.385-1.912,1.155-2.553c0.77-0.64,1.793-0.961,3.07-0.961
		c1.131,0,2.068,0.152,2.811,0.454v2.466c-0.781-0.55-1.67-0.825-2.666-0.825c-0.5,0-0.896,0.108-1.187,0.325
		c-0.291,0.218-0.436,0.508-0.436,0.87c0,0.374,0.117,0.681,0.351,0.92c0.234,0.239,0.715,0.535,1.442,0.887
		c1.083,0.523,1.854,1.053,2.315,1.592C12.306,27.749,12.536,28.42,12.536,29.223z"/>
	<path fill="#FFFFFF" d="M25,26.55c0,1.391-0.31,2.599-0.929,3.621c-0.619,1.023-1.492,1.74-2.617,2.153l3.36,3.176h-3.393
		l-2.399-2.747c-1.028-0.038-1.956-0.316-2.783-0.833c-0.827-0.516-1.465-1.225-1.914-2.124s-0.674-1.902-0.674-3.007
		c0-1.226,0.244-2.319,0.731-3.279c0.487-0.96,1.173-1.698,2.056-2.215c0.883-0.516,1.895-0.775,3.038-0.775
		c1.066,0,2.021,0.25,2.864,0.751c0.842,0.5,1.497,1.212,1.963,2.136C24.767,24.332,25,25.379,25,26.55z M22.254,26.699
		c0-1.199-0.256-2.146-0.767-2.842c-0.512-0.696-1.212-1.044-2.1-1.044c-0.904,0-1.629,0.349-2.173,1.047
		c-0.544,0.699-0.816,1.628-0.816,2.788c0,1.155,0.267,2.077,0.8,2.767c0.534,0.69,1.241,1.035,2.124,1.035
		c0.9,0,1.613-0.334,2.141-1.002C21.99,28.782,22.254,27.865,22.254,26.699z"/>
	<path fill="#FFFFFF" d="M33.813,32.547h-6.899V20.719h2.609v9.667h4.29V32.547z"/>
</g>
<path fill="#0F0F0F" d="M35.755,49.584l2.123,0.916l0.224-0.265l1.7-1.999l1.719,0.01l1.973,2.254l2.135-0.887l-0.023-0.347
	l-0.185-2.643l1.225-1.234l2.957,0.168L50.5,43.39l-0.258-0.229l-1.96-1.738l0.012-1.756l2.205-2.016l-0.866-2.179l-0.342,0.025
	l-2.588,0.186l-1.206-1.249l0.164-3.02L43.537,30.5l-0.224,0.265l-1.702,2l-1.72-0.011l-1.975-2.251l-2.134,0.884l0.026,0.35
	l0.181,2.64l-1.224,1.234l-2.955-0.168l-0.896,2.167l0.259,0.229l1.959,1.736l-0.012,1.756l-2.207,2.016l0.867,2.179l0.343-0.025
	l2.587-0.186l1.208,1.251L35.755,49.584z M36.363,38.628c1.012-2.452,3.778-3.6,6.177-2.565c2.402,1.036,3.525,3.858,2.513,6.308
	c-1.013,2.451-3.78,3.598-6.179,2.565C36.474,43.902,35.35,41.079,36.363,38.628"/>
</svg>
