<?xml version="1.0" encoding="utf-8"?>
<!-- Generator: Adobe Illustrator 21.1.0, SVG Export Plug-In . SVG Version: 6.00 Build 0)  -->
<svg version="1.1" id="Layer_1" xmlns="http://www.w3.org/2000/svg" xmlns:xlink="http://www.w3.org/1999/xlink" x="0px" y="0px"
	 width="24px" height="24px" viewBox="0 0 24 24" enable-background="new 0 0 24 24" xml:space="preserve">
<path fill="#0072C6" d="M12,7C7.03,7,3,5.433,3,3.5v17c0,1.933,4.03,3.5,9,3.5s9-1.567,9-3.5v-17C21,5.433,16.97,7,12,7z"/>
<g>
	<path fill="#3C9BE4" d="M3,3.5v17c0,1.933,4.03,3.5,9,3.5V7C7.03,7,3,5.433,3,3.5z"/>
</g>
<path fill="#FFFFFF" d="M9.204,15.323c0,0.484-0.174,0.859-0.523,1.124c-0.349,0.266-0.831,0.398-1.446,0.398
	c-0.523,0-0.961-0.095-1.312-0.285v-1.138c0.406,0.346,0.852,0.52,1.34,0.52c0.236,0,0.418-0.047,0.547-0.142
	c0.129-0.095,0.193-0.22,0.193-0.377c0-0.154-0.062-0.288-0.186-0.402S7.441,14.76,7.062,14.58c-0.773-0.365-1.16-0.863-1.16-1.494
	c0-0.458,0.168-0.825,0.506-1.101c0.337-0.276,0.785-0.414,1.344-0.414c0.495,0,0.905,0.066,1.231,0.196v1.063
	c-0.342-0.237-0.731-0.356-1.167-0.356c-0.219,0-0.392,0.047-0.52,0.14c-0.127,0.094-0.191,0.219-0.191,0.375
	c0,0.161,0.051,0.294,0.154,0.397c0.102,0.103,0.313,0.231,0.631,0.382c0.474,0.226,0.812,0.454,1.013,0.687
	C9.104,14.688,9.204,14.977,9.204,15.323z"/>
<path fill="#FFFFFF" d="M14.66,14.171c0,0.6-0.136,1.121-0.407,1.561c-0.271,0.441-0.653,0.75-1.145,0.928l1.471,1.37h-1.485
	l-1.05-1.185c-0.45-0.016-0.857-0.136-1.218-0.359c-0.362-0.223-0.641-0.528-0.838-0.916c-0.197-0.388-0.295-0.82-0.295-1.297
	c0-0.529,0.107-1,0.32-1.414c0.213-0.414,0.513-0.732,0.9-0.955c0.387-0.223,0.83-0.334,1.33-0.334c0.466,0,0.884,0.108,1.254,0.324
	c0.369,0.216,0.655,0.523,0.859,0.921C14.558,13.214,14.66,13.666,14.66,14.171z M13.458,14.235c0-0.517-0.112-0.925-0.336-1.226
	c-0.224-0.3-0.53-0.45-0.92-0.45c-0.396,0-0.713,0.15-0.951,0.451c-0.238,0.301-0.357,0.702-0.357,1.202
	c0,0.498,0.117,0.896,0.35,1.193c0.234,0.298,0.543,0.446,0.93,0.446c0.394,0,0.706-0.144,0.937-0.432
	C13.343,15.133,13.458,14.738,13.458,14.235z"/>
<polygon fill="#FFFFFF" points="18.518,16.757 15.499,16.757 15.499,11.656 16.641,11.656 16.641,15.825 18.518,15.825 "/>
<path fill="#B8D432" d="M12,1C6.824,1,4,2.651,4,3.5S6.824,6,12,6s8-1.651,8-2.5S17.176,1,12,1z"/>
<path fill="#7FBA00" d="M5.896,5C7.249,5.55,9.301,6,12,6s4.751-0.45,6.104-1C16.751,4.45,14.699,4,12,4S7.249,4.45,5.896,5z"/>
<path fill="#FFFFFF" d="M12,1c5.176,0,8,1.652,8,2.5S17.176,6,12,6S4,4.348,4,3.5S6.824,1,12,1 M12,0C7.029,0,3,1.567,3,3.5
	S7.029,7,12,7s9-1.567,9-3.5S16.971,0,12,0L12,0z"/>
</svg>
