<?xml version="1.0" encoding="utf-8"?>
<!-- Generator: Adobe Illustrator 21.1.0, SVG Export Plug-In . SVG Version: 6.00 Build 0)  -->
<svg version="1.1" id="Layer_1" xmlns="http://www.w3.org/2000/svg" xmlns:xlink="http://www.w3.org/1999/xlink" x="0px" y="0px"
	 width="24px" height="24px" viewBox="0 0 24 24" enable-background="new 0 0 24 24" xml:space="preserve">
<path fill="#804998" d="M12,0C5.373,0,0,5.373,0,12s5.373,12,12,12s12-5.373,12-12S18.627,0,12,0L12,0z"/>
<g>
	<path fill="#3C9BE4" d="M2,9.5v5C2,15.328,3.343,16,5,16s3-0.672,3-1.5v-5H2z"/>
</g>
<g opacity="0.25">
	<path fill="#FFFFFF" d="M5,9.5H2v5C2,15.328,3.343,16,5,16V9.5z"/>
</g>
<g>
	<path fill="#3C9BE4" d="M16,9.5v5c0,0.828,1.343,1.5,3,1.5s3-0.672,3-1.5v-5H16z"/>
</g>
<g opacity="0.25">
	<path fill="#FFFFFF" d="M19,9.5h-3v5c0,0.828,1.343,1.5,3,1.5V9.5z"/>
</g>
<g>
	<path fill="#3C9BE4" d="M9,13.5v5c0,0.828,1.343,1.5,3,1.5s3-0.672,3-1.5v-5H9z"/>
</g>
<g opacity="0.25">
	<path fill="#FFFFFF" d="M12,13.5H9v5c0,0.828,1.343,1.5,3,1.5V13.5z"/>
</g>
<g>
	<path fill="#3C9BE4" d="M9,4.5v5c0,0.828,1.343,1.5,3,1.5s3-0.672,3-1.5v-5H9z"/>
</g>
<g opacity="0.25">
	<path fill="#FFFFFF" d="M12,4.5H9v5c0,0.828,1.343,1.5,3,1.5V4.5z"/>
</g>
<ellipse fill="#B8D432" cx="5" cy="9.5" rx="3" ry="1.5"/>
<ellipse fill="#B8D432" cx="19" cy="9.5" rx="3" ry="1.5"/>
<ellipse fill="#B8D432" cx="12" cy="13.5" rx="3" ry="1.5"/>
<ellipse fill="#B8D432" cx="12" cy="4.5" rx="3" ry="1.5"/>
</svg>
