<?xml version="1.0" encoding="utf-8"?>
<!-- Generator: Adobe Illustrator 21.1.0, SVG Export Plug-In . SVG Version: 6.00 Build 0)  -->
<svg version="1.1" id="Layer_1" xmlns="http://www.w3.org/2000/svg" xmlns:xlink="http://www.w3.org/1999/xlink" x="0px" y="0px"
	 width="24px" height="24px" viewBox="0 0 24 24" enable-background="new 0 0 24 24" xml:space="preserve">
<path fill="#0072C6" d="M14,19.5c0-2.517,1.693-4.634,4-5.288V3.5C18,5.433,13.97,7,9,7S0,5.433,0,3.5v17C0,22.433,4.03,24,9,24
	c2.437,0,4.645-0.378,6.266-0.991C14.476,22.057,14,20.834,14,19.5z"/>
<g>
	<path fill="#3C9BE4" d="M0,3.5v17C0,22.433,4.03,24,9,24V7C4.03,7,0,5.433,0,3.5z"/>
</g>
<path fill="#FFFFFF" d="M6.204,15.323c0,0.484-0.174,0.859-0.523,1.124c-0.349,0.266-0.831,0.398-1.446,0.398
	c-0.523,0-0.961-0.095-1.312-0.285v-1.138c0.406,0.346,0.852,0.52,1.34,0.52c0.236,0,0.418-0.047,0.547-0.142
	c0.129-0.095,0.193-0.22,0.193-0.377c0-0.154-0.062-0.288-0.186-0.402S4.441,14.76,4.062,14.58c-0.773-0.365-1.16-0.863-1.16-1.494
	c0-0.458,0.168-0.825,0.506-1.101c0.337-0.276,0.785-0.414,1.344-0.414c0.495,0,0.905,0.066,1.231,0.196v1.063
	c-0.342-0.237-0.731-0.356-1.167-0.356c-0.219,0-0.392,0.047-0.52,0.14c-0.127,0.094-0.191,0.219-0.191,0.375
	c0,0.161,0.051,0.294,0.154,0.397c0.102,0.103,0.313,0.231,0.631,0.382c0.474,0.226,0.812,0.454,1.013,0.687
	C6.104,14.688,6.204,14.977,6.204,15.323z"/>
<path fill="#FFFFFF" d="M11.66,14.171c0,0.6-0.136,1.121-0.407,1.561c-0.271,0.441-0.653,0.75-1.145,0.928l1.471,1.37h-1.485
	l-1.05-1.185c-0.45-0.016-0.857-0.136-1.218-0.359c-0.362-0.223-0.641-0.528-0.838-0.916c-0.197-0.388-0.295-0.82-0.295-1.297
	c0-0.529,0.107-1,0.32-1.414c0.213-0.414,0.513-0.732,0.9-0.955c0.387-0.223,0.83-0.334,1.33-0.334c0.466,0,0.884,0.108,1.254,0.324
	c0.369,0.216,0.655,0.523,0.859,0.921C11.558,13.214,11.66,13.666,11.66,14.171z M10.458,14.235c0-0.517-0.112-0.925-0.336-1.226
	c-0.224-0.3-0.53-0.45-0.92-0.45c-0.396,0-0.713,0.15-0.951,0.451c-0.238,0.301-0.357,0.702-0.357,1.202
	c0,0.498,0.117,0.896,0.35,1.193c0.234,0.298,0.543,0.446,0.93,0.446c0.394,0,0.706-0.144,0.937-0.432
	C10.343,15.133,10.458,14.738,10.458,14.235z"/>
<path fill="#B8D432" d="M9,1C3.824,1,1,2.651,1,3.5S3.824,6,9,6s8-1.651,8-2.5S14.176,1,9,1z"/>
<path fill="#7FBA00" d="M2.896,5C4.249,5.55,6.301,6,9,6s4.751-0.45,6.104-1C13.751,4.45,11.699,4,9,4S4.249,4.45,2.896,5z"/>
<path fill="#FFFFFF" d="M9,1c5.176,0,8,1.652,8,2.5S14.176,6,9,6S1,4.348,1,3.5S3.824,1,9,1 M9,0C4.029,0,0,1.567,0,3.5S4.029,7,9,7
	s9-1.567,9-3.5S13.971,0,9,0L9,0z"/>
<path fill="#3E3E3E" d="M23,19.398c0,0.287-0.037,0.576-0.109,0.867l1.07,0.438l-0.375,0.93l-1.078-0.445
	c-0.308,0.511-0.714,0.917-1.219,1.219l0.445,1.07l-0.93,0.383l-0.438-1.07c-0.292,0.073-0.581,0.109-0.867,0.109
	c-0.287,0-0.576-0.036-0.867-0.109l-0.438,1.07l-0.93-0.383l0.445-1.07c-0.511-0.302-0.917-0.708-1.219-1.219l-1.078,0.445
	l-0.375-0.93l1.07-0.438C16.036,19.975,16,19.686,16,19.398c0-0.286,0.036-0.575,0.109-0.867l-1.07-0.438l0.375-0.93l1.078,0.445
	c0.302-0.505,0.708-0.911,1.219-1.219l-0.445-1.078l0.93-0.375l0.438,1.07c0.291-0.072,0.58-0.109,0.867-0.109
	c0.286,0,0.575,0.037,0.867,0.109l0.438-1.07l0.93,0.375l-0.445,1.078c0.505,0.308,0.911,0.714,1.219,1.219l1.078-0.445l0.375,0.93
	l-1.07,0.438C22.963,18.823,23,19.112,23,19.398z M19.5,21.898c0.344,0,0.666-0.064,0.969-0.195c0.302-0.13,0.566-0.309,0.793-0.535
	s0.406-0.492,0.539-0.797S22,19.742,22,19.398s-0.066-0.666-0.199-0.969c-0.133-0.302-0.312-0.566-0.539-0.793
	s-0.491-0.406-0.793-0.539c-0.303-0.133-0.625-0.199-0.969-0.199s-0.668,0.066-0.973,0.199s-0.57,0.312-0.797,0.539
	s-0.405,0.491-0.535,0.793C17.064,18.732,17,19.055,17,19.398s0.064,0.668,0.195,0.973c0.13,0.305,0.309,0.57,0.535,0.797
	s0.492,0.405,0.797,0.535C18.832,21.834,19.156,21.898,19.5,21.898z"/>
<path fill="#FFFFFF" d="M15.416,15.825h-1.775v-4.169h-1.142v5.101h2.239C14.931,16.422,15.159,16.111,15.416,15.825z"/>
</svg>
