<?xml version="1.0" encoding="utf-8"?>
<!-- Generator: Adobe Illustrator 21.1.0, SVG Export Plug-In . SVG Version: 6.00 Build 0)  -->
<svg version="1.1" id="Layer_1" xmlns="http://www.w3.org/2000/svg" xmlns:xlink="http://www.w3.org/1999/xlink" x="0px" y="0px"
	 width="24px" height="24px" viewBox="0 0 24 24" enable-background="new 0 0 24 24" xml:space="preserve">
<path fill="#59B4D9" d="M23.643,9.73c-0.238-0.547-0.562-1.021-0.973-1.424s-0.891-0.721-1.441-0.955S20.09,7,19.465,7
	c-0.109-0.852-0.357-1.645-0.744-2.379s-0.877-1.369-1.471-1.904s-1.275-0.955-2.045-1.26S13.617,1,12.75,1
	c-0.578,0-1.141,0.07-1.688,0.211S10,1.555,9.516,1.82S8.584,2.412,8.174,2.799S7.402,3.621,7.09,4.105C6.723,4.035,6.359,4,6,4
	C5.172,4,4.393,4.156,3.662,4.469s-1.367,0.74-1.91,1.283s-0.971,1.18-1.283,1.91S0,9.172,0,10s0.156,1.607,0.469,2.338
	s0.74,1.367,1.283,1.91s1.18,0.971,1.91,1.283S5.172,16,6,16h13.5c0.617,0,1.199-0.117,1.746-0.352s1.025-0.557,1.436-0.967
	s0.732-0.887,0.967-1.43S24,12.125,24,11.5C24,10.867,23.881,10.277,23.643,9.73z M12,14H7v-1h5V14z M12,12H7v-1h5V12z M12,10H7V9h5
	V10z"/>
<path opacity="0.2" fill="#FFFFFF" d="M4.539,14.897c-0.453-0.653-0.763-1.385-0.929-2.196c-0.166-0.811-0.17-1.606-0.011-2.384
	c0.159-0.778,0.45-1.488,0.873-2.129s0.961-1.188,1.613-1.641C6.738,6.093,7.47,5.784,8.282,5.617
	C8.634,5.545,8.997,5.506,9.37,5.502c0.209-0.537,0.475-1.037,0.799-1.498c0.324-0.461,0.697-0.871,1.118-1.228
	c0.421-0.358,0.885-0.66,1.393-0.908c0.508-0.248,1.044-0.43,1.611-0.546c0.118-0.024,0.236-0.038,0.353-0.056
	C14.041,1.089,13.41,1,12.75,1c-0.578,0-1.141,0.07-1.688,0.211S10,1.555,9.516,1.82S8.584,2.412,8.174,2.799
	S7.402,3.621,7.09,4.105C6.723,4.035,6.359,4,6,4C5.172,4,4.393,4.156,3.662,4.469s-1.367,0.74-1.91,1.283s-0.971,1.18-1.283,1.91
	S0,9.172,0,10s0.156,1.607,0.469,2.338s0.74,1.367,1.283,1.91s1.18,0.971,1.91,1.283c0.587,0.251,1.208,0.397,1.859,0.446
	C5.161,15.657,4.824,15.308,4.539,14.897z"/>
<rect x="13" y="17" fill="#59B4D9" width="5" height="1"/>
<rect x="13" y="19" fill="#59B4D9" width="5" height="1"/>
<rect x="13" y="21" fill="#59B4D9" width="5" height="1"/>
</svg>
