<svg version="1.1" id="Layer_1" xmlns="http://www.w3.org/2000/svg" xmlns:xlink="http://www.w3.org/1999/xlink" x="0px" y="0px"
	 width="50px" height="50px" viewBox="0 0 50 50" enable-background="new 0 0 50 50" xml:space="preserve">
<path fill="#A0A1A2" d="M0,44.8c0,1,0.8,1.9,1.8,1.9h46.3c1,0,1.9-0.8,1.9-1.9V11.7H0C0,11.6,0,44.8,0,44.8z"/>
<path fill="#7A7A7A" d="M48.1,4H1.9C0.8,4,0,4.9,0,5.9v5.7h50V5.9C50,4.9,49.2,4,48.1,4"/>
<rect x="14.8" y="22.5" fill="#FFFFFF" width="9.3" height="5.6"/>
<rect x="14.8" y="15.1" fill="#FFFFFF" width="9.3" height="5.5"/>
<rect x="14.8" y="29.9" fill="#FCD116" width="9.3" height="5.6"/>
<rect x="25.9" y="29.9" fill="#FCD116" width="9.3" height="5.6"/>
<rect x="25.9" y="22.5" fill="#FFFFFF" width="9.3" height="5.6"/>
<rect x="25.9" y="15.1" fill="#FFFFFF" width="9.3" height="5.5"/>
<rect x="3.7" y="15.1" fill="#FFFFFF" width="9.3" height="5.5"/>
<rect x="3.7" y="22.5" fill="#FFFFFF" width="9.3" height="5.6"/>
<rect x="3.7" y="29.9" fill="#FFFFFF" width="9.3" height="5.6"/>
<rect x="3.7" y="37.4" fill="#FCD116" width="9.3" height="5.6"/>
<rect x="14.8" y="37.4" fill="#FCD116" width="9.3" height="5.6"/>
<rect x="25.9" y="37.4" fill="#FCD116" width="9.3" height="5.6"/>
<rect x="37" y="29.9" fill="#FFFFFF" width="9.3" height="5.6"/>
<rect x="37" y="22.5" fill="#FFFFFF" width="9.3" height="5.6"/>
<rect x="37" y="15.1" fill="#FFFFFF" width="9.3" height="5.5"/>
<rect x="37" y="37.4" fill="#FCD116" width="9.3" height="5.6"/>
<path opacity="0.2" fill="#FFFFFF" enable-background="new    " d="M2,4C0.9,4,0,4.9,0,6v7.3v3.3v28c0,1.1,0.9,2,2,2h2.2L43.6,4H2z"
	/>
</svg>
