<?xml version="1.0" encoding="utf-8"?>
<!-- Generator: Adobe Illustrator 21.1.0, SVG Export Plug-In . SVG Version: 6.00 Build 0)  -->
<!DOCTYPE svg PUBLIC "-//W3C//DTD SVG 1.1//EN" "http://www.w3.org/Graphics/SVG/1.1/DTD/svg11.dtd">
<svg version="1.1" id="Layer_1" xmlns="http://www.w3.org/2000/svg" xmlns:xlink="http://www.w3.org/1999/xlink" x="0px" y="0px"
	 width="24px" height="24px" viewBox="0 0 24 24" enable-background="new 0 0 24 24" xml:space="preserve">
<rect y="5" fill="#A0A1A2" width="24" height="17"/>
<polygon fill="#FFFFFF" points="8,8 4,8 4,11 8,11 "/>
<polygon fill="#FFFFFF" points="14,8 10,8 10,11 14,11 "/>
<polygon fill="#FFFFFF" points="20,8 16,8 16,11 20,11 "/>
<polygon fill="#FFFFFF" points="8,12 4,12 4,15 8,15 "/>
<polygon fill="#FCD116" points="14,12 10,12 10,15 14,15 "/>
<polygon fill="#FCD116" points="20,12 16,12 16,15 20,15 "/>
<polygon fill="#FCD116" points="8,16 4,16 4,19 8,19 "/>
<polygon fill="#FCD116" points="14,16 10,16 10,19 14,19 "/>
<polygon fill="#FCD116" points="20,16 16,16 16,19 20,19 "/>
<polygon opacity="0.15" fill="#FFFFFF" enable-background="new    " points="6,22 0,22 0,5 17,5 "/>
<rect y="2" fill="#7A7A7A" width="24" height="4"/>
</svg>
