<?xml version="1.0" encoding="utf-8"?>
<!-- Generator: Adobe Illustrator 21.1.0, SVG Export Plug-In . SVG Version: 6.00 Build 0)  -->
<svg version="1.1" id="Layer_1" xmlns="http://www.w3.org/2000/svg" xmlns:xlink="http://www.w3.org/1999/xlink" x="0px" y="0px"
	 width="24px" height="24px" viewBox="0 0 24 24" enable-background="new 0 0 24 24" xml:space="preserve">
<path fill="#0072C6" d="M11.688,12.085c-1.396-0.31-2.876,0.024-4.389,0.993c-1.665,1.067-3.211,1.233-4.606,0.5
	c-1.061-0.56-1.649-1.461-1.66-1.478l-0.521,0.956c0.47,0.563,1.453,1.525,2.935,1.854c0.089,0.019,0.177,0.037,0.267,0.051
	c1.319,0.215,2.705-0.136,4.122-1.045c1.665-1.065,3.214-1.233,4.606-0.5c0.159,0.084,0.304,0.177,0.442,0.272l0.476-0.873
	C12.897,12.508,12.346,12.231,11.688,12.085z"/>
<path fill="#59B4D9" d="M8.097,8.171c-1.665,1.065-3.211,1.235-4.606,0.5C3.332,8.587,3.188,8.494,3.05,8.399L2.574,9.272
	c0.463,0.307,1.013,0.584,1.671,0.731c0.088,0.02,0.177,0.037,0.267,0.051c1.319,0.215,2.705-0.136,4.122-1.044
	c1.665-1.066,3.214-1.234,4.605-0.499C14.3,9.071,14.888,9.97,14.9,9.988l0.52-0.955c-0.47-0.563-1.454-1.526-2.935-1.855
	C11.09,6.867,9.61,7.201,8.097,8.171z"/>
<g>
	<path fill="#3C9BE4" d="M7.698,10.625c-1.665,1.066-3.211,1.234-4.606,0.5c-0.453-0.24-0.814-0.539-1.087-0.808l-0.493,0.904
		c0.545,0.488,1.324,1.011,2.334,1.236c0.089,0.019,0.177,0.037,0.267,0.051c1.319,0.215,2.705-0.137,4.122-1.045
		c1.665-1.066,3.214-1.234,4.605-0.499c0.454,0.239,0.815,0.539,1.088,0.807l0.493-0.904c-0.546-0.489-1.324-1.011-2.335-1.236
		C10.691,9.321,9.211,9.655,7.698,10.625z"/>
</g>
<path fill="#A0A1A2" d="M21.676,12.158c0.002-0.053,0.004-0.105,0.004-0.158s-0.002-0.105-0.004-0.158
	c-0.004-0.053-0.004-0.105-0.004-0.158l2.275-1.415l-1.396-3.366L19.939,7.5c-0.141-0.152-0.287-0.299-0.439-0.439l0.598-2.61
	l-3.365-1.397L15.317,5.33c-0.053,0-0.105-0.001-0.158-0.004S15.053,5.32,15,5.32s-0.105,0.001-0.158,0.004
	s-0.105,0.004-0.158,0.004L13.27,3.053L9.903,4.45l0.4,1.745c0.824-0.17,1.638-0.17,2.439,0.009
	c1.751,0.389,2.912,1.524,3.449,2.166l0.43,0.515l-0.013,0.023C17.726,9.494,18.5,10.652,18.5,12c0,1.93-1.57,3.5-3.5,3.5
	c-0.63,0-1.214-0.181-1.725-0.473l-0.014,0.026l-0.903-0.628c-0.104-0.072-0.212-0.144-0.332-0.206
	c-1.058-0.558-2.226-0.409-3.57,0.452c-0.558,0.358-1.114,0.623-1.668,0.828l0.664,1.6l2.61-0.598
	c0.141,0.152,0.287,0.299,0.439,0.439l-0.598,2.61l3.367,1.397l1.414-2.276c0.053,0,0.105,0.002,0.158,0.005S14.947,18.68,15,18.68
	s0.105-0.001,0.158-0.004s0.105-0.005,0.158-0.005l1.416,2.276l3.365-1.397l-0.598-2.61c0.152-0.141,0.299-0.287,0.439-0.439
	l2.611,0.598l1.396-3.366l-2.275-1.415C21.672,12.264,21.672,12.211,21.676,12.158z"/>
</svg>
