<?xml version="1.0" encoding="utf-8"?>
<!DOCTYPE svg PUBLIC "-//W3C//DTD SVG 1.1//EN" "http://www.w3.org/Graphics/SVG/1.1/DTD/svg11.dtd">
<svg version="1.1" id="Layer_1" xmlns="http://www.w3.org/2000/svg" xmlns:xlink="http://www.w3.org/1999/xlink" x="0px" y="0px"
	 width="50px" height="50px" viewBox="0 0 50 50" enable-background="new 0 0 50 50" xml:space="preserve">
<path fill="#FCD116" d="M39.337,19.525c2.222-2.22,2.222-5.824,0-8.045l-9.812-9.813c-2.222-2.222-5.824-2.222-8.046,0l-9.813,9.813
	c-2.221,2.221-2.221,5.825,0,8.045l8.633,8.633v16.641l5.202,5.202l4.519-4.519v-0.033l2.652-2.653l-2.629-2.629l2.629-2.629
	l-2.629-2.629l2.629-2.629l-2.652-2.653v-0.784L39.337,19.525z M25.502,4.039c1.783,0,3.229,1.446,3.229,3.229
	c0,1.784-1.446,3.229-3.229,3.229c-1.783,0-3.229-1.445-3.229-3.229S23.719,4.039,25.502,4.039z"/>
<polygon opacity="0.4" fill="#FF8C00" enable-background="new    " points="22.728,43.961 24.758,45.961 24.758,30.008 
	22.728,29.008 "/>
<rect x="15.868" y="13.617" opacity="0.5" fill="#FFFFFF" enable-background="new    " width="18.64" height="2.679"/>
<rect x="15.868" y="17.976" opacity="0.5" fill="#FFFFFF" enable-background="new    " width="18.64" height="2.679"/>
<path fill="#7A7A7A" d="M9.558,45.171c-0.247,0-0.497-0.063-0.726-0.195l-6.845-3.952C0.835,40.358,0,38.911,0,37.582V12.418
	c0-1.329,0.835-2.777,1.987-3.441l6.845-3.952c0.697-0.401,1.586-0.163,1.987,0.532c0.402,0.696,0.163,1.585-0.532,1.987
	l-6.845,3.952c-0.243,0.141-0.532,0.641-0.532,0.922v25.164c0,0.281,0.289,0.782,0.532,0.922l6.845,3.952
	c0.696,0.402,0.934,1.291,0.532,1.987C10.55,44.91,10.061,45.171,9.558,45.171z"/>
<path fill="#7A7A7A" d="M40.442,4.829c0.247,0,0.497,0.063,0.726,0.195l6.845,3.952C49.165,9.642,50,11.089,50,12.418v25.164
	c0,1.329-0.835,2.777-1.987,3.441l-6.845,3.952c-0.697,0.401-1.586,0.163-1.987-0.532c-0.402-0.696-0.163-1.585,0.532-1.987
	l6.845-3.952c0.243-0.141,0.532-0.641,0.532-0.922V12.418c0-0.281-0.289-0.782-0.532-0.922l-6.845-3.952
	c-0.696-0.402-0.934-1.291-0.532-1.987C39.45,5.09,39.939,4.829,40.442,4.829z"/>


</svg>
