<?xml version="1.0" encoding="utf-8"?>
<!-- Generator: Adobe Illustrator 21.1.0, SVG Export Plug-In . SVG Version: 6.00 Build 0)  -->
<svg version="1.1" id="Layer_1" xmlns="http://www.w3.org/2000/svg" xmlns:xlink="http://www.w3.org/1999/xlink" x="0px" y="0px"
	 width="24px" height="24px" viewBox="0 0 24 24" enable-background="new 0 0 24 24" xml:space="preserve">
<polygon fill="#A0A1A2" points="5,22.372 0,19.485 0,4.515 5,1.628 5,2.783 1,5.093 1,18.907 5,21.217 "/>
<polygon fill="#A0A1A2" points="23,4.515 23,19.485 18,22.372 18,21.217 22,18.907 22,5.093 18,2.783 18,1.628 "/>
<path fill="#FCD116" d="M11.5,2C8.462,2,6,4.462,6,7.5c0,2.41,1.553,4.453,3.71,5.196l-1.162,1.166l1.414,1.414L8.548,16.69
	l1.414,1.414l-1.414,1.414l2.828,2.828L14,19.722v-7.327c1.78-0.911,3-2.758,3-4.895C17,4.462,14.538,2,11.5,2z M12.428,5.876
	c-0.048,0.122-0.122,0.232-0.221,0.331s-0.21,0.173-0.331,0.221C11.754,6.476,11.629,6.5,11.5,6.5s-0.254-0.024-0.376-0.072
	c-0.122-0.048-0.232-0.122-0.331-0.221s-0.173-0.21-0.221-0.331C10.524,5.754,10.5,5.629,10.5,5.5s0.023-0.254,0.072-0.376
	c0.048-0.122,0.122-0.232,0.221-0.331s0.21-0.173,0.331-0.221C11.245,4.524,11.371,4.5,11.5,4.5c0.128,0,0.254,0.024,0.376,0.072
	c0.12,0.048,0.231,0.122,0.331,0.221c0.099,0.099,0.173,0.21,0.221,0.331C12.476,5.246,12.499,5.371,12.5,5.5
	C12.5,5.629,12.476,5.754,12.428,5.876z"/>
<path opacity="0.4" fill="#FF8C00" enable-background="new    " d="M12,12.975v7.253l1-1v-6.44
	C12.677,12.879,12.344,12.944,12,12.975z"/>
<path opacity="0.4" fill="#FFFFFF" enable-background="new    " d="M11.5,11c1.762,0,3.205-1.306,3.45-3h-6.9
	C8.295,9.694,9.738,11,11.5,11z"/>
</svg>
