<?xml version="1.0" encoding="utf-8"?>
<!-- Generator: Adobe Illustrator 19.2.1, SVG Export Plug-In . SVG Version: 6.00 Build 0)  -->
<svg version="1.1" id="Layer_1" xmlns="http://www.w3.org/2000/svg" xmlns:xlink="http://www.w3.org/1999/xlink" x="0px" y="0px"
	 width="50px" height="50px" viewBox="0 0 50 50" enable-background="new 0 0 50 50" xml:space="preserve">
<path fill="#A0A1A2" d="M31,37H19c1.571,5.8-0.577,7-10,7v3h32v-3C31.577,44,29.429,42.8,31,37z"/>
<path fill="#A0A1A2" d="M46,4H3.7C2.2,4,1,5.4,1,6.9v28.3C1,36.7,2.2,38,3.7,38H46c1.5,0,3-1.3,3-2.8V6.9C49,5.4,47.5,4,46,4"/>
<polygon fill="#0072C6" points="45,34 5,34 5,8 45,8 "/>
<path opacity="0.2" fill="#FFFFFF" enable-background="new    " d="M38,4h8H3.7C2.2,4,1,5.4,1,6.9v28.3C1,36.7,2.2,38,3.7,38H8L38,4
	z"/>
<rect x="9" y="44" opacity="0.2" fill="#FAFDFF" width="32" height="3"/>
<g>
	<path fill="#FFFFFF" d="M24.754,30.672c4.287,0,8.039-3.39,8.396-7.673h-2.501c-0.357,2.855-2.858,5.175-5.895,5.175
		c-1.786,0-3.573-0.892-4.466-2.32L22.967,23H16v7.494l2.501-2.855C20.109,29.423,22.253,30.672,24.754,30.672z"/>
	<path fill="#FFFFFF" d="M25.257,14.817c1.786,0,3.573,0.892,4.466,2.32l-2.68,2.855h6.967v-7.494l-2.501,2.677
		c-1.429-1.784-3.752-2.855-6.253-2.855c-4.466,0-8.039,3.39-8.396,7.673h2.501C19.719,16.958,22.22,14.817,25.257,14.817z"/>
</g>
<rect x="20" y="38" opacity="0.15" fill="#1E1E1E" width="10" height="1"/>
</svg>
