<?xml version="1.0" encoding="utf-8"?>
<!-- Generator: Adobe Illustrator 21.1.0, SVG Export Plug-In . SVG Version: 6.00 Build 0)  -->
<svg version="1.1" id="Layer_1" xmlns="http://www.w3.org/2000/svg" xmlns:xlink="http://www.w3.org/1999/xlink" x="0px" y="0px"
	 width="24px" height="24px" viewBox="0 0 24 24" enable-background="new 0 0 24 24" xml:space="preserve">
<path fill="#804998" d="M16.971,0H7.029L0,7.029v9.941L7.029,24h9.941L24,16.971V7.029L16.971,0z"/>
<polygon opacity="0.2" fill="#FFFFFF" enable-background="new    " points="12,0 7.029,0 0,7.029 0,16.971 7.029,24 12,24 "/>
<path fill="#FFFFFF" d="M16.556,1H7.444L1,7.444v9.113L7.444,23h6.852h1.407h0.853L23,16.556V7.444L16.556,1z M16.711,10H19V9h-4v4
	h1v-2.289l5.719,5.712L16.142,22h-1.438l-5.993-6H11v-1H7v4h1v-2.289L13.295,22H7.858L2,16.142V7.858l2.577-2.577L10.289,11H6v1h6V6
	h-1v4.289L5.281,4.577L7.858,2h8.284L22,7.858v7.438L16.711,10z"/>
</svg>
