<?xml version="1.0" encoding="utf-8"?>
<!-- Generator: Adobe Illustrator 21.1.0, SVG Export Plug-In . SVG Version: 6.00 Build 0)  -->
<svg version="1.1" id="Layer_1" xmlns="http://www.w3.org/2000/svg" xmlns:xlink="http://www.w3.org/1999/xlink" x="0px" y="0px"
	 width="24px" height="24px" viewBox="0 0 24 24" enable-background="new 0 0 24 24" xml:space="preserve">
<polygon fill="#0072C6" points="1.406,11.5 7.117,17.211 6.414,17.914 0,11.5 6.414,5.086 7.117,5.789 "/>
<path fill="#7FBA00" d="M7.5,10C6.672,10,6,10.672,6,11.5S6.672,13,7.5,13S9,12.328,9,11.5S8.328,10,7.5,10z"/>
<path fill="#7FBA00" d="M11.5,10c-0.828,0-1.5,0.672-1.5,1.5s0.672,1.5,1.5,1.5s1.5-0.672,1.5-1.5S12.328,10,11.5,10z"/>
<path fill="#7FBA00" d="M15.5,10c-0.828,0-1.5,0.672-1.5,1.5s0.672,1.5,1.5,1.5c0.828,0,1.5-0.672,1.5-1.5S16.328,10,15.5,10z"/>
<polygon fill="#0072C6" points="15.883,5.789 16.586,5.086 23,11.5 16.586,17.914 15.883,17.211 21.594,11.5 "/>
</svg>
