<?xml version="1.0" encoding="utf-8"?>
<!-- Generator: Adobe Illustrator 21.1.0, SVG Export Plug-In . SVG Version: 6.00 Build 0)  -->
<svg version="1.1" id="Layer_1" xmlns="http://www.w3.org/2000/svg" xmlns:xlink="http://www.w3.org/1999/xlink" x="0px" y="0px"
	 width="24px" height="24px" viewBox="0 0 24 24" enable-background="new 0 0 24 24" xml:space="preserve">
<g>
	<rect x="7" y="9" fill="#3C9BE4" width="15" height="10"/>
</g>
<polygon opacity="0.2" fill="#ECF0F1" enable-background="new    " points="7,9 17,9 12,19 7,19 "/>
<path fill="#FFFFFF" d="M14.5,11.113l2,1.155l-2,1.155l-2-1.155L14.5,11.113z M17,15.443l-2,1.155v-2.309l2-1.155V15.443z
	 M12,15.443v-2.31l2,1.155v2.309L12,15.443z"/>
<path fill="#A0A1A2" d="M23,8H6v12h8v1h-3v1h7v-1h-3v-1h8V8z M22,19H7V9h15V19z"/>
<polygon fill="#A0A1A2" points="20,5 20,7 19,7 19,6 4,6 4,16 5,16 5,17 3,17 3,5 "/>
<polygon fill="#A0A1A2" points="17,2 17,4 16,4 16,3 1,3 1,13 2,13 2,14 0,14 0,2 "/>
<rect x="14" y="20" fill="#7A7A7A" width="1" height="1"/>
<g>
	<polygon fill="#3C9BE4" points="19,6 19,7 5,7 5,16 4,16 4,6 	"/>
</g>
<g>
	<polygon fill="#3C9BE4" points="16,3 16,4 2,4 2,13 1,13 1,3 	"/>
</g>
<polygon opacity="0.2" fill="#ECF0F1" enable-background="new    " points="14,6 4,6 4,16 5,16 5,7 13.5,7 "/>
<polygon opacity="0.2" fill="#ECF0F1" enable-background="new    " points="11,3 1,3 1,13 2,13 2,4 10.5,4 "/>
</svg>
