<?xml version="1.0" encoding="utf-8"?>
<!-- Generator: Adobe Illustrator 21.1.0, SVG Export Plug-In . SVG Version: 6.00 Build 0)  -->
<svg version="1.1" id="Layer_1" xmlns="http://www.w3.org/2000/svg" xmlns:xlink="http://www.w3.org/1999/xlink" x="0px" y="0px"
	 width="24px" height="24px" viewBox="0 0 24 24" enable-background="new 0 0 24 24" xml:space="preserve">
<g>
	<polygon fill="#3C9BE4" points="2,9 2,24 11,24 12,24 21,24 21,9 	"/>
</g>
<polygon opacity="0.2" fill="#FFFFFF" points="2,9 2,24 6.5,24 7,24 11.5,24 11.5,9 "/>
<path fill="#A0A1A2" d="M18,9V6.117c0-0.844-0.152-1.637-0.457-2.379s-0.727-1.391-1.266-1.945s-1.174-0.992-1.904-1.312
	S12.852,0,12,0h-1c-0.852,0-1.643,0.16-2.373,0.48S7.262,1.238,6.723,1.793S5.762,2.996,5.457,3.738S5,5.273,5,6.117V9h1V6.117
	c0-0.709,0.129-1.382,0.382-1.999C6.637,3.498,6.993,2.95,7.44,2.49c0.446-0.459,0.98-0.827,1.589-1.094C9.628,1.133,10.292,1,11,1
	h1c0.708,0,1.372,0.133,1.971,0.396c0.608,0.267,1.143,0.635,1.589,1.094c0.447,0.46,0.803,1.008,1.058,1.628
	C16.871,4.736,17,5.408,17,6.117V9H18z"/>
<polygon fill="#FFFFFF" points="7.18,14.175 6.473,14.882 7.591,16 4.5,16 4.5,17 7.58,17 6.46,18.12 7.161,18.833 9.5,16.495 "/>
<polygon fill="#FFFFFF" points="18.5,16 15.373,16 16.491,14.882 15.784,14.175 13.464,16.495 15.803,18.833 16.505,18.12 
	15.384,17 18.5,17 "/>
<polygon fill="#FFFFFF" points="13.104,19.473 11.964,20.613 11.964,18.486 10.964,18.486 10.964,20.559 9.866,19.46 9.153,20.161 
	11.492,22.5 13.811,20.18 "/>
<polygon fill="#FFFFFF" points="13.811,12.82 11.492,10.5 9.153,12.839 9.866,13.54 10.964,12.441 10.964,14.522 11.964,14.522 
	11.964,12.387 13.104,13.527 "/>
</svg>
