<?xml version="1.0" encoding="utf-8"?>
<!-- Generator: Adobe Illustrator 21.1.0, SVG Export Plug-In . SVG Version: 6.00 Build 0)  -->
<svg version="1.1" id="Layer_1" xmlns="http://www.w3.org/2000/svg" xmlns:xlink="http://www.w3.org/1999/xlink" x="0px" y="0px"
	 width="24px" height="24px" viewBox="0 0 24 24" enable-background="new 0 0 24 24" xml:space="preserve">
<path fill="#59B4D9" d="M7,9.5c0-2.467,3.581-4.345,8.418-4.486C14.234,2.076,11.362,0,8,0C3.582,0,0,3.582,0,8
	c0,4.079,3.055,7.438,7,7.931V9.5z"/>
<path fill="#FF8C00" d="M16,7c4.273,0,7,1.481,7,2.5S20.273,12,16,12s-7-1.481-7-2.5S11.727,7,16,7z"/>
<path fill="#FFFFFF" d="M16,7c4.273,0,7,1.481,7,2.5S20.273,12,16,12s-7-1.481-7-2.5S11.727,7,16,7 M16,6c-4.411,0-8,1.57-8,3.5
	s3.589,3.5,8,3.5s8-1.57,8-3.5S20.411,6,16,6L16,6z"/>
<path fill="#DD5900" d="M10.601,11c1.219,0.562,3.078,1,5.399,1s4.179-0.438,5.399-1c-1.219-0.562-3.078-1-5.399-1
	S11.821,10.438,10.601,11z"/>
<path fill="#0072C6" d="M16,13c-4.411,0-8-1.57-8-3.5v11c0,1.933,3.582,3.5,8,3.5s8-1.567,8-3.5v-11C24,11.43,20.411,13,16,13z"/>
<path fill="#3C9BE4" d="M16,13c-4.411,0-8-1.57-8-3.5v11c0,1.933,3.582,3.5,8,3.5V13z"/>
<g>
	<path fill="#3C9BE4" d="M15.412,5.014c-0.284-0.699-0.657-1.352-1.115-1.937c0.217,0.628,0.363,1.287,0.436,1.968
		C14.957,5.031,15.183,5.021,15.412,5.014z"/>
	<path fill="#3C9BE4" d="M7,14.72c-0.343,0.04-0.69,0.067-1.043,0.067c-1.01,0-1.976-0.178-2.88-0.49
		C4.187,15.166,5.532,15.745,7,15.93V14.72z"/>
</g>
<path fill="#FFFFFF" d="M7,9.5c0-0.694,0.291-1.34,0.806-1.916C7.632,7.153,7.354,6.773,6.985,6.499
	c0.387-0.883,0.784-1.717,1.19-2.464c0.413,0.512,0.865,1.009,1.36,1.479c0.18,0.171,0.371,0.323,0.557,0.481
	c-0.007,0.02-0.005,0.043-0.012,0.063c0.697-0.297,1.487-0.542,2.359-0.719C12.183,5.131,11.858,5,11.5,5
	c-0.285,0-0.549,0.084-0.776,0.222c-0.167-0.143-0.338-0.279-0.5-0.433C9.66,4.254,9.155,3.684,8.709,3.098
	c0.645-1.079,1.29-1.969,1.898-2.654c-0.345-0.119-0.698-0.22-1.063-0.291c-0.493,0.598-0.982,1.29-1.455,2.053
	C7.643,1.5,7.295,0.778,7.05,0.062c-0.337,0.04-0.666,0.104-0.989,0.185C6.379,1.226,6.874,2.211,7.525,3.16
	C7.011,4.07,6.531,5.059,6.083,6.076C5.895,6.03,5.701,6,5.5,6C5.015,6,4.566,6.144,4.183,6.383
	c-1.038-1.076-1.868-2.212-2.462-3.33C1.499,3.334,1.297,3.632,1.114,3.942C1.722,5,2.508,6.056,3.465,7.056
	C3.175,7.464,3,7.961,3,8.5c0,0.981,0.57,1.821,1.392,2.23c-0.396,1.343-0.695,2.644-0.903,3.875
	c0.295,0.202,0.607,0.379,0.929,0.541c0.201-1.305,0.518-2.706,0.949-4.159C5.413,10.989,5.455,11,5.5,11
	c0.567,0,1.082-0.195,1.5-0.514V9.5z M4,8.5C4,7.673,4.673,7,5.5,7S7,7.673,7,8.5S6.327,10,5.5,10S4,9.327,4,8.5z"/>
<path fill="#FFFFFF" d="M10,19.265h0.957v-4.21l1.483,3.67c0.175,0.445,0.414,0.602,0.884,0.602s0.7-0.158,0.875-0.602l1.483-3.67
	v4.21h0.957v-4.203c0-0.41-0.147-0.609-0.451-0.711c-0.728-0.253-1.215-0.034-1.437,0.513l-1.455,3.622l-1.409-3.622
	c-0.212-0.547-0.709-0.765-1.437-0.513c-0.304,0.101-0.452,0.3-0.452,0.71V19.265L10,19.265z M17.437,15.837h0.957v2.319
	c-0.009,0.126,0.037,0.422,0.561,0.431c0.267,0.005,2.066,0,2.083,0v-2.762h0.96c0.004,0-0.001,3.766-0.001,3.783
	c0.005,0.929-1.035,1.131-1.515,1.146h-3.025v-0.717c0.005,0,3.022,0.001,3.03,0c0.616-0.072,0.543-0.414,0.543-0.528V19.23h-2.036
	c-0.947-0.009-1.551-0.47-1.558-0.999C17.437,18.181,17.458,15.86,17.437,15.837L17.437,15.837z"/>
</svg>
