<?xml version="1.0" encoding="utf-8"?>
<!-- Generator: Adobe Illustrator 21.1.0, SVG Export Plug-In . SVG Version: 6.00 Build 0)  -->
<svg version="1.1" id="Layer_1" xmlns="http://www.w3.org/2000/svg" xmlns:xlink="http://www.w3.org/1999/xlink" x="0px" y="0px"
	 width="24px" height="24px" viewBox="0 0 24 24" enable-background="new 0 0 24 24" xml:space="preserve">
<path fill="#59B4D9" d="M7,9.5c0-2.467,3.581-4.345,8.418-4.486C14.234,2.076,11.362,0,8,0C3.582,0,0,3.582,0,8
	c0,4.079,3.055,7.438,7,7.931V9.5z"/>
<path fill="#B8D432" d="M16,7c4.273,0,7,1.481,7,2.5S20.273,12,16,12s-7-1.481-7-2.5S11.727,7,16,7z"/>
<path fill="#FFFFFF" d="M16,7c4.273,0,7,1.481,7,2.5S20.273,12,16,12s-7-1.481-7-2.5S11.727,7,16,7 M16,6c-4.411,0-8,1.57-8,3.5
	s3.589,3.5,8,3.5s8-1.57,8-3.5S20.411,6,16,6L16,6z"/>
<path fill="#7FBA00" d="M10.601,11c1.219,0.562,3.078,1,5.399,1s4.179-0.438,5.399-1c-1.219-0.562-3.078-1-5.399-1
	S11.821,10.438,10.601,11z"/>
<path fill="#0072C6" d="M16,13c-4.411,0-8-1.57-8-3.5v11c0,1.933,3.582,3.5,8,3.5s8-1.567,8-3.5v-11C24,11.43,20.411,13,16,13z"/>
<path fill="#3C9BE4" d="M16,13c-4.411,0-8-1.57-8-3.5v11c0,1.933,3.582,3.5,8,3.5V13z"/>
<path fill="#FFFFFF" d="M13.204,18.323c0,0.484-0.174,0.859-0.523,1.124c-0.349,0.266-0.831,0.398-1.446,0.398
	c-0.523,0-0.961-0.095-1.312-0.285v-1.138c0.406,0.346,0.852,0.52,1.34,0.52c0.236,0,0.418-0.047,0.547-0.142
	c0.129-0.095,0.193-0.22,0.193-0.377c0-0.154-0.062-0.288-0.186-0.402c-0.124-0.114-0.376-0.261-0.755-0.441
	c-0.773-0.365-1.16-0.863-1.16-1.494c0-0.458,0.168-0.825,0.506-1.101c0.337-0.276,0.785-0.414,1.344-0.414
	c0.495,0,0.905,0.066,1.231,0.196v1.063c-0.342-0.237-0.731-0.356-1.167-0.356c-0.219,0-0.392,0.047-0.52,0.14
	c-0.127,0.094-0.191,0.219-0.191,0.375c0,0.161,0.051,0.294,0.154,0.397c0.102,0.103,0.313,0.231,0.631,0.382
	c0.474,0.226,0.812,0.454,1.013,0.687C13.104,17.688,13.204,17.977,13.204,18.323z M18.354,15.816
	c-0.204-0.398-0.49-0.705-0.859-0.921c-0.369-0.216-0.787-0.324-1.254-0.324c-0.5,0-0.943,0.112-1.33,0.334
	c-0.387,0.223-0.686,0.541-0.9,0.955c-0.213,0.414-0.32,0.885-0.32,1.414c0,0.477,0.099,0.909,0.295,1.297
	c0.197,0.388,0.476,0.693,0.838,0.916c0.362,0.223,0.768,0.343,1.218,0.359l1.05,1.185h1.485l-1.471-1.37
	c0.493-0.178,0.874-0.487,1.145-0.928s0.407-0.962,0.407-1.561C18.66,16.666,18.558,16.214,18.354,15.816z M17.111,18.421
	c-0.231,0.288-0.543,0.432-0.937,0.432c-0.387,0-0.696-0.149-0.93-0.446c-0.233-0.298-0.35-0.695-0.35-1.193
	c0-0.5,0.119-0.901,0.357-1.202c0.238-0.301,0.555-0.451,0.951-0.451c0.389,0,0.695,0.15,0.92,0.45
	c0.224,0.3,0.336,0.709,0.336,1.226C17.458,17.738,17.343,18.133,17.111,18.421z M22.518,18.825H20.64v-4.169h-1.142v5.101h3.02
	V18.825z"/>
<g>
	<path fill="#3C9BE4" d="M15.412,5.014c-0.284-0.699-0.657-1.352-1.115-1.937c0.217,0.628,0.363,1.287,0.436,1.968
		C14.957,5.031,15.183,5.021,15.412,5.014z"/>
	<path fill="#3C9BE4" d="M7,14.72c-0.343,0.04-0.69,0.067-1.043,0.067c-1.01,0-1.976-0.178-2.88-0.49
		C4.187,15.166,5.532,15.745,7,15.93V14.72z"/>
</g>
<path fill="#FFFFFF" d="M7,9.5c0-0.694,0.291-1.34,0.806-1.916C7.632,7.153,7.354,6.773,6.985,6.499
	c0.387-0.883,0.784-1.717,1.19-2.464c0.413,0.512,0.865,1.009,1.36,1.479c0.18,0.171,0.371,0.323,0.557,0.481
	c-0.007,0.02-0.005,0.043-0.012,0.063c0.697-0.297,1.487-0.542,2.359-0.719C12.183,5.131,11.858,5,11.5,5
	c-0.285,0-0.549,0.084-0.776,0.222c-0.167-0.143-0.338-0.279-0.5-0.433C9.66,4.254,9.155,3.684,8.709,3.098
	c0.645-1.079,1.29-1.969,1.898-2.654c-0.345-0.119-0.698-0.22-1.063-0.291C9.051,0.751,8.562,1.443,8.089,2.206
	C7.643,1.5,7.295,0.778,7.05,0.062c-0.337,0.04-0.666,0.104-0.989,0.185c0.318,0.979,0.813,1.964,1.464,2.913
	c-0.514,0.91-0.994,1.899-1.442,2.916C5.895,6.03,5.701,6,5.5,6C5.015,6,4.566,6.144,4.183,6.383
	c-1.038-1.076-1.868-2.212-2.462-3.33C1.499,3.334,1.297,3.632,1.114,3.942C1.722,5,2.508,6.056,3.465,7.056
	C3.175,7.464,3,7.961,3,8.5c0,0.981,0.57,1.821,1.392,2.23c-0.396,1.343-0.695,2.644-0.903,3.875
	c0.295,0.202,0.607,0.379,0.929,0.541c0.201-1.305,0.518-2.706,0.949-4.159C5.413,10.989,5.455,11,5.5,11
	c0.567,0,1.082-0.195,1.5-0.514V9.5z M4,8.5C4,7.673,4.673,7,5.5,7S7,7.673,7,8.5S6.327,10,5.5,10S4,9.327,4,8.5z"/>
</svg>
