<?xml version="1.0" encoding="utf-8"?>
<!-- Generator: Adobe Illustrator 21.1.0, SVG Export Plug-In . SVG Version: 6.00 Build 0)  -->
<svg version="1.1" id="Layer_1" xmlns="http://www.w3.org/2000/svg" xmlns:xlink="http://www.w3.org/1999/xlink" x="0px" y="0px"
	 width="24px" height="24px" viewBox="0 0 24 24" enable-background="new 0 0 24 24" xml:space="preserve">
<path fill="#59B4D9" d="M12,0C5.373,0,0,5.373,0,12s5.373,12,12,12s12-5.373,12-12S18.627,0,12,0L12,0z"/>
<g>
	<path fill="#3C9BE4" d="M20.385,3.423c0.799,1.665,1.259,3.523,1.259,5.492c0,7.03-5.699,12.728-12.728,12.728
		c-1.97,0-3.828-0.461-5.493-1.259C5.602,22.613,8.637,24,12,24c6.627,0,12-5.373,12-12C24,8.637,22.613,5.602,20.385,3.423z"/>
</g>
<path fill="#FFFFFF" d="M17.387,13.422c0.716,0,1.358-0.303,1.816-0.785c1.412,0.885,2.872,1.7,4.391,2.413
	c0.086-0.328,0.16-0.66,0.218-0.999c-1.411-0.671-2.768-1.433-4.083-2.257c0.104-0.275,0.168-0.571,0.168-0.882
	c0-1.386-1.124-2.51-2.51-2.51c-0.609,0-1.159,0.225-1.594,0.586c-1.096-0.88-2.157-1.804-3.157-2.79
	c2.341-1.46,5.054-2.379,7.969-2.551c-0.318-0.328-0.651-0.641-1.005-0.931c-2.81,0.315-5.426,1.279-7.695,2.737
	c-1.429-1.48-2.761-3.054-3.958-4.735C7.622,0.833,7.305,0.961,6.995,1.104c1.232,1.751,2.607,3.39,4.084,4.931
	C9.907,6.884,8.854,7.881,7.917,8.979C7.429,8.714,6.878,8.55,6.283,8.55c-0.437,0-0.851,0.09-1.235,0.238
	c-0.742-1.679-1.236-3.489-1.393-5.4C3.34,3.693,3.037,4.01,2.757,4.348c0.23,1.74,0.728,3.391,1.422,4.936
	C3.366,9.915,2.833,10.891,2.833,12c0,1.269,0.693,2.366,1.713,2.965c-0.591,1.766-0.935,3.643-0.938,5.605
	c0.328,0.322,0.679,0.619,1.042,0.902c-0.015-0.289-0.044-0.575-0.044-0.868c0-1.84,0.313-3.604,0.859-5.262
	C5.729,15.406,6,15.45,6.283,15.45c0.676,0,1.302-0.202,1.835-0.538c1.305,1.262,2.798,2.323,4.435,3.147
	C12.52,18.201,12.5,18.348,12.5,18.5c0,1.105,0.895,2,2,2c0.762,0,1.417-0.431,1.754-1.058c1.391,0.348,2.84,0.547,4.338,0.547
	c0.122,0,0.24-0.016,0.362-0.018c0.296-0.332,0.576-0.678,0.834-1.042c-0.397,0.028-0.792,0.061-1.195,0.061
	c-1.414,0-2.782-0.188-4.095-0.516C16.482,17.381,15.595,16.5,14.5,16.5c-0.594,0-1.122,0.264-1.489,0.676
	c-1.525-0.766-2.915-1.752-4.136-2.921C9.403,13.649,9.733,12.867,9.733,12c0-0.943-0.38-1.795-0.993-2.418
	c0.9-1.058,1.909-2.019,3.045-2.826c1.07,1.064,2.206,2.059,3.383,3.005c-0.18,0.346-0.292,0.734-0.292,1.151
	C14.877,12.298,16,13.422,17.387,13.422z M14.5,17.5c0.551,0,1,0.449,1,1s-0.449,1-1,1s-1-0.449-1-1S13.949,17.5,14.5,17.5z
	 M3.833,12c0-1.351,1.099-2.45,2.45-2.45s2.45,1.099,2.45,2.45s-1.099,2.45-2.45,2.45S3.833,13.351,3.833,12z M17.387,9.402
	c0.833,0,1.51,0.677,1.51,1.51s-0.677,1.51-1.51,1.51s-1.51-0.677-1.51-1.51C15.877,10.079,16.554,9.402,17.387,9.402z"/>
</svg>
