<svg width="33" height="32" viewBox="0 0 33 32" fill="none" xmlns="http://www.w3.org/2000/svg">
<path d="M20.0832 22.9492H12.9167C12.9167 27.1219 13.115 29.7157 9.17762 30.2514C8.24286 30.3642 7.36475 31.0972 7.36475 31.9994H25.6635C25.6635 31.069 24.7853 30.3642 23.8506 30.2514C19.9132 29.7157 20.0832 27.1219 20.0832 22.9492Z" fill="#CCCCCC"/>
<path d="M20.0832 22.9492H12.9167C12.9167 27.1219 13.115 29.7157 9.17762 30.2514C8.24286 30.3642 7.36475 31.0972 7.36475 31.9994H25.6635C25.6635 31.069 24.7853 30.3642 23.8506 30.2514C19.9132 29.7157 20.0832 27.1219 20.0832 22.9492Z" fill="url(#paint0_linear)"/>
<path d="M1.10472 0H31.8953C32.5185 0 33 0.507489 33 1.09956V22.1604C33 22.7806 32.4901 23.2599 31.8953 23.2599H1.10472C0.481545 23.2599 0 22.7524 0 22.1604V1.09956C0 0.507489 0.509871 0 1.10472 0Z" fill="url(#paint1_linear)"/>
<path d="M10.5371 7.41518L16.5706 4.39844L22.6324 7.41518L16.5706 10.2628L10.5371 7.41518Z" fill="white"/>
<path d="M16.5991 17.9304V10.2616L22.6326 7.41406V14.9136L16.5991 17.9304Z" fill="white"/>
<path d="M16.5989 17.9304V10.2616L10.5654 7.41406V14.9136L16.5989 17.9304Z" fill="white"/>
<path d="M10.5371 7.41518L16.5706 4.39844L22.6324 7.41518L16.5706 10.2628L10.5371 7.41518Z" fill="#3CC1F4"/>
<path d="M16.5706 4.5676L22.2925 7.41518L16.5706 10.1218L10.8487 7.41518L16.5706 4.5676ZM16.5706 4.39844L10.5371 7.41518L16.5706 10.2909L22.6041 7.41518L16.5706 4.39844Z" fill="#3CC1F4"/>
<path d="M16.5991 17.9304V10.2616L22.6326 7.41406V14.9136L16.5991 17.9304Z" fill="#3CC1F4"/>
<path d="M22.491 7.63961V14.8572L16.7408 17.7048V10.3744L22.491 7.63961ZM22.6326 7.41406L16.5991 10.2616V17.9304L22.6326 14.9136V7.41406Z" fill="#3CC1F4"/>
<path d="M16.5989 17.9304V10.2616L10.5654 7.41406V14.9136L16.5989 17.9304Z" fill="#3CC1F4"/>
<path d="M10.7071 7.63961L16.4573 10.3744V17.7048L10.7071 14.829V7.63961ZM10.5654 7.41406V14.9418L16.5989 17.9586V10.2616L10.5654 7.41406Z" fill="#3CC1F4"/>
<path opacity="0.9" d="M10.4805 7.41433L16.5706 4.42578L22.6607 7.41433L16.5706 10.2901L10.4805 7.41433Z" fill="white"/>
<path opacity="0.2" d="M10.4805 14.94L16.5706 12.0078L22.6607 14.94L16.5706 17.8721L10.4805 14.94Z" fill="white"/>
<path opacity="0.3" d="M16.5708 17.9022V10.2898L22.6609 7.41406V14.9136L16.5708 17.9022Z" fill="white"/>
<path opacity="0.6" d="M16.5706 17.9022V10.2898L10.4805 7.41406V14.9136L16.5706 17.9022Z" fill="white"/>
<path opacity="0.5" d="M10.5371 14.8867L16.5706 17.9035V20.7792L10.5371 17.6779V14.8867Z" fill="url(#paint2_linear)"/>
<path opacity="0.5" d="M22.7176 14.8867L16.5708 17.9035V20.7792L22.7176 17.6779V14.8867Z" fill="url(#paint3_linear)"/>
<defs>
<linearGradient id="paint0_linear" x1="16.593" y1="22.2569" x2="16.593" y2="31.6746" gradientUnits="userSpaceOnUse">
<stop stop-color="#001F50"/>
<stop offset="1" stop-color="#828282" stop-opacity="0.7"/>
</linearGradient>
<linearGradient id="paint1_linear" x1="2.76024" y1="25.4959" x2="30.1655" y2="-2.03804" gradientUnits="userSpaceOnUse">
<stop offset="0.003" stop-color="#1B93EB"/>
<stop offset="0.079" stop-color="#299AEC"/>
<stop offset="0.36" stop-color="#59B0F0"/>
<stop offset="0.5" stop-color="#6BB9F2"/>
<stop offset="0.598" stop-color="#65B6F1"/>
<stop offset="0.725" stop-color="#55AEF0"/>
<stop offset="0.869" stop-color="#3AA2EE"/>
<stop offset="1" stop-color="#1B93EB"/>
</linearGradient>
<linearGradient id="paint2_linear" x1="14.5122" y1="16.1612" x2="13.1687" y2="18.83" gradientUnits="userSpaceOnUse">
<stop stop-color="#003C90"/>
<stop offset="0.149" stop-color="#194F9B" stop-opacity="0.9"/>
<stop offset="0.432" stop-color="#5C83B8" stop-opacity="0.637"/>
<stop offset="0.817" stop-color="#C8D5E7" stop-opacity="0.217"/>
<stop offset="1" stop-color="white" stop-opacity="0"/>
</linearGradient>
<linearGradient id="paint3_linear" x1="18.8521" y1="16.2251" x2="20.1956" y2="18.8939" gradientUnits="userSpaceOnUse">
<stop stop-color="#003C90"/>
<stop offset="0.149" stop-color="#194F9B" stop-opacity="0.9"/>
<stop offset="0.432" stop-color="#5C83B8" stop-opacity="0.637"/>
<stop offset="0.817" stop-color="#C8D5E7" stop-opacity="0.217"/>
<stop offset="1" stop-color="white" stop-opacity="0"/>
</linearGradient>
</defs>
</svg>
